<svg width="32" height="32" viewBox="0 0 32 32" fill="none" xmlns="http://www.w3.org/2000/svg">
<path d="M3.5475 3.78516L5.89264 3.78973C5.91914 3.78961 5.94523 3.79626 5.96844 3.80907C5.99164 3.82187 6.01118 3.84039 6.02521 3.86287L7.83093 6.85716C7.84633 6.88184 7.8545 6.91035 7.8545 6.93944C7.8545 6.96854 7.84633 6.99705 7.83093 7.02173L6.01607 10.016C6.00204 10.0385 5.9825 10.057 5.95929 10.0698C5.93609 10.0826 5.91 10.0893 5.8835 10.0892L3.55207 10.1166C3.52427 10.1167 3.49695 10.1094 3.47295 10.0954C3.44895 10.0813 3.42915 10.0611 3.41561 10.0369C3.40207 10.0126 3.39529 9.98513 3.39598 9.95734C3.39666 9.92955 3.40478 9.90245 3.4195 9.87887L5.15664 7.06744C5.17204 7.04276 5.18021 7.01425 5.18021 6.98516C5.18021 6.95606 5.17204 6.92755 5.15664 6.90287L3.41493 4.02287C3.40021 3.99929 3.39209 3.9722 3.3914 3.94441C3.39072 3.91662 3.3975 3.88916 3.41104 3.86488C3.42458 3.8406 3.44438 3.8204 3.46838 3.80638C3.49238 3.79236 3.5197 3.78503 3.5475 3.78516Z" fill="#94FF94"/>
<path d="M7.90864 9.8697L9.61835 7.07655C9.63355 7.05281 9.64201 7.02537 9.64282 6.99719C9.64362 6.969 9.63674 6.94113 9.62292 6.91655L7.91321 4.02284C7.89826 3.99893 7.8901 3.9714 7.88961 3.94321C7.88911 3.91501 7.89629 3.88722 7.91038 3.86279C7.92447 3.83837 7.94494 3.81824 7.9696 3.80455C7.99425 3.79087 8.02217 3.78416 8.05035 3.78513L10.3909 3.79884C10.4179 3.79919 10.4442 3.80654 10.4675 3.82017C10.4907 3.83379 10.51 3.85322 10.5235 3.87655L12.3018 6.87541C12.3156 6.89999 12.3225 6.92786 12.3217 6.95605C12.3209 6.98423 12.3124 7.01167 12.2972 7.03541L10.4869 9.99313C10.4729 10.0156 10.4533 10.0341 10.4301 10.0469C10.4069 10.0597 10.3809 10.0664 10.3543 10.0663L8.04578 10.1074C8.0176 10.1084 7.98968 10.1017 7.96503 10.088C7.94037 10.0743 7.9199 10.0542 7.90581 10.0297C7.89172 10.0053 7.88454 9.97752 7.88503 9.94933C7.88553 9.92114 7.89369 9.89361 7.90864 9.8697Z" fill="#94FF94"/>
<path d="M14.0708 6.89372L12.4068 4.07772C12.3892 4.04717 12.3799 4.01253 12.3799 3.97726C12.3799 3.942 12.3891 3.90734 12.4067 3.87678C12.4243 3.84622 12.4496 3.82082 12.4801 3.80313C12.5107 3.78544 12.5453 3.77609 12.5805 3.776L14.848 3.79886C14.8828 3.79847 14.917 3.80711 14.9475 3.82394C14.9779 3.84077 15.0035 3.8652 15.0217 3.89486L16.7543 6.84343C16.7721 6.87495 16.7811 6.91071 16.7803 6.94692C16.7795 6.98312 16.7689 7.01844 16.7497 7.04914L14.9988 9.952C14.982 9.98121 14.9581 10.0057 14.9294 10.0233C14.9006 10.0409 14.8679 10.0509 14.8343 10.0526L12.608 10.112C12.5716 10.1132 12.5356 10.1046 12.5038 10.087C12.472 10.0695 12.4455 10.0436 12.4273 10.0122C12.409 9.98074 12.3995 9.94496 12.4 9.9086C12.4004 9.87225 12.4107 9.8367 12.4297 9.80572L14.0663 7.104C14.0864 7.07279 14.0974 7.03662 14.0982 6.9995C14.099 6.96239 14.0895 6.92577 14.0708 6.89372Z" fill="#94FF94"/>
<path d="M17.7463 9.15206C18.8709 7.59777 18.2949 6.2172 17.3989 4.82748C17.2435 4.58367 17.3044 4.49529 17.5818 4.56234C20.1189 5.1612 22.3132 7.38291 24.2103 9.05606C24.3597 9.18406 24.3963 9.33948 24.3201 9.52234C23.9269 10.4732 25.4812 11.5703 26.1441 12.0641C26.3208 12.1951 26.5174 12.2454 26.7338 12.2149C27.2641 12.1372 28.1098 11.9681 28.3932 12.5989C28.4165 12.6528 28.4245 12.7117 28.4164 12.7691C28.4083 12.8264 28.3845 12.8799 28.3475 12.9235L26.1075 15.5886C26.0506 15.6561 25.9772 15.7077 25.8945 15.7384C25.8117 15.7692 25.7223 15.7781 25.6347 15.7644C25.5472 15.7506 25.4644 15.7146 25.3943 15.6599C25.3243 15.6051 25.2692 15.5334 25.2343 15.4515C25.0759 15.0736 25.0119 14.6896 25.0423 14.2995C25.0576 14.1227 25.0088 13.9658 24.8961 13.8286C23.8629 12.5943 22.749 12.1677 21.5543 12.5486C21.3288 12.6187 21.1277 12.5791 20.9509 12.4298L17.8195 9.78291C17.6001 9.59701 17.5757 9.38672 17.7463 9.15206Z" fill="#94FF94"/>
<path d="M20.2287 13.2845L14.8344 20.0777C14.813 20.105 14.7864 20.1278 14.7561 20.1447C14.7258 20.1616 14.6924 20.1723 14.6579 20.1762C14.6234 20.18 14.5885 20.1769 14.5552 20.167C14.5219 20.1572 14.491 20.1408 14.4641 20.1188L11.7395 17.8605C11.7125 17.8381 11.6903 17.8105 11.6742 17.7793C11.6581 17.7481 11.6485 17.714 11.646 17.679C11.6434 17.644 11.6479 17.6088 11.6593 17.5756C11.6707 17.5424 11.6886 17.5118 11.7121 17.4857L17.4767 10.9805C17.5217 10.9287 17.5854 10.8967 17.6539 10.8916C17.7224 10.8865 17.7901 10.9086 17.8424 10.9531L20.1921 12.9234C20.244 12.967 20.2768 13.0291 20.2836 13.0966C20.2904 13.164 20.2707 13.2314 20.2287 13.2845Z" fill="#94FF94"/>
<path d="M13.9612 21.12L9.47201 26.7748C9.45083 26.8005 9.42476 26.8218 9.3953 26.8373C9.36584 26.8529 9.33359 26.8624 9.30042 26.8654C9.26724 26.8684 9.2338 26.8647 9.20205 26.8547C9.1703 26.8446 9.14085 26.8283 9.11544 26.8068L6.08915 24.2422C6.06377 24.2207 6.04291 24.1944 6.02778 24.1648C6.01264 24.1352 6.00354 24.1028 6.00098 24.0697C5.99843 24.0365 6.00249 24.0032 6.01291 23.9716C6.02334 23.94 6.03993 23.9108 6.06172 23.8857L10.8434 18.4822C10.8874 18.433 10.9489 18.403 11.0148 18.3987C11.0806 18.3944 11.1455 18.4162 11.1954 18.4594L13.9246 20.7725C13.9745 20.8144 14.0062 20.874 14.0131 20.9388C14.0199 21.0037 14.0013 21.0686 13.9612 21.12Z" fill="#94FF94"/>
<path d="M8.46001 27.3517L5.63178 24.9616C5.45437 24.8117 5.18901 24.834 5.03909 25.0114L4.73812 25.3676C4.58819 25.545 4.61048 25.8103 4.78789 25.9603L7.61612 28.3503C7.79353 28.5002 8.05888 28.4779 8.20881 28.3005L8.50977 27.9444C8.6597 27.767 8.63742 27.5016 8.46001 27.3517Z" fill="#94FF94"/>
</svg>
