<?xml version="1.0" encoding="UTF-8" standalone="no"?>
<!DOCTYPE svg PUBLIC "-//W3C//DTD SVG 1.1//EN" "http://www.w3.org/Graphics/SVG/1.1/DTD/svg11.dtd">
<svg xmlns="http://www.w3.org/2000/svg" version="1.1" viewBox="0.00 0.00 70.00 70.00">
<g stroke-width="2.00" fill="none" stroke-linecap="butt">
<path stroke="#629a69" vector-effect="non-scaling-stroke" d="
  M 7.76 8.28
  A 0.34 0.34 0.0 0 0 7.47 8.80
  L 11.28 15.10
  A 0.34 0.34 0.0 0 1 11.28 15.46
  L 7.48 21.61
  A 0.34 0.34 0.0 0 0 7.77 22.13
  L 12.87 22.07
  A 0.34 0.34 0.0 0 0 13.16 21.91
  L 17.13 15.36
  A 0.34 0.34 0.0 0 0 17.13 15.00
  L 13.18 8.45
  A 0.34 0.34 0.0 0 0 12.89 8.29
  L 7.76 8.28"
/>
<path stroke="#629a69" vector-effect="non-scaling-stroke" d="
  M 17.30 21.59
  A 0.34 0.34 0.0 0 0 17.60 22.11
  L 22.65 22.02
  A 0.34 0.34 0.0 0 0 22.94 21.86
  L 26.90 15.39
  A 0.34 0.34 0.0 0 0 26.91 15.04
  L 23.02 8.48
  A 0.34 0.34 0.0 0 0 22.73 8.31
  L 17.61 8.28
  A 0.34 0.34 0.0 0 0 17.31 8.80
  L 21.05 15.13
  A 0.34 0.34 0.0 0 1 21.04 15.48
  L 17.30 21.59"
/>
<path stroke="#629a69" vector-effect="non-scaling-stroke" d="
  M 30.78 15.08
  A 0.44 0.44 0.0 0 1 30.77 15.54
  L 27.19 21.45
  A 0.44 0.44 0.0 0 0 27.58 22.12
  L 32.45 21.99
  A 0.44 0.44 0.0 0 0 32.81 21.77
  L 36.64 15.42
  A 0.44 0.44 0.0 0 0 36.65 14.97
  L 32.86 8.52
  A 0.44 0.44 0.0 0 0 32.48 8.31
  L 27.52 8.26
  A 0.44 0.44 0.0 0 0 27.14 8.92
  L 30.78 15.08"
/>
<path stroke="#629a69" vector-effect="non-scaling-stroke" d="
  M 38.06 10.56
  C 40.02 13.60 41.28 16.62 38.82 20.02
  Q 38.26 20.79 38.98 21.40
  L 45.83 27.19
  Q 46.41 27.68 47.15 27.45
  Q 51.07 26.20 54.46 30.25
  Q 54.83 30.70 54.78 31.28
  Q 54.68 32.56 55.20 33.80
  A 1.14 1.13 53.7 0 0 57.11 34.10
  L 62.01 28.27
  A 0.69 0.67 53.5 0 0 62.11 27.56
  C 61.49 26.18 59.64 26.55 58.48 26.72
  Q 57.77 26.82 57.19 26.39
  C 55.74 25.31 52.34 22.91 53.20 20.83
  Q 53.45 20.23 52.96 19.81
  C 48.81 16.15 44.01 11.29 38.46 9.98
  Q 37.55 9.76 38.06 10.56"
/>
<path stroke="#629a69" vector-effect="non-scaling-stroke" d="
  M 44.25 29.06
  A 0.57 0.57 0.0 0 0 44.17 28.27
  L 39.03 23.96
  A 0.57 0.57 0.0 0 0 38.23 24.02
  L 25.62 38.25
  A 0.57 0.57 0.0 0 0 25.68 39.07
  L 31.64 44.01
  A 0.57 0.57 0.0 0 0 32.45 43.92
  L 44.25 29.06"
/>
<path stroke="#629a69" vector-effect="non-scaling-stroke" d="
  M 30.54 46.20
  A 0.55 0.55 0.0 0 0 30.46 45.44
  L 24.49 40.38
  A 0.55 0.55 0.0 0 0 23.72 40.43
  L 13.26 52.25
  A 0.55 0.55 0.0 0 0 13.32 53.03
  L 19.94 58.64
  A 0.55 0.55 0.0 0 0 20.72 58.57
  L 30.54 46.20"
/>
<path stroke="#629a69" vector-effect="non-scaling-stroke" d="
  M 18.6152 61.1284
  A 0.92 0.92 0.0 0 0 18.5064 59.8319
  L 12.3196 54.6037
  A 0.92 0.92 0.0 0 0 11.0231 54.7125
  L 10.3648 55.4916
  A 0.92 0.92 0.0 0 0 10.4736 56.7881
  L 16.6604 62.0163
  A 0.92 0.92 0.0 0 0 17.9569 61.9075
  L 18.6152 61.1284"
/>
</g>
<path fill="#2f353e" d="
  M 0.00 0.00
  L 70.00 0.00
  L 70.00 70.00
  L 0.00 70.00
  L 0.00 0.00
  Z
  M 7.76 8.28
  A 0.34 0.34 0.0 0 0 7.47 8.80
  L 11.28 15.10
  A 0.34 0.34 0.0 0 1 11.28 15.46
  L 7.48 21.61
  A 0.34 0.34 0.0 0 0 7.77 22.13
  L 12.87 22.07
  A 0.34 0.34 0.0 0 0 13.16 21.91
  L 17.13 15.36
  A 0.34 0.34 0.0 0 0 17.13 15.00
  L 13.18 8.45
  A 0.34 0.34 0.0 0 0 12.89 8.29
  L 7.76 8.28
  Z
  M 17.30 21.59
  A 0.34 0.34 0.0 0 0 17.60 22.11
  L 22.65 22.02
  A 0.34 0.34 0.0 0 0 22.94 21.86
  L 26.90 15.39
  A 0.34 0.34 0.0 0 0 26.91 15.04
  L 23.02 8.48
  A 0.34 0.34 0.0 0 0 22.73 8.31
  L 17.61 8.28
  A 0.34 0.34 0.0 0 0 17.31 8.80
  L 21.05 15.13
  A 0.34 0.34 0.0 0 1 21.04 15.48
  L 17.30 21.59
  Z
  M 30.78 15.08
  A 0.44 0.44 0.0 0 1 30.77 15.54
  L 27.19 21.45
  A 0.44 0.44 0.0 0 0 27.58 22.12
  L 32.45 21.99
  A 0.44 0.44 0.0 0 0 32.81 21.77
  L 36.64 15.42
  A 0.44 0.44 0.0 0 0 36.65 14.97
  L 32.86 8.52
  A 0.44 0.44 0.0 0 0 32.48 8.31
  L 27.52 8.26
  A 0.44 0.44 0.0 0 0 27.14 8.92
  L 30.78 15.08
  Z
  M 38.06 10.56
  C 40.02 13.60 41.28 16.62 38.82 20.02
  Q 38.26 20.79 38.98 21.40
  L 45.83 27.19
  Q 46.41 27.68 47.15 27.45
  Q 51.07 26.20 54.46 30.25
  Q 54.83 30.70 54.78 31.28
  Q 54.68 32.56 55.20 33.80
  A 1.14 1.13 53.7 0 0 57.11 34.10
  L 62.01 28.27
  A 0.69 0.67 53.5 0 0 62.11 27.56
  C 61.49 26.18 59.64 26.55 58.48 26.72
  Q 57.77 26.82 57.19 26.39
  C 55.74 25.31 52.34 22.91 53.20 20.83
  Q 53.45 20.23 52.96 19.81
  C 48.81 16.15 44.01 11.29 38.46 9.98
  Q 37.55 9.76 38.06 10.56
  Z
  M 44.25 29.06
  A 0.57 0.57 0.0 0 0 44.17 28.27
  L 39.03 23.96
  A 0.57 0.57 0.0 0 0 38.23 24.02
  L 25.62 38.25
  A 0.57 0.57 0.0 0 0 25.68 39.07
  L 31.64 44.01
  A 0.57 0.57 0.0 0 0 32.45 43.92
  L 44.25 29.06
  Z
  M 30.54 46.20
  A 0.55 0.55 0.0 0 0 30.46 45.44
  L 24.49 40.38
  A 0.55 0.55 0.0 0 0 23.72 40.43
  L 13.26 52.25
  A 0.55 0.55 0.0 0 0 13.32 53.03
  L 19.94 58.64
  A 0.55 0.55 0.0 0 0 20.72 58.57
  L 30.54 46.20
  Z
  M 18.6152 61.1284
  A 0.92 0.92 0.0 0 0 18.5064 59.8319
  L 12.3196 54.6037
  A 0.92 0.92 0.0 0 0 11.0231 54.7125
  L 10.3648 55.4916
  A 0.92 0.92 0.0 0 0 10.4736 56.7881
  L 16.6604 62.0163
  A 0.92 0.92 0.0 0 0 17.9569 61.9075
  L 18.6152 61.1284
  Z"
/>
<g fill="#94ff94">
<path d="
  M 7.76 8.28
  L 12.89 8.29
  A 0.34 0.34 0.0 0 1 13.18 8.45
  L 17.13 15.00
  A 0.34 0.34 0.0 0 1 17.13 15.36
  L 13.16 21.91
  A 0.34 0.34 0.0 0 1 12.87 22.07
  L 7.77 22.13
  A 0.34 0.34 0.0 0 1 7.48 21.61
  L 11.28 15.46
  A 0.34 0.34 0.0 0 0 11.28 15.10
  L 7.47 8.80
  A 0.34 0.34 0.0 0 1 7.76 8.28
  Z"
/>
<path d="
  M 17.30 21.59
  L 21.04 15.48
  A 0.34 0.34 0.0 0 0 21.05 15.13
  L 17.31 8.80
  A 0.34 0.34 0.0 0 1 17.61 8.28
  L 22.73 8.31
  A 0.34 0.34 0.0 0 1 23.02 8.48
  L 26.91 15.04
  A 0.34 0.34 0.0 0 1 26.90 15.39
  L 22.94 21.86
  A 0.34 0.34 0.0 0 1 22.65 22.02
  L 17.60 22.11
  A 0.34 0.34 0.0 0 1 17.30 21.59
  Z"
/>
<path d="
  M 30.78 15.08
  L 27.14 8.92
  A 0.44 0.44 0.0 0 1 27.52 8.26
  L 32.48 8.31
  A 0.44 0.44 0.0 0 1 32.86 8.52
  L 36.65 14.97
  A 0.44 0.44 0.0 0 1 36.64 15.42
  L 32.81 21.77
  A 0.44 0.44 0.0 0 1 32.45 21.99
  L 27.58 22.12
  A 0.44 0.44 0.0 0 1 27.19 21.45
  L 30.77 15.54
  A 0.44 0.44 0.0 0 0 30.78 15.08
  Z"
/>
<path d="
  M 38.82 20.02
  C 41.28 16.62 40.02 13.60 38.06 10.56
  Q 37.55 9.76 38.46 9.98
  C 44.01 11.29 48.81 16.15 52.96 19.81
  Q 53.45 20.23 53.20 20.83
  C 52.34 22.91 55.74 25.31 57.19 26.39
  Q 57.77 26.82 58.48 26.72
  C 59.64 26.55 61.49 26.18 62.11 27.56
  A 0.69 0.67 53.5 0 1 62.01 28.27
  L 57.11 34.10
  A 1.14 1.13 53.7 0 1 55.20 33.80
  Q 54.68 32.56 54.78 31.28
  Q 54.83 30.70 54.46 30.25
  Q 51.07 26.20 47.15 27.45
  Q 46.41 27.68 45.83 27.19
  L 38.98 21.40
  Q 38.26 20.79 38.82 20.02
  Z"
/>
<path d="
  M 44.25 29.06
  L 32.45 43.92
  A 0.57 0.57 0.0 0 1 31.64 44.01
  L 25.68 39.07
  A 0.57 0.57 0.0 0 1 25.62 38.25
  L 38.23 24.02
  A 0.57 0.57 0.0 0 1 39.03 23.96
  L 44.17 28.27
  A 0.57 0.57 0.0 0 1 44.25 29.06
  Z"
/>
<path d="
  M 30.54 46.20
  L 20.72 58.57
  A 0.55 0.55 0.0 0 1 19.94 58.64
  L 13.32 53.03
  A 0.55 0.55 0.0 0 1 13.26 52.25
  L 23.72 40.43
  A 0.55 0.55 0.0 0 1 24.49 40.38
  L 30.46 45.44
  A 0.55 0.55 0.0 0 1 30.54 46.20
  Z"
/>
<rect x="-4.97" y="-1.43" transform="translate(14.49,58.31) rotate(40.2)" width="9.94" height="2.86" rx="0.92"/>
</g>
</svg>
