<svg width="32" height="32" viewBox="0 0 32 32" fill="none" xmlns="http://www.w3.org/2000/svg">
<path d="M6.6057 16.8732C6.43808 16.8031 6.24913 16.7711 6.03884 16.7772C5.91851 16.7799 5.79978 16.7493 5.69574 16.6888C5.59169 16.6283 5.50636 16.5402 5.44916 16.4343C5.39195 16.3284 5.3651 16.2088 5.37154 16.0886C5.37799 15.9684 5.4175 15.8524 5.4857 15.7532L7.65713 12.5898C7.75589 12.4474 7.80417 12.2763 7.79422 12.1039C7.78427 11.9314 7.71667 11.7677 7.60227 11.6389C7.22741 11.2153 7.12075 10.7429 7.28227 10.2218C8.49522 6.31472 10.9775 4.05948 14.7291 3.45605C20.0686 2.59662 24.96 6.24462 24.7863 11.8126C24.7101 14.2903 23.9558 16.4039 22.5234 18.1532C20.2971 20.8686 24.0594 26.6241 25.9474 28.4343C26.1211 28.602 26.0861 28.6858 25.8423 28.6858H12.096C11.8674 28.6858 11.8278 28.6004 11.9771 28.4298C12.5227 27.7959 12.8884 26.8831 13.0743 25.6915C13.2297 24.7041 12.3977 23.9223 11.744 23.3189C10.6286 22.2858 9.38056 23.0126 8.10056 23.2092C7.94513 23.2305 7.79884 23.2016 7.6617 23.1223C6.41827 22.3909 7.51999 21.2755 7.09027 20.3612C6.95008 20.0595 6.85561 19.7319 6.80684 19.3783C6.70322 18.6134 6.71541 17.9322 6.84341 17.3349C6.89218 17.1155 6.81294 16.9616 6.6057 16.8732ZM17.8011 11.7258C16.3566 11.7989 14.9455 11.7898 13.568 11.6983C13.2967 11.68 13.2708 11.5917 13.4903 11.4332C14.6484 10.6073 14.8861 9.61681 14.2034 8.46176C13.3668 7.05376 11.168 7.32805 10.592 8.81834C10.1501 9.9551 10.4716 10.8267 11.5566 11.4332C11.7333 11.5307 11.7272 11.613 11.5383 11.68C11.3067 11.7593 11.0552 11.7806 10.784 11.7441C10.5006 11.7014 10.3649 11.8233 10.3771 12.1098L10.3908 12.4252C10.403 12.7025 10.5478 12.8381 10.8251 12.832L15.328 12.7452C15.3792 12.7443 15.4298 12.7572 15.4744 12.7824C15.519 12.8076 15.5559 12.8442 15.5812 12.8883C15.6066 12.9323 15.6194 12.9823 15.6182 13.0328C15.6171 13.0833 15.6021 13.1324 15.5748 13.1749L12.6994 17.7326C12.6741 17.7727 12.6599 17.8189 12.6585 17.8663C12.657 17.9137 12.6684 17.9607 12.6912 18.0022C12.7141 18.0438 12.7477 18.0784 12.7886 18.1026C12.8294 18.1267 12.876 18.1395 12.9234 18.1395L18.6194 18.1029C18.912 18.0999 18.9806 17.9749 18.8251 17.728L15.968 13.184C15.9406 13.1396 15.9258 13.0886 15.9252 13.0365C15.9246 12.9843 15.9381 12.9329 15.9644 12.8879C15.9907 12.8428 16.0287 12.8057 16.0745 12.7806C16.1202 12.7555 16.1719 12.7432 16.224 12.7452C17.6777 12.8122 19.107 12.8244 20.512 12.7818C20.8167 12.7757 20.9905 12.6126 21.0331 12.2926C21.0448 12.202 21.0282 12.1101 20.9856 12.0298C20.943 11.9495 20.8765 11.8848 20.7954 11.8446C20.6461 11.7715 20.4861 11.7334 20.3154 11.7303C19.7211 11.7181 19.6617 11.5353 20.1371 11.1818C20.7497 10.7307 20.9844 10.106 20.8411 9.30748C20.3657 6.65148 16.5303 7.14976 16.7908 9.92005C16.8503 10.6058 17.3028 11.0995 17.8697 11.4332C18.1684 11.61 18.1455 11.7075 17.8011 11.7258Z" fill="#94FF94"/>
</svg>
