<?xml version="1.0" encoding="UTF-8" standalone="no"?>
<!DOCTYPE svg PUBLIC "-//W3C//DTD SVG 1.1//EN" "http://www.w3.org/Graphics/SVG/1.1/DTD/svg11.dtd">
<svg xmlns="http://www.w3.org/2000/svg" version="1.1" viewBox="0.00 0.00 70.00 70.00">
<g stroke-width="2.00" fill="none" stroke-linecap="butt">
<path stroke="#575c63" vector-effect="non-scaling-stroke" d="
  M 14.97 37.92
  Q 14.55 39.88 14.89 42.39
  Q 15.05 43.55 15.51 44.54
  C 16.45 46.54 14.04 48.98 16.76 50.58
  Q 17.21 50.84 17.72 50.77
  C 20.52 50.34 23.25 48.75 25.69 51.01
  C 27.12 52.33 28.94 54.04 28.60 56.20
  Q 27.99 60.11 26.20 62.19
  Q 25.71 62.75 26.46 62.75
  L 56.53 62.75
  Q 57.33 62.75 56.76 62.20
  C 52.63 58.24 44.40 45.65 49.27 39.71
  Q 53.97 33.97 54.22 25.84
  C 54.60 13.66 43.90 5.68 32.22 7.56
  Q 19.91 9.54 15.93 22.36
  Q 15.40 24.07 16.63 25.46
  A 1.69 1.68 -48.4 0 1 16.75 27.54
  L 12.00 34.46
  A 1.43 1.43 0.0 0 0 13.21 36.70
  Q 13.90 36.68 14.45 36.91
  Q 15.13 37.20 14.97 37.92"
/>
<path stroke="#575c63" vector-effect="non-scaling-stroke" d="
  M 38.94 25.65
  Q 34.20 25.89 29.68 25.59
  Q 28.79 25.53 29.51 25.01
  Q 33.31 22.30 31.07 18.51
  C 29.24 15.43 24.43 16.03 23.17 19.29
  Q 21.72 23.02 25.28 25.01
  Q 25.86 25.33 25.24 25.55
  Q 24.48 25.81 23.59 25.69
  Q 22.66 25.55 22.70 26.49
  L 22.73 27.18
  Q 22.77 28.09 23.68 28.07
  L 33.53 27.88
  A 0.62 0.61 15.3 0 1 34.07 28.82
  L 27.78 38.79
  A 0.58 0.58 0.0 0 0 28.27 39.68
  L 40.73 39.60
  Q 41.69 39.59 41.18 38.78
  L 34.93 28.84
  A 0.63 0.63 0.0 0 1 35.49 27.88
  Q 40.26 28.10 44.87 27.96
  Q 45.87 27.94 46.01 26.89
  A 0.96 0.95 -73.2 0 0 45.49 25.91
  Q 45.00 25.67 44.44 25.66
  Q 42.49 25.62 44.05 24.46
  Q 46.06 22.98 45.59 20.36
  C 44.55 14.55 36.16 15.64 36.73 21.70
  C 36.86 23.20 37.85 24.28 39.09 25.01
  Q 40.07 25.59 38.94 25.65"
/>
</g>
<g fill="#2f353e">
<path d="
  M 0.00 0.00
  L 70.00 0.00
  L 70.00 70.00
  L 0.00 70.00
  L 0.00 0.00
  Z
  M 14.97 37.92
  Q 14.55 39.88 14.89 42.39
  Q 15.05 43.55 15.51 44.54
  C 16.45 46.54 14.04 48.98 16.76 50.58
  Q 17.21 50.84 17.72 50.77
  C 20.52 50.34 23.25 48.75 25.69 51.01
  C 27.12 52.33 28.94 54.04 28.60 56.20
  Q 27.99 60.11 26.20 62.19
  Q 25.71 62.75 26.46 62.75
  L 56.53 62.75
  Q 57.33 62.75 56.76 62.20
  C 52.63 58.24 44.40 45.65 49.27 39.71
  Q 53.97 33.97 54.22 25.84
  C 54.60 13.66 43.90 5.68 32.22 7.56
  Q 19.91 9.54 15.93 22.36
  Q 15.40 24.07 16.63 25.46
  A 1.69 1.68 -48.4 0 1 16.75 27.54
  L 12.00 34.46
  A 1.43 1.43 0.0 0 0 13.21 36.70
  Q 13.90 36.68 14.45 36.91
  Q 15.13 37.20 14.97 37.92
  Z"
/>
<path d="
  M 39.09 25.01
  C 37.85 24.28 36.86 23.20 36.73 21.70
  C 36.16 15.64 44.55 14.55 45.59 20.36
  Q 46.06 22.98 44.05 24.46
  Q 42.49 25.62 44.44 25.66
  Q 45.00 25.67 45.49 25.91
  A 0.96 0.95 -73.2 0 1 46.01 26.89
  Q 45.87 27.94 44.87 27.96
  Q 40.26 28.10 35.49 27.88
  A 0.63 0.63 0.0 0 0 34.93 28.84
  L 41.18 38.78
  Q 41.69 39.59 40.73 39.60
  L 28.27 39.68
  A 0.58 0.58 0.0 0 1 27.78 38.79
  L 34.07 28.82
  A 0.62 0.61 15.3 0 0 33.53 27.88
  L 23.68 28.07
  Q 22.77 28.09 22.73 27.18
  L 22.70 26.49
  Q 22.66 25.55 23.59 25.69
  Q 24.48 25.81 25.24 25.55
  Q 25.86 25.33 25.28 25.01
  Q 21.72 23.02 23.17 19.29
  C 24.43 16.03 29.24 15.43 31.07 18.51
  Q 33.31 22.30 29.51 25.01
  Q 28.79 25.53 29.68 25.59
  Q 34.20 25.89 38.94 25.65
  Q 40.07 25.59 39.09 25.01
  Z"
/>
</g>
<path fill="#94ff94" d="
  M 14.45 36.91
  Q 13.90 36.68 13.21 36.70
  A 1.43 1.43 0.0 0 1 12.00 34.46
  L 16.75 27.54
  A 1.69 1.68 -48.4 0 0 16.63 25.46
  Q 15.40 24.07 15.93 22.36
  Q 19.91 9.54 32.22 7.56
  C 43.90 5.68 54.60 13.66 54.22 25.84
  Q 53.97 33.97 49.27 39.71
  C 44.40 45.65 52.63 58.24 56.76 62.20
  Q 57.33 62.75 56.53 62.75
  L 26.46 62.75
  Q 25.71 62.75 26.20 62.19
  Q 27.99 60.11 28.60 56.20
  C 28.94 54.04 27.12 52.33 25.69 51.01
  C 23.25 48.75 20.52 50.34 17.72 50.77
  Q 17.21 50.84 16.76 50.58
  C 14.04 48.98 16.45 46.54 15.51 44.54
  Q 15.05 43.55 14.89 42.39
  Q 14.55 39.88 14.97 37.92
  Q 15.13 37.20 14.45 36.91
  Z
  M 38.94 25.65
  Q 34.20 25.89 29.68 25.59
  Q 28.79 25.53 29.51 25.01
  Q 33.31 22.30 31.07 18.51
  C 29.24 15.43 24.43 16.03 23.17 19.29
  Q 21.72 23.02 25.28 25.01
  Q 25.86 25.33 25.24 25.55
  Q 24.48 25.81 23.59 25.69
  Q 22.66 25.55 22.70 26.49
  L 22.73 27.18
  Q 22.77 28.09 23.68 28.07
  L 33.53 27.88
  A 0.62 0.61 15.3 0 1 34.07 28.82
  L 27.78 38.79
  A 0.58 0.58 0.0 0 0 28.27 39.68
  L 40.73 39.60
  Q 41.69 39.59 41.18 38.78
  L 34.93 28.84
  A 0.63 0.63 0.0 0 1 35.49 27.88
  Q 40.26 28.10 44.87 27.96
  Q 45.87 27.94 46.01 26.89
  A 0.96 0.95 -73.2 0 0 45.49 25.91
  Q 45.00 25.67 44.44 25.66
  Q 42.49 25.62 44.05 24.46
  Q 46.06 22.98 45.59 20.36
  C 44.55 14.55 36.16 15.64 36.73 21.70
  C 36.86 23.20 37.85 24.28 39.09 25.01
  Q 40.07 25.59 38.94 25.65
  Z"
/>
</svg>
