<?xml version="1.0" encoding="UTF-8" standalone="no"?>
<!DOCTYPE svg PUBLIC "-//W3C//DTD SVG 1.1//EN" "http://www.w3.org/Graphics/SVG/1.1/DTD/svg11.dtd">
<svg xmlns="http://www.w3.org/2000/svg" version="1.1" viewBox="0.00 0.00 70.00 70.00">
<g stroke-width="2.00" fill="none" stroke-linecap="butt">
<path stroke="#575c63" vector-effect="non-scaling-stroke" d="
  M 38.97 9.26
  C 34.94 11.17 29.74 15.04 28.10 19.47
  A 0.84 0.83 25.5 0 0 28.47 20.50
  L 37.31 25.53
  A 1.49 1.49 0.0 0 0 39.36 24.94
  Q 43.05 18.05 42.05 10.08
  Q 41.99 9.57 41.54 9.30
  Q 40.35 8.60 38.97 9.26"
/>
<path stroke="#575c63" vector-effect="non-scaling-stroke" d="
  M 37.0366 30.4171
  A 2.38 2.38 0.0 0 0 36.1541 27.1690
  L 28.0665 22.5372
  A 2.38 2.38 0.0 0 0 24.8184 23.4197
  L 12.5034 44.9229
  A 2.38 2.38 0.0 0 0 13.3859 48.1710
  L 21.4735 52.8028
  A 2.38 2.38 0.0 0 0 24.7216 51.9203
  L 37.0366 30.4171"
/>
<path stroke="#575c63" vector-effect="non-scaling-stroke" d="
  M 55.41 37.66
  A 0.84 0.84 0.0 0 1 55.41 38.86
  L 47.26 46.85
  A 0.84 0.84 0.0 0 0 47.24 48.02
  L 49.47 50.42
  A 0.84 0.84 0.0 0 0 50.68 50.44
  L 62.36 38.90
  A 0.84 0.84 0.0 0 0 62.37 37.71
  L 50.65 25.92
  A 0.84 0.84 0.0 0 0 49.44 25.94
  L 47.18 28.42
  A 0.84 0.84 0.0 0 0 47.21 29.59
  L 55.41 37.66"
/>
<path stroke="#575c63" vector-effect="non-scaling-stroke" d="
  M 10.05 50.74
  Q 8.96 49.61 7.74 50.94
  A 1.60 1.60 0.0 0 0 8.12 53.41
  L 19.71 60.10
  A 1.16 1.15 -56.6 0 0 21.22 59.78
  Q 21.78 59.02 21.84 58.10
  Q 21.88 57.50 21.33 57.25
  L 20.92 57.07
  Q 20.35 56.81 20.50 56.21
  L 20.76 55.14
  Q 20.87 54.72 20.49 54.50
  L 12.23 49.65
  Q 11.78 49.38 11.49 49.82
  L 10.95 50.65
  Q 10.56 51.26 10.05 50.74"
/>
</g>
<path fill="#2f353e" d="
  M 0.00 0.00
  L 70.00 0.00
  L 70.00 70.00
  L 0.00 70.00
  L 0.00 0.00
  Z
  M 38.97 9.26
  C 34.94 11.17 29.74 15.04 28.10 19.47
  A 0.84 0.83 25.5 0 0 28.47 20.50
  L 37.31 25.53
  A 1.49 1.49 0.0 0 0 39.36 24.94
  Q 43.05 18.05 42.05 10.08
  Q 41.99 9.57 41.54 9.30
  Q 40.35 8.60 38.97 9.26
  Z
  M 37.0366 30.4171
  A 2.38 2.38 0.0 0 0 36.1541 27.1690
  L 28.0665 22.5372
  A 2.38 2.38 0.0 0 0 24.8184 23.4197
  L 12.5034 44.9229
  A 2.38 2.38 0.0 0 0 13.3859 48.1710
  L 21.4735 52.8028
  A 2.38 2.38 0.0 0 0 24.7216 51.9203
  L 37.0366 30.4171
  Z
  M 55.41 37.66
  A 0.84 0.84 0.0 0 1 55.41 38.86
  L 47.26 46.85
  A 0.84 0.84 0.0 0 0 47.24 48.02
  L 49.47 50.42
  A 0.84 0.84 0.0 0 0 50.68 50.44
  L 62.36 38.90
  A 0.84 0.84 0.0 0 0 62.37 37.71
  L 50.65 25.92
  A 0.84 0.84 0.0 0 0 49.44 25.94
  L 47.18 28.42
  A 0.84 0.84 0.0 0 0 47.21 29.59
  L 55.41 37.66
  Z
  M 10.05 50.74
  Q 8.96 49.61 7.74 50.94
  A 1.60 1.60 0.0 0 0 8.12 53.41
  L 19.71 60.10
  A 1.16 1.15 -56.6 0 0 21.22 59.78
  Q 21.78 59.02 21.84 58.10
  Q 21.88 57.50 21.33 57.25
  L 20.92 57.07
  Q 20.35 56.81 20.50 56.21
  L 20.76 55.14
  Q 20.87 54.72 20.49 54.50
  L 12.23 49.65
  Q 11.78 49.38 11.49 49.82
  L 10.95 50.65
  Q 10.56 51.26 10.05 50.74
  Z"
/>
<g fill="#94ff94">
<path d="
  M 38.97 9.26
  Q 40.35 8.60 41.54 9.30
  Q 41.99 9.57 42.05 10.08
  Q 43.05 18.05 39.36 24.94
  A 1.49 1.49 0.0 0 1 37.31 25.53
  L 28.47 20.50
  A 0.84 0.83 25.5 0 1 28.10 19.47
  C 29.74 15.04 34.94 11.17 38.97 9.26
  Z"
/>
<rect x="-7.04" y="-14.77" transform="translate(24.77,37.67) rotate(29.8)" width="14.08" height="29.54" rx="2.38"/>
<path d="
  M 55.41 37.66
  L 47.21 29.59
  A 0.84 0.84 0.0 0 1 47.18 28.42
  L 49.44 25.94
  A 0.84 0.84 0.0 0 1 50.65 25.92
  L 62.37 37.71
  A 0.84 0.84 0.0 0 1 62.36 38.90
  L 50.68 50.44
  A 0.84 0.84 0.0 0 1 49.47 50.42
  L 47.24 48.02
  A 0.84 0.84 0.0 0 1 47.26 46.85
  L 55.41 38.86
  A 0.84 0.84 0.0 0 0 55.41 37.66
  Z"
/>
<path d="
  M 10.95 50.65
  L 11.49 49.82
  Q 11.78 49.38 12.23 49.65
  L 20.49 54.50
  Q 20.87 54.72 20.76 55.14
  L 20.50 56.21
  Q 20.35 56.81 20.92 57.07
  L 21.33 57.25
  Q 21.88 57.50 21.84 58.10
  Q 21.78 59.02 21.22 59.78
  A 1.16 1.15 -56.6 0 1 19.71 60.10
  L 8.12 53.41
  A 1.60 1.60 0.0 0 1 7.74 50.94
  Q 8.96 49.61 10.05 50.74
  Q 10.56 51.26 10.95 50.65
  Z"
/>
</g>
</svg>
