<svg width="32" height="32" viewBox="0 0 32 32" fill="none" xmlns="http://www.w3.org/2000/svg">
<path d="M17.8148 4.23309C18.2354 4.03195 18.627 4.03804 18.9897 4.25138C19.1268 4.33366 19.2045 4.45252 19.2228 4.60795C19.5276 7.0369 19.1177 9.30128 17.9931 11.4011C17.9501 11.4812 17.8915 11.5518 17.8208 11.6089C17.7501 11.666 17.6687 11.7083 17.5814 11.7335C17.494 11.7586 17.4026 11.766 17.3123 11.7552C17.2221 11.7445 17.1349 11.7158 17.056 11.6708L13.0148 9.37138C12.9344 9.32573 12.873 9.25297 12.842 9.16647C12.8109 9.07997 12.8122 8.98554 12.8457 8.90052C13.5954 6.87538 15.9725 5.10623 17.8148 4.23309Z" fill="#94FF94"/>
<path d="M16.5275 12.4201L12.8304 10.3027C12.3089 10.004 11.6441 10.1847 11.3455 10.7061L5.7158 20.5361C5.41718 21.0576 5.59779 21.7224 6.11922 22.021L9.8164 24.1384C10.3378 24.437 11.0026 24.2564 11.3012 23.7349L16.931 13.9049C17.2296 13.3835 17.049 12.7187 16.5275 12.4201Z" fill="#94FF94"/>
<path d="M25.3303 17.2161L21.5818 13.5269C21.5104 13.4571 21.469 13.3621 21.4664 13.2623C21.4639 13.1624 21.5003 13.0655 21.5681 12.9921L22.6012 11.8583C22.6364 11.8205 22.6789 11.7902 22.7261 11.7692C22.7732 11.7483 22.8242 11.737 22.8758 11.7361C22.9275 11.7353 22.9788 11.7449 23.0266 11.7643C23.0745 11.7837 23.1179 11.8126 23.1543 11.8492L28.5121 17.2389C28.5476 17.2749 28.5756 17.3175 28.5946 17.3644C28.6136 17.4112 28.6231 17.4613 28.6227 17.5119C28.6223 17.5624 28.6119 17.6124 28.5921 17.6589C28.5723 17.7054 28.5436 17.7475 28.5075 17.7829L23.1681 23.0583C23.1316 23.0949 23.0882 23.1238 23.0403 23.1433C22.9925 23.1627 22.9412 23.1723 22.8895 23.1714C22.8379 23.1705 22.787 23.1593 22.7398 23.1383C22.6926 23.1173 22.6501 23.087 22.6149 23.0492L21.5955 21.9521C21.5272 21.8792 21.4899 21.7826 21.4916 21.6828C21.4933 21.5829 21.5339 21.4877 21.6046 21.4172L25.3303 17.7646C25.3668 17.7289 25.3958 17.6862 25.4156 17.6391C25.4354 17.592 25.4456 17.5414 25.4456 17.4903C25.4456 17.4393 25.4354 17.3887 25.4156 17.3416C25.3958 17.2945 25.3668 17.2518 25.3303 17.2161Z" fill="#94FF94"/>
<path d="M5.00569 23.1542L5.25254 22.7748C5.34093 22.6407 5.45369 22.6148 5.59083 22.6971L9.36683 24.9142C9.48264 24.9813 9.52378 25.0788 9.49026 25.2068L9.3714 25.6959C9.32569 25.8788 9.38969 26.0098 9.5634 26.0891L9.75083 26.1714C9.91845 26.2476 9.99616 26.3771 9.98397 26.5599C9.96569 26.8403 9.87121 27.0963 9.70054 27.3279C9.62305 27.4333 9.5097 27.5065 9.38228 27.5336C9.25486 27.5606 9.12236 27.5394 9.01026 27.4742L3.71197 24.4159C3.61687 24.3612 3.53529 24.2859 3.47328 24.1953C3.41126 24.1048 3.3704 24.0016 3.35372 23.8931C3.33704 23.7847 3.34496 23.6739 3.37691 23.5689C3.40885 23.464 3.464 23.3676 3.53826 23.2868C3.91007 22.8815 4.26207 22.851 4.59426 23.1954C4.74969 23.3538 4.88683 23.3401 5.00569 23.1542Z" fill="#94FF94"/>
</svg>
