<?xml version="1.0" encoding="UTF-8" standalone="no"?>
<!DOCTYPE svg PUBLIC "-//W3C//DTD SVG 1.1//EN" "http://www.w3.org/Graphics/SVG/1.1/DTD/svg11.dtd">
<svg xmlns="http://www.w3.org/2000/svg" version="1.1" viewBox="0.00 0.00 70.00 70.00">
<g stroke-width="2.00" fill="none" stroke-linecap="butt">
<path stroke="#575c63" vector-effect="non-scaling-stroke" d="
  M 11.45 15.82
  A 0.35 0.35 0.0 0 1 11.44 16.19
  L 7.61 22.18
  A 0.35 0.35 0.0 0 0 7.90 22.72
  L 13.06 22.88
  A 0.35 0.35 0.0 0 0 13.38 22.71
  L 17.33 16.01
  A 0.35 0.35 0.0 0 0 17.33 15.65
  L 13.09 8.49
  A 0.35 0.35 0.0 0 0 12.79 8.32
  L 7.68 8.41
  A 0.35 0.35 0.0 0 0 7.39 8.94
  L 11.45 15.82"
/>
<path stroke="#575c63" vector-effect="non-scaling-stroke" d="
  M 23.06 8.57
  A 0.39 0.39 0.0 0 0 22.72 8.38
  L 17.80 8.43
  A 0.39 0.39 0.0 0 0 17.46 9.02
  L 21.36 15.81
  A 0.39 0.39 0.0 0 1 21.36 16.21
  L 17.64 22.19
  A 0.39 0.39 0.0 0 0 17.97 22.78
  L 22.99 22.87
  A 0.39 0.39 0.0 0 0 23.34 22.67
  L 27.25 16.06
  A 0.39 0.39 0.0 0 0 27.25 15.66
  L 23.06 8.57"
/>
<path stroke="#575c63" vector-effect="non-scaling-stroke" d="
  M 31.09 15.63
  A 0.78 0.78 0.0 0 1 31.08 16.44
  L 27.69 21.78
  A 0.78 0.78 0.0 0 0 28.36 22.97
  L 32.73 22.90
  A 0.78 0.78 0.0 0 0 33.38 22.52
  L 37.10 16.26
  A 0.78 0.78 0.0 0 0 37.11 15.46
  L 33.14 8.75
  A 0.78 0.78 0.0 0 0 32.48 8.37
  L 28.21 8.33
  A 0.78 0.78 0.0 0 0 27.53 9.50
  L 31.09 15.63"
/>
<path stroke="#575c63" vector-effect="non-scaling-stroke" d="
  M 53.51 19.31
  A 4.61 4.61 0.0 0 0 48.90 14.70
  A 4.61 4.61 0.0 0 0 44.29 19.31
  A 4.61 4.61 0.0 0 0 48.90 23.92
  A 4.61 4.61 0.0 0 0 53.51 19.31"
/>
<path stroke="#575c63" vector-effect="non-scaling-stroke" d="
  M 39.87 31.76
  Q 38.75 35.24 37.28 38.56
  C 36.35 40.66 36.48 43.08 38.56 44.40
  Q 42.93 47.18 47.21 49.64
  A 1.81 1.81 0.0 0 1 48.10 51.07
  Q 48.34 54.79 48.59 58.22
  Q 48.76 60.58 50.86 61.61
  A 1.05 1.03 -51.2 0 0 51.97 61.48
  C 53.05 60.61 53.94 59.58 53.80 58.07
  Q 53.36 53.24 52.95 48.53
  A 2.94 2.93 -77.1 0 0 51.53 46.26
  L 44.93 42.32
  A 0.60 0.60 0.0 0 1 44.68 41.59
  Q 46.37 37.22 48.16 32.46
  C 49.88 27.87 46.57 26.08 42.72 26.14
  Q 38.94 26.20 35.70 26.18
  A 2.91 2.89 -70.0 0 0 33.44 27.24
  L 28.73 33.05
  Q 27.27 34.86 28.89 36.53
  Q 29.22 36.86 29.68 37.05
  Q 31.32 37.69 32.38 36.29
  L 36.12 31.36
  A 0.99 0.99 0.0 0 1 36.88 30.98
  L 39.26 30.94
  Q 40.14 30.92 39.87 31.76"
/>
<path stroke="#575c63" vector-effect="non-scaling-stroke" d="
  M 53.23 33.11
  L 51.88 31.59
  Q 51.25 30.88 50.92 31.77
  L 49.77 34.86
  Q 49.41 35.83 50.02 36.65
  Q 51.94 39.28 54.78 38.13
  Q 57.76 36.93 60.66 35.78
  Q 62.50 35.05 62.31 33.08
  Q 62.28 32.75 62.12 32.46
  Q 61.06 30.53 59.02 31.34
  L 54.10 33.31
  A 0.77 0.76 -31.7 0 1 53.23 33.11"
/>
<path stroke="#575c63" vector-effect="non-scaling-stroke" d="
  M 31.22 45.45
  L 24.17 41.59
  Q 21.95 40.38 20.45 42.42
  Q 20.14 42.84 20.16 43.40
  Q 20.23 45.39 21.97 46.33
  L 31.02 51.21
  A 2.64 2.64 0.0 0 0 34.19 50.70
  L 37.16 47.56
  Q 37.92 46.76 37.04 46.10
  Q 35.69 45.08 35.04 43.68
  Q 34.59 42.72 33.88 43.50
  L 32.24 45.28
  Q 31.80 45.76 31.22 45.45"
/>
</g>
<path fill="#2f353e" d="
  M 0.00 0.00
  L 70.00 0.00
  L 70.00 70.00
  L 0.00 70.00
  L 0.00 0.00
  Z
  M 11.45 15.82
  A 0.35 0.35 0.0 0 1 11.44 16.19
  L 7.61 22.18
  A 0.35 0.35 0.0 0 0 7.90 22.72
  L 13.06 22.88
  A 0.35 0.35 0.0 0 0 13.38 22.71
  L 17.33 16.01
  A 0.35 0.35 0.0 0 0 17.33 15.65
  L 13.09 8.49
  A 0.35 0.35 0.0 0 0 12.79 8.32
  L 7.68 8.41
  A 0.35 0.35 0.0 0 0 7.39 8.94
  L 11.45 15.82
  Z
  M 23.06 8.57
  A 0.39 0.39 0.0 0 0 22.72 8.38
  L 17.80 8.43
  A 0.39 0.39 0.0 0 0 17.46 9.02
  L 21.36 15.81
  A 0.39 0.39 0.0 0 1 21.36 16.21
  L 17.64 22.19
  A 0.39 0.39 0.0 0 0 17.97 22.78
  L 22.99 22.87
  A 0.39 0.39 0.0 0 0 23.34 22.67
  L 27.25 16.06
  A 0.39 0.39 0.0 0 0 27.25 15.66
  L 23.06 8.57
  Z
  M 31.09 15.63
  A 0.78 0.78 0.0 0 1 31.08 16.44
  L 27.69 21.78
  A 0.78 0.78 0.0 0 0 28.36 22.97
  L 32.73 22.90
  A 0.78 0.78 0.0 0 0 33.38 22.52
  L 37.10 16.26
  A 0.78 0.78 0.0 0 0 37.11 15.46
  L 33.14 8.75
  A 0.78 0.78 0.0 0 0 32.48 8.37
  L 28.21 8.33
  A 0.78 0.78 0.0 0 0 27.53 9.50
  L 31.09 15.63
  Z
  M 53.51 19.31
  A 4.61 4.61 0.0 0 0 48.90 14.70
  A 4.61 4.61 0.0 0 0 44.29 19.31
  A 4.61 4.61 0.0 0 0 48.90 23.92
  A 4.61 4.61 0.0 0 0 53.51 19.31
  Z
  M 39.87 31.76
  Q 38.75 35.24 37.28 38.56
  C 36.35 40.66 36.48 43.08 38.56 44.40
  Q 42.93 47.18 47.21 49.64
  A 1.81 1.81 0.0 0 1 48.10 51.07
  Q 48.34 54.79 48.59 58.22
  Q 48.76 60.58 50.86 61.61
  A 1.05 1.03 -51.2 0 0 51.97 61.48
  C 53.05 60.61 53.94 59.58 53.80 58.07
  Q 53.36 53.24 52.95 48.53
  A 2.94 2.93 -77.1 0 0 51.53 46.26
  L 44.93 42.32
  A 0.60 0.60 0.0 0 1 44.68 41.59
  Q 46.37 37.22 48.16 32.46
  C 49.88 27.87 46.57 26.08 42.72 26.14
  Q 38.94 26.20 35.70 26.18
  A 2.91 2.89 -70.0 0 0 33.44 27.24
  L 28.73 33.05
  Q 27.27 34.86 28.89 36.53
  Q 29.22 36.86 29.68 37.05
  Q 31.32 37.69 32.38 36.29
  L 36.12 31.36
  A 0.99 0.99 0.0 0 1 36.88 30.98
  L 39.26 30.94
  Q 40.14 30.92 39.87 31.76
  Z
  M 53.23 33.11
  L 51.88 31.59
  Q 51.25 30.88 50.92 31.77
  L 49.77 34.86
  Q 49.41 35.83 50.02 36.65
  Q 51.94 39.28 54.78 38.13
  Q 57.76 36.93 60.66 35.78
  Q 62.50 35.05 62.31 33.08
  Q 62.28 32.75 62.12 32.46
  Q 61.06 30.53 59.02 31.34
  L 54.10 33.31
  A 0.77 0.76 -31.7 0 1 53.23 33.11
  Z
  M 31.22 45.45
  L 24.17 41.59
  Q 21.95 40.38 20.45 42.42
  Q 20.14 42.84 20.16 43.40
  Q 20.23 45.39 21.97 46.33
  L 31.02 51.21
  A 2.64 2.64 0.0 0 0 34.19 50.70
  L 37.16 47.56
  Q 37.92 46.76 37.04 46.10
  Q 35.69 45.08 35.04 43.68
  Q 34.59 42.72 33.88 43.50
  L 32.24 45.28
  Q 31.80 45.76 31.22 45.45
  Z"
/>
<g fill="#94ff94">
<path d="
  M 11.45 15.82
  L 7.39 8.94
  A 0.35 0.35 0.0 0 1 7.68 8.41
  L 12.79 8.32
  A 0.35 0.35 0.0 0 1 13.09 8.49
  L 17.33 15.65
  A 0.35 0.35 0.0 0 1 17.33 16.01
  L 13.38 22.71
  A 0.35 0.35 0.0 0 1 13.06 22.88
  L 7.90 22.72
  A 0.35 0.35 0.0 0 1 7.61 22.18
  L 11.44 16.19
  A 0.35 0.35 0.0 0 0 11.45 15.82
  Z"
/>
<path d="
  M 23.06 8.57
  L 27.25 15.66
  A 0.39 0.39 0.0 0 1 27.25 16.06
  L 23.34 22.67
  A 0.39 0.39 0.0 0 1 22.99 22.87
  L 17.97 22.78
  A 0.39 0.39 0.0 0 1 17.64 22.19
  L 21.36 16.21
  A 0.39 0.39 0.0 0 0 21.36 15.81
  L 17.46 9.02
  A 0.39 0.39 0.0 0 1 17.80 8.43
  L 22.72 8.38
  A 0.39 0.39 0.0 0 1 23.06 8.57
  Z"
/>
<path d="
  M 31.09 15.63
  L 27.53 9.50
  A 0.78 0.78 0.0 0 1 28.21 8.33
  L 32.48 8.37
  A 0.78 0.78 0.0 0 1 33.14 8.75
  L 37.11 15.46
  A 0.78 0.78 0.0 0 1 37.10 16.26
  L 33.38 22.52
  A 0.78 0.78 0.0 0 1 32.73 22.90
  L 28.36 22.97
  A 0.78 0.78 0.0 0 1 27.69 21.78
  L 31.08 16.44
  A 0.78 0.78 0.0 0 0 31.09 15.63
  Z"
/>
<circle cx="48.90" cy="19.31" r="4.61"/>
<path d="
  M 39.26 30.94
  L 36.88 30.98
  A 0.99 0.99 0.0 0 0 36.12 31.36
  L 32.38 36.29
  Q 31.32 37.69 29.68 37.05
  Q 29.22 36.86 28.89 36.53
  Q 27.27 34.86 28.73 33.05
  L 33.44 27.24
  A 2.91 2.89 -70.0 0 1 35.70 26.18
  Q 38.94 26.20 42.72 26.14
  C 46.57 26.08 49.88 27.87 48.16 32.46
  Q 46.37 37.22 44.68 41.59
  A 0.60 0.60 0.0 0 0 44.93 42.32
  L 51.53 46.26
  A 2.94 2.93 -77.1 0 1 52.95 48.53
  Q 53.36 53.24 53.80 58.07
  C 53.94 59.58 53.05 60.61 51.97 61.48
  A 1.05 1.03 -51.2 0 1 50.86 61.61
  Q 48.76 60.58 48.59 58.22
  Q 48.34 54.79 48.10 51.07
  A 1.81 1.81 0.0 0 0 47.21 49.64
  Q 42.93 47.18 38.56 44.40
  C 36.48 43.08 36.35 40.66 37.28 38.56
  Q 38.75 35.24 39.87 31.76
  Q 40.14 30.92 39.26 30.94
  Z"
/>
<path d="
  M 54.10 33.31
  L 59.02 31.34
  Q 61.06 30.53 62.12 32.46
  Q 62.28 32.75 62.31 33.08
  Q 62.50 35.05 60.66 35.78
  Q 57.76 36.93 54.78 38.13
  Q 51.94 39.28 50.02 36.65
  Q 49.41 35.83 49.77 34.86
  L 50.92 31.77
  Q 51.25 30.88 51.88 31.59
  L 53.23 33.11
  A 0.77 0.76 -31.7 0 0 54.10 33.31
  Z"
/>
<path d="
  M 32.24 45.28
  L 33.88 43.50
  Q 34.59 42.72 35.04 43.68
  Q 35.69 45.08 37.04 46.10
  Q 37.92 46.76 37.16 47.56
  L 34.19 50.70
  A 2.64 2.64 0.0 0 1 31.02 51.21
  L 21.97 46.33
  Q 20.23 45.39 20.16 43.40
  Q 20.14 42.84 20.45 42.42
  Q 21.95 40.38 24.17 41.59
  L 31.22 45.45
  Q 31.80 45.76 32.24 45.28
  Z"
/>
</g>
</svg>
