<svg width="32" height="32" viewBox="0 0 32 32" fill="none" xmlns="http://www.w3.org/2000/svg">
<path d="M5.23429 7.23204L3.37829 4.0869C3.36392 4.06295 3.35606 4.03566 3.3555 4.00774C3.35494 3.97982 3.3617 3.95224 3.37511 3.92774C3.38851 3.90324 3.4081 3.88268 3.43191 3.86809C3.45573 3.85351 3.48295 3.84541 3.51086 3.84461L5.84686 3.80347C5.87448 3.80348 5.90163 3.81064 5.92567 3.82426C5.9497 3.83788 5.9698 3.85749 5.984 3.88118L7.92229 7.15432C7.9372 7.17918 7.94507 7.20762 7.94507 7.23661C7.94507 7.2656 7.9372 7.29404 7.92229 7.3189L6.11658 10.3818C6.1016 10.4068 6.08006 10.4273 6.05427 10.441C6.02849 10.4547 5.99944 10.4611 5.97029 10.4595L3.61143 10.3863C3.58282 10.386 3.55481 10.378 3.53034 10.3632C3.50586 10.3484 3.48581 10.3272 3.47227 10.302C3.45873 10.2768 3.4522 10.2484 3.45336 10.2199C3.45452 10.1913 3.46332 10.1635 3.47886 10.1395L5.22972 7.40118C5.24621 7.37623 5.25538 7.34716 5.25619 7.31726C5.257 7.28737 5.24941 7.25784 5.23429 7.23204Z" fill="#94FF94"/>
<path d="M10.5418 3.91768L12.4572 7.15883C12.4737 7.18647 12.4824 7.21806 12.4824 7.25025C12.4824 7.28245 12.4737 7.31404 12.4572 7.34168L10.6698 10.3634C10.654 10.3918 10.6307 10.4153 10.6025 10.4314C10.5743 10.4475 10.5422 10.4556 10.5098 10.4548L8.21492 10.4137C8.18359 10.4133 8.15291 10.4047 8.12598 10.3886C8.09905 10.3726 8.07681 10.3498 8.06152 10.3224C8.04622 10.2951 8.0384 10.2642 8.03885 10.2329C8.0393 10.2015 8.04799 10.1709 8.06407 10.144L9.76464 7.41025C9.78115 7.38261 9.78987 7.35102 9.78987 7.31883C9.78987 7.28663 9.78115 7.25504 9.76464 7.2274L7.98178 4.1234C7.96551 4.09616 7.9568 4.06508 7.95655 4.03336C7.9563 4.00164 7.96452 3.97042 7.98036 3.94294C7.9962 3.91545 8.01908 3.89269 8.04666 3.877C8.07423 3.86131 8.10549 3.85326 8.13721 3.85368L10.3864 3.83083C10.4176 3.83041 10.4484 3.83822 10.4757 3.85346C10.503 3.86871 10.5258 3.89085 10.5418 3.91768Z" fill="#94FF94"/>
<path d="M14.2126 7.14513L12.5851 4.34285C12.5537 4.28849 12.5373 4.22681 12.5374 4.16404C12.5374 4.10128 12.5541 4.03965 12.5856 3.98538C12.6172 3.93111 12.6625 3.88613 12.717 3.85499C12.7715 3.82384 12.8332 3.80763 12.896 3.80799L14.848 3.82628C14.9089 3.82703 14.9687 3.84339 15.0215 3.87381C15.0743 3.90422 15.1184 3.94766 15.1497 3.99999L16.9646 7.06742C16.9969 7.12311 17.0135 7.18652 17.0127 7.25091C17.0119 7.3153 16.9937 7.37827 16.96 7.43313L15.2594 10.2948C15.2286 10.3465 15.1851 10.3896 15.1332 10.4199C15.0812 10.4503 15.0224 10.467 14.9623 10.4686L12.9646 10.5006C12.9008 10.5011 12.8381 10.4845 12.7829 10.4526C12.7278 10.4206 12.6822 10.3745 12.6509 10.3189C12.6196 10.2634 12.6038 10.2005 12.6051 10.1367C12.6064 10.073 12.6248 10.0108 12.6583 9.95656L14.208 7.51542C14.2426 7.46003 14.2613 7.39621 14.2621 7.33091C14.2629 7.26562 14.2458 7.20135 14.2126 7.14513Z" fill="#94FF94"/>
<path d="M22.3543 10.9348C23.5182 10.9348 24.4617 9.9913 24.4617 8.8274C24.4617 7.6635 23.5182 6.71997 22.3543 6.71997C21.1904 6.71997 20.2468 7.6635 20.2468 8.8274C20.2468 9.9913 21.1904 10.9348 22.3543 10.9348Z" fill="#94FF94"/>
<path d="M17.9475 14.144L16.8595 14.1623C16.7923 14.1637 16.7263 14.18 16.6662 14.21C16.6061 14.2401 16.5534 14.2831 16.512 14.336L14.8023 16.5898C14.4793 17.0164 14.0679 17.1322 13.568 16.9372C13.4279 16.8793 13.3075 16.8 13.2069 16.6995C12.7132 16.1905 12.6888 15.6602 13.1338 15.1086L15.2869 12.4526C15.4127 12.2998 15.5707 12.1769 15.7495 12.0931C15.9282 12.0093 16.1232 11.9665 16.32 11.968C17.3075 11.9741 18.3772 11.968 19.5292 11.9498C21.2892 11.9223 22.8023 12.7406 22.016 14.8389C21.4705 16.2896 20.9402 17.6808 20.4252 19.0126C20.402 19.0728 20.4007 19.1393 20.4216 19.2003C20.4425 19.2613 20.4842 19.313 20.5395 19.3463L23.5566 21.1475C23.7392 21.2563 23.8933 21.4071 24.0062 21.5876C24.119 21.768 24.1874 21.9729 24.2058 22.1852C24.3307 23.6206 24.4602 25.0743 24.5943 26.5463C24.6583 27.2366 24.2515 27.7075 23.7578 28.1052C23.6867 28.1625 23.6012 28.1985 23.5113 28.209C23.4214 28.2195 23.3309 28.2041 23.2503 28.1646C22.6103 27.8507 22.2644 27.3341 22.2126 26.6149C22.1364 25.5696 22.0618 24.48 21.9886 23.3463C21.9789 23.2126 21.9367 23.0831 21.8659 22.9693C21.795 22.8554 21.6975 22.7604 21.5818 22.6926C20.2774 21.9429 18.9593 21.1444 17.6275 20.2972C16.6766 19.6938 16.6172 18.5875 17.0423 17.6275C17.4903 16.6157 17.885 15.5795 18.2263 14.5189C18.3086 14.2629 18.2157 14.138 17.9475 14.144Z" fill="#94FF94"/>
<path d="M24.7314 15.2274L26.9806 14.3269C27.6023 14.08 28.0747 14.2507 28.3977 14.8389C28.4465 14.9273 28.4754 15.0217 28.4846 15.1223C28.5425 15.7227 28.291 16.1341 27.7303 16.3566C26.8465 16.7071 25.9505 17.0652 25.0423 17.4309C24.1768 17.7813 23.4514 17.5558 22.8663 16.7543C22.6804 16.5044 22.6423 16.2316 22.752 15.936L23.2777 14.5234C23.3783 14.2522 23.5246 14.2248 23.7166 14.4412L24.3337 15.136C24.3815 15.1908 24.4457 15.2292 24.517 15.2456C24.5884 15.262 24.6634 15.2556 24.7314 15.2274Z" fill="#94FF94"/>
<path d="M14.7382 20.6994L15.4879 19.8857C15.7043 19.648 15.881 19.6754 16.0182 19.968C16.2163 20.3947 16.521 20.7634 16.9325 21.0743C17.2006 21.2754 17.2189 21.4979 16.9873 21.7417L15.6296 23.1772C15.4473 23.3699 15.2065 23.4972 14.9445 23.5393C14.6826 23.5815 14.414 23.5361 14.1805 23.4103L10.0433 21.1794C9.51303 20.893 9.23722 20.4465 9.21589 19.84C9.20979 19.6693 9.25398 19.52 9.34846 19.392C9.8056 18.7703 10.3725 18.6438 11.049 19.0126L14.2719 20.7772C14.4486 20.8716 14.6041 20.8457 14.7382 20.6994Z" fill="#94FF94"/>
</svg>
