<?xml version="1.0" encoding="UTF-8" standalone="no"?>
<!DOCTYPE svg PUBLIC "-//W3C//DTD SVG 1.1//EN" "http://www.w3.org/Graphics/SVG/1.1/DTD/svg11.dtd">
<svg xmlns="http://www.w3.org/2000/svg" version="1.1" viewBox="0.00 0.00 34.00 34.00">
<g stroke-width="2.00" fill="none" stroke-linecap="butt">
<path stroke="#659f70" vector-effect="non-scaling-stroke" d="
  M 21.42 3.20
  A 0.37 0.37 0.0 0 0 20.92 3.24
  L 17.93 6.42
  A 0.37 0.37 0.0 0 0 17.97 6.97
  L 24.75 12.25
  A 0.37 0.37 0.0 0 0 25.26 12.21
  L 28.15 8.88
  A 0.37 0.37 0.0 0 0 28.10 8.34
  L 21.42 3.20"
/>
<path stroke="#659f70" vector-effect="non-scaling-stroke" d="
  M 20.51 16.89
  Q 19.63 16.25 20.72 16.22
  L 22.75 16.17
  A 0.57 0.57 0.0 0 0 23.29 15.50
  Q 23.11 14.55 23.77 13.94
  Q 24.25 13.49 23.74 13.08
  L 17.19 7.90
  A 0.31 0.31 0.0 0 0 16.78 7.92
  L 11.41 13.19
  Q 11.21 13.38 11.41 13.57
  Q 17.21 19.18 22.94 25.95
  A 1.27 1.27 0.0 0 0 23.94 26.41
  L 30.97 26.36
  Q 32.08 26.35 31.75 25.28
  L 31.48 24.39
  Q 31.20 23.50 30.26 23.56
  L 27.00 23.78
  A 1.18 1.18 0.0 0 1 25.81 23.00
  L 25.04 20.78
  Q 24.86 20.24 24.29 20.35
  Q 22.50 20.70 20.90 20.21
  Q 20.61 20.12 20.61 19.81
  Q 20.61 19.66 20.72 19.55
  Q 20.96 19.35 21.27 19.37
  Q 22.77 19.46 24.22 19.22
  Q 24.47 19.18 24.39 18.94
  L 23.79 17.32
  Q 23.71 17.11 23.50 17.16
  Q 21.50 17.59 20.51 16.89"
/>
<path stroke="#659f70" vector-effect="non-scaling-stroke" d="
  M 23.04 27.40
  A 0.30 0.30 0.0 0 1 22.82 27.30
  L 10.80 14.33
  A 0.30 0.30 0.0 0 0 10.34 14.34
  L 8.43 16.75
  A 0.30 0.30 0.0 0 0 8.46 17.16
  L 21.60 29.40
  A 0.30 0.30 0.0 0 0 21.83 29.48
  L 31.89 28.79
  A 0.30 0.30 0.0 0 0 32.16 28.46
  L 32.07 27.69
  A 0.30 0.30 0.0 0 0 31.77 27.43
  L 23.04 27.40"
/>
<path stroke="#659f70" vector-effect="non-scaling-stroke" d="
  M 13.4601 23.6962
  A 0.50 0.50 0.0 0 0 12.9636 23.1927
  L 3.6038 23.1273
  A 0.50 0.50 0.0 0 0 3.1003 23.6238
  L 3.0999 23.6838
  A 0.50 0.50 0.0 0 0 3.5964 24.1873
  L 12.9562 24.2527
  A 0.50 0.50 0.0 0 0 13.4597 23.7562
  L 13.4601 23.6962"
/>
<path stroke="#659f70" vector-effect="non-scaling-stroke" d="
  M 18.29 28.31
  A 0.53 0.53 0.0 0 0 17.76 27.78
  L 1.56 27.78
  A 0.53 0.53 0.0 0 0 1.03 28.31
  L 1.03 28.33
  A 0.53 0.53 0.0 0 0 1.56 28.86
  L 17.76 28.86
  A 0.53 0.53 0.0 0 0 18.29 28.33
  L 18.29 28.31"
/>
</g>
<path fill="#363f4b" d="
  M 0.00 0.00
  L 34.00 0.00
  L 34.00 34.00
  L 0.00 34.00
  L 0.00 0.00
  Z
  M 21.42 3.20
  A 0.37 0.37 0.0 0 0 20.92 3.24
  L 17.93 6.42
  A 0.37 0.37 0.0 0 0 17.97 6.97
  L 24.75 12.25
  A 0.37 0.37 0.0 0 0 25.26 12.21
  L 28.15 8.88
  A 0.37 0.37 0.0 0 0 28.10 8.34
  L 21.42 3.20
  Z
  M 20.51 16.89
  Q 19.63 16.25 20.72 16.22
  L 22.75 16.17
  A 0.57 0.57 0.0 0 0 23.29 15.50
  Q 23.11 14.55 23.77 13.94
  Q 24.25 13.49 23.74 13.08
  L 17.19 7.90
  A 0.31 0.31 0.0 0 0 16.78 7.92
  L 11.41 13.19
  Q 11.21 13.38 11.41 13.57
  Q 17.21 19.18 22.94 25.95
  A 1.27 1.27 0.0 0 0 23.94 26.41
  L 30.97 26.36
  Q 32.08 26.35 31.75 25.28
  L 31.48 24.39
  Q 31.20 23.50 30.26 23.56
  L 27.00 23.78
  A 1.18 1.18 0.0 0 1 25.81 23.00
  L 25.04 20.78
  Q 24.86 20.24 24.29 20.35
  Q 22.50 20.70 20.90 20.21
  Q 20.61 20.12 20.61 19.81
  Q 20.61 19.66 20.72 19.55
  Q 20.96 19.35 21.27 19.37
  Q 22.77 19.46 24.22 19.22
  Q 24.47 19.18 24.39 18.94
  L 23.79 17.32
  Q 23.71 17.11 23.50 17.16
  Q 21.50 17.59 20.51 16.89
  Z
  M 23.04 27.40
  A 0.30 0.30 0.0 0 1 22.82 27.30
  L 10.80 14.33
  A 0.30 0.30 0.0 0 0 10.34 14.34
  L 8.43 16.75
  A 0.30 0.30 0.0 0 0 8.46 17.16
  L 21.60 29.40
  A 0.30 0.30 0.0 0 0 21.83 29.48
  L 31.89 28.79
  A 0.30 0.30 0.0 0 0 32.16 28.46
  L 32.07 27.69
  A 0.30 0.30 0.0 0 0 31.77 27.43
  L 23.04 27.40
  Z
  M 13.4601 23.6962
  A 0.50 0.50 0.0 0 0 12.9636 23.1927
  L 3.6038 23.1273
  A 0.50 0.50 0.0 0 0 3.1003 23.6238
  L 3.0999 23.6838
  A 0.50 0.50 0.0 0 0 3.5964 24.1873
  L 12.9562 24.2527
  A 0.50 0.50 0.0 0 0 13.4597 23.7562
  L 13.4601 23.6962
  Z
  M 18.29 28.31
  A 0.53 0.53 0.0 0 0 17.76 27.78
  L 1.56 27.78
  A 0.53 0.53 0.0 0 0 1.03 28.31
  L 1.03 28.33
  A 0.53 0.53 0.0 0 0 1.56 28.86
  L 17.76 28.86
  A 0.53 0.53 0.0 0 0 18.29 28.33
  L 18.29 28.31
  Z"
/>
<path fill="#94ff94" d="
  M 21.42 3.20
  L 28.10 8.34
  A 0.37 0.37 0.0 0 1 28.15 8.88
  L 25.26 12.21
  A 0.37 0.37 0.0 0 1 24.75 12.25
  L 17.97 6.97
  A 0.37 0.37 0.0 0 1 17.93 6.42
  L 20.92 3.24
  A 0.37 0.37 0.0 0 1 21.42 3.20
  Z"
/>
<path fill="#94ff94" d="
  M 20.51 16.89
  Q 21.50 17.59 23.50 17.16
  Q 23.71 17.11 23.79 17.32
  L 24.39 18.94
  Q 24.47 19.18 24.22 19.22
  Q 22.77 19.46 21.27 19.37
  Q 20.96 19.35 20.72 19.55
  Q 20.61 19.66 20.61 19.81
  Q 20.61 20.12 20.90 20.21
  Q 22.50 20.70 24.29 20.35
  Q 24.86 20.24 25.04 20.78
  L 25.81 23.00
  A 1.18 1.18 0.0 0 0 27.00 23.78
  L 30.26 23.56
  Q 31.20 23.50 31.48 24.39
  L 31.75 25.28
  Q 32.08 26.35 30.97 26.36
  L 23.94 26.41
  A 1.27 1.27 0.0 0 1 22.94 25.95
  Q 17.21 19.18 11.41 13.57
  Q 11.21 13.38 11.41 13.19
  L 16.78 7.92
  A 0.31 0.31 0.0 0 1 17.19 7.90
  L 23.74 13.08
  Q 24.25 13.49 23.77 13.94
  Q 23.11 14.55 23.29 15.50
  A 0.57 0.57 0.0 0 1 22.75 16.17
  L 20.72 16.22
  Q 19.63 16.25 20.51 16.89
  Z"
/>
<path fill="#94ff94" d="
  M 23.04 27.40
  L 31.77 27.43
  A 0.30 0.30 0.0 0 1 32.07 27.69
  L 32.16 28.46
  A 0.30 0.30 0.0 0 1 31.89 28.79
  L 21.83 29.48
  A 0.30 0.30 0.0 0 1 21.60 29.40
  L 8.46 17.16
  A 0.30 0.30 0.0 0 1 8.43 16.75
  L 10.34 14.34
  A 0.30 0.30 0.0 0 1 10.80 14.33
  L 22.82 27.30
  A 0.30 0.30 0.0 0 0 23.04 27.40
  Z"
/>
<rect fill="#94ff94" x="-5.18" y="-0.53" transform="translate(8.28,23.69) rotate(0.4)" width="10.36" height="1.06" rx="0.50"/>
<rect fill="#94ff94" x="1.03" y="27.78" width="17.26" height="1.08" rx="0.53"/>
</svg>
