<svg width="16" height="16" viewBox="0 0 16 16" fill="none" xmlns="http://www.w3.org/2000/svg">
<path d="M8.26731 7.50177C8.89817 7.02634 9.81931 6.30405 9.5496 5.47434C9.33626 4.81758 8.91645 4.44958 8.29017 4.37034C7.17169 4.23015 6.44712 4.72843 6.11645 5.8652C6.09664 5.92767 6.05474 5.95434 5.99074 5.9452L4.45931 5.71205C4.44161 5.70936 4.42465 5.70304 4.4095 5.6935C4.39434 5.68396 4.38132 5.6714 4.37124 5.6566C4.36116 5.6418 4.35424 5.62508 4.35091 5.60749C4.34758 5.58989 4.34791 5.5718 4.35188 5.55434C4.61702 4.37948 5.28674 3.60005 6.36102 3.21605C8.10045 2.59205 10.2833 3.04005 11.1656 4.72234C12.1187 6.54405 10.5302 7.81262 9.3256 8.82748C8.82274 9.24958 8.61626 9.79282 8.70617 10.4572C8.71074 10.4938 8.6955 10.5121 8.66045 10.5121L7.07188 10.5166C7.02312 10.5166 6.99569 10.4922 6.9896 10.4435C6.8235 9.24881 7.2494 8.26824 8.26731 7.50177Z" fill="#7F8388"/>
<path d="M8.61642 11.2014L7.03927 11.1986C7.0014 11.1985 6.97065 11.2292 6.97058 11.2671L6.96763 12.9585C6.96757 12.9964 6.99821 13.0271 7.03608 13.0272L8.61322 13.0299C8.65109 13.03 8.68185 12.9993 8.68191 12.9615L8.68487 11.27C8.68493 11.2322 8.65429 11.2014 8.61642 11.2014Z" fill="#7F8388"/>
</svg>
