<?xml version="1.0" encoding="UTF-8" standalone="no"?>
<!DOCTYPE svg PUBLIC "-//W3C//DTD SVG 1.1//EN" "http://www.w3.org/Graphics/SVG/1.1/DTD/svg11.dtd">
<svg xmlns="http://www.w3.org/2000/svg" version="1.1" viewBox="0.00 0.00 34.00 34.00">
<g stroke-width="2.00" fill="none" stroke-linecap="butt">
<path stroke="#9b6a70" vector-effect="non-scaling-stroke" d="
  M 17.01 9.55
  C 14.69 5.57 11.24 3.50 6.56 5.18
  C 1.28 7.07 2.68 13.52 4.38 17.32
  Q 4.58 17.77 5.07 17.77
  L 12.64 17.79
  Q 13.28 17.79 13.59 18.35
  L 14.80 20.53
  Q 15.26 21.37 15.61 20.48
  Q 16.89 17.17 18.28 13.59
  Q 18.45 13.16 18.86 12.93
  A 0.69 0.68 -24.9 0 1 19.83 13.28
  L 21.41 17.41
  A 0.92 0.91 -10.1 0 0 22.27 18.01
  L 29.75 18.01
  Q 30.27 18.01 30.50 17.54
  C 32.84 12.64 33.69 5.89 26.66 4.71
  C 22.51 4.02 20.04 6.30 17.94 9.57
  Q 17.46 10.32 17.01 9.55"
/>
<path stroke="#9b6a70" vector-effect="non-scaling-stroke" d="
  M 14.73 23.44
  Q 13.51 21.43 12.46 19.32
  Q 12.41 19.23 12.32 19.23
  L 5.58 19.23
  A 0.14 0.13 73.6 0 0 5.47 19.44
  Q 9.83 26.18 17.04 30.32
  Q 17.50 30.58 17.96 30.32
  Q 25.02 26.27 29.24 19.86
  A 0.30 0.30 0.0 0 0 28.99 19.39
  L 21.56 19.43
  A 1.52 1.51 -9.8 0 1 20.13 18.43
  L 19.37 16.30
  Q 19.11 15.59 18.84 16.30
  L 16.12 23.32
  A 0.78 0.78 0.0 0 1 14.73 23.44"
/>
</g>
<path fill="#363f4b" d="
  M 0.00 0.00
  L 34.00 0.00
  L 34.00 34.00
  L 0.00 34.00
  L 0.00 0.00
  Z
  M 17.01 9.55
  C 14.69 5.57 11.24 3.50 6.56 5.18
  C 1.28 7.07 2.68 13.52 4.38 17.32
  Q 4.58 17.77 5.07 17.77
  L 12.64 17.79
  Q 13.28 17.79 13.59 18.35
  L 14.80 20.53
  Q 15.26 21.37 15.61 20.48
  Q 16.89 17.17 18.28 13.59
  Q 18.45 13.16 18.86 12.93
  A 0.69 0.68 -24.9 0 1 19.83 13.28
  L 21.41 17.41
  A 0.92 0.91 -10.1 0 0 22.27 18.01
  L 29.75 18.01
  Q 30.27 18.01 30.50 17.54
  C 32.84 12.64 33.69 5.89 26.66 4.71
  C 22.51 4.02 20.04 6.30 17.94 9.57
  Q 17.46 10.32 17.01 9.55
  Z
  M 14.73 23.44
  Q 13.51 21.43 12.46 19.32
  Q 12.41 19.23 12.32 19.23
  L 5.58 19.23
  A 0.14 0.13 73.6 0 0 5.47 19.44
  Q 9.83 26.18 17.04 30.32
  Q 17.50 30.58 17.96 30.32
  Q 25.02 26.27 29.24 19.86
  A 0.30 0.30 0.0 0 0 28.99 19.39
  L 21.56 19.43
  A 1.52 1.51 -9.8 0 1 20.13 18.43
  L 19.37 16.30
  Q 19.11 15.59 18.84 16.30
  L 16.12 23.32
  A 0.78 0.78 0.0 0 1 14.73 23.44
  Z"
/>
<path fill="#ff9494" d="
  M 17.94 9.57
  C 20.04 6.30 22.51 4.02 26.66 4.71
  C 33.69 5.89 32.84 12.64 30.50 17.54
  Q 30.27 18.01 29.75 18.01
  L 22.27 18.01
  A 0.92 0.91 -10.1 0 1 21.41 17.41
  L 19.83 13.28
  A 0.69 0.68 -24.9 0 0 18.86 12.93
  Q 18.45 13.16 18.28 13.59
  Q 16.89 17.17 15.61 20.48
  Q 15.26 21.37 14.80 20.53
  L 13.59 18.35
  Q 13.28 17.79 12.64 17.79
  L 5.07 17.77
  Q 4.58 17.77 4.38 17.32
  C 2.68 13.52 1.28 7.07 6.56 5.18
  C 11.24 3.50 14.69 5.57 17.01 9.55
  Q 17.46 10.32 17.94 9.57
  Z"
/>
<path fill="#ff9494" d="
  M 14.73 23.44
  A 0.78 0.78 0.0 0 0 16.12 23.32
  L 18.84 16.30
  Q 19.11 15.59 19.37 16.30
  L 20.13 18.43
  A 1.52 1.51 -9.8 0 0 21.56 19.43
  L 28.99 19.39
  A 0.30 0.30 0.0 0 1 29.24 19.86
  Q 25.02 26.27 17.96 30.32
  Q 17.50 30.58 17.04 30.32
  Q 9.83 26.18 5.47 19.44
  A 0.14 0.13 73.6 0 1 5.58 19.23
  L 12.32 19.23
  Q 12.41 19.23 12.46 19.32
  Q 13.51 21.43 14.73 23.44
  Z"
/>
</svg>
