<?xml version="1.0" encoding="UTF-8" standalone="no"?>
<!DOCTYPE svg PUBLIC "-//W3C//DTD SVG 1.1//EN" "http://www.w3.org/Graphics/SVG/1.1/DTD/svg11.dtd">
<svg xmlns="http://www.w3.org/2000/svg" version="1.1" viewBox="0.00 0.00 34.00 34.00">
<g stroke-width="2.00" fill="none" stroke-linecap="butt">
<path stroke="#9b9f70" vector-effect="non-scaling-stroke" d="
  M 24.02 5.51
  A 0.59 0.59 0.0 0 0 24.02 4.70
  L 22.60 3.20
  A 0.59 0.59 0.0 0 0 21.91 3.08
  L 18.52 4.81
  A 0.59 0.59 0.0 0 0 18.33 5.70
  L 20.44 8.33
  A 0.59 0.59 0.0 0 0 21.33 8.37
  L 24.02 5.51"
/>
<path stroke="#9b9f70" vector-effect="non-scaling-stroke" d="
  M 15.88 10.28
  Q 17.47 9.18 16.53 10.86
  Q 15.34 12.98 17.31 14.18
  Q 18.44 14.88 19.55 15.03
  A 1.97 1.97 0.0 0 0 21.43 11.95
  Q 19.52 9.19 16.68 6.31
  Q 16.31 5.93 15.83 6.16
  Q 12.12 7.99 8.85 10.98
  Q 8.49 11.30 8.52 11.77
  Q 8.65 14.59 9.84 17.14
  Q 10.46 18.47 9.68 19.73
  Q 9.31 20.31 9.05 19.68
  L 8.25 17.79
  Q 7.95 17.09 7.32 17.53
  L 3.05 20.55
  Q 2.43 20.98 2.85 21.61
  L 9.43 31.59
  A 0.34 0.34 0.0 0 0 9.93 31.66
  L 16.17 26.14
  Q 16.54 25.80 17.02 25.97
  L 18.52 26.47
  Q 19.11 26.67 19.66 26.40
  L 25.19 23.67
  Q 26.06 23.23 25.12 22.96
  Q 23.43 22.48 23.29 20.70
  Q 23.24 20.05 22.59 19.94
  Q 20.31 19.55 19.98 17.36
  Q 19.89 16.70 19.24 16.53
  C 17.51 16.07 14.16 15.20 14.55 12.82
  Q 14.85 11.01 15.88 10.28"
/>
<path stroke="#9b9f70" vector-effect="non-scaling-stroke" d="
  M 26.7637 6.3732
  A 1.22 1.22 0.0 0 0 25.0383 6.3702
  L 22.2900 9.1090
  A 1.22 1.22 0.0 0 0 22.2869 10.8343
  L 23.1763 11.7268
  A 1.22 1.22 0.0 0 0 24.9017 11.7298
  L 27.6500 8.9910
  A 1.22 1.22 0.0 0 0 27.6531 7.2657
  L 26.7637 6.3732"
/>
<path stroke="#9b9f70" vector-effect="non-scaling-stroke" d="
  M 28.41 10.12
  L 21.50 16.26
  A 0.80 0.80 0.0 0 0 21.43 17.39
  L 21.98 18.01
  A 3.78 2.19 -41.6 0 0 26.26 17.14
  L 28.71 14.96
  A 3.78 2.19 -41.6 0 0 30.09 10.81
  L 29.54 10.19
  A 0.80 0.80 0.0 0 0 28.41 10.12"
/>
<path stroke="#9b9f70" vector-effect="non-scaling-stroke" d="
  M 30.58 14.82
  L 24.62 19.67
  A 0.55 0.55 0.0 0 0 24.54 20.44
  L 25.05 21.06
  A 2.78 2.63 -39.1 0 0 28.87 21.35
  L 31.36 19.32
  A 2.78 2.63 -39.1 0 0 31.86 15.52
  L 31.36 14.90
  A 0.55 0.55 0.0 0 0 30.58 14.82"
/>
</g>
<path fill="#363f4b" d="
  M 0.00 0.00
  L 34.00 0.00
  L 34.00 34.00
  L 0.00 34.00
  L 0.00 0.00
  Z
  M 24.02 5.51
  A 0.59 0.59 0.0 0 0 24.02 4.70
  L 22.60 3.20
  A 0.59 0.59 0.0 0 0 21.91 3.08
  L 18.52 4.81
  A 0.59 0.59 0.0 0 0 18.33 5.70
  L 20.44 8.33
  A 0.59 0.59 0.0 0 0 21.33 8.37
  L 24.02 5.51
  Z
  M 15.88 10.28
  Q 17.47 9.18 16.53 10.86
  Q 15.34 12.98 17.31 14.18
  Q 18.44 14.88 19.55 15.03
  A 1.97 1.97 0.0 0 0 21.43 11.95
  Q 19.52 9.19 16.68 6.31
  Q 16.31 5.93 15.83 6.16
  Q 12.12 7.99 8.85 10.98
  Q 8.49 11.30 8.52 11.77
  Q 8.65 14.59 9.84 17.14
  Q 10.46 18.47 9.68 19.73
  Q 9.31 20.31 9.05 19.68
  L 8.25 17.79
  Q 7.95 17.09 7.32 17.53
  L 3.05 20.55
  Q 2.43 20.98 2.85 21.61
  L 9.43 31.59
  A 0.34 0.34 0.0 0 0 9.93 31.66
  L 16.17 26.14
  Q 16.54 25.80 17.02 25.97
  L 18.52 26.47
  Q 19.11 26.67 19.66 26.40
  L 25.19 23.67
  Q 26.06 23.23 25.12 22.96
  Q 23.43 22.48 23.29 20.70
  Q 23.24 20.05 22.59 19.94
  Q 20.31 19.55 19.98 17.36
  Q 19.89 16.70 19.24 16.53
  C 17.51 16.07 14.16 15.20 14.55 12.82
  Q 14.85 11.01 15.88 10.28
  Z
  M 26.7637 6.3732
  A 1.22 1.22 0.0 0 0 25.0383 6.3702
  L 22.2900 9.1090
  A 1.22 1.22 0.0 0 0 22.2869 10.8343
  L 23.1763 11.7268
  A 1.22 1.22 0.0 0 0 24.9017 11.7298
  L 27.6500 8.9910
  A 1.22 1.22 0.0 0 0 27.6531 7.2657
  L 26.7637 6.3732
  Z
  M 28.41 10.12
  L 21.50 16.26
  A 0.80 0.80 0.0 0 0 21.43 17.39
  L 21.98 18.01
  A 3.78 2.19 -41.6 0 0 26.26 17.14
  L 28.71 14.96
  A 3.78 2.19 -41.6 0 0 30.09 10.81
  L 29.54 10.19
  A 0.80 0.80 0.0 0 0 28.41 10.12
  Z
  M 30.58 14.82
  L 24.62 19.67
  A 0.55 0.55 0.0 0 0 24.54 20.44
  L 25.05 21.06
  A 2.78 2.63 -39.1 0 0 28.87 21.35
  L 31.36 19.32
  A 2.78 2.63 -39.1 0 0 31.86 15.52
  L 31.36 14.90
  A 0.55 0.55 0.0 0 0 30.58 14.82
  Z"
/>
<path fill="#ffff94" d="
  M 24.02 5.51
  L 21.33 8.37
  A 0.59 0.59 0.0 0 1 20.44 8.33
  L 18.33 5.70
  A 0.59 0.59 0.0 0 1 18.52 4.81
  L 21.91 3.08
  A 0.59 0.59 0.0 0 1 22.60 3.20
  L 24.02 4.70
  A 0.59 0.59 0.0 0 1 24.02 5.51
  Z"
/>
<path fill="#ffff94" d="
  M 15.88 10.28
  Q 14.85 11.01 14.55 12.82
  C 14.16 15.20 17.51 16.07 19.24 16.53
  Q 19.89 16.70 19.98 17.36
  Q 20.31 19.55 22.59 19.94
  Q 23.24 20.05 23.29 20.70
  Q 23.43 22.48 25.12 22.96
  Q 26.06 23.23 25.19 23.67
  L 19.66 26.40
  Q 19.11 26.67 18.52 26.47
  L 17.02 25.97
  Q 16.54 25.80 16.17 26.14
  L 9.93 31.66
  A 0.34 0.34 0.0 0 1 9.43 31.59
  L 2.85 21.61
  Q 2.43 20.98 3.05 20.55
  L 7.32 17.53
  Q 7.95 17.09 8.25 17.79
  L 9.05 19.68
  Q 9.31 20.31 9.68 19.73
  Q 10.46 18.47 9.84 17.14
  Q 8.65 14.59 8.52 11.77
  Q 8.49 11.30 8.85 10.98
  Q 12.12 7.99 15.83 6.16
  Q 16.31 5.93 16.68 6.31
  Q 19.52 9.19 21.43 11.95
  A 1.97 1.97 0.0 0 1 19.55 15.03
  Q 18.44 14.88 17.31 14.18
  Q 15.34 12.98 16.53 10.86
  Q 17.47 9.18 15.88 10.28
  Z"
/>
<rect fill="#ffff94" x="-3.16" y="-1.85" transform="translate(24.97,9.05) rotate(-44.9)" width="6.32" height="3.70" rx="1.22"/>
<path fill="#ffff94" d="
  M 28.41 10.12
  A 0.80 0.80 0.0 0 1 29.54 10.19
  L 30.09 10.81
  A 3.78 2.19 -41.6 0 1 28.71 14.96
  L 26.26 17.14
  A 3.78 2.19 -41.6 0 1 21.98 18.01
  L 21.43 17.39
  A 0.80 0.80 0.0 0 1 21.50 16.26
  L 28.41 10.12
  Z"
/>
<path fill="#ffff94" d="
  M 30.58 14.82
  A 0.55 0.55 0.0 0 1 31.36 14.90
  L 31.86 15.52
  A 2.78 2.63 -39.1 0 1 31.36 19.32
  L 28.87 21.35
  A 2.78 2.63 -39.1 0 1 25.05 21.06
  L 24.54 20.44
  A 0.55 0.55 0.0 0 1 24.62 19.67
  L 30.58 14.82
  Z"
/>
</svg>
