<svg width="16" height="16" viewBox="0 0 16 16" fill="none" xmlns="http://www.w3.org/2000/svg">
<path d="M11.3034 2.59296L10.0375 3.93884C10.0102 3.96765 9.9769 3.99024 9.94004 4.00509C9.90317 4.01994 9.86354 4.0267 9.82383 4.02492C9.78413 4.02313 9.74527 4.01284 9.70988 3.99475C9.67449 3.97665 9.6434 3.95116 9.61871 3.92002L8.62577 2.68237C8.60035 2.6503 8.58232 2.61301 8.57299 2.57317C8.56366 2.53333 8.56325 2.49191 8.57179 2.45189C8.58034 2.41187 8.59762 2.37423 8.62241 2.34167C8.6472 2.30911 8.67888 2.28243 8.71518 2.26355L10.3105 1.44943C10.3635 1.42293 10.4237 1.41411 10.4821 1.42427C10.5405 1.43443 10.5942 1.46304 10.6352 1.5059L11.3034 2.21178C11.3521 2.26331 11.3792 2.3315 11.3792 2.40237C11.3792 2.47324 11.3521 2.54142 11.3034 2.59296Z" fill="#FFFF94"/>
<path d="M7.47306 4.83767C7.14992 5.06669 6.94129 5.46512 6.84718 6.03296C6.66365 7.15296 8.24012 7.56237 9.05423 7.77884C9.25816 7.83218 9.37424 7.96237 9.40247 8.16943C9.506 8.85649 9.91541 9.2612 10.6307 9.38355C10.8346 9.41806 10.9444 9.53727 10.9601 9.7412C11.004 10.2996 11.2911 10.6541 11.8213 10.8047C12.1162 10.8894 12.1272 11.0008 11.8542 11.1388L9.25188 12.4235C9.07933 12.5083 8.90051 12.5192 8.71541 12.4565L8.00953 12.2212C7.85894 12.1679 7.72561 12.1945 7.60953 12.3012L4.67306 14.8988C4.6559 14.9132 4.6359 14.9239 4.61438 14.93C4.59285 14.9362 4.57027 14.9378 4.54809 14.9347C4.52591 14.9316 4.50463 14.9238 4.48563 14.912C4.46662 14.9002 4.45032 14.8844 4.43776 14.8659L1.34129 10.1694C1.20953 9.97178 1.2409 9.80551 1.43541 9.67061L3.44482 8.24943C3.64247 8.11139 3.78835 8.15218 3.88247 8.37178L4.25894 9.2612C4.34051 9.45884 4.43933 9.46669 4.55541 9.28472C4.80012 8.88943 4.82522 8.48316 4.63071 8.0659C4.25737 7.2659 4.05031 6.42355 4.00953 5.53884C4.00012 5.39139 4.05188 5.26747 4.16482 5.16708C5.19071 4.22904 6.28561 3.47296 7.44953 2.89884C7.60012 2.82669 7.73345 2.85021 7.84953 2.96943C8.74051 3.87296 9.48561 4.75767 10.0848 5.62355C10.1879 5.77123 10.2458 5.94575 10.2514 6.12578C10.2569 6.30582 10.2099 6.48357 10.116 6.63732C10.0222 6.79106 9.8856 6.91413 9.72294 6.9915C9.56028 7.06887 9.3786 7.09717 9.20012 7.07296C8.85188 7.0259 8.50051 6.89257 8.146 6.67296C7.52796 6.29649 7.40561 5.77571 7.77894 5.11061C8.07384 4.58355 7.97188 4.49257 7.47306 4.83767Z" fill="#FFFF94"/>
<path d="M11.7828 2.99768L10.4894 4.28652C10.2648 4.51033 10.2642 4.87385 10.488 5.09844L10.9066 5.51845C11.1304 5.74304 11.4939 5.74368 11.7185 5.51986L13.0118 4.23103C13.2364 4.00721 13.2371 3.6437 13.0132 3.4191L12.5947 2.9991C12.3709 2.7745 12.0074 2.77387 11.7828 2.99768Z" fill="#FFFF94"/>
<path d="M13.3694 4.76234C13.4065 4.72955 13.4497 4.70439 13.4965 4.6883C13.5432 4.67221 13.5928 4.66551 13.6421 4.66857C13.6915 4.67163 13.7398 4.68439 13.7843 4.70614C13.8287 4.72788 13.8685 4.75817 13.9012 4.79528L14.16 5.08704C14.2497 5.18849 14.304 5.31949 14.3199 5.47256C14.3358 5.62562 14.3129 5.79776 14.2526 5.97912C14.1923 6.16048 14.0957 6.34752 13.9684 6.52955C13.8411 6.71158 13.6855 6.88503 13.5106 7.03999L12.3577 8.06587C12.0048 8.37899 11.5943 8.59803 11.2166 8.67481C10.8389 8.75159 10.5249 8.67982 10.3435 8.47528L10.0847 8.18351C10.0519 8.14645 10.0268 8.10329 10.0107 8.05649C9.9946 8.0097 9.9879 7.96019 9.99095 7.9108C9.99401 7.86141 10.0068 7.81311 10.0285 7.76866C10.0503 7.72421 10.0806 7.68448 10.1177 7.65175L13.3694 4.76234Z" fill="#FFFF94"/>
<path d="M14.3907 6.97409C14.4171 6.9522 14.4477 6.93579 14.4805 6.92582C14.5134 6.91585 14.5479 6.91252 14.5821 6.91602C14.6163 6.91953 14.6494 6.92979 14.6795 6.94623C14.7097 6.96266 14.7363 6.98493 14.7577 7.01174L14.993 7.3035C15.0959 7.42973 15.1715 7.57617 15.2153 7.73444C15.2592 7.89271 15.2705 8.05969 15.2487 8.22582C15.2268 8.39194 15.1722 8.55394 15.0879 8.70253C15.0037 8.85113 14.8915 8.98339 14.7577 9.09174L13.586 10.047C13.4525 10.1556 13.3001 10.2382 13.1375 10.2901C12.9749 10.342 12.8052 10.3622 12.6382 10.3496C12.4712 10.3369 12.3102 10.2916 12.1644 10.2163C12.0185 10.1409 11.8908 10.037 11.7883 9.91056L11.5483 9.6188C11.5056 9.56563 11.4855 9.49773 11.4926 9.42988C11.4996 9.36202 11.5332 9.29969 11.586 9.25645L14.3907 6.97409Z" fill="#FFFF94"/>
</svg>
