<?xml version="1.0" encoding="UTF-8" standalone="no"?>
<!DOCTYPE svg PUBLIC "-//W3C//DTD SVG 1.1//EN" "http://www.w3.org/Graphics/SVG/1.1/DTD/svg11.dtd">
<svg xmlns="http://www.w3.org/2000/svg" version="1.1" viewBox="0.00 0.00 70.00 70.00">
<g stroke-width="2.00" fill="none" stroke-linecap="butt">
<path stroke="#575c63" vector-effect="non-scaling-stroke" d="
  M 39.69 26.12
  Q 39.35 21.52 39.52 16.46
  Q 39.59 14.46 38.83 13.13
  C 37.26 10.37 33.99 10.31 31.79 12.34
  Q 30.50 13.54 30.50 15.78
  Q 30.50 20.46 30.65 25.44
  Q 30.65 25.50 30.59 25.51
  L 30.33 25.55
  Q 30.04 25.59 29.97 25.30
  Q 29.21 22.45 26.06 22.29
  C 11.78 21.57 8.36 40.46 8.22 50.84
  Q 8.17 54.25 8.10 57.54
  A 1.33 1.32 83.0 0 0 9.77 58.85
  Q 13.51 57.84 17.23 56.65
  C 20.51 55.60 23.98 55.99 27.37 56.07
  A 4.01 4.01 0.0 0 0 31.39 52.89
  Q 32.41 48.09 32.98 42.92
  Q 33.19 40.98 34.94 40.51
  A 1.20 1.18 -34.0 0 1 35.96 40.70
  Q 37.50 41.86 37.83 43.82
  Q 38.44 47.50 39.22 51.31
  C 39.72 53.75 41.10 56.60 44.09 56.24
  Q 50.46 55.46 52.80 56.27
  Q 56.77 57.63 60.71 58.83
  A 1.13 1.13 0.0 0 0 62.18 57.82
  Q 62.73 48.67 60.89 39.62
  C 59.23 31.50 54.94 23.37 45.83 22.32
  C 43.14 22.01 41.04 23.70 40.17 26.18
  Q 39.78 27.30 39.69 26.12"
/>
<path stroke="#575c63" vector-effect="non-scaling-stroke" d="
  M 22.94 40.26
  L 19.43 40.55
  Q 18.89 40.59 18.49 40.23
  Q 15.60 37.65 11.61 38.74
  Q 11.36 38.81 11.36 39.07
  L 11.37 39.41
  A 0.40 0.40 0.0 0 0 11.84 39.79
  Q 14.34 39.34 16.34 40.69
  A 0.56 0.55 45.4 0 1 16.34 41.61
  Q 13.10 43.72 11.36 47.18
  A 0.74 0.73 -56.4 0 0 11.53 48.06
  L 11.72 48.24
  A 0.39 0.39 0.0 0 0 12.32 48.13
  Q 15.06 42.86 20.32 42.74
  Q 20.80 42.73 20.86 43.21
  Q 21.42 47.69 17.76 49.93
  A 0.33 0.32 -34.5 0 0 17.67 50.41
  L 17.82 50.61
  Q 18.17 51.05 18.65 50.76
  Q 20.56 49.61 21.97 48.01
  A 0.79 0.79 0.0 0 1 23.29 48.21
  Q 24.16 50.18 23.92 52.46
  Q 23.89 52.70 24.05 52.89
  Q 24.25 53.12 24.61 52.97
  A 0.42 0.42 0.0 0 0 24.86 52.68
  C 25.43 50.70 25.48 48.20 24.16 46.58
  Q 23.56 45.85 23.32 44.95
  Q 22.71 42.74 25.00 42.46
  Q 31.43 41.66 34.72 35.89
  A 0.31 0.31 0.0 0 1 35.25 35.87
  Q 39.25 42.02 45.55 42.67
  A 1.88 1.87 22.2 0 1 46.83 45.70
  Q 44.32 48.85 45.64 53.24
  Q 45.68 53.37 45.80 53.43
  Q 45.96 53.53 46.10 53.47
  Q 46.52 53.30 46.48 52.85
  Q 46.28 50.65 47.13 48.40
  A 0.83 0.83 0.0 0 1 48.61 48.26
  Q 49.81 50.24 51.76 50.89
  Q 53.78 51.56 52.32 50.01
  C 50.33 47.88 49.04 46.48 49.57 43.24
  A 0.56 0.56 0.0 0 1 50.18 42.77
  Q 55.19 43.22 57.98 48.00
  A 0.62 0.62 0.0 0 0 58.73 48.27
  L 59.03 48.17
  Q 59.37 48.04 59.23 47.71
  Q 57.76 44.14 54.46 41.83
  A 0.75 0.75 0.0 0 1 54.54 40.55
  Q 56.47 39.55 58.62 39.94
  Q 59.07 40.02 59.15 39.57
  L 59.21 39.29
  Q 59.26 39.01 58.99 38.92
  Q 54.98 37.60 52.01 40.27
  Q 51.62 40.62 51.11 40.58
  L 47.73 40.29
  A 1.00 1.00 0.0 0 1 46.84 39.07
  Q 47.66 35.44 51.56 33.94
  Q 52.26 33.67 52.15 32.94
  A 0.55 0.55 0.0 0 0 51.51 32.47
  Q 49.46 32.83 47.57 34.14
  A 0.69 0.68 65.7 0 1 46.52 33.74
  Q 45.72 30.58 47.85 27.20
  Q 47.91 27.10 47.83 27.02
  L 47.46 26.63
  Q 47.27 26.44 47.10 26.65
  Q 43.60 30.71 45.17 35.67
  Q 45.34 36.20 45.21 36.74
  Q 44.98 37.68 44.40 38.54
  Q 43.77 39.46 42.92 38.73
  Q 40.58 36.71 38.60 33.37
  Q 37.34 31.26 37.29 27.80
  Q 37.20 21.40 37.37 15.07
  Q 37.42 13.09 35.44 13.20
  L 34.32 13.26
  A 1.58 1.57 87.9 0 0 32.83 14.87
  Q 32.96 21.24 32.93 28.85
  C 32.92 32.06 29.69 37.60 26.69 38.91
  Q 26.25 39.10 26.01 38.69
  Q 24.88 36.81 25.36 34.81
  Q 26.36 30.69 23.94 27.71
  Q 22.00 25.34 23.17 28.17
  Q 24.37 31.07 24.06 33.44
  A 0.83 0.82 15.2 0 1 22.92 34.09
  L 18.84 32.40
  A 0.34 0.33 -67.6 0 0 18.40 32.59
  L 18.26 32.93
  A 0.67 0.66 -68.7 0 0 18.64 33.80
  C 21.28 34.82 23.57 36.63 23.55 39.60
  Q 23.54 40.21 22.94 40.26"
/>
</g>
<g fill="#2f353e">
<path d="
  M 0.00 0.00
  L 70.00 0.00
  L 70.00 70.00
  L 0.00 70.00
  L 0.00 0.00
  Z
  M 39.69 26.12
  Q 39.35 21.52 39.52 16.46
  Q 39.59 14.46 38.83 13.13
  C 37.26 10.37 33.99 10.31 31.79 12.34
  Q 30.50 13.54 30.50 15.78
  Q 30.50 20.46 30.65 25.44
  Q 30.65 25.50 30.59 25.51
  L 30.33 25.55
  Q 30.04 25.59 29.97 25.30
  Q 29.21 22.45 26.06 22.29
  C 11.78 21.57 8.36 40.46 8.22 50.84
  Q 8.17 54.25 8.10 57.54
  A 1.33 1.32 83.0 0 0 9.77 58.85
  Q 13.51 57.84 17.23 56.65
  C 20.51 55.60 23.98 55.99 27.37 56.07
  A 4.01 4.01 0.0 0 0 31.39 52.89
  Q 32.41 48.09 32.98 42.92
  Q 33.19 40.98 34.94 40.51
  A 1.20 1.18 -34.0 0 1 35.96 40.70
  Q 37.50 41.86 37.83 43.82
  Q 38.44 47.50 39.22 51.31
  C 39.72 53.75 41.10 56.60 44.09 56.24
  Q 50.46 55.46 52.80 56.27
  Q 56.77 57.63 60.71 58.83
  A 1.13 1.13 0.0 0 0 62.18 57.82
  Q 62.73 48.67 60.89 39.62
  C 59.23 31.50 54.94 23.37 45.83 22.32
  C 43.14 22.01 41.04 23.70 40.17 26.18
  Q 39.78 27.30 39.69 26.12
  Z"
/>
<path d="
  M 23.55 39.60
  C 23.57 36.63 21.28 34.82 18.64 33.80
  A 0.67 0.66 -68.7 0 1 18.26 32.93
  L 18.40 32.59
  A 0.34 0.33 -67.6 0 1 18.84 32.40
  L 22.92 34.09
  A 0.83 0.82 15.2 0 0 24.06 33.44
  Q 24.37 31.07 23.17 28.17
  Q 22.00 25.34 23.94 27.71
  Q 26.36 30.69 25.36 34.81
  Q 24.88 36.81 26.01 38.69
  Q 26.25 39.10 26.69 38.91
  C 29.69 37.60 32.92 32.06 32.93 28.85
  Q 32.96 21.24 32.83 14.87
  A 1.58 1.57 87.9 0 1 34.32 13.26
  L 35.44 13.20
  Q 37.42 13.09 37.37 15.07
  Q 37.20 21.40 37.29 27.80
  Q 37.34 31.26 38.60 33.37
  Q 40.58 36.71 42.92 38.73
  Q 43.77 39.46 44.40 38.54
  Q 44.98 37.68 45.21 36.74
  Q 45.34 36.20 45.17 35.67
  Q 43.60 30.71 47.10 26.65
  Q 47.27 26.44 47.46 26.63
  L 47.83 27.02
  Q 47.91 27.10 47.85 27.20
  Q 45.72 30.58 46.52 33.74
  A 0.69 0.68 65.7 0 0 47.57 34.14
  Q 49.46 32.83 51.51 32.47
  A 0.55 0.55 0.0 0 1 52.15 32.94
  Q 52.26 33.67 51.56 33.94
  Q 47.66 35.44 46.84 39.07
  A 1.00 1.00 0.0 0 0 47.73 40.29
  L 51.11 40.58
  Q 51.62 40.62 52.01 40.27
  Q 54.98 37.60 58.99 38.92
  Q 59.26 39.01 59.21 39.29
  L 59.15 39.57
  Q 59.07 40.02 58.62 39.94
  Q 56.47 39.55 54.54 40.55
  A 0.75 0.75 0.0 0 0 54.46 41.83
  Q 57.76 44.14 59.23 47.71
  Q 59.37 48.04 59.03 48.17
  L 58.73 48.27
  A 0.62 0.62 0.0 0 1 57.98 48.00
  Q 55.19 43.22 50.18 42.77
  A 0.56 0.56 0.0 0 0 49.57 43.24
  C 49.04 46.48 50.33 47.88 52.32 50.01
  Q 53.78 51.56 51.76 50.89
  Q 49.81 50.24 48.61 48.26
  A 0.83 0.83 0.0 0 0 47.13 48.40
  Q 46.28 50.65 46.48 52.85
  Q 46.52 53.30 46.10 53.47
  Q 45.96 53.53 45.80 53.43
  Q 45.68 53.37 45.64 53.24
  Q 44.32 48.85 46.83 45.70
  A 1.88 1.87 22.2 0 0 45.55 42.67
  Q 39.25 42.02 35.25 35.87
  A 0.31 0.31 0.0 0 0 34.72 35.89
  Q 31.43 41.66 25.00 42.46
  Q 22.71 42.74 23.32 44.95
  Q 23.56 45.85 24.16 46.58
  C 25.48 48.20 25.43 50.70 24.86 52.68
  A 0.42 0.42 0.0 0 1 24.61 52.97
  Q 24.25 53.12 24.05 52.89
  Q 23.89 52.70 23.92 52.46
  Q 24.16 50.18 23.29 48.21
  A 0.79 0.79 0.0 0 0 21.97 48.01
  Q 20.56 49.61 18.65 50.76
  Q 18.17 51.05 17.82 50.61
  L 17.67 50.41
  A 0.33 0.32 -34.5 0 1 17.76 49.93
  Q 21.42 47.69 20.86 43.21
  Q 20.80 42.73 20.32 42.74
  Q 15.06 42.86 12.32 48.13
  A 0.39 0.39 0.0 0 1 11.72 48.24
  L 11.53 48.06
  A 0.74 0.73 -56.4 0 1 11.36 47.18
  Q 13.10 43.72 16.34 41.61
  A 0.56 0.55 45.4 0 0 16.34 40.69
  Q 14.34 39.34 11.84 39.79
  A 0.40 0.40 0.0 0 1 11.37 39.41
  L 11.36 39.07
  Q 11.36 38.81 11.61 38.74
  Q 15.60 37.65 18.49 40.23
  Q 18.89 40.59 19.43 40.55
  L 22.94 40.26
  Q 23.54 40.21 23.55 39.60
  Z"
/>
</g>
<path fill="#ff9494" d="
  M 40.17 26.18
  C 41.04 23.70 43.14 22.01 45.83 22.32
  C 54.94 23.37 59.23 31.50 60.89 39.62
  Q 62.73 48.67 62.18 57.82
  A 1.13 1.13 0.0 0 1 60.71 58.83
  Q 56.77 57.63 52.80 56.27
  Q 50.46 55.46 44.09 56.24
  C 41.10 56.60 39.72 53.75 39.22 51.31
  Q 38.44 47.50 37.83 43.82
  Q 37.50 41.86 35.96 40.70
  A 1.20 1.18 -34.0 0 0 34.94 40.51
  Q 33.19 40.98 32.98 42.92
  Q 32.41 48.09 31.39 52.89
  A 4.01 4.01 0.0 0 1 27.37 56.07
  C 23.98 55.99 20.51 55.60 17.23 56.65
  Q 13.51 57.84 9.77 58.85
  A 1.33 1.32 83.0 0 1 8.10 57.54
  Q 8.17 54.25 8.22 50.84
  C 8.36 40.46 11.78 21.57 26.06 22.29
  Q 29.21 22.45 29.97 25.30
  Q 30.04 25.59 30.33 25.55
  L 30.59 25.51
  Q 30.65 25.50 30.65 25.44
  Q 30.50 20.46 30.50 15.78
  Q 30.50 13.54 31.79 12.34
  C 33.99 10.31 37.26 10.37 38.83 13.13
  Q 39.59 14.46 39.52 16.46
  Q 39.35 21.52 39.69 26.12
  Q 39.78 27.30 40.17 26.18
  Z
  M 22.94 40.26
  L 19.43 40.55
  Q 18.89 40.59 18.49 40.23
  Q 15.60 37.65 11.61 38.74
  Q 11.36 38.81 11.36 39.07
  L 11.37 39.41
  A 0.40 0.40 0.0 0 0 11.84 39.79
  Q 14.34 39.34 16.34 40.69
  A 0.56 0.55 45.4 0 1 16.34 41.61
  Q 13.10 43.72 11.36 47.18
  A 0.74 0.73 -56.4 0 0 11.53 48.06
  L 11.72 48.24
  A 0.39 0.39 0.0 0 0 12.32 48.13
  Q 15.06 42.86 20.32 42.74
  Q 20.80 42.73 20.86 43.21
  Q 21.42 47.69 17.76 49.93
  A 0.33 0.32 -34.5 0 0 17.67 50.41
  L 17.82 50.61
  Q 18.17 51.05 18.65 50.76
  Q 20.56 49.61 21.97 48.01
  A 0.79 0.79 0.0 0 1 23.29 48.21
  Q 24.16 50.18 23.92 52.46
  Q 23.89 52.70 24.05 52.89
  Q 24.25 53.12 24.61 52.97
  A 0.42 0.42 0.0 0 0 24.86 52.68
  C 25.43 50.70 25.48 48.20 24.16 46.58
  Q 23.56 45.85 23.32 44.95
  Q 22.71 42.74 25.00 42.46
  Q 31.43 41.66 34.72 35.89
  A 0.31 0.31 0.0 0 1 35.25 35.87
  Q 39.25 42.02 45.55 42.67
  A 1.88 1.87 22.2 0 1 46.83 45.70
  Q 44.32 48.85 45.64 53.24
  Q 45.68 53.37 45.80 53.43
  Q 45.96 53.53 46.10 53.47
  Q 46.52 53.30 46.48 52.85
  Q 46.28 50.65 47.13 48.40
  A 0.83 0.83 0.0 0 1 48.61 48.26
  Q 49.81 50.24 51.76 50.89
  Q 53.78 51.56 52.32 50.01
  C 50.33 47.88 49.04 46.48 49.57 43.24
  A 0.56 0.56 0.0 0 1 50.18 42.77
  Q 55.19 43.22 57.98 48.00
  A 0.62 0.62 0.0 0 0 58.73 48.27
  L 59.03 48.17
  Q 59.37 48.04 59.23 47.71
  Q 57.76 44.14 54.46 41.83
  A 0.75 0.75 0.0 0 1 54.54 40.55
  Q 56.47 39.55 58.62 39.94
  Q 59.07 40.02 59.15 39.57
  L 59.21 39.29
  Q 59.26 39.01 58.99 38.92
  Q 54.98 37.60 52.01 40.27
  Q 51.62 40.62 51.11 40.58
  L 47.73 40.29
  A 1.00 1.00 0.0 0 1 46.84 39.07
  Q 47.66 35.44 51.56 33.94
  Q 52.26 33.67 52.15 32.94
  A 0.55 0.55 0.0 0 0 51.51 32.47
  Q 49.46 32.83 47.57 34.14
  A 0.69 0.68 65.7 0 1 46.52 33.74
  Q 45.72 30.58 47.85 27.20
  Q 47.91 27.10 47.83 27.02
  L 47.46 26.63
  Q 47.27 26.44 47.10 26.65
  Q 43.60 30.71 45.17 35.67
  Q 45.34 36.20 45.21 36.74
  Q 44.98 37.68 44.40 38.54
  Q 43.77 39.46 42.92 38.73
  Q 40.58 36.71 38.60 33.37
  Q 37.34 31.26 37.29 27.80
  Q 37.20 21.40 37.37 15.07
  Q 37.42 13.09 35.44 13.20
  L 34.32 13.26
  A 1.58 1.57 87.9 0 0 32.83 14.87
  Q 32.96 21.24 32.93 28.85
  C 32.92 32.06 29.69 37.60 26.69 38.91
  Q 26.25 39.10 26.01 38.69
  Q 24.88 36.81 25.36 34.81
  Q 26.36 30.69 23.94 27.71
  Q 22.00 25.34 23.17 28.17
  Q 24.37 31.07 24.06 33.44
  A 0.83 0.82 15.2 0 1 22.92 34.09
  L 18.84 32.40
  A 0.34 0.33 -67.6 0 0 18.40 32.59
  L 18.26 32.93
  A 0.67 0.66 -68.7 0 0 18.64 33.80
  C 21.28 34.82 23.57 36.63 23.55 39.60
  Q 23.54 40.21 22.94 40.26
  Z"
/>
</svg>
