<svg width="32" height="32" viewBox="0 0 32 32" fill="none" xmlns="http://www.w3.org/2000/svg">
<path d="M18.3633 11.9681C18.761 10.8343 19.721 10.0618 20.9507 10.2035C25.1153 10.6835 27.0765 14.4001 27.8353 18.1121C28.3961 20.8702 28.5926 23.6435 28.425 26.4321C28.4204 26.5106 28.3978 26.587 28.3592 26.6554C28.3205 26.7239 28.2667 26.7827 28.2019 26.8272C28.1371 26.8717 28.063 26.9009 27.9852 26.9124C27.9074 26.9239 27.828 26.9176 27.753 26.8938C26.5523 26.5281 25.3469 26.138 24.137 25.7235C23.4239 25.4766 22.0966 25.4721 20.1553 25.7098C18.7885 25.8743 18.1576 24.5715 17.929 23.4561C17.6913 22.2949 17.4795 21.1536 17.2936 20.0321C17.193 19.4347 16.9081 18.9593 16.4387 18.6058C16.3732 18.5571 16.2972 18.5241 16.2165 18.509C16.1357 18.494 16.0523 18.4974 15.9725 18.5189C15.4391 18.6622 15.1405 19.0294 15.0765 19.6206C14.9027 21.1962 14.6605 22.7155 14.3496 24.1783C14.2611 24.5971 14.029 24.9716 13.6933 25.2372C13.3577 25.5027 12.9397 25.6424 12.5119 25.6321C10.9622 25.5955 9.37588 25.4172 7.87645 25.8972C6.74274 26.2599 5.60598 26.5951 4.46617 26.9029C4.37568 26.9278 4.28063 26.9311 4.18858 26.9125C4.09652 26.8939 4.01 26.854 3.93589 26.7959C3.86177 26.7377 3.80211 26.663 3.76164 26.5776C3.72116 26.4922 3.701 26.3986 3.70274 26.3041C3.72407 25.3014 3.74236 24.2804 3.7576 23.2412C3.8216 18.4961 5.38503 9.86063 11.913 10.1898C12.873 10.2385 13.4688 10.6972 13.7005 11.5658C13.7218 11.6542 13.7766 11.6922 13.865 11.6801L13.9839 11.6618C14.0022 11.6587 14.0113 11.6481 14.0113 11.6298C13.9656 10.1121 13.9427 8.64006 13.9427 7.21377C13.9427 6.53111 14.1393 6.00692 14.5325 5.6412C15.5382 4.7132 17.033 4.74063 17.7507 6.00234C17.9824 6.40768 18.0875 6.91511 18.0662 7.52463C18.0144 9.06672 18.0403 10.5387 18.1439 11.9406C18.1713 12.3002 18.2445 12.3094 18.3633 11.9681ZM10.4867 18.4046L8.88217 18.5372C8.7176 18.5494 8.57436 18.5006 8.45246 18.3909C7.57169 17.6046 6.52331 17.3776 5.30731 17.7098C5.23112 17.7311 5.19303 17.7814 5.19303 17.8606L5.1976 18.0161C5.1985 18.0422 5.20502 18.0679 5.21671 18.0914C5.22841 18.1148 5.24501 18.1355 5.26538 18.152C5.28575 18.1684 5.30943 18.1803 5.33481 18.1869C5.36018 18.1934 5.38666 18.1944 5.41245 18.1898C6.17436 18.0526 6.86007 18.1898 7.4696 18.6012C7.50401 18.6251 7.53219 18.6569 7.55167 18.6939C7.57116 18.7309 7.58135 18.772 7.58135 18.8135C7.58135 18.855 7.57116 18.8957 7.55167 18.932C7.53219 18.9683 7.50401 18.9992 7.4696 19.0218C6.48217 19.6648 5.72331 20.5136 5.19303 21.5681C5.15993 21.6349 5.14961 21.7106 5.16366 21.7833C5.17772 21.8561 5.21536 21.9218 5.27074 21.9703L5.3576 22.0526C5.3778 22.0702 5.40171 22.083 5.42755 22.0901C5.45339 22.0972 5.4805 22.0984 5.50685 22.0936C5.53321 22.0887 5.55814 22.078 5.57978 22.0622C5.60143 22.0464 5.61924 22.026 5.63188 22.0023C6.46693 20.3962 7.68598 19.5749 9.28903 19.5383C9.43531 19.5353 9.5176 19.6069 9.53588 19.7532C9.70655 21.1185 9.23417 22.1425 8.11874 22.8252C8.10047 22.8365 8.08472 22.8514 8.07255 22.8689C8.06039 22.8865 8.05208 22.9064 8.04818 22.9271C8.04429 22.9479 8.0449 22.9691 8.04997 22.9894C8.05504 23.0096 8.06446 23.0285 8.0776 23.0446L8.14617 23.1361C8.25284 23.2702 8.37931 23.293 8.5256 23.2046C9.10769 22.8542 9.6136 22.4351 10.0433 21.9475C10.0832 21.9015 10.1341 21.8663 10.1913 21.8453C10.2484 21.8242 10.31 21.818 10.3702 21.8271C10.4304 21.8362 10.4873 21.8604 10.5357 21.8975C10.584 21.9345 10.6222 21.9832 10.6467 22.0389C10.9119 22.6393 11.0079 23.2869 10.9347 23.9818C10.9256 24.0549 10.9454 24.1204 10.9942 24.1783C11.0551 24.2484 11.1405 24.2606 11.2502 24.2149C11.2784 24.2035 11.3034 24.1855 11.3233 24.1624C11.3432 24.1394 11.3573 24.1119 11.3645 24.0823C11.625 23.1772 11.6479 22.0343 11.0445 21.2938C10.8616 21.0713 10.7336 20.8229 10.6605 20.5486C10.4746 19.8751 10.7305 19.4957 11.4285 19.4103C13.3881 19.1665 14.8692 18.1654 15.8719 16.4069C15.8837 16.3856 15.9008 16.3677 15.9216 16.3549C15.9424 16.3422 15.9661 16.335 15.9904 16.3341C16.0148 16.3332 16.039 16.3385 16.0607 16.3497C16.0823 16.3608 16.1008 16.3774 16.1142 16.3978C17.3332 18.2721 18.9027 19.3082 20.8227 19.5063C20.976 19.5225 21.1222 19.5795 21.246 19.6712C21.3699 19.763 21.4668 19.8861 21.5266 20.0277C21.5865 20.1694 21.607 20.3243 21.5861 20.4763C21.5652 20.6282 21.5037 20.7716 21.4079 20.8915C20.6429 21.8515 20.4616 23.0004 20.8639 24.3383C20.8761 24.378 20.9005 24.4069 20.937 24.4252C20.9858 24.4557 21.0315 24.4618 21.0742 24.4435C21.2022 24.3917 21.2601 24.2972 21.2479 24.1601C21.1869 23.4896 21.286 22.8115 21.545 22.1258C21.5704 22.0598 21.6136 22.0023 21.6698 21.9596C21.7261 21.9169 21.7932 21.8908 21.8635 21.8841C21.9338 21.8775 22.0046 21.8906 22.0678 21.922C22.1311 21.9533 22.1844 22.0018 22.2216 22.0618C22.5873 22.6652 23.0673 23.066 23.6616 23.2641C24.2772 23.4682 24.3626 23.3342 23.9176 22.8618C23.0079 21.8881 22.4182 21.2481 22.6605 19.7669C22.6706 19.7022 22.7052 19.6439 22.7571 19.6039C22.809 19.564 22.8742 19.5454 22.9393 19.5521C24.4662 19.6892 25.6547 20.4862 26.505 21.9429C26.5385 22.0005 26.5913 22.0445 26.654 22.067C26.7167 22.0896 26.7853 22.0894 26.8479 22.0663L26.985 22.0206C27.0886 21.981 27.1191 21.9109 27.0765 21.8103C26.6285 20.7223 25.9016 19.8263 24.8959 19.1223C24.8475 19.0887 24.8086 19.0432 24.783 18.9901C24.7573 18.9371 24.7458 18.8783 24.7494 18.8195C24.7531 18.7607 24.7719 18.7038 24.804 18.6544C24.836 18.6049 24.8803 18.5646 24.9325 18.5372C25.5206 18.2324 26.1424 18.1395 26.7976 18.2583C26.9347 18.2827 27.0155 18.2263 27.0399 18.0892L27.0673 17.9612C27.0826 17.8759 27.049 17.8195 26.9667 17.7921C25.7446 17.3898 24.681 17.5955 23.7759 18.4092C23.657 18.5159 23.5199 18.5631 23.3645 18.5509L21.8193 18.4183C21.7541 18.4128 21.6908 18.3933 21.6338 18.3612C21.5768 18.3291 21.5273 18.2851 21.4887 18.2323C21.4501 18.1794 21.4234 18.1188 21.4102 18.0547C21.3971 17.9906 21.3978 17.9244 21.4125 17.8606C21.6624 16.7543 22.3816 15.9726 23.5702 15.5155C23.7835 15.4332 23.8734 15.2808 23.8399 15.0583C23.8355 15.0247 23.8243 14.9923 23.807 14.9632C23.7897 14.934 23.7668 14.9086 23.7394 14.8885C23.7121 14.8684 23.681 14.8541 23.648 14.8464C23.615 14.8386 23.5807 14.8376 23.5473 14.8435C22.9225 14.9532 22.3222 15.2077 21.7462 15.6069C21.705 15.6355 21.6576 15.6536 21.6078 15.6596C21.558 15.6656 21.5074 15.6594 21.4603 15.6414C21.4132 15.6234 21.3709 15.5943 21.3371 15.5565C21.3033 15.5186 21.279 15.4732 21.2662 15.4241C21.0224 14.461 21.225 13.4644 21.8742 12.4343C21.8925 12.4039 21.8894 12.3764 21.865 12.3521L21.6959 12.1738C21.638 12.1159 21.5831 12.1189 21.5313 12.1829C20.4646 13.4202 20.1705 14.7947 20.649 16.3063C20.7008 16.4679 20.7069 16.6309 20.6673 16.7955C20.5972 17.082 20.4738 17.3562 20.297 17.6183C20.105 17.8987 19.8795 17.9277 19.6205 17.7052C18.9073 17.0896 18.249 16.2728 17.6456 15.2549C17.2616 14.6119 17.062 13.7631 17.0467 12.7086C17.0193 10.7582 17.0315 8.81834 17.0833 6.8892C17.0985 6.28577 16.8045 6.00082 16.201 6.03434L15.689 6.06177C15.5026 6.07122 15.3273 6.15334 15.2001 6.29074C15.073 6.42814 15.004 6.61001 15.0079 6.79777C15.0475 8.73911 15.0627 10.8694 15.0536 13.1886C15.049 14.6561 13.5725 17.1886 12.201 17.7875C12.0669 17.8454 11.9633 17.8119 11.8902 17.6869C11.5458 17.114 11.4467 16.5227 11.593 15.9132C11.8978 14.6576 11.6814 13.5757 10.9439 12.6675C10.3526 11.9452 10.2353 12.0153 10.5919 12.8778C10.9576 13.7616 11.0932 14.5646 10.9987 15.2869C10.9915 15.3442 10.971 15.3989 10.9389 15.4469C10.9067 15.4949 10.8637 15.5349 10.8133 15.5636C10.7629 15.5924 10.7063 15.6092 10.6481 15.6127C10.5899 15.6163 10.5315 15.6065 10.4776 15.5841L8.61245 14.8115C8.59397 14.8036 8.57405 14.7995 8.55386 14.7996C8.53366 14.7997 8.51361 14.8039 8.49487 14.812C8.47613 14.8201 8.45908 14.8319 8.44473 14.8468C8.43039 14.8616 8.41902 14.8791 8.41131 14.8983L8.34731 15.0538C8.33238 15.0917 8.32503 15.1321 8.3257 15.1727C8.32637 15.2133 8.33505 15.2533 8.35122 15.2904C8.3674 15.3274 8.39075 15.3607 8.4199 15.3884C8.44906 15.416 8.48344 15.4375 8.52103 15.4515C9.72788 15.9178 10.7747 16.7452 10.7656 18.1029C10.7625 18.2888 10.6696 18.3894 10.4867 18.4046Z" fill="#FF9494"/>
</svg>
