<svg width="32" height="32" viewBox="0 0 32 32" fill="none" xmlns="http://www.w3.org/2000/svg">
<path d="M5.23887 9.42173L5.44916 10.944C5.49487 11.2823 5.40497 11.5794 5.17944 11.8354C5.08801 11.9391 4.98439 11.997 4.86858 12.0092C4.49373 12.0518 4.25449 11.8903 4.15087 11.5246C3.89792 10.6438 3.7242 9.70211 3.62973 8.69944C3.61071 8.50314 3.66446 8.30669 3.78076 8.1474C3.89706 7.98812 4.06781 7.8771 4.26058 7.83544L6.0023 7.46058C6.0865 7.44186 6.16038 7.39168 6.20881 7.32031C6.25724 7.24893 6.27658 7.16175 6.26287 7.07658L5.98859 5.30744C5.96084 5.12836 6.00185 4.9453 6.10346 4.79457C6.20508 4.64385 6.35988 4.53646 6.53716 4.49373L8.85487 3.94058C9.27239 3.84001 9.64116 3.92992 9.96116 4.2103C10.0861 4.32001 10.1364 4.43582 10.112 4.55773C10.0145 4.99354 9.75392 5.24649 9.3303 5.31658C8.83354 5.40192 8.3383 5.48877 7.84458 5.57715C7.74229 5.59503 7.65122 5.65266 7.59126 5.73745C7.53131 5.82225 7.50734 5.92732 7.52458 6.02973L7.7943 7.74858C7.82888 7.9671 7.77646 8.19047 7.64827 8.37079C7.52008 8.55111 7.32634 8.67402 7.10859 8.71315L5.54973 8.99201C5.45259 9.00991 5.36609 9.06456 5.3082 9.14458C5.25031 9.22461 5.22548 9.32387 5.23887 9.42173Z" fill="#FF9494"/>
<path d="M26.1119 7.47881L27.7348 7.81253C27.9347 7.85472 28.1108 7.97179 28.2266 8.13945C28.3423 8.30712 28.3888 8.51253 28.3565 8.7131L27.9588 11.2182C27.907 11.5261 27.75 11.7622 27.4879 11.9268C27.2197 12.0944 26.9592 12.0167 26.7062 11.6937C26.6179 11.582 26.5754 11.443 26.5874 11.3051L26.7656 9.33481C26.7736 9.24978 26.7486 9.16494 26.6959 9.09776C26.6432 9.03058 26.5667 8.98617 26.4822 8.97367L25.0194 8.7451C24.8903 8.7245 24.7666 8.67861 24.6554 8.61007C24.5442 8.54153 24.4477 8.45171 24.3716 8.34582C24.2955 8.23994 24.2412 8.12009 24.2119 7.99323C24.1827 7.86637 24.179 7.73502 24.2011 7.60681L24.4616 6.07995C24.4805 5.974 24.457 5.8649 24.3963 5.77602C24.3357 5.68715 24.2426 5.62558 24.1371 5.60453L22.6102 5.29824C22.1592 5.20986 21.9215 4.93557 21.8971 4.47538C21.891 4.387 21.9108 4.30624 21.9565 4.2331C22.1241 3.94357 22.374 3.82167 22.7062 3.86738C23.5108 3.98014 24.3702 4.16148 25.2845 4.41138C26.4959 4.74053 25.8605 6.23995 25.8239 7.1131C25.8202 7.19845 25.8472 7.28231 25.9 7.34943C25.9529 7.41655 26.0281 7.46247 26.1119 7.47881Z" fill="#FF9494"/>
<path d="M5.99767 16.6491C5.8331 16.6644 5.67462 16.6568 5.52224 16.6263C4.73596 16.4769 4.72834 16.2971 5.49939 16.0869C6.55081 15.7973 7.23043 15.0796 7.53824 13.9337C7.80339 12.9463 8.0731 11.9756 8.34739 11.0217C8.65519 9.94285 9.27843 9.05143 10.2171 8.34743C10.9485 7.79581 11.8308 7.44533 12.864 7.296C16.992 6.70171 24.3154 7.25485 24.8274 12.7086C25.0057 14.5829 24.5988 16.7497 25.2982 18.528C25.5878 19.2686 25.8331 20.0091 26.0342 20.7497C26.0504 20.8119 26.0534 20.8768 26.0428 20.9401C26.0322 21.0034 26.0084 21.0636 25.973 21.1168C25.9375 21.17 25.8912 21.2149 25.8371 21.2486C25.7831 21.2822 25.7225 21.3039 25.6594 21.312C23.5657 21.5802 21.603 21.5939 19.7714 21.3531C18.048 21.1246 16.9645 20.1006 15.6982 18.9806C14.7657 18.1516 13.6457 17.6518 12.3382 17.4811C10.3451 17.219 8.38396 16.9463 6.45481 16.6629C6.31767 16.6415 6.16529 16.6369 5.99767 16.6491Z" fill="#FF9494"/>
<path d="M21.2847 22.5417C20.183 25.2937 18.679 27.4102 15.4652 27.9497C13.0241 28.3611 11.4241 27.296 10.4367 25.152C9.39134 22.8845 8.86258 20.7268 8.85039 18.6788C8.84734 18.3893 8.99058 18.2598 9.2801 18.2902L9.70067 18.336C9.79869 18.3457 9.88996 18.3902 9.95791 18.4615C10.0259 18.5328 10.066 18.6262 10.071 18.7245C10.2218 21.2891 11.0538 26.9942 14.4321 26.9988C17.5635 26.9988 19.127 25.248 20.1007 22.5828C20.148 22.4578 20.2319 22.3502 20.3413 22.2743C20.4508 22.1983 20.5805 22.1577 20.7132 22.1577L21.0287 22.1622C21.303 22.1622 21.3883 22.2887 21.2847 22.5417Z" fill="#FF9494"/>
</svg>
