<?xml version="1.0" encoding="UTF-8" standalone="no"?>
<!DOCTYPE svg PUBLIC "-//W3C//DTD SVG 1.1//EN" "http://www.w3.org/Graphics/SVG/1.1/DTD/svg11.dtd">
<svg xmlns="http://www.w3.org/2000/svg" version="1.1" viewBox="0.00 0.00 70.00 70.00">
<g stroke-width="2.00" fill="none" stroke-linecap="butt">
<path stroke="#575c63" vector-effect="non-scaling-stroke" d="
  M 12.14 19.67
  L 15.55 19.06
  A 1.85 1.85 0.0 0 0 17.05 16.95
  L 16.46 13.19
  A 0.86 0.86 0.0 0 1 17.16 12.20
  Q 18.78 11.91 20.41 11.63
  Q 21.80 11.40 22.12 9.97
  Q 22.20 9.57 21.79 9.21
  Q 20.74 8.29 19.37 8.62
  L 14.30 9.83
  A 1.59 1.58 -11.1 0 0 13.10 11.61
  L 13.70 15.48
  A 0.74 0.74 0.0 0 1 13.13 16.32
  L 9.32 17.14
  A 1.76 1.76 0.0 0 0 7.94 19.03
  Q 8.25 22.32 9.08 25.21
  Q 9.42 26.41 10.65 26.27
  Q 11.03 26.23 11.33 25.89
  Q 12.07 25.05 11.92 23.94
  L 11.46 20.61
  A 0.84 0.84 0.0 0 1 12.14 19.67"
/>
<path stroke="#575c63" vector-effect="non-scaling-stroke" d="
  M 56.49 15.56
  C 56.57 13.65 57.96 10.37 55.31 9.65
  Q 52.31 8.83 49.67 8.46
  Q 48.58 8.31 48.03 9.26
  Q 47.88 9.50 47.90 9.79
  Q 47.98 11.30 49.46 11.59
  L 52.80 12.26
  A 0.90 0.90 0.0 0 1 53.51 13.30
  L 52.94 16.64
  A 2.16 2.15 9.4 0 0 54.73 19.13
  L 57.93 19.63
  A 0.73 0.73 0.0 0 1 58.55 20.42
  L 58.16 24.73
  A 1.23 1.18 29.1 0 0 58.42 25.58
  Q 59.25 26.64 60.13 26.09
  Q 60.99 25.55 61.16 24.54
  L 62.03 19.06
  A 1.74 1.73 10.5 0 0 60.67 17.09
  L 57.12 16.36
  A 0.78 0.78 0.0 0 1 56.49 15.56"
/>
<path stroke="#575c63" vector-effect="non-scaling-stroke" d="
  M 14.12 36.45
  Q 20.45 37.38 26.99 38.24
  Q 31.28 38.80 34.34 41.52
  C 37.11 43.97 39.48 46.21 43.25 46.71
  Q 49.26 47.50 56.13 46.62
  A 0.99 0.98 78.9 0 0 56.95 45.39
  Q 56.29 42.96 55.34 40.53
  C 53.81 36.64 54.70 31.90 54.31 27.80
  C 53.19 15.87 37.17 14.66 28.14 15.96
  Q 24.75 16.45 22.35 18.26
  Q 19.27 20.57 18.26 24.11
  Q 17.36 27.24 16.49 30.48
  Q 15.48 34.24 12.03 35.19
  Q 9.50 35.88 12.08 36.37
  Q 12.58 36.47 13.12 36.42
  Q 13.67 36.38 14.12 36.45"
/>
<path stroke="#575c63" vector-effect="non-scaling-stroke" d="
  M 46.00 48.48
  L 45.31 48.47
  A 1.44 1.43 -79.6 0 0 43.97 49.40
  C 41.84 55.23 38.42 59.06 31.57 59.06
  C 24.18 59.05 22.36 46.57 22.03 40.96
  A 0.90 0.90 0.0 0 0 21.22 40.11
  L 20.30 40.01
  Q 19.35 39.91 19.36 40.86
  Q 19.40 47.58 22.83 55.02
  C 24.99 59.71 28.49 62.04 33.83 61.14
  C 40.86 59.96 44.15 55.33 46.56 49.31
  Q 46.90 48.48 46.00 48.48"
/>
</g>
<path fill="#2f353e" d="
  M 0.00 0.00
  L 70.00 0.00
  L 70.00 70.00
  L 0.00 70.00
  L 0.00 0.00
  Z
  M 12.14 19.67
  L 15.55 19.06
  A 1.85 1.85 0.0 0 0 17.05 16.95
  L 16.46 13.19
  A 0.86 0.86 0.0 0 1 17.16 12.20
  Q 18.78 11.91 20.41 11.63
  Q 21.80 11.40 22.12 9.97
  Q 22.20 9.57 21.79 9.21
  Q 20.74 8.29 19.37 8.62
  L 14.30 9.83
  A 1.59 1.58 -11.1 0 0 13.10 11.61
  L 13.70 15.48
  A 0.74 0.74 0.0 0 1 13.13 16.32
  L 9.32 17.14
  A 1.76 1.76 0.0 0 0 7.94 19.03
  Q 8.25 22.32 9.08 25.21
  Q 9.42 26.41 10.65 26.27
  Q 11.03 26.23 11.33 25.89
  Q 12.07 25.05 11.92 23.94
  L 11.46 20.61
  A 0.84 0.84 0.0 0 1 12.14 19.67
  Z
  M 56.49 15.56
  C 56.57 13.65 57.96 10.37 55.31 9.65
  Q 52.31 8.83 49.67 8.46
  Q 48.58 8.31 48.03 9.26
  Q 47.88 9.50 47.90 9.79
  Q 47.98 11.30 49.46 11.59
  L 52.80 12.26
  A 0.90 0.90 0.0 0 1 53.51 13.30
  L 52.94 16.64
  A 2.16 2.15 9.4 0 0 54.73 19.13
  L 57.93 19.63
  A 0.73 0.73 0.0 0 1 58.55 20.42
  L 58.16 24.73
  A 1.23 1.18 29.1 0 0 58.42 25.58
  Q 59.25 26.64 60.13 26.09
  Q 60.99 25.55 61.16 24.54
  L 62.03 19.06
  A 1.74 1.73 10.5 0 0 60.67 17.09
  L 57.12 16.36
  A 0.78 0.78 0.0 0 1 56.49 15.56
  Z
  M 14.12 36.45
  Q 20.45 37.38 26.99 38.24
  Q 31.28 38.80 34.34 41.52
  C 37.11 43.97 39.48 46.21 43.25 46.71
  Q 49.26 47.50 56.13 46.62
  A 0.99 0.98 78.9 0 0 56.95 45.39
  Q 56.29 42.96 55.34 40.53
  C 53.81 36.64 54.70 31.90 54.31 27.80
  C 53.19 15.87 37.17 14.66 28.14 15.96
  Q 24.75 16.45 22.35 18.26
  Q 19.27 20.57 18.26 24.11
  Q 17.36 27.24 16.49 30.48
  Q 15.48 34.24 12.03 35.19
  Q 9.50 35.88 12.08 36.37
  Q 12.58 36.47 13.12 36.42
  Q 13.67 36.38 14.12 36.45
  Z
  M 46.00 48.48
  L 45.31 48.47
  A 1.44 1.43 -79.6 0 0 43.97 49.40
  C 41.84 55.23 38.42 59.06 31.57 59.06
  C 24.18 59.05 22.36 46.57 22.03 40.96
  A 0.90 0.90 0.0 0 0 21.22 40.11
  L 20.30 40.01
  Q 19.35 39.91 19.36 40.86
  Q 19.40 47.58 22.83 55.02
  C 24.99 59.71 28.49 62.04 33.83 61.14
  C 40.86 59.96 44.15 55.33 46.56 49.31
  Q 46.90 48.48 46.00 48.48
  Z"
/>
<g fill="#ff9494">
<path d="
  M 11.46 20.61
  L 11.92 23.94
  Q 12.07 25.05 11.33 25.89
  Q 11.03 26.23 10.65 26.27
  Q 9.42 26.41 9.08 25.21
  Q 8.25 22.32 7.94 19.03
  A 1.76 1.76 0.0 0 1 9.32 17.14
  L 13.13 16.32
  A 0.74 0.74 0.0 0 0 13.70 15.48
  L 13.10 11.61
  A 1.59 1.58 -11.1 0 1 14.30 9.83
  L 19.37 8.62
  Q 20.74 8.29 21.79 9.21
  Q 22.20 9.57 22.12 9.97
  Q 21.80 11.40 20.41 11.63
  Q 18.78 11.91 17.16 12.20
  A 0.86 0.86 0.0 0 0 16.46 13.19
  L 17.05 16.95
  A 1.85 1.85 0.0 0 1 15.55 19.06
  L 12.14 19.67
  A 0.84 0.84 0.0 0 0 11.46 20.61
  Z"
/>
<path d="
  M 57.12 16.36
  L 60.67 17.09
  A 1.74 1.73 10.5 0 1 62.03 19.06
  L 61.16 24.54
  Q 60.99 25.55 60.13 26.09
  Q 59.25 26.64 58.42 25.58
  A 1.23 1.18 29.1 0 1 58.16 24.73
  L 58.55 20.42
  A 0.73 0.73 0.0 0 0 57.93 19.63
  L 54.73 19.13
  A 2.16 2.15 9.4 0 1 52.94 16.64
  L 53.51 13.30
  A 0.90 0.90 0.0 0 0 52.80 12.26
  L 49.46 11.59
  Q 47.98 11.30 47.90 9.79
  Q 47.88 9.50 48.03 9.26
  Q 48.58 8.31 49.67 8.46
  Q 52.31 8.83 55.31 9.65
  C 57.96 10.37 56.57 13.65 56.49 15.56
  A 0.78 0.78 0.0 0 0 57.12 16.36
  Z"
/>
<path d="
  M 13.12 36.42
  Q 12.58 36.47 12.08 36.37
  Q 9.50 35.88 12.03 35.19
  Q 15.48 34.24 16.49 30.48
  Q 17.36 27.24 18.26 24.11
  Q 19.27 20.57 22.35 18.26
  Q 24.75 16.45 28.14 15.96
  C 37.17 14.66 53.19 15.87 54.31 27.80
  C 54.70 31.90 53.81 36.64 55.34 40.53
  Q 56.29 42.96 56.95 45.39
  A 0.99 0.98 78.9 0 1 56.13 46.62
  Q 49.26 47.50 43.25 46.71
  C 39.48 46.21 37.11 43.97 34.34 41.52
  Q 31.28 38.80 26.99 38.24
  Q 20.45 37.38 14.12 36.45
  Q 13.67 36.38 13.12 36.42
  Z"
/>
<path d="
  M 46.56 49.31
  C 44.15 55.33 40.86 59.96 33.83 61.14
  C 28.49 62.04 24.99 59.71 22.83 55.02
  Q 19.40 47.58 19.36 40.86
  Q 19.35 39.91 20.30 40.01
  L 21.22 40.11
  A 0.90 0.90 0.0 0 1 22.03 40.96
  C 22.36 46.57 24.18 59.05 31.57 59.06
  C 38.42 59.06 41.84 55.23 43.97 49.40
  A 1.44 1.43 -79.6 0 1 45.31 48.47
  L 46.00 48.48
  Q 46.90 48.48 46.56 49.31
  Z"
/>
</g>
</svg>
