<svg width="32" height="32" viewBox="0 0 32 32" fill="none" xmlns="http://www.w3.org/2000/svg">
<path d="M8.58519 8.67202L10.4229 10.4594C10.6179 10.6484 10.5799 10.7429 10.3086 10.7429L5.72804 10.7474C5.50557 10.7505 5.39433 10.6393 5.39433 10.4137L5.37604 5.84687C5.373 5.54821 5.47509 5.50707 5.68233 5.72345L6.92119 7.01716C6.99105 7.09122 7.08726 7.13499 7.18958 7.13925C7.29189 7.14352 7.39233 7.10794 7.46976 7.04002C11.1665 3.77602 15.3783 2.87849 20.1052 4.34745C20.6111 4.50287 20.8183 4.84116 20.7269 5.3623C20.6903 5.57259 20.5578 5.74173 20.3292 5.86973C20.2584 5.9087 20.1806 5.93285 20.1004 5.94072C20.0202 5.94858 19.9394 5.93998 19.8629 5.91545C15.6237 4.57449 11.869 5.31659 8.5989 8.14173C8.56115 8.17392 8.53063 8.21373 8.5093 8.25861C8.48796 8.30349 8.47627 8.35244 8.47498 8.40235C8.47369 8.45226 8.48282 8.50203 8.5018 8.54846C8.52078 8.59489 8.54918 8.63698 8.58519 8.67202Z" fill="#FF9494"/>
<path d="M23.9451 9.22519L22.5782 10.6103C22.3832 10.8084 22.2856 10.7688 22.2856 10.4915V5.71433C22.2856 5.5589 22.3618 5.48119 22.5142 5.48119L27.3051 5.45376C27.3323 5.45323 27.3591 5.46083 27.382 5.47557C27.4049 5.49032 27.4229 5.51155 27.4337 5.53656C27.4444 5.56157 27.4475 5.58922 27.4426 5.616C27.4376 5.64277 27.4247 5.66746 27.4056 5.6869L25.4536 7.64805C25.397 7.70433 25.3637 7.78009 25.3603 7.86045C25.357 7.9408 25.3837 8.01995 25.4354 8.08233C28.227 11.517 29.0102 15.4103 27.7851 19.7623C27.651 20.2378 27.3401 20.4389 26.8525 20.3658L26.7016 20.3429C26.6159 20.3304 26.5338 20.2998 26.4608 20.2533C26.3878 20.2067 26.3256 20.1452 26.2784 20.0729C26.2313 20.0006 26.2002 19.9192 26.1872 19.8341C26.1743 19.749 26.1798 19.6622 26.2034 19.5795C27.2761 15.7456 26.6575 12.3033 24.3474 9.25262C24.2224 9.08805 24.0883 9.0789 23.9451 9.22519Z" fill="#FF9494"/>
<path d="M15.3783 18.2445L11.5612 18.2491C11.5149 18.2487 11.4696 18.236 11.4299 18.2124C11.3902 18.1887 11.3575 18.1549 11.3352 18.1144C11.3128 18.0739 11.3017 18.0282 11.3028 17.982C11.304 17.9358 11.3174 17.8907 11.3417 17.8514L17.3898 8.28338C17.7646 7.68909 17.888 7.73785 17.76 8.42966L16.608 14.6148C16.5998 14.6573 16.6012 14.7012 16.6122 14.7431C16.6232 14.785 16.6435 14.8238 16.6717 14.8568C16.6998 14.8897 16.735 14.9159 16.7746 14.9334C16.8142 14.9508 16.8573 14.9591 16.9006 14.9577L20.8183 14.8845C20.8551 14.8846 20.8912 14.8945 20.9228 14.9132C20.9544 14.9319 20.9805 14.9588 20.9982 14.991C21.016 15.0232 21.0247 15.0596 21.0236 15.0963C21.0226 15.1331 21.0116 15.1688 20.992 15.1999L15.1589 24.0868C14.8145 24.6079 14.6926 24.5607 14.7932 23.9451L15.6572 18.5782C15.6937 18.3558 15.6008 18.2445 15.3783 18.2445Z" fill="#FF9494"/>
<path d="M8.07779 22.9257L9.22979 21.6823C9.48274 21.4111 9.60921 21.4613 9.60921 21.8332L9.60007 26.2857C9.60007 26.5143 9.48579 26.6286 9.25721 26.6286H4.70864C4.6732 26.6285 4.63861 26.6178 4.60928 26.5979C4.57994 26.578 4.5572 26.5498 4.54395 26.5169C4.53071 26.4841 4.52756 26.448 4.53491 26.4133C4.54226 26.3787 4.55977 26.347 4.58521 26.3223L6.51893 24.4343C6.57268 24.3821 6.60444 24.3111 6.60783 24.2357C6.61122 24.1602 6.586 24.0859 6.53721 24.0274C3.82483 20.8122 2.97759 17.0545 3.9955 12.7543C4.11436 12.2545 4.42826 12.032 4.93721 12.0869C5.12007 12.1052 5.28617 12.1951 5.4355 12.3566C5.4976 12.4256 5.54209 12.5087 5.56517 12.5986C5.58826 12.6886 5.58925 12.7827 5.56807 12.8732C4.67512 16.5577 5.34407 19.8994 7.57493 22.8983C7.73036 23.1086 7.89798 23.1177 8.07779 22.9257Z" fill="#FF9494"/>
<path d="M22.7931 24.0182C22.5005 23.5885 22.147 23.2045 21.7325 22.8662C21.2876 22.5036 21.3516 22.3238 21.9245 22.3268L26.208 22.3451C26.4213 22.3451 26.528 22.4518 26.528 22.6651L26.5371 27.2822C26.5371 27.5565 26.4411 27.5962 26.2491 27.4011L24.3794 25.5085C24.3226 25.4509 24.2467 25.4158 24.166 25.41C24.0853 25.4041 24.0051 25.4277 23.9405 25.4765C23.3143 25.952 22.7383 26.4822 22.0343 26.8525C18.9958 28.4495 15.7882 28.7969 12.4114 27.8948C12.277 27.8589 12.1548 27.7844 12.0594 27.68C11.7516 27.3386 11.6663 27.0582 11.8034 26.8388C12.0503 26.4548 12.3946 26.3162 12.8365 26.4228C16.5821 27.3127 19.8796 26.6483 22.7291 24.4297C22.8815 24.3139 22.9028 24.1767 22.7931 24.0182Z" fill="#FF9494"/>
</svg>
