<?xml version="1.0" encoding="UTF-8" standalone="no"?>
<!DOCTYPE svg PUBLIC "-//W3C//DTD SVG 1.1//EN" "http://www.w3.org/Graphics/SVG/1.1/DTD/svg11.dtd">
<svg xmlns="http://www.w3.org/2000/svg" version="1.1" viewBox="0.00 0.00 70.00 70.00">
<g stroke-width="2.00" fill="none" stroke-linecap="butt">
<path stroke="#575c63" vector-effect="non-scaling-stroke" d="
  M 18.78 18.97
  A 0.79 0.78 46.6 0 1 18.81 17.81
  Q 29.54 8.54 43.45 12.94
  A 1.30 1.29 -50.4 0 0 44.47 12.84
  Q 45.22 12.42 45.34 11.73
  Q 45.64 10.02 43.98 9.51
  Q 28.47 4.69 16.34 15.40
  A 0.87 0.86 -42.3 0 1 15.14 15.35
  L 12.43 12.52
  Q 11.75 11.81 11.76 12.79
  L 11.80 22.78
  Q 11.80 23.52 12.53 23.51
  L 22.55 23.50
  Q 23.44 23.50 22.80 22.88
  L 18.78 18.97"
/>
<path stroke="#575c63" vector-effect="non-scaling-stroke" d="
  M 53.26 20.24
  Q 60.84 30.25 57.32 42.83
  A 1.33 1.32 12.0 0 0 58.41 44.50
  L 58.74 44.55
  Q 60.34 44.79 60.78 43.23
  Q 64.80 28.95 55.64 17.68
  A 0.71 0.70 47.9 0 1 55.68 16.73
  L 59.95 12.44
  A 0.30 0.30 0.0 0 0 59.73 11.93
  L 49.25 11.99
  Q 48.75 11.99 48.75 12.50
  L 48.75 22.95
  Q 48.75 23.86 49.39 23.21
  L 52.38 20.18
  Q 52.85 19.70 53.26 20.24"
/>
<path stroke="#575c63" vector-effect="non-scaling-stroke" d="
  M 34.25 40.64
  L 32.36 52.38
  Q 32.03 54.40 33.16 52.69
  L 45.92 33.25
  A 0.45 0.45 0.0 0 0 45.54 32.56
  L 36.97 32.72
  A 0.63 0.63 0.0 0 1 36.33 31.97
  L 38.85 18.44
  Q 39.27 16.17 38.04 18.12
  L 24.81 39.05
  A 0.57 0.57 0.0 0 0 25.29 39.92
  L 33.64 39.91
  Q 34.37 39.91 34.25 40.64"
/>
<path stroke="#575c63" vector-effect="non-scaling-stroke" d="
  M 16.57 50.09
  Q 9.25 40.25 12.18 28.16
  A 1.26 1.26 0.0 0 0 11.89 27.03
  Q 11.40 26.50 10.80 26.44
  Q 9.13 26.26 8.74 27.90
  Q 5.40 42.01 14.30 52.56
  A 0.66 0.65 48.0 0 1 14.26 53.45
  L 10.03 57.58
  A 0.39 0.39 0.0 0 0 10.30 58.25
  L 20.25 58.25
  Q 21.00 58.25 21.00 57.50
  L 21.02 47.76
  Q 21.02 46.54 20.19 47.43
  L 17.67 50.15
  Q 17.08 50.78 16.57 50.09"
/>
<path stroke="#575c63" vector-effect="non-scaling-stroke" d="
  M 49.72 53.44
  Q 40.37 60.72 28.08 57.80
  Q 26.63 57.45 25.82 58.71
  Q 25.37 59.43 26.38 60.55
  A 1.63 1.58 75.4 0 0 27.15 61.02
  Q 38.23 63.98 48.20 58.74
  C 49.74 57.93 51.00 56.77 52.37 55.73
  A 0.73 0.73 0.0 0 1 53.33 55.80
  L 57.42 59.94
  Q 58.05 60.58 58.05 59.68
  L 58.03 49.58
  Q 58.03 48.88 57.33 48.88
  L 47.96 48.84
  Q 46.08 48.83 47.54 50.02
  Q 48.90 51.13 49.86 52.54
  Q 50.22 53.06 49.72 53.44"
/>
</g>
<path fill="#2f353e" d="
  M 0.00 0.00
  L 70.00 0.00
  L 70.00 70.00
  L 0.00 70.00
  L 0.00 0.00
  Z
  M 18.78 18.97
  A 0.79 0.78 46.6 0 1 18.81 17.81
  Q 29.54 8.54 43.45 12.94
  A 1.30 1.29 -50.4 0 0 44.47 12.84
  Q 45.22 12.42 45.34 11.73
  Q 45.64 10.02 43.98 9.51
  Q 28.47 4.69 16.34 15.40
  A 0.87 0.86 -42.3 0 1 15.14 15.35
  L 12.43 12.52
  Q 11.75 11.81 11.76 12.79
  L 11.80 22.78
  Q 11.80 23.52 12.53 23.51
  L 22.55 23.50
  Q 23.44 23.50 22.80 22.88
  L 18.78 18.97
  Z
  M 53.26 20.24
  Q 60.84 30.25 57.32 42.83
  A 1.33 1.32 12.0 0 0 58.41 44.50
  L 58.74 44.55
  Q 60.34 44.79 60.78 43.23
  Q 64.80 28.95 55.64 17.68
  A 0.71 0.70 47.9 0 1 55.68 16.73
  L 59.95 12.44
  A 0.30 0.30 0.0 0 0 59.73 11.93
  L 49.25 11.99
  Q 48.75 11.99 48.75 12.50
  L 48.75 22.95
  Q 48.75 23.86 49.39 23.21
  L 52.38 20.18
  Q 52.85 19.70 53.26 20.24
  Z
  M 34.25 40.64
  L 32.36 52.38
  Q 32.03 54.40 33.16 52.69
  L 45.92 33.25
  A 0.45 0.45 0.0 0 0 45.54 32.56
  L 36.97 32.72
  A 0.63 0.63 0.0 0 1 36.33 31.97
  L 38.85 18.44
  Q 39.27 16.17 38.04 18.12
  L 24.81 39.05
  A 0.57 0.57 0.0 0 0 25.29 39.92
  L 33.64 39.91
  Q 34.37 39.91 34.25 40.64
  Z
  M 16.57 50.09
  Q 9.25 40.25 12.18 28.16
  A 1.26 1.26 0.0 0 0 11.89 27.03
  Q 11.40 26.50 10.80 26.44
  Q 9.13 26.26 8.74 27.90
  Q 5.40 42.01 14.30 52.56
  A 0.66 0.65 48.0 0 1 14.26 53.45
  L 10.03 57.58
  A 0.39 0.39 0.0 0 0 10.30 58.25
  L 20.25 58.25
  Q 21.00 58.25 21.00 57.50
  L 21.02 47.76
  Q 21.02 46.54 20.19 47.43
  L 17.67 50.15
  Q 17.08 50.78 16.57 50.09
  Z
  M 49.72 53.44
  Q 40.37 60.72 28.08 57.80
  Q 26.63 57.45 25.82 58.71
  Q 25.37 59.43 26.38 60.55
  A 1.63 1.58 75.4 0 0 27.15 61.02
  Q 38.23 63.98 48.20 58.74
  C 49.74 57.93 51.00 56.77 52.37 55.73
  A 0.73 0.73 0.0 0 1 53.33 55.80
  L 57.42 59.94
  Q 58.05 60.58 58.05 59.68
  L 58.03 49.58
  Q 58.03 48.88 57.33 48.88
  L 47.96 48.84
  Q 46.08 48.83 47.54 50.02
  Q 48.90 51.13 49.86 52.54
  Q 50.22 53.06 49.72 53.44
  Z"
/>
<g fill="#ff9494">
<path d="
  M 18.78 18.97
  L 22.80 22.88
  Q 23.44 23.50 22.55 23.50
  L 12.53 23.51
  Q 11.80 23.52 11.80 22.78
  L 11.76 12.79
  Q 11.75 11.81 12.43 12.52
  L 15.14 15.35
  A 0.87 0.86 -42.3 0 0 16.34 15.40
  Q 28.47 4.69 43.98 9.51
  Q 45.64 10.02 45.34 11.73
  Q 45.22 12.42 44.47 12.84
  A 1.30 1.29 -50.4 0 1 43.45 12.94
  Q 29.54 8.54 18.81 17.81
  A 0.79 0.78 46.6 0 0 18.78 18.97
  Z"
/>
<path d="
  M 52.38 20.18
  L 49.39 23.21
  Q 48.75 23.86 48.75 22.95
  L 48.75 12.50
  Q 48.75 11.99 49.25 11.99
  L 59.73 11.93
  A 0.30 0.30 0.0 0 1 59.95 12.44
  L 55.68 16.73
  A 0.71 0.70 47.9 0 0 55.64 17.68
  Q 64.80 28.95 60.78 43.23
  Q 60.34 44.79 58.74 44.55
  L 58.41 44.50
  A 1.33 1.32 12.0 0 1 57.32 42.83
  Q 60.84 30.25 53.26 20.24
  Q 52.85 19.70 52.38 20.18
  Z"
/>
<path d="
  M 33.64 39.91
  L 25.29 39.92
  A 0.57 0.57 0.0 0 1 24.81 39.05
  L 38.04 18.12
  Q 39.27 16.17 38.85 18.44
  L 36.33 31.97
  A 0.63 0.63 0.0 0 0 36.97 32.72
  L 45.54 32.56
  A 0.45 0.45 0.0 0 1 45.92 33.25
  L 33.16 52.69
  Q 32.03 54.40 32.36 52.38
  L 34.25 40.64
  Q 34.37 39.91 33.64 39.91
  Z"
/>
<path d="
  M 17.67 50.15
  L 20.19 47.43
  Q 21.02 46.54 21.02 47.76
  L 21.00 57.50
  Q 21.00 58.25 20.25 58.25
  L 10.30 58.25
  A 0.39 0.39 0.0 0 1 10.03 57.58
  L 14.26 53.45
  A 0.66 0.65 48.0 0 0 14.30 52.56
  Q 5.40 42.01 8.74 27.90
  Q 9.13 26.26 10.80 26.44
  Q 11.40 26.50 11.89 27.03
  A 1.26 1.26 0.0 0 1 12.18 28.16
  Q 9.25 40.25 16.57 50.09
  Q 17.08 50.78 17.67 50.15
  Z"
/>
<path d="
  M 49.86 52.54
  Q 48.90 51.13 47.54 50.02
  Q 46.08 48.83 47.96 48.84
  L 57.33 48.88
  Q 58.03 48.88 58.03 49.58
  L 58.05 59.68
  Q 58.05 60.58 57.42 59.94
  L 53.33 55.80
  A 0.73 0.73 0.0 0 0 52.37 55.73
  C 51.00 56.77 49.74 57.93 48.20 58.74
  Q 38.23 63.98 27.15 61.02
  A 1.63 1.58 75.4 0 1 26.38 60.55
  Q 25.37 59.43 25.82 58.71
  Q 26.63 57.45 28.08 57.80
  Q 40.37 60.72 49.72 53.44
  Q 50.22 53.06 49.86 52.54
  Z"
/>
</g>
</svg>
