<?xml version="1.0" encoding="UTF-8" standalone="no"?>
<!DOCTYPE svg PUBLIC "-//W3C//DTD SVG 1.1//EN" "http://www.w3.org/Graphics/SVG/1.1/DTD/svg11.dtd">
<svg xmlns="http://www.w3.org/2000/svg" version="1.1" viewBox="0.00 0.00 70.00 70.00">
<g stroke-width="2.00" fill="none" stroke-linecap="butt">
<path stroke="#976569" vector-effect="non-scaling-stroke" d="
  M 21.14 17.70
  Q 24.37 11.79 18.89 8.10
  Q 17.29 7.02 14.98 7.26
  C 8.29 7.95 6.80 16.41 12.10 19.70
  C 13.85 20.78 15.69 20.62 17.62 20.46
  Q 18.16 20.41 18.46 20.87
  L 20.19 23.49
  Q 20.57 24.07 20.05 24.52
  L 17.86 26.41
  Q 16.98 27.18 17.63 28.16
  L 18.97 30.15
  Q 19.52 30.96 20.30 30.39
  L 29.78 23.51
  Q 30.54 22.95 29.95 22.22
  L 28.32 20.18
  Q 27.63 19.32 26.71 19.94
  L 24.67 21.31
  Q 23.74 21.93 23.05 21.05
  L 21.24 18.77
  Q 20.83 18.27 21.14 17.70"
/>
<path stroke="#976569" vector-effect="non-scaling-stroke" d="
  M 46.68 20.69
  A 0.85 0.85 0.0 0 1 47.53 21.55
  L 47.48 28.91
  A 0.85 0.85 0.0 0 0 48.27 29.77
  L 50.75 29.94
  A 0.85 0.85 0.0 0 0 51.66 29.09
  L 51.63 21.56
  A 0.85 0.85 0.0 0 1 52.49 20.70
  L 59.83 20.75
  A 0.85 0.85 0.0 0 0 60.69 19.92
  L 60.75 17.33
  A 0.85 0.85 0.0 0 0 59.89 16.46
  L 52.50 16.53
  A 0.85 0.85 0.0 0 1 51.64 15.68
  L 51.68 8.14
  A 0.85 0.85 0.0 0 0 50.81 7.29
  L 48.28 7.35
  A 0.85 0.85 0.0 0 0 47.45 8.21
  L 47.53 15.66
  A 0.85 0.85 0.0 0 1 46.68 16.52
  L 39.11 16.49
  A 0.85 0.85 0.0 0 0 38.26 17.38
  L 38.36 19.91
  A 0.85 0.85 0.0 0 0 39.21 20.73
  L 46.68 20.69"
/>
<path stroke="#976569" vector-effect="non-scaling-stroke" d="
  M 31.9225 25.0522
  A 0.45 0.45 0.0 0 0 31.2941 24.9516
  L 21.1199 32.3164
  A 0.45 0.45 0.0 0 0 21.0193 32.9448
  L 31.9375 48.0278
  A 0.45 0.45 0.0 0 0 32.5659 48.1284
  L 42.7401 40.7636
  A 0.45 0.45 0.0 0 0 42.8407 40.1352
  L 31.9225 25.0522"
/>
<path stroke="#976569" vector-effect="non-scaling-stroke" d="
  M 43.29 46.82
  L 45.48 45.33
  Q 46.24 44.81 45.73 44.03
  L 44.88 42.77
  Q 44.39 42.04 43.68 42.56
  L 33.90 49.68
  Q 33.42 50.02 33.76 50.50
  L 34.96 52.19
  A 0.65 0.64 53.1 0 0 35.89 52.33
  L 38.31 50.43
  A 0.62 0.62 0.0 0 1 39.23 50.61
  L 40.10 52.13
  Q 40.45 52.73 40.97 52.28
  Q 41.26 52.04 41.62 51.98
  Q 42.18 51.90 42.51 52.37
  L 49.28 62.21
  A 0.49 0.49 0.0 0 0 49.98 62.33
  L 50.24 62.13
  Q 50.82 61.68 50.41 61.07
  L 43.66 51.31
  Q 43.38 50.90 43.65 50.49
  Q 43.87 50.15 44.23 49.94
  A 0.51 0.50 48.5 0 0 44.28 49.10
  Q 43.53 48.52 43.08 47.72
  Q 42.78 47.18 43.29 46.82"
/>
<path stroke="#976569" vector-effect="non-scaling-stroke" d="
  M 20.47 13.98
  A 4.91 4.91 0.0 0 0 15.56 9.07
  A 4.91 4.91 0.0 0 0 10.65 13.98
  A 4.91 4.91 0.0 0 0 15.56 18.89
  A 4.91 4.91 0.0 0 0 20.47 13.98"
/>
</g>
<g fill="#2f353e">
<path d="
  M 0.00 0.00
  L 70.00 0.00
  L 70.00 70.00
  L 0.00 70.00
  L 0.00 0.00
  Z
  M 21.14 17.70
  Q 24.37 11.79 18.89 8.10
  Q 17.29 7.02 14.98 7.26
  C 8.29 7.95 6.80 16.41 12.10 19.70
  C 13.85 20.78 15.69 20.62 17.62 20.46
  Q 18.16 20.41 18.46 20.87
  L 20.19 23.49
  Q 20.57 24.07 20.05 24.52
  L 17.86 26.41
  Q 16.98 27.18 17.63 28.16
  L 18.97 30.15
  Q 19.52 30.96 20.30 30.39
  L 29.78 23.51
  Q 30.54 22.95 29.95 22.22
  L 28.32 20.18
  Q 27.63 19.32 26.71 19.94
  L 24.67 21.31
  Q 23.74 21.93 23.05 21.05
  L 21.24 18.77
  Q 20.83 18.27 21.14 17.70
  Z
  M 46.68 20.69
  A 0.85 0.85 0.0 0 1 47.53 21.55
  L 47.48 28.91
  A 0.85 0.85 0.0 0 0 48.27 29.77
  L 50.75 29.94
  A 0.85 0.85 0.0 0 0 51.66 29.09
  L 51.63 21.56
  A 0.85 0.85 0.0 0 1 52.49 20.70
  L 59.83 20.75
  A 0.85 0.85 0.0 0 0 60.69 19.92
  L 60.75 17.33
  A 0.85 0.85 0.0 0 0 59.89 16.46
  L 52.50 16.53
  A 0.85 0.85 0.0 0 1 51.64 15.68
  L 51.68 8.14
  A 0.85 0.85 0.0 0 0 50.81 7.29
  L 48.28 7.35
  A 0.85 0.85 0.0 0 0 47.45 8.21
  L 47.53 15.66
  A 0.85 0.85 0.0 0 1 46.68 16.52
  L 39.11 16.49
  A 0.85 0.85 0.0 0 0 38.26 17.38
  L 38.36 19.91
  A 0.85 0.85 0.0 0 0 39.21 20.73
  L 46.68 20.69
  Z
  M 31.9225 25.0522
  A 0.45 0.45 0.0 0 0 31.2941 24.9516
  L 21.1199 32.3164
  A 0.45 0.45 0.0 0 0 21.0193 32.9448
  L 31.9375 48.0278
  A 0.45 0.45 0.0 0 0 32.5659 48.1284
  L 42.7401 40.7636
  A 0.45 0.45 0.0 0 0 42.8407 40.1352
  L 31.9225 25.0522
  Z
  M 43.29 46.82
  L 45.48 45.33
  Q 46.24 44.81 45.73 44.03
  L 44.88 42.77
  Q 44.39 42.04 43.68 42.56
  L 33.90 49.68
  Q 33.42 50.02 33.76 50.50
  L 34.96 52.19
  A 0.65 0.64 53.1 0 0 35.89 52.33
  L 38.31 50.43
  A 0.62 0.62 0.0 0 1 39.23 50.61
  L 40.10 52.13
  Q 40.45 52.73 40.97 52.28
  Q 41.26 52.04 41.62 51.98
  Q 42.18 51.90 42.51 52.37
  L 49.28 62.21
  A 0.49 0.49 0.0 0 0 49.98 62.33
  L 50.24 62.13
  Q 50.82 61.68 50.41 61.07
  L 43.66 51.31
  Q 43.38 50.90 43.65 50.49
  Q 43.87 50.15 44.23 49.94
  A 0.51 0.50 48.5 0 0 44.28 49.10
  Q 43.53 48.52 43.08 47.72
  Q 42.78 47.18 43.29 46.82
  Z"
/>
<circle cx="15.56" cy="13.98" r="4.91"/>
</g>
<g fill="#ff9494">
<path d="
  M 21.24 18.77
  L 23.05 21.05
  Q 23.74 21.93 24.67 21.31
  L 26.71 19.94
  Q 27.63 19.32 28.32 20.18
  L 29.95 22.22
  Q 30.54 22.95 29.78 23.51
  L 20.30 30.39
  Q 19.52 30.96 18.97 30.15
  L 17.63 28.16
  Q 16.98 27.18 17.86 26.41
  L 20.05 24.52
  Q 20.57 24.07 20.19 23.49
  L 18.46 20.87
  Q 18.16 20.41 17.62 20.46
  C 15.69 20.62 13.85 20.78 12.10 19.70
  C 6.80 16.41 8.29 7.95 14.98 7.26
  Q 17.29 7.02 18.89 8.10
  Q 24.37 11.79 21.14 17.70
  Q 20.83 18.27 21.24 18.77
  Z
  M 20.47 13.98
  A 4.91 4.91 0.0 0 0 15.56 9.07
  A 4.91 4.91 0.0 0 0 10.65 13.98
  A 4.91 4.91 0.0 0 0 15.56 18.89
  A 4.91 4.91 0.0 0 0 20.47 13.98
  Z"
/>
<path d="
  M 46.68 20.69
  L 39.21 20.73
  A 0.85 0.85 0.0 0 1 38.36 19.91
  L 38.26 17.38
  A 0.85 0.85 0.0 0 1 39.11 16.49
  L 46.68 16.52
  A 0.85 0.85 0.0 0 0 47.53 15.66
  L 47.45 8.21
  A 0.85 0.85 0.0 0 1 48.28 7.35
  L 50.81 7.29
  A 0.85 0.85 0.0 0 1 51.68 8.14
  L 51.64 15.68
  A 0.85 0.85 0.0 0 0 52.50 16.53
  L 59.89 16.46
  A 0.85 0.85 0.0 0 1 60.75 17.33
  L 60.69 19.92
  A 0.85 0.85 0.0 0 1 59.83 20.75
  L 52.49 20.70
  A 0.85 0.85 0.0 0 0 51.63 21.56
  L 51.66 29.09
  A 0.85 0.85 0.0 0 1 50.75 29.94
  L 48.27 29.77
  A 0.85 0.85 0.0 0 1 47.48 28.91
  L 47.53 21.55
  A 0.85 0.85 0.0 0 0 46.68 20.69
  Z"
/>
<rect x="-6.73" y="-9.76" transform="translate(31.93,36.54) rotate(-35.9)" width="13.46" height="19.52" rx="0.45"/>
<path d="
  M 43.08 47.72
  Q 43.53 48.52 44.28 49.10
  A 0.51 0.50 48.5 0 1 44.23 49.94
  Q 43.87 50.15 43.65 50.49
  Q 43.38 50.90 43.66 51.31
  L 50.41 61.07
  Q 50.82 61.68 50.24 62.13
  L 49.98 62.33
  A 0.49 0.49 0.0 0 1 49.28 62.21
  L 42.51 52.37
  Q 42.18 51.90 41.62 51.98
  Q 41.26 52.04 40.97 52.28
  Q 40.45 52.73 40.10 52.13
  L 39.23 50.61
  A 0.62 0.62 0.0 0 0 38.31 50.43
  L 35.89 52.33
  A 0.65 0.64 53.1 0 1 34.96 52.19
  L 33.76 50.50
  Q 33.42 50.02 33.90 49.68
  L 43.68 42.56
  Q 44.39 42.04 44.88 42.77
  L 45.73 44.03
  Q 46.24 44.81 45.48 45.33
  L 43.29 46.82
  Q 42.78 47.18 43.08 47.72
  Z"
/>
</g>
</svg>
