<svg width="32" height="32" viewBox="0 0 32 32" fill="none" xmlns="http://www.w3.org/2000/svg">
<path d="M9.7098 8.58061L10.5372 9.6229C10.7475 9.89109 10.9944 9.93071 11.2778 9.74175L12.2104 9.11547C12.4908 8.92652 12.7361 8.96309 12.9464 9.22518L13.6915 10.1578C13.8713 10.3802 13.8454 10.5768 13.6138 10.7475L9.28008 13.8926C9.04237 14.0663 8.8397 14.0298 8.67208 13.7829L8.05951 12.8732C7.86142 12.5745 7.89647 12.3078 8.16466 12.0732L9.1658 11.2092C9.32427 11.072 9.34561 10.9151 9.2298 10.7383L8.43894 9.54061C8.34751 9.40042 8.21951 9.33794 8.05494 9.35318C7.17266 9.42633 6.33151 9.49947 5.53151 9.00576C3.10866 7.50176 3.7898 3.63433 6.84808 3.3189C7.55208 3.24576 8.14789 3.37376 8.63551 3.7029C10.3056 4.82747 10.6485 6.29033 9.66408 8.09147C9.56961 8.26518 9.58485 8.42823 9.7098 8.58061ZM9.3578 6.3909C9.3578 5.7956 9.12132 5.22468 8.70038 4.80375C8.27944 4.38281 7.70852 4.14633 7.11323 4.14633C6.51793 4.14633 5.94701 4.38281 5.52608 4.80375C5.10514 5.22468 4.86866 5.7956 4.86866 6.3909C4.86866 6.9862 5.10514 7.55711 5.52608 7.97805C5.94701 8.39899 6.51793 8.63547 7.11323 8.63547C7.70852 8.63547 8.27944 8.39899 8.70038 7.97805C9.12132 7.55711 9.3578 6.9862 9.3578 6.3909Z" fill="#FF9494"/>
<path d="M21.3393 9.45834L17.9245 9.47663C17.8237 9.47669 17.7269 9.43764 17.6544 9.36771C17.582 9.29778 17.5394 9.20243 17.5359 9.10177L17.4902 7.9452C17.4877 7.89265 17.4959 7.84015 17.5143 7.79088C17.5328 7.7416 17.561 7.69658 17.5973 7.65854C17.6336 7.6205 17.6773 7.59023 17.7257 7.56957C17.7741 7.54891 17.8261 7.53828 17.8787 7.53834L21.3393 7.55206C21.3907 7.55206 21.4416 7.54186 21.4891 7.52205C21.5365 7.50223 21.5796 7.4732 21.6157 7.43663C21.6519 7.40007 21.6804 7.35669 21.6996 7.30902C21.7189 7.26134 21.7285 7.21032 21.7279 7.15891L21.6913 3.7532C21.6901 3.65092 21.7292 3.55228 21.8003 3.47868C21.8713 3.40508 21.9685 3.36245 22.0707 3.36006L23.2273 3.33263C23.2791 3.33141 23.3306 3.34056 23.3788 3.35954C23.427 3.37852 23.471 3.40695 23.508 3.44315C23.5451 3.47936 23.5745 3.52261 23.5946 3.57036C23.6147 3.61811 23.625 3.66939 23.625 3.7212L23.6067 7.16806C23.6067 7.21947 23.6169 7.27037 23.6368 7.31782C23.6566 7.36526 23.6856 7.4083 23.7222 7.44445C23.7587 7.48059 23.8021 7.50911 23.8498 7.52837C23.8975 7.54763 23.9485 7.55723 23.9999 7.55663L27.3782 7.52463C27.4304 7.524 27.4821 7.53389 27.5304 7.55371C27.5787 7.57354 27.6225 7.60288 27.6592 7.64C27.6959 7.67712 27.7247 7.72125 27.744 7.76976C27.7633 7.81827 27.7726 7.87016 27.7713 7.92234L27.7439 9.10634C27.7415 9.2086 27.6989 9.30579 27.6253 9.37682C27.5517 9.44785 27.453 9.487 27.3507 9.48577L23.9953 9.46291C23.9435 9.4623 23.8921 9.47205 23.8441 9.49159C23.7962 9.51113 23.7526 9.54007 23.716 9.5767C23.6793 9.61333 23.6504 9.65691 23.6309 9.70488C23.6113 9.75286 23.6016 9.80426 23.6022 9.85606L23.6159 13.2983C23.616 13.3518 23.6051 13.4046 23.5839 13.4537C23.5627 13.5027 23.5316 13.5468 23.4926 13.5833C23.4535 13.6197 23.4074 13.6478 23.357 13.6656C23.3067 13.6834 23.2532 13.6907 23.1999 13.6869L22.0662 13.6092C21.9672 13.6022 21.8746 13.5576 21.8074 13.4845C21.7402 13.4114 21.7036 13.3153 21.705 13.2161L21.7279 9.85148C21.7285 9.80007 21.7189 9.74905 21.6996 9.70138C21.6804 9.65371 21.6519 9.61033 21.6157 9.57376C21.5796 9.53719 21.5365 9.50816 21.4891 9.48835C21.4416 9.46854 21.3907 9.45834 21.3393 9.45834Z" fill="#FF9494"/>
<path d="M14.3059 11.4064L9.65492 14.7732C9.56289 14.8398 9.54229 14.9684 9.60891 15.0604L14.6001 21.9555C14.6667 22.0475 14.7953 22.0681 14.8874 22.0015L19.5384 18.6347C19.6304 18.5681 19.651 18.4395 19.5844 18.3475L14.5932 11.4524C14.5266 11.3604 14.398 11.3398 14.3059 11.4064Z" fill="#FF9494"/>
<path d="M19.6937 21.8148C19.8308 22.0586 20.0137 22.2689 20.2422 22.4457C20.2726 22.4692 20.2969 22.4998 20.3129 22.5347C20.3288 22.5696 20.336 22.6078 20.3337 22.6458C20.3315 22.6839 20.3198 22.7205 20.2999 22.7526C20.2799 22.7847 20.2523 22.8112 20.2194 22.8297C20.1097 22.8937 20.0213 22.9775 19.9542 23.0811C19.872 23.206 19.8735 23.331 19.9588 23.4559L23.0445 27.9177C23.1695 28.1036 23.1436 28.2651 22.9668 28.4022L22.848 28.4937C22.8236 28.5118 22.7958 28.5248 22.7663 28.5319C22.7368 28.539 22.7061 28.54 22.6762 28.5349C22.6463 28.5297 22.6177 28.5186 22.5922 28.5021C22.5667 28.4856 22.5449 28.464 22.528 28.4388L19.4331 23.9405C19.3325 23.7973 19.1969 23.7378 19.0262 23.7622C18.9165 23.7805 18.8175 23.8262 18.7291 23.8994C18.5706 24.0365 18.4381 24.0137 18.3314 23.8308L17.9337 23.1359C17.9135 23.1007 17.8859 23.0702 17.8529 23.0465C17.8198 23.0228 17.7821 23.0065 17.7422 22.9987C17.7023 22.9909 17.6612 22.9918 17.6217 23.0013C17.5821 23.0107 17.5451 23.0286 17.5131 23.0537L16.4068 23.9222C16.3756 23.9472 16.3396 23.9655 16.3009 23.9758C16.2622 23.9862 16.2217 23.9884 16.1818 23.9824C16.142 23.9764 16.1037 23.9623 16.0692 23.941C16.0348 23.9196 16.005 23.8914 15.9817 23.8582L15.4331 23.0857C15.3295 22.9394 15.3508 22.8144 15.4971 22.7108L19.968 19.4559C20.1843 19.2975 20.3672 19.3295 20.5165 19.5519L20.9051 20.1279C21.0605 20.3657 21.0224 20.5638 20.7908 20.7222L19.7897 21.4034C19.6342 21.5131 19.6022 21.6502 19.6937 21.8148Z" fill="#FF9494"/>
</svg>
