<?xml version="1.0" encoding="UTF-8" standalone="no"?>
<!DOCTYPE svg PUBLIC "-//W3C//DTD SVG 1.1//EN" "http://www.w3.org/Graphics/SVG/1.1/DTD/svg11.dtd">
<svg xmlns="http://www.w3.org/2000/svg" version="1.1" viewBox="0.00 0.00 70.00 70.00">
<g stroke-width="2.00" fill="none" stroke-linecap="butt">
<path stroke="#575c63" vector-effect="non-scaling-stroke" d="
  M 19.27 19.31
  Q 18.57 18.64 19.31 18.02
  Q 29.92 9.06 43.86 13.36
  A 1.27 1.27 0.0 0 0 45.48 12.39
  L 45.56 12.00
  A 1.85 1.85 0.0 0 0 44.29 9.88
  Q 28.90 5.09 16.69 15.93
  A 0.62 0.62 0.0 0 1 15.82 15.90
  L 12.92 12.88
  Q 12.36 12.29 12.36 13.10
  L 12.41 23.26
  Q 12.42 23.86 13.01 23.86
  L 22.79 23.92
  A 0.53 0.53 0.0 0 0 23.16 23.01
  L 19.27 19.31"
/>
<path stroke="#575c63" vector-effect="non-scaling-stroke" d="
  M 53.64 20.71
  Q 60.98 30.95 57.56 42.82
  A 1.30 1.29 -53.8 0 0 57.72 43.90
  Q 58.19 44.63 58.87 44.70
  Q 60.53 44.90 60.96 43.28
  Q 64.84 28.79 55.84 18.08
  Q 55.40 17.56 55.88 17.08
  L 59.70 13.28
  Q 60.62 12.36 59.32 12.36
  L 49.59 12.36
  A 0.57 0.56 90.0 0 0 49.03 12.93
  L 49.03 22.79
  Q 49.03 24.16 49.98 23.17
  L 52.43 20.62
  A 0.79 0.79 0.0 0 1 53.64 20.71"
/>
<path stroke="#575c63" vector-effect="non-scaling-stroke" d="
  M 35.75 26.58
  A 0.71 0.70 -44.1 0 1 34.77 26.57
  C 30.50 22.26 21.05 22.82 19.75 29.80
  C 17.80 40.25 26.18 48.31 34.89 53.59
  A 0.82 0.82 0.0 0 0 35.73 53.59
  C 43.49 48.99 50.94 42.12 51.17 32.47
  Q 51.32 25.91 45.56 24.29
  Q 39.84 22.67 35.75 26.58"
/>
<path stroke="#575c63" vector-effect="non-scaling-stroke" d="
  M 17.10 50.22
  Q 9.87 40.54 12.67 28.62
  A 1.37 1.35 -52.9 0 0 12.55 27.69
  Q 12.02 26.66 11.30 26.68
  Q 9.65 26.70 9.27 28.30
  Q 6.03 42.00 14.74 52.50
  A 0.86 0.86 0.0 0 1 14.68 53.66
  L 10.69 57.64
  A 0.38 0.37 -67.5 0 0 10.95 58.28
  L 20.74 58.27
  Q 21.50 58.27 21.50 57.51
  L 21.49 48.28
  Q 21.49 46.70 20.40 47.85
  L 18.09 50.28
  A 0.65 0.65 0.0 0 1 17.10 50.22"
/>
<path stroke="#575c63" vector-effect="non-scaling-stroke" d="
  M 53.34 55.66
  L 57.67 60.04
  Q 58.30 60.68 58.30 59.78
  L 58.26 49.62
  A 0.64 0.63 89.6 0 0 57.62 48.98
  L 47.68 48.99
  Q 46.67 49.00 47.39 49.70
  L 50.17 52.41
  A 0.72 0.71 -41.3 0 1 50.10 53.49
  Q 40.45 60.78 28.41 57.80
  Q 27.10 57.48 26.36 58.61
  Q 26.22 58.83 26.21 59.08
  Q 26.15 60.71 27.73 61.10
  Q 42.00 64.64 52.82 55.64
  A 0.38 0.38 0.0 0 1 53.34 55.66"
/>
<path stroke="#575c63" vector-effect="non-scaling-stroke" d="
  M 34.71 39.95
  A 0.32 0.32 0.0 0 1 35.03 40.30
  L 34.30 47.54
  A 0.32 0.32 0.0 0 0 34.88 47.75
  L 42.60 36.14
  A 0.32 0.32 0.0 0 0 42.33 35.64
  L 37.00 35.67
  A 0.32 0.32 0.0 0 1 36.68 35.32
  L 37.33 28.24
  A 0.32 0.32 0.0 0 0 36.74 28.03
  L 29.07 39.39
  A 0.32 0.32 0.0 0 0 29.33 39.89
  L 34.71 39.95"
/>
</g>
<g fill="#2f353e">
<path d="
  M 0.00 0.00
  L 70.00 0.00
  L 70.00 70.00
  L 0.00 70.00
  L 0.00 0.00
  Z
  M 19.27 19.31
  Q 18.57 18.64 19.31 18.02
  Q 29.92 9.06 43.86 13.36
  A 1.27 1.27 0.0 0 0 45.48 12.39
  L 45.56 12.00
  A 1.85 1.85 0.0 0 0 44.29 9.88
  Q 28.90 5.09 16.69 15.93
  A 0.62 0.62 0.0 0 1 15.82 15.90
  L 12.92 12.88
  Q 12.36 12.29 12.36 13.10
  L 12.41 23.26
  Q 12.42 23.86 13.01 23.86
  L 22.79 23.92
  A 0.53 0.53 0.0 0 0 23.16 23.01
  L 19.27 19.31
  Z
  M 53.64 20.71
  Q 60.98 30.95 57.56 42.82
  A 1.30 1.29 -53.8 0 0 57.72 43.90
  Q 58.19 44.63 58.87 44.70
  Q 60.53 44.90 60.96 43.28
  Q 64.84 28.79 55.84 18.08
  Q 55.40 17.56 55.88 17.08
  L 59.70 13.28
  Q 60.62 12.36 59.32 12.36
  L 49.59 12.36
  A 0.57 0.56 90.0 0 0 49.03 12.93
  L 49.03 22.79
  Q 49.03 24.16 49.98 23.17
  L 52.43 20.62
  A 0.79 0.79 0.0 0 1 53.64 20.71
  Z
  M 35.75 26.58
  A 0.71 0.70 -44.1 0 1 34.77 26.57
  C 30.50 22.26 21.05 22.82 19.75 29.80
  C 17.80 40.25 26.18 48.31 34.89 53.59
  A 0.82 0.82 0.0 0 0 35.73 53.59
  C 43.49 48.99 50.94 42.12 51.17 32.47
  Q 51.32 25.91 45.56 24.29
  Q 39.84 22.67 35.75 26.58
  Z
  M 17.10 50.22
  Q 9.87 40.54 12.67 28.62
  A 1.37 1.35 -52.9 0 0 12.55 27.69
  Q 12.02 26.66 11.30 26.68
  Q 9.65 26.70 9.27 28.30
  Q 6.03 42.00 14.74 52.50
  A 0.86 0.86 0.0 0 1 14.68 53.66
  L 10.69 57.64
  A 0.38 0.37 -67.5 0 0 10.95 58.28
  L 20.74 58.27
  Q 21.50 58.27 21.50 57.51
  L 21.49 48.28
  Q 21.49 46.70 20.40 47.85
  L 18.09 50.28
  A 0.65 0.65 0.0 0 1 17.10 50.22
  Z
  M 53.34 55.66
  L 57.67 60.04
  Q 58.30 60.68 58.30 59.78
  L 58.26 49.62
  A 0.64 0.63 89.6 0 0 57.62 48.98
  L 47.68 48.99
  Q 46.67 49.00 47.39 49.70
  L 50.17 52.41
  A 0.72 0.71 -41.3 0 1 50.10 53.49
  Q 40.45 60.78 28.41 57.80
  Q 27.10 57.48 26.36 58.61
  Q 26.22 58.83 26.21 59.08
  Q 26.15 60.71 27.73 61.10
  Q 42.00 64.64 52.82 55.64
  A 0.38 0.38 0.0 0 1 53.34 55.66
  Z"
/>
<path d="
  M 34.71 39.95
  L 29.33 39.89
  A 0.32 0.32 0.0 0 1 29.07 39.39
  L 36.74 28.03
  A 0.32 0.32 0.0 0 1 37.33 28.24
  L 36.68 35.32
  A 0.32 0.32 0.0 0 0 37.00 35.67
  L 42.33 35.64
  A 0.32 0.32 0.0 0 1 42.60 36.14
  L 34.88 47.75
  A 0.32 0.32 0.0 0 1 34.30 47.54
  L 35.03 40.30
  A 0.32 0.32 0.0 0 0 34.71 39.95
  Z"
/>
</g>
<g fill="#ff9494">
<path d="
  M 19.27 19.31
  L 23.16 23.01
  A 0.53 0.53 0.0 0 1 22.79 23.92
  L 13.01 23.86
  Q 12.42 23.86 12.41 23.26
  L 12.36 13.10
  Q 12.36 12.29 12.92 12.88
  L 15.82 15.90
  A 0.62 0.62 0.0 0 0 16.69 15.93
  Q 28.90 5.09 44.29 9.88
  A 1.85 1.85 0.0 0 1 45.56 12.00
  L 45.48 12.39
  A 1.27 1.27 0.0 0 1 43.86 13.36
  Q 29.92 9.06 19.31 18.02
  Q 18.57 18.64 19.27 19.31
  Z"
/>
<path d="
  M 52.43 20.62
  L 49.98 23.17
  Q 49.03 24.16 49.03 22.79
  L 49.03 12.93
  A 0.57 0.56 -90.0 0 1 49.59 12.36
  L 59.32 12.36
  Q 60.62 12.36 59.70 13.28
  L 55.88 17.08
  Q 55.40 17.56 55.84 18.08
  Q 64.84 28.79 60.96 43.28
  Q 60.53 44.90 58.87 44.70
  Q 58.19 44.63 57.72 43.90
  A 1.30 1.29 -53.8 0 1 57.56 42.82
  Q 60.98 30.95 53.64 20.71
  A 0.79 0.79 0.0 0 0 52.43 20.62
  Z"
/>
<path d="
  M 35.75 26.58
  Q 39.84 22.67 45.56 24.29
  Q 51.32 25.91 51.17 32.47
  C 50.94 42.12 43.49 48.99 35.73 53.59
  A 0.82 0.82 0.0 0 1 34.89 53.59
  C 26.18 48.31 17.80 40.25 19.75 29.80
  C 21.05 22.82 30.50 22.26 34.77 26.57
  A 0.71 0.70 -44.1 0 0 35.75 26.58
  Z
  M 34.71 39.95
  A 0.32 0.32 0.0 0 1 35.03 40.30
  L 34.30 47.54
  A 0.32 0.32 0.0 0 0 34.88 47.75
  L 42.60 36.14
  A 0.32 0.32 0.0 0 0 42.33 35.64
  L 37.00 35.67
  A 0.32 0.32 0.0 0 1 36.68 35.32
  L 37.33 28.24
  A 0.32 0.32 0.0 0 0 36.74 28.03
  L 29.07 39.39
  A 0.32 0.32 0.0 0 0 29.33 39.89
  L 34.71 39.95
  Z"
/>
<path d="
  M 18.09 50.28
  L 20.40 47.85
  Q 21.49 46.70 21.49 48.28
  L 21.50 57.51
  Q 21.50 58.27 20.74 58.27
  L 10.95 58.28
  A 0.38 0.37 -67.5 0 1 10.69 57.64
  L 14.68 53.66
  A 0.86 0.86 0.0 0 0 14.74 52.50
  Q 6.03 42.00 9.27 28.30
  Q 9.65 26.70 11.30 26.68
  Q 12.02 26.66 12.55 27.69
  A 1.37 1.35 -52.9 0 1 12.67 28.62
  Q 9.87 40.54 17.10 50.22
  A 0.65 0.65 0.0 0 0 18.09 50.28
  Z"
/>
<path d="
  M 53.34 55.66
  A 0.38 0.38 0.0 0 0 52.82 55.64
  Q 42.00 64.64 27.73 61.10
  Q 26.15 60.71 26.21 59.08
  Q 26.22 58.83 26.36 58.61
  Q 27.10 57.48 28.41 57.80
  Q 40.45 60.78 50.10 53.49
  A 0.72 0.71 -41.3 0 0 50.17 52.41
  L 47.39 49.70
  Q 46.67 49.00 47.68 48.99
  L 57.62 48.98
  A 0.64 0.63 89.6 0 1 58.26 49.62
  L 58.30 59.78
  Q 58.30 60.68 57.67 60.04
  L 53.34 55.66
  Z"
/>
</g>
</svg>
