<svg width="32" height="32" viewBox="0 0 32 32" fill="none" xmlns="http://www.w3.org/2000/svg">
<path d="M8.80925 8.82738L10.5875 10.5188C10.6221 10.5524 10.6459 10.5956 10.6558 10.6428C10.6657 10.69 10.6612 10.7391 10.6431 10.7838C10.6249 10.8285 10.5938 10.8667 10.5538 10.8936C10.5138 10.9205 10.4666 10.9349 10.4184 10.9348L5.94753 10.9074C5.76772 10.9074 5.6763 10.816 5.67325 10.6331L5.65039 5.98852C5.65039 5.74167 5.73572 5.70814 5.90639 5.88795L7.2321 7.26852C7.2833 7.3226 7.35373 7.35435 7.42815 7.35692C7.50257 7.35948 7.57502 7.33266 7.62982 7.28224C11.351 3.97862 15.5567 3.05671 20.247 4.51652C20.4462 4.57808 20.6156 4.71106 20.7228 4.88994C20.83 5.06881 20.8673 5.28097 20.8275 5.48567L20.791 5.66395C20.7753 5.74383 20.7431 5.81954 20.6963 5.88615C20.6495 5.95276 20.5893 6.00879 20.5194 6.05061C20.4496 6.09242 20.3718 6.11909 20.291 6.12887C20.2101 6.13865 20.1282 6.13133 20.0504 6.10738C15.802 4.7969 12.0611 5.507 8.82753 8.23767C8.60201 8.42662 8.59591 8.62319 8.80925 8.82738Z" fill="#FF9494"/>
<path d="M23.9681 9.42627L22.8481 10.592C22.5586 10.8937 22.4138 10.8358 22.4138 10.4183V5.91084C22.4138 5.84173 22.4408 5.77545 22.4888 5.72659C22.5368 5.67772 22.6019 5.65027 22.6698 5.65027H27.1178C27.514 5.65027 27.5719 5.79046 27.2915 6.07084L25.5452 7.80798C25.399 7.95427 25.3929 8.10665 25.527 8.26513C28.2698 11.5291 29.05 15.3691 27.8675 19.7851C27.7365 20.2788 27.418 20.4952 26.9121 20.4343C26.7049 20.4129 26.5296 20.291 26.3864 20.0686C26.339 19.9968 26.3079 19.9155 26.2953 19.8302C26.2827 19.7449 26.2888 19.6578 26.3132 19.5748C27.3555 15.9573 26.7582 12.5882 24.5212 9.46741C24.4905 9.42437 24.4506 9.38863 24.4045 9.3627C24.3583 9.33677 24.3071 9.3213 24.2543 9.31738C24.2015 9.31345 24.1485 9.32117 24.0991 9.33999C24.0496 9.3588 24.0049 9.38826 23.9681 9.42627Z" fill="#FF9494"/>
<path d="M16.3428 12.1509C17.5893 10.9593 19.0842 10.6103 20.8274 11.104C22.5828 11.5977 23.4377 12.8442 23.392 14.8435C23.2868 19.2549 19.8811 22.3955 16.3337 24.4983C16.2756 24.5329 16.2093 24.5512 16.1417 24.5512C16.0741 24.5512 16.0077 24.5329 15.9497 24.4983C11.968 22.0846 8.13711 18.4 9.02853 13.6229C9.62282 10.432 13.9428 10.176 15.8948 12.1463C15.9535 12.205 16.033 12.2383 16.1166 12.2392C16.2002 12.24 16.2813 12.2084 16.3428 12.1509ZM15.8674 18.2629C15.8878 18.2628 15.908 18.267 15.9267 18.2752C15.9454 18.2834 15.9622 18.2954 15.976 18.3105C15.9898 18.3255 16.0003 18.3433 16.0067 18.3627C16.0132 18.3821 16.0156 18.4026 16.0137 18.4229L15.68 21.7326C15.6775 21.7645 15.6855 21.7964 15.7029 21.8232C15.7202 21.8501 15.7459 21.8706 15.776 21.8815C15.8061 21.8924 15.8389 21.8931 15.8695 21.8836C15.9 21.874 15.9266 21.8547 15.9451 21.8286L19.4742 16.5212C19.4893 16.499 19.498 16.4731 19.4994 16.4464C19.5008 16.4196 19.4948 16.393 19.482 16.3694C19.4693 16.3458 19.4503 16.3261 19.4272 16.3126C19.404 16.2991 19.3776 16.2921 19.3508 16.2926L16.9142 16.3063C16.8938 16.3064 16.8736 16.3022 16.8549 16.294C16.8362 16.2858 16.8194 16.2738 16.8056 16.2587C16.7919 16.2437 16.7814 16.2259 16.7749 16.2065C16.7684 16.1872 16.766 16.1666 16.768 16.1463L17.0651 12.9097C17.0696 12.8765 17.0625 12.8427 17.0451 12.814C17.0276 12.7854 17.0008 12.7636 16.9692 12.7523C16.9376 12.7411 16.903 12.741 16.8714 12.7522C16.8398 12.7634 16.8129 12.7851 16.7954 12.8137L13.2891 18.0069C13.2742 18.0287 13.2656 18.0542 13.264 18.0806C13.2625 18.1069 13.2681 18.1332 13.2803 18.1567C13.2924 18.1801 13.3108 18.1998 13.3332 18.2137C13.3557 18.2276 13.3815 18.2351 13.408 18.2355L15.8674 18.2629Z" fill="#FF9494"/>
<path d="M8.26976 22.9852L9.32576 21.8743C9.65795 21.5238 9.82405 21.5893 9.82405 22.0709L9.82862 26.2903C9.82862 26.5219 9.71281 26.6377 9.48119 26.6377L5.00576 26.6423C4.97238 26.6426 4.93984 26.6329 4.91221 26.6143C4.88457 26.5958 4.86307 26.5692 4.85039 26.538C4.83771 26.5068 4.83441 26.4723 4.8409 26.4388C4.8474 26.4053 4.8634 26.3743 4.88691 26.3497L6.71091 24.5303C6.78094 24.4613 6.8226 24.3686 6.82767 24.2705C6.83275 24.1723 6.80088 24.0758 6.73833 24C4.08386 20.8 3.25033 17.1124 4.23776 12.9372C4.35357 12.4495 4.66291 12.2027 5.16576 12.1966C5.38519 12.1905 5.57567 12.3444 5.73719 12.6583C5.80519 12.7883 5.82463 12.939 5.79205 13.0834C4.93872 16.7162 5.61376 20.0076 7.81719 22.9577C7.84304 22.9923 7.87611 23.0208 7.91409 23.0413C7.95207 23.0617 7.99405 23.0737 8.03712 23.0763C8.08019 23.0789 8.12331 23.0721 8.16349 23.0564C8.20366 23.0406 8.23993 23.0163 8.26976 22.9852Z" fill="#FF9494"/>
<path d="M24.384 25.4446C24.353 25.4131 24.3111 25.3947 24.267 25.393C24.2228 25.3913 24.1796 25.4065 24.1463 25.4355C20.8488 28.1783 17.0255 29.0103 12.6766 27.9315C12.195 27.8126 11.9634 27.5048 11.9817 27.008C11.9848 26.9319 12.0076 26.8602 12.0503 26.7932C12.2758 26.4488 12.5882 26.3254 12.9874 26.4229C16.6568 27.3311 19.9619 26.6743 22.9029 24.4526C22.9403 24.4238 22.9713 24.3874 22.9935 24.3457C23.0158 24.3041 23.0289 24.2584 23.032 24.2115C23.035 24.1647 23.0279 24.1178 23.0111 24.0743C22.9944 24.0307 22.9684 23.9913 22.9349 23.9589L21.664 22.72C21.4446 22.5067 21.4888 22.3985 21.7966 22.3955L26.3406 22.3909C26.3788 22.3903 26.4167 22.3974 26.4522 22.4118C26.4876 22.4263 26.5199 22.4477 26.5472 22.475C26.5744 22.5022 26.596 22.5346 26.6108 22.5704C26.6255 22.6062 26.6331 22.6447 26.6331 22.6835L26.6514 27.328C26.6514 27.6023 26.5554 27.642 26.3634 27.4469L24.384 25.4446Z" fill="#FF9494"/>
</svg>
