<svg width="32" height="32" viewBox="0 0 32 32" fill="none" xmlns="http://www.w3.org/2000/svg">
<path d="M8.61718 8.6446L10.4366 10.432C10.6378 10.6301 10.5981 10.7292 10.3178 10.7292L5.72804 10.7383C5.64153 10.7383 5.5585 10.7043 5.4969 10.6435C5.4353 10.5828 5.4001 10.5002 5.3989 10.4137L5.37604 5.83774C5.37299 5.52079 5.48118 5.4766 5.70061 5.70517L6.94861 6.99888C7.0149 7.06759 7.10509 7.10797 7.1999 7.11138C7.29472 7.1148 7.38664 7.08099 7.45604 7.01717C11.0979 3.71965 15.3539 2.82669 20.224 4.33831C20.6995 4.4846 20.8793 4.80003 20.7635 5.2846L20.7315 5.4126C20.7116 5.49516 20.675 5.57277 20.6239 5.64072C20.5728 5.70868 20.5084 5.76555 20.4344 5.80788C20.3604 5.85021 20.2785 5.87712 20.1936 5.88697C20.1087 5.89682 20.0226 5.8894 19.9406 5.86517C15.7989 4.64003 12.0503 5.19317 8.63547 8.08231C8.42213 8.26212 8.41604 8.44955 8.61718 8.6446Z" fill="#FF9494"/>
<path d="M23.9589 9.21598L22.7018 10.4868C22.4519 10.7398 22.3254 10.6895 22.3223 10.336L22.2903 5.61369C22.2897 5.5857 22.2948 5.55787 22.3054 5.53184C22.3159 5.5058 22.3316 5.48208 22.3516 5.46207C22.3716 5.44205 22.3955 5.42615 22.4219 5.41529C22.4483 5.40444 22.4766 5.39884 22.5052 5.39883L27.2275 5.37598C27.2688 5.37602 27.3091 5.38821 27.3435 5.41103C27.3779 5.43386 27.4048 5.4663 27.4209 5.50433C27.437 5.54235 27.4416 5.58427 27.434 5.62485C27.4264 5.66543 27.4071 5.70289 27.3783 5.73255L25.536 7.59769C25.4172 7.72264 25.402 7.85826 25.4903 8.00455C25.9292 8.73141 26.5189 9.33026 26.9212 10.0891C28.5425 13.1398 28.826 16.4175 27.7715 19.9223C27.7274 20.0712 27.6309 20.1994 27.4994 20.284C27.3679 20.3686 27.2099 20.404 27.0538 20.384L26.8069 20.352C26.709 20.3387 26.615 20.3045 26.5315 20.2518C26.448 20.1991 26.3769 20.1291 26.323 20.0466C26.2692 19.9641 26.2339 19.8711 26.2196 19.7739C26.2053 19.6766 26.2122 19.5776 26.24 19.4834C27.2854 15.8628 26.6865 12.4541 24.4435 9.25712C24.2972 9.04988 24.1357 9.03617 23.9589 9.21598Z" fill="#FF9494"/>
<path d="M9.86976 19.7761C8.89147 17.8698 8.10976 16.2012 10.4412 14.7978C13.7539 12.8016 17.0332 10.4519 20.2789 7.74863C20.5075 7.55968 20.669 7.60539 20.7635 7.88577C20.992 8.56691 20.0549 9.88806 19.5978 10.3726C17.6625 12.4572 15.3692 14.2599 12.7178 15.7806C11.773 16.3231 11.4362 17.1231 11.7075 18.1806C12.1326 19.8355 12.7772 23.6023 11.616 24.8823C11.5983 24.901 11.5757 24.9145 11.5508 24.9212C11.5259 24.928 11.4998 24.9278 11.4754 24.9206C11.4511 24.9135 11.4295 24.8996 11.4131 24.8807C11.3967 24.8618 11.3863 24.8386 11.3829 24.8138C11.1178 23.0766 10.6743 21.3349 9.86976 19.7761Z" fill="#FF9494"/>
<path d="M20.9874 11.8354L21.0377 12.3794C21.1047 13.0986 20.934 13.7569 20.5257 14.3542C19.1177 16.4205 15.6571 18.0342 13.4125 19.04C13.3432 19.0712 13.2672 19.0848 13.1913 19.0796C13.1155 19.0744 13.0422 19.0505 12.9782 19.0101C12.9142 18.9697 12.8615 18.9141 12.8247 18.8482C12.788 18.7824 12.7685 18.7085 12.768 18.6331C12.7558 17.9809 13.0407 17.4537 13.6228 17.0514C16.0944 15.3539 18.246 13.5116 20.0777 11.5245C20.614 10.9424 20.9173 11.0461 20.9874 11.8354Z" fill="#FF9494"/>
<path d="M8.08229 22.9165L9.28915 21.6091C9.50248 21.3805 9.60915 21.4217 9.60915 21.7325L9.60458 26.3405C9.60458 26.4169 9.57423 26.4902 9.52022 26.5442C9.46621 26.5982 9.39296 26.6285 9.31658 26.6285H4.70858C4.67275 26.6293 4.63751 26.6193 4.60746 26.5998C4.57742 26.5802 4.55396 26.5521 4.54014 26.519C4.52632 26.486 4.52278 26.4495 4.53 26.4144C4.53721 26.3793 4.55484 26.3472 4.58058 26.3222L6.50972 24.4434C6.56678 24.3869 6.6008 24.3114 6.60504 24.2318C6.60927 24.1522 6.58341 24.0743 6.53258 24.0137C3.81715 20.8106 2.976 17.0316 4.00915 12.6765C4.05454 12.484 4.16779 12.3142 4.32814 12.1984C4.4885 12.0825 4.68523 12.0283 4.88229 12.0457C5.10477 12.067 5.29219 12.1691 5.44458 12.3519C5.50548 12.4225 5.54849 12.5067 5.56997 12.5974C5.59146 12.6881 5.59078 12.7827 5.568 12.8731C4.68572 16.4754 5.32572 19.9359 7.62058 22.8937C7.76686 23.0826 7.92077 23.0902 8.08229 22.9165Z" fill="#FF9494"/>
<path d="M20.1509 17.6822C19.1726 20.224 16.2378 21.0148 13.5818 21.7097C13.5034 21.7303 13.4203 21.7228 13.3468 21.6886C13.2733 21.6543 13.2142 21.5955 13.1795 21.5222C13.0302 21.2053 12.989 20.8853 13.0561 20.5622C13.0896 20.4068 13.1795 20.2971 13.3258 20.2331C15.5932 19.2594 18.1486 18.2765 19.8812 16.4845C20.0641 16.2956 20.1814 16.3306 20.2332 16.5897C20.3094 16.9737 20.282 17.3379 20.1509 17.6822Z" fill="#FF9494"/>
<path d="M13.5131 22.7245C14.816 22.4639 15.9771 21.9474 17.1428 21.3439C17.3775 21.222 17.4263 21.2739 17.2891 21.4994C16.3748 23.014 15.0796 23.8841 13.4034 24.1097C13.1566 24.1401 13.0301 24.0319 13.024 23.7851L13.0194 23.3417C13.0165 23.1979 13.0643 23.0576 13.1544 22.9449C13.2445 22.8323 13.3714 22.7543 13.5131 22.7245Z" fill="#FF9494"/>
<path d="M24.4068 25.4858C24.3571 25.4346 24.2899 25.4039 24.2181 25.3996C24.1463 25.3954 24.0751 25.418 24.0182 25.4629C20.6049 28.2393 16.7466 29.0439 12.4434 27.8766C12.0655 27.7761 11.8339 27.5338 11.7485 27.1498C11.7241 27.037 11.7455 26.938 11.8125 26.8526C12.1173 26.4564 12.512 26.3178 12.9965 26.4366C16.5561 27.3022 19.8217 26.6347 22.7931 24.4343C23.0064 24.2759 23.0201 24.1022 22.8342 23.9132L21.4765 22.5463C21.4564 22.5256 21.4426 22.4993 21.437 22.4708C21.4314 22.4423 21.4341 22.413 21.4449 22.3865C21.4557 22.36 21.474 22.3376 21.4976 22.3221C21.5211 22.3066 21.5488 22.2987 21.5771 22.2995H26.3999C26.4581 22.2995 26.514 22.3221 26.5551 22.3624C26.5963 22.4027 26.6194 22.4574 26.6194 22.5143V27.3921C26.619 27.4189 26.6108 27.445 26.5957 27.4672C26.5806 27.4894 26.5593 27.5067 26.5345 27.5169C26.5096 27.5272 26.4824 27.5299 26.456 27.5247C26.4297 27.5196 26.4054 27.5069 26.3862 27.4881L24.4068 25.4858Z" fill="#FF9494"/>
</svg>
