<?xml version="1.0" encoding="UTF-8" standalone="no"?>
<!DOCTYPE svg PUBLIC "-//W3C//DTD SVG 1.1//EN" "http://www.w3.org/Graphics/SVG/1.1/DTD/svg11.dtd">
<svg xmlns="http://www.w3.org/2000/svg" version="1.1" viewBox="0.00 0.00 70.00 70.00">
<g stroke-width="2.00" fill="none" stroke-linecap="butt">
<path stroke="#575c63" vector-effect="non-scaling-stroke" d="
  M 18.89 17.68
  C 26.36 11.36 34.56 10.15 43.62 12.83
  A 1.38 1.37 15.1 0 0 45.35 11.84
  L 45.42 11.56
  Q 45.80 9.97 44.24 9.49
  Q 28.26 4.53 16.31 15.35
  A 0.80 0.79 46.8 0 1 15.20 15.31
  L 12.47 12.48
  Q 11.75 11.73 11.76 12.77
  L 11.81 22.78
  A 0.72 0.72 0.0 0 0 12.53 23.49
  L 22.57 23.47
  Q 23.49 23.47 22.83 22.82
  L 18.85 18.91
  Q 18.19 18.27 18.89 17.68"
/>
<path stroke="#575c63" vector-effect="non-scaling-stroke" d="
  M 53.47 20.25
  Q 60.83 30.74 57.40 42.62
  A 1.50 1.49 12.0 0 0 58.64 44.52
  L 59.18 44.59
  A 1.45 1.43 12.0 0 0 60.75 43.58
  Q 64.21 32.08 58.89 22.07
  C 58.01 20.41 56.72 19.10 55.76 17.51
  Q 55.47 17.03 55.86 16.62
  L 59.89 12.54
  A 0.46 0.46 0.0 0 0 59.56 11.76
  L 49.23 11.81
  A 0.47 0.46 -0.6 0 0 48.76 12.28
  L 48.83 22.61
  Q 48.84 23.77 49.66 22.94
  L 52.41 20.16
  Q 52.99 19.57 53.47 20.25"
/>
<path stroke="#575c63" vector-effect="non-scaling-stroke" d="
  M 21.59 43.26
  C 23.35 46.67 24.32 50.48 24.90 54.28
  A 0.30 0.29 -28.2 0 0 25.41 54.43
  C 27.95 51.63 26.54 43.39 25.61 39.77
  Q 24.72 36.30 27.82 34.52
  Q 36.52 29.53 42.87 22.69
  C 43.87 21.63 45.92 18.74 45.42 17.25
  Q 45.11 16.33 44.36 16.95
  Q 33.71 25.82 22.84 32.37
  C 17.74 35.44 19.45 39.09 21.59 43.26"
/>
<path stroke="#575c63" vector-effect="non-scaling-stroke" d="
  M 45.91 25.89
  Q 45.68 23.30 43.92 25.21
  Q 37.91 31.73 29.80 37.30
  Q 27.89 38.62 27.93 40.76
  A 1.00 0.99 -12.5 0 0 29.34 41.65
  C 34.25 39.45 41.82 35.92 44.90 31.40
  Q 46.24 29.44 46.02 27.08
  L 45.91 25.89"
/>
<path stroke="#575c63" vector-effect="non-scaling-stroke" d="
  M 16.67 50.08
  C 11.65 43.61 10.25 36.04 12.18 28.16
  A 1.27 1.27 0.0 0 0 11.91 27.02
  Q 11.41 26.42 10.68 26.35
  A 1.80 1.80 0.0 0 0 8.77 27.73
  Q 5.38 42.02 14.29 52.53
  A 0.70 0.69 -42.2 0 1 14.24 53.47
  L 10.02 57.58
  A 0.39 0.39 0.0 0 0 10.30 58.25
  L 20.38 58.25
  A 0.63 0.63 0.0 0 0 21.01 57.62
  L 21.02 47.54
  Q 21.02 46.52 20.32 47.27
  L 17.68 50.13
  Q 17.15 50.70 16.67 50.08"
/>
<path stroke="#575c63" vector-effect="non-scaling-stroke" d="
  M 29.71 47.49
  C 35.52 45.97 41.94 44.24 44.08 38.68
  Q 44.51 37.55 44.26 36.29
  Q 44.09 35.44 43.49 36.06
  C 39.70 39.98 34.11 42.13 29.15 44.26
  Q 28.67 44.47 28.56 44.98
  Q 28.34 46.04 28.83 47.08
  A 0.76 0.76 0.0 0 0 29.71 47.49"
/>
<path stroke="#575c63" vector-effect="non-scaling-stroke" d="
  M 37.50 46.69
  C 34.95 48.01 32.41 49.14 29.56 49.71
  A 1.36 1.35 -6.4 0 0 28.48 51.06
  L 28.49 52.03
  Q 28.51 52.84 29.32 52.74
  Q 34.82 52.00 37.82 47.03
  Q 38.27 46.29 37.50 46.69"
/>
<path stroke="#575c63" vector-effect="non-scaling-stroke" d="
  M 53.39 55.75
  L 57.72 60.13
  A 0.30 0.30 0.0 0 0 58.23 59.92
  L 58.23 49.25
  A 0.48 0.47 -0.0 0 0 57.75 48.78
  L 47.20 48.78
  A 0.32 0.31 67.2 0 0 46.98 49.32
  L 49.95 52.31
  Q 50.56 52.93 49.86 53.45
  Q 40.11 60.67 28.43 57.83
  Q 26.84 57.44 25.84 58.74
  Q 25.62 59.02 25.70 59.39
  Q 25.98 60.65 27.22 60.98
  Q 41.34 64.81 52.54 55.70
  A 0.64 0.63 -41.5 0 1 53.39 55.75"
/>
</g>
<path fill="#2f353e" d="
  M 0.00 0.00
  L 70.00 0.00
  L 70.00 70.00
  L 0.00 70.00
  L 0.00 0.00
  Z
  M 18.89 17.68
  C 26.36 11.36 34.56 10.15 43.62 12.83
  A 1.38 1.37 15.1 0 0 45.35 11.84
  L 45.42 11.56
  Q 45.80 9.97 44.24 9.49
  Q 28.26 4.53 16.31 15.35
  A 0.80 0.79 46.8 0 1 15.20 15.31
  L 12.47 12.48
  Q 11.75 11.73 11.76 12.77
  L 11.81 22.78
  A 0.72 0.72 0.0 0 0 12.53 23.49
  L 22.57 23.47
  Q 23.49 23.47 22.83 22.82
  L 18.85 18.91
  Q 18.19 18.27 18.89 17.68
  Z
  M 53.47 20.25
  Q 60.83 30.74 57.40 42.62
  A 1.50 1.49 12.0 0 0 58.64 44.52
  L 59.18 44.59
  A 1.45 1.43 12.0 0 0 60.75 43.58
  Q 64.21 32.08 58.89 22.07
  C 58.01 20.41 56.72 19.10 55.76 17.51
  Q 55.47 17.03 55.86 16.62
  L 59.89 12.54
  A 0.46 0.46 0.0 0 0 59.56 11.76
  L 49.23 11.81
  A 0.47 0.46 -0.6 0 0 48.76 12.28
  L 48.83 22.61
  Q 48.84 23.77 49.66 22.94
  L 52.41 20.16
  Q 52.99 19.57 53.47 20.25
  Z
  M 21.59 43.26
  C 23.35 46.67 24.32 50.48 24.90 54.28
  A 0.30 0.29 -28.2 0 0 25.41 54.43
  C 27.95 51.63 26.54 43.39 25.61 39.77
  Q 24.72 36.30 27.82 34.52
  Q 36.52 29.53 42.87 22.69
  C 43.87 21.63 45.92 18.74 45.42 17.25
  Q 45.11 16.33 44.36 16.95
  Q 33.71 25.82 22.84 32.37
  C 17.74 35.44 19.45 39.09 21.59 43.26
  Z
  M 45.91 25.89
  Q 45.68 23.30 43.92 25.21
  Q 37.91 31.73 29.80 37.30
  Q 27.89 38.62 27.93 40.76
  A 1.00 0.99 -12.5 0 0 29.34 41.65
  C 34.25 39.45 41.82 35.92 44.90 31.40
  Q 46.24 29.44 46.02 27.08
  L 45.91 25.89
  Z
  M 16.67 50.08
  C 11.65 43.61 10.25 36.04 12.18 28.16
  A 1.27 1.27 0.0 0 0 11.91 27.02
  Q 11.41 26.42 10.68 26.35
  A 1.80 1.80 0.0 0 0 8.77 27.73
  Q 5.38 42.02 14.29 52.53
  A 0.70 0.69 -42.2 0 1 14.24 53.47
  L 10.02 57.58
  A 0.39 0.39 0.0 0 0 10.30 58.25
  L 20.38 58.25
  A 0.63 0.63 0.0 0 0 21.01 57.62
  L 21.02 47.54
  Q 21.02 46.52 20.32 47.27
  L 17.68 50.13
  Q 17.15 50.70 16.67 50.08
  Z
  M 29.71 47.49
  C 35.52 45.97 41.94 44.24 44.08 38.68
  Q 44.51 37.55 44.26 36.29
  Q 44.09 35.44 43.49 36.06
  C 39.70 39.98 34.11 42.13 29.15 44.26
  Q 28.67 44.47 28.56 44.98
  Q 28.34 46.04 28.83 47.08
  A 0.76 0.76 0.0 0 0 29.71 47.49
  Z
  M 37.50 46.69
  C 34.95 48.01 32.41 49.14 29.56 49.71
  A 1.36 1.35 -6.4 0 0 28.48 51.06
  L 28.49 52.03
  Q 28.51 52.84 29.32 52.74
  Q 34.82 52.00 37.82 47.03
  Q 38.27 46.29 37.50 46.69
  Z
  M 53.39 55.75
  L 57.72 60.13
  A 0.30 0.30 0.0 0 0 58.23 59.92
  L 58.23 49.25
  A 0.48 0.47 -0.0 0 0 57.75 48.78
  L 47.20 48.78
  A 0.32 0.31 67.2 0 0 46.98 49.32
  L 49.95 52.31
  Q 50.56 52.93 49.86 53.45
  Q 40.11 60.67 28.43 57.83
  Q 26.84 57.44 25.84 58.74
  Q 25.62 59.02 25.70 59.39
  Q 25.98 60.65 27.22 60.98
  Q 41.34 64.81 52.54 55.70
  A 0.64 0.63 -41.5 0 1 53.39 55.75
  Z"
/>
<g fill="#ff9494">
<path d="
  M 18.85 18.91
  L 22.83 22.82
  Q 23.49 23.47 22.57 23.47
  L 12.53 23.49
  A 0.72 0.72 0.0 0 1 11.81 22.78
  L 11.76 12.77
  Q 11.75 11.73 12.47 12.48
  L 15.20 15.31
  A 0.80 0.79 46.8 0 0 16.31 15.35
  Q 28.26 4.53 44.24 9.49
  Q 45.80 9.97 45.42 11.56
  L 45.35 11.84
  A 1.38 1.37 15.1 0 1 43.62 12.83
  C 34.56 10.15 26.36 11.36 18.89 17.68
  Q 18.19 18.27 18.85 18.91
  Z"
/>
<path d="
  M 52.41 20.16
  L 49.66 22.94
  Q 48.84 23.77 48.83 22.61
  L 48.76 12.28
  A 0.47 0.46 -0.6 0 1 49.23 11.81
  L 59.56 11.76
  A 0.46 0.46 0.0 0 1 59.89 12.54
  L 55.86 16.62
  Q 55.47 17.03 55.76 17.51
  C 56.72 19.10 58.01 20.41 58.89 22.07
  Q 64.21 32.08 60.75 43.58
  A 1.45 1.43 12.0 0 1 59.18 44.59
  L 58.64 44.52
  A 1.50 1.49 12.0 0 1 57.40 42.62
  Q 60.83 30.74 53.47 20.25
  Q 52.99 19.57 52.41 20.16
  Z"
/>
<path d="
  M 21.59 43.26
  C 19.45 39.09 17.74 35.44 22.84 32.37
  Q 33.71 25.82 44.36 16.95
  Q 45.11 16.33 45.42 17.25
  C 45.92 18.74 43.87 21.63 42.87 22.69
  Q 36.52 29.53 27.82 34.52
  Q 24.72 36.30 25.61 39.77
  C 26.54 43.39 27.95 51.63 25.41 54.43
  A 0.30 0.29 -28.2 0 1 24.90 54.28
  C 24.32 50.48 23.35 46.67 21.59 43.26
  Z"
/>
<path d="
  M 45.91 25.89
  L 46.02 27.08
  Q 46.24 29.44 44.90 31.40
  C 41.82 35.92 34.25 39.45 29.34 41.65
  A 1.00 0.99 -12.5 0 1 27.93 40.76
  Q 27.89 38.62 29.80 37.30
  Q 37.91 31.73 43.92 25.21
  Q 45.68 23.30 45.91 25.89
  Z"
/>
<path d="
  M 17.68 50.13
  L 20.32 47.27
  Q 21.02 46.52 21.02 47.54
  L 21.01 57.62
  A 0.63 0.63 0.0 0 1 20.38 58.25
  L 10.30 58.25
  A 0.39 0.39 0.0 0 1 10.02 57.58
  L 14.24 53.47
  A 0.70 0.69 -42.2 0 0 14.29 52.53
  Q 5.38 42.02 8.77 27.73
  A 1.80 1.80 0.0 0 1 10.68 26.35
  Q 11.41 26.42 11.91 27.02
  A 1.27 1.27 0.0 0 1 12.18 28.16
  C 10.25 36.04 11.65 43.61 16.67 50.08
  Q 17.15 50.70 17.68 50.13
  Z"
/>
<path d="
  M 44.08 38.68
  C 41.94 44.24 35.52 45.97 29.71 47.49
  A 0.76 0.76 0.0 0 1 28.83 47.08
  Q 28.34 46.04 28.56 44.98
  Q 28.67 44.47 29.15 44.26
  C 34.11 42.13 39.70 39.98 43.49 36.06
  Q 44.09 35.44 44.26 36.29
  Q 44.51 37.55 44.08 38.68
  Z"
/>
<path d="
  M 29.56 49.71
  C 32.41 49.14 34.95 48.01 37.50 46.69
  Q 38.27 46.29 37.82 47.03
  Q 34.82 52.00 29.32 52.74
  Q 28.51 52.84 28.49 52.03
  L 28.48 51.06
  A 1.36 1.35 -6.4 0 1 29.56 49.71
  Z"
/>
<path d="
  M 53.39 55.75
  A 0.64 0.63 -41.5 0 0 52.54 55.70
  Q 41.34 64.81 27.22 60.98
  Q 25.98 60.65 25.70 59.39
  Q 25.62 59.02 25.84 58.74
  Q 26.84 57.44 28.43 57.83
  Q 40.11 60.67 49.86 53.45
  Q 50.56 52.93 49.95 52.31
  L 46.98 49.32
  A 0.32 0.31 67.2 0 1 47.20 48.78
  L 57.75 48.78
  A 0.48 0.47 0.0 0 1 58.23 49.25
  L 58.23 59.92
  A 0.30 0.30 0.0 0 1 57.72 60.13
  L 53.39 55.75
  Z"
/>
</g>
</svg>
