<?xml version="1.0" encoding="UTF-8" standalone="no"?>
<!DOCTYPE svg PUBLIC "-//W3C//DTD SVG 1.1//EN" "http://www.w3.org/Graphics/SVG/1.1/DTD/svg11.dtd">
<svg xmlns="http://www.w3.org/2000/svg" version="1.1" viewBox="0.00 0.00 70.00 70.00">
<g stroke-width="2.00" fill="none" stroke-linecap="butt">
<path stroke="#575c63" vector-effect="non-scaling-stroke" d="
  M 41.78 23.95
  C 42.96 27.58 38.93 30.74 36.17 32.82
  Q 29.49 37.85 30.58 45.69
  Q 30.62 46.01 30.94 46.01
  L 37.89 45.99
  Q 38.12 45.99 38.09 45.75
  Q 37.50 41.39 40.80 38.62
  C 46.07 34.18 53.02 28.63 48.85 20.66
  C 44.99 13.30 35.44 11.34 27.83 14.07
  Q 20.78 16.59 19.04 24.30
  A 0.57 0.57 0.0 0 0 19.51 24.99
  L 26.21 26.01
  Q 26.63 26.07 26.76 25.66
  Q 28.93 18.20 36.27 19.12
  Q 40.38 19.64 41.78 23.95"
/>
<path stroke="#575c63" vector-effect="non-scaling-stroke" d="
  M 37.9965 49.3066
  A 0.30 0.30 0.0 0 0 37.6970 49.0060
  L 30.7970 48.9940
  A 0.30 0.30 0.0 0 0 30.4965 49.2935
  L 30.4835 56.6934
  A 0.30 0.30 0.0 0 0 30.7830 56.9940
  L 37.6830 57.0060
  A 0.30 0.30 0.0 0 0 37.9835 56.7065
  L 37.9965 49.3066"
/>
</g>
<path fill="#2f353e" d="
  M 0.00 0.00
  L 70.00 0.00
  L 70.00 70.00
  L 0.00 70.00
  L 0.00 0.00
  Z
  M 41.78 23.95
  C 42.96 27.58 38.93 30.74 36.17 32.82
  Q 29.49 37.85 30.58 45.69
  Q 30.62 46.01 30.94 46.01
  L 37.89 45.99
  Q 38.12 45.99 38.09 45.75
  Q 37.50 41.39 40.80 38.62
  C 46.07 34.18 53.02 28.63 48.85 20.66
  C 44.99 13.30 35.44 11.34 27.83 14.07
  Q 20.78 16.59 19.04 24.30
  A 0.57 0.57 0.0 0 0 19.51 24.99
  L 26.21 26.01
  Q 26.63 26.07 26.76 25.66
  Q 28.93 18.20 36.27 19.12
  Q 40.38 19.64 41.78 23.95
  Z
  M 37.9965 49.3066
  A 0.30 0.30 0.0 0 0 37.6970 49.0060
  L 30.7970 48.9940
  A 0.30 0.30 0.0 0 0 30.4965 49.2935
  L 30.4835 56.6934
  A 0.30 0.30 0.0 0 0 30.7830 56.9940
  L 37.6830 57.0060
  A 0.30 0.30 0.0 0 0 37.9835 56.7065
  L 37.9965 49.3066
  Z"
/>
<g fill="#7f8388">
<path d="
  M 36.17 32.82
  C 38.93 30.74 42.96 27.58 41.78 23.95
  Q 40.38 19.64 36.27 19.12
  Q 28.93 18.20 26.76 25.66
  Q 26.63 26.07 26.21 26.01
  L 19.51 24.99
  A 0.57 0.57 0.0 0 1 19.04 24.30
  Q 20.78 16.59 27.83 14.07
  C 35.44 11.34 44.99 13.30 48.85 20.66
  C 53.02 28.63 46.07 34.18 40.80 38.62
  Q 37.50 41.39 38.09 45.75
  Q 38.12 45.99 37.89 45.99
  L 30.94 46.01
  Q 30.62 46.01 30.58 45.69
  Q 29.49 37.85 36.17 32.82
  Z"
/>
<rect x="-3.75" y="-4.00" transform="translate(34.24,53.00) rotate(0.1)" width="7.50" height="8.00" rx="0.30"/>
</g>
</svg>
