<svg width="32" height="32" viewBox="0 0 32 32" fill="none" xmlns="http://www.w3.org/2000/svg">
<path d="M16.5349 15.0034C17.7966 14.0526 19.6389 12.608 19.0994 10.9486C18.6728 9.63503 17.8331 8.89903 16.5806 8.74056C14.3436 8.46018 12.8945 9.45675 12.2332 11.7303C12.1935 11.8552 12.1097 11.9086 11.9817 11.8903L8.91886 11.424C8.88346 11.4186 8.84954 11.406 8.81924 11.3869C8.78893 11.3678 8.76289 11.3427 8.74272 11.3131C8.72256 11.2835 8.70872 11.25 8.70206 11.2148C8.6954 11.1797 8.69606 11.1435 8.70401 11.1086C9.23429 8.75884 10.5737 7.19998 12.7223 6.43198C16.2011 5.18398 20.5669 6.07998 22.3314 9.44456C24.2377 13.088 21.0606 15.6251 18.6514 17.6548C17.6457 18.499 17.2328 19.5855 17.4126 20.9143C17.4217 20.9874 17.3912 21.024 17.3211 21.024L14.144 21.0331C14.0465 21.0331 13.9916 20.9844 13.9794 20.8868C13.6472 18.4975 14.4991 16.5364 16.5349 15.0034Z" fill="#7F8388"/>
<path d="M17.2328 22.4027L14.0785 22.3972C14.0028 22.3971 13.9413 22.4584 13.9412 22.5341L13.9353 25.917C13.9351 25.9927 13.9964 26.0542 14.0722 26.0543L17.2264 26.0599C17.3022 26.06 17.3637 25.9987 17.3638 25.923L17.3697 22.5401C17.3699 22.4644 17.3086 22.4028 17.2328 22.4027Z" fill="#7F8388"/>
</svg>
