<?xml version="1.0" encoding="UTF-8" standalone="no"?>
<!DOCTYPE svg PUBLIC "-//W3C//DTD SVG 1.1//EN" "http://www.w3.org/Graphics/SVG/1.1/DTD/svg11.dtd">
<svg xmlns="http://www.w3.org/2000/svg" version="1.1" viewBox="0.00 0.00 70.00 70.00">
<g stroke-width="2.00" fill="none" stroke-linecap="butt">
<path stroke="#575c63" vector-effect="non-scaling-stroke" d="
  M 62.68 36.04
  C 51.81 23.80 36.18 11.59 20.71 22.74
  Q 13.59 27.87 7.94 36.12
  Q 7.64 36.55 8.01 36.93
  C 15.78 44.93 29.11 54.26 40.77 51.10
  Q 52.06 48.04 62.66 37.02
  Q 63.13 36.54 62.68 36.04"
/>
<path stroke="#575c63" vector-effect="non-scaling-stroke" d="
  M 24.98 26.45
  Q 16.70 30.41 10.44 36.09
  Q 10.02 36.48 10.43 36.86
  Q 17.54 43.46 25.67 47.07
  C 33.02 50.32 39.34 49.94 46.35 46.04
  Q 52.97 42.35 57.89 36.98
  Q 58.27 36.57 57.86 36.19
  Q 50.78 29.60 42.80 26.04
  C 36.62 23.29 31.08 23.53 24.98 26.45"
/>
<path stroke="#575c63" vector-effect="non-scaling-stroke" d="
  M 43.35 36.01
  A 9.83 9.83 0.0 0 0 33.52 26.18
  A 9.83 9.83 0.0 0 0 23.69 36.01
  A 9.83 9.83 0.0 0 0 33.52 45.84
  A 9.83 9.83 0.0 0 0 43.35 36.01"
/>
<path stroke="#575c63" vector-effect="non-scaling-stroke" d="
  M 40.85 36.01
  C 40.87 31.18 36.72 28.11 32.04 28.72
  Q 31.14 28.83 31.87 29.38
  C 36.23 32.69 30.79 38.77 26.83 34.44
  Q 26.18 33.72 26.14 34.69
  C 25.72 45.97 40.83 45.85 40.85 36.01"
/>
</g>
<g fill="#2f353e">
<path d="
  M 0.00 0.00
  L 70.00 0.00
  L 70.00 70.00
  L 0.00 70.00
  L 0.00 0.00
  Z
  M 62.68 36.04
  C 51.81 23.80 36.18 11.59 20.71 22.74
  Q 13.59 27.87 7.94 36.12
  Q 7.64 36.55 8.01 36.93
  C 15.78 44.93 29.11 54.26 40.77 51.10
  Q 52.06 48.04 62.66 37.02
  Q 63.13 36.54 62.68 36.04
  Z"
/>
<path d="
  M 24.98 26.45
  C 31.08 23.53 36.62 23.29 42.80 26.04
  Q 50.78 29.60 57.86 36.19
  Q 58.27 36.57 57.89 36.98
  Q 52.97 42.35 46.35 46.04
  C 39.34 49.94 33.02 50.32 25.67 47.07
  Q 17.54 43.46 10.43 36.86
  Q 10.02 36.48 10.44 36.09
  Q 16.70 30.41 24.98 26.45
  Z
  M 43.35 36.01
  A 9.83 9.83 0.0 0 0 33.52 26.18
  A 9.83 9.83 0.0 0 0 23.69 36.01
  A 9.83 9.83 0.0 0 0 33.52 45.84
  A 9.83 9.83 0.0 0 0 43.35 36.01
  Z"
/>
<path d="
  M 40.85 36.01
  C 40.83 45.85 25.72 45.97 26.14 34.69
  Q 26.18 33.72 26.83 34.44
  C 30.79 38.77 36.23 32.69 31.87 29.38
  Q 31.14 28.83 32.04 28.72
  C 36.72 28.11 40.87 31.18 40.85 36.01
  Z"
/>
</g>
<g fill="#ffff94">
<path d="
  M 20.71 22.74
  C 36.18 11.59 51.81 23.80 62.68 36.04
  Q 63.13 36.54 62.66 37.02
  Q 52.06 48.04 40.77 51.10
  C 29.11 54.26 15.78 44.93 8.01 36.93
  Q 7.64 36.55 7.94 36.12
  Q 13.59 27.87 20.71 22.74
  Z
  M 24.98 26.45
  Q 16.70 30.41 10.44 36.09
  Q 10.02 36.48 10.43 36.86
  Q 17.54 43.46 25.67 47.07
  C 33.02 50.32 39.34 49.94 46.35 46.04
  Q 52.97 42.35 57.89 36.98
  Q 58.27 36.57 57.86 36.19
  Q 50.78 29.60 42.80 26.04
  C 36.62 23.29 31.08 23.53 24.98 26.45
  Z"
/>
<path d="
  M 43.35 36.01
  A 9.83 9.83 0.0 0 1 33.52 45.84
  A 9.83 9.83 0.0 0 1 23.69 36.01
  A 9.83 9.83 0.0 0 1 33.52 26.18
  A 9.83 9.83 0.0 0 1 43.35 36.01
  Z
  M 40.85 36.01
  C 40.87 31.18 36.72 28.11 32.04 28.72
  Q 31.14 28.83 31.87 29.38
  C 36.23 32.69 30.79 38.77 26.83 34.44
  Q 26.18 33.72 26.14 34.69
  C 25.72 45.97 40.83 45.85 40.85 36.01
  Z"
/>
</g>
</svg>
