<svg width="32" height="32" viewBox="0 0 32 32" fill="none" xmlns="http://www.w3.org/2000/svg">
<path d="M9.46748 10.3954C16.5395 5.29824 23.6846 10.88 28.6538 16.4754C28.7909 16.6278 28.7879 16.7771 28.6446 16.9234C25.4141 20.2819 22.0785 22.4274 18.6378 23.36C13.3075 24.8045 7.21377 20.5394 3.66177 16.8822C3.549 16.7664 3.53834 16.643 3.62977 16.512C5.35167 13.9977 7.29758 11.9588 9.46748 10.3954ZM11.4195 12.0914C8.89605 13.2982 6.68043 14.7672 4.77262 16.4982C4.64462 16.6171 4.6431 16.7344 4.76805 16.8502C6.93491 18.8617 9.25719 20.4175 11.7349 21.5177C15.0949 23.0034 17.9841 22.8297 21.1886 21.0468C23.2061 19.9222 24.9646 18.5417 26.4641 16.9051C26.5799 16.7801 26.5753 16.6598 26.4503 16.544C24.2926 14.5356 21.9978 12.9889 19.5658 11.904C16.7406 10.6468 14.2081 10.7565 11.4195 12.0914Z" fill="#FFFF94"/>
<path d="M19.8173 16.4617C19.8173 17.0519 19.701 17.6362 19.4752 18.1814C19.2494 18.7266 18.9184 19.222 18.5011 19.6393C18.0838 20.0565 17.5884 20.3876 17.0432 20.6134C16.498 20.8392 15.9137 20.9554 15.3235 20.9554C14.1317 20.9554 12.9887 20.482 12.146 19.6393C11.3033 18.7965 10.8298 17.6535 10.8298 16.4617C10.8298 15.2699 11.3033 14.1269 12.146 13.2842C12.9887 12.4415 14.1317 11.968 15.3235 11.968C16.5154 11.968 17.6583 12.4415 18.5011 13.2842C19.3438 14.1269 19.8173 15.2699 19.8173 16.4617ZM18.6744 16.4617C18.6835 14.2537 16.7864 12.8503 14.647 13.1292C14.3727 13.1627 14.3468 13.2633 14.5693 13.4309C16.5624 14.944 14.0755 17.7234 12.2653 15.744C12.0672 15.5246 11.962 15.5627 11.9498 15.8583C11.7578 21.0149 18.6653 20.96 18.6744 16.4617Z" fill="#FFFF94"/>
</svg>
