<svg width="32" height="32" viewBox="0 0 32 32" fill="none" xmlns="http://www.w3.org/2000/svg">
<path d="M11.5885 8.29262C10.3176 8.22405 8.39762 7.87662 8.37019 9.48576C8.35495 10.4275 8.34581 11.264 8.34276 11.9955C8.34276 12.2301 8.22543 12.346 7.99076 12.3429L6.88905 12.3383C6.65133 12.3353 6.52181 12.2149 6.50047 11.9772C6.37247 10.4046 6.26733 8.29719 7.62505 7.18633C8.65514 6.34214 9.95495 6.03281 11.5245 6.25833C11.6769 6.27966 11.7546 6.36652 11.7576 6.5189L11.7942 8.09147C11.7972 8.23166 11.7287 8.29871 11.5885 8.29262Z" fill="#FFFF94"/>
<path d="M20.6263 8.30176C20.5822 8.30498 20.5379 8.29891 20.4963 8.28392C20.4548 8.26894 20.4168 8.24538 20.3849 8.21478C20.353 8.18418 20.3279 8.14721 20.3112 8.10628C20.2945 8.06535 20.2866 8.02137 20.288 7.97719L20.3246 6.53262C20.3257 6.44162 20.3621 6.3546 20.426 6.28982C20.4899 6.22504 20.5765 6.18754 20.6674 6.18519C21.2099 6.173 21.7371 6.19585 22.2491 6.25376C25.5497 6.6149 25.824 9.13376 25.6183 11.9909C25.603 12.2164 25.4827 12.3261 25.2571 12.32L24.128 12.2835C23.936 12.2774 23.84 12.1768 23.84 11.9818C23.8461 11.2351 23.8522 10.4976 23.8583 9.76919C23.8674 7.84919 21.824 8.22862 20.6263 8.30176Z" fill="#FFFF94"/>
<path d="M3.52924 12.4525L8.05953 15.8857C8.07656 15.8985 8.09039 15.915 8.09991 15.9341C8.10943 15.9531 8.11439 15.9741 8.11439 15.9954C8.11439 16.0167 8.10943 16.0377 8.09991 16.0567C8.09039 16.0758 8.07656 16.0923 8.05953 16.1051L3.52924 19.5382C3.50918 19.5533 3.48536 19.5626 3.46039 19.5651C3.43542 19.5675 3.41025 19.5631 3.38762 19.5523C3.36499 19.5414 3.34577 19.5246 3.33205 19.5036C3.31833 19.4826 3.31064 19.4582 3.30981 19.4331V12.5577C3.31064 12.5326 3.31833 12.5082 3.33205 12.4872C3.34577 12.4662 3.36499 12.4494 3.38762 12.4385C3.41025 12.4277 3.43542 12.4232 3.46039 12.4257C3.48536 12.4282 3.50918 12.4375 3.52924 12.4525Z" fill="#FFFF94"/>
<path d="M28.4753 19.488L24.1051 16.1554C24.0839 16.1395 24.0666 16.119 24.0546 16.0954C24.0426 16.0718 24.0361 16.0458 24.0357 16.0194C24.0352 15.9929 24.0408 15.9667 24.0521 15.9427C24.0633 15.9188 24.0799 15.8977 24.1005 15.8811L28.4662 12.5348C28.4919 12.5153 28.5225 12.5033 28.5546 12.5002C28.5867 12.4971 28.6191 12.503 28.648 12.5172C28.677 12.5315 28.7014 12.5535 28.7185 12.5808C28.7357 12.6081 28.7448 12.6397 28.7451 12.672L28.7542 19.3508C28.754 19.3831 28.7448 19.4147 28.7277 19.442C28.7105 19.4693 28.6861 19.4913 28.6572 19.5056C28.6282 19.5198 28.5959 19.5257 28.5637 19.5226C28.5316 19.5195 28.501 19.5075 28.4753 19.488Z" fill="#FFFF94"/>
<path d="M16.0547 18.1212C17.2262 18.1212 18.1759 17.1715 18.1759 16C18.1759 14.8286 17.2262 13.8789 16.0547 13.8789C14.8833 13.8789 13.9336 14.8286 13.9336 16C13.9336 17.1715 14.8833 18.1212 16.0547 18.1212Z" fill="#FFFF94"/>
<path d="M23.3555 25.5177C22.685 25.7889 21.7783 25.8758 20.6355 25.7783C20.4404 25.763 20.3414 25.6579 20.3383 25.4628L20.3155 23.9131C20.3148 23.8781 20.3213 23.8434 20.3348 23.8111C20.3483 23.7788 20.3684 23.7496 20.3938 23.7255C20.4192 23.7014 20.4493 23.6829 20.4823 23.6711C20.5152 23.6593 20.5503 23.6546 20.5852 23.6571C21.2496 23.6998 21.9155 23.7166 22.5829 23.7074C24.0869 23.68 23.8583 21.9474 23.8309 20.9188C23.8303 20.8965 23.8341 20.8742 23.8422 20.8533C23.8502 20.8325 23.8623 20.8136 23.8778 20.7978C23.8932 20.782 23.9116 20.7695 23.9318 20.7613C23.952 20.753 23.9737 20.7491 23.9955 20.7497L25.4812 20.7908C25.5361 20.7939 25.5681 20.8228 25.5772 20.8777C25.9673 23.2061 25.2267 24.7528 23.3555 25.5177Z" fill="#FFFF94"/>
<path d="M8.4663 23.0492C8.53154 23.2492 8.65898 23.4231 8.83002 23.5457C9.00106 23.6682 9.20677 23.7329 9.41715 23.7303L11.4743 23.6983C11.712 23.6952 11.8248 23.8126 11.8126 24.0503L11.7486 25.5314C11.7472 25.5724 11.737 25.6127 11.7188 25.6495C11.7005 25.6863 11.6746 25.719 11.6427 25.7453C11.6108 25.7715 11.5736 25.7909 11.5336 25.8021C11.4936 25.8133 11.4515 25.8161 11.4103 25.8103C10.9166 25.7372 10.5554 25.9109 10.0572 25.8377C7.34173 25.4232 6.1623 23.773 6.51887 20.8869C6.52801 20.8107 6.5722 20.7741 6.65144 20.7772L8.29715 20.7909C8.35506 20.7939 8.37944 20.8229 8.3703 20.8777C8.25753 21.7798 8.28954 22.5036 8.4663 23.0492Z" fill="#FFFF94"/>
</svg>
