<?xml version="1.0" encoding="UTF-8" standalone="no"?>
<!DOCTYPE svg PUBLIC "-//W3C//DTD SVG 1.1//EN" "http://www.w3.org/Graphics/SVG/1.1/DTD/svg11.dtd">
<svg xmlns="http://www.w3.org/2000/svg" version="1.1" viewBox="0.00 0.00 70.00 70.00">
<g stroke-width="2.00" fill="none" stroke-linecap="butt">
<path stroke="#575c63" vector-effect="non-scaling-stroke" d="
  M 18.31 20.75
  C 18.37 17.23 22.57 17.99 25.35 18.14
  Q 25.81 18.16 25.80 17.70
  L 25.72 14.26
  Q 25.71 13.76 25.21 13.69
  Q 20.06 12.95 16.68 15.72
  C 13.71 18.15 13.94 22.76 14.22 26.20
  Q 14.29 26.98 15.07 26.99
  L 17.48 27.00
  Q 18.25 27.01 18.25 26.24
  Q 18.26 23.84 18.31 20.75"
/>
<path stroke="#575c63" vector-effect="non-scaling-stroke" d="
  M 45.12 18.16
  C 47.74 18.00 52.21 17.17 52.19 21.37
  Q 52.17 23.76 52.15 26.21
  Q 52.15 26.85 52.78 26.87
  L 55.25 26.95
  Q 55.99 26.97 56.04 26.23
  C 56.49 19.98 55.89 14.47 48.67 13.68
  Q 46.99 13.49 45.21 13.53
  A 0.77 0.77 0.0 0 0 44.46 14.29
  L 44.38 17.45
  A 0.69 0.69 0.0 0 0 45.12 18.16"
/>
<path stroke="#575c63" vector-effect="non-scaling-stroke" d="
  M 7.72 27.24
  A 0.30 0.30 0.0 0 0 7.24 27.47
  L 7.24 42.51
  A 0.30 0.30 0.0 0 0 7.72 42.74
  L 17.63 35.23
  A 0.30 0.30 0.0 0 0 17.63 34.75
  L 7.72 27.24"
/>
<path stroke="#575c63" vector-effect="non-scaling-stroke" d="
  M 62.29 42.63
  A 0.38 0.38 0.0 0 0 62.90 42.33
  L 62.88 27.72
  A 0.38 0.38 0.0 0 0 62.27 27.42
  L 52.72 34.74
  A 0.38 0.38 0.0 0 0 52.73 35.34
  L 62.29 42.63"
/>
<path stroke="#575c63" vector-effect="non-scaling-stroke" d="
  M 39.76 35.00
  A 4.64 4.64 0.0 0 0 35.12 30.36
  A 4.64 4.64 0.0 0 0 30.48 35.00
  A 4.64 4.64 0.0 0 0 35.12 39.64
  A 4.64 4.64 0.0 0 0 39.76 35.00"
/>
<path stroke="#575c63" vector-effect="non-scaling-stroke" d="
  M 51.09 55.82
  Q 57.23 53.31 55.95 45.67
  Q 55.92 45.49 55.74 45.48
  L 52.49 45.39
  A 0.36 0.35 90.0 0 0 52.13 45.76
  C 52.19 48.01 52.69 51.80 49.40 51.86
  Q 47.21 51.89 45.03 51.75
  A 0.55 0.55 0.0 0 0 44.44 52.31
  L 44.49 55.70
  Q 44.50 56.34 45.14 56.39
  Q 48.89 56.71 51.09 55.82"
/>
<path stroke="#575c63" vector-effect="non-scaling-stroke" d="
  M 18.52 50.42
  Q 17.94 48.63 18.31 45.67
  Q 18.34 45.49 18.15 45.48
  L 14.55 45.45
  Q 14.29 45.44 14.26 45.69
  Q 13.09 55.16 22.00 56.52
  C 23.09 56.68 23.88 56.30 24.96 56.46
  A 0.65 0.64 5.2 0 0 25.70 55.85
  L 25.84 52.61
  Q 25.88 51.83 25.10 51.84
  L 20.60 51.91
  A 2.16 2.16 0.0 0 1 18.52 50.42"
/>
</g>
<path fill="#2f353e" d="
  M 0.00 0.00
  L 70.00 0.00
  L 70.00 70.00
  L 0.00 70.00
  L 0.00 0.00
  Z
  M 18.31 20.75
  C 18.37 17.23 22.57 17.99 25.35 18.14
  Q 25.81 18.16 25.80 17.70
  L 25.72 14.26
  Q 25.71 13.76 25.21 13.69
  Q 20.06 12.95 16.68 15.72
  C 13.71 18.15 13.94 22.76 14.22 26.20
  Q 14.29 26.98 15.07 26.99
  L 17.48 27.00
  Q 18.25 27.01 18.25 26.24
  Q 18.26 23.84 18.31 20.75
  Z
  M 45.12 18.16
  C 47.74 18.00 52.21 17.17 52.19 21.37
  Q 52.17 23.76 52.15 26.21
  Q 52.15 26.85 52.78 26.87
  L 55.25 26.95
  Q 55.99 26.97 56.04 26.23
  C 56.49 19.98 55.89 14.47 48.67 13.68
  Q 46.99 13.49 45.21 13.53
  A 0.77 0.77 0.0 0 0 44.46 14.29
  L 44.38 17.45
  A 0.69 0.69 0.0 0 0 45.12 18.16
  Z
  M 7.72 27.24
  A 0.30 0.30 0.0 0 0 7.24 27.47
  L 7.24 42.51
  A 0.30 0.30 0.0 0 0 7.72 42.74
  L 17.63 35.23
  A 0.30 0.30 0.0 0 0 17.63 34.75
  L 7.72 27.24
  Z
  M 62.29 42.63
  A 0.38 0.38 0.0 0 0 62.90 42.33
  L 62.88 27.72
  A 0.38 0.38 0.0 0 0 62.27 27.42
  L 52.72 34.74
  A 0.38 0.38 0.0 0 0 52.73 35.34
  L 62.29 42.63
  Z
  M 39.76 35.00
  A 4.64 4.64 0.0 0 0 35.12 30.36
  A 4.64 4.64 0.0 0 0 30.48 35.00
  A 4.64 4.64 0.0 0 0 35.12 39.64
  A 4.64 4.64 0.0 0 0 39.76 35.00
  Z
  M 51.09 55.82
  Q 57.23 53.31 55.95 45.67
  Q 55.92 45.49 55.74 45.48
  L 52.49 45.39
  A 0.36 0.35 90.0 0 0 52.13 45.76
  C 52.19 48.01 52.69 51.80 49.40 51.86
  Q 47.21 51.89 45.03 51.75
  A 0.55 0.55 0.0 0 0 44.44 52.31
  L 44.49 55.70
  Q 44.50 56.34 45.14 56.39
  Q 48.89 56.71 51.09 55.82
  Z
  M 18.52 50.42
  Q 17.94 48.63 18.31 45.67
  Q 18.34 45.49 18.15 45.48
  L 14.55 45.45
  Q 14.29 45.44 14.26 45.69
  Q 13.09 55.16 22.00 56.52
  C 23.09 56.68 23.88 56.30 24.96 56.46
  A 0.65 0.64 5.2 0 0 25.70 55.85
  L 25.84 52.61
  Q 25.88 51.83 25.10 51.84
  L 20.60 51.91
  A 2.16 2.16 0.0 0 1 18.52 50.42
  Z"
/>
<g fill="#ffff94">
<path d="
  M 25.35 18.14
  C 22.57 17.99 18.37 17.23 18.31 20.75
  Q 18.26 23.84 18.25 26.24
  Q 18.25 27.01 17.48 27.00
  L 15.07 26.99
  Q 14.29 26.98 14.22 26.20
  C 13.94 22.76 13.71 18.15 16.68 15.72
  Q 20.06 12.95 25.21 13.69
  Q 25.71 13.76 25.72 14.26
  L 25.80 17.70
  Q 25.81 18.16 25.35 18.14
  Z"
/>
<path d="
  M 45.12 18.16
  A 0.69 0.69 0.0 0 1 44.38 17.45
  L 44.46 14.29
  A 0.77 0.77 0.0 0 1 45.21 13.53
  Q 46.99 13.49 48.67 13.68
  C 55.89 14.47 56.49 19.98 56.04 26.23
  Q 55.99 26.97 55.25 26.95
  L 52.78 26.87
  Q 52.15 26.85 52.15 26.21
  Q 52.17 23.76 52.19 21.37
  C 52.21 17.17 47.74 18.00 45.12 18.16
  Z"
/>
<path d="
  M 7.72 27.24
  L 17.63 34.75
  A 0.30 0.30 0.0 0 1 17.63 35.23
  L 7.72 42.74
  A 0.30 0.30 0.0 0 1 7.24 42.51
  L 7.24 27.47
  A 0.30 0.30 0.0 0 1 7.72 27.24
  Z"
/>
<path d="
  M 62.29 42.63
  L 52.73 35.34
  A 0.38 0.38 0.0 0 1 52.72 34.74
  L 62.27 27.42
  A 0.38 0.38 0.0 0 1 62.88 27.72
  L 62.90 42.33
  A 0.38 0.38 0.0 0 1 62.29 42.63
  Z"
/>
<circle cx="35.12" cy="35.00" r="4.64"/>
<path d="
  M 51.09 55.82
  Q 48.89 56.71 45.14 56.39
  Q 44.50 56.34 44.49 55.70
  L 44.44 52.31
  A 0.55 0.55 0.0 0 1 45.03 51.75
  Q 47.21 51.89 49.40 51.86
  C 52.69 51.80 52.19 48.01 52.13 45.76
  A 0.36 0.35 90.0 0 1 52.49 45.39
  L 55.74 45.48
  Q 55.92 45.49 55.95 45.67
  Q 57.23 53.31 51.09 55.82
  Z"
/>
<path d="
  M 18.52 50.42
  A 2.16 2.16 0.0 0 0 20.60 51.91
  L 25.10 51.84
  Q 25.88 51.83 25.84 52.61
  L 25.70 55.85
  A 0.65 0.64 5.2 0 1 24.96 56.46
  C 23.88 56.30 23.09 56.68 22.00 56.52
  Q 13.09 55.16 14.26 45.69
  Q 14.29 45.44 14.55 45.45
  L 18.15 45.48
  Q 18.34 45.49 18.31 45.67
  Q 17.94 48.63 18.52 50.42
  Z"
/>
</g>
</svg>
