<svg width="32" height="32" viewBox="0 0 32 32" fill="none" xmlns="http://www.w3.org/2000/svg">
<path d="M8.26061 8.50743L10.2583 10.464C10.4412 10.6438 10.4046 10.7322 10.1486 10.7291L5.34404 10.688C5.1368 10.685 5.03318 10.5798 5.03318 10.3726L5.01489 5.73258C5.01489 5.39429 5.13223 5.34858 5.36689 5.59543L6.61489 6.90286C6.65138 6.94151 6.69516 6.97254 6.74371 6.99416C6.79226 7.01579 6.84461 7.02758 6.89775 7.02886C6.95088 7.03013 7.00374 7.02087 7.05327 7.00159C7.1028 6.98232 7.14802 6.95343 7.18632 6.91658C9.21146 4.96001 11.5932 3.73943 14.5052 3.67086C16.9783 3.61143 19.4012 3.48343 21.6412 4.75429C26.5509 7.55201 29.1246 12.1737 28.4983 17.9749C28.4252 18.6697 28.1829 20.512 27.1132 20.2103C26.923 20.1568 26.7596 20.034 26.6548 19.8658C26.55 19.6977 26.5114 19.4962 26.5463 19.3006C26.7383 18.2354 26.9395 17.2023 26.8983 16.1097C26.6515 9.45372 21.8057 4.90058 15.2 5.14286C12.6492 5.23429 10.3391 6.20648 8.26975 8.05943C8.10823 8.20572 8.10518 8.35505 8.26061 8.50743Z" fill="#FFFF94"/>
<path d="M23.4516 9.11538C23.2458 11.0308 22.3498 12.9508 20.9784 14.2582C20.9112 14.3227 20.8214 14.3583 20.7283 14.3574C20.6352 14.3566 20.5461 14.3193 20.4801 14.2537L17.8653 11.6388C17.8126 11.5862 17.7713 11.5235 17.7436 11.4543C17.7159 11.3851 17.7025 11.311 17.7042 11.2363C17.706 11.1616 17.7227 11.0879 17.7535 11.0196C17.7843 10.9513 17.8286 10.8898 17.8836 10.8388C19.2733 9.5649 20.9312 8.7969 22.8573 8.5348C22.9362 8.52391 23.0166 8.53125 23.0923 8.55629C23.168 8.58132 23.2371 8.62339 23.2944 8.67932C23.3516 8.73524 23.3955 8.80356 23.4227 8.8791C23.45 8.95464 23.4598 9.03544 23.4516 9.11538Z" fill="#FFFF94"/>
<path d="M19.793 14.6093L17.3602 12.1934C17.027 11.8625 16.4886 11.8644 16.1577 12.1976L9.77975 18.6202C9.44885 18.9534 9.45073 19.4918 9.78395 19.8227L12.2168 22.2386C12.55 22.5695 13.0883 22.5676 13.4192 22.2344L19.7972 15.8117C20.1281 15.4785 20.1262 14.9402 19.793 14.6093Z" fill="#FFFF94"/>
<path d="M24.0273 25.8652C23.3782 26.3497 22.7702 26.8709 22.0479 27.2457C16.329 30.2172 9.37589 28.7863 5.61817 23.648C3.39036 20.6004 2.70465 16.992 3.56103 12.8229C3.67379 12.2743 4.00903 12.0275 4.56674 12.0823C4.77093 12.1036 4.94465 12.1996 5.08789 12.3703C5.14466 12.437 5.18501 12.5156 5.20566 12.5998C5.22632 12.684 5.22669 12.7714 5.20674 12.8549C4.17055 17.3928 5.21132 21.1764 8.32903 24.2057C12.3062 28.0686 18.537 28.1235 22.8982 24.7177C22.9335 24.6902 22.9624 24.6554 22.9831 24.6157C23.0037 24.576 23.0155 24.5323 23.0177 24.4876C23.0198 24.4428 23.0123 24.3982 22.9956 24.3567C22.979 24.3151 22.9535 24.2777 22.921 24.2469L21.4765 22.8755C21.4522 22.8514 21.4355 22.8208 21.4286 22.7874C21.4216 22.7539 21.4247 22.7192 21.4374 22.6875C21.4501 22.6558 21.4718 22.6285 21.4999 22.6091C21.528 22.5897 21.5612 22.579 21.5953 22.5783L26.4867 22.5737C26.6574 22.5737 26.7427 22.6591 26.7427 22.8297L26.7519 27.6755C26.7519 27.9619 26.6513 28.0031 26.4502 27.7989L24.5576 25.9017C24.39 25.7341 24.2132 25.7219 24.0273 25.8652Z" fill="#FFFF94"/>
<path d="M11.6984 23.7623L11.7898 23.8903C11.866 23.9909 11.8767 24.0991 11.8218 24.2149C11.7121 24.4465 11.549 24.6187 11.3327 24.7315C11.1864 24.8046 11.0553 24.7833 10.9395 24.6675C9.76313 23.4728 8.63704 22.3574 7.56123 21.3212C7.16809 20.9433 7.1879 20.5608 7.62066 20.1738C7.74866 20.058 7.88275 20.0488 8.02294 20.1463L8.18294 20.2606C8.35361 20.3764 8.53647 20.4008 8.73152 20.3338C8.89304 20.2759 9.05456 20.2606 9.21609 20.2881C9.38371 20.3185 9.5239 20.4008 9.63666 20.5349C10.2279 21.242 10.8542 21.8911 11.5155 22.4823C11.6191 22.5738 11.6847 22.6896 11.7121 22.8298C11.7395 22.97 11.7197 23.1056 11.6527 23.2366C11.5612 23.4195 11.5765 23.5947 11.6984 23.7623Z" fill="#FFFF94"/>
</svg>
