<?xml version="1.0" encoding="UTF-8" standalone="no"?>
<!DOCTYPE svg PUBLIC "-//W3C//DTD SVG 1.1//EN" "http://www.w3.org/Graphics/SVG/1.1/DTD/svg11.dtd">
<svg xmlns="http://www.w3.org/2000/svg" version="1.1" viewBox="0.00 0.00 70.00 70.00">
<g stroke-width="2.00" fill="none" stroke-linecap="butt">
<path stroke="#575c63" vector-effect="non-scaling-stroke" d="
  M 58.15 14.97
  A 1.06 1.06 0.0 0 0 58.77 15.27
  L 61.14 15.56
  A 1.06 1.06 0.0 0 0 62.02 13.76
  L 55.90 7.60
  A 1.06 1.06 0.0 0 0 54.10 8.47
  L 54.38 10.87
  A 1.06 1.06 0.0 0 0 54.68 11.50
  L 58.15 14.97"
/>
<path stroke="#575c63" vector-effect="non-scaling-stroke" d="
  M 57.7642 18.4350
  A 1.53 1.53 0.0 0 0 57.7529 16.2713
  L 53.3033 11.8681
  A 1.53 1.53 0.0 0 0 51.1396 11.8794
  L 39.5758 23.5650
  A 1.53 1.53 0.0 0 0 39.5871 25.7287
  L 44.0367 30.1319
  A 1.53 1.53 0.0 0 0 46.2004 30.1206
  L 57.7642 18.4350"
/>
<path stroke="#575c63" vector-effect="non-scaling-stroke" d="
  M 51.27 30.74
  C 54.90 41.77 49.63 54.25 38.47 58.22
  C 25.39 62.87 12.05 53.28 10.83 39.78
  C 9.42 24.34 24.71 11.38 39.65 18.08
  Q 40.25 18.35 40.74 17.91
  L 42.25 16.54
  Q 42.95 15.90 42.12 15.45
  C 32.82 10.43 21.44 13.20 14.45 20.57
  Q 7.25 28.17 7.60 38.45
  Q 8.14 53.99 22.34 60.75
  C 27.78 63.34 35.15 63.16 40.88 60.90
  C 48.17 58.01 53.88 50.96 55.58 43.49
  Q 57.32 35.87 54.07 28.12
  Q 53.65 27.10 52.81 27.83
  L 51.81 28.72
  A 1.89 1.89 0.0 0 0 51.27 30.74"
/>
<path stroke="#575c63" vector-effect="non-scaling-stroke" d="
  M 34.18 50.76
  C 26.25 52.32 19.27 46.46 18.93 38.63
  Q 18.53 29.46 27.21 25.43
  C 29.11 24.55 31.26 24.71 33.32 24.74
  Q 34.89 24.76 35.89 23.56
  L 36.26 23.12
  Q 37.17 22.02 35.76 21.76
  Q 24.94 19.82 18.90 27.93
  C 11.95 37.24 16.74 51.86 28.58 54.10
  Q 33.96 55.12 38.35 52.94
  Q 49.67 47.33 47.61 34.31
  Q 47.32 32.50 45.97 33.73
  L 45.42 34.22
  Q 44.27 35.27 44.36 36.82
  C 44.72 43.47 40.87 49.45 34.18 50.76"
/>
<path stroke="#575c63" vector-effect="non-scaling-stroke" d="
  M 43.38 31.47
  L 38.22 26.28
  A 0.27 0.27 0.0 0 0 37.84 26.28
  L 37.72 26.39
  A 10.05 3.75 -44.8 0 0 33.24 36.13
  L 33.49 36.39
  A 10.05 3.75 -44.8 0 0 43.26 31.97
  L 43.38 31.86
  A 0.27 0.27 0.0 0 0 43.38 31.47"
/>
<path stroke="#575c63" vector-effect="non-scaling-stroke" d="
  M 33.61 42.21
  C 28.58 43.72 24.86 37.59 28.80 34.36
  Q 30.52 32.95 30.92 30.48
  A 0.46 0.46 0.0 0 0 30.33 29.97
  C 23.67 31.92 21.46 39.54 26.83 44.12
  C 31.80 48.36 37.87 44.84 39.54 39.28
  A 0.40 0.40 0.0 0 0 39.11 38.76
  Q 36.20 39.06 34.62 41.46
  A 1.85 1.83 -81.4 0 1 33.61 42.21"
/>
</g>
<path fill="#2f353e" d="
  M 0.00 0.00
  L 70.00 0.00
  L 70.00 70.00
  L 0.00 70.00
  L 0.00 0.00
  Z
  M 58.15 14.97
  A 1.06 1.06 0.0 0 0 58.77 15.27
  L 61.14 15.56
  A 1.06 1.06 0.0 0 0 62.02 13.76
  L 55.90 7.60
  A 1.06 1.06 0.0 0 0 54.10 8.47
  L 54.38 10.87
  A 1.06 1.06 0.0 0 0 54.68 11.50
  L 58.15 14.97
  Z
  M 57.7642 18.4350
  A 1.53 1.53 0.0 0 0 57.7529 16.2713
  L 53.3033 11.8681
  A 1.53 1.53 0.0 0 0 51.1396 11.8794
  L 39.5758 23.5650
  A 1.53 1.53 0.0 0 0 39.5871 25.7287
  L 44.0367 30.1319
  A 1.53 1.53 0.0 0 0 46.2004 30.1206
  L 57.7642 18.4350
  Z
  M 51.27 30.74
  C 54.90 41.77 49.63 54.25 38.47 58.22
  C 25.39 62.87 12.05 53.28 10.83 39.78
  C 9.42 24.34 24.71 11.38 39.65 18.08
  Q 40.25 18.35 40.74 17.91
  L 42.25 16.54
  Q 42.95 15.90 42.12 15.45
  C 32.82 10.43 21.44 13.20 14.45 20.57
  Q 7.25 28.17 7.60 38.45
  Q 8.14 53.99 22.34 60.75
  C 27.78 63.34 35.15 63.16 40.88 60.90
  C 48.17 58.01 53.88 50.96 55.58 43.49
  Q 57.32 35.87 54.07 28.12
  Q 53.65 27.10 52.81 27.83
  L 51.81 28.72
  A 1.89 1.89 0.0 0 0 51.27 30.74
  Z
  M 34.18 50.76
  C 26.25 52.32 19.27 46.46 18.93 38.63
  Q 18.53 29.46 27.21 25.43
  C 29.11 24.55 31.26 24.71 33.32 24.74
  Q 34.89 24.76 35.89 23.56
  L 36.26 23.12
  Q 37.17 22.02 35.76 21.76
  Q 24.94 19.82 18.90 27.93
  C 11.95 37.24 16.74 51.86 28.58 54.10
  Q 33.96 55.12 38.35 52.94
  Q 49.67 47.33 47.61 34.31
  Q 47.32 32.50 45.97 33.73
  L 45.42 34.22
  Q 44.27 35.27 44.36 36.82
  C 44.72 43.47 40.87 49.45 34.18 50.76
  Z
  M 43.38 31.47
  L 38.22 26.28
  A 0.27 0.27 0.0 0 0 37.84 26.28
  L 37.72 26.39
  A 10.05 3.75 -44.8 0 0 33.24 36.13
  L 33.49 36.39
  A 10.05 3.75 -44.8 0 0 43.26 31.97
  L 43.38 31.86
  A 0.27 0.27 0.0 0 0 43.38 31.47
  Z
  M 33.61 42.21
  C 28.58 43.72 24.86 37.59 28.80 34.36
  Q 30.52 32.95 30.92 30.48
  A 0.46 0.46 0.0 0 0 30.33 29.97
  C 23.67 31.92 21.46 39.54 26.83 44.12
  C 31.80 48.36 37.87 44.84 39.54 39.28
  A 0.40 0.40 0.0 0 0 39.11 38.76
  Q 36.20 39.06 34.62 41.46
  A 1.85 1.83 -81.4 0 1 33.61 42.21
  Z"
/>
<g fill="#ffff94">
<path d="
  M 58.15 14.97
  L 54.68 11.50
  A 1.06 1.06 0.0 0 1 54.38 10.87
  L 54.10 8.47
  A 1.06 1.06 0.0 0 1 55.90 7.60
  L 62.02 13.76
  A 1.06 1.06 0.0 0 1 61.14 15.56
  L 58.77 15.27
  A 1.06 1.06 0.0 0 1 58.15 14.97
  Z"
/>
<rect x="-4.66" y="-9.75" transform="translate(48.67,21.00) rotate(44.7)" width="9.32" height="19.50" rx="1.53"/>
<path d="
  M 38.47 58.22
  C 49.63 54.25 54.90 41.77 51.27 30.74
  A 1.89 1.89 0.0 0 1 51.81 28.72
  L 52.81 27.83
  Q 53.65 27.10 54.07 28.12
  Q 57.32 35.87 55.58 43.49
  C 53.88 50.96 48.17 58.01 40.88 60.90
  C 35.15 63.16 27.78 63.34 22.34 60.75
  Q 8.14 53.99 7.60 38.45
  Q 7.25 28.17 14.45 20.57
  C 21.44 13.20 32.82 10.43 42.12 15.45
  Q 42.95 15.90 42.25 16.54
  L 40.74 17.91
  Q 40.25 18.35 39.65 18.08
  C 24.71 11.38 9.42 24.34 10.83 39.78
  C 12.05 53.28 25.39 62.87 38.47 58.22
  Z"
/>
<path d="
  M 34.18 50.76
  C 40.87 49.45 44.72 43.47 44.36 36.82
  Q 44.27 35.27 45.42 34.22
  L 45.97 33.73
  Q 47.32 32.50 47.61 34.31
  Q 49.67 47.33 38.35 52.94
  Q 33.96 55.12 28.58 54.10
  C 16.74 51.86 11.95 37.24 18.90 27.93
  Q 24.94 19.82 35.76 21.76
  Q 37.17 22.02 36.26 23.12
  L 35.89 23.56
  Q 34.89 24.76 33.32 24.74
  C 31.26 24.71 29.11 24.55 27.21 25.43
  Q 18.53 29.46 18.93 38.63
  C 19.27 46.46 26.25 52.32 34.18 50.76
  Z"
/>
<path d="
  M 43.38 31.47
  A 0.27 0.27 0.0 0 1 43.38 31.86
  L 43.26 31.97
  A 10.05 3.75 -44.8 0 1 33.49 36.39
  L 33.24 36.13
  A 10.05 3.75 -44.8 0 1 37.72 26.39
  L 37.84 26.28
  A 0.27 0.27 0.0 0 1 38.22 26.28
  L 43.38 31.47
  Z"
/>
<path d="
  M 34.62 41.46
  Q 36.20 39.06 39.11 38.76
  A 0.40 0.40 0.0 0 1 39.54 39.28
  C 37.87 44.84 31.80 48.36 26.83 44.12
  C 21.46 39.54 23.67 31.92 30.33 29.97
  A 0.46 0.46 0.0 0 1 30.92 30.48
  Q 30.52 32.95 28.80 34.36
  C 24.86 37.59 28.58 43.72 33.61 42.21
  A 1.85 1.83 -81.4 0 0 34.62 41.46
  Z"
/>
</g>
</svg>
