<?xml version="1.0" encoding="UTF-8" standalone="no"?>
<!DOCTYPE svg PUBLIC "-//W3C//DTD SVG 1.1//EN" "http://www.w3.org/Graphics/SVG/1.1/DTD/svg11.dtd">
<svg xmlns="http://www.w3.org/2000/svg" version="1.1" viewBox="0.00 0.00 70.00 70.00">
<g stroke-width="2.00" fill="none" stroke-linecap="butt">
<path stroke="#575c63" vector-effect="non-scaling-stroke" d="
  M 18.09 17.63
  Q 24.88 11.55 33.25 11.25
  C 47.70 10.72 58.30 20.68 58.84 35.24
  C 58.93 37.63 58.49 39.89 58.07 42.22
  A 1.75 1.74 -77.0 0 0 59.31 44.21
  C 61.65 44.87 62.18 40.84 62.34 39.32
  C 63.71 26.63 58.08 16.52 47.34 10.40
  C 42.44 7.62 37.14 7.90 31.73 8.03
  C 25.36 8.18 20.15 10.85 15.72 15.13
  A 0.88 0.88 0.0 0 1 14.47 15.10
  L 11.74 12.24
  Q 10.97 11.43 10.97 12.54
  L 11.01 22.69
  Q 11.01 23.37 11.69 23.38
  L 22.20 23.47
  Q 23.04 23.48 22.44 22.89
  L 18.07 18.61
  Q 17.56 18.11 18.09 17.63"
/>
<path stroke="#575c63" vector-effect="non-scaling-stroke" d="
  M 45.89 31.19
  C 48.89 28.33 50.85 24.13 51.30 19.94
  A 1.16 1.15 89.2 0 0 50.00 18.67
  Q 43.68 19.53 39.12 23.71
  A 1.22 1.21 -43.9 0 0 39.08 25.46
  L 44.80 31.18
  A 0.78 0.78 0.0 0 0 45.89 31.19"
/>
<path stroke="#575c63" vector-effect="non-scaling-stroke" d="
  M 43.3066 34.5882
  A 1.86 1.86 0.0 0 0 43.2974 31.9578
  L 37.9756 26.6731
  A 1.86 1.86 0.0 0 0 35.3452 26.6823
  L 21.3934 40.7318
  A 1.86 1.86 0.0 0 0 21.4026 43.3622
  L 26.7244 48.6469
  A 1.86 1.86 0.0 0 0 29.3548 48.6377
  L 43.3066 34.5882"
/>
<path stroke="#575c63" vector-effect="non-scaling-stroke" d="
  M 53.72 56.66
  L 57.86 60.81
  Q 58.52 61.48 58.52 60.54
  L 58.50 49.94
  Q 58.50 49.38 57.94 49.38
  L 47.24 49.39
  A 0.38 0.38 0.0 0 0 46.98 50.04
  L 50.14 53.04
  A 0.68 0.68 0.0 0 1 50.09 54.07
  C 40.55 61.52 26.92 61.40 18.22 52.95
  Q 7.99 43.01 11.39 28.12
  A 1.22 1.19 31.8 0 0 11.13 27.06
  Q 10.66 26.50 9.99 26.43
  Q 8.16 26.25 7.79 28.05
  Q 4.98 41.73 12.29 51.73
  C 20.51 62.97 35.72 66.10 48.23 59.60
  C 49.81 58.78 51.14 57.64 52.56 56.58
  Q 53.17 56.11 53.72 56.66"
/>
<path stroke="#575c63" vector-effect="non-scaling-stroke" d="
  M 25.49 50.83
  Q 25.71 50.40 25.62 49.94
  Q 25.53 49.48 25.19 49.18
  Q 23.02 47.24 21.08 44.92
  Q 20.71 44.48 20.16 44.38
  Q 19.63 44.29 19.10 44.48
  Q 18.46 44.70 17.90 44.32
  L 17.55 44.07
  Q 17.09 43.75 16.67 44.13
  Q 15.25 45.40 16.54 46.64
  Q 20.07 50.04 23.93 53.96
  Q 24.31 54.34 24.79 54.10
  Q 25.50 53.73 25.86 52.97
  Q 26.04 52.59 25.79 52.26
  L 25.59 51.98
  Q 25.19 51.43 25.49 50.83"
/>
</g>
<path fill="#2f353e" d="
  M 0.00 0.00
  L 70.00 0.00
  L 70.00 70.00
  L 0.00 70.00
  L 0.00 0.00
  Z
  M 18.09 17.63
  Q 24.88 11.55 33.25 11.25
  C 47.70 10.72 58.30 20.68 58.84 35.24
  C 58.93 37.63 58.49 39.89 58.07 42.22
  A 1.75 1.74 -77.0 0 0 59.31 44.21
  C 61.65 44.87 62.18 40.84 62.34 39.32
  C 63.71 26.63 58.08 16.52 47.34 10.40
  C 42.44 7.62 37.14 7.90 31.73 8.03
  C 25.36 8.18 20.15 10.85 15.72 15.13
  A 0.88 0.88 0.0 0 1 14.47 15.10
  L 11.74 12.24
  Q 10.97 11.43 10.97 12.54
  L 11.01 22.69
  Q 11.01 23.37 11.69 23.38
  L 22.20 23.47
  Q 23.04 23.48 22.44 22.89
  L 18.07 18.61
  Q 17.56 18.11 18.09 17.63
  Z
  M 45.89 31.19
  C 48.89 28.33 50.85 24.13 51.30 19.94
  A 1.16 1.15 89.2 0 0 50.00 18.67
  Q 43.68 19.53 39.12 23.71
  A 1.22 1.21 -43.9 0 0 39.08 25.46
  L 44.80 31.18
  A 0.78 0.78 0.0 0 0 45.89 31.19
  Z
  M 43.3066 34.5882
  A 1.86 1.86 0.0 0 0 43.2974 31.9578
  L 37.9756 26.6731
  A 1.86 1.86 0.0 0 0 35.3452 26.6823
  L 21.3934 40.7318
  A 1.86 1.86 0.0 0 0 21.4026 43.3622
  L 26.7244 48.6469
  A 1.86 1.86 0.0 0 0 29.3548 48.6377
  L 43.3066 34.5882
  Z
  M 53.72 56.66
  L 57.86 60.81
  Q 58.52 61.48 58.52 60.54
  L 58.50 49.94
  Q 58.50 49.38 57.94 49.38
  L 47.24 49.39
  A 0.38 0.38 0.0 0 0 46.98 50.04
  L 50.14 53.04
  A 0.68 0.68 0.0 0 1 50.09 54.07
  C 40.55 61.52 26.92 61.40 18.22 52.95
  Q 7.99 43.01 11.39 28.12
  A 1.22 1.19 31.8 0 0 11.13 27.06
  Q 10.66 26.50 9.99 26.43
  Q 8.16 26.25 7.79 28.05
  Q 4.98 41.73 12.29 51.73
  C 20.51 62.97 35.72 66.10 48.23 59.60
  C 49.81 58.78 51.14 57.64 52.56 56.58
  Q 53.17 56.11 53.72 56.66
  Z
  M 25.49 50.83
  Q 25.71 50.40 25.62 49.94
  Q 25.53 49.48 25.19 49.18
  Q 23.02 47.24 21.08 44.92
  Q 20.71 44.48 20.16 44.38
  Q 19.63 44.29 19.10 44.48
  Q 18.46 44.70 17.90 44.32
  L 17.55 44.07
  Q 17.09 43.75 16.67 44.13
  Q 15.25 45.40 16.54 46.64
  Q 20.07 50.04 23.93 53.96
  Q 24.31 54.34 24.79 54.10
  Q 25.50 53.73 25.86 52.97
  Q 26.04 52.59 25.79 52.26
  L 25.59 51.98
  Q 25.19 51.43 25.49 50.83
  Z"
/>
<g fill="#ffff94">
<path d="
  M 18.07 18.61
  L 22.44 22.89
  Q 23.04 23.48 22.20 23.47
  L 11.69 23.38
  Q 11.01 23.37 11.01 22.69
  L 10.97 12.54
  Q 10.97 11.43 11.74 12.24
  L 14.47 15.10
  A 0.88 0.88 0.0 0 0 15.72 15.13
  C 20.15 10.85 25.36 8.18 31.73 8.03
  C 37.14 7.90 42.44 7.62 47.34 10.40
  C 58.08 16.52 63.71 26.63 62.34 39.32
  C 62.18 40.84 61.65 44.87 59.31 44.21
  A 1.75 1.74 -77.0 0 1 58.07 42.22
  C 58.49 39.89 58.93 37.63 58.84 35.24
  C 58.30 20.68 47.70 10.72 33.25 11.25
  Q 24.88 11.55 18.09 17.63
  Q 17.56 18.11 18.07 18.61
  Z"
/>
<path d="
  M 51.30 19.94
  C 50.85 24.13 48.89 28.33 45.89 31.19
  A 0.78 0.78 0.0 0 1 44.80 31.18
  L 39.08 25.46
  A 1.22 1.21 -43.9 0 1 39.12 23.71
  Q 43.68 19.53 50.00 18.67
  A 1.16 1.15 89.2 0 1 51.30 19.94
  Z"
/>
<rect x="-5.61" y="-11.76" transform="translate(32.35,37.66) rotate(44.8)" width="11.22" height="23.52" rx="1.86"/>
<path d="
  M 52.56 56.58
  C 51.14 57.64 49.81 58.78 48.23 59.60
  C 35.72 66.10 20.51 62.97 12.29 51.73
  Q 4.98 41.73 7.79 28.05
  Q 8.16 26.25 9.99 26.43
  Q 10.66 26.50 11.13 27.06
  A 1.22 1.19 31.8 0 1 11.39 28.12
  Q 7.99 43.01 18.22 52.95
  C 26.92 61.40 40.55 61.52 50.09 54.07
  A 0.68 0.68 0.0 0 0 50.14 53.04
  L 46.98 50.04
  A 0.38 0.38 0.0 0 1 47.24 49.39
  L 57.94 49.38
  Q 58.50 49.38 58.50 49.94
  L 58.52 60.54
  Q 58.52 61.48 57.86 60.81
  L 53.72 56.66
  Q 53.17 56.11 52.56 56.58
  Z"
/>
<path d="
  M 25.59 51.98
  L 25.79 52.26
  Q 26.04 52.59 25.86 52.97
  Q 25.50 53.73 24.79 54.10
  Q 24.31 54.34 23.93 53.96
  Q 20.07 50.04 16.54 46.64
  Q 15.25 45.40 16.67 44.13
  Q 17.09 43.75 17.55 44.07
  L 17.90 44.32
  Q 18.46 44.70 19.10 44.48
  Q 19.63 44.29 20.16 44.38
  Q 20.71 44.48 21.08 44.92
  Q 23.02 47.24 25.19 49.18
  Q 25.53 49.48 25.62 49.94
  Q 25.71 50.40 25.49 50.83
  Q 25.19 51.43 25.59 51.98
  Z"
/>
</g>
</svg>
