<svg width="32" height="32" viewBox="0 0 32 32" fill="none" xmlns="http://www.w3.org/2000/svg">
<path d="M26.5829 6.84344L24.9966 5.25716C24.9197 5.17939 24.8714 5.07788 24.8595 4.96916L24.7315 3.87202C24.7204 3.77237 24.7405 3.67173 24.7889 3.58398C24.8374 3.49622 24.9119 3.42566 25.0022 3.38203C25.0925 3.3384 25.1941 3.32384 25.293 3.34037C25.3919 3.35689 25.4832 3.40369 25.5544 3.4743L28.3521 6.2903C28.4232 6.36172 28.4702 6.45353 28.4867 6.55296C28.5032 6.65238 28.4883 6.75447 28.444 6.84501C28.3997 6.93554 28.3283 7.01003 28.2398 7.05809C28.1512 7.10615 28.0498 7.1254 27.9498 7.11316L26.8664 6.98059C26.7593 6.9677 26.6595 6.91943 26.5829 6.84344Z" fill="#FFFF94"/>
<path d="M26.4014 7.43836L24.3673 5.42545C24.0927 5.15374 23.6499 5.15605 23.3781 5.43063L18.0918 10.7726C17.8201 11.0472 17.8224 11.49 18.097 11.7617L20.1311 13.7746C20.4057 14.0463 20.8485 14.044 21.1202 13.7695L26.4066 8.42749C26.6783 8.15292 26.6759 7.71007 26.4014 7.43836Z" fill="#FFFF94"/>
<path d="M17.5862 26.6149C22.6879 24.8001 25.0971 19.0949 23.4376 14.0526C23.3834 13.8915 23.3778 13.7179 23.4217 13.5537C23.4657 13.3894 23.5571 13.2417 23.6845 13.1292L24.1416 12.7223C24.3976 12.4999 24.5896 12.5441 24.7176 12.8549C25.7081 15.2168 25.9382 17.5589 25.4079 19.8812C24.6308 23.2961 22.0205 26.5189 18.6879 27.8401C16.0685 28.8732 12.6994 28.9555 10.2125 27.7715C5.88488 25.7113 3.63879 22.3132 3.47421 17.5772C3.36755 14.4442 4.41136 11.7197 6.60564 9.40348C9.80107 6.03434 15.0034 4.76805 19.2548 7.06291C19.5077 7.20005 19.5275 7.36615 19.3142 7.5612L18.6239 8.18748C18.4746 8.32158 18.3085 8.34748 18.1256 8.2652C11.2959 5.20234 4.30621 11.1269 4.95079 18.1852C5.5085 24.3566 11.6068 28.7406 17.5862 26.6149Z" fill="#FFFF94"/>
<path d="M15.6252 23.2046C18.6835 22.6057 20.4435 19.872 20.2789 16.832C20.2515 16.3596 20.413 15.9634 20.7635 15.6434L21.0149 15.4194C21.4263 15.0446 21.6762 15.133 21.7646 15.6846C22.3924 19.6526 20.9814 22.4914 17.5315 24.2012C16.1936 24.8655 14.7048 25.0423 13.0652 24.7314C7.65263 23.7074 5.46292 17.024 8.64006 12.768C10.4808 10.2964 13.05 9.3562 16.3475 9.94744C16.7772 10.0267 16.8534 10.2339 16.5761 10.5692L16.4069 10.7703C16.1022 11.136 15.7105 11.3158 15.2321 11.3097C14.2903 11.296 13.3075 11.2229 12.4389 11.6252C9.79358 12.8533 8.53187 14.8648 8.65377 17.6594C8.8092 21.2389 12.0001 23.9177 15.6252 23.2046Z" fill="#FFFF94"/>
<path d="M19.8308 14.3863C19.8428 14.3979 19.8524 14.4117 19.8589 14.427C19.8654 14.4423 19.8688 14.4588 19.8688 14.4755C19.8688 14.4921 19.8654 14.5086 19.8589 14.5239C19.8524 14.5393 19.8428 14.5531 19.8308 14.5646L19.7759 14.6149C18.9117 15.4729 17.9558 16.1677 17.1183 16.5466C16.2808 16.9255 15.6303 16.9574 15.3096 16.6355L15.1953 16.5166C15.0362 16.3573 14.9629 16.1158 14.9796 15.8058C14.9964 15.4958 15.103 15.1235 15.2931 14.71C15.4833 14.2965 15.7534 13.85 16.0881 13.396C16.4227 12.942 16.8152 12.4894 17.2433 12.064L17.2982 12.0138C17.3213 11.9909 17.3525 11.978 17.385 11.978C17.4176 11.978 17.4488 11.9909 17.4719 12.0138L19.8308 14.3863Z" fill="#FFFF94"/>
<path d="M15.8262 18.9532C16.3077 18.2217 16.9919 17.8103 17.8788 17.7189C17.9093 17.7151 17.9403 17.719 17.9689 17.7304C17.9974 17.7417 18.0227 17.7601 18.0423 17.7838C18.0619 17.8075 18.0752 17.8358 18.081 17.866C18.0867 17.8962 18.0848 17.9273 18.0754 17.9566C17.3119 20.4983 14.5371 22.1075 12.2651 20.1692C9.81021 18.0755 10.8205 14.592 13.8651 13.7006C13.8991 13.6901 13.9353 13.6884 13.9702 13.6958C14.0051 13.7031 14.0375 13.7192 14.0645 13.7425C14.0915 13.7658 14.1121 13.7956 14.1244 13.829C14.1366 13.8625 14.1402 13.8985 14.1348 13.9337C14.0129 14.6865 13.6898 15.2777 13.1656 15.7075C11.3645 17.184 13.0651 19.9863 15.3645 19.296C15.5533 19.24 15.7168 19.1186 15.8262 18.9532Z" fill="#FFFF94"/>
</svg>
