<?xml version="1.0" encoding="UTF-8" standalone="no"?>
<!DOCTYPE svg PUBLIC "-//W3C//DTD SVG 1.1//EN" "http://www.w3.org/Graphics/SVG/1.1/DTD/svg11.dtd">
<svg xmlns="http://www.w3.org/2000/svg" version="1.1" viewBox="0.00 0.00 70.00 70.00">
<g stroke-width="2.00" fill="none" stroke-linecap="butt">
<path stroke="#575c63" vector-effect="non-scaling-stroke" d="
  M 62.69 35.20
  A 27.49 27.49 0.0 0 0 35.20 7.71
  A 27.49 27.49 0.0 0 0 7.71 35.20
  A 27.49 27.49 0.0 0 0 35.20 62.69
  A 27.49 27.49 0.0 0 0 62.69 35.20"
/>
<path stroke="#575c63" vector-effect="non-scaling-stroke" d="
  M 36.77 35.27
  A 0.55 0.54 3.6 0 1 37.25 35.81
  L 37.27 41.21
  A 0.75 0.75 0.0 0 0 38.17 41.94
  L 38.51 41.87
  A 0.61 0.59 87.4 0 0 38.97 41.35
  Q 39.65 34.57 44.29 30.77
  A 1.25 1.25 0.0 0 1 45.78 30.70
  Q 46.14 30.94 46.14 31.40
  Q 46.14 32.07 45.67 32.57
  Q 42.00 36.44 41.33 40.60
  Q 40.14 48.03 40.58 57.50
  Q 40.60 58.05 41.13 57.88
  C 53.64 53.98 60.98 42.34 57.74 29.42
  C 55.38 20.02 47.23 13.03 37.47 12.05
  C 19.91 10.27 7.07 28.03 13.61 43.97
  Q 17.85 54.30 28.98 57.75
  A 0.39 0.38 -80.5 0 0 29.48 57.39
  Q 29.74 49.67 28.99 42.22
  Q 28.41 36.39 24.38 32.39
  A 1.17 1.16 23.2 0 1 24.05 31.58
  Q 24.07 30.83 24.57 30.45
  Q 25.09 30.06 25.58 30.46
  Q 30.38 34.39 30.98 41.05
  Q 31.06 41.94 31.94 42.05
  L 32.24 42.09
  A 0.44 0.44 0.0 0 0 32.74 41.65
  L 32.77 35.75
  A 0.34 0.33 80.3 0 1 32.99 35.43
  Q 34.34 34.97 36.77 35.27"
/>
</g>
<g fill="#2f353e">
<path d="
  M 0.00 0.00
  L 70.00 0.00
  L 70.00 70.00
  L 0.00 70.00
  L 0.00 0.00
  Z
  M 62.69 35.20
  A 27.49 27.49 0.0 0 0 35.20 7.71
  A 27.49 27.49 0.0 0 0 7.71 35.20
  A 27.49 27.49 0.0 0 0 35.20 62.69
  A 27.49 27.49 0.0 0 0 62.69 35.20
  Z"
/>
<path d="
  M 32.77 35.75
  L 32.74 41.65
  A 0.44 0.44 0.0 0 1 32.24 42.09
  L 31.94 42.05
  Q 31.06 41.94 30.98 41.05
  Q 30.38 34.39 25.58 30.46
  Q 25.09 30.06 24.57 30.45
  Q 24.07 30.83 24.05 31.58
  A 1.17 1.16 23.2 0 0 24.38 32.39
  Q 28.41 36.39 28.99 42.22
  Q 29.74 49.67 29.48 57.39
  A 0.39 0.38 -80.5 0 1 28.98 57.75
  Q 17.85 54.30 13.61 43.97
  C 7.07 28.03 19.91 10.27 37.47 12.05
  C 47.23 13.03 55.38 20.02 57.74 29.42
  C 60.98 42.34 53.64 53.98 41.13 57.88
  Q 40.60 58.05 40.58 57.50
  Q 40.14 48.03 41.33 40.60
  Q 42.00 36.44 45.67 32.57
  Q 46.14 32.07 46.14 31.40
  Q 46.14 30.94 45.78 30.70
  A 1.25 1.25 0.0 0 0 44.29 30.77
  Q 39.65 34.57 38.97 41.35
  A 0.61 0.59 87.4 0 1 38.51 41.87
  L 38.17 41.94
  A 0.75 0.75 0.0 0 1 37.27 41.21
  L 37.25 35.81
  A 0.55 0.54 3.6 0 0 36.77 35.27
  Q 34.34 34.97 32.99 35.43
  A 0.34 0.33 80.3 0 0 32.77 35.75
  Z"
/>
</g>
<path fill="#94ff94" d="
  M 62.69 35.20
  A 27.49 27.49 0.0 0 1 35.20 62.69
  A 27.49 27.49 0.0 0 1 7.71 35.20
  A 27.49 27.49 0.0 0 1 35.20 7.71
  A 27.49 27.49 0.0 0 1 62.69 35.20
  Z
  M 36.77 35.27
  A 0.55 0.54 3.6 0 1 37.25 35.81
  L 37.27 41.21
  A 0.75 0.75 0.0 0 0 38.17 41.94
  L 38.51 41.87
  A 0.61 0.59 87.4 0 0 38.97 41.35
  Q 39.65 34.57 44.29 30.77
  A 1.25 1.25 0.0 0 1 45.78 30.70
  Q 46.14 30.94 46.14 31.40
  Q 46.14 32.07 45.67 32.57
  Q 42.00 36.44 41.33 40.60
  Q 40.14 48.03 40.58 57.50
  Q 40.60 58.05 41.13 57.88
  C 53.64 53.98 60.98 42.34 57.74 29.42
  C 55.38 20.02 47.23 13.03 37.47 12.05
  C 19.91 10.27 7.07 28.03 13.61 43.97
  Q 17.85 54.30 28.98 57.75
  A 0.39 0.38 -80.5 0 0 29.48 57.39
  Q 29.74 49.67 28.99 42.22
  Q 28.41 36.39 24.38 32.39
  A 1.17 1.16 23.2 0 1 24.05 31.58
  Q 24.07 30.83 24.57 30.45
  Q 25.09 30.06 25.58 30.46
  Q 30.38 34.39 30.98 41.05
  Q 31.06 41.94 31.94 42.05
  L 32.24 42.09
  A 0.44 0.44 0.0 0 0 32.74 41.65
  L 32.77 35.75
  A 0.34 0.33 80.3 0 1 32.99 35.43
  Q 34.34 34.97 36.77 35.27
  Z"
/>
</svg>
