<svg width="32" height="32" viewBox="0 0 32 32" fill="none" xmlns="http://www.w3.org/2000/svg">
<path d="M28.6584 16.0914C28.6584 19.4243 27.3344 22.6208 24.9776 24.9775C22.6209 27.3342 19.4245 28.6583 16.0915 28.6583C14.4412 28.6583 12.8071 28.3332 11.2824 27.7017C9.75771 27.0701 8.37235 26.1444 7.20541 24.9775C4.84866 22.6208 3.52466 19.4243 3.52466 16.0914C3.52466 12.7585 4.84866 9.56203 7.20541 7.20528C9.56215 4.84854 12.7586 3.52454 16.0915 3.52454C17.7418 3.52454 19.376 3.84959 20.9006 4.48113C22.4253 5.11267 23.8107 6.03834 24.9776 7.20528C26.1446 8.37222 27.0702 9.75758 27.7018 11.2823C28.3333 12.8069 28.6584 14.4411 28.6584 16.0914ZM16.8092 16.1234C16.8701 16.1312 16.9261 16.1606 16.9665 16.2061C17.0069 16.2516 17.029 16.31 17.0287 16.3703L17.0378 18.8388C17.0381 18.8895 17.0497 18.9394 17.0716 18.9851C17.0935 19.0307 17.1253 19.071 17.1647 19.1029C17.204 19.1348 17.2499 19.1576 17.2991 19.1696C17.3483 19.1817 17.3996 19.1827 17.4492 19.1725L17.6047 19.1405C17.6593 19.1284 17.7089 19.099 17.7465 19.0564C17.7842 19.0138 17.8081 18.9602 17.8149 18.9028C18.0222 16.8365 18.8328 15.2243 20.2469 14.0663C20.342 13.9884 20.4595 13.9433 20.5822 13.9375C20.7049 13.9318 20.8262 13.9657 20.9281 14.0343C21.0378 14.1074 21.0927 14.2141 21.0927 14.3542C21.0927 14.5584 21.021 14.7367 20.8778 14.8891C19.7593 16.0685 19.098 17.2922 18.8938 18.56C18.5311 20.8243 18.4169 23.3996 18.5509 26.2857C18.557 26.4533 18.6409 26.5112 18.8024 26.4594C24.5212 24.6765 27.8767 19.3554 26.3955 13.4491C25.3167 9.15196 21.5909 5.95654 17.1292 5.50854C9.1018 4.69482 3.23209 12.8137 6.2218 20.1005C7.51399 23.2487 9.85609 25.3485 13.2481 26.4C13.2737 26.4085 13.301 26.4107 13.3277 26.4066C13.3544 26.4024 13.3799 26.3919 13.4021 26.3759C13.4242 26.36 13.4425 26.3389 13.4555 26.3146C13.4684 26.2902 13.4757 26.2631 13.4767 26.2354C13.5559 23.8826 13.4812 21.571 13.2527 19.3005C13.0759 17.5238 12.3734 16.0259 11.1452 14.8068C11.0486 14.7073 10.9945 14.5745 10.9944 14.4365C11.0005 14.208 11.0797 14.0358 11.2321 13.92C11.3906 13.8011 11.5445 13.8026 11.6938 13.9245C13.1567 15.1223 13.9795 16.736 14.1624 18.7657C14.1868 19.0369 14.333 19.1893 14.6012 19.2228L14.7384 19.2411C14.767 19.245 14.7961 19.2428 14.8238 19.2345C14.8515 19.2261 14.877 19.2119 14.8987 19.1928C14.9204 19.1738 14.9377 19.1502 14.9495 19.1238C14.9613 19.0975 14.9672 19.0689 14.9669 19.04L14.9807 16.3428C14.9805 16.3106 14.9901 16.2791 15.0081 16.2529C15.0261 16.2267 15.0517 16.207 15.0812 16.1965C15.4927 16.0563 16.0687 16.032 16.8092 16.1234Z" fill="#94FF94"/>
</svg>
