<?xml version="1.0" encoding="UTF-8" standalone="no"?>
<!DOCTYPE svg PUBLIC "-//W3C//DTD SVG 1.1//EN" "http://www.w3.org/Graphics/SVG/1.1/DTD/svg11.dtd">
<svg xmlns="http://www.w3.org/2000/svg" version="1.1" viewBox="0.00 0.00 70.00 70.00">
<g stroke-width="2.00" fill="none" stroke-linecap="butt">
<path stroke="#575c63" vector-effect="non-scaling-stroke" d="
  M 26.44 15.81
  L 31.55 14.77
  A 1.91 1.91 0.0 0 0 33.04 12.52
  L 32.73 11.00
  A 4.70 4.51 78.5 0 0 27.38 7.29
  L 27.36 7.29
  A 4.70 4.51 78.5 0 0 23.87 12.80
  L 24.18 14.32
  A 1.91 1.91 0.0 0 0 26.44 15.81"
/>
<path stroke="#575c63" vector-effect="non-scaling-stroke" d="
  M 62.43 7.39
  L 58.47 7.27
  Q 57.96 7.26 57.56 7.56
  Q 53.22 10.82 49.21 14.00
  C 45.91 16.61 43.58 20.15 40.88 23.30
  A 1.69 1.68 53.7 0 0 40.61 25.07
  L 42.64 29.66
  Q 42.86 30.14 42.74 30.66
  C 42.14 33.22 40.79 35.72 40.89 38.37
  Q 40.98 40.78 41.37 43.16
  Q 41.53 44.18 40.63 44.68
  L 35.00 47.74
  A 1.18 1.16 -8.8 0 0 34.42 48.52
  C 33.86 51.01 33.63 53.60 31.99 55.73
  Q 29.50 58.96 27.32 62.04
  Q 26.81 62.76 27.69 62.76
  L 62.24 62.77
  Q 62.75 62.77 62.75 62.26
  L 62.75 7.73
  A 0.34 0.33 -89.1 0 0 62.43 7.39"
/>
<path stroke="#575c63" vector-effect="non-scaling-stroke" d="
  M 28.01 23.84
  Q 28.58 22.34 30.17 22.15
  Q 34.42 21.64 36.55 20.49
  Q 39.74 18.77 43.39 16.08
  Q 44.84 15.01 44.23 13.32
  Q 44.10 12.96 43.83 12.67
  Q 42.27 11.00 40.37 12.26
  C 37.67 14.05 35.09 16.53 31.79 17.13
  Q 27.77 17.87 23.74 18.86
  A 5.00 5.00 0.0 0 0 20.25 21.93
  Q 18.59 26.27 16.70 30.90
  C 15.27 34.43 16.68 38.18 21.06 37.48
  Q 25.57 36.75 29.63 35.74
  A 0.81 0.81 0.0 0 1 30.59 36.26
  L 32.72 42.53
  Q 33.51 44.86 35.96 44.53
  Q 36.42 44.46 36.80 44.18
  Q 38.19 43.13 37.69 41.46
  Q 36.31 36.87 34.59 32.21
  Q 33.89 28.87 26.55 31.33
  Q 24.98 31.86 25.57 30.31
  L 28.01 23.84"
/>
<path stroke="#575c63" vector-effect="non-scaling-stroke" d="
  M 20.29 43.53
  Q 20.74 44.50 20.47 45.53
  L 17.86 55.65
  A 1.96 1.95 -61.8 0 0 18.44 57.58
  Q 19.31 58.37 20.31 58.38
  Q 22.46 58.41 23.00 56.32
  Q 24.27 51.35 25.57 46.17
  Q 26.34 43.11 24.19 39.80
  Q 24.04 39.57 23.77 39.58
  L 19.02 39.83
  A 0.29 0.29 0.0 0 0 18.77 40.24
  L 20.29 43.53"
/>
</g>
<path fill="#2f353e" d="
  M 0.00 0.00
  L 70.00 0.00
  L 70.00 70.00
  L 0.00 70.00
  L 0.00 0.00
  Z
  M 26.44 15.81
  L 31.55 14.77
  A 1.91 1.91 0.0 0 0 33.04 12.52
  L 32.73 11.00
  A 4.70 4.51 78.5 0 0 27.38 7.29
  L 27.36 7.29
  A 4.70 4.51 78.5 0 0 23.87 12.80
  L 24.18 14.32
  A 1.91 1.91 0.0 0 0 26.44 15.81
  Z
  M 62.43 7.39
  L 58.47 7.27
  Q 57.96 7.26 57.56 7.56
  Q 53.22 10.82 49.21 14.00
  C 45.91 16.61 43.58 20.15 40.88 23.30
  A 1.69 1.68 53.7 0 0 40.61 25.07
  L 42.64 29.66
  Q 42.86 30.14 42.74 30.66
  C 42.14 33.22 40.79 35.72 40.89 38.37
  Q 40.98 40.78 41.37 43.16
  Q 41.53 44.18 40.63 44.68
  L 35.00 47.74
  A 1.18 1.16 -8.8 0 0 34.42 48.52
  C 33.86 51.01 33.63 53.60 31.99 55.73
  Q 29.50 58.96 27.32 62.04
  Q 26.81 62.76 27.69 62.76
  L 62.24 62.77
  Q 62.75 62.77 62.75 62.26
  L 62.75 7.73
  A 0.34 0.33 -89.1 0 0 62.43 7.39
  Z
  M 28.01 23.84
  Q 28.58 22.34 30.17 22.15
  Q 34.42 21.64 36.55 20.49
  Q 39.74 18.77 43.39 16.08
  Q 44.84 15.01 44.23 13.32
  Q 44.10 12.96 43.83 12.67
  Q 42.27 11.00 40.37 12.26
  C 37.67 14.05 35.09 16.53 31.79 17.13
  Q 27.77 17.87 23.74 18.86
  A 5.00 5.00 0.0 0 0 20.25 21.93
  Q 18.59 26.27 16.70 30.90
  C 15.27 34.43 16.68 38.18 21.06 37.48
  Q 25.57 36.75 29.63 35.74
  A 0.81 0.81 0.0 0 1 30.59 36.26
  L 32.72 42.53
  Q 33.51 44.86 35.96 44.53
  Q 36.42 44.46 36.80 44.18
  Q 38.19 43.13 37.69 41.46
  Q 36.31 36.87 34.59 32.21
  Q 33.89 28.87 26.55 31.33
  Q 24.98 31.86 25.57 30.31
  L 28.01 23.84
  Z
  M 20.29 43.53
  Q 20.74 44.50 20.47 45.53
  L 17.86 55.65
  A 1.96 1.95 -61.8 0 0 18.44 57.58
  Q 19.31 58.37 20.31 58.38
  Q 22.46 58.41 23.00 56.32
  Q 24.27 51.35 25.57 46.17
  Q 26.34 43.11 24.19 39.80
  Q 24.04 39.57 23.77 39.58
  L 19.02 39.83
  A 0.29 0.29 0.0 0 0 18.77 40.24
  L 20.29 43.53
  Z"
/>
<g fill="#94ff94">
<path d="
  M 26.44 15.81
  A 1.91 1.91 0.0 0 1 24.18 14.32
  L 23.87 12.80
  A 4.70 4.51 78.5 0 1 27.36 7.29
  L 27.38 7.29
  A 4.70 4.51 78.5 0 1 32.73 11.00
  L 33.04 12.52
  A 1.91 1.91 0.0 0 1 31.55 14.77
  L 26.44 15.81
  Z"
/>
<path d="
  M 62.43 7.39
  A 0.34 0.33 -89.1 0 1 62.75 7.73
  L 62.75 62.26
  Q 62.75 62.77 62.24 62.77
  L 27.69 62.76
  Q 26.81 62.76 27.32 62.04
  Q 29.50 58.96 31.99 55.73
  C 33.63 53.60 33.86 51.01 34.42 48.52
  A 1.18 1.16 -8.8 0 1 35.00 47.74
  L 40.63 44.68
  Q 41.53 44.18 41.37 43.16
  Q 40.98 40.78 40.89 38.37
  C 40.79 35.72 42.14 33.22 42.74 30.66
  Q 42.86 30.14 42.64 29.66
  L 40.61 25.07
  A 1.69 1.68 53.7 0 1 40.88 23.30
  C 43.58 20.15 45.91 16.61 49.21 14.00
  Q 53.22 10.82 57.56 7.56
  Q 57.96 7.26 58.47 7.27
  L 62.43 7.39
  Z"
/>
<path d="
  M 28.01 23.84
  L 25.57 30.31
  Q 24.98 31.86 26.55 31.33
  Q 33.89 28.87 34.59 32.21
  Q 36.31 36.87 37.69 41.46
  Q 38.19 43.13 36.80 44.18
  Q 36.42 44.46 35.96 44.53
  Q 33.51 44.86 32.72 42.53
  L 30.59 36.26
  A 0.81 0.81 0.0 0 0 29.63 35.74
  Q 25.57 36.75 21.06 37.48
  C 16.68 38.18 15.27 34.43 16.70 30.90
  Q 18.59 26.27 20.25 21.93
  A 5.00 5.00 0.0 0 1 23.74 18.86
  Q 27.77 17.87 31.79 17.13
  C 35.09 16.53 37.67 14.05 40.37 12.26
  Q 42.27 11.00 43.83 12.67
  Q 44.10 12.96 44.23 13.32
  Q 44.84 15.01 43.39 16.08
  Q 39.74 18.77 36.55 20.49
  Q 34.42 21.64 30.17 22.15
  Q 28.58 22.34 28.01 23.84
  Z"
/>
<path d="
  M 20.29 43.53
  L 18.77 40.24
  A 0.29 0.29 0.0 0 1 19.02 39.83
  L 23.77 39.58
  Q 24.04 39.57 24.19 39.80
  Q 26.34 43.11 25.57 46.17
  Q 24.27 51.35 23.00 56.32
  Q 22.46 58.41 20.31 58.38
  Q 19.31 58.37 18.44 57.58
  A 1.96 1.95 -61.8 0 1 17.86 55.65
  L 20.47 45.53
  Q 20.74 44.50 20.29 43.53
  Z"
/>
</g>
</svg>
