<svg width="32" height="32" viewBox="0 0 32 32" fill="none" xmlns="http://www.w3.org/2000/svg">
<path d="M12.0868 7.22743C11.9742 7.2508 11.8581 7.2517 11.7452 7.23009C11.6323 7.20848 11.5247 7.16477 11.4287 7.10148C11.3327 7.03819 11.2502 6.95657 11.1858 6.86129C11.1215 6.76602 11.0765 6.65897 11.0537 6.54629L10.9119 5.85143C10.8554 5.57451 10.8518 5.28961 10.9014 5.01304C10.951 4.73646 11.0529 4.47366 11.2011 4.23967C11.3493 4.00569 11.541 3.80512 11.7651 3.64947C11.9893 3.49381 12.2415 3.38612 12.5074 3.33257H12.5165C13.0521 3.22451 13.6106 3.34244 14.0691 3.66045C14.5277 3.97845 14.8489 4.47053 14.9622 5.02857L15.1039 5.72343C15.1498 5.95013 15.1038 6.18576 14.9761 6.3786C14.8484 6.57144 14.6494 6.70573 14.4228 6.752L12.0868 7.22743Z" fill="#94FF94"/>
<path d="M28.5394 3.37825C28.5786 3.37943 28.6159 3.39633 28.6432 3.42535C28.6705 3.45437 28.6857 3.49323 28.6857 3.53368V28.4617C28.6857 28.6171 28.608 28.6948 28.4525 28.6948L12.6582 28.6902C12.3901 28.6902 12.3337 28.5805 12.4891 28.3611C13.1535 27.4224 13.8651 26.4609 14.624 25.4765C15.3737 24.5028 15.4788 23.3188 15.7348 22.1805C15.7506 22.106 15.7824 22.0356 15.8281 21.9741C15.8739 21.9126 15.9325 21.8614 16 21.824L18.5737 20.4251C18.848 20.2727 18.9607 20.0411 18.912 19.7302C18.7931 19.0049 18.72 18.275 18.6925 17.5405C18.6468 16.3291 19.264 15.1862 19.5383 14.016C19.5748 13.8575 19.5596 13.7051 19.4925 13.5588L18.5645 11.4605C18.5071 11.3272 18.4882 11.1806 18.51 11.0375C18.5318 10.8944 18.5935 10.7606 18.688 10.6514C19.9223 9.21139 20.9874 7.5931 22.496 6.39996C23.7181 5.43082 24.9904 4.44948 26.3131 3.45596C26.435 3.36453 26.5737 3.32034 26.7291 3.32339L28.5394 3.37825Z" fill="#94FF94"/>
<path d="M12.8046 10.8982L11.6892 13.8559C11.5094 14.3283 11.6587 14.4837 12.1372 14.3222C14.3742 13.5725 15.5993 13.7066 15.8126 14.7245C16.3368 16.1447 16.8092 17.5542 17.2298 18.9531C17.3822 19.462 17.2465 19.8765 16.8229 20.1965C16.7071 20.2818 16.5791 20.3352 16.4389 20.3565C15.6923 20.4571 15.1985 20.1523 14.9578 19.4422L13.9841 16.5759C13.9537 16.4887 13.8919 16.416 13.8107 16.372C13.7295 16.3281 13.6348 16.316 13.5452 16.3382C12.3079 16.646 11.002 16.9112 9.6275 17.1337C7.62521 17.4537 6.98064 15.7394 7.63436 14.1257C8.21036 12.7146 8.75131 11.3477 9.25721 10.0251C9.38965 9.67946 9.60403 9.37117 9.88193 9.12671C10.1598 8.88225 10.493 8.70893 10.8526 8.62165C12.0808 8.31994 13.3075 8.05632 14.5326 7.8308C16.0412 7.55651 17.2206 6.4228 18.4549 5.60451C19.034 5.22051 19.5612 5.28299 20.0366 5.79194C20.1189 5.88032 20.1799 5.97937 20.2195 6.08908C20.4054 6.60413 20.2774 7.0247 19.8355 7.3508C18.7231 8.17061 17.6808 8.84261 16.7086 9.3668C16.0595 9.71727 15.0873 9.97023 13.7921 10.1257C13.3075 10.1836 12.9784 10.4411 12.8046 10.8982Z" fill="#94FF94"/>
<path d="M9.27537 19.8994L8.58052 18.3954C8.57153 18.3757 8.56751 18.3541 8.5688 18.3325C8.5701 18.3109 8.57667 18.2899 8.58795 18.2714C8.59922 18.2529 8.61486 18.2374 8.63349 18.2264C8.65211 18.2153 8.67317 18.209 8.6948 18.208L10.8662 18.0937C10.9485 18.0906 11.0125 18.1242 11.0582 18.1943C11.7135 19.203 11.9238 20.1737 11.6891 21.1063C11.2929 22.6849 10.9013 24.2316 10.5142 25.7463C10.3497 26.3832 9.93975 26.6971 9.28452 26.688C8.97975 26.6849 8.6948 26.563 8.42966 26.3223C8.30964 26.2136 8.22154 26.074 8.17483 25.9185C8.12812 25.7631 8.12455 25.5977 8.16452 25.44L9.35766 20.8137C9.43994 20.4998 9.41252 20.195 9.27537 19.8994Z" fill="#94FF94"/>
</svg>
