<?xml version="1.0" encoding="UTF-8" standalone="no"?>
<!DOCTYPE svg PUBLIC "-//W3C//DTD SVG 1.1//EN" "http://www.w3.org/Graphics/SVG/1.1/DTD/svg11.dtd">
<svg xmlns="http://www.w3.org/2000/svg" version="1.1" viewBox="0.00 0.00 70.00 70.00">
<g stroke-width="2.00" fill="none" stroke-linecap="butt">
<path stroke="#575c63" vector-effect="non-scaling-stroke" d="
  M 22.53 13.92
  A 4.89 4.89 0.0 0 0 17.64 9.03
  A 4.89 4.89 0.0 0 0 12.75 13.92
  A 4.89 4.89 0.0 0 0 17.64 18.81
  A 4.89 4.89 0.0 0 0 22.53 13.92"
/>
<path stroke="#575c63" vector-effect="non-scaling-stroke" d="
  M 39.89 13.93
  A 4.89 4.89 0.0 0 0 35.00 9.04
  A 4.89 4.89 0.0 0 0 30.11 13.93
  A 4.89 4.89 0.0 0 0 35.00 18.82
  A 4.89 4.89 0.0 0 0 39.89 13.93"
/>
<path stroke="#575c63" vector-effect="non-scaling-stroke" d="
  M 57.25 13.92
  A 4.89 4.89 0.0 0 0 52.36 9.03
  A 4.89 4.89 0.0 0 0 47.47 13.92
  A 4.89 4.89 0.0 0 0 52.36 18.81
  A 4.89 4.89 0.0 0 0 57.25 13.92"
/>
<path stroke="#575c63" vector-effect="non-scaling-stroke" d="
  M 37.22 36.27
  A 0.33 0.33 0.0 0 1 37.56 35.94
  L 54.41 36.19
  A 0.33 0.33 0.0 0 0 54.74 35.87
  L 54.75 22.33
  A 0.33 0.33 0.0 0 0 54.42 22.00
  L 49.85 22.01
  A 0.33 0.33 0.0 0 0 49.52 22.34
  L 49.52 31.27
  A 0.33 0.33 0.0 0 1 49.19 31.60
  L 37.53 31.58
  A 0.33 0.33 0.0 0 1 37.20 31.25
  L 37.24 21.79
  A 0.33 0.33 0.0 0 0 36.91 21.46
  L 32.70 21.41
  A 0.33 0.33 0.0 0 0 32.37 21.74
  L 32.40 31.25
  A 0.33 0.33 0.0 0 1 32.07 31.58
  L 20.10 31.58
  A 0.33 0.33 0.0 0 1 19.77 31.25
  L 19.77 21.91
  A 0.33 0.33 0.0 0 0 19.44 21.58
  L 15.38 21.58
  A 0.33 0.33 0.0 0 0 15.05 21.91
  L 15.07 48.09
  A 0.33 0.33 0.0 0 0 15.40 48.42
  L 19.43 48.42
  A 0.33 0.33 0.0 0 0 19.76 48.09
  L 19.77 36.33
  A 0.33 0.33 0.0 0 1 20.10 36.00
  L 32.06 36.00
  A 0.33 0.33 0.0 0 1 32.39 36.33
  L 32.38 48.26
  A 0.33 0.33 0.0 0 0 32.71 48.59
  L 36.90 48.57
  A 0.33 0.33 0.0 0 0 37.23 48.24
  L 37.22 36.27"
/>
<path stroke="#575c63" vector-effect="non-scaling-stroke" d="
  M 54.7459 41.5046
  A 0.26 0.26 0.0 0 0 54.4864 41.2441
  L 49.7864 41.2359
  A 0.26 0.26 0.0 0 0 49.5260 41.4954
  L 49.5141 48.3154
  A 0.26 0.26 0.0 0 0 49.7736 48.5759
  L 54.4736 48.5841
  A 0.26 0.26 0.0 0 0 54.7340 48.3246
  L 54.7459 41.5046"
/>
<path stroke="#575c63" vector-effect="non-scaling-stroke" d="
  M 22.53 56.08
  A 4.89 4.89 0.0 0 0 17.64 51.19
  A 4.89 4.89 0.0 0 0 12.75 56.08
  A 4.89 4.89 0.0 0 0 17.64 60.97
  A 4.89 4.89 0.0 0 0 22.53 56.08"
/>
<path stroke="#575c63" vector-effect="non-scaling-stroke" d="
  M 39.89 56.08
  A 4.89 4.89 0.0 0 0 35.00 51.19
  A 4.89 4.89 0.0 0 0 30.11 56.08
  A 4.89 4.89 0.0 0 0 35.00 60.97
  A 4.89 4.89 0.0 0 0 39.89 56.08"
/>
<path stroke="#575c63" vector-effect="non-scaling-stroke" d="
  M 57.25 56.08
  A 4.89 4.89 0.0 0 0 52.36 51.19
  A 4.89 4.89 0.0 0 0 47.47 56.08
  A 4.89 4.89 0.0 0 0 52.36 60.97
  A 4.89 4.89 0.0 0 0 57.25 56.08"
/>
</g>
<path fill="#2f353e" d="
  M 0.00 0.00
  L 70.00 0.00
  L 70.00 70.00
  L 0.00 70.00
  L 0.00 0.00
  Z
  M 22.53 13.92
  A 4.89 4.89 0.0 0 0 17.64 9.03
  A 4.89 4.89 0.0 0 0 12.75 13.92
  A 4.89 4.89 0.0 0 0 17.64 18.81
  A 4.89 4.89 0.0 0 0 22.53 13.92
  Z
  M 39.89 13.93
  A 4.89 4.89 0.0 0 0 35.00 9.04
  A 4.89 4.89 0.0 0 0 30.11 13.93
  A 4.89 4.89 0.0 0 0 35.00 18.82
  A 4.89 4.89 0.0 0 0 39.89 13.93
  Z
  M 57.25 13.92
  A 4.89 4.89 0.0 0 0 52.36 9.03
  A 4.89 4.89 0.0 0 0 47.47 13.92
  A 4.89 4.89 0.0 0 0 52.36 18.81
  A 4.89 4.89 0.0 0 0 57.25 13.92
  Z
  M 37.22 36.27
  A 0.33 0.33 0.0 0 1 37.56 35.94
  L 54.41 36.19
  A 0.33 0.33 0.0 0 0 54.74 35.87
  L 54.75 22.33
  A 0.33 0.33 0.0 0 0 54.42 22.00
  L 49.85 22.01
  A 0.33 0.33 0.0 0 0 49.52 22.34
  L 49.52 31.27
  A 0.33 0.33 0.0 0 1 49.19 31.60
  L 37.53 31.58
  A 0.33 0.33 0.0 0 1 37.20 31.25
  L 37.24 21.79
  A 0.33 0.33 0.0 0 0 36.91 21.46
  L 32.70 21.41
  A 0.33 0.33 0.0 0 0 32.37 21.74
  L 32.40 31.25
  A 0.33 0.33 0.0 0 1 32.07 31.58
  L 20.10 31.58
  A 0.33 0.33 0.0 0 1 19.77 31.25
  L 19.77 21.91
  A 0.33 0.33 0.0 0 0 19.44 21.58
  L 15.38 21.58
  A 0.33 0.33 0.0 0 0 15.05 21.91
  L 15.07 48.09
  A 0.33 0.33 0.0 0 0 15.40 48.42
  L 19.43 48.42
  A 0.33 0.33 0.0 0 0 19.76 48.09
  L 19.77 36.33
  A 0.33 0.33 0.0 0 1 20.10 36.00
  L 32.06 36.00
  A 0.33 0.33 0.0 0 1 32.39 36.33
  L 32.38 48.26
  A 0.33 0.33 0.0 0 0 32.71 48.59
  L 36.90 48.57
  A 0.33 0.33 0.0 0 0 37.23 48.24
  L 37.22 36.27
  Z
  M 54.7459 41.5046
  A 0.26 0.26 0.0 0 0 54.4864 41.2441
  L 49.7864 41.2359
  A 0.26 0.26 0.0 0 0 49.5260 41.4954
  L 49.5141 48.3154
  A 0.26 0.26 0.0 0 0 49.7736 48.5759
  L 54.4736 48.5841
  A 0.26 0.26 0.0 0 0 54.7340 48.3246
  L 54.7459 41.5046
  Z
  M 22.53 56.08
  A 4.89 4.89 0.0 0 0 17.64 51.19
  A 4.89 4.89 0.0 0 0 12.75 56.08
  A 4.89 4.89 0.0 0 0 17.64 60.97
  A 4.89 4.89 0.0 0 0 22.53 56.08
  Z
  M 39.89 56.08
  A 4.89 4.89 0.0 0 0 35.00 51.19
  A 4.89 4.89 0.0 0 0 30.11 56.08
  A 4.89 4.89 0.0 0 0 35.00 60.97
  A 4.89 4.89 0.0 0 0 39.89 56.08
  Z
  M 57.25 56.08
  A 4.89 4.89 0.0 0 0 52.36 51.19
  A 4.89 4.89 0.0 0 0 47.47 56.08
  A 4.89 4.89 0.0 0 0 52.36 60.97
  A 4.89 4.89 0.0 0 0 57.25 56.08
  Z"
/>
<g fill="#94ff94">
<circle cx="17.64" cy="13.92" r="4.89"/>
<circle cx="35.00" cy="13.93" r="4.89"/>
<circle cx="52.36" cy="13.92" r="4.89"/>
<path d="
  M 37.22 36.27
  L 37.23 48.24
  A 0.33 0.33 0.0 0 1 36.90 48.57
  L 32.71 48.59
  A 0.33 0.33 0.0 0 1 32.38 48.26
  L 32.39 36.33
  A 0.33 0.33 0.0 0 0 32.06 36.00
  L 20.10 36.00
  A 0.33 0.33 0.0 0 0 19.77 36.33
  L 19.76 48.09
  A 0.33 0.33 0.0 0 1 19.43 48.42
  L 15.40 48.42
  A 0.33 0.33 0.0 0 1 15.07 48.09
  L 15.05 21.91
  A 0.33 0.33 0.0 0 1 15.38 21.58
  L 19.44 21.58
  A 0.33 0.33 0.0 0 1 19.77 21.91
  L 19.77 31.25
  A 0.33 0.33 0.0 0 0 20.10 31.58
  L 32.07 31.58
  A 0.33 0.33 0.0 0 0 32.40 31.25
  L 32.37 21.74
  A 0.33 0.33 0.0 0 1 32.70 21.41
  L 36.91 21.46
  A 0.33 0.33 0.0 0 1 37.24 21.79
  L 37.20 31.25
  A 0.33 0.33 0.0 0 0 37.53 31.58
  L 49.19 31.60
  A 0.33 0.33 0.0 0 0 49.52 31.27
  L 49.52 22.34
  A 0.33 0.33 0.0 0 1 49.85 22.01
  L 54.42 22.00
  A 0.33 0.33 0.0 0 1 54.75 22.33
  L 54.74 35.87
  A 0.33 0.33 0.0 0 1 54.41 36.19
  L 37.56 35.94
  A 0.33 0.33 0.0 0 0 37.22 36.27
  Z"
/>
<rect x="-2.61" y="-3.67" transform="translate(52.13,44.91) rotate(0.1)" width="5.22" height="7.34" rx="0.26"/>
<circle cx="17.64" cy="56.08" r="4.89"/>
<circle cx="35.00" cy="56.08" r="4.89"/>
<circle cx="52.36" cy="56.08" r="4.89"/>
</g>
</svg>
