<svg width="32" height="32" viewBox="0 0 32 32" fill="none" xmlns="http://www.w3.org/2000/svg">
<path d="M8.06404 8.59891C9.29863 8.59891 10.2995 7.59807 10.2995 6.36348C10.2995 5.12889 9.29863 4.12805 8.06404 4.12805C6.82945 4.12805 5.82861 5.12889 5.82861 6.36348C5.82861 7.59807 6.82945 8.59891 8.06404 8.59891Z" fill="#94FF94"/>
<path d="M16.0001 8.60343C17.2347 8.60343 18.2355 7.60259 18.2355 6.368C18.2355 5.1334 17.2347 4.13257 16.0001 4.13257C14.7655 4.13257 13.7646 5.1334 13.7646 6.368C13.7646 7.60259 14.7655 8.60343 16.0001 8.60343Z" fill="#94FF94"/>
<path d="M23.9361 8.59891C25.1707 8.59891 26.1715 7.59807 26.1715 6.36348C26.1715 5.12889 25.1707 4.12805 23.9361 4.12805C22.7015 4.12805 21.7007 5.12889 21.7007 6.36348C21.7007 7.59807 22.7015 8.59891 23.9361 8.59891Z" fill="#94FF94"/>
<path d="M17.0147 16.5806L17.0193 22.0526C17.0193 22.0926 17.0034 22.131 16.9751 22.1593C16.9468 22.1876 16.9085 22.2035 16.8685 22.2035L14.953 22.2126C14.9332 22.2126 14.9136 22.2087 14.8953 22.2011C14.877 22.1936 14.8604 22.1824 14.8464 22.1684C14.8323 22.1544 14.8212 22.1378 14.8137 22.1195C14.8061 22.1012 14.8022 22.0816 14.8022 22.0618L14.8067 16.608C14.8067 16.568 14.7908 16.5297 14.7626 16.5014C14.7343 16.4731 14.6959 16.4572 14.6559 16.4572H9.18845C9.14844 16.4572 9.11007 16.4731 9.08178 16.5014C9.05349 16.5297 9.0376 16.568 9.0376 16.608L9.03303 21.984C9.03303 22.0241 9.01713 22.0624 8.98884 22.0907C8.96055 22.119 8.92218 22.1349 8.88217 22.1349H7.03988C6.99987 22.1349 6.9615 22.119 6.93321 22.0907C6.90492 22.0624 6.88903 22.0241 6.88903 21.984L6.87988 10.016C6.87988 9.97604 6.89578 9.93767 6.92407 9.90937C6.95236 9.88108 6.99073 9.86519 7.03074 9.86519H8.88674C8.92675 9.86519 8.96512 9.88108 8.99341 9.90937C9.0217 9.93767 9.0376 9.97604 9.0376 10.016V14.2858C9.0376 14.3258 9.05349 14.3641 9.08178 14.3924C9.11007 14.4207 9.14844 14.4366 9.18845 14.4366H14.6605C14.7005 14.4366 14.7388 14.4207 14.7671 14.3924C14.7954 14.3641 14.8113 14.3258 14.8113 14.2858L14.7976 9.93833C14.7976 9.89832 14.8135 9.85995 14.8418 9.83166C14.8701 9.80337 14.9084 9.78748 14.9485 9.78748L16.873 9.81033C16.913 9.81033 16.9514 9.82623 16.9797 9.85452C17.008 9.88281 17.0239 9.92118 17.0239 9.96119L17.0056 14.2858C17.0056 14.3258 17.0215 14.3641 17.0498 14.3924C17.0781 14.4207 17.1164 14.4366 17.1565 14.4366L22.4867 14.4458C22.5267 14.4458 22.5651 14.4299 22.5934 14.4016C22.6217 14.3733 22.6376 14.3349 22.6376 14.2949V10.2126C22.6376 10.1726 22.6535 10.1342 22.6818 10.1059C22.7101 10.0777 22.7484 10.0618 22.7885 10.0618L24.8776 10.0572C24.9176 10.0572 24.956 10.0731 24.9843 10.1014C25.0126 10.1297 25.0285 10.168 25.0285 10.208L25.0239 16.3978C25.0227 16.437 25.0063 16.4742 24.9781 16.5015C24.9499 16.5288 24.9123 16.5441 24.873 16.544L17.1702 16.4298C17.15 16.4291 17.1299 16.4326 17.111 16.4399C17.0922 16.4472 17.075 16.4582 17.0605 16.4723C17.046 16.4864 17.0345 16.5032 17.0266 16.5218C17.0188 16.5404 17.0147 16.5604 17.0147 16.5806Z" fill="#94FF94"/>
<path d="M24.908 18.8544L22.7595 18.8507C22.6938 18.8506 22.6405 18.9037 22.6404 18.9693L22.635 22.087C22.6349 22.1527 22.688 22.206 22.7536 22.2061L24.9022 22.2098C24.9678 22.21 25.0211 22.1568 25.0213 22.0912L25.0267 18.9735C25.0268 18.9078 24.9737 18.8545 24.908 18.8544Z" fill="#94FF94"/>
<path d="M8.06404 27.872C9.29863 27.872 10.2995 26.8711 10.2995 25.6366C10.2995 24.402 9.29863 23.4011 8.06404 23.4011C6.82945 23.4011 5.82861 24.402 5.82861 25.6366C5.82861 26.8711 6.82945 27.872 8.06404 27.872Z" fill="#94FF94"/>
<path d="M16.0001 27.872C17.2347 27.872 18.2355 26.8711 18.2355 25.6366C18.2355 24.402 17.2347 23.4011 16.0001 23.4011C14.7655 23.4011 13.7646 24.402 13.7646 25.6366C13.7646 26.8711 14.7655 27.872 16.0001 27.872Z" fill="#94FF94"/>
<path d="M23.9361 27.872C25.1707 27.872 26.1715 26.8711 26.1715 25.6366C26.1715 24.402 25.1707 23.4011 23.9361 23.4011C22.7015 23.4011 21.7007 24.402 21.7007 25.6366C21.7007 26.8711 22.7015 27.872 23.9361 27.872Z" fill="#94FF94"/>
</svg>
