<?xml version="1.0" encoding="UTF-8" standalone="no"?>
<!DOCTYPE svg PUBLIC "-//W3C//DTD SVG 1.1//EN" "http://www.w3.org/Graphics/SVG/1.1/DTD/svg11.dtd">
<svg xmlns="http://www.w3.org/2000/svg" version="1.1" viewBox="0.00 0.00 70.00 70.00">
<g stroke-width="2.00" fill="none" stroke-linecap="butt">
<path stroke="#575c63" vector-effect="non-scaling-stroke" d="
  M 31.19 17.63
  A 0.57 0.57 0.0 0 1 31.19 18.25
  L 27.59 23.89
  A 0.57 0.57 0.0 0 0 28.06 24.77
  L 32.73 24.84
  A 0.57 0.57 0.0 0 0 33.23 24.56
  L 37.09 18.12
  A 0.57 0.57 0.0 0 0 37.09 17.54
  L 33.44 11.48
  A 0.57 0.57 0.0 0 0 32.97 11.20
  L 28.10 11.11
  A 0.57 0.57 0.0 0 0 27.61 11.99
  L 31.19 17.63"
/>
<path stroke="#575c63" vector-effect="non-scaling-stroke" d="
  M 11.32 17.76
  A 0.40 0.40 0.0 0 1 11.31 18.18
  L 7.53 24.06
  A 0.40 0.40 0.0 0 0 7.86 24.68
  L 12.97 24.82
  A 0.40 0.40 0.0 0 0 13.32 24.63
  L 17.29 18.04
  A 0.40 0.40 0.0 0 0 17.28 17.62
  L 13.48 11.39
  A 0.40 0.40 0.0 0 0 13.14 11.20
  L 8.02 11.19
  A 0.40 0.40 0.0 0 0 7.67 11.80
  L 11.32 17.76"
/>
<path stroke="#575c63" vector-effect="non-scaling-stroke" d="
  M 21.25 17.77
  A 0.35 0.35 0.0 0 1 21.25 18.13
  L 17.49 24.17
  A 0.35 0.35 0.0 0 0 17.78 24.71
  L 22.92 24.86
  A 0.35 0.35 0.0 0 0 23.24 24.69
  L 27.21 17.96
  A 0.35 0.35 0.0 0 0 27.21 17.60
  L 23.43 11.36
  A 0.35 0.35 0.0 0 0 23.13 11.19
  L 17.89 11.23
  A 0.35 0.35 0.0 0 0 17.59 11.76
  L 21.25 17.77"
/>
<path stroke="#575c63" vector-effect="non-scaling-stroke" d="
  M 38.79 47.46
  A 1.14 1.14 0.0 0 1 39.94 48.60
  L 39.91 58.59
  A 1.14 1.14 0.0 0 0 41.04 59.73
  L 49.63 59.85
  A 1.14 1.14 0.0 0 0 50.79 58.71
  L 50.83 48.57
  A 1.14 1.14 0.0 0 1 51.99 47.43
  L 61.61 47.53
  A 1.14 1.14 0.0 0 0 62.76 46.38
  L 62.72 37.62
  A 1.14 1.14 0.0 0 0 61.56 36.48
  L 51.92 36.59
  A 1.14 1.14 0.0 0 1 50.77 35.44
  L 50.87 25.92
  A 1.14 1.14 0.0 0 0 49.72 24.77
  L 41.05 24.80
  A 1.14 1.14 0.0 0 0 39.92 25.95
  L 40.00 35.41
  A 1.14 1.14 0.0 0 1 38.86 36.56
  L 29.12 36.51
  A 1.14 1.14 0.0 0 0 27.97 37.64
  L 27.84 46.35
  A 1.14 1.14 0.0 0 0 28.98 47.50
  L 38.79 47.46"
/>
</g>
<path fill="#2f353e" d="
  M 0.00 0.00
  L 70.00 0.00
  L 70.00 70.00
  L 0.00 70.00
  L 0.00 0.00
  Z
  M 31.19 17.63
  A 0.57 0.57 0.0 0 1 31.19 18.25
  L 27.59 23.89
  A 0.57 0.57 0.0 0 0 28.06 24.77
  L 32.73 24.84
  A 0.57 0.57 0.0 0 0 33.23 24.56
  L 37.09 18.12
  A 0.57 0.57 0.0 0 0 37.09 17.54
  L 33.44 11.48
  A 0.57 0.57 0.0 0 0 32.97 11.20
  L 28.10 11.11
  A 0.57 0.57 0.0 0 0 27.61 11.99
  L 31.19 17.63
  Z
  M 11.32 17.76
  A 0.40 0.40 0.0 0 1 11.31 18.18
  L 7.53 24.06
  A 0.40 0.40 0.0 0 0 7.86 24.68
  L 12.97 24.82
  A 0.40 0.40 0.0 0 0 13.32 24.63
  L 17.29 18.04
  A 0.40 0.40 0.0 0 0 17.28 17.62
  L 13.48 11.39
  A 0.40 0.40 0.0 0 0 13.14 11.20
  L 8.02 11.19
  A 0.40 0.40 0.0 0 0 7.67 11.80
  L 11.32 17.76
  Z
  M 21.25 17.77
  A 0.35 0.35 0.0 0 1 21.25 18.13
  L 17.49 24.17
  A 0.35 0.35 0.0 0 0 17.78 24.71
  L 22.92 24.86
  A 0.35 0.35 0.0 0 0 23.24 24.69
  L 27.21 17.96
  A 0.35 0.35 0.0 0 0 27.21 17.60
  L 23.43 11.36
  A 0.35 0.35 0.0 0 0 23.13 11.19
  L 17.89 11.23
  A 0.35 0.35 0.0 0 0 17.59 11.76
  L 21.25 17.77
  Z
  M 38.79 47.46
  A 1.14 1.14 0.0 0 1 39.94 48.60
  L 39.91 58.59
  A 1.14 1.14 0.0 0 0 41.04 59.73
  L 49.63 59.85
  A 1.14 1.14 0.0 0 0 50.79 58.71
  L 50.83 48.57
  A 1.14 1.14 0.0 0 1 51.99 47.43
  L 61.61 47.53
  A 1.14 1.14 0.0 0 0 62.76 46.38
  L 62.72 37.62
  A 1.14 1.14 0.0 0 0 61.56 36.48
  L 51.92 36.59
  A 1.14 1.14 0.0 0 1 50.77 35.44
  L 50.87 25.92
  A 1.14 1.14 0.0 0 0 49.72 24.77
  L 41.05 24.80
  A 1.14 1.14 0.0 0 0 39.92 25.95
  L 40.00 35.41
  A 1.14 1.14 0.0 0 1 38.86 36.56
  L 29.12 36.51
  A 1.14 1.14 0.0 0 0 27.97 37.64
  L 27.84 46.35
  A 1.14 1.14 0.0 0 0 28.98 47.50
  L 38.79 47.46
  Z"
/>
<g fill="#94ff94">
<path d="
  M 31.19 17.63
  L 27.61 11.99
  A 0.57 0.57 0.0 0 1 28.10 11.11
  L 32.97 11.20
  A 0.57 0.57 0.0 0 1 33.44 11.48
  L 37.09 17.54
  A 0.57 0.57 0.0 0 1 37.09 18.12
  L 33.23 24.56
  A 0.57 0.57 0.0 0 1 32.73 24.84
  L 28.06 24.77
  A 0.57 0.57 0.0 0 1 27.59 23.89
  L 31.19 18.25
  A 0.57 0.57 0.0 0 0 31.19 17.63
  Z"
/>
<path d="
  M 11.32 17.76
  L 7.67 11.80
  A 0.40 0.40 0.0 0 1 8.02 11.19
  L 13.14 11.20
  A 0.40 0.40 0.0 0 1 13.48 11.39
  L 17.28 17.62
  A 0.40 0.40 0.0 0 1 17.29 18.04
  L 13.32 24.63
  A 0.40 0.40 0.0 0 1 12.97 24.82
  L 7.86 24.68
  A 0.40 0.40 0.0 0 1 7.53 24.06
  L 11.31 18.18
  A 0.40 0.40 0.0 0 0 11.32 17.76
  Z"
/>
<path d="
  M 21.25 17.77
  L 17.59 11.76
  A 0.35 0.35 0.0 0 1 17.89 11.23
  L 23.13 11.19
  A 0.35 0.35 0.0 0 1 23.43 11.36
  L 27.21 17.60
  A 0.35 0.35 0.0 0 1 27.21 17.96
  L 23.24 24.69
  A 0.35 0.35 0.0 0 1 22.92 24.86
  L 17.78 24.71
  A 0.35 0.35 0.0 0 1 17.49 24.17
  L 21.25 18.13
  A 0.35 0.35 0.0 0 0 21.25 17.77
  Z"
/>
<path d="
  M 38.79 47.46
  L 28.98 47.50
  A 1.14 1.14 0.0 0 1 27.84 46.35
  L 27.97 37.64
  A 1.14 1.14 0.0 0 1 29.12 36.51
  L 38.86 36.56
  A 1.14 1.14 0.0 0 0 40.00 35.41
  L 39.92 25.95
  A 1.14 1.14 0.0 0 1 41.05 24.80
  L 49.72 24.77
  A 1.14 1.14 0.0 0 1 50.87 25.92
  L 50.77 35.44
  A 1.14 1.14 0.0 0 0 51.92 36.59
  L 61.56 36.48
  A 1.14 1.14 0.0 0 1 62.72 37.62
  L 62.76 46.38
  A 1.14 1.14 0.0 0 1 61.61 47.53
  L 51.99 47.43
  A 1.14 1.14 0.0 0 0 50.83 48.57
  L 50.79 58.71
  A 1.14 1.14 0.0 0 1 49.63 59.85
  L 41.04 59.73
  A 1.14 1.14 0.0 0 1 39.91 58.59
  L 39.94 48.60
  A 1.14 1.14 0.0 0 0 38.79 47.46
  Z"
/>
</g>
</svg>
