<svg width="32" height="32" viewBox="0 0 32 32" fill="none" xmlns="http://www.w3.org/2000/svg">
<path d="M14.2582 8.05948L12.6216 5.4812C12.5959 5.44148 12.5814 5.3955 12.5798 5.34819C12.5782 5.30087 12.5896 5.25402 12.6126 5.21266C12.6356 5.17131 12.6695 5.137 12.7105 5.11344C12.7516 5.08987 12.7983 5.07794 12.8456 5.07891L15.0719 5.12006C15.1156 5.12166 15.1582 5.13423 15.1957 5.15659C15.2332 5.17896 15.2646 5.21041 15.2868 5.24806L16.9553 8.01834C16.9791 8.05849 16.9916 8.10428 16.9916 8.15091C16.9916 8.19755 16.9791 8.24333 16.9553 8.28348L15.1908 11.2275C15.1674 11.2671 15.1339 11.2998 15.0937 11.3223C15.0536 11.3448 15.0082 11.3562 14.9622 11.3555L12.8273 11.3235C12.7808 11.3228 12.7353 11.3097 12.6955 11.2854C12.6558 11.2612 12.6232 11.2268 12.6013 11.1857C12.5794 11.1446 12.5688 11.0984 12.5708 11.0519C12.5728 11.0054 12.5872 10.9603 12.6125 10.9212L14.2582 8.34291C14.2855 8.30071 14.3001 8.25149 14.3001 8.2012C14.3001 8.15091 14.2855 8.10169 14.2582 8.05948Z" fill="#94FF94"/>
<path d="M5.17483 8.11884L3.50626 5.39427C3.48896 5.36625 3.47955 5.33408 3.47902 5.30115C3.47849 5.26823 3.48686 5.23577 3.50325 5.20721C3.51964 5.17865 3.54343 5.15504 3.57212 5.13889C3.60082 5.12273 3.63334 5.11462 3.66626 5.11541L6.00683 5.11998C6.03799 5.12002 6.06863 5.12801 6.09583 5.14321C6.12303 5.15842 6.1459 5.18032 6.16226 5.20684L7.8994 8.05484C7.91789 8.08327 7.92811 8.11628 7.92892 8.15019C7.92973 8.1841 7.92109 8.21756 7.90397 8.24684L6.08911 11.2594C6.07235 11.2866 6.04876 11.3089 6.02069 11.3242C5.99262 11.3394 5.96105 11.347 5.92911 11.3463L3.59311 11.2823C3.56026 11.2819 3.52811 11.2728 3.50003 11.2557C3.47195 11.2386 3.44899 11.2143 3.43355 11.1853C3.41811 11.1563 3.41078 11.1237 3.41231 11.0909C3.41384 11.0581 3.42419 11.0263 3.44226 10.9988L5.17026 8.31084C5.18875 8.28241 5.19897 8.24939 5.19978 8.21549C5.20059 8.18158 5.19195 8.14812 5.17483 8.11884Z" fill="#94FF94"/>
<path d="M9.71422 8.12348L8.04108 5.37605C8.02652 5.35178 8.01866 5.32407 8.01831 5.29577C8.01795 5.26747 8.02511 5.23958 8.03905 5.21495C8.053 5.19032 8.07322 5.16982 8.09767 5.15556C8.12212 5.1413 8.14991 5.13378 8.17822 5.13376L10.5736 5.11548C10.6013 5.11549 10.6284 5.12266 10.6525 5.13627C10.6765 5.14989 10.6966 5.1695 10.7108 5.19319L12.4388 8.04576C12.4537 8.07062 12.4616 8.09906 12.4616 8.12805C12.4616 8.15704 12.4537 8.18548 12.4388 8.21034L10.6239 11.2869C10.609 11.312 10.5874 11.3325 10.5616 11.3462C10.5358 11.3599 10.5068 11.3662 10.4776 11.3646L8.12793 11.296C8.09932 11.2957 8.07131 11.2877 8.04684 11.2729C8.02236 11.2581 8.00231 11.237 7.98877 11.2118C7.97523 11.1865 7.9687 11.1582 7.96986 11.1296C7.97102 11.101 7.97982 11.0732 7.99536 11.0492L9.71422 8.28805C9.72913 8.26319 9.737 8.23475 9.737 8.20576C9.737 8.17678 9.72913 8.14834 9.71422 8.12348Z" fill="#94FF94"/>
<path d="M17.7325 21.696L13.248 21.7142C13.1791 21.7142 13.111 21.7006 13.0475 21.6741C12.9839 21.6477 12.9263 21.6089 12.8778 21.56C12.8294 21.5111 12.7911 21.4531 12.7652 21.3894C12.7393 21.3256 12.7262 21.2573 12.7268 21.1885L12.7863 17.2068C12.7869 17.1384 12.8009 17.0707 12.8277 17.0077C12.8544 16.9447 12.8933 16.8876 12.9421 16.8396C12.9909 16.7917 13.0487 16.7538 13.1122 16.7282C13.1756 16.7025 13.2435 16.6896 13.312 16.6902L17.7645 16.7131C17.8334 16.7131 17.9015 16.6995 17.965 16.673C18.0286 16.6465 18.0862 16.6077 18.1347 16.5588C18.1831 16.51 18.2214 16.452 18.2473 16.3882C18.2733 16.3245 18.2863 16.2562 18.2857 16.1874L18.2491 11.8628C18.2485 11.7944 18.2614 11.7265 18.287 11.663C18.3127 11.5996 18.3505 11.5418 18.3985 11.493C18.4465 11.4441 18.5036 11.4053 18.5666 11.3785C18.6296 11.3518 18.6972 11.3377 18.7657 11.3371L22.7291 11.3234C22.7983 11.3228 22.867 11.336 22.931 11.3622C22.9951 11.3884 23.0533 11.4271 23.1022 11.476C23.1511 11.5249 23.1898 11.5831 23.2161 11.6472C23.2423 11.7113 23.2554 11.7799 23.2548 11.8491L23.2091 16.2011C23.2085 16.2703 23.2217 16.3389 23.2479 16.403C23.2741 16.4671 23.3128 16.5253 23.3617 16.5742C23.4107 16.6231 23.4689 16.6618 23.5329 16.688C23.597 16.7142 23.6656 16.7274 23.7348 16.7268L28.1417 16.6765C28.2109 16.6753 28.2796 16.6879 28.3439 16.7135C28.4082 16.7392 28.4667 16.7774 28.5161 16.8259C28.5655 16.8744 28.6047 16.9323 28.6314 16.9961C28.6582 17.0599 28.672 17.1285 28.672 17.1977L28.6903 21.2022C28.6909 21.2715 28.6777 21.3401 28.6515 21.4041C28.6253 21.4682 28.5866 21.5264 28.5376 21.5753C28.4887 21.6243 28.4305 21.663 28.3664 21.6892C28.3024 21.7154 28.2337 21.7286 28.1645 21.728L23.7668 21.6822C23.6976 21.681 23.6289 21.6936 23.5646 21.7193C23.5003 21.7449 23.4418 21.7831 23.3924 21.8316C23.343 21.8801 23.3038 21.938 23.2771 22.0018C23.2503 22.0656 23.2365 22.1342 23.2365 22.2034L23.2183 26.8388C23.2183 26.908 23.2045 26.9766 23.1777 27.0404C23.151 27.1042 23.1118 27.1621 23.0624 27.2106C23.013 27.2591 22.9545 27.2973 22.8902 27.3229C22.8259 27.3486 22.7572 27.3612 22.688 27.36L18.7611 27.3051C18.6237 27.3039 18.4923 27.2485 18.3956 27.1509C18.2988 27.0533 18.2445 26.9214 18.2445 26.784L18.2583 22.2171C18.2583 22.1483 18.2446 22.0801 18.2182 22.0166C18.1917 21.9531 18.1529 21.8954 18.104 21.847C18.0551 21.7985 17.9971 21.7602 17.9334 21.7343C17.8696 21.7084 17.8014 21.6954 17.7325 21.696Z" fill="#94FF94"/>
</svg>
