<svg width="32" height="32" viewBox="0 0 32 32" fill="none" xmlns="http://www.w3.org/2000/svg">
<path d="M8.20117 3.83083L10.4732 3.87197C10.5036 3.87235 10.5335 3.88053 10.5599 3.89573C10.5863 3.91094 10.6084 3.93266 10.624 3.95883L12.3795 6.90283C12.396 6.93047 12.4047 6.96206 12.4047 6.99426C12.4047 7.02645 12.396 7.05804 12.3795 7.08568L10.6149 10.0343C10.5993 10.0604 10.5772 10.0821 10.5508 10.0973C10.5244 10.1126 10.4945 10.1207 10.464 10.1211L8.22403 10.1531C8.19231 10.1535 8.16105 10.1455 8.13348 10.1298C8.1059 10.1141 8.08302 10.0913 8.06718 10.0639C8.05134 10.0364 8.04312 10.0052 8.04337 9.97344C8.04362 9.94171 8.05233 9.91063 8.0686 9.8834L9.76003 7.14511C9.77654 7.11747 9.78526 7.08588 9.78526 7.05368C9.78526 7.02149 9.77654 6.98989 9.76003 6.96225L8.04575 4.10054C8.02947 4.07331 8.02076 4.04223 8.02051 4.0105C8.02026 3.97878 8.02848 3.94757 8.04432 3.92008C8.06016 3.89259 8.08305 3.86983 8.11062 3.85414C8.13819 3.83845 8.16945 3.8304 8.20117 3.83083Z" fill="#94FF94"/>
<path d="M14.1944 6.9851L12.4618 4.06853C12.4471 4.04495 12.439 4.01785 12.4383 3.99006C12.4376 3.96227 12.4444 3.93481 12.4579 3.91053C12.4715 3.88626 12.4913 3.86606 12.5153 3.85204C12.5393 3.83801 12.5666 3.83068 12.5944 3.83081L14.9029 3.83995C14.9294 3.83983 14.9555 3.84649 14.9787 3.85929C15.0019 3.87209 15.0215 3.89062 15.0355 3.9131L16.8458 6.9211C16.8612 6.94578 16.8694 6.97429 16.8694 7.00338C16.8694 7.03248 16.8612 7.06099 16.8458 7.08567L15.0447 10.0342C15.0306 10.0567 15.0111 10.0752 14.9879 10.088C14.9647 10.1008 14.9386 10.1075 14.9121 10.1074L12.6264 10.1577C12.5986 10.1578 12.5713 10.1505 12.5473 10.1364C12.5233 10.1224 12.5035 10.1022 12.4899 10.0779C12.4764 10.0537 12.4696 10.0262 12.4703 9.99842C12.471 9.97063 12.4791 9.94354 12.4938 9.91996L14.1898 7.1451C14.205 7.12135 14.2135 7.09392 14.2143 7.06573C14.2151 7.03755 14.2082 7.00967 14.1944 6.9851Z" fill="#94FF94"/>
<path d="M3.52003 9.91091L5.3486 7.12691C5.3659 7.10124 5.37514 7.071 5.37514 7.04005C5.37514 7.0091 5.3659 6.97886 5.3486 6.9532L3.47432 4.06862C3.45837 4.04498 3.44924 4.01741 3.44792 3.98892C3.4466 3.96043 3.45314 3.93213 3.46683 3.90712C3.48052 3.8821 3.50083 3.86133 3.52553 3.84708C3.55023 3.83283 3.57838 3.82566 3.60689 3.82634L6.0206 3.86748C6.0471 3.86736 6.07319 3.87402 6.0964 3.88682C6.1196 3.89962 6.13915 3.91814 6.15317 3.94062L7.94517 6.90748C7.96058 6.93216 7.96874 6.96067 7.96874 6.98977C7.96874 7.01886 7.96058 7.04737 7.94517 7.07205L6.1806 10.0252C6.16657 10.0477 6.14703 10.0662 6.12383 10.079C6.10062 10.0918 6.07453 10.0985 6.04803 10.0983L3.65717 10.1532C3.62828 10.1548 3.59953 10.1482 3.57414 10.1343C3.54876 10.1204 3.52776 10.0997 3.51351 10.0746C3.49926 10.0494 3.49232 10.0207 3.49347 9.9918C3.49462 9.96289 3.50382 9.93488 3.52003 9.91091Z" fill="#94FF94"/>
<path d="M24.6445 14.2217C25.6182 13.4171 26.7473 11.4194 28.297 12.7497C28.3596 12.804 28.4068 12.8739 28.4341 12.9524C28.4613 13.031 28.4677 13.1155 28.4525 13.1977C28.3123 13.9199 28.1691 14.691 28.0228 15.5108C27.8033 16.7451 26.2125 17.8331 25.3668 18.7337C25.2235 18.8891 25.0452 18.9668 24.8319 18.9668L20.1279 18.9714C19.939 18.9714 19.7774 19.0369 19.6433 19.1679L10.6925 28.1051C10.5401 28.2575 10.3557 28.3337 10.1393 28.3337L8.16448 28.3291C7.98467 28.3291 7.83229 28.2651 7.70734 28.1371L6.81591 27.2182C6.66048 27.0598 6.58276 26.8693 6.58276 26.6468L6.58734 24.5257C6.58734 24.3977 6.63305 24.2879 6.72448 24.1965L15.7302 15.2822C15.8999 15.1122 15.9952 14.8804 15.9953 14.6377L15.9816 11.1177C15.9816 10.9157 16.0455 10.7175 16.1645 10.5508L18.4868 7.33252C18.5904 7.18928 18.729 7.09937 18.9028 7.0628L21.5771 6.54166C21.7477 6.50814 21.9077 6.53557 22.057 6.62395C22.7976 7.06737 22.7245 8.3748 22.1165 8.92795C21.5268 9.4628 20.745 9.97937 20.585 10.8114C20.326 12.1523 20.5713 13.1672 21.321 13.8559C22.2033 14.6697 23.1496 14.3817 24.1965 14.3817C24.3641 14.3817 24.5134 14.3283 24.6445 14.2217ZM10.505 25.3211C10.505 25.0786 10.4087 24.8461 10.2373 24.6746C10.0658 24.5031 9.83325 24.4068 9.59076 24.4068C9.34828 24.4068 9.11573 24.5031 8.94427 24.6746C8.7728 24.8461 8.67648 25.0786 8.67648 25.3211C8.67648 25.5636 8.7728 25.7961 8.94427 25.9676C9.11573 26.139 9.34828 26.2354 9.59076 26.2354C9.83325 26.2354 10.0658 26.139 10.2373 25.9676C10.4087 25.7961 10.505 25.5636 10.505 25.3211Z" fill="#94FF94"/>
</svg>
