<?xml version="1.0" encoding="UTF-8" standalone="no"?>
<!DOCTYPE svg PUBLIC "-//W3C//DTD SVG 1.1//EN" "http://www.w3.org/Graphics/SVG/1.1/DTD/svg11.dtd">
<svg xmlns="http://www.w3.org/2000/svg" version="1.1" viewBox="0.00 0.00 70.00 70.00">
<g stroke-width="2.00" fill="none" stroke-linecap="butt">
<path stroke="#629a69" vector-effect="non-scaling-stroke" d="
  M 17.94 8.38
  A 0.39 0.39 0.0 0 0 17.60 8.97
  L 21.35 15.23
  A 0.39 0.39 0.0 0 1 21.35 15.63
  L 17.65 21.62
  A 0.39 0.39 0.0 0 0 17.99 22.21
  L 22.89 22.14
  A 0.39 0.39 0.0 0 0 23.22 21.95
  L 27.08 15.50
  A 0.39 0.39 0.0 0 0 27.08 15.10
  L 23.24 8.66
  A 0.39 0.39 0.0 0 0 22.91 8.47
  L 17.94 8.38"
/>
<path stroke="#629a69" vector-effect="non-scaling-stroke" d="
  M 31.05 15.28
  A 0.34 0.34 0.0 0 1 31.04 15.63
  L 27.33 21.70
  A 0.34 0.34 0.0 0 0 27.62 22.22
  L 32.62 22.11
  A 0.34 0.34 0.0 0 0 32.91 21.95
  L 36.85 15.50
  A 0.34 0.34 0.0 0 0 36.85 15.14
  L 32.89 8.56
  A 0.34 0.34 0.0 0 0 32.60 8.40
  L 27.55 8.38
  A 0.34 0.34 0.0 0 0 27.26 8.90
  L 31.05 15.28"
/>
<path stroke="#629a69" vector-effect="non-scaling-stroke" d="
  M 7.70 21.68
  A 0.34 0.34 0.0 0 0 8.00 22.21
  L 13.23 22.09
  A 0.34 0.34 0.0 0 0 13.52 21.93
  L 17.38 15.47
  A 0.34 0.34 0.0 0 0 17.38 15.11
  L 13.46 8.62
  A 0.34 0.34 0.0 0 0 13.17 8.46
  L 7.89 8.37
  A 0.34 0.34 0.0 0 0 7.60 8.90
  L 11.70 15.21
  A 0.34 0.34 0.0 0 1 11.70 15.59
  L 7.70 21.68"
/>
<path stroke="#629a69" vector-effect="non-scaling-stroke" d="
  M 52.93 31.46
  C 50.64 31.46 48.57 32.09 46.64 30.31
  Q 44.18 28.05 45.03 23.65
  C 45.38 21.83 47.09 20.70 48.38 19.53
  C 49.71 18.32 49.87 15.46 48.25 14.49
  Q 47.76 14.20 47.20 14.31
  L 41.35 15.45
  Q 40.78 15.57 40.44 16.04
  L 35.36 23.08
  A 2.16 2.11 -27.7 0 0 34.96 24.32
  L 34.99 32.02
  A 2.01 1.98 67.8 0 1 34.41 33.43
  L 14.71 52.93
  Q 14.41 53.23 14.41 53.65
  L 14.40 58.29
  Q 14.40 59.02 14.91 59.54
  L 16.86 61.55
  Q 17.27 61.97 17.86 61.97
  L 22.18 61.98
  Q 22.89 61.98 23.39 61.48
  L 42.97 41.93
  Q 43.41 41.50 44.03 41.50
  L 54.32 41.49
  Q 55.02 41.49 55.49 40.98
  C 57.34 39.01 60.82 36.63 61.30 33.93
  Q 61.78 31.24 62.24 28.87
  A 1.05 1.04 -64.4 0 0 61.90 27.89
  C 58.51 24.98 56.04 29.35 53.91 31.11
  Q 53.48 31.46 52.93 31.46"
/>
<path stroke="#629a69" vector-effect="non-scaling-stroke" d="
  M 22.98 55.39
  A 2.00 2.00 0.0 0 0 20.98 53.39
  A 2.00 2.00 0.0 0 0 18.98 55.39
  A 2.00 2.00 0.0 0 0 20.98 57.39
  A 2.00 2.00 0.0 0 0 22.98 55.39"
/>
</g>
<g fill="#2f353e">
<path d="
  M 0.00 0.00
  L 70.00 0.00
  L 70.00 70.00
  L 0.00 70.00
  L 0.00 0.00
  Z
  M 17.94 8.38
  A 0.39 0.39 0.0 0 0 17.60 8.97
  L 21.35 15.23
  A 0.39 0.39 0.0 0 1 21.35 15.63
  L 17.65 21.62
  A 0.39 0.39 0.0 0 0 17.99 22.21
  L 22.89 22.14
  A 0.39 0.39 0.0 0 0 23.22 21.95
  L 27.08 15.50
  A 0.39 0.39 0.0 0 0 27.08 15.10
  L 23.24 8.66
  A 0.39 0.39 0.0 0 0 22.91 8.47
  L 17.94 8.38
  Z
  M 31.05 15.28
  A 0.34 0.34 0.0 0 1 31.04 15.63
  L 27.33 21.70
  A 0.34 0.34 0.0 0 0 27.62 22.22
  L 32.62 22.11
  A 0.34 0.34 0.0 0 0 32.91 21.95
  L 36.85 15.50
  A 0.34 0.34 0.0 0 0 36.85 15.14
  L 32.89 8.56
  A 0.34 0.34 0.0 0 0 32.60 8.40
  L 27.55 8.38
  A 0.34 0.34 0.0 0 0 27.26 8.90
  L 31.05 15.28
  Z
  M 7.70 21.68
  A 0.34 0.34 0.0 0 0 8.00 22.21
  L 13.23 22.09
  A 0.34 0.34 0.0 0 0 13.52 21.93
  L 17.38 15.47
  A 0.34 0.34 0.0 0 0 17.38 15.11
  L 13.46 8.62
  A 0.34 0.34 0.0 0 0 13.17 8.46
  L 7.89 8.37
  A 0.34 0.34 0.0 0 0 7.60 8.90
  L 11.70 15.21
  A 0.34 0.34 0.0 0 1 11.70 15.59
  L 7.70 21.68
  Z
  M 52.93 31.46
  C 50.64 31.46 48.57 32.09 46.64 30.31
  Q 44.18 28.05 45.03 23.65
  C 45.38 21.83 47.09 20.70 48.38 19.53
  C 49.71 18.32 49.87 15.46 48.25 14.49
  Q 47.76 14.20 47.20 14.31
  L 41.35 15.45
  Q 40.78 15.57 40.44 16.04
  L 35.36 23.08
  A 2.16 2.11 -27.7 0 0 34.96 24.32
  L 34.99 32.02
  A 2.01 1.98 67.8 0 1 34.41 33.43
  L 14.71 52.93
  Q 14.41 53.23 14.41 53.65
  L 14.40 58.29
  Q 14.40 59.02 14.91 59.54
  L 16.86 61.55
  Q 17.27 61.97 17.86 61.97
  L 22.18 61.98
  Q 22.89 61.98 23.39 61.48
  L 42.97 41.93
  Q 43.41 41.50 44.03 41.50
  L 54.32 41.49
  Q 55.02 41.49 55.49 40.98
  C 57.34 39.01 60.82 36.63 61.30 33.93
  Q 61.78 31.24 62.24 28.87
  A 1.05 1.04 -64.4 0 0 61.90 27.89
  C 58.51 24.98 56.04 29.35 53.91 31.11
  Q 53.48 31.46 52.93 31.46
  Z"
/>
<circle cx="20.98" cy="55.39" r="2.00"/>
</g>
<g fill="#94ff94">
<path d="
  M 17.94 8.38
  L 22.91 8.47
  A 0.39 0.39 0.0 0 1 23.24 8.66
  L 27.08 15.10
  A 0.39 0.39 0.0 0 1 27.08 15.50
  L 23.22 21.95
  A 0.39 0.39 0.0 0 1 22.89 22.14
  L 17.99 22.21
  A 0.39 0.39 0.0 0 1 17.65 21.62
  L 21.35 15.63
  A 0.39 0.39 0.0 0 0 21.35 15.23
  L 17.60 8.97
  A 0.39 0.39 0.0 0 1 17.94 8.38
  Z"
/>
<path d="
  M 31.05 15.28
  L 27.26 8.90
  A 0.34 0.34 0.0 0 1 27.55 8.38
  L 32.60 8.40
  A 0.34 0.34 0.0 0 1 32.89 8.56
  L 36.85 15.14
  A 0.34 0.34 0.0 0 1 36.85 15.50
  L 32.91 21.95
  A 0.34 0.34 0.0 0 1 32.62 22.11
  L 27.62 22.22
  A 0.34 0.34 0.0 0 1 27.33 21.70
  L 31.04 15.63
  A 0.34 0.34 0.0 0 0 31.05 15.28
  Z"
/>
<path d="
  M 7.70 21.68
  L 11.70 15.59
  A 0.34 0.34 0.0 0 0 11.70 15.21
  L 7.60 8.90
  A 0.34 0.34 0.0 0 1 7.89 8.37
  L 13.17 8.46
  A 0.34 0.34 0.0 0 1 13.46 8.62
  L 17.38 15.11
  A 0.34 0.34 0.0 0 1 17.38 15.47
  L 13.52 21.93
  A 0.34 0.34 0.0 0 1 13.23 22.09
  L 8.00 22.21
  A 0.34 0.34 0.0 0 1 7.70 21.68
  Z"
/>
<path d="
  M 53.91 31.11
  C 56.04 29.35 58.51 24.98 61.90 27.89
  A 1.05 1.04 -64.4 0 1 62.24 28.87
  Q 61.78 31.24 61.30 33.93
  C 60.82 36.63 57.34 39.01 55.49 40.98
  Q 55.02 41.49 54.32 41.49
  L 44.03 41.50
  Q 43.41 41.50 42.97 41.93
  L 23.39 61.48
  Q 22.89 61.98 22.18 61.98
  L 17.86 61.97
  Q 17.27 61.97 16.86 61.55
  L 14.91 59.54
  Q 14.40 59.02 14.40 58.29
  L 14.41 53.65
  Q 14.41 53.23 14.71 52.93
  L 34.41 33.43
  A 2.01 1.98 67.8 0 0 34.99 32.02
  L 34.96 24.32
  A 2.16 2.11 -27.7 0 1 35.36 23.08
  L 40.44 16.04
  Q 40.78 15.57 41.35 15.45
  L 47.20 14.31
  Q 47.76 14.20 48.25 14.49
  C 49.87 15.46 49.71 18.32 48.38 19.53
  C 47.09 20.70 45.38 21.83 45.03 23.65
  Q 44.18 28.05 46.64 30.31
  C 48.57 32.09 50.64 31.46 52.93 31.46
  Q 53.48 31.46 53.91 31.11
  Z
  M 22.98 55.39
  A 2.00 2.00 0.0 0 0 20.98 53.39
  A 2.00 2.00 0.0 0 0 18.98 55.39
  A 2.00 2.00 0.0 0 0 20.98 57.39
  A 2.00 2.00 0.0 0 0 22.98 55.39
  Z"
/>
</g>
</svg>
