<svg width="32" height="32" viewBox="0 0 32 32" fill="none" xmlns="http://www.w3.org/2000/svg">
<path d="M17.0057 7.89481C18.2403 7.89481 19.2411 6.89397 19.2411 5.65938C19.2411 4.42479 18.2403 3.42395 17.0057 3.42395C15.7711 3.42395 14.7703 4.42479 14.7703 5.65938C14.7703 6.89397 15.7711 7.89481 17.0057 7.89481Z" fill="#94FF94"/>
<path d="M18.0389 20.4068C16.9022 19.6175 15.7395 18.819 14.5509 18.0114C14.0999 17.7036 13.8896 17.28 13.9201 16.7406C13.9242 16.6647 13.9096 16.5892 13.8777 16.5206C13.8458 16.452 13.7975 16.3925 13.7372 16.3474L10.5006 13.8926C10.3545 13.7818 10.2378 13.6367 10.1611 13.4701C10.0844 13.3035 10.0499 13.1206 10.0608 12.9375C10.0716 12.7545 10.1275 12.5769 10.2233 12.4205C10.3192 12.2642 10.4521 12.1339 10.6104 12.0411C11.805 11.3432 13.2115 10.5158 14.8298 9.55885C16.6858 8.45713 18.4824 9.30285 18.2766 11.5886C18.1029 13.4842 17.9338 15.3021 17.7692 17.0423C17.754 17.219 17.821 17.3562 17.9704 17.4537C18.6652 17.8987 19.3723 18.3512 20.0915 18.8114C20.6736 19.1832 20.9128 19.7227 20.8092 20.4297C20.5593 22.1577 20.3201 23.8339 20.0915 25.4583C19.9787 26.2781 19.5063 26.6682 18.6743 26.6286C18.5829 26.6225 18.493 26.6011 18.4046 26.5646C17.8073 26.2964 17.5543 25.8377 17.6458 25.1886L18.2538 20.896C18.2812 20.6888 18.2096 20.5257 18.0389 20.4068ZM13.5452 12.8274C13.5169 12.8374 13.4908 12.8531 13.4687 12.8736C13.4466 12.894 13.4288 12.9189 13.4165 12.9466C13.4041 12.9743 13.3974 13.0044 13.3967 13.0349C13.3961 13.0655 13.4015 13.096 13.4126 13.1246C13.4949 13.3257 13.6382 13.4933 13.8424 13.6274C14.0283 13.7524 14.1547 13.7067 14.2218 13.4903C14.2766 13.3074 14.3102 13.1063 14.3224 12.8868C14.3315 12.6644 14.2309 12.5897 14.0206 12.6628L13.5452 12.8274Z" fill="#94FF94"/>
<path d="M19.0492 13.5772C19.0485 13.5604 19.0513 13.5436 19.0571 13.5278C19.063 13.5121 19.0719 13.4976 19.0834 13.4853C19.0949 13.473 19.1086 13.4631 19.1239 13.4561C19.1392 13.4491 19.1558 13.4452 19.1726 13.4446L20.5623 13.3715C20.9035 13.3542 21.2428 13.3643 21.5608 13.4014C21.8787 13.4384 22.1691 13.5016 22.4153 13.5874C22.6616 13.6732 22.8588 13.7798 22.9958 13.9012C23.1328 14.0226 23.2068 14.1564 23.2137 14.2949L23.2229 14.4778C23.2307 14.6163 23.1711 14.757 23.0476 14.8918C22.924 15.0265 22.7389 15.1527 22.5029 15.2631C22.2668 15.3735 21.9844 15.4659 21.6718 15.5351C21.3592 15.6043 21.0226 15.6489 20.6812 15.6663L19.2869 15.7349C19.2537 15.7362 19.2213 15.7245 19.1965 15.7023C19.1718 15.6801 19.1567 15.6492 19.1543 15.616L19.0492 13.5772Z" fill="#94FF94"/>
<path d="M15.4559 20.3428C14.9759 21.4674 14.7062 22.5966 13.9839 23.6297C12.8928 25.1901 11.8795 26.6316 10.9439 27.9543C10.5446 28.515 10.0205 28.672 9.37131 28.4251C9.21284 28.3642 9.13512 28.2484 9.13817 28.0777C9.14731 27.3326 8.98274 26.4457 9.44446 25.7966C10.2521 24.6598 11.0292 23.5627 11.7759 22.5051C12.5622 21.3897 12.9005 20.0731 13.3896 18.8251C13.4323 18.7093 13.5039 18.6865 13.6045 18.7566L15.369 20.0274C15.417 20.0609 15.4518 20.1105 15.4676 20.1679C15.4834 20.2252 15.4792 20.287 15.4559 20.3428Z" fill="#94FF94"/>
</svg>
