<?xml version="1.0" encoding="UTF-8" standalone="no"?>
<!DOCTYPE svg PUBLIC "-//W3C//DTD SVG 1.1//EN" "http://www.w3.org/Graphics/SVG/1.1/DTD/svg11.dtd">
<svg xmlns="http://www.w3.org/2000/svg" version="1.1" viewBox="0.00 0.00 70.00 70.00">
<g stroke-width="2.00" fill="none" stroke-linecap="butt">
<path stroke="#575c63" vector-effect="non-scaling-stroke" d="
  M 42.09 12.38
  A 4.89 4.89 0.0 0 0 37.20 7.49
  A 4.89 4.89 0.0 0 0 32.31 12.38
  A 4.89 4.89 0.0 0 0 37.20 17.27
  A 4.89 4.89 0.0 0 0 42.09 12.38"
/>
<path stroke="#575c63" vector-effect="non-scaling-stroke" d="
  M 39.93 45.71
  L 38.60 55.10
  Q 38.30 57.23 40.26 58.11
  Q 40.55 58.23 40.85 58.25
  Q 43.58 58.38 43.95 55.69
  Q 44.70 50.36 45.52 44.69
  Q 45.86 42.37 43.95 41.15
  Q 41.59 39.64 39.31 38.18
  Q 38.82 37.86 38.87 37.28
  Q 39.41 31.57 39.98 25.35
  C 40.43 20.35 36.50 18.50 32.44 20.91
  Q 27.13 24.05 23.21 26.34
  A 2.44 2.44 0.0 0 0 22.97 30.39
  L 30.05 35.76
  A 1.01 1.00 -70.3 0 1 30.45 36.62
  Q 30.35 38.39 31.83 39.40
  Q 35.73 42.05 39.46 44.64
  Q 40.02 45.03 39.93 45.71"
/>
<path stroke="#575c63" vector-effect="non-scaling-stroke" d="
  M 41.67 29.70
  L 41.90 34.16
  A 0.28 0.28 0.0 0 0 42.19 34.42
  L 45.24 34.27
  A 5.69 2.31 -2.9 0 0 50.80 31.67
  L 50.78 31.27
  A 5.69 2.31 -2.9 0 0 44.98 29.25
  L 41.94 29.41
  A 0.28 0.28 0.0 0 0 41.67 29.70"
/>
<path stroke="#575c63" vector-effect="non-scaling-stroke" d="
  M 33.62 43.81
  L 29.76 41.03
  Q 29.43 40.80 29.29 41.18
  C 28.22 43.91 27.48 46.79 25.76 49.23
  Q 23.31 52.70 20.66 56.43
  C 19.65 57.85 20.01 59.79 19.99 61.42
  Q 19.98 61.98 20.50 62.18
  Q 22.63 62.99 23.94 61.15
  Q 27.01 56.81 30.59 51.69
  C 32.17 49.43 32.76 46.96 33.81 44.50
  A 0.58 0.56 -61.3 0 0 33.62 43.81"
/>
<path stroke="#575c63" vector-effect="non-scaling-stroke" d="
  M 29.63 28.06
  A 0.50 0.49 69.4 0 0 29.34 28.71
  Q 29.61 29.37 30.28 29.81
  Q 30.89 30.22 31.11 29.51
  Q 31.29 28.91 31.33 28.19
  Q 31.36 27.46 30.67 27.70
  L 29.63 28.06"
/>
</g>
<g fill="#2f353e">
<path d="
  M 0.00 0.00
  L 70.00 0.00
  L 70.00 70.00
  L 0.00 70.00
  L 0.00 0.00
  Z
  M 42.09 12.38
  A 4.89 4.89 0.0 0 0 37.20 7.49
  A 4.89 4.89 0.0 0 0 32.31 12.38
  A 4.89 4.89 0.0 0 0 37.20 17.27
  A 4.89 4.89 0.0 0 0 42.09 12.38
  Z
  M 39.93 45.71
  L 38.60 55.10
  Q 38.30 57.23 40.26 58.11
  Q 40.55 58.23 40.85 58.25
  Q 43.58 58.38 43.95 55.69
  Q 44.70 50.36 45.52 44.69
  Q 45.86 42.37 43.95 41.15
  Q 41.59 39.64 39.31 38.18
  Q 38.82 37.86 38.87 37.28
  Q 39.41 31.57 39.98 25.35
  C 40.43 20.35 36.50 18.50 32.44 20.91
  Q 27.13 24.05 23.21 26.34
  A 2.44 2.44 0.0 0 0 22.97 30.39
  L 30.05 35.76
  A 1.01 1.00 -70.3 0 1 30.45 36.62
  Q 30.35 38.39 31.83 39.40
  Q 35.73 42.05 39.46 44.64
  Q 40.02 45.03 39.93 45.71
  Z
  M 41.67 29.70
  L 41.90 34.16
  A 0.28 0.28 0.0 0 0 42.19 34.42
  L 45.24 34.27
  A 5.69 2.31 -2.9 0 0 50.80 31.67
  L 50.78 31.27
  A 5.69 2.31 -2.9 0 0 44.98 29.25
  L 41.94 29.41
  A 0.28 0.28 0.0 0 0 41.67 29.70
  Z
  M 33.62 43.81
  L 29.76 41.03
  Q 29.43 40.80 29.29 41.18
  C 28.22 43.91 27.48 46.79 25.76 49.23
  Q 23.31 52.70 20.66 56.43
  C 19.65 57.85 20.01 59.79 19.99 61.42
  Q 19.98 61.98 20.50 62.18
  Q 22.63 62.99 23.94 61.15
  Q 27.01 56.81 30.59 51.69
  C 32.17 49.43 32.76 46.96 33.81 44.50
  A 0.58 0.56 -61.3 0 0 33.62 43.81
  Z"
/>
<path d="
  M 29.63 28.06
  L 30.67 27.70
  Q 31.36 27.46 31.33 28.19
  Q 31.29 28.91 31.11 29.51
  Q 30.89 30.22 30.28 29.81
  Q 29.61 29.37 29.34 28.71
  A 0.50 0.49 69.4 0 1 29.63 28.06
  Z"
/>
</g>
<g fill="#94ff94">
<circle cx="37.20" cy="12.38" r="4.89"/>
<path d="
  M 39.46 44.64
  Q 35.73 42.05 31.83 39.40
  Q 30.35 38.39 30.45 36.62
  A 1.01 1.00 -70.3 0 0 30.05 35.76
  L 22.97 30.39
  A 2.44 2.44 0.0 0 1 23.21 26.34
  Q 27.13 24.05 32.44 20.91
  C 36.50 18.50 40.43 20.35 39.98 25.35
  Q 39.41 31.57 38.87 37.28
  Q 38.82 37.86 39.31 38.18
  Q 41.59 39.64 43.95 41.15
  Q 45.86 42.37 45.52 44.69
  Q 44.70 50.36 43.95 55.69
  Q 43.58 58.38 40.85 58.25
  Q 40.55 58.23 40.26 58.11
  Q 38.30 57.23 38.60 55.10
  L 39.93 45.71
  Q 40.02 45.03 39.46 44.64
  Z
  M 29.63 28.06
  A 0.50 0.49 69.4 0 0 29.34 28.71
  Q 29.61 29.37 30.28 29.81
  Q 30.89 30.22 31.11 29.51
  Q 31.29 28.91 31.33 28.19
  Q 31.36 27.46 30.67 27.70
  L 29.63 28.06
  Z"
/>
<path d="
  M 41.67 29.70
  A 0.28 0.28 0.0 0 1 41.94 29.41
  L 44.98 29.25
  A 5.69 2.31 -2.9 0 1 50.78 31.27
  L 50.80 31.67
  A 5.69 2.31 -2.9 0 1 45.24 34.27
  L 42.19 34.42
  A 0.28 0.28 0.0 0 1 41.90 34.16
  L 41.67 29.70
  Z"
/>
<path d="
  M 33.81 44.50
  C 32.76 46.96 32.17 49.43 30.59 51.69
  Q 27.01 56.81 23.94 61.15
  Q 22.63 62.99 20.50 62.18
  Q 19.98 61.98 19.99 61.42
  C 20.01 59.79 19.65 57.85 20.66 56.43
  Q 23.31 52.70 25.76 49.23
  C 27.48 46.79 28.22 43.91 29.29 41.18
  Q 29.43 40.80 29.76 41.03
  L 33.62 43.81
  A 0.58 0.56 -61.3 0 1 33.81 44.50
  Z"
/>
</g>
</svg>
