<?xml version="1.0" encoding="UTF-8" standalone="no"?>
<!DOCTYPE svg PUBLIC "-//W3C//DTD SVG 1.1//EN" "http://www.w3.org/Graphics/SVG/1.1/DTD/svg11.dtd">
<svg xmlns="http://www.w3.org/2000/svg" version="1.1" viewBox="0.00 0.00 70.00 70.00">
<g stroke-width="2.00" fill="none" stroke-linecap="butt">
<path stroke="#629a69" vector-effect="non-scaling-stroke" d="
  M 29.13 13.71
  Q 32.68 13.55 36.20 14.48
  Q 39.05 15.24 38.80 17.75
  Q 38.74 18.37 39.08 18.89
  L 47.19 31.32
  A 2.99 2.98 -37.7 0 0 51.69 31.89
  L 55.83 28.12
  A 2.98 2.98 0.0 0 0 55.70 23.60
  Q 49.76 18.80 44.55 14.48
  Q 43.06 13.24 41.22 13.97
  Q 40.68 14.18 40.23 13.83
  Q 35.79 10.40 29.33 11.25
  A 0.75 0.75 0.0 0 1 28.52 10.72
  Q 28.17 9.51 28.42 8.27
  Q 28.53 7.75 27.99 7.75
  L 24.48 7.75
  Q 23.83 7.75 23.87 8.40
  L 23.97 9.96
  Q 24.03 10.79 23.20 10.92
  C 19.39 11.48 15.88 12.39 13.47 15.45
  Q 12.74 16.36 13.11 17.47
  Q 13.15 17.60 13.24 17.72
  A 0.85 0.85 0.0 0 0 14.53 17.76
  Q 17.95 14.01 22.93 13.51
  A 0.95 0.95 0.0 0 1 23.94 14.22
  C 24.13 15.03 23.85 16.02 22.96 16.27
  C 17.86 17.69 14.36 22.50 14.37 27.99
  Q 14.39 39.81 14.38 50.88
  Q 14.38 51.52 15.02 51.52
  L 36.99 51.50
  Q 37.59 51.50 37.59 50.89
  Q 37.53 39.56 37.60 28.02
  C 37.63 22.47 34.39 17.96 29.13 16.45
  Q 28.58 16.29 28.41 15.74
  Q 28.19 15.04 28.38 14.31
  Q 28.53 13.74 29.13 13.71"
/>
<path stroke="#629a69" vector-effect="non-scaling-stroke" d="
  M 37.06 53.59
  L 14.90 53.55
  A 0.59 0.59 0.0 0 0 14.31 54.14
  L 14.30 56.25
  A 7.34 6.46 0.1 0 0 21.63 62.72
  L 30.29 62.74
  A 7.34 6.46 0.1 0 0 37.64 56.29
  L 37.65 54.18
  A 0.59 0.59 0.0 0 0 37.06 53.59"
/>
<path stroke="#629a69" vector-effect="non-scaling-stroke" d="
  M 21.69 43.36
  Q 22.71 42.92 23.74 43.33
  Q 25.67 44.08 25.85 46.13
  Q 25.91 46.85 26.63 46.73
  Q 35.07 45.27 33.95 37.09
  Q 33.76 35.63 32.94 36.86
  Q 32.69 37.24 32.52 37.68
  A 1.50 1.47 87.7 0 1 31.76 38.52
  Q 30.13 39.27 28.78 38.05
  A 2.17 2.16 29.1 0 1 28.16 35.87
  Q 28.56 34.47 29.07 33.10
  C 30.48 29.35 28.44 26.24 25.13 24.19
  A 0.31 0.31 0.0 0 0 24.66 24.53
  C 25.17 26.63 24.61 28.46 23.23 30.05
  C 19.30 34.59 15.07 38.42 19.93 44.75
  Q 20.56 45.57 20.62 44.54
  Q 20.67 43.79 21.69 43.36"
/>
</g>
<g fill="#2f353e">
<path d="
  M 0.00 0.00
  L 70.00 0.00
  L 70.00 70.00
  L 0.00 70.00
  L 0.00 0.00
  Z
  M 29.13 13.71
  Q 32.68 13.55 36.20 14.48
  Q 39.05 15.24 38.80 17.75
  Q 38.74 18.37 39.08 18.89
  L 47.19 31.32
  A 2.99 2.98 -37.7 0 0 51.69 31.89
  L 55.83 28.12
  A 2.98 2.98 0.0 0 0 55.70 23.60
  Q 49.76 18.80 44.55 14.48
  Q 43.06 13.24 41.22 13.97
  Q 40.68 14.18 40.23 13.83
  Q 35.79 10.40 29.33 11.25
  A 0.75 0.75 0.0 0 1 28.52 10.72
  Q 28.17 9.51 28.42 8.27
  Q 28.53 7.75 27.99 7.75
  L 24.48 7.75
  Q 23.83 7.75 23.87 8.40
  L 23.97 9.96
  Q 24.03 10.79 23.20 10.92
  C 19.39 11.48 15.88 12.39 13.47 15.45
  Q 12.74 16.36 13.11 17.47
  Q 13.15 17.60 13.24 17.72
  A 0.85 0.85 0.0 0 0 14.53 17.76
  Q 17.95 14.01 22.93 13.51
  A 0.95 0.95 0.0 0 1 23.94 14.22
  C 24.13 15.03 23.85 16.02 22.96 16.27
  C 17.86 17.69 14.36 22.50 14.37 27.99
  Q 14.39 39.81 14.38 50.88
  Q 14.38 51.52 15.02 51.52
  L 36.99 51.50
  Q 37.59 51.50 37.59 50.89
  Q 37.53 39.56 37.60 28.02
  C 37.63 22.47 34.39 17.96 29.13 16.45
  Q 28.58 16.29 28.41 15.74
  Q 28.19 15.04 28.38 14.31
  Q 28.53 13.74 29.13 13.71
  Z
  M 37.06 53.59
  L 14.90 53.55
  A 0.59 0.59 0.0 0 0 14.31 54.14
  L 14.30 56.25
  A 7.34 6.46 0.1 0 0 21.63 62.72
  L 30.29 62.74
  A 7.34 6.46 0.1 0 0 37.64 56.29
  L 37.65 54.18
  A 0.59 0.59 0.0 0 0 37.06 53.59
  Z"
/>
<path d="
  M 21.69 43.36
  Q 20.67 43.79 20.62 44.54
  Q 20.56 45.57 19.93 44.75
  C 15.07 38.42 19.30 34.59 23.23 30.05
  C 24.61 28.46 25.17 26.63 24.66 24.53
  A 0.31 0.31 0.0 0 1 25.13 24.19
  C 28.44 26.24 30.48 29.35 29.07 33.10
  Q 28.56 34.47 28.16 35.87
  A 2.17 2.16 29.1 0 0 28.78 38.05
  Q 30.13 39.27 31.76 38.52
  A 1.50 1.47 87.7 0 0 32.52 37.68
  Q 32.69 37.24 32.94 36.86
  Q 33.76 35.63 33.95 37.09
  Q 35.07 45.27 26.63 46.73
  Q 25.91 46.85 25.85 46.13
  Q 25.67 44.08 23.74 43.33
  Q 22.71 42.92 21.69 43.36
  Z"
/>
</g>
<g fill="#94ff94">
<path d="
  M 28.38 14.31
  Q 28.19 15.04 28.41 15.74
  Q 28.58 16.29 29.13 16.45
  C 34.39 17.96 37.63 22.47 37.60 28.02
  Q 37.53 39.56 37.59 50.89
  Q 37.59 51.50 36.99 51.50
  L 15.02 51.52
  Q 14.38 51.52 14.38 50.88
  Q 14.39 39.81 14.37 27.99
  C 14.36 22.50 17.86 17.69 22.96 16.27
  C 23.85 16.02 24.13 15.03 23.94 14.22
  A 0.95 0.95 0.0 0 0 22.93 13.51
  Q 17.95 14.01 14.53 17.76
  A 0.85 0.85 0.0 0 1 13.24 17.72
  Q 13.15 17.60 13.11 17.47
  Q 12.74 16.36 13.47 15.45
  C 15.88 12.39 19.39 11.48 23.20 10.92
  Q 24.03 10.79 23.97 9.96
  L 23.87 8.40
  Q 23.83 7.75 24.48 7.75
  L 27.99 7.75
  Q 28.53 7.75 28.42 8.27
  Q 28.17 9.51 28.52 10.72
  A 0.75 0.75 0.0 0 0 29.33 11.25
  Q 35.79 10.40 40.23 13.83
  Q 40.68 14.18 41.22 13.97
  Q 43.06 13.24 44.55 14.48
  Q 49.76 18.80 55.70 23.60
  A 2.98 2.98 0.0 0 1 55.83 28.12
  L 51.69 31.89
  A 2.99 2.98 -37.7 0 1 47.19 31.32
  L 39.08 18.89
  Q 38.74 18.37 38.80 17.75
  Q 39.05 15.24 36.20 14.48
  Q 32.68 13.55 29.13 13.71
  Q 28.53 13.74 28.38 14.31
  Z
  M 21.69 43.36
  Q 22.71 42.92 23.74 43.33
  Q 25.67 44.08 25.85 46.13
  Q 25.91 46.85 26.63 46.73
  Q 35.07 45.27 33.95 37.09
  Q 33.76 35.63 32.94 36.86
  Q 32.69 37.24 32.52 37.68
  A 1.50 1.47 87.7 0 1 31.76 38.52
  Q 30.13 39.27 28.78 38.05
  A 2.17 2.16 29.1 0 1 28.16 35.87
  Q 28.56 34.47 29.07 33.10
  C 30.48 29.35 28.44 26.24 25.13 24.19
  A 0.31 0.31 0.0 0 0 24.66 24.53
  C 25.17 26.63 24.61 28.46 23.23 30.05
  C 19.30 34.59 15.07 38.42 19.93 44.75
  Q 20.56 45.57 20.62 44.54
  Q 20.67 43.79 21.69 43.36
  Z"
/>
<path d="
  M 37.06 53.59
  A 0.59 0.59 0.0 0 1 37.65 54.18
  L 37.64 56.29
  A 7.34 6.46 0.1 0 1 30.29 62.74
  L 21.63 62.72
  A 7.34 6.46 0.1 0 1 14.30 56.25
  L 14.31 54.14
  A 0.59 0.59 0.0 0 1 14.90 53.55
  L 37.06 53.59
  Z"
/>
</g>
</svg>
