<svg width="32" height="32" viewBox="0 0 32 32" fill="none" xmlns="http://www.w3.org/2000/svg">
<path d="M12.9737 6.5417C12.9158 6.76418 12.9204 6.98208 12.9875 7.19542C13.0393 7.36304 13.149 7.47123 13.3166 7.51999C15.7212 8.21028 17.2023 10.272 17.1886 12.8091C17.1673 16.3261 17.1657 19.811 17.184 23.264C17.184 23.4499 17.0926 23.5428 16.9097 23.5428L6.86632 23.552C6.67127 23.552 6.57374 23.4545 6.57374 23.2594C6.57679 19.8857 6.57527 16.3977 6.56917 12.7954C6.5646 10.2857 8.1646 8.08685 10.496 7.4377C10.9029 7.32342 11.0309 6.87085 10.944 6.50056C10.9184 6.40033 10.8577 6.31256 10.7731 6.25305C10.6884 6.19355 10.5853 6.16622 10.4823 6.17599C8.9646 6.32837 7.6846 6.97599 6.64232 8.11885C6.60454 8.16025 6.55825 8.19298 6.50663 8.21481C6.45501 8.23664 6.39927 8.24704 6.34325 8.2453C6.28724 8.24356 6.23225 8.22973 6.18208 8.20475C6.13192 8.17976 6.08774 8.14422 6.0526 8.10056C6.02517 8.06399 6.00536 8.02589 5.99317 7.98628C5.88041 7.64799 5.93527 7.34018 6.15774 7.06285C7.25946 5.66399 8.86403 5.24799 10.6057 4.99199C10.8587 4.95237 10.976 4.80608 10.9577 4.55313L10.912 3.83999C10.8998 3.64189 10.9928 3.54285 11.1909 3.54285H12.7955C12.96 3.54285 13.0256 3.62208 12.992 3.78056C12.9158 4.15847 12.9311 4.5318 13.0377 4.90056C13.0609 4.97818 13.1108 5.04509 13.1786 5.08944C13.2463 5.13379 13.3276 5.15271 13.408 5.14285C15.3768 4.8838 17.0377 5.27694 18.3909 6.32228C18.528 6.42894 18.6789 6.45028 18.8435 6.38628C19.4042 6.1638 19.9116 6.24151 20.3657 6.61942C21.9536 7.93599 23.6526 9.3257 25.4629 10.7886C25.6154 10.9121 25.7395 11.0672 25.8266 11.2431C25.9136 11.4191 25.9616 11.6118 25.9672 11.8081C25.9729 12.0043 25.9361 12.1994 25.8593 12.3801C25.7825 12.5608 25.6675 12.7227 25.5223 12.8548L23.6297 14.5783C23.4833 14.7106 23.3101 14.8098 23.1219 14.8691C22.9337 14.9283 22.7351 14.9461 22.5396 14.9214C22.3441 14.8966 22.1565 14.8298 21.9896 14.7256C21.8226 14.6214 21.6804 14.4823 21.5726 14.3177L17.8652 8.63542C17.7616 8.47694 17.7189 8.30323 17.7372 8.11428C17.8134 7.34932 17.4172 6.85104 16.5486 6.61942C15.4758 6.33599 14.3985 6.21866 13.3166 6.26742C13.1337 6.27656 13.0195 6.36799 12.9737 6.5417ZM9.91546 19.8217C10.2263 19.6876 10.5387 19.683 10.8526 19.808C11.4408 20.0366 11.7623 20.4632 11.8172 21.088C11.8355 21.3074 11.9543 21.3988 12.1737 21.3623C14.7459 20.9173 15.8614 19.4484 15.52 16.9554C15.4621 16.5105 15.3082 16.4754 15.0583 16.8503C14.9821 16.9661 14.9181 17.091 14.8663 17.2251C14.8049 17.395 14.6799 17.5331 14.5189 17.6091C14.0221 17.8377 13.568 17.7661 13.1566 17.3943C13.0218 17.2701 12.9239 17.1113 12.8739 16.9354C12.8238 16.7595 12.8236 16.5734 12.8732 16.3977C12.9951 15.971 13.1337 15.5489 13.2892 15.1314C13.9337 13.4171 13.0012 11.9954 11.488 11.0583C11.464 11.0424 11.4357 11.0342 11.4069 11.0348C11.3781 11.0355 11.3502 11.0448 11.3269 11.0617C11.3035 11.0786 11.2859 11.1022 11.2763 11.1293C11.2667 11.1565 11.2656 11.1859 11.2732 11.2137C11.5063 12.1737 11.2503 13.0103 10.6195 13.7371C8.82289 15.8126 6.88917 17.5634 9.11089 20.4571C9.30289 20.707 9.40803 20.675 9.42632 20.3611C9.44155 20.1326 9.6046 19.9528 9.91546 19.8217Z" fill="#94FF94"/>
<path d="M16.9417 24.4983C17.0132 24.4983 17.0818 24.5267 17.1324 24.5773C17.183 24.6278 17.2114 24.6964 17.2114 24.768L17.2068 25.7326C17.2063 26.1204 17.119 26.5044 16.9499 26.8625C16.7808 27.2206 16.5331 27.5459 16.2211 27.8197C15.9091 28.0935 15.5388 28.3105 15.1314 28.4583C14.7241 28.6061 14.2875 28.6818 13.8468 28.6811L9.88797 28.672C8.9982 28.6706 8.14535 28.3582 7.51697 27.8035C6.88859 27.2489 6.53613 26.4974 6.53711 25.7143L6.54168 24.7497C6.54168 24.6782 6.5701 24.6096 6.62068 24.559C6.67126 24.5084 6.73986 24.48 6.8114 24.48L16.9417 24.4983Z" fill="#94FF94"/>
</svg>
