<svg width="32" height="32" viewBox="0 0 32 32" fill="none" xmlns="http://www.w3.org/2000/svg">
<path d="M12.9554 17.6366C13.1413 16.7375 13.0209 15.9924 12.5943 15.4011C12.2712 14.9501 12.1036 14.4579 12.0914 13.9246C12.0046 10.0663 17.6548 9.17942 19.4514 12.1966C20.1188 13.312 20.0686 14.4091 19.3006 15.488C18.8617 16.1051 18.9897 16.9097 18.9943 17.6091C18.9957 17.6952 19.0177 17.7794 19.0584 17.8543C19.099 17.9292 19.157 17.9925 19.2274 18.0388C20.4846 18.8663 22.6331 18.4594 23.968 17.9748C25.0971 17.568 25.2251 15.936 25.1977 14.9486C25.152 13.3882 24.9447 11.5748 24.576 9.50856C24.3063 8.0137 22.8114 7.94971 22.2903 6.72456C21.248 4.26056 24.4983 2.30856 26.1897 4.56685C27.2183 5.94285 27.7714 7.13142 27.7988 8.85942C27.8446 12.064 28.1554 15.5931 27.2046 18.5326C26.6194 20.3337 24.3566 21.0514 22.6377 21.2663C18.3314 21.8088 13.9276 21.8148 9.42627 21.2846C7.67541 21.0788 5.20227 20.2743 4.73141 18.4091C4.2316 16.4221 4.04113 14.3268 4.15998 12.1234C4.21484 11.1177 4.22856 10.112 4.20113 9.10628C4.14627 7.15885 4.9737 5.27085 6.34056 4.05028C7.95884 2.59656 10.4046 4.43885 9.79198 6.46856C9.34856 7.93142 7.61598 7.96799 7.38284 9.63656C7.03998 12.0914 6.5097 14.5143 7.04456 16.9417C7.08603 17.1327 7.17011 17.3117 7.29045 17.4653C7.4108 17.6189 7.5643 17.7431 7.73941 17.8286C9.05294 18.4686 10.5691 18.6225 12.288 18.2903C12.4507 18.259 12.6006 18.1804 12.7193 18.0641C12.8379 17.9479 12.92 17.7993 12.9554 17.6366ZM17.9788 12.8651C17.9785 12.694 17.9445 12.5246 17.8788 12.3667C17.813 12.2087 17.7168 12.0653 17.5956 11.9445C17.4744 11.8237 17.3306 11.728 17.1724 11.6628C17.0142 11.5976 16.8448 11.5642 16.6737 11.5645L15.3205 11.5669C15.1494 11.5672 14.9801 11.6012 14.8221 11.6669C14.6642 11.7327 14.5207 11.8289 14.3999 11.9501C14.2792 12.0713 14.1835 12.2151 14.1183 12.3733C14.0531 12.5315 14.0197 12.7009 14.02 12.872L14.0212 13.5669C14.0215 13.738 14.0554 13.9073 14.1212 14.0653C14.187 14.2233 14.2832 14.3667 14.4044 14.4875C14.5256 14.6083 14.6694 14.704 14.8275 14.7692C14.9857 14.8344 15.1552 14.8678 15.3263 14.8675L16.6794 14.8651C16.8505 14.8648 17.0199 14.8308 17.1778 14.765C17.3358 14.6993 17.4793 14.6031 17.6 14.4819C17.7208 14.3607 17.8165 14.2169 17.8817 14.0587C17.9469 13.9005 17.9803 13.731 17.98 13.5599L17.9788 12.8651Z" fill="#FF9494"/>
<path d="M17.5039 22.752H14.5508C14.4397 22.752 14.3496 22.842 14.3496 22.9531V28.2468C14.3496 28.3579 14.4397 28.448 14.5508 28.448H17.5039C17.615 28.448 17.705 28.3579 17.705 28.2468V22.9531C17.705 22.842 17.615 22.752 17.5039 22.752Z" fill="#FF9494"/>
</svg>
