<?xml version="1.0" encoding="UTF-8" standalone="no"?>
<!DOCTYPE svg PUBLIC "-//W3C//DTD SVG 1.1//EN" "http://www.w3.org/Graphics/SVG/1.1/DTD/svg11.dtd">
<svg xmlns="http://www.w3.org/2000/svg" version="1.1" viewBox="0.00 0.00 70.00 70.00">
<g stroke-width="2.00" fill="none" stroke-linecap="butt">
<path stroke="#575c63" vector-effect="non-scaling-stroke" d="
  M 28.34 38.58
  A 1.86 1.85 -89.3 0 1 26.88 40.01
  Q 21.24 41.10 16.93 39.00
  A 2.83 2.82 -83.1 0 1 15.41 37.06
  C 14.24 31.75 15.40 26.45 16.15 21.08
  C 16.66 17.43 20.45 17.35 21.42 14.15
  C 22.76 9.71 17.41 5.68 13.87 8.86
  C 10.88 11.53 9.07 15.66 9.19 19.92
  Q 9.28 23.22 9.10 26.52
  Q 8.71 33.75 10.35 40.27
  C 11.38 44.35 16.79 46.11 20.62 46.56
  Q 35.39 48.30 49.52 46.52
  C 53.28 46.05 58.23 44.48 59.51 40.54
  C 61.59 34.11 60.91 26.39 60.81 19.38
  C 60.75 15.60 59.54 13.00 57.29 9.99
  C 53.59 5.05 46.48 9.32 48.76 14.71
  C 49.90 17.39 53.17 17.53 53.76 20.80
  Q 54.97 27.58 55.12 32.70
  C 55.18 34.86 54.90 38.43 52.43 39.32
  C 49.51 40.38 44.81 41.27 42.06 39.46
  A 1.16 1.13 -74.1 0 1 41.55 38.52
  C 41.54 36.99 41.26 35.23 42.22 33.88
  Q 44.74 30.34 42.55 26.68
  C 38.62 20.08 26.26 22.02 26.45 30.46
  Q 26.49 32.21 27.55 33.69
  Q 28.95 35.63 28.34 38.58"
/>
<path stroke="#575c63" vector-effect="non-scaling-stroke" d="
  M 38.73 50.21
  A 0.44 0.44 0.0 0 0 38.29 49.77
  L 31.83 49.77
  A 0.44 0.44 0.0 0 0 31.39 50.21
  L 31.39 61.79
  A 0.44 0.44 0.0 0 0 31.83 62.23
  L 38.29 62.23
  A 0.44 0.44 0.0 0 0 38.73 61.79
  L 38.73 50.21"
/>
<path stroke="#575c63" vector-effect="non-scaling-stroke" d="
  M 39.3287 28.1424
  A 2.85 2.85 0.0 0 0 36.4737 25.2974
  L 33.5137 25.3026
  A 2.85 2.85 0.0 0 0 30.6687 28.1576
  L 30.6713 29.6776
  A 2.85 2.85 0.0 0 0 33.5263 32.5226
  L 36.4863 32.5174
  A 2.85 2.85 0.0 0 0 39.3313 29.6624
  L 39.3287 28.1424"
/>
</g>
<g fill="#2f353e">
<path d="
  M 0.00 0.00
  L 70.00 0.00
  L 70.00 70.00
  L 0.00 70.00
  L 0.00 0.00
  Z
  M 28.34 38.58
  A 1.86 1.85 -89.3 0 1 26.88 40.01
  Q 21.24 41.10 16.93 39.00
  A 2.83 2.82 -83.1 0 1 15.41 37.06
  C 14.24 31.75 15.40 26.45 16.15 21.08
  C 16.66 17.43 20.45 17.35 21.42 14.15
  C 22.76 9.71 17.41 5.68 13.87 8.86
  C 10.88 11.53 9.07 15.66 9.19 19.92
  Q 9.28 23.22 9.10 26.52
  Q 8.71 33.75 10.35 40.27
  C 11.38 44.35 16.79 46.11 20.62 46.56
  Q 35.39 48.30 49.52 46.52
  C 53.28 46.05 58.23 44.48 59.51 40.54
  C 61.59 34.11 60.91 26.39 60.81 19.38
  C 60.75 15.60 59.54 13.00 57.29 9.99
  C 53.59 5.05 46.48 9.32 48.76 14.71
  C 49.90 17.39 53.17 17.53 53.76 20.80
  Q 54.97 27.58 55.12 32.70
  C 55.18 34.86 54.90 38.43 52.43 39.32
  C 49.51 40.38 44.81 41.27 42.06 39.46
  A 1.16 1.13 -74.1 0 1 41.55 38.52
  C 41.54 36.99 41.26 35.23 42.22 33.88
  Q 44.74 30.34 42.55 26.68
  C 38.62 20.08 26.26 22.02 26.45 30.46
  Q 26.49 32.21 27.55 33.69
  Q 28.95 35.63 28.34 38.58
  Z
  M 38.73 50.21
  A 0.44 0.44 0.0 0 0 38.29 49.77
  L 31.83 49.77
  A 0.44 0.44 0.0 0 0 31.39 50.21
  L 31.39 61.79
  A 0.44 0.44 0.0 0 0 31.83 62.23
  L 38.29 62.23
  A 0.44 0.44 0.0 0 0 38.73 61.79
  L 38.73 50.21
  Z"
/>
<rect x="-4.33" y="-3.61" transform="translate(35.00,28.91) rotate(-0.1)" width="8.66" height="7.22" rx="2.85"/>
</g>
<g fill="#ff9494">
<path d="
  M 28.34 38.58
  Q 28.95 35.63 27.55 33.69
  Q 26.49 32.21 26.45 30.46
  C 26.26 22.02 38.62 20.08 42.55 26.68
  Q 44.74 30.34 42.22 33.88
  C 41.26 35.23 41.54 36.99 41.55 38.52
  A 1.16 1.13 -74.1 0 0 42.06 39.46
  C 44.81 41.27 49.51 40.38 52.43 39.32
  C 54.90 38.43 55.18 34.86 55.12 32.70
  Q 54.97 27.58 53.76 20.80
  C 53.17 17.53 49.90 17.39 48.76 14.71
  C 46.48 9.32 53.59 5.05 57.29 9.99
  C 59.54 13.00 60.75 15.60 60.81 19.38
  C 60.91 26.39 61.59 34.11 59.51 40.54
  C 58.23 44.48 53.28 46.05 49.52 46.52
  Q 35.39 48.30 20.62 46.56
  C 16.79 46.11 11.38 44.35 10.35 40.27
  Q 8.71 33.75 9.10 26.52
  Q 9.28 23.22 9.19 19.92
  C 9.07 15.66 10.88 11.53 13.87 8.86
  C 17.41 5.68 22.76 9.71 21.42 14.15
  C 20.45 17.35 16.66 17.43 16.15 21.08
  C 15.40 26.45 14.24 31.75 15.41 37.06
  A 2.83 2.82 -83.1 0 0 16.93 39.00
  Q 21.24 41.10 26.88 40.01
  A 1.86 1.85 -89.3 0 0 28.34 38.58
  Z
  M 39.3287 28.1424
  A 2.85 2.85 0.0 0 0 36.4737 25.2974
  L 33.5137 25.3026
  A 2.85 2.85 0.0 0 0 30.6687 28.1576
  L 30.6713 29.6776
  A 2.85 2.85 0.0 0 0 33.5263 32.5226
  L 36.4863 32.5174
  A 2.85 2.85 0.0 0 0 39.3313 29.6624
  L 39.3287 28.1424
  Z"
/>
<rect x="31.39" y="49.77" width="7.34" height="12.46" rx="0.44"/>
</g>
</svg>
