<?xml version="1.0" encoding="UTF-8" standalone="no"?>
<!DOCTYPE svg PUBLIC "-//W3C//DTD SVG 1.1//EN" "http://www.w3.org/Graphics/SVG/1.1/DTD/svg11.dtd">
<svg xmlns="http://www.w3.org/2000/svg" version="1.1" viewBox="0.00 0.00 70.00 70.00">
<g stroke-width="2.00" fill="none" stroke-linecap="butt">
<path stroke="#976569" vector-effect="non-scaling-stroke" d="
  M 52.71 21.75
  A 0.90 0.90 0.0 0 1 53.62 20.85
  L 60.84 20.95
  A 0.90 0.90 0.0 0 0 61.75 20.05
  L 61.75 17.44
  A 0.90 0.90 0.0 0 0 60.83 16.54
  L 53.61 16.68
  A 0.90 0.90 0.0 0 1 52.69 15.78
  L 52.71 8.20
  A 0.90 0.90 0.0 0 0 51.78 7.30
  L 49.33 7.39
  A 0.90 0.90 0.0 0 0 48.46 8.30
  L 48.55 15.77
  A 0.90 0.90 0.0 0 1 47.64 16.68
  L 40.16 16.64
  A 0.90 0.90 0.0 0 0 39.25 17.57
  L 39.33 20.01
  A 0.90 0.90 0.0 0 0 40.24 20.88
  L 47.65 20.84
  A 0.90 0.90 0.0 0 1 48.55 21.74
  L 48.48 29.18
  A 0.90 0.90 0.0 0 0 49.33 30.08
  L 51.75 30.20
  A 0.90 0.90 0.0 0 0 52.69 29.31
  L 52.71 21.75"
/>
<path stroke="#976569" vector-effect="non-scaling-stroke" d="
  M 11.40 26.96
  Q 10.33 26.57 9.28 26.72
  A 1.44 1.44 0.0 0 0 8.41 29.08
  L 13.12 34.60
  A 0.84 0.83 -47.7 0 0 14.43 34.53
  Q 15.38 33.17 15.23 31.50
  Q 15.18 30.95 15.53 30.53
  Q 19.07 26.35 23.13 27.65
  Q 23.78 27.86 24.31 27.41
  L 31.29 21.46
  Q 31.85 20.98 31.39 20.39
  Q 30.41 19.16 30.13 17.70
  C 28.89 11.11 34.91 11.35 39.34 11.44
  Q 43.43 11.51 39.53 10.27
  C 30.31 7.34 23.50 14.26 17.06 19.96
  Q 16.71 20.27 16.81 20.73
  C 17.45 23.49 14.39 25.45 12.51 26.81
  Q 12.00 27.18 11.40 26.96"
/>
<path stroke="#976569" vector-effect="non-scaling-stroke" d="
  M 31.91 24.12
  A 0.52 0.52 0.0 0 0 31.18 24.06
  L 25.87 28.51
  A 0.52 0.52 0.0 0 0 25.80 29.24
  L 37.78 44.30
  A 0.52 0.52 0.0 0 0 38.52 44.38
  L 44.62 39.29
  A 0.52 0.52 0.0 0 0 44.68 38.55
  L 31.91 24.12"
/>
<path stroke="#976569" vector-effect="non-scaling-stroke" d="
  M 49.71 59.22
  A 0.39 0.39 0.0 0 0 50.27 59.28
  L 57.21 53.31
  A 0.39 0.39 0.0 0 0 57.25 52.75
  L 46.47 40.67
  A 0.39 0.39 0.0 0 0 45.93 40.64
  L 39.68 45.92
  A 0.39 0.39 0.0 0 0 39.62 46.46
  L 49.71 59.22"
/>
<path stroke="#976569" vector-effect="non-scaling-stroke" d="
  M 59.0758 54.8871
  A 0.48 0.48 0.0 0 0 58.3994 54.8303
  L 51.4946 60.6652
  A 0.48 0.48 0.0 0 0 51.4378 61.3417
  L 52.6642 62.7929
  A 0.48 0.48 0.0 0 0 53.3406 62.8497
  L 60.2454 57.0148
  A 0.48 0.48 0.0 0 0 60.3022 56.3383
  L 59.0758 54.8871"
/>
</g>
<path fill="#2f353e" d="
  M 0.00 0.00
  L 70.00 0.00
  L 70.00 70.00
  L 0.00 70.00
  L 0.00 0.00
  Z
  M 52.71 21.75
  A 0.90 0.90 0.0 0 1 53.62 20.85
  L 60.84 20.95
  A 0.90 0.90 0.0 0 0 61.75 20.05
  L 61.75 17.44
  A 0.90 0.90 0.0 0 0 60.83 16.54
  L 53.61 16.68
  A 0.90 0.90 0.0 0 1 52.69 15.78
  L 52.71 8.20
  A 0.90 0.90 0.0 0 0 51.78 7.30
  L 49.33 7.39
  A 0.90 0.90 0.0 0 0 48.46 8.30
  L 48.55 15.77
  A 0.90 0.90 0.0 0 1 47.64 16.68
  L 40.16 16.64
  A 0.90 0.90 0.0 0 0 39.25 17.57
  L 39.33 20.01
  A 0.90 0.90 0.0 0 0 40.24 20.88
  L 47.65 20.84
  A 0.90 0.90 0.0 0 1 48.55 21.74
  L 48.48 29.18
  A 0.90 0.90 0.0 0 0 49.33 30.08
  L 51.75 30.20
  A 0.90 0.90 0.0 0 0 52.69 29.31
  L 52.71 21.75
  Z
  M 11.40 26.96
  Q 10.33 26.57 9.28 26.72
  A 1.44 1.44 0.0 0 0 8.41 29.08
  L 13.12 34.60
  A 0.84 0.83 -47.7 0 0 14.43 34.53
  Q 15.38 33.17 15.23 31.50
  Q 15.18 30.95 15.53 30.53
  Q 19.07 26.35 23.13 27.65
  Q 23.78 27.86 24.31 27.41
  L 31.29 21.46
  Q 31.85 20.98 31.39 20.39
  Q 30.41 19.16 30.13 17.70
  C 28.89 11.11 34.91 11.35 39.34 11.44
  Q 43.43 11.51 39.53 10.27
  C 30.31 7.34 23.50 14.26 17.06 19.96
  Q 16.71 20.27 16.81 20.73
  C 17.45 23.49 14.39 25.45 12.51 26.81
  Q 12.00 27.18 11.40 26.96
  Z
  M 31.91 24.12
  A 0.52 0.52 0.0 0 0 31.18 24.06
  L 25.87 28.51
  A 0.52 0.52 0.0 0 0 25.80 29.24
  L 37.78 44.30
  A 0.52 0.52 0.0 0 0 38.52 44.38
  L 44.62 39.29
  A 0.52 0.52 0.0 0 0 44.68 38.55
  L 31.91 24.12
  Z
  M 49.71 59.22
  A 0.39 0.39 0.0 0 0 50.27 59.28
  L 57.21 53.31
  A 0.39 0.39 0.0 0 0 57.25 52.75
  L 46.47 40.67
  A 0.39 0.39 0.0 0 0 45.93 40.64
  L 39.68 45.92
  A 0.39 0.39 0.0 0 0 39.62 46.46
  L 49.71 59.22
  Z
  M 59.0758 54.8871
  A 0.48 0.48 0.0 0 0 58.3994 54.8303
  L 51.4946 60.6652
  A 0.48 0.48 0.0 0 0 51.4378 61.3417
  L 52.6642 62.7929
  A 0.48 0.48 0.0 0 0 53.3406 62.8497
  L 60.2454 57.0148
  A 0.48 0.48 0.0 0 0 60.3022 56.3383
  L 59.0758 54.8871
  Z"
/>
<g fill="#ff9494">
<path d="
  M 52.71 21.75
  L 52.69 29.31
  A 0.90 0.90 0.0 0 1 51.75 30.20
  L 49.33 30.08
  A 0.90 0.90 0.0 0 1 48.48 29.18
  L 48.55 21.74
  A 0.90 0.90 0.0 0 0 47.65 20.84
  L 40.24 20.88
  A 0.90 0.90 0.0 0 1 39.33 20.01
  L 39.25 17.57
  A 0.90 0.90 0.0 0 1 40.16 16.64
  L 47.64 16.68
  A 0.90 0.90 0.0 0 0 48.55 15.77
  L 48.46 8.30
  A 0.90 0.90 0.0 0 1 49.33 7.39
  L 51.78 7.30
  A 0.90 0.90 0.0 0 1 52.71 8.20
  L 52.69 15.78
  A 0.90 0.90 0.0 0 0 53.61 16.68
  L 60.83 16.54
  A 0.90 0.90 0.0 0 1 61.75 17.44
  L 61.75 20.05
  A 0.90 0.90 0.0 0 1 60.84 20.95
  L 53.62 20.85
  A 0.90 0.90 0.0 0 0 52.71 21.75
  Z"
/>
<path d="
  M 12.51 26.81
  C 14.39 25.45 17.45 23.49 16.81 20.73
  Q 16.71 20.27 17.06 19.96
  C 23.50 14.26 30.31 7.34 39.53 10.27
  Q 43.43 11.51 39.34 11.44
  C 34.91 11.35 28.89 11.11 30.13 17.70
  Q 30.41 19.16 31.39 20.39
  Q 31.85 20.98 31.29 21.46
  L 24.31 27.41
  Q 23.78 27.86 23.13 27.65
  Q 19.07 26.35 15.53 30.53
  Q 15.18 30.95 15.23 31.50
  Q 15.38 33.17 14.43 34.53
  A 0.84 0.83 -47.7 0 1 13.12 34.60
  L 8.41 29.08
  A 1.44 1.44 0.0 0 1 9.28 26.72
  Q 10.33 26.57 11.40 26.96
  Q 12.00 27.18 12.51 26.81
  Z"
/>
<path d="
  M 31.91 24.12
  L 44.68 38.55
  A 0.52 0.52 0.0 0 1 44.62 39.29
  L 38.52 44.38
  A 0.52 0.52 0.0 0 1 37.78 44.30
  L 25.80 29.24
  A 0.52 0.52 0.0 0 1 25.87 28.51
  L 31.18 24.06
  A 0.52 0.52 0.0 0 1 31.91 24.12
  Z"
/>
<path d="
  M 49.71 59.22
  L 39.62 46.46
  A 0.39 0.39 0.0 0 1 39.68 45.92
  L 45.93 40.64
  A 0.39 0.39 0.0 0 1 46.47 40.67
  L 57.25 52.75
  A 0.39 0.39 0.0 0 1 57.21 53.31
  L 50.27 59.28
  A 0.39 0.39 0.0 0 1 49.71 59.22
  Z"
/>
<rect x="-5.00" y="-1.43" transform="translate(55.87,58.84) rotate(-40.2)" width="10.00" height="2.86" rx="0.48"/>
</g>
</svg>
