<svg width="32" height="32" viewBox="0 0 32 32" fill="none" xmlns="http://www.w3.org/2000/svg">
<path d="M24.096 9.94286L24.0869 13.3989C24.0863 13.4541 24.0746 13.5086 24.0525 13.5592C24.0305 13.6098 23.9984 13.6555 23.9583 13.6935C23.9182 13.7314 23.8709 13.7609 23.8191 13.7802C23.7674 13.7995 23.7123 13.8082 23.6571 13.8057L22.5509 13.7509C22.4457 13.745 22.3469 13.6991 22.2746 13.6226C22.2023 13.546 22.1621 13.4447 22.1623 13.3394L22.1943 9.93829C22.1943 9.82917 22.1509 9.72452 22.0738 9.64736C21.9966 9.5702 21.892 9.52686 21.7829 9.52686L18.3954 9.54514C18.2879 9.5464 18.1841 9.50547 18.1063 9.43113C18.0286 9.35679 17.983 9.25495 17.9794 9.14743L17.9429 8.032C17.941 7.97644 17.9504 7.92108 17.9706 7.86926C17.9907 7.81745 18.0211 7.77025 18.06 7.73051C18.0989 7.69078 18.1454 7.65934 18.1968 7.63808C18.2481 7.61683 18.3033 7.60621 18.3589 7.60686L21.7783 7.62514C21.8331 7.62575 21.8875 7.61541 21.9382 7.59472C21.989 7.57403 22.0351 7.54342 22.0738 7.50466C22.1126 7.46591 22.1432 7.41981 22.1639 7.36906C22.1846 7.31831 22.1949 7.26394 22.1943 7.20914L22.1531 3.79429C22.1519 3.68671 22.1928 3.58293 22.2672 3.50517C22.3415 3.42741 22.4433 3.38186 22.5509 3.37829L23.6709 3.33714C23.726 3.3353 23.781 3.34458 23.8325 3.36444C23.884 3.38429 23.931 3.4143 23.9707 3.45269C24.0104 3.49108 24.0419 3.53706 24.0634 3.58789C24.085 3.63872 24.096 3.69337 24.096 3.74857L24.0869 7.21371C24.0868 7.26852 24.0978 7.32278 24.119 7.3733C24.1403 7.42382 24.1714 7.46959 24.2106 7.50792C24.2498 7.54625 24.2962 7.57636 24.3472 7.59649C24.3981 7.61662 24.4526 7.62636 24.5074 7.62514L27.808 7.56114C27.8628 7.55993 27.9173 7.56967 27.9683 7.5898C28.0192 7.60993 28.0657 7.64004 28.1049 7.67837C28.144 7.71669 28.1752 7.76246 28.1964 7.81298C28.2176 7.86351 28.2286 7.91776 28.2286 7.97257V9.16571C28.2286 9.22013 28.2178 9.27401 28.1968 9.32422C28.1759 9.37444 28.1451 9.42 28.1065 9.45827C28.0678 9.49653 28.0219 9.52674 27.9714 9.54715C27.921 9.56755 27.867 9.57775 27.8126 9.57714L24.512 9.53143C24.4576 9.53082 24.4036 9.54102 24.3531 9.56142C24.3027 9.58183 24.2568 9.61204 24.2181 9.6503C24.1794 9.68857 24.1487 9.73413 24.1277 9.78435C24.1068 9.83456 24.096 9.88844 24.096 9.94286Z" fill="#FF9494"/>
<path d="M5.7189 12.256C6.57833 11.6343 7.97718 10.7383 7.68461 9.47654C7.65414 9.33635 7.69223 9.21902 7.7989 9.12454C10.7429 6.51883 13.856 3.3554 18.0709 4.69483C19.2595 5.07273 19.2305 5.25102 17.984 5.22968C15.9589 5.18854 13.2069 5.07883 13.7738 8.0914C13.8591 8.53635 14.0511 8.94625 14.3498 9.32111C14.4899 9.50092 14.4747 9.66397 14.304 9.81025L11.1132 12.5303C10.9517 12.6674 10.7718 12.704 10.5738 12.64C9.33642 12.2438 8.17833 12.6826 7.09947 13.9565C6.9928 14.0845 6.94709 14.2323 6.96233 14.4C7.00804 14.9089 6.88614 15.3706 6.59661 15.7851C6.56281 15.8323 6.51885 15.8714 6.46803 15.8993C6.41721 15.9273 6.36085 15.9434 6.30321 15.9465C6.24556 15.9496 6.18812 15.9395 6.13521 15.9171C6.0823 15.8947 6.03531 15.8605 5.99775 15.8171L3.84461 13.2937C3.76831 13.2047 3.71715 13.097 3.69642 12.9816C3.67568 12.8663 3.68613 12.7474 3.72667 12.6375C3.76721 12.5275 3.83638 12.4303 3.92703 12.356C4.01768 12.2817 4.12653 12.233 4.24233 12.2148C4.56233 12.1691 4.88537 12.2057 5.21147 12.3245C5.39433 12.3916 5.56347 12.3687 5.7189 12.256Z" fill="#FF9494"/>
<path d="M14.5873 11.0262L20.425 17.6228C20.4457 17.6467 20.4614 17.6745 20.4713 17.7045C20.4811 17.7345 20.4849 17.7662 20.4823 17.7977C20.4798 17.8292 20.471 17.8599 20.4564 17.8879C20.4419 17.916 20.4219 17.9409 20.3976 17.9611L17.609 20.2879C17.5846 20.3081 17.5563 20.3232 17.526 20.3323C17.4956 20.3414 17.4637 20.3443 17.4322 20.3409C17.4007 20.3375 17.3701 20.3278 17.3424 20.3125C17.3147 20.2971 17.2903 20.2763 17.2707 20.2514L11.7942 13.3668C11.7543 13.3182 11.7353 13.2559 11.7413 13.1933C11.7473 13.1308 11.7778 13.0732 11.8262 13.0331L14.2536 10.9988C14.3016 10.9584 14.3636 10.9387 14.4261 10.9438C14.4886 10.9489 14.5466 10.9786 14.5873 11.0262Z" fill="#FF9494"/>
<path d="M22.7245 27.072L18.1119 21.2389C18.0835 21.2023 18.0704 21.156 18.0756 21.1099C18.0807 21.0638 18.1035 21.0215 18.1393 20.992L20.9965 18.5783C21.0314 18.5482 21.0766 18.5329 21.1227 18.5354C21.1687 18.538 21.2119 18.5583 21.2433 18.592L26.1713 24.1143C26.1873 24.1321 26.1996 24.153 26.2074 24.1757C26.2151 24.1983 26.2183 24.2223 26.2166 24.2462C26.2149 24.2701 26.2084 24.2934 26.1974 24.3147C26.1865 24.336 26.1714 24.355 26.153 24.3703L22.9805 27.0995C22.9621 27.115 22.9407 27.1266 22.9177 27.1336C22.8947 27.1406 22.8705 27.1429 22.8466 27.1404C22.8227 27.1378 22.7995 27.1304 22.7786 27.1187C22.7576 27.1069 22.7392 27.0911 22.7245 27.072Z" fill="#FF9494"/>
<path d="M26.6968 25.0652L23.5404 27.7326C23.4478 27.8109 23.4362 27.9493 23.5144 28.0419L24.0751 28.7053C24.1533 28.7978 24.2917 28.8095 24.3843 28.7312L27.5407 26.0638C27.6333 25.9856 27.6449 25.8472 27.5667 25.7546L27.0061 25.0912C26.9279 24.9986 26.7894 24.987 26.6968 25.0652Z" fill="#FF9494"/>
</svg>
