<?xml version="1.0" encoding="UTF-8" standalone="no"?>
<!DOCTYPE svg PUBLIC "-//W3C//DTD SVG 1.1//EN" "http://www.w3.org/Graphics/SVG/1.1/DTD/svg11.dtd">
<svg xmlns="http://www.w3.org/2000/svg" version="1.1" viewBox="0.00 0.00 70.00 70.00">
<g stroke-width="2.00" fill="none" stroke-linecap="butt">
<path stroke="#575c63" vector-effect="non-scaling-stroke" d="
  M 56.74 43.37
  A 1.52 1.52 0.0 0 0 57.27 42.22
  L 57.26 10.27
  A 1.52 1.52 0.0 0 0 55.74 8.75
  L 14.26 8.82
  A 1.52 1.52 0.0 0 0 12.74 10.33
  L 12.63 42.21
  A 1.52 1.52 0.0 0 0 13.16 43.37
  L 33.97 61.34
  A 1.52 1.52 0.0 0 0 35.95 61.34
  L 56.74 43.37"
/>
<path stroke="#575c63" vector-effect="non-scaling-stroke" d="
  M 15.55 11.36
  A 0.33 0.33 0.0 0 0 15.22 11.69
  L 15.27 41.57
  A 0.33 0.33 0.0 0 0 15.38 41.82
  L 34.74 58.54
  A 0.33 0.33 0.0 0 0 35.18 58.54
  L 54.58 41.80
  A 0.33 0.33 0.0 0 0 54.69 41.55
  L 54.71 11.76
  A 0.33 0.33 0.0 0 0 54.38 11.43
  L 15.55 11.36"
/>
<path stroke="#575c63" vector-effect="non-scaling-stroke" d="
  M 20.51 16.24
  A 0.35 0.35 0.0 0 0 20.16 16.59
  L 20.19 38.46
  A 0.35 0.35 0.0 0 0 20.32 38.72
  L 34.78 50.69
  A 0.35 0.35 0.0 0 0 35.22 50.69
  L 49.70 38.71
  A 0.35 0.35 0.0 0 0 49.83 38.44
  L 49.82 16.58
  A 0.35 0.35 0.0 0 0 49.47 16.23
  L 20.51 16.24"
/>
</g>
<g fill="#2f353e">
<path d="
  M 0.00 0.00
  L 70.00 0.00
  L 70.00 70.00
  L 0.00 70.00
  L 0.00 0.00
  Z
  M 56.74 43.37
  A 1.52 1.52 0.0 0 0 57.27 42.22
  L 57.26 10.27
  A 1.52 1.52 0.0 0 0 55.74 8.75
  L 14.26 8.82
  A 1.52 1.52 0.0 0 0 12.74 10.33
  L 12.63 42.21
  A 1.52 1.52 0.0 0 0 13.16 43.37
  L 33.97 61.34
  A 1.52 1.52 0.0 0 0 35.95 61.34
  L 56.74 43.37
  Z"
/>
<path d="
  M 15.55 11.36
  L 54.38 11.43
  A 0.33 0.33 0.0 0 1 54.71 11.76
  L 54.69 41.55
  A 0.33 0.33 0.0 0 1 54.58 41.80
  L 35.18 58.54
  A 0.33 0.33 0.0 0 1 34.74 58.54
  L 15.38 41.82
  A 0.33 0.33 0.0 0 1 15.27 41.57
  L 15.22 11.69
  A 0.33 0.33 0.0 0 1 15.55 11.36
  Z
  M 20.51 16.24
  A 0.35 0.35 0.0 0 0 20.16 16.59
  L 20.19 38.46
  A 0.35 0.35 0.0 0 0 20.32 38.72
  L 34.78 50.69
  A 0.35 0.35 0.0 0 0 35.22 50.69
  L 49.70 38.71
  A 0.35 0.35 0.0 0 0 49.83 38.44
  L 49.82 16.58
  A 0.35 0.35 0.0 0 0 49.47 16.23
  L 20.51 16.24
  Z"
/>
</g>
<g fill="#ff9494">
<path d="
  M 56.74 43.37
  L 35.95 61.34
  A 1.52 1.52 0.0 0 1 33.97 61.34
  L 13.16 43.37
  A 1.52 1.52 0.0 0 1 12.63 42.21
  L 12.74 10.33
  A 1.52 1.52 0.0 0 1 14.26 8.82
  L 55.74 8.75
  A 1.52 1.52 0.0 0 1 57.26 10.27
  L 57.27 42.22
  A 1.52 1.52 0.0 0 1 56.74 43.37
  Z
  M 15.55 11.36
  A 0.33 0.33 0.0 0 0 15.22 11.69
  L 15.27 41.57
  A 0.33 0.33 0.0 0 0 15.38 41.82
  L 34.74 58.54
  A 0.33 0.33 0.0 0 0 35.18 58.54
  L 54.58 41.80
  A 0.33 0.33 0.0 0 0 54.69 41.55
  L 54.71 11.76
  A 0.33 0.33 0.0 0 0 54.38 11.43
  L 15.55 11.36
  Z"
/>
<path d="
  M 20.51 16.24
  L 49.47 16.23
  A 0.35 0.35 0.0 0 1 49.82 16.58
  L 49.83 38.44
  A 0.35 0.35 0.0 0 1 49.70 38.71
  L 35.22 50.69
  A 0.35 0.35 0.0 0 1 34.78 50.69
  L 20.32 38.72
  A 0.35 0.35 0.0 0 1 20.19 38.46
  L 20.16 16.59
  A 0.35 0.35 0.0 0 1 20.51 16.24
  Z"
/>
</g>
</svg>
