<svg width="32" height="32" viewBox="0 0 32 32" fill="none" xmlns="http://www.w3.org/2000/svg">
<path d="M25.9383 19.8263L16.4343 28.0411C16.3083 28.1493 16.1477 28.2087 15.9817 28.2087C15.8157 28.2087 15.6551 28.1493 15.5291 28.0411L6.01597 19.8263C5.93959 19.7607 5.87836 19.6793 5.83653 19.5878C5.79469 19.4962 5.77325 19.3967 5.77369 19.296L5.82397 4.72229C5.82518 4.53879 5.89892 4.36322 6.0291 4.2339C6.15928 4.10458 6.33533 4.032 6.51883 4.032L25.4811 4C25.6654 4 25.8421 4.07321 25.9725 4.20352C26.1028 4.33383 26.176 4.51057 26.176 4.69486L26.1805 19.3006C26.1803 19.4005 26.1586 19.4991 26.1168 19.5899C26.0749 19.6806 26.0141 19.7612 25.9383 19.8263ZM7.10855 5.19314C7.06854 5.19314 7.03016 5.20904 7.00187 5.23733C6.97358 5.26562 6.95769 5.30399 6.95769 5.344L6.98055 19.0034C6.98028 19.025 6.98464 19.0463 6.99331 19.066C7.00198 19.0857 7.01478 19.1034 7.03083 19.1177L15.8811 26.7611C15.9088 26.7859 15.9446 26.7996 15.9817 26.7996C16.0188 26.7996 16.0546 26.7859 16.0823 26.7611L24.9508 19.1086C24.9669 19.0942 24.9797 19.0766 24.9884 19.0569C24.997 19.0372 25.0014 19.0158 25.0011 18.9943L25.0103 5.376C25.0103 5.33599 24.9944 5.29762 24.9661 5.26933C24.9378 5.24104 24.8994 5.22514 24.8594 5.22514L7.10855 5.19314Z" fill="#FF9494"/>
<path d="M9.37606 7.42401L22.6149 7.41943C22.6574 7.41943 22.6981 7.43629 22.7281 7.4663C22.7581 7.4963 22.7749 7.537 22.7749 7.57943L22.7795 17.5726C22.7793 17.5963 22.7739 17.6196 22.7637 17.641C22.7534 17.6623 22.7385 17.6811 22.7201 17.696L16.1006 23.1726C16.0722 23.1956 16.0367 23.2081 16.0001 23.2081C15.9635 23.2081 15.928 23.1956 15.8995 23.1726L9.28921 17.7006C9.27136 17.6862 9.25682 17.6681 9.24657 17.6476C9.23632 17.6271 9.23059 17.6046 9.22978 17.5817L9.21606 7.58401C9.21606 7.54157 9.23292 7.50087 9.26293 7.47087C9.29293 7.44086 9.33363 7.42401 9.37606 7.42401Z" fill="#FF9494"/>
</svg>
