<svg width="32" height="32" viewBox="0 0 32 32" fill="none" xmlns="http://www.w3.org/2000/svg">
<path d="M24.6628 12.1235H21.6274C21.6094 12.1235 21.5916 12.1199 21.5749 12.113C21.5583 12.1061 21.5432 12.096 21.5304 12.0833C21.5177 12.0706 21.5076 12.0554 21.5007 12.0388C21.4938 12.0222 21.4903 12.0043 21.4903 11.9863L21.4811 8.93261C21.4811 8.9146 21.4776 8.89677 21.4707 8.88013C21.4638 8.86349 21.4537 8.84837 21.441 8.83564C21.4282 8.8229 21.4131 8.8128 21.3965 8.80591C21.3798 8.79902 21.362 8.79547 21.344 8.79547L18.5051 8.78633C18.4788 8.78601 18.4531 8.77812 18.4311 8.7636C18.4092 8.74908 18.3918 8.72853 18.3812 8.70443C18.3706 8.68032 18.3672 8.65367 18.3713 8.62766C18.3755 8.60165 18.387 8.57738 18.4046 8.55776L23.0171 3.43319C23.03 3.41934 23.0455 3.40829 23.0628 3.40074C23.0801 3.39318 23.0988 3.38928 23.1177 3.38928C23.1366 3.38928 23.1553 3.39318 23.1726 3.40074C23.1899 3.40829 23.2054 3.41934 23.2183 3.43319L27.8994 8.60347C27.917 8.6231 27.9285 8.64737 27.9326 8.67338C27.9368 8.69939 27.9333 8.72604 27.9227 8.75014C27.9121 8.77425 27.8948 8.79479 27.8728 8.80931C27.8509 8.82384 27.8252 8.83173 27.7988 8.83204L24.896 8.77719C24.8776 8.77657 24.8593 8.77967 24.8421 8.78628C24.8249 8.7929 24.8093 8.8029 24.796 8.8157C24.7828 8.8285 24.7723 8.84382 24.7651 8.86077C24.758 8.87771 24.7543 8.89593 24.7543 8.91433L24.8 11.9863C24.8 12.0227 24.7855 12.0576 24.7598 12.0833C24.7341 12.109 24.6992 12.1235 24.6628 12.1235Z" fill="#FF9494"/>
<path d="M10.0571 18.7017L4.01364 18.6605C3.66926 18.6575 3.62354 18.5386 3.8765 18.304L4.40221 17.8103C4.44172 17.7707 4.47694 17.7279 4.50735 17.6823L13.0102 4.20569C13.4003 3.58397 13.5329 3.63426 13.4079 4.35654L11.7439 14.0571C11.7379 14.0946 11.7402 14.133 11.7506 14.1695C11.761 14.206 11.7792 14.2399 11.804 14.2686C11.8288 14.2973 11.8596 14.3203 11.8943 14.3359C11.9289 14.3515 11.9665 14.3593 12.0045 14.3588L17.9062 14.3085C17.9455 14.3074 17.9842 14.3172 18.0181 14.3369C18.052 14.3566 18.0799 14.3854 18.0988 14.4202C18.1176 14.4551 18.1266 14.4946 18.1249 14.5346C18.1232 14.5745 18.1108 14.6133 18.0891 14.6468L9.15193 28.4068C8.91421 28.7725 8.8304 28.7405 8.9005 28.3108L10.3816 19.0857C10.4243 18.8327 10.3161 18.7047 10.0571 18.7017Z" fill="#FF9494"/>
<path d="M24.5091 13.2181L21.7388 13.2229C21.5949 13.2232 21.4785 13.3401 21.4787 13.484L21.4835 16.2177C21.4837 16.3616 21.6006 16.478 21.7445 16.4778L24.5148 16.473C24.6587 16.4727 24.7752 16.3558 24.7749 16.2119L24.7701 13.4782C24.7699 13.3343 24.653 13.2178 24.5091 13.2181Z" fill="#FF9494"/>
<path d="M24.4982 17.5314H21.7645C21.6029 17.5314 21.4719 17.6624 21.4719 17.8239V19.4605C21.4719 19.6221 21.6029 19.7531 21.7645 19.7531H24.4982C24.6598 19.7531 24.7908 19.6221 24.7908 19.4605V17.8239C24.7908 17.6624 24.6598 17.5314 24.4982 17.5314Z" fill="#FF9494"/>
<path d="M24.4294 20.9233L21.8333 20.878C21.6338 20.8745 21.4693 21.0334 21.4659 21.2328L21.4603 21.5527C21.4568 21.7522 21.6156 21.9167 21.8151 21.9201L24.4112 21.9655C24.6107 21.9689 24.7752 21.8101 24.7786 21.6107L24.7842 21.2907C24.7877 21.0913 24.6289 20.9268 24.4294 20.9233Z" fill="#FF9494"/>
</svg>
