<?xml version="1.0" encoding="UTF-8" standalone="no"?>
<!DOCTYPE svg PUBLIC "-//W3C//DTD SVG 1.1//EN" "http://www.w3.org/Graphics/SVG/1.1/DTD/svg11.dtd">
<svg xmlns="http://www.w3.org/2000/svg" version="1.1" viewBox="0.00 0.00 70.00 70.00">
<g stroke-width="2.00" fill="none" stroke-linecap="butt">
<path stroke="#575c63" vector-effect="non-scaling-stroke" d="
  M 53.95 26.52
  A 0.30 0.30 0.0 0 0 54.25 26.22
  L 54.15 19.50
  A 0.30 0.30 0.0 0 1 54.46 19.20
  L 60.81 19.32
  A 0.30 0.30 0.0 0 0 61.03 18.82
  L 50.79 7.51
  A 0.30 0.30 0.0 0 0 50.35 7.51
  L 40.26 18.72
  A 0.30 0.30 0.0 0 0 40.48 19.22
  L 46.69 19.24
  A 0.30 0.30 0.0 0 1 46.99 19.54
  L 47.01 26.22
  A 0.30 0.30 0.0 0 0 47.31 26.52
  L 53.95 26.52"
/>
<path stroke="#575c63" vector-effect="non-scaling-stroke" d="
  M 22.71 41.75
  L 19.47 61.93
  Q 19.24 63.34 20.02 62.14
  L 39.57 32.04
  A 0.48 0.47 -73.6 0 0 39.17 31.30
  L 26.26 31.41
  A 0.57 0.57 0.0 0 1 25.69 30.75
  L 29.33 9.53
  Q 29.74 7.16 28.46 9.20
  L 9.86 38.68
  A 1.92 1.74 -8.5 0 1 9.63 38.96
  L 8.48 40.04
  Q 7.65 40.81 8.78 40.82
  L 22.00 40.91
  Q 22.85 40.92 22.71 41.75"
/>
<path stroke="#575c63" vector-effect="non-scaling-stroke" d="
  M 54.1848 29.4837
  A 0.57 0.57 0.0 0 0 53.6138 28.9147
  L 47.5538 28.9253
  A 0.57 0.57 0.0 0 0 46.9848 29.4963
  L 46.9952 35.4763
  A 0.57 0.57 0.0 0 0 47.5662 36.0453
  L 53.6262 36.0347
  A 0.57 0.57 0.0 0 0 54.1952 35.4637
  L 54.1848 29.4837"
/>
<path stroke="#575c63" vector-effect="non-scaling-stroke" d="
  M 54.23 38.99
  A 0.64 0.64 0.0 0 0 53.59 38.35
  L 47.61 38.35
  A 0.64 0.64 0.0 0 0 46.97 38.99
  L 46.97 42.57
  A 0.64 0.64 0.0 0 0 47.61 43.21
  L 53.59 43.21
  A 0.64 0.64 0.0 0 0 54.23 42.57
  L 54.23 38.99"
/>
<path stroke="#575c63" vector-effect="non-scaling-stroke" d="
  M 54.2156 46.5734
  A 0.79 0.79 0.0 0 0 53.4395 45.7697
  L 47.7603 45.6706
  A 0.79 0.79 0.0 0 0 46.9567 46.4467
  L 46.9444 47.1466
  A 0.79 0.79 0.0 0 0 47.7205 47.9503
  L 53.3997 48.0494
  A 0.79 0.79 0.0 0 0 54.2033 47.2733
  L 54.2156 46.5734"
/>
</g>
<path fill="#2f353e" d="
  M 0.00 0.00
  L 70.00 0.00
  L 70.00 70.00
  L 0.00 70.00
  L 0.00 0.00
  Z
  M 53.95 26.52
  A 0.30 0.30 0.0 0 0 54.25 26.22
  L 54.15 19.50
  A 0.30 0.30 0.0 0 1 54.46 19.20
  L 60.81 19.32
  A 0.30 0.30 0.0 0 0 61.03 18.82
  L 50.79 7.51
  A 0.30 0.30 0.0 0 0 50.35 7.51
  L 40.26 18.72
  A 0.30 0.30 0.0 0 0 40.48 19.22
  L 46.69 19.24
  A 0.30 0.30 0.0 0 1 46.99 19.54
  L 47.01 26.22
  A 0.30 0.30 0.0 0 0 47.31 26.52
  L 53.95 26.52
  Z
  M 22.71 41.75
  L 19.47 61.93
  Q 19.24 63.34 20.02 62.14
  L 39.57 32.04
  A 0.48 0.47 -73.6 0 0 39.17 31.30
  L 26.26 31.41
  A 0.57 0.57 0.0 0 1 25.69 30.75
  L 29.33 9.53
  Q 29.74 7.16 28.46 9.20
  L 9.86 38.68
  A 1.92 1.74 -8.5 0 1 9.63 38.96
  L 8.48 40.04
  Q 7.65 40.81 8.78 40.82
  L 22.00 40.91
  Q 22.85 40.92 22.71 41.75
  Z
  M 54.1848 29.4837
  A 0.57 0.57 0.0 0 0 53.6138 28.9147
  L 47.5538 28.9253
  A 0.57 0.57 0.0 0 0 46.9848 29.4963
  L 46.9952 35.4763
  A 0.57 0.57 0.0 0 0 47.5662 36.0453
  L 53.6262 36.0347
  A 0.57 0.57 0.0 0 0 54.1952 35.4637
  L 54.1848 29.4837
  Z
  M 54.23 38.99
  A 0.64 0.64 0.0 0 0 53.59 38.35
  L 47.61 38.35
  A 0.64 0.64 0.0 0 0 46.97 38.99
  L 46.97 42.57
  A 0.64 0.64 0.0 0 0 47.61 43.21
  L 53.59 43.21
  A 0.64 0.64 0.0 0 0 54.23 42.57
  L 54.23 38.99
  Z
  M 54.2156 46.5734
  A 0.79 0.79 0.0 0 0 53.4395 45.7697
  L 47.7603 45.6706
  A 0.79 0.79 0.0 0 0 46.9567 46.4467
  L 46.9444 47.1466
  A 0.79 0.79 0.0 0 0 47.7205 47.9503
  L 53.3997 48.0494
  A 0.79 0.79 0.0 0 0 54.2033 47.2733
  L 54.2156 46.5734
  Z"
/>
<g fill="#ff9494">
<path d="
  M 53.95 26.52
  L 47.31 26.52
  A 0.30 0.30 0.0 0 1 47.01 26.22
  L 46.99 19.54
  A 0.30 0.30 0.0 0 0 46.69 19.24
  L 40.48 19.22
  A 0.30 0.30 0.0 0 1 40.26 18.72
  L 50.35 7.51
  A 0.30 0.30 0.0 0 1 50.79 7.51
  L 61.03 18.82
  A 0.30 0.30 0.0 0 1 60.81 19.32
  L 54.46 19.20
  A 0.30 0.30 0.0 0 0 54.15 19.50
  L 54.25 26.22
  A 0.30 0.30 0.0 0 1 53.95 26.52
  Z"
/>
<path d="
  M 22.00 40.91
  L 8.78 40.82
  Q 7.65 40.81 8.48 40.04
  L 9.63 38.96
  A 1.92 1.74 -8.5 0 0 9.86 38.68
  L 28.46 9.20
  Q 29.74 7.16 29.33 9.53
  L 25.69 30.75
  A 0.57 0.57 0.0 0 0 26.26 31.41
  L 39.17 31.30
  A 0.48 0.47 -73.6 0 1 39.57 32.04
  L 20.02 62.14
  Q 19.24 63.34 19.47 61.93
  L 22.71 41.75
  Q 22.85 40.92 22.00 40.91
  Z"
/>
<rect x="-3.60" y="-3.56" transform="translate(50.59,32.48) rotate(-0.1)" width="7.20" height="7.12" rx="0.57"/>
<rect x="46.97" y="38.35" width="7.26" height="4.86" rx="0.64"/>
<rect x="-3.63" y="-1.14" transform="translate(50.58,46.86) rotate(1.0)" width="7.26" height="2.28" rx="0.79"/>
</g>
</svg>
