<svg width="32" height="32" viewBox="0 0 32 32" fill="none" xmlns="http://www.w3.org/2000/svg">
<path d="M25.3806 13.3852L22.624 13.376C22.5755 13.376 22.529 13.3568 22.4947 13.3225C22.4604 13.2882 22.4411 13.2417 22.4411 13.1932L22.4137 10.3589C22.4125 10.312 22.3934 10.2673 22.3602 10.2341C22.327 10.2009 22.2823 10.1818 22.2354 10.1806L19.68 10.1669C19.6456 10.1657 19.6122 10.1548 19.5837 10.1355C19.5552 10.1162 19.5327 10.0892 19.5189 10.0577C19.505 10.0262 19.5003 9.99138 19.5054 9.95732C19.5104 9.92326 19.525 9.89132 19.5474 9.86517L23.8583 5.08803C23.8754 5.06857 23.8965 5.05299 23.9202 5.04232C23.9438 5.03164 23.9695 5.02612 23.9954 5.02612C24.0214 5.02612 24.047 5.03164 24.0706 5.04232C24.0943 5.05299 24.1154 5.06857 24.1326 5.08803L28.4571 9.8926C28.4815 9.9192 28.4975 9.95241 28.503 9.98806C28.5086 10.0237 28.5034 10.0602 28.4883 10.0929C28.4731 10.1257 28.4486 10.1532 28.4179 10.1721C28.3871 10.1909 28.3515 10.2003 28.3154 10.1989L25.7691 10.1166C25.7447 10.116 25.7205 10.1203 25.6977 10.1292C25.675 10.1381 25.6543 10.1515 25.6369 10.1685C25.6194 10.1856 25.6055 10.2059 25.596 10.2284C25.5866 10.2509 25.5817 10.2751 25.5817 10.2995L25.5634 13.2023C25.5634 13.2508 25.5441 13.2973 25.5099 13.3316C25.4756 13.3659 25.429 13.3852 25.3806 13.3852Z" fill="#FF9494"/>
<path d="M14.5326 16.5943L18.912 16.5349C18.9768 16.5342 19.0411 16.5464 19.1013 16.5707C19.1614 16.5949 19.2162 16.6308 19.2624 16.6762C19.3087 16.7216 19.3456 16.7757 19.3709 16.8354C19.3963 16.8951 19.4097 16.9592 19.4103 17.024L19.4148 21.0423C19.4148 21.1732 19.3628 21.2988 19.2702 21.3914C19.1776 21.484 19.0521 21.536 18.9211 21.536H14.5417C14.4108 21.536 14.2852 21.588 14.1926 21.6806C14.1 21.7732 14.048 21.8988 14.048 22.0297L14.0571 26.368C14.0571 26.4332 14.0442 26.4978 14.0191 26.558C13.994 26.6182 13.9572 26.6728 13.9109 26.7187C13.8646 26.7646 13.8096 26.8009 13.7492 26.8254C13.6888 26.85 13.6241 26.8623 13.5588 26.8617L9.50399 26.8389C9.43876 26.8383 9.3743 26.8247 9.31433 26.7991C9.25435 26.7734 9.20006 26.7362 9.15457 26.6894C9.10909 26.6427 9.07333 26.5873 9.04934 26.5267C9.02536 26.466 9.01363 26.4012 9.01485 26.336L9.0697 22.0663C9.07031 22.0014 9.05813 21.9371 9.03388 21.877C9.00962 21.8169 8.97376 21.7621 8.92834 21.7158C8.88291 21.6696 8.82882 21.6327 8.76915 21.6073C8.70948 21.582 8.6454 21.5686 8.58056 21.568L4.27427 21.5543C4.14492 21.5531 4.02119 21.5012 3.92972 21.4097C3.83824 21.3182 3.78632 21.1945 3.78513 21.0651L3.76685 17.056C3.76685 16.9912 3.77962 16.927 3.80443 16.8671C3.82924 16.8072 3.86561 16.7527 3.91145 16.7069C3.9573 16.661 4.01172 16.6247 4.07162 16.5999C4.13152 16.575 4.19572 16.5623 4.26056 16.5623L8.56227 16.5669C8.6275 16.5669 8.69207 16.5539 8.75227 16.5288C8.81247 16.5037 8.8671 16.467 8.91301 16.4206C8.95892 16.3743 8.99519 16.3193 9.01973 16.2589C9.04427 16.1985 9.05659 16.1338 9.05599 16.0686L9.03313 11.712C9.03253 11.6472 9.0447 11.5828 9.06896 11.5227C9.09321 11.4626 9.12908 11.4078 9.1745 11.3615C9.21992 11.3153 9.27401 11.2784 9.33368 11.253C9.39335 11.2277 9.45744 11.2143 9.52227 11.2137L13.5634 11.1863C13.6944 11.1863 13.8199 11.2383 13.9125 11.3309C14.0051 11.4235 14.0571 11.5491 14.0571 11.68L14.0343 16.1006C14.0343 16.1658 14.0472 16.2304 14.0723 16.2906C14.0974 16.3508 14.1342 16.4054 14.1805 16.4513C14.2268 16.4972 14.2818 16.5335 14.3422 16.558C14.4026 16.5826 14.4673 16.5949 14.5326 16.5943Z" fill="#FF9494"/>
<path d="M25.2388 14.3086H22.761C22.5616 14.3086 22.3999 14.4703 22.3999 14.6697V17.1566C22.3999 17.356 22.5616 17.5177 22.761 17.5177H25.2388C25.4382 17.5177 25.5999 17.356 25.5999 17.1566V14.6697C25.5999 14.4703 25.4382 14.3086 25.2388 14.3086Z" fill="#FF9494"/>
<path d="M25.1904 18.466L22.8041 18.4619C22.582 18.4615 22.4015 18.6413 22.4012 18.8635L22.3987 20.2623C22.3983 20.4845 22.5781 20.6649 22.8003 20.6653L25.1866 20.6695C25.4088 20.6699 25.5892 20.4901 25.5896 20.2679L25.592 18.869C25.5924 18.6469 25.4126 18.4664 25.1904 18.466Z" fill="#FF9494"/>
<path d="M25.2389 21.6886L22.7613 21.667C22.5618 21.6652 22.3987 21.8255 22.397 22.0249L22.3941 22.3541C22.3924 22.5535 22.5527 22.7166 22.7521 22.7184L25.2297 22.74C25.4292 22.7417 25.5923 22.5814 25.594 22.382L25.5969 22.0529C25.5986 21.8534 25.4383 21.6903 25.2389 21.6886Z" fill="#FF9494"/>
</svg>
