<?xml version="1.0" encoding="UTF-8" standalone="no"?>
<!DOCTYPE svg PUBLIC "-//W3C//DTD SVG 1.1//EN" "http://www.w3.org/Graphics/SVG/1.1/DTD/svg11.dtd">
<svg xmlns="http://www.w3.org/2000/svg" version="1.1" viewBox="0.00 0.00 70.00 70.00">
<g stroke-width="2.00" fill="none" stroke-linecap="butt">
<path stroke="#575c63" vector-effect="non-scaling-stroke" d="
  M 55.52 29.28
  A 0.40 0.40 0.0 0 0 55.92 28.88
  L 55.96 22.53
  A 0.40 0.40 0.0 0 1 56.37 22.13
  L 61.94 22.31
  A 0.40 0.40 0.0 0 0 62.25 21.64
  L 52.79 11.13
  A 0.40 0.40 0.0 0 0 52.19 11.13
  L 42.76 21.58
  A 0.40 0.40 0.0 0 0 43.05 22.24
  L 48.64 22.27
  A 0.40 0.40 0.0 0 1 49.03 22.66
  L 49.09 28.86
  A 0.40 0.40 0.0 0 0 49.49 29.26
  L 55.52 29.28"
/>
<path stroke="#575c63" vector-effect="non-scaling-stroke" d="
  M 31.79 36.30
  A 1.08 1.08 0.0 0 1 30.70 35.22
  L 30.75 25.55
  A 1.08 1.08 0.0 0 0 29.67 24.47
  L 20.83 24.53
  A 1.08 1.08 0.0 0 0 19.76 25.62
  L 19.81 35.15
  A 1.08 1.08 0.0 0 1 18.73 36.24
  L 9.32 36.23
  A 1.08 1.08 0.0 0 0 8.24 37.31
  L 8.28 46.08
  A 1.08 1.08 0.0 0 0 9.35 47.15
  L 18.77 47.18
  A 1.08 1.08 0.0 0 1 19.84 48.27
  L 19.72 57.61
  A 1.08 1.08 0.0 0 0 20.79 58.71
  L 29.66 58.76
  A 1.08 1.08 0.0 0 0 30.75 57.68
  L 30.73 48.19
  A 1.08 1.08 0.0 0 1 31.81 47.11
  L 41.39 47.11
  A 1.08 1.08 0.0 0 0 42.47 46.03
  L 42.46 37.24
  A 1.08 1.08 0.0 0 0 41.37 36.17
  L 31.79 36.30"
/>
<path stroke="#575c63" vector-effect="non-scaling-stroke" d="
  M 56.00 32.09
  A 0.79 0.79 0.0 0 0 55.21 31.30
  L 49.79 31.30
  A 0.79 0.79 0.0 0 0 49.00 32.09
  L 49.00 37.53
  A 0.79 0.79 0.0 0 0 49.79 38.32
  L 55.21 38.32
  A 0.79 0.79 0.0 0 0 56.00 37.53
  L 56.00 32.09"
/>
<path stroke="#575c63" vector-effect="non-scaling-stroke" d="
  M 55.9827 41.2761
  A 0.88 0.88 0.0 0 0 55.1042 40.3946
  L 49.8842 40.3854
  A 0.88 0.88 0.0 0 0 49.0027 41.2639
  L 48.9973 44.3239
  A 0.88 0.88 0.0 0 0 49.8758 45.2054
  L 55.0958 45.2146
  A 0.88 0.88 0.0 0 0 55.9773 44.3361
  L 55.9827 41.2761"
/>
<path stroke="#575c63" vector-effect="non-scaling-stroke" d="
  M 55.9930 48.2406
  A 0.79 0.79 0.0 0 0 55.2099 47.4437
  L 49.7901 47.3964
  A 0.79 0.79 0.0 0 0 48.9933 48.1795
  L 48.9870 48.8994
  A 0.79 0.79 0.0 0 0 49.7701 49.6963
  L 55.1899 49.7436
  A 0.79 0.79 0.0 0 0 55.9867 48.9605
  L 55.9930 48.2406"
/>
</g>
<path fill="#2f353e" d="
  M 0.00 0.00
  L 70.00 0.00
  L 70.00 70.00
  L 0.00 70.00
  L 0.00 0.00
  Z
  M 55.52 29.28
  A 0.40 0.40 0.0 0 0 55.92 28.88
  L 55.96 22.53
  A 0.40 0.40 0.0 0 1 56.37 22.13
  L 61.94 22.31
  A 0.40 0.40 0.0 0 0 62.25 21.64
  L 52.79 11.13
  A 0.40 0.40 0.0 0 0 52.19 11.13
  L 42.76 21.58
  A 0.40 0.40 0.0 0 0 43.05 22.24
  L 48.64 22.27
  A 0.40 0.40 0.0 0 1 49.03 22.66
  L 49.09 28.86
  A 0.40 0.40 0.0 0 0 49.49 29.26
  L 55.52 29.28
  Z
  M 31.79 36.30
  A 1.08 1.08 0.0 0 1 30.70 35.22
  L 30.75 25.55
  A 1.08 1.08 0.0 0 0 29.67 24.47
  L 20.83 24.53
  A 1.08 1.08 0.0 0 0 19.76 25.62
  L 19.81 35.15
  A 1.08 1.08 0.0 0 1 18.73 36.24
  L 9.32 36.23
  A 1.08 1.08 0.0 0 0 8.24 37.31
  L 8.28 46.08
  A 1.08 1.08 0.0 0 0 9.35 47.15
  L 18.77 47.18
  A 1.08 1.08 0.0 0 1 19.84 48.27
  L 19.72 57.61
  A 1.08 1.08 0.0 0 0 20.79 58.71
  L 29.66 58.76
  A 1.08 1.08 0.0 0 0 30.75 57.68
  L 30.73 48.19
  A 1.08 1.08 0.0 0 1 31.81 47.11
  L 41.39 47.11
  A 1.08 1.08 0.0 0 0 42.47 46.03
  L 42.46 37.24
  A 1.08 1.08 0.0 0 0 41.37 36.17
  L 31.79 36.30
  Z
  M 56.00 32.09
  A 0.79 0.79 0.0 0 0 55.21 31.30
  L 49.79 31.30
  A 0.79 0.79 0.0 0 0 49.00 32.09
  L 49.00 37.53
  A 0.79 0.79 0.0 0 0 49.79 38.32
  L 55.21 38.32
  A 0.79 0.79 0.0 0 0 56.00 37.53
  L 56.00 32.09
  Z
  M 55.9827 41.2761
  A 0.88 0.88 0.0 0 0 55.1042 40.3946
  L 49.8842 40.3854
  A 0.88 0.88 0.0 0 0 49.0027 41.2639
  L 48.9973 44.3239
  A 0.88 0.88 0.0 0 0 49.8758 45.2054
  L 55.0958 45.2146
  A 0.88 0.88 0.0 0 0 55.9773 44.3361
  L 55.9827 41.2761
  Z
  M 55.9930 48.2406
  A 0.79 0.79 0.0 0 0 55.2099 47.4437
  L 49.7901 47.3964
  A 0.79 0.79 0.0 0 0 48.9933 48.1795
  L 48.9870 48.8994
  A 0.79 0.79 0.0 0 0 49.7701 49.6963
  L 55.1899 49.7436
  A 0.79 0.79 0.0 0 0 55.9867 48.9605
  L 55.9930 48.2406
  Z"
/>
<g fill="#ff9494">
<path d="
  M 55.52 29.28
  L 49.49 29.26
  A 0.40 0.40 0.0 0 1 49.09 28.86
  L 49.03 22.66
  A 0.40 0.40 0.0 0 0 48.64 22.27
  L 43.05 22.24
  A 0.40 0.40 0.0 0 1 42.76 21.58
  L 52.19 11.13
  A 0.40 0.40 0.0 0 1 52.79 11.13
  L 62.25 21.64
  A 0.40 0.40 0.0 0 1 61.94 22.31
  L 56.37 22.13
  A 0.40 0.40 0.0 0 0 55.96 22.53
  L 55.92 28.88
  A 0.40 0.40 0.0 0 1 55.52 29.28
  Z"
/>
<path d="
  M 31.79 36.30
  L 41.37 36.17
  A 1.08 1.08 0.0 0 1 42.46 37.24
  L 42.47 46.03
  A 1.08 1.08 0.0 0 1 41.39 47.11
  L 31.81 47.11
  A 1.08 1.08 0.0 0 0 30.73 48.19
  L 30.75 57.68
  A 1.08 1.08 0.0 0 1 29.66 58.76
  L 20.79 58.71
  A 1.08 1.08 0.0 0 1 19.72 57.61
  L 19.84 48.27
  A 1.08 1.08 0.0 0 0 18.77 47.18
  L 9.35 47.15
  A 1.08 1.08 0.0 0 1 8.28 46.08
  L 8.24 37.31
  A 1.08 1.08 0.0 0 1 9.32 36.23
  L 18.73 36.24
  A 1.08 1.08 0.0 0 0 19.81 35.15
  L 19.76 25.62
  A 1.08 1.08 0.0 0 1 20.83 24.53
  L 29.67 24.47
  A 1.08 1.08 0.0 0 1 30.75 25.55
  L 30.70 35.22
  A 1.08 1.08 0.0 0 0 31.79 36.30
  Z"
/>
<rect x="49.00" y="31.30" width="7.00" height="7.02" rx="0.79"/>
<rect x="-3.49" y="-2.41" transform="translate(52.49,42.80) rotate(0.1)" width="6.98" height="4.82" rx="0.88"/>
<rect x="-3.50" y="-1.15" transform="translate(52.49,48.57) rotate(0.5)" width="7.00" height="2.30" rx="0.79"/>
</g>
</svg>
