<?xml version="1.0" encoding="UTF-8" standalone="no"?>
<!DOCTYPE svg PUBLIC "-//W3C//DTD SVG 1.1//EN" "http://www.w3.org/Graphics/SVG/1.1/DTD/svg11.dtd">
<svg xmlns="http://www.w3.org/2000/svg" version="1.1" viewBox="0.00 0.00 70.00 70.00">
<g stroke-width="2.00" fill="none" stroke-linecap="butt">
<path stroke="#575c63" vector-effect="non-scaling-stroke" d="
  M 18.81 51.90
  Q 20.55 55.61 21.45 62.31
  Q 21.53 62.88 22.08 63.00
  Q 22.49 63.09 22.84 62.85
  Q 23.30 62.53 23.44 61.99
  C 25.38 54.45 23.74 47.04 21.99 39.57
  A 2.21 2.20 -21.6 0 1 23.04 37.16
  C 29.96 33.21 56.79 15.64 55.47 7.53
  A 0.72 0.72 0.0 0 0 54.32 7.08
  C 41.09 17.35 28.09 27.38 13.84 35.34
  A 2.87 2.86 62.4 0 0 12.66 39.11
  Q 15.58 45.05 18.81 51.90"
/>
<path stroke="#575c63" vector-effect="non-scaling-stroke" d="
  M 26.85 46.20
  Q 36.00 41.52 44.55 36.04
  C 50.28 32.37 56.22 26.12 52.80 18.95
  A 0.36 0.35 53.4 0 0 52.22 18.86
  Q 40.91 31.05 25.87 41.14
  Q 25.83 41.17 25.82 41.23
  Q 25.53 42.75 26.71 46.14
  Q 26.75 46.25 26.85 46.20"
/>
<path stroke="#575c63" vector-effect="non-scaling-stroke" d="
  M 39.24 42.85
  C 35.37 44.62 31.41 46.47 27.53 48.34
  Q 26.98 48.61 27.06 49.22
  L 27.54 52.79
  Q 27.63 53.47 28.30 53.31
  Q 35.19 51.66 41.23 49.02
  C 46.41 46.75 52.10 41.09 50.69 34.93
  A 0.26 0.26 0.0 0 0 50.25 34.81
  C 46.99 38.29 43.63 40.86 39.24 42.85"
/>
<path stroke="#575c63" vector-effect="non-scaling-stroke" d="
  M 36.44 54.17
  Q 34.82 54.90 28.24 56.52
  Q 27.90 56.60 27.85 56.95
  L 27.16 61.88
  Q 27.11 62.20 27.43 62.15
  C 34.90 61.08 40.61 58.70 43.91 51.87
  Q 44.57 50.52 43.19 51.13
  Q 39.89 52.62 36.44 54.17"
/>
</g>
<path fill="#2f353e" d="
  M 0.00 0.00
  L 70.00 0.00
  L 70.00 70.00
  L 0.00 70.00
  L 0.00 0.00
  Z
  M 18.81 51.90
  Q 20.55 55.61 21.45 62.31
  Q 21.53 62.88 22.08 63.00
  Q 22.49 63.09 22.84 62.85
  Q 23.30 62.53 23.44 61.99
  C 25.38 54.45 23.74 47.04 21.99 39.57
  A 2.21 2.20 -21.6 0 1 23.04 37.16
  C 29.96 33.21 56.79 15.64 55.47 7.53
  A 0.72 0.72 0.0 0 0 54.32 7.08
  C 41.09 17.35 28.09 27.38 13.84 35.34
  A 2.87 2.86 62.4 0 0 12.66 39.11
  Q 15.58 45.05 18.81 51.90
  Z
  M 26.85 46.20
  Q 36.00 41.52 44.55 36.04
  C 50.28 32.37 56.22 26.12 52.80 18.95
  A 0.36 0.35 53.4 0 0 52.22 18.86
  Q 40.91 31.05 25.87 41.14
  Q 25.83 41.17 25.82 41.23
  Q 25.53 42.75 26.71 46.14
  Q 26.75 46.25 26.85 46.20
  Z
  M 39.24 42.85
  C 35.37 44.62 31.41 46.47 27.53 48.34
  Q 26.98 48.61 27.06 49.22
  L 27.54 52.79
  Q 27.63 53.47 28.30 53.31
  Q 35.19 51.66 41.23 49.02
  C 46.41 46.75 52.10 41.09 50.69 34.93
  A 0.26 0.26 0.0 0 0 50.25 34.81
  C 46.99 38.29 43.63 40.86 39.24 42.85
  Z
  M 36.44 54.17
  Q 34.82 54.90 28.24 56.52
  Q 27.90 56.60 27.85 56.95
  L 27.16 61.88
  Q 27.11 62.20 27.43 62.15
  C 34.90 61.08 40.61 58.70 43.91 51.87
  Q 44.57 50.52 43.19 51.13
  Q 39.89 52.62 36.44 54.17
  Z"
/>
<g fill="#ff9494">
<path d="
  M 18.81 51.90
  Q 15.58 45.05 12.66 39.11
  A 2.87 2.86 62.4 0 1 13.84 35.34
  C 28.09 27.38 41.09 17.35 54.32 7.08
  A 0.72 0.72 0.0 0 1 55.47 7.53
  C 56.79 15.64 29.96 33.21 23.04 37.16
  A 2.21 2.20 -21.6 0 0 21.99 39.57
  C 23.74 47.04 25.38 54.45 23.44 61.99
  Q 23.30 62.53 22.84 62.85
  Q 22.49 63.09 22.08 63.00
  Q 21.53 62.88 21.45 62.31
  Q 20.55 55.61 18.81 51.90
  Z"
/>
<path d="
  M 26.85 46.20
  Q 26.75 46.25 26.71 46.14
  Q 25.53 42.75 25.82 41.23
  Q 25.83 41.17 25.87 41.14
  Q 40.91 31.05 52.22 18.86
  A 0.36 0.35 53.4 0 1 52.80 18.95
  C 56.22 26.12 50.28 32.37 44.55 36.04
  Q 36.00 41.52 26.85 46.20
  Z"
/>
<path d="
  M 27.53 48.34
  C 31.41 46.47 35.37 44.62 39.24 42.85
  C 43.63 40.86 46.99 38.29 50.25 34.81
  A 0.26 0.26 0.0 0 1 50.69 34.93
  C 52.10 41.09 46.41 46.75 41.23 49.02
  Q 35.19 51.66 28.30 53.31
  Q 27.63 53.47 27.54 52.79
  L 27.06 49.22
  Q 26.98 48.61 27.53 48.34
  Z"
/>
<path d="
  M 36.44 54.17
  Q 39.89 52.62 43.19 51.13
  Q 44.57 50.52 43.91 51.87
  C 40.61 58.70 34.90 61.08 27.43 62.15
  Q 27.11 62.20 27.16 61.88
  L 27.85 56.95
  Q 27.90 56.60 28.24 56.52
  Q 34.82 54.90 36.44 54.17
  Z"
/>
</g>
</svg>
