<svg width="32" height="32" viewBox="0 0 32 32" fill="none" xmlns="http://www.w3.org/2000/svg">
<path d="M8.5988 23.7257C7.61441 21.6381 6.67727 19.6892 5.78737 17.8789C5.63917 17.5765 5.61252 17.2289 5.71293 16.9081C5.81335 16.5873 6.03313 16.3178 6.3268 16.1555C12.8411 12.5166 18.7839 7.93146 24.8319 3.2366C24.8769 3.20185 24.9302 3.17936 24.9864 3.17129C25.0427 3.16323 25.1001 3.16988 25.153 3.1906C25.206 3.21131 25.2527 3.24539 25.2885 3.2895C25.3244 3.33361 25.3482 3.38626 25.3577 3.44231C25.9611 7.14974 13.6959 15.1817 10.5325 16.9875C10.3446 17.0958 10.1965 17.2614 10.11 17.4598C10.0236 17.6582 10.0034 17.8789 10.0525 18.0892C10.8525 21.504 11.6022 24.8915 10.7154 28.3383C10.6727 28.5029 10.5813 28.6339 10.4411 28.7315C10.3344 28.8046 10.2186 28.8275 10.0937 28.8C9.92603 28.7635 9.83003 28.6583 9.80565 28.4846C9.53137 26.4427 9.12908 24.8564 8.5988 23.7257Z" fill="#FF9494"/>
<path d="M12.2744 21.12C12.2439 21.1353 12.2225 21.1261 12.2104 21.0926C11.8507 20.0594 11.7151 19.3113 11.8035 18.848C11.8065 18.8297 11.8142 18.816 11.8264 18.8069C16.41 15.7318 20.4252 12.3368 23.8721 8.62174C23.8895 8.60231 23.9115 8.58761 23.9362 8.57892C23.9608 8.57022 23.9874 8.5678 24.0135 8.57186C24.0397 8.57591 24.0646 8.58633 24.0862 8.60219C24.1077 8.61806 24.1252 8.63889 24.1372 8.66288C25.7006 11.9406 22.9852 14.7977 20.3658 16.4755C17.7601 18.1455 15.0629 19.6937 12.2744 21.12Z" fill="#FF9494"/>
<path d="M12.5852 22.0983C14.3589 21.2435 16.1692 20.3977 17.9384 19.5886C19.9452 18.6789 21.4812 17.504 22.9715 15.9132C22.9863 15.8978 23.005 15.8867 23.0255 15.8811C23.0461 15.8754 23.0678 15.8754 23.0883 15.881C23.1089 15.8866 23.1276 15.8977 23.1424 15.913C23.1572 15.9283 23.1677 15.9473 23.1727 15.968C23.8172 18.784 21.2161 21.3715 18.8481 22.4092C17.0073 23.2137 15.037 23.8675 12.9372 24.3703C12.733 24.4191 12.6172 24.3398 12.5898 24.1326L12.3704 22.5006C12.346 22.3147 12.4176 22.1806 12.5852 22.0983Z" fill="#FF9494"/>
<path d="M16.6582 24.7635C17.7096 24.2911 18.7382 23.8279 19.7439 23.3738C20.1645 23.1879 20.2742 23.3006 20.0731 23.7121C18.5645 26.8343 15.9542 27.9223 12.5394 28.4115C12.4418 28.4267 12.4007 28.3856 12.4159 28.2881L12.7314 26.0343C12.7466 25.9277 12.806 25.8622 12.9096 25.8378C14.915 25.3441 16.1645 24.986 16.6582 24.7635Z" fill="#FF9494"/>
</svg>
