<?xml version="1.0" encoding="UTF-8" standalone="no"?>
<!DOCTYPE svg PUBLIC "-//W3C//DTD SVG 1.1//EN" "http://www.w3.org/Graphics/SVG/1.1/DTD/svg11.dtd">
<svg xmlns="http://www.w3.org/2000/svg" version="1.1" viewBox="0.00 0.00 70.00 70.00">
<g stroke-width="2.00" fill="none" stroke-linecap="butt">
<path stroke="#976569" vector-effect="non-scaling-stroke" d="
  M 18.10 21.28
  Q 18.65 22.28 19.29 23.14
  Q 19.83 23.88 19.12 24.45
  L 16.99 26.15
  A 1.30 1.30 0.0 0 0 16.73 27.89
  L 18.18 30.01
  Q 18.71 30.78 19.46 30.23
  L 29.03 23.28
  Q 29.78 22.73 29.19 22.01
  L 27.48 19.92
  Q 26.79 19.07 25.88 19.69
  L 23.84 21.08
  Q 23.14 21.56 22.52 21.00
  Q 21.20 19.82 20.43 18.42
  Q 20.09 17.81 20.43 17.20
  C 23.29 11.97 19.86 6.52 13.83 7.13
  C 6.14 7.91 6.16 18.69 13.58 20.28
  C 15.09 20.60 17.16 19.54 18.10 21.28"
/>
<path stroke="#976569" vector-effect="non-scaling-stroke" d="
  M 55.82 18.56
  A 0.35 0.35 0.0 0 1 56.17 18.21
  L 62.06 18.35
  A 0.35 0.35 0.0 0 0 62.33 17.77
  L 52.71 7.16
  A 0.35 0.35 0.0 0 0 52.19 7.16
  L 42.67 17.70
  A 0.35 0.35 0.0 0 0 42.93 18.29
  L 48.68 18.27
  A 0.35 0.35 0.0 0 1 49.03 18.62
  L 49.03 24.90
  A 0.35 0.35 0.0 0 0 49.38 25.25
  L 55.56 25.28
  A 0.35 0.35 0.0 0 0 55.91 24.92
  L 55.82 18.56"
/>
<path stroke="#976569" vector-effect="non-scaling-stroke" d="
  M 31.2219 24.9232
  A 0.56 0.56 0.0 0 0 30.4399 24.7980
  L 20.3954 32.0690
  A 0.56 0.56 0.0 0 0 20.2702 32.8510
  L 31.1181 47.8368
  A 0.56 0.56 0.0 0 0 31.9001 47.9620
  L 41.9446 40.6910
  A 0.56 0.56 0.0 0 0 42.0698 39.9090
  L 31.2219 24.9232"
/>
<path stroke="#976569" vector-effect="non-scaling-stroke" d="
  M 55.8495 27.8880
  A 0.39 0.39 0.0 0 0 55.4581 27.4994
  L 49.3782 27.5206
  A 0.39 0.39 0.0 0 0 48.9895 27.9120
  L 49.0105 33.9320
  A 0.39 0.39 0.0 0 0 49.4019 34.3206
  L 55.4818 34.2994
  A 0.39 0.39 0.0 0 0 55.8705 33.9080
  L 55.8495 27.8880"
/>
<path stroke="#976569" vector-effect="non-scaling-stroke" d="
  M 55.8138 37.1081
  A 0.56 0.56 0.0 0 0 55.2518 36.5501
  L 49.5719 36.5699
  A 0.56 0.56 0.0 0 0 49.0138 37.1319
  L 49.0262 40.6719
  A 0.56 0.56 0.0 0 0 49.5882 41.2299
  L 55.2681 41.2101
  A 0.56 0.56 0.0 0 0 55.8262 40.6481
  L 55.8138 37.1081"
/>
<path stroke="#976569" vector-effect="non-scaling-stroke" d="
  M 42.91 46.45
  Q 43.91 45.90 44.90 45.17
  Q 45.59 44.66 45.10 43.96
  L 44.14 42.62
  A 0.82 0.81 -35.3 0 0 43.00 42.43
  L 33.21 49.59
  Q 32.63 50.01 33.07 50.57
  L 34.31 52.15
  A 0.64 0.64 0.0 0 0 35.22 52.26
  L 37.45 50.47
  A 0.82 0.82 0.0 0 1 38.75 50.88
  Q 39.29 52.75 40.91 52.08
  Q 41.49 51.84 41.84 52.35
  L 48.40 61.90
  Q 48.83 62.52 49.48 62.15
  L 49.76 61.99
  A 0.48 0.47 -32.3 0 0 49.92 61.31
  Q 46.42 56.26 43.01 51.34
  Q 42.85 51.10 42.80 50.82
  Q 42.71 50.32 43.20 50.13
  Q 43.71 49.94 43.72 49.40
  Q 43.73 48.75 43.14 48.55
  A 1.18 1.14 39.7 0 1 42.91 46.45"
/>
<path stroke="#976569" vector-effect="non-scaling-stroke" d="
  M 55.9712 44.3522
  A 0.72 0.72 0.0 0 0 55.2537 43.6297
  L 49.6937 43.6103
  A 0.72 0.72 0.0 0 0 48.9712 44.3278
  L 48.9688 45.0078
  A 0.72 0.72 0.0 0 0 49.6863 45.7303
  L 55.2463 45.7497
  A 0.72 0.72 0.0 0 0 55.9688 45.0322
  L 55.9712 44.3522"
/>
<path stroke="#976569" vector-effect="non-scaling-stroke" d="
  M 19.62 13.70
  A 4.94 4.94 0.0 0 0 14.68 8.76
  A 4.94 4.94 0.0 0 0 9.74 13.70
  A 4.94 4.94 0.0 0 0 14.68 18.64
  A 4.94 4.94 0.0 0 0 19.62 13.70"
/>
</g>
<g fill="#2f353e">
<path d="
  M 0.00 0.00
  L 70.00 0.00
  L 70.00 70.00
  L 0.00 70.00
  L 0.00 0.00
  Z
  M 18.10 21.28
  Q 18.65 22.28 19.29 23.14
  Q 19.83 23.88 19.12 24.45
  L 16.99 26.15
  A 1.30 1.30 0.0 0 0 16.73 27.89
  L 18.18 30.01
  Q 18.71 30.78 19.46 30.23
  L 29.03 23.28
  Q 29.78 22.73 29.19 22.01
  L 27.48 19.92
  Q 26.79 19.07 25.88 19.69
  L 23.84 21.08
  Q 23.14 21.56 22.52 21.00
  Q 21.20 19.82 20.43 18.42
  Q 20.09 17.81 20.43 17.20
  C 23.29 11.97 19.86 6.52 13.83 7.13
  C 6.14 7.91 6.16 18.69 13.58 20.28
  C 15.09 20.60 17.16 19.54 18.10 21.28
  Z
  M 55.82 18.56
  A 0.35 0.35 0.0 0 1 56.17 18.21
  L 62.06 18.35
  A 0.35 0.35 0.0 0 0 62.33 17.77
  L 52.71 7.16
  A 0.35 0.35 0.0 0 0 52.19 7.16
  L 42.67 17.70
  A 0.35 0.35 0.0 0 0 42.93 18.29
  L 48.68 18.27
  A 0.35 0.35 0.0 0 1 49.03 18.62
  L 49.03 24.90
  A 0.35 0.35 0.0 0 0 49.38 25.25
  L 55.56 25.28
  A 0.35 0.35 0.0 0 0 55.91 24.92
  L 55.82 18.56
  Z
  M 31.2219 24.9232
  A 0.56 0.56 0.0 0 0 30.4399 24.7980
  L 20.3954 32.0690
  A 0.56 0.56 0.0 0 0 20.2702 32.8510
  L 31.1181 47.8368
  A 0.56 0.56 0.0 0 0 31.9001 47.9620
  L 41.9446 40.6910
  A 0.56 0.56 0.0 0 0 42.0698 39.9090
  L 31.2219 24.9232
  Z
  M 55.8495 27.8880
  A 0.39 0.39 0.0 0 0 55.4581 27.4994
  L 49.3782 27.5206
  A 0.39 0.39 0.0 0 0 48.9895 27.9120
  L 49.0105 33.9320
  A 0.39 0.39 0.0 0 0 49.4019 34.3206
  L 55.4818 34.2994
  A 0.39 0.39 0.0 0 0 55.8705 33.9080
  L 55.8495 27.8880
  Z
  M 55.8138 37.1081
  A 0.56 0.56 0.0 0 0 55.2518 36.5501
  L 49.5719 36.5699
  A 0.56 0.56 0.0 0 0 49.0138 37.1319
  L 49.0262 40.6719
  A 0.56 0.56 0.0 0 0 49.5882 41.2299
  L 55.2681 41.2101
  A 0.56 0.56 0.0 0 0 55.8262 40.6481
  L 55.8138 37.1081
  Z
  M 42.91 46.45
  Q 43.91 45.90 44.90 45.17
  Q 45.59 44.66 45.10 43.96
  L 44.14 42.62
  A 0.82 0.81 -35.3 0 0 43.00 42.43
  L 33.21 49.59
  Q 32.63 50.01 33.07 50.57
  L 34.31 52.15
  A 0.64 0.64 0.0 0 0 35.22 52.26
  L 37.45 50.47
  A 0.82 0.82 0.0 0 1 38.75 50.88
  Q 39.29 52.75 40.91 52.08
  Q 41.49 51.84 41.84 52.35
  L 48.40 61.90
  Q 48.83 62.52 49.48 62.15
  L 49.76 61.99
  A 0.48 0.47 -32.3 0 0 49.92 61.31
  Q 46.42 56.26 43.01 51.34
  Q 42.85 51.10 42.80 50.82
  Q 42.71 50.32 43.20 50.13
  Q 43.71 49.94 43.72 49.40
  Q 43.73 48.75 43.14 48.55
  A 1.18 1.14 39.7 0 1 42.91 46.45
  Z
  M 55.9712 44.3522
  A 0.72 0.72 0.0 0 0 55.2537 43.6297
  L 49.6937 43.6103
  A 0.72 0.72 0.0 0 0 48.9712 44.3278
  L 48.9688 45.0078
  A 0.72 0.72 0.0 0 0 49.6863 45.7303
  L 55.2463 45.7497
  A 0.72 0.72 0.0 0 0 55.9688 45.0322
  L 55.9712 44.3522
  Z"
/>
<circle cx="14.68" cy="13.70" r="4.94"/>
</g>
<g fill="#ff9494">
<path d="
  M 18.10 21.28
  C 17.16 19.54 15.09 20.60 13.58 20.28
  C 6.16 18.69 6.14 7.91 13.83 7.13
  C 19.86 6.52 23.29 11.97 20.43 17.20
  Q 20.09 17.81 20.43 18.42
  Q 21.20 19.82 22.52 21.00
  Q 23.14 21.56 23.84 21.08
  L 25.88 19.69
  Q 26.79 19.07 27.48 19.92
  L 29.19 22.01
  Q 29.78 22.73 29.03 23.28
  L 19.46 30.23
  Q 18.71 30.78 18.18 30.01
  L 16.73 27.89
  A 1.30 1.30 0.0 0 1 16.99 26.15
  L 19.12 24.45
  Q 19.83 23.88 19.29 23.14
  Q 18.65 22.28 18.10 21.28
  Z
  M 19.62 13.70
  A 4.94 4.94 0.0 0 0 14.68 8.76
  A 4.94 4.94 0.0 0 0 9.74 13.70
  A 4.94 4.94 0.0 0 0 14.68 18.64
  A 4.94 4.94 0.0 0 0 19.62 13.70
  Z"
/>
<path d="
  M 55.82 18.56
  L 55.91 24.92
  A 0.35 0.35 0.0 0 1 55.56 25.28
  L 49.38 25.25
  A 0.35 0.35 0.0 0 1 49.03 24.90
  L 49.03 18.62
  A 0.35 0.35 0.0 0 0 48.68 18.27
  L 42.93 18.29
  A 0.35 0.35 0.0 0 1 42.67 17.70
  L 52.19 7.16
  A 0.35 0.35 0.0 0 1 52.71 7.16
  L 62.33 17.77
  A 0.35 0.35 0.0 0 1 62.06 18.35
  L 56.17 18.21
  A 0.35 0.35 0.0 0 0 55.82 18.56
  Z"
/>
<rect x="-6.76" y="-9.81" transform="translate(31.17,36.38) rotate(-35.9)" width="13.52" height="19.62" rx="0.56"/>
<rect x="-3.43" y="-3.40" transform="translate(52.43,30.91) rotate(-0.2)" width="6.86" height="6.80" rx="0.39"/>
<rect x="-3.40" y="-2.33" transform="translate(52.42,38.89) rotate(-0.2)" width="6.80" height="4.66" rx="0.56"/>
<path d="
  M 42.91 46.45
  A 1.18 1.14 39.7 0 0 43.14 48.55
  Q 43.73 48.75 43.72 49.40
  Q 43.71 49.94 43.20 50.13
  Q 42.71 50.32 42.80 50.82
  Q 42.85 51.10 43.01 51.34
  Q 46.42 56.26 49.92 61.31
  A 0.48 0.47 -32.3 0 1 49.76 61.99
  L 49.48 62.15
  Q 48.83 62.52 48.40 61.90
  L 41.84 52.35
  Q 41.49 51.84 40.91 52.08
  Q 39.29 52.75 38.75 50.88
  A 0.82 0.82 0.0 0 0 37.45 50.47
  L 35.22 52.26
  A 0.64 0.64 0.0 0 1 34.31 52.15
  L 33.07 50.57
  Q 32.63 50.01 33.21 49.59
  L 43.00 42.43
  A 0.82 0.81 -35.3 0 1 44.14 42.62
  L 45.10 43.96
  Q 45.59 44.66 44.90 45.17
  Q 43.91 45.90 42.91 46.45
  Z"
/>
<rect x="-3.50" y="-1.06" transform="translate(52.47,44.68) rotate(0.2)" width="7.00" height="2.12" rx="0.72"/>
</g>
</svg>
