<svg width="32" height="32" viewBox="0 0 32 32" fill="none" xmlns="http://www.w3.org/2000/svg">
<path d="M8.27438 9.72804C7.84467 8.93261 6.89838 9.41718 6.2081 9.2709C2.8161 8.54404 2.80695 3.61604 6.32238 3.25947C9.07895 2.98061 10.647 5.47204 9.33953 7.8629C9.23591 8.0488 9.23591 8.23471 9.33953 8.42061C9.57419 8.84728 9.89267 9.24042 10.295 9.60004C10.4839 9.77071 10.6851 9.7829 10.8984 9.63661L11.831 9.00118C12.1083 8.81223 12.3521 8.84728 12.5624 9.10633L13.3441 10.0618C13.5239 10.2812 13.4995 10.4747 13.271 10.6423L8.8961 13.8195C8.66753 13.9871 8.47248 13.9536 8.31096 13.7189L7.6481 12.7498C7.56463 12.6264 7.53052 12.4762 7.55253 12.3289C7.57454 12.1816 7.65107 12.0479 7.76695 11.9543L8.74067 11.1772C8.95705 11.0035 8.98296 10.8039 8.81838 10.5783C8.62334 10.3162 8.442 10.0328 8.27438 9.72804ZM8.96924 6.2629C8.96924 5.96634 8.91083 5.67268 8.79734 5.39869C8.68385 5.1247 8.51751 4.87575 8.3078 4.66605C8.0981 4.45635 7.84915 4.29 7.57516 4.17652C7.30118 4.06303 7.00752 4.00461 6.71095 4.00461C6.11202 4.00461 5.53762 4.24254 5.11411 4.66605C4.69059 5.08956 4.45267 5.66396 4.45267 6.2629C4.45267 6.86183 4.69059 7.43624 5.11411 7.85975C5.53762 8.28326 6.11202 8.52118 6.71095 8.52118C7.00752 8.52118 7.30118 8.46277 7.57516 8.34928C7.84915 8.23579 8.0981 8.06945 8.3078 7.85975C8.51751 7.65005 8.68385 7.4011 8.79734 7.12711C8.91083 6.85312 8.96924 6.55946 8.96924 6.2629Z" fill="#FF9494"/>
<path d="M25.5176 8.48453L25.5588 11.392C25.5594 11.4134 25.5557 11.4347 25.5479 11.4546C25.5402 11.4745 25.5285 11.4927 25.5136 11.5081C25.4986 11.5234 25.4808 11.5356 25.4611 11.5439C25.4414 11.5523 25.4202 11.5565 25.3988 11.5565L22.5736 11.5428C22.5312 11.5428 22.4905 11.526 22.4605 11.496C22.4305 11.4659 22.4136 11.4253 22.4136 11.3828V8.51196C22.4136 8.46953 22.3968 8.42883 22.3668 8.39882C22.3368 8.36882 22.2961 8.35196 22.2536 8.35196L19.6251 8.3611C19.5936 8.36158 19.5627 8.35278 19.5363 8.3358C19.5098 8.31882 19.4889 8.29442 19.4762 8.26564C19.4636 8.23687 19.4596 8.20499 19.465 8.174C19.4703 8.14301 19.4846 8.11427 19.5062 8.09139L23.8582 3.2731C23.8732 3.25645 23.8915 3.24314 23.912 3.23403C23.9325 3.22492 23.9547 3.22021 23.9771 3.22021C23.9995 3.22021 24.0216 3.22492 24.0421 3.23403C24.0626 3.24314 24.0809 3.25645 24.0959 3.2731L28.4936 8.12339C28.514 8.14672 28.5271 8.17545 28.5315 8.20611C28.5358 8.23676 28.5312 8.26801 28.5181 8.29608C28.505 8.32415 28.4841 8.34782 28.4579 8.36423C28.4316 8.38064 28.4012 8.38908 28.3702 8.38853L25.6776 8.32453C25.6352 8.32453 25.5945 8.34139 25.5645 8.37139C25.5345 8.4014 25.5176 8.4421 25.5176 8.48453Z" fill="#FF9494"/>
<path d="M13.9154 11.3362L9.32358 14.6601C9.20905 14.743 9.18342 14.903 9.26632 15.0176L14.2254 21.8682C14.3083 21.9827 14.4683 22.0084 14.5828 21.9254L19.1746 18.6016C19.2891 18.5187 19.3148 18.3586 19.2319 18.2441L14.2728 11.3934C14.1899 11.2789 14.0299 11.2533 13.9154 11.3362Z" fill="#FF9494"/>
<path d="M25.3522 12.5712L22.5728 12.5809C22.4744 12.5813 22.3948 12.6614 22.3952 12.7598L22.4048 15.5118C22.4051 15.6103 22.4852 15.6898 22.5837 15.6895L25.3631 15.6798C25.4615 15.6794 25.5411 15.5993 25.5407 15.5009L25.5311 12.7489C25.5308 12.6504 25.4507 12.5709 25.3522 12.5712Z" fill="#FF9494"/>
<path d="M25.2581 16.7087L22.6615 16.7177C22.5201 16.7182 22.4059 16.8332 22.4064 16.9746L22.4121 18.5929C22.4126 18.7343 22.5276 18.8485 22.669 18.848L25.2655 18.8389C25.4069 18.8384 25.5211 18.7234 25.5206 18.5821L25.515 16.9638C25.5145 16.8224 25.3995 16.7082 25.2581 16.7087Z" fill="#FF9494"/>
<path d="M19.6161 21.2343C19.5282 21.2831 19.4571 21.3565 19.4115 21.4457C19.3658 21.5349 19.3474 21.6362 19.3585 21.7375C19.3696 21.8387 19.4097 21.9356 19.474 22.0166C19.5383 22.0976 19.6241 22.1593 19.7212 22.1943C19.901 22.2552 19.9894 22.3848 19.9863 22.5828C19.9833 22.7474 19.9041 22.8587 19.7486 22.9166C19.5993 22.9745 19.5383 23.0796 19.5658 23.232C19.581 23.3173 19.613 23.3966 19.6618 23.4697C20.701 24.9691 21.754 26.4884 22.8206 28.0274C22.8376 28.0518 22.8491 28.0795 22.8546 28.1088C22.8601 28.138 22.8594 28.1682 22.8525 28.1974C22.8456 28.2266 22.8328 28.2542 22.8147 28.2785C22.7966 28.3027 22.7737 28.3231 22.7475 28.3383L22.6195 28.4114C22.4214 28.5242 22.2568 28.4861 22.1258 28.2971L19.1269 23.9314C19.0202 23.776 18.8785 23.7348 18.7018 23.808C18.2081 24.0122 17.8789 23.8293 17.7143 23.2594C17.6971 23.2003 17.6655 23.1463 17.6224 23.1023C17.5793 23.0582 17.526 23.0255 17.4673 23.007C17.4085 22.9884 17.3461 22.9847 17.2855 22.996C17.225 23.0074 17.1681 23.0335 17.1201 23.072L16.1006 23.8903C16.0702 23.9148 16.0352 23.9329 15.9977 23.9437C15.9601 23.9544 15.9208 23.9575 15.882 23.9529C15.8433 23.9482 15.8058 23.9358 15.7719 23.9164C15.738 23.897 15.7083 23.871 15.6846 23.84L15.1178 23.1177C14.9837 22.947 15.005 22.7977 15.1818 22.6697L19.6572 19.3966C19.6975 19.368 19.743 19.3476 19.791 19.3365C19.8391 19.3254 19.8887 19.3238 19.9372 19.3319C19.9856 19.3399 20.0318 19.3575 20.0732 19.3835C20.1146 19.4095 20.1503 19.4435 20.1783 19.4834L20.6172 20.096C20.7665 20.3093 20.7361 20.4937 20.5258 20.6491C20.2241 20.8716 19.9208 21.0667 19.6161 21.2343Z" fill="#FF9494"/>
<path d="M25.2588 19.945L22.7171 19.9361C22.5353 19.9355 22.3874 20.0823 22.3868 20.2641L22.3857 20.5749C22.3851 20.7567 22.5319 20.9046 22.7137 20.9052L25.2554 20.9141C25.4372 20.9147 25.5851 20.7679 25.5857 20.5861L25.5868 20.2752C25.5874 20.0935 25.4406 19.9456 25.2588 19.945Z" fill="#FF9494"/>
</svg>
