<?xml version="1.0" encoding="UTF-8" standalone="no"?>
<!DOCTYPE svg PUBLIC "-//W3C//DTD SVG 1.1//EN" "http://www.w3.org/Graphics/SVG/1.1/DTD/svg11.dtd">
<svg xmlns="http://www.w3.org/2000/svg" version="1.1" viewBox="0.00 0.00 70.00 70.00">
<g stroke-width="2.00" fill="none" stroke-linecap="butt">
<path stroke="#575c63" vector-effect="non-scaling-stroke" d="
  M 34.74 12.28
  A 4.38 4.38 0.0 0 0 30.36 7.90
  A 4.38 4.38 0.0 0 0 25.98 12.28
  A 4.38 4.38 0.0 0 0 30.36 16.66
  A 4.38 4.38 0.0 0 0 34.74 12.28"
/>
<path stroke="#575c63" vector-effect="non-scaling-stroke" d="
  M 46.83 30.74
  C 47.00 30.01 46.81 29.17 46.47 28.53
  Q 44.92 25.52 43.42 22.52
  A 2.70 2.69 82.3 0 0 41.55 21.09
  Q 37.21 20.22 33.19 19.64
  C 30.32 19.22 28.02 21.38 28.52 24.34
  Q 28.76 25.75 29.03 27.15
  A 0.45 0.45 0.0 0 1 28.54 27.68
  Q 20.02 26.71 11.40 25.76
  C 10.73 25.69 10.17 25.30 9.74 24.80
  Q 9.32 24.32 8.75 24.60
  Q 7.20 25.34 7.27 27.04
  A 0.80 0.79 2.6 0 0 7.96 27.79
  L 20.39 29.52
  Q 20.95 29.60 21.12 30.13
  L 21.47 31.18
  A 1.39 1.35 -86.3 0 0 22.13 31.95
  L 26.85 34.32
  Q 27.78 34.78 27.76 33.74
  Q 27.75 32.77 27.46 31.79
  Q 27.28 31.14 27.94 31.16
  C 30.27 31.23 30.37 34.01 30.69 35.69
  A 1.99 1.99 0.0 0 1 30.18 37.43
  C 26.59 41.24 25.65 46.20 24.48 51.07
  Q 24.06 52.83 25.49 53.93
  Q 25.81 54.17 26.18 54.23
  Q 28.37 54.55 29.05 52.45
  C 30.27 48.74 30.72 44.52 33.27 41.28
  Q 36.05 37.73 38.40 34.19
  A 1.14 1.14 0.0 0 1 39.90 33.82
  L 47.51 38.02
  Q 48.21 38.40 48.53 37.67
  Q 49.52 35.47 49.77 33.14
  A 1.11 1.10 -82.1 0 0 48.87 31.94
  L 47.43 31.67
  A 0.76 0.76 0.0 0 1 46.83 30.74"
/>
<path stroke="#575c63" vector-effect="non-scaling-stroke" d="
  M 40.54 42.67
  C 39.65 41.44 39.47 40.13 39.06 38.70
  A 0.46 0.46 0.0 0 0 38.25 38.55
  L 35.71 41.87
  A 2.11 2.11 0.0 0 0 35.71 44.43
  L 42.69 53.53
  Q 43.84 55.04 45.38 53.93
  L 45.72 53.69
  Q 47.71 52.25 46.22 50.31
  Q 43.16 46.29 40.54 42.67"
/>
<path stroke="#575c63" vector-effect="non-scaling-stroke" d="
  M 51.03 55.21
  C 44.40 57.12 36.26 57.28 28.75 56.88
  Q 22.75 56.57 16.41 54.80
  Q 13.68 54.03 11.49 52.43
  A 1.54 1.53 -49.8 0 1 11.30 50.12
  C 14.58 46.80 18.85 44.96 23.19 43.46
  Q 23.57 43.33 23.79 42.98
  Q 23.87 42.84 23.95 42.71
  Q 24.37 41.90 23.48 42.07
  Q 16.12 43.52 10.51 47.22
  C 2.80 52.31 10.78 57.33 15.57 58.74
  Q 33.73 64.07 52.57 59.13
  A 1.28 1.28 0.0 0 1 54.08 59.87
  L 55.21 62.56
  A 0.60 0.60 0.0 0 0 56.27 62.65
  L 62.32 53.22
  A 0.53 0.53 0.0 0 0 61.93 52.40
  L 50.96 51.35
  A 0.74 0.74 0.0 0 0 50.25 52.46
  L 51.37 54.36
  Q 51.75 55.00 51.03 55.21"
/>
<path stroke="#575c63" vector-effect="non-scaling-stroke" d="
  M 41.26 30.70
  A 0.66 0.66 0.0 0 0 42.17 29.82
  L 40.07 25.71
  A 0.66 0.66 0.0 0 0 39.64 25.38
  L 37.23 24.76
  A 0.66 0.66 0.0 0 0 36.42 25.51
  L 36.87 28.01
  A 0.66 0.66 0.0 0 0 37.21 28.47
  L 41.26 30.70"
/>
</g>
<g fill="#2f353e">
<path d="
  M 0.00 0.00
  L 70.00 0.00
  L 70.00 70.00
  L 0.00 70.00
  L 0.00 0.00
  Z
  M 34.74 12.28
  A 4.38 4.38 0.0 0 0 30.36 7.90
  A 4.38 4.38 0.0 0 0 25.98 12.28
  A 4.38 4.38 0.0 0 0 30.36 16.66
  A 4.38 4.38 0.0 0 0 34.74 12.28
  Z
  M 46.83 30.74
  C 47.00 30.01 46.81 29.17 46.47 28.53
  Q 44.92 25.52 43.42 22.52
  A 2.70 2.69 82.3 0 0 41.55 21.09
  Q 37.21 20.22 33.19 19.64
  C 30.32 19.22 28.02 21.38 28.52 24.34
  Q 28.76 25.75 29.03 27.15
  A 0.45 0.45 0.0 0 1 28.54 27.68
  Q 20.02 26.71 11.40 25.76
  C 10.73 25.69 10.17 25.30 9.74 24.80
  Q 9.32 24.32 8.75 24.60
  Q 7.20 25.34 7.27 27.04
  A 0.80 0.79 2.6 0 0 7.96 27.79
  L 20.39 29.52
  Q 20.95 29.60 21.12 30.13
  L 21.47 31.18
  A 1.39 1.35 -86.3 0 0 22.13 31.95
  L 26.85 34.32
  Q 27.78 34.78 27.76 33.74
  Q 27.75 32.77 27.46 31.79
  Q 27.28 31.14 27.94 31.16
  C 30.27 31.23 30.37 34.01 30.69 35.69
  A 1.99 1.99 0.0 0 1 30.18 37.43
  C 26.59 41.24 25.65 46.20 24.48 51.07
  Q 24.06 52.83 25.49 53.93
  Q 25.81 54.17 26.18 54.23
  Q 28.37 54.55 29.05 52.45
  C 30.27 48.74 30.72 44.52 33.27 41.28
  Q 36.05 37.73 38.40 34.19
  A 1.14 1.14 0.0 0 1 39.90 33.82
  L 47.51 38.02
  Q 48.21 38.40 48.53 37.67
  Q 49.52 35.47 49.77 33.14
  A 1.11 1.10 -82.1 0 0 48.87 31.94
  L 47.43 31.67
  A 0.76 0.76 0.0 0 1 46.83 30.74
  Z
  M 40.54 42.67
  C 39.65 41.44 39.47 40.13 39.06 38.70
  A 0.46 0.46 0.0 0 0 38.25 38.55
  L 35.71 41.87
  A 2.11 2.11 0.0 0 0 35.71 44.43
  L 42.69 53.53
  Q 43.84 55.04 45.38 53.93
  L 45.72 53.69
  Q 47.71 52.25 46.22 50.31
  Q 43.16 46.29 40.54 42.67
  Z
  M 51.03 55.21
  C 44.40 57.12 36.26 57.28 28.75 56.88
  Q 22.75 56.57 16.41 54.80
  Q 13.68 54.03 11.49 52.43
  A 1.54 1.53 -49.8 0 1 11.30 50.12
  C 14.58 46.80 18.85 44.96 23.19 43.46
  Q 23.57 43.33 23.79 42.98
  Q 23.87 42.84 23.95 42.71
  Q 24.37 41.90 23.48 42.07
  Q 16.12 43.52 10.51 47.22
  C 2.80 52.31 10.78 57.33 15.57 58.74
  Q 33.73 64.07 52.57 59.13
  A 1.28 1.28 0.0 0 1 54.08 59.87
  L 55.21 62.56
  A 0.60 0.60 0.0 0 0 56.27 62.65
  L 62.32 53.22
  A 0.53 0.53 0.0 0 0 61.93 52.40
  L 50.96 51.35
  A 0.74 0.74 0.0 0 0 50.25 52.46
  L 51.37 54.36
  Q 51.75 55.00 51.03 55.21
  Z"
/>
<path d="
  M 41.26 30.70
  L 37.21 28.47
  A 0.66 0.66 0.0 0 1 36.87 28.01
  L 36.42 25.51
  A 0.66 0.66 0.0 0 1 37.23 24.76
  L 39.64 25.38
  A 0.66 0.66 0.0 0 1 40.07 25.71
  L 42.17 29.82
  A 0.66 0.66 0.0 0 1 41.26 30.70
  Z"
/>
</g>
<g fill="#ffff94">
<circle cx="30.36" cy="12.28" r="4.38"/>
<path d="
  M 47.43 31.67
  L 48.87 31.94
  A 1.11 1.10 -82.1 0 1 49.77 33.14
  Q 49.52 35.47 48.53 37.67
  Q 48.21 38.40 47.51 38.02
  L 39.90 33.82
  A 1.14 1.14 0.0 0 0 38.40 34.19
  Q 36.05 37.73 33.27 41.28
  C 30.72 44.52 30.27 48.74 29.05 52.45
  Q 28.37 54.55 26.18 54.23
  Q 25.81 54.17 25.49 53.93
  Q 24.06 52.83 24.48 51.07
  C 25.65 46.20 26.59 41.24 30.18 37.43
  A 1.99 1.99 0.0 0 0 30.69 35.69
  C 30.37 34.01 30.27 31.23 27.94 31.16
  Q 27.28 31.14 27.46 31.79
  Q 27.75 32.77 27.76 33.74
  Q 27.78 34.78 26.85 34.32
  L 22.13 31.95
  A 1.39 1.35 -86.3 0 1 21.47 31.18
  L 21.12 30.13
  Q 20.95 29.60 20.39 29.52
  L 7.96 27.79
  A 0.80 0.79 2.6 0 1 7.27 27.04
  Q 7.20 25.34 8.75 24.60
  Q 9.32 24.32 9.74 24.80
  C 10.17 25.30 10.73 25.69 11.40 25.76
  Q 20.02 26.71 28.54 27.68
  A 0.45 0.45 0.0 0 0 29.03 27.15
  Q 28.76 25.75 28.52 24.34
  C 28.02 21.38 30.32 19.22 33.19 19.64
  Q 37.21 20.22 41.55 21.09
  A 2.70 2.69 82.3 0 1 43.42 22.52
  Q 44.92 25.52 46.47 28.53
  C 46.81 29.17 47.00 30.01 46.83 30.74
  A 0.76 0.76 0.0 0 0 47.43 31.67
  Z
  M 41.26 30.70
  A 0.66 0.66 0.0 0 0 42.17 29.82
  L 40.07 25.71
  A 0.66 0.66 0.0 0 0 39.64 25.38
  L 37.23 24.76
  A 0.66 0.66 0.0 0 0 36.42 25.51
  L 36.87 28.01
  A 0.66 0.66 0.0 0 0 37.21 28.47
  L 41.26 30.70
  Z"
/>
<path d="
  M 40.54 42.67
  Q 43.16 46.29 46.22 50.31
  Q 47.71 52.25 45.72 53.69
  L 45.38 53.93
  Q 43.84 55.04 42.69 53.53
  L 35.71 44.43
  A 2.11 2.11 0.0 0 1 35.71 41.87
  L 38.25 38.55
  A 0.46 0.46 0.0 0 1 39.06 38.70
  C 39.47 40.13 39.65 41.44 40.54 42.67
  Z"
/>
<path d="
  M 51.37 54.36
  L 50.25 52.46
  A 0.74 0.74 0.0 0 1 50.96 51.35
  L 61.93 52.40
  A 0.53 0.53 0.0 0 1 62.32 53.22
  L 56.27 62.65
  A 0.60 0.60 0.0 0 1 55.21 62.56
  L 54.08 59.87
  A 1.28 1.28 0.0 0 0 52.57 59.13
  Q 33.73 64.07 15.57 58.74
  C 10.78 57.33 2.80 52.31 10.51 47.22
  Q 16.12 43.52 23.48 42.07
  Q 24.37 41.90 23.95 42.71
  Q 23.87 42.84 23.79 42.98
  Q 23.57 43.33 23.19 43.46
  C 18.85 44.96 14.58 46.80 11.30 50.12
  A 1.54 1.53 -49.8 0 0 11.49 52.43
  Q 13.68 54.03 16.41 54.80
  Q 22.75 56.57 28.75 56.88
  C 36.26 57.28 44.40 57.12 51.03 55.21
  Q 51.75 55.00 51.37 54.36
  Z"
/>
</g>
</svg>
