<svg width="32" height="32" viewBox="0 0 32 32" fill="none" xmlns="http://www.w3.org/2000/svg">
<path d="M13.8788 7.61602C14.9846 7.61602 15.881 6.71957 15.881 5.61374C15.881 4.5079 14.9846 3.61145 13.8788 3.61145C12.7729 3.61145 11.8765 4.5079 11.8765 5.61374C11.8765 6.71957 12.7729 7.61602 13.8788 7.61602Z" fill="#FFFF94"/>
<path d="M21.6823 14.4777L22.3405 14.6011C22.4651 14.6234 22.5766 14.6922 22.6529 14.7939C22.7291 14.8956 22.7645 15.0226 22.752 15.1497C22.6758 15.8598 22.4868 16.5501 22.1851 17.2205C22.0876 17.443 21.9322 17.4963 21.7188 17.3805L18.24 15.4605C18.1253 15.3975 17.9911 15.3799 17.8641 15.4112C17.7371 15.4426 17.6265 15.5205 17.5543 15.6297C16.8381 16.7085 16.0564 17.7889 15.2091 18.8708C14.0434 20.352 13.8377 22.2811 13.28 23.9771C13.0727 24.6171 12.6354 24.8883 11.968 24.7908C11.8552 24.7725 11.7501 24.7268 11.6525 24.6537C11.2167 24.3184 11.0628 23.8826 11.1908 23.3462C11.7257 21.12 12.1554 18.8525 13.7965 17.1108C13.8956 17.0062 13.9684 16.8795 14.009 16.7412C14.0495 16.6029 14.0566 16.457 14.0297 16.3154C13.8834 15.5474 13.8377 14.2765 12.7725 14.2445C12.5714 14.2384 12.4983 14.3344 12.5531 14.5325C12.6415 14.8312 12.6872 15.1283 12.6903 15.424C12.6964 15.7409 12.5577 15.8293 12.2743 15.6891L10.1165 14.6057C9.97579 14.5326 9.86782 14.4066 9.81483 14.2537L9.65483 13.7737C9.60302 13.6122 9.49179 13.5192 9.32112 13.4948L3.63883 12.704C3.55396 12.6923 3.47588 12.6516 3.41824 12.5889C3.36059 12.5263 3.32703 12.4456 3.3234 12.3611C3.30207 11.843 3.52759 11.4712 3.99998 11.2457C4.17369 11.1603 4.32455 11.1908 4.45255 11.3371C4.64912 11.5657 4.90512 11.744 5.2114 11.776C7.83845 12.0655 10.4503 12.3581 13.0468 12.6537C13.0787 12.6571 13.1109 12.653 13.1409 12.6417C13.1709 12.6304 13.1979 12.6123 13.2197 12.5888C13.2414 12.5652 13.2574 12.5369 13.2663 12.5061C13.2751 12.4753 13.2767 12.4429 13.2708 12.4114C13.1885 11.9847 13.1108 11.5565 13.0377 11.1268C12.8091 9.77367 13.8605 8.78625 15.1725 8.97825C16.3977 9.15501 17.6716 9.37596 18.9943 9.6411C19.1767 9.67811 19.3484 9.75617 19.4965 9.86941C19.6446 9.98264 19.7651 10.1281 19.8491 10.2948C20.3063 11.2091 20.771 12.1249 21.2434 13.0422C21.3988 13.3348 21.4857 13.7188 21.408 14.0525C21.3966 14.0985 21.3947 14.1464 21.4025 14.1931C21.4103 14.2399 21.4276 14.2845 21.4533 14.3243C21.479 14.3642 21.5125 14.3983 21.5519 14.4247C21.5913 14.4511 21.6357 14.4691 21.6823 14.4777ZM18.8617 14.0342C18.9184 14.0663 18.9839 14.0792 19.0484 14.0709C19.113 14.0627 19.1732 14.0338 19.22 13.9885C19.2668 13.9433 19.2977 13.8841 19.3081 13.8198C19.3185 13.7556 19.3078 13.6897 19.2777 13.632L18.3177 11.7531C18.2975 11.7155 18.2695 11.6826 18.2356 11.6566C18.2017 11.6306 18.1627 11.612 18.1211 11.6022L17.0194 11.3188C16.9708 11.3067 16.92 11.307 16.8715 11.3194C16.823 11.3319 16.7784 11.3562 16.7417 11.3902C16.7049 11.4243 16.6772 11.4669 16.6611 11.5143C16.6449 11.5616 16.6408 11.6123 16.6491 11.6617L16.8548 12.8045C16.8633 12.849 16.8817 12.891 16.9086 12.9274C16.9355 12.9638 16.9702 12.9937 17.0103 13.0148L18.8617 14.0342Z" fill="#FFFF94"/>
<path d="M18.5325 19.5063C19.3309 20.6095 20.1965 21.7737 21.129 22.9989C21.5831 23.5901 21.5069 24.1052 20.9005 24.544L20.745 24.6537C20.2757 24.992 19.8658 24.9311 19.5153 24.4709L16.3245 20.3109C16.1962 20.1428 16.1267 19.9372 16.1267 19.7257C16.1267 19.5143 16.1962 19.3087 16.3245 19.1406L17.4856 17.6229C17.5091 17.5916 17.5409 17.5675 17.5774 17.5533C17.6138 17.5391 17.6535 17.5353 17.692 17.5425C17.7305 17.5496 17.7662 17.5673 17.7952 17.5936C17.8241 17.6199 17.8451 17.6538 17.8559 17.6914C18.0433 18.3452 18.1256 18.944 18.5325 19.5063Z" fill="#FFFF94"/>
<path d="M23.4833 24.8503L22.9713 23.9817C22.9399 23.9279 22.9239 23.8665 22.9252 23.8042C22.9264 23.7419 22.9449 23.6812 22.9784 23.6287C23.012 23.5762 23.0594 23.534 23.1154 23.5068C23.1714 23.4795 23.2339 23.4683 23.2959 23.4743L28.3108 23.9543C28.3523 23.9584 28.3922 23.9731 28.4263 23.9972C28.4605 24.0212 28.4879 24.0536 28.5058 24.0913C28.5238 24.129 28.5317 24.1708 28.5287 24.2124C28.5258 24.2541 28.5121 24.2943 28.4891 24.3291L25.7233 28.64C25.6965 28.6823 25.6585 28.7164 25.6136 28.7387C25.5687 28.761 25.5185 28.7705 25.4686 28.7663C25.4186 28.762 25.3708 28.7442 25.3303 28.7147C25.2898 28.6851 25.2581 28.6451 25.2388 28.5988L24.7222 27.3691C24.6674 27.2389 24.5673 27.1329 24.4404 27.0707C24.3135 27.0086 24.1684 26.9944 24.0319 27.0308C18.2902 28.5364 12.6521 28.4769 7.11763 26.8526C4.92792 26.208 1.27992 23.9131 4.80449 21.5863C6.51421 20.4587 8.49059 19.6739 10.7336 19.232C11.0049 19.1802 11.0765 19.2777 10.9485 19.5246C10.9241 19.5642 10.8997 19.6053 10.8753 19.648C10.8083 19.7547 10.7169 19.8278 10.6011 19.8674C8.61706 20.5531 6.66506 21.3943 5.16563 22.912C5.09549 22.9843 5.04159 23.0708 5.00756 23.1656C4.97354 23.2604 4.9602 23.3612 4.96843 23.4614C4.97667 23.5615 5.00629 23.6585 5.05529 23.7459C5.1043 23.8333 5.17155 23.909 5.25249 23.968C5.91992 24.4556 6.66963 24.8167 7.50163 25.0514C9.43382 25.5908 11.3142 25.9078 13.1428 26.0023C16.5759 26.1851 20.2971 26.112 23.3279 25.2388C23.5473 25.1748 23.5992 25.0453 23.4833 24.8503Z" fill="#FFFF94"/>
</svg>
