<?xml version="1.0" encoding="UTF-8" standalone="no"?>
<!DOCTYPE svg PUBLIC "-//W3C//DTD SVG 1.1//EN" "http://www.w3.org/Graphics/SVG/1.1/DTD/svg11.dtd">
<svg xmlns="http://www.w3.org/2000/svg" version="1.1" viewBox="0.00 0.00 70.00 70.00">
<g stroke-width="2.00" fill="none" stroke-linecap="butt">
<path stroke="#575c63" vector-effect="non-scaling-stroke" d="
  M 9.99 32.38
  Q 9.30 32.59 8.65 32.40
  Q 8.30 32.30 8.02 32.54
  Q 7.60 32.89 7.59 33.43
  Q 7.57 34.10 8.07 34.54
  Q 8.99 35.36 8.43 36.37
  Q 7.00 38.98 9.55 37.46
  Q 26.32 27.52 43.49 17.03
  C 45.55 15.77 47.26 14.18 49.32 12.96
  A 0.91 0.90 67.3 0 0 49.74 11.93
  Q 48.82 8.55 45.19 8.09
  A 1.94 1.93 12.0 0 0 43.09 9.45
  Q 42.81 10.42 41.93 10.94
  Q 26.12 20.41 10.61 29.83
  A 0.80 0.80 0.0 0 0 10.26 30.77
  L 10.47 31.45
  A 0.74 0.73 -18.1 0 1 9.99 32.38"
/>
<path stroke="#575c63" vector-effect="non-scaling-stroke" d="
  M 28.03 43.03
  C 25.97 35.63 42.70 36.76 38.84 27.25
  A 2.87 2.87 0.0 0 1 39.18 24.48
  L 41.51 21.29
  Q 43.03 19.20 40.83 20.54
  L 8.54 40.08
  Q 6.40 41.38 8.88 41.75
  C 10.72 42.03 12.89 41.42 14.33 42.88
  Q 16.11 44.68 16.17 46.93
  Q 16.31 51.97 16.86 57.11
  Q 17.04 58.79 17.65 60.18
  A 2.41 2.40 62.7 0 0 21.07 61.28
  L 29.86 56.04
  A 2.67 2.67 0.0 0 0 31.03 52.93
  Q 29.31 47.61 28.03 43.03"
/>
<path stroke="#575c63" vector-effect="non-scaling-stroke" d="
  M 52.26 26.41
  A 0.63 0.63 0.0 0 1 53.16 26.43
  L 59.54 33.32
  A 0.63 0.63 0.0 0 0 60.43 33.35
  L 62.49 31.46
  A 0.63 0.63 0.0 0 0 62.53 30.57
  L 53.38 20.74
  A 0.63 0.63 0.0 0 0 52.48 20.71
  L 42.71 30.12
  A 0.63 0.63 0.0 0 0 42.69 31.00
  L 44.60 33.03
  A 0.63 0.63 0.0 0 0 45.50 33.05
  L 52.26 26.41"
/>
<path stroke="#575c63" vector-effect="non-scaling-stroke" d="
  M 60.46 40.33
  A 0.63 0.63 0.0 0 0 59.57 40.37
  L 53.18 47.31
  A 0.63 0.63 0.0 0 1 52.28 47.33
  L 45.43 40.55
  A 0.63 0.63 0.0 0 0 44.52 40.57
  L 42.58 42.72
  A 0.63 0.63 0.0 0 0 42.61 43.60
  L 52.41 52.91
  A 0.63 0.63 0.0 0 0 53.30 52.89
  L 62.54 43.12
  A 0.63 0.63 0.0 0 0 62.51 42.23
  L 60.46 40.33"
/>
<path stroke="#575c63" vector-effect="non-scaling-stroke" d="
  M 36.4258 28.3763
  A 2.88 2.88 0.0 0 0 32.4722 27.3979
  L 28.2080 29.9702
  A 2.88 2.88 0.0 0 0 27.2295 33.9239
  L 27.3742 34.1637
  A 2.88 2.88 0.0 0 0 31.3278 35.1421
  L 35.5920 32.5698
  A 2.88 2.88 0.0 0 0 36.5705 28.6161
  L 36.4258 28.3763"
/>
</g>
<g fill="#2f353e">
<path d="
  M 0.00 0.00
  L 70.00 0.00
  L 70.00 70.00
  L 0.00 70.00
  L 0.00 0.00
  Z
  M 9.99 32.38
  Q 9.30 32.59 8.65 32.40
  Q 8.30 32.30 8.02 32.54
  Q 7.60 32.89 7.59 33.43
  Q 7.57 34.10 8.07 34.54
  Q 8.99 35.36 8.43 36.37
  Q 7.00 38.98 9.55 37.46
  Q 26.32 27.52 43.49 17.03
  C 45.55 15.77 47.26 14.18 49.32 12.96
  A 0.91 0.90 67.3 0 0 49.74 11.93
  Q 48.82 8.55 45.19 8.09
  A 1.94 1.93 12.0 0 0 43.09 9.45
  Q 42.81 10.42 41.93 10.94
  Q 26.12 20.41 10.61 29.83
  A 0.80 0.80 0.0 0 0 10.26 30.77
  L 10.47 31.45
  A 0.74 0.73 -18.1 0 1 9.99 32.38
  Z
  M 28.03 43.03
  C 25.97 35.63 42.70 36.76 38.84 27.25
  A 2.87 2.87 0.0 0 1 39.18 24.48
  L 41.51 21.29
  Q 43.03 19.20 40.83 20.54
  L 8.54 40.08
  Q 6.40 41.38 8.88 41.75
  C 10.72 42.03 12.89 41.42 14.33 42.88
  Q 16.11 44.68 16.17 46.93
  Q 16.31 51.97 16.86 57.11
  Q 17.04 58.79 17.65 60.18
  A 2.41 2.40 62.7 0 0 21.07 61.28
  L 29.86 56.04
  A 2.67 2.67 0.0 0 0 31.03 52.93
  Q 29.31 47.61 28.03 43.03
  Z
  M 52.26 26.41
  A 0.63 0.63 0.0 0 1 53.16 26.43
  L 59.54 33.32
  A 0.63 0.63 0.0 0 0 60.43 33.35
  L 62.49 31.46
  A 0.63 0.63 0.0 0 0 62.53 30.57
  L 53.38 20.74
  A 0.63 0.63 0.0 0 0 52.48 20.71
  L 42.71 30.12
  A 0.63 0.63 0.0 0 0 42.69 31.00
  L 44.60 33.03
  A 0.63 0.63 0.0 0 0 45.50 33.05
  L 52.26 26.41
  Z
  M 60.46 40.33
  A 0.63 0.63 0.0 0 0 59.57 40.37
  L 53.18 47.31
  A 0.63 0.63 0.0 0 1 52.28 47.33
  L 45.43 40.55
  A 0.63 0.63 0.0 0 0 44.52 40.57
  L 42.58 42.72
  A 0.63 0.63 0.0 0 0 42.61 43.60
  L 52.41 52.91
  A 0.63 0.63 0.0 0 0 53.30 52.89
  L 62.54 43.12
  A 0.63 0.63 0.0 0 0 62.51 42.23
  L 60.46 40.33
  Z"
/>
<rect x="-5.37" y="-3.02" transform="translate(31.90,31.27) rotate(-31.1)" width="10.74" height="6.04" rx="2.88"/>
</g>
<g fill="#ffff94">
<path d="
  M 10.47 31.45
  L 10.26 30.77
  A 0.80 0.80 0.0 0 1 10.61 29.83
  Q 26.12 20.41 41.93 10.94
  Q 42.81 10.42 43.09 9.45
  A 1.94 1.93 12.0 0 1 45.19 8.09
  Q 48.82 8.55 49.74 11.93
  A 0.91 0.90 67.3 0 1 49.32 12.96
  C 47.26 14.18 45.55 15.77 43.49 17.03
  Q 26.32 27.52 9.55 37.46
  Q 7.00 38.98 8.43 36.37
  Q 8.99 35.36 8.07 34.54
  Q 7.57 34.10 7.59 33.43
  Q 7.60 32.89 8.02 32.54
  Q 8.30 32.30 8.65 32.40
  Q 9.30 32.59 9.99 32.38
  A 0.74 0.73 -18.1 0 0 10.47 31.45
  Z"
/>
<path d="
  M 38.84 27.25
  C 42.70 36.76 25.97 35.63 28.03 43.03
  Q 29.31 47.61 31.03 52.93
  A 2.67 2.67 0.0 0 1 29.86 56.04
  L 21.07 61.28
  A 2.41 2.40 62.7 0 1 17.65 60.18
  Q 17.04 58.79 16.86 57.11
  Q 16.31 51.97 16.17 46.93
  Q 16.11 44.68 14.33 42.88
  C 12.89 41.42 10.72 42.03 8.88 41.75
  Q 6.40 41.38 8.54 40.08
  L 40.83 20.54
  Q 43.03 19.20 41.51 21.29
  L 39.18 24.48
  A 2.87 2.87 0.0 0 0 38.84 27.25
  Z
  M 36.4258 28.3763
  A 2.88 2.88 0.0 0 0 32.4722 27.3979
  L 28.2080 29.9702
  A 2.88 2.88 0.0 0 0 27.2295 33.9239
  L 27.3742 34.1637
  A 2.88 2.88 0.0 0 0 31.3278 35.1421
  L 35.5920 32.5698
  A 2.88 2.88 0.0 0 0 36.5705 28.6161
  L 36.4258 28.3763
  Z"
/>
<path d="
  M 52.26 26.41
  L 45.50 33.05
  A 0.63 0.63 0.0 0 1 44.60 33.03
  L 42.69 31.00
  A 0.63 0.63 0.0 0 1 42.71 30.12
  L 52.48 20.71
  A 0.63 0.63 0.0 0 1 53.38 20.74
  L 62.53 30.57
  A 0.63 0.63 0.0 0 1 62.49 31.46
  L 60.43 33.35
  A 0.63 0.63 0.0 0 1 59.54 33.32
  L 53.16 26.43
  A 0.63 0.63 0.0 0 0 52.26 26.41
  Z"
/>
<path d="
  M 60.46 40.33
  L 62.51 42.23
  A 0.63 0.63 0.0 0 1 62.54 43.12
  L 53.30 52.89
  A 0.63 0.63 0.0 0 1 52.41 52.91
  L 42.61 43.60
  A 0.63 0.63 0.0 0 1 42.58 42.72
  L 44.52 40.57
  A 0.63 0.63 0.0 0 1 45.43 40.55
  L 52.28 47.33
  A 0.63 0.63 0.0 0 0 53.18 47.31
  L 59.57 40.37
  A 0.63 0.63 0.0 0 1 60.46 40.33
  Z"
/>
</g>
</svg>
