<svg width="32" height="32" viewBox="0 0 32 32" fill="none" xmlns="http://www.w3.org/2000/svg">
<path d="M4.78641 14.3771L4.69041 14.0662C4.66408 13.9871 4.66559 13.9014 4.6947 13.8232C4.7238 13.745 4.77874 13.6792 4.85041 13.6365C9.57726 10.7657 14.3498 7.8872 19.1681 5.0011C19.4363 4.84262 19.6131 4.61558 19.6984 4.31996C19.7583 4.11983 19.8877 3.94751 20.0635 3.83366C20.2393 3.71982 20.4501 3.67183 20.6584 3.69824C21.7647 3.83843 22.458 4.42358 22.7384 5.45367C22.7632 5.54291 22.7577 5.63768 22.7229 5.72298C22.6881 5.80827 22.626 5.8792 22.5464 5.92453C21.6047 6.48224 20.823 7.2091 19.8813 7.7851C14.6485 10.9821 9.47669 14.0952 4.36583 17.1245C3.58869 17.5878 3.41802 17.4217 3.85383 16.6262C4.0245 16.3184 3.96964 16.0396 3.68926 15.7897C3.53688 15.6556 3.46374 15.4864 3.46983 15.2822C3.47288 15.1177 3.53841 14.9821 3.66641 14.8754C3.75174 14.8022 3.84774 14.7809 3.95441 14.8114C4.1525 14.8693 4.35669 14.8662 4.56698 14.8022C4.60967 14.7886 4.64927 14.7668 4.68347 14.7379C4.71767 14.7091 4.74579 14.6739 4.76621 14.6343C4.78663 14.5948 4.79892 14.5517 4.80239 14.5075C4.80586 14.4634 4.80042 14.419 4.78641 14.3771Z" fill="#FFFF94"/>
<path d="M17.7555 12.4571C19.5201 16.8046 11.8721 16.288 12.8138 19.6708C13.2039 21.0667 13.661 22.5752 14.1852 24.1966C14.2698 24.4591 14.263 24.7426 14.1659 25.0008C14.0688 25.2589 13.887 25.4766 13.6504 25.6183L9.63207 28.0137C9.49887 28.0926 9.35044 28.1422 9.19652 28.1594C9.0426 28.1766 8.88669 28.1609 8.73903 28.1134C8.59137 28.0659 8.45529 27.9877 8.33975 27.8838C8.22421 27.78 8.13182 27.6529 8.06864 27.5108C7.88274 27.0872 7.76236 26.6194 7.7075 26.1074C7.53988 24.5409 7.43474 22.9897 7.39207 21.4537C7.37379 20.768 7.09341 20.1508 6.55093 19.6023C5.89264 18.9348 4.90064 19.2137 4.0595 19.0857C3.30369 18.9729 3.25188 18.7185 3.90407 18.3223L18.6652 9.3897C19.3357 8.98132 19.4393 9.09561 18.9761 9.73256L17.9109 11.1908C17.7794 11.3713 17.6961 11.5822 17.6689 11.8038C17.6417 12.0254 17.6715 12.2503 17.7555 12.4571ZM16.6519 12.972C16.4715 12.673 16.1798 12.4579 15.8408 12.3741C15.5019 12.2902 15.1435 12.3444 14.8445 12.5247L12.8952 13.7007C12.7471 13.79 12.6181 13.9075 12.5155 14.0467C12.4129 14.1859 12.3387 14.3439 12.2972 14.5117C12.2556 14.6795 12.2476 14.8539 12.2734 15.0249C12.2993 15.1958 12.3585 15.36 12.4478 15.5081L12.514 15.6177C12.6944 15.9167 12.9861 16.1317 13.325 16.2156C13.664 16.2995 14.0224 16.2453 14.3214 16.0649L16.2707 14.889C16.4187 14.7997 16.5478 14.6821 16.6504 14.543C16.753 14.4038 16.8272 14.2458 16.8687 14.078C16.9102 13.9101 16.9183 13.7358 16.8924 13.5648C16.8666 13.3939 16.8073 13.2297 16.718 13.0816L16.6519 12.972Z" fill="#FFFF94"/>
<path d="M23.8903 12.0731L20.8 15.1085C20.7726 15.1353 20.7401 15.1563 20.7044 15.1704C20.6688 15.1845 20.6307 15.1913 20.5923 15.1904C20.554 15.1896 20.5163 15.1811 20.4813 15.1655C20.4463 15.1498 20.4147 15.1274 20.3885 15.0994L19.5154 14.1714C19.4641 14.1164 19.4364 14.0436 19.4381 13.9684C19.4398 13.8932 19.4708 13.8217 19.5245 13.7691L23.9908 9.46739C24.0185 9.44089 24.0513 9.4202 24.0871 9.40652C24.1229 9.39284 24.1611 9.38646 24.1994 9.38773C24.2377 9.38901 24.2754 9.39793 24.3103 9.41396C24.3451 9.42999 24.3764 9.45282 24.4023 9.4811L28.5851 13.9748C28.6366 14.0312 28.6637 14.1057 28.6602 14.182C28.6568 14.2583 28.6232 14.3301 28.5668 14.3817L27.6251 15.2457C27.5693 15.2978 27.4951 15.3256 27.4188 15.323C27.3426 15.3204 27.2704 15.2877 27.2183 15.232L24.3017 12.0822C24.2755 12.0543 24.244 12.0318 24.209 12.0162C24.174 12.0005 24.1362 11.9921 24.0979 11.9912C24.0596 11.9903 24.0215 11.9972 23.9858 12.0112C23.9502 12.0253 23.9177 12.0463 23.8903 12.0731Z" fill="#FFFF94"/>
<path d="M27.6389 18.4366L28.576 19.3052C28.6317 19.3573 28.6645 19.4295 28.6671 19.5058C28.6696 19.5821 28.6418 19.6562 28.5897 19.712L24.3657 24.1783C24.3129 24.2334 24.2405 24.2653 24.1642 24.2671C24.0879 24.2688 24.0141 24.2401 23.9589 24.1875L19.4789 19.9315C19.4245 19.8795 19.3926 19.8083 19.3901 19.7331C19.3875 19.6579 19.4144 19.5847 19.4652 19.5292L20.352 18.5463C20.3783 18.5177 20.4101 18.4946 20.4455 18.4785C20.4809 18.4625 20.5192 18.4538 20.5581 18.4529C20.5969 18.4521 20.6356 18.4591 20.6717 18.4736C20.7077 18.4881 20.7405 18.5097 20.768 18.5372L23.8994 21.6366C23.9269 21.6634 23.9593 21.6844 23.995 21.6985C24.0307 21.7126 24.0688 21.7194 24.1071 21.7185C24.1454 21.7177 24.1832 21.7092 24.2181 21.6935C24.2531 21.6779 24.2847 21.6554 24.3109 21.6275L27.232 18.4549C27.2835 18.3985 27.3554 18.3649 27.4317 18.3615C27.5079 18.3581 27.5825 18.3851 27.6389 18.4366Z" fill="#FFFF94"/>
</svg>
