<?xml version="1.0" encoding="UTF-8" standalone="no"?>
<!DOCTYPE svg PUBLIC "-//W3C//DTD SVG 1.1//EN" "http://www.w3.org/Graphics/SVG/1.1/DTD/svg11.dtd">
<svg xmlns="http://www.w3.org/2000/svg" version="1.1" viewBox="0.00 0.00 70.00 70.00">
<g stroke-width="2.00" fill="none" stroke-linecap="butt">
<path stroke="#979a69" vector-effect="non-scaling-stroke" d="
  M 48.24 20.94
  A 0.96 0.96 0.0 0 1 49.20 21.90
  L 49.16 29.26
  A 0.96 0.96 0.0 0 0 50.13 30.22
  L 52.40 30.20
  A 0.96 0.96 0.0 0 0 53.35 29.24
  L 53.34 21.89
  A 0.96 0.96 0.0 0 1 54.31 20.93
  L 61.62 20.98
  A 0.96 0.96 0.0 0 0 62.59 20.06
  L 62.68 17.66
  A 0.96 0.96 0.0 0 0 61.71 16.66
  L 54.26 16.77
  A 0.96 0.96 0.0 0 1 53.29 15.80
  L 53.38 8.32
  A 0.96 0.96 0.0 0 0 52.41 7.35
  L 50.05 7.39
  A 0.96 0.96 0.0 0 0 49.11 8.36
  L 49.23 15.76
  A 0.96 0.96 0.0 0 1 48.27 16.74
  L 40.74 16.72
  A 0.96 0.96 0.0 0 0 39.78 17.70
  L 39.81 19.98
  A 0.96 0.96 0.0 0 0 40.77 20.92
  L 48.24 20.94"
/>
<path stroke="#979a69" vector-effect="non-scaling-stroke" d="
  M 12.03 33.37
  L 12.04 57.26
  Q 12.04 58.06 11.24 58.05
  L 7.75 58.01
  Q 7.26 58.00 7.26 58.50
  L 7.26 62.26
  Q 7.26 62.76 7.76 62.76
  L 59.58 62.76
  Q 60.43 62.76 60.44 61.91
  L 60.47 58.71
  A 0.72 0.72 0.0 0 0 59.71 57.98
  L 57.07 58.14
  A 0.58 0.57 88.2 0 1 56.46 57.56
  L 56.46 33.56
  A 0.93 0.93 0.0 0 1 57.44 32.63
  L 59.96 32.75
  Q 60.45 32.78 60.45 32.29
  L 60.48 28.86
  Q 60.48 27.99 59.61 28.01
  L 57.94 28.05
  A 1.19 1.18 -90.0 0 0 56.79 29.21
  C 56.67 33.46 53.24 34.00 49.69 33.54
  Q 48.96 33.45 48.96 34.19
  L 48.98 57.41
  Q 48.98 58.04 48.34 58.04
  L 19.47 58.05
  A 0.58 0.58 0.0 0 1 18.89 57.47
  L 18.88 33.29
  A 0.59 0.58 -90.0 0 1 19.46 32.70
  L 46.57 32.70
  Q 47.03 32.70 46.83 32.29
  Q 45.93 30.45 45.80 28.53
  Q 45.77 28.03 45.27 28.03
  L 7.83 28.10
  Q 7.25 28.10 7.25 28.67
  L 7.26 32.21
  Q 7.26 32.66 7.71 32.67
  L 11.37 32.71
  Q 12.02 32.72 12.03 33.37"
/>
<path stroke="#979a69" vector-effect="non-scaling-stroke" d="
  M 39.37 41.89
  A 0.74 0.74 0.0 0 1 38.60 41.14
  L 38.62 35.70
  A 0.74 0.74 0.0 0 0 37.88 34.96
  L 32.30 34.97
  A 0.74 0.74 0.0 0 0 31.56 35.71
  L 31.59 41.11
  A 0.74 0.74 0.0 0 1 30.84 41.86
  L 25.52 41.82
  A 0.74 0.74 0.0 0 0 24.78 42.56
  L 24.74 48.09
  A 0.74 0.74 0.0 0 0 25.49 48.84
  L 30.83 48.80
  A 0.74 0.74 0.0 0 1 31.58 49.55
  L 31.56 54.91
  A 0.74 0.74 0.0 0 0 32.30 55.65
  L 37.88 55.66
  A 0.74 0.74 0.0 0 0 38.63 54.91
  L 38.59 49.54
  A 0.74 0.74 0.0 0 1 39.34 48.80
  L 44.67 48.87
  A 0.74 0.74 0.0 0 0 45.42 48.13
  L 45.41 42.46
  A 0.74 0.74 0.0 0 0 44.65 41.72
  L 39.37 41.89"
/>
<path stroke="#979a69" vector-effect="non-scaling-stroke" d="
  M 10.8698 42.3882
  A 0.66 0.66 0.0 0 0 10.2144 41.7236
  L 9.1944 41.7165
  A 0.66 0.66 0.0 0 0 8.5299 42.3719
  L 8.4902 48.0518
  A 0.66 0.66 0.0 0 0 9.1456 48.7164
  L 10.1656 48.7235
  A 0.66 0.66 0.0 0 0 10.8301 48.0681
  L 10.8698 42.3882"
/>
<path stroke="#979a69" vector-effect="non-scaling-stroke" d="
  M 61.6050 42.3920
  A 0.69 0.69 0.0 0 0 60.9162 41.7008
  L 59.9962 41.6992
  A 0.69 0.69 0.0 0 0 59.3050 42.3880
  L 59.2950 48.0680
  A 0.69 0.69 0.0 0 0 59.9838 48.7592
  L 60.9038 48.7608
  A 0.69 0.69 0.0 0 0 61.5950 48.0720
  L 61.6050 42.3920"
/>
</g>
<path fill="#2f353e" d="
  M 0.00 0.00
  L 70.00 0.00
  L 70.00 70.00
  L 0.00 70.00
  L 0.00 0.00
  Z
  M 48.24 20.94
  A 0.96 0.96 0.0 0 1 49.20 21.90
  L 49.16 29.26
  A 0.96 0.96 0.0 0 0 50.13 30.22
  L 52.40 30.20
  A 0.96 0.96 0.0 0 0 53.35 29.24
  L 53.34 21.89
  A 0.96 0.96 0.0 0 1 54.31 20.93
  L 61.62 20.98
  A 0.96 0.96 0.0 0 0 62.59 20.06
  L 62.68 17.66
  A 0.96 0.96 0.0 0 0 61.71 16.66
  L 54.26 16.77
  A 0.96 0.96 0.0 0 1 53.29 15.80
  L 53.38 8.32
  A 0.96 0.96 0.0 0 0 52.41 7.35
  L 50.05 7.39
  A 0.96 0.96 0.0 0 0 49.11 8.36
  L 49.23 15.76
  A 0.96 0.96 0.0 0 1 48.27 16.74
  L 40.74 16.72
  A 0.96 0.96 0.0 0 0 39.78 17.70
  L 39.81 19.98
  A 0.96 0.96 0.0 0 0 40.77 20.92
  L 48.24 20.94
  Z
  M 12.03 33.37
  L 12.04 57.26
  Q 12.04 58.06 11.24 58.05
  L 7.75 58.01
  Q 7.26 58.00 7.26 58.50
  L 7.26 62.26
  Q 7.26 62.76 7.76 62.76
  L 59.58 62.76
  Q 60.43 62.76 60.44 61.91
  L 60.47 58.71
  A 0.72 0.72 0.0 0 0 59.71 57.98
  L 57.07 58.14
  A 0.58 0.57 88.2 0 1 56.46 57.56
  L 56.46 33.56
  A 0.93 0.93 0.0 0 1 57.44 32.63
  L 59.96 32.75
  Q 60.45 32.78 60.45 32.29
  L 60.48 28.86
  Q 60.48 27.99 59.61 28.01
  L 57.94 28.05
  A 1.19 1.18 -90.0 0 0 56.79 29.21
  C 56.67 33.46 53.24 34.00 49.69 33.54
  Q 48.96 33.45 48.96 34.19
  L 48.98 57.41
  Q 48.98 58.04 48.34 58.04
  L 19.47 58.05
  A 0.58 0.58 0.0 0 1 18.89 57.47
  L 18.88 33.29
  A 0.59 0.58 -90.0 0 1 19.46 32.70
  L 46.57 32.70
  Q 47.03 32.70 46.83 32.29
  Q 45.93 30.45 45.80 28.53
  Q 45.77 28.03 45.27 28.03
  L 7.83 28.10
  Q 7.25 28.10 7.25 28.67
  L 7.26 32.21
  Q 7.26 32.66 7.71 32.67
  L 11.37 32.71
  Q 12.02 32.72 12.03 33.37
  Z
  M 39.37 41.89
  A 0.74 0.74 0.0 0 1 38.60 41.14
  L 38.62 35.70
  A 0.74 0.74 0.0 0 0 37.88 34.96
  L 32.30 34.97
  A 0.74 0.74 0.0 0 0 31.56 35.71
  L 31.59 41.11
  A 0.74 0.74 0.0 0 1 30.84 41.86
  L 25.52 41.82
  A 0.74 0.74 0.0 0 0 24.78 42.56
  L 24.74 48.09
  A 0.74 0.74 0.0 0 0 25.49 48.84
  L 30.83 48.80
  A 0.74 0.74 0.0 0 1 31.58 49.55
  L 31.56 54.91
  A 0.74 0.74 0.0 0 0 32.30 55.65
  L 37.88 55.66
  A 0.74 0.74 0.0 0 0 38.63 54.91
  L 38.59 49.54
  A 0.74 0.74 0.0 0 1 39.34 48.80
  L 44.67 48.87
  A 0.74 0.74 0.0 0 0 45.42 48.13
  L 45.41 42.46
  A 0.74 0.74 0.0 0 0 44.65 41.72
  L 39.37 41.89
  Z
  M 10.8698 42.3882
  A 0.66 0.66 0.0 0 0 10.2144 41.7236
  L 9.1944 41.7165
  A 0.66 0.66 0.0 0 0 8.5299 42.3719
  L 8.4902 48.0518
  A 0.66 0.66 0.0 0 0 9.1456 48.7164
  L 10.1656 48.7235
  A 0.66 0.66 0.0 0 0 10.8301 48.0681
  L 10.8698 42.3882
  Z
  M 61.6050 42.3920
  A 0.69 0.69 0.0 0 0 60.9162 41.7008
  L 59.9962 41.6992
  A 0.69 0.69 0.0 0 0 59.3050 42.3880
  L 59.2950 48.0680
  A 0.69 0.69 0.0 0 0 59.9838 48.7592
  L 60.9038 48.7608
  A 0.69 0.69 0.0 0 0 61.5950 48.0720
  L 61.6050 42.3920
  Z"
/>
<g fill="#ffff94">
<path d="
  M 48.24 20.94
  L 40.77 20.92
  A 0.96 0.96 0.0 0 1 39.81 19.98
  L 39.78 17.70
  A 0.96 0.96 0.0 0 1 40.74 16.72
  L 48.27 16.74
  A 0.96 0.96 0.0 0 0 49.23 15.76
  L 49.11 8.36
  A 0.96 0.96 0.0 0 1 50.05 7.39
  L 52.41 7.35
  A 0.96 0.96 0.0 0 1 53.38 8.32
  L 53.29 15.80
  A 0.96 0.96 0.0 0 0 54.26 16.77
  L 61.71 16.66
  A 0.96 0.96 0.0 0 1 62.68 17.66
  L 62.59 20.06
  A 0.96 0.96 0.0 0 1 61.62 20.98
  L 54.31 20.93
  A 0.96 0.96 0.0 0 0 53.34 21.89
  L 53.35 29.24
  A 0.96 0.96 0.0 0 1 52.40 30.20
  L 50.13 30.22
  A 0.96 0.96 0.0 0 1 49.16 29.26
  L 49.20 21.90
  A 0.96 0.96 0.0 0 0 48.24 20.94
  Z"
/>
<path d="
  M 11.37 32.71
  L 7.71 32.67
  Q 7.26 32.66 7.26 32.21
  L 7.25 28.67
  Q 7.25 28.10 7.83 28.10
  L 45.27 28.03
  Q 45.77 28.03 45.80 28.53
  Q 45.93 30.45 46.83 32.29
  Q 47.03 32.70 46.57 32.70
  L 19.46 32.70
  A 0.59 0.58 90.0 0 0 18.88 33.29
  L 18.89 57.47
  A 0.58 0.58 0.0 0 0 19.47 58.05
  L 48.34 58.04
  Q 48.98 58.04 48.98 57.41
  L 48.96 34.19
  Q 48.96 33.45 49.69 33.54
  C 53.24 34.00 56.67 33.46 56.79 29.21
  A 1.19 1.18 -90.0 0 1 57.94 28.05
  L 59.61 28.01
  Q 60.48 27.99 60.48 28.86
  L 60.45 32.29
  Q 60.45 32.78 59.96 32.75
  L 57.44 32.63
  A 0.93 0.93 0.0 0 0 56.46 33.56
  L 56.46 57.56
  A 0.58 0.57 88.2 0 0 57.07 58.14
  L 59.71 57.98
  A 0.72 0.72 0.0 0 1 60.47 58.71
  L 60.44 61.91
  Q 60.43 62.76 59.58 62.76
  L 7.76 62.76
  Q 7.26 62.76 7.26 62.26
  L 7.26 58.50
  Q 7.26 58.00 7.75 58.01
  L 11.24 58.05
  Q 12.04 58.06 12.04 57.26
  L 12.03 33.37
  Q 12.02 32.72 11.37 32.71
  Z"
/>
<path d="
  M 39.37 41.89
  L 44.65 41.72
  A 0.74 0.74 0.0 0 1 45.41 42.46
  L 45.42 48.13
  A 0.74 0.74 0.0 0 1 44.67 48.87
  L 39.34 48.80
  A 0.74 0.74 0.0 0 0 38.59 49.54
  L 38.63 54.91
  A 0.74 0.74 0.0 0 1 37.88 55.66
  L 32.30 55.65
  A 0.74 0.74 0.0 0 1 31.56 54.91
  L 31.58 49.55
  A 0.74 0.74 0.0 0 0 30.83 48.80
  L 25.49 48.84
  A 0.74 0.74 0.0 0 1 24.74 48.09
  L 24.78 42.56
  A 0.74 0.74 0.0 0 1 25.52 41.82
  L 30.84 41.86
  A 0.74 0.74 0.0 0 0 31.59 41.11
  L 31.56 35.71
  A 0.74 0.74 0.0 0 1 32.30 34.97
  L 37.88 34.96
  A 0.74 0.74 0.0 0 1 38.62 35.70
  L 38.60 41.14
  A 0.74 0.74 0.0 0 0 39.37 41.89
  Z"
/>
<rect x="-1.17" y="-3.50" transform="translate(9.68,45.22) rotate(0.4)" width="2.34" height="7.00" rx="0.66"/>
<rect x="-1.15" y="-3.53" transform="translate(60.45,45.23) rotate(0.1)" width="2.30" height="7.06" rx="0.69"/>
</g>
</svg>
