<svg width="32" height="32" viewBox="0 0 32 32" fill="none" xmlns="http://www.w3.org/2000/svg">
<path d="M22.0526 9.57258L18.6377 9.56344C18.5229 9.56346 18.4126 9.51848 18.3306 9.43815C18.2486 9.35781 18.2013 9.24852 18.1989 9.13372L18.1852 8.09144C18.1839 8.03304 18.1944 7.97499 18.2159 7.92069C18.2374 7.86638 18.2695 7.81692 18.3104 7.77519C18.3513 7.73347 18.4001 7.70032 18.4539 7.6777C18.5078 7.65507 18.5656 7.64342 18.624 7.64344L22.0663 7.65258C22.1247 7.65259 22.1825 7.64095 22.2364 7.61832C22.2902 7.5957 22.339 7.56255 22.3799 7.52083C22.4208 7.4791 22.4529 7.42964 22.4744 7.37533C22.4959 7.32103 22.5064 7.26298 22.5052 7.20458L22.4503 3.82172C22.4491 3.70611 22.4935 3.59468 22.574 3.51165C22.6544 3.42862 22.7644 3.3807 22.88 3.3783L23.9589 3.36001C24.0173 3.3594 24.0752 3.37045 24.1293 3.39252C24.1834 3.41459 24.2325 3.44723 24.2738 3.48852C24.3151 3.52982 24.3477 3.57895 24.3698 3.63302C24.3919 3.6871 24.4029 3.74504 24.4023 3.80344L24.3612 7.22287C24.3605 7.28127 24.3716 7.3392 24.3937 7.39328C24.4157 7.44736 24.4484 7.49648 24.4897 7.53778C24.531 7.57908 24.5801 7.61172 24.6342 7.63379C24.6882 7.65586 24.7462 7.66691 24.8046 7.6663L28.2103 7.61601C28.2699 7.61534 28.329 7.62681 28.384 7.64972C28.439 7.67263 28.4888 7.70651 28.5303 7.74928C28.5717 7.79205 28.6041 7.84283 28.6253 7.89851C28.6465 7.95419 28.6562 8.01361 28.6537 8.07315L28.6126 9.1703C28.6078 9.28428 28.5589 9.39194 28.4761 9.47045C28.3933 9.54896 28.2832 9.59215 28.1692 9.59087L24.8274 9.56801C24.7694 9.56741 24.7119 9.57831 24.6581 9.60009C24.6043 9.62188 24.5554 9.65411 24.5142 9.69492C24.4729 9.73573 24.4402 9.78432 24.4178 9.83786C24.3955 9.89141 24.384 9.94885 24.384 10.0069L24.3886 13.3669C24.3886 13.4825 24.343 13.5934 24.2617 13.6756C24.1804 13.7578 24.0699 13.8045 23.9543 13.8057L22.9166 13.8149C22.8586 13.8155 22.801 13.8046 22.7472 13.7828C22.6935 13.761 22.6445 13.7288 22.6033 13.688C22.5621 13.6471 22.5293 13.5986 22.507 13.545C22.4847 13.4915 22.4732 13.434 22.4732 13.376L22.4914 10.0114C22.4914 9.89505 22.4452 9.78342 22.3629 9.70112C22.2806 9.61882 22.169 9.57258 22.0526 9.57258Z" fill="#FFFF94"/>
<path d="M5.19764 14.9531L3.52449 14.9348C3.38735 14.9318 3.31878 14.8617 3.31878 14.7245L3.31421 13.1062C3.31421 12.9325 3.40259 12.8457 3.57935 12.8457L20.6948 12.8137C20.8472 12.8137 20.9279 12.8899 20.9371 13.0422C20.9767 13.6274 21.1336 14.2003 21.4079 14.7611C21.4689 14.8861 21.4293 14.9485 21.2891 14.9485H8.89592C8.8611 14.9485 8.82663 14.9555 8.79446 14.9691C8.76229 14.9826 8.73306 15.0025 8.70844 15.0275C8.68382 15.0526 8.66429 15.0823 8.65096 15.115C8.63764 15.1477 8.63078 15.1828 8.63078 15.2182L8.63535 26.272C8.63535 26.3423 8.66329 26.4097 8.71301 26.4594C8.76273 26.5092 8.83017 26.5371 8.90049 26.5371L22.0982 26.5325C22.2933 26.5325 22.3908 26.4365 22.3908 26.2445L22.3816 15.6297C22.3816 15.4041 22.4929 15.3051 22.7154 15.3325C24.3382 15.5428 25.9062 15.296 25.9611 13.3531C25.9645 13.2136 26.021 13.0807 26.1189 12.982C26.2167 12.8833 26.3484 12.8263 26.4868 12.8228L27.2502 12.8045C27.5154 12.7984 27.6479 12.928 27.6479 13.1931L27.6342 14.7611C27.6342 14.9104 27.5595 14.9805 27.4102 14.9714L26.2582 14.9165C26.2005 14.9134 26.1427 14.9221 26.0885 14.9421C26.0342 14.9621 25.9846 14.9929 25.9427 15.0327C25.9008 15.0725 25.8674 15.1204 25.8446 15.1735C25.8218 15.2266 25.8101 15.2839 25.8102 15.3417V26.3131C25.8102 26.3495 25.8175 26.3856 25.8317 26.419C25.846 26.4524 25.8668 26.4825 25.893 26.5074C25.9191 26.5322 25.9501 26.5514 25.9838 26.5636C26.0175 26.5758 26.0534 26.5808 26.0891 26.5782L27.2959 26.5051C27.341 26.5026 27.3862 26.5094 27.4286 26.5251C27.471 26.5408 27.5097 26.565 27.5423 26.5964C27.5749 26.6277 27.6006 26.6653 27.618 26.7071C27.6354 26.7488 27.6441 26.7936 27.6434 26.8388L27.6296 28.3017C27.6266 28.5607 27.4955 28.6902 27.2365 28.6902H3.54735C3.39497 28.6902 3.31878 28.614 3.31878 28.4617V26.7428C3.31878 26.5904 3.39345 26.5158 3.54278 26.5188L5.13821 26.5371C5.38202 26.5401 5.50392 26.4198 5.50392 26.176L5.49935 15.2548C5.4963 15.0567 5.39573 14.9561 5.19764 14.9531Z" fill="#FFFF94"/>
<path d="M17.9976 19.1497L20.4113 19.072C20.4565 19.0708 20.5015 19.0786 20.5436 19.0951C20.5857 19.1115 20.6241 19.1362 20.6565 19.1678C20.6888 19.1993 20.7146 19.237 20.7321 19.2787C20.7497 19.3203 20.7588 19.3651 20.7587 19.4103L20.7633 22.0023C20.7633 22.0471 20.7544 22.0914 20.7371 22.1328C20.7198 22.1741 20.6945 22.2116 20.6626 22.2431C20.6307 22.2746 20.5929 22.2994 20.5513 22.3161C20.5097 22.3328 20.4653 22.3412 20.4205 22.3405L17.9839 22.3085C17.9391 22.3079 17.8946 22.3162 17.853 22.333C17.8115 22.3497 17.7736 22.3745 17.7417 22.406C17.7098 22.4375 17.6845 22.475 17.6672 22.5163C17.6499 22.5577 17.641 22.602 17.641 22.6468L17.6593 25.1017C17.6599 25.1469 17.6515 25.1917 17.6345 25.2336C17.6175 25.2755 17.5922 25.3135 17.5603 25.3455C17.5283 25.3775 17.4903 25.4027 17.4484 25.4197C17.4065 25.4367 17.3617 25.4452 17.3165 25.4445L14.7656 25.44C14.6759 25.44 14.5898 25.4043 14.5264 25.3409C14.463 25.2775 14.4273 25.1914 14.4273 25.1017L14.4365 22.6514C14.4371 22.6062 14.4286 22.5613 14.4116 22.5195C14.3946 22.4776 14.3694 22.4396 14.3374 22.4076C14.3054 22.3756 14.2674 22.3504 14.2255 22.3334C14.1837 22.3164 14.1388 22.3079 14.0936 22.3085L11.6525 22.3268C11.6073 22.3274 11.5624 22.319 11.5205 22.302C11.4787 22.285 11.4406 22.2597 11.4087 22.2278C11.3767 22.1958 11.3515 22.1578 11.3344 22.1159C11.3174 22.074 11.309 22.0292 11.3096 21.984L11.3279 19.456C11.3279 19.3663 11.3635 19.2802 11.427 19.2168C11.4904 19.1533 11.5765 19.1177 11.6662 19.1177L14.0982 19.136C14.1434 19.1366 14.1882 19.1281 14.2301 19.1111C14.272 19.0941 14.31 19.0689 14.342 19.0369C14.3739 19.005 14.3992 18.9669 14.4162 18.925C14.4332 18.8832 14.4416 18.8383 14.441 18.7931L14.4273 16.3245C14.4273 16.2348 14.463 16.1488 14.5264 16.0853C14.5898 16.0219 14.6759 15.9863 14.7656 15.9863L17.3165 15.9817C17.3609 15.9817 17.4049 15.9904 17.4459 16.0074C17.487 16.0244 17.5243 16.0494 17.5557 16.0808C17.5871 16.1122 17.612 16.1495 17.629 16.1905C17.646 16.2316 17.6547 16.2756 17.6547 16.32L17.6456 18.8068C17.6449 18.8528 17.6537 18.8985 17.6712 18.941C17.6888 18.9835 17.7149 19.0219 17.7478 19.054C17.7808 19.0861 17.8199 19.1111 17.8629 19.1276C17.9058 19.144 17.9516 19.1516 17.9976 19.1497Z" fill="#FFFF94"/>
<path d="M4.66935 19.0737L4.20307 19.0705C4.03645 19.0693 3.90042 19.2034 3.89926 19.3701L3.88113 21.9666C3.87997 22.1332 4.01411 22.2692 4.18073 22.2704L4.64701 22.2736C4.81364 22.2748 4.94966 22.1407 4.95082 21.974L4.96895 19.3775C4.97011 19.2109 4.83598 19.0749 4.66935 19.0737Z" fill="#FFFF94"/>
<path d="M27.8473 19.0632L27.4268 19.0624C27.2526 19.0621 27.1111 19.2031 27.1108 19.3773L27.1062 21.9739C27.1059 22.1481 27.2469 22.2896 27.4211 22.2899L27.8417 22.2906C28.0159 22.2909 28.1574 22.1499 28.1577 21.9757L28.1622 19.3792C28.1625 19.2049 28.0215 19.0635 27.8473 19.0632Z" fill="#FFFF94"/>
</svg>
