<svg width="32" height="32" viewBox="0 0 32 32" fill="none" xmlns="http://www.w3.org/2000/svg">
<path d="M5.4216 9.14284C7.9496 5.49484 11.9222 3.31427 16.3245 3.41941C16.4921 3.42246 16.5759 3.50779 16.5759 3.67541L16.5713 16.0914C16.5719 16.1863 16.5465 16.2796 16.4979 16.3612C16.4493 16.4428 16.3793 16.5095 16.2956 16.5542C16.2118 16.5989 16.1174 16.6199 16.0226 16.6148C15.9278 16.6098 15.8362 16.579 15.7576 16.5257L5.51303 9.61827C5.47538 9.59342 5.44308 9.56129 5.41803 9.52377C5.39298 9.48626 5.37569 9.44411 5.36717 9.39981C5.35865 9.35551 5.35908 9.30996 5.36843 9.26583C5.37778 9.22169 5.39586 9.17988 5.4216 9.14284ZM14.3725 9.42627C14.3725 8.70609 14.0864 8.01541 13.5771 7.50617C13.0679 6.99693 12.3772 6.71084 11.657 6.71084C10.9369 6.71084 10.2462 6.99693 9.73693 7.50617C9.22769 8.01541 8.9416 8.70609 8.9416 9.42627C8.9416 10.1464 9.22769 10.8371 9.73693 11.3464C10.2462 11.8556 10.9369 12.1417 11.657 12.1417C12.3772 12.1417 13.0679 11.8556 13.5771 11.3464C14.0864 10.8371 14.3725 10.1464 14.3725 9.42627Z" fill="#FFFF94"/>
<path d="M15.5703 27.4194L15.5246 17.952C15.5246 17.7173 15.6419 17.6015 15.8766 17.6045H16.2331C16.4587 17.6076 16.5699 17.7219 16.5668 17.9474L16.4846 27.2183C16.4815 27.5565 16.6461 27.6983 16.9783 27.6434C23.1924 26.5981 26.7154 23.0004 27.5474 16.8503C27.554 16.8015 27.5501 16.7519 27.5361 16.7048C27.522 16.6577 27.4982 16.6143 27.4661 16.5774C27.434 16.5406 27.3944 16.5112 27.3501 16.4912C27.3058 16.4712 27.2577 16.4612 27.2091 16.4617L17.9383 16.5714C17.8513 16.5727 17.7673 16.5399 17.7041 16.4802C17.6409 16.4204 17.6036 16.3383 17.6 16.2514C17.5939 16.1691 17.6 16.0868 17.6183 16.0045C17.6853 15.6967 17.8743 15.5444 18.1851 15.5474L27.0994 15.5703C27.1583 15.5702 27.2165 15.5576 27.27 15.5331C27.3235 15.5087 27.371 15.4731 27.4092 15.4288C27.4475 15.3844 27.4756 15.3324 27.4915 15.2763C27.5075 15.2203 27.511 15.1615 27.5017 15.104C26.6301 9.48721 23.459 6.00683 17.9886 4.66283C17.8937 4.63899 17.8093 4.58541 17.7483 4.5103C17.6872 4.43518 17.6528 4.34265 17.6503 4.24683L17.6366 3.8994C17.6274 3.64036 17.7493 3.53521 18.0023 3.58397C21.8088 4.33064 24.6522 6.22169 26.5326 9.25712C29.8331 14.592 28.8868 21.44 24.1006 25.5268C19.4011 29.5451 12.4114 29.5451 7.67999 25.3943C3.44685 21.6777 2.36342 15.904 4.58056 10.7108C4.59905 10.6672 4.62715 10.6282 4.66278 10.5969C4.6984 10.5656 4.74063 10.5427 4.78632 10.5299C4.83201 10.5172 4.87999 10.5149 4.92668 10.5233C4.97337 10.5317 5.01757 10.5504 5.05599 10.5783L5.38971 10.8205C5.48226 10.8888 5.54927 10.9859 5.57996 11.0962C5.61064 11.2065 5.60321 11.3235 5.55885 11.4285C5.05599 12.608 4.73294 13.8743 4.58971 15.2274C4.57142 15.4133 4.65523 15.5063 4.84113 15.5063C7.16647 15.5306 9.51313 15.5383 11.8811 15.5291C12.4693 15.5261 12.995 15.8049 13.4583 16.3657C13.5649 16.4967 13.5345 16.5623 13.3668 16.5623L4.70399 16.5714C4.68374 16.5712 4.66368 16.5754 4.64518 16.5836C4.62667 16.5919 4.61015 16.604 4.59672 16.6192C4.58329 16.6343 4.57327 16.6522 4.56733 16.6715C4.56138 16.6909 4.55966 16.7113 4.56228 16.7314C5.15656 21.827 7.72723 25.2449 12.2743 26.9851C13.2495 27.36 14.272 27.5764 15.3417 27.6343C15.4941 27.6434 15.5703 27.5718 15.5703 27.4194Z" fill="#FFFF94"/>
<path d="M11.6525 11.104C12.5639 11.104 13.3028 10.3652 13.3028 9.45375C13.3028 8.54233 12.5639 7.80347 11.6525 7.80347C10.7411 7.80347 10.0022 8.54233 10.0022 9.45375C10.0022 10.3652 10.7411 11.104 11.6525 11.104Z" fill="#FFFF94"/>
<path d="M8.33362 20.9326C9.22737 20.9326 9.9519 20.2081 9.9519 19.3143C9.9519 18.4206 9.22737 17.696 8.33362 17.696C7.43986 17.696 6.71533 18.4206 6.71533 19.3143C6.71533 20.2081 7.43986 20.9326 8.33362 20.9326Z" fill="#FFFF94"/>
<path d="M19.8582 23.1086C20.4338 23.1086 20.9005 22.642 20.9005 22.0663C20.9005 21.4907 20.4338 21.024 19.8582 21.024C19.2826 21.024 18.8159 21.4907 18.8159 22.0663C18.8159 22.642 19.2826 23.1086 19.8582 23.1086Z" fill="#FFFF94"/>
</svg>
