<?xml version="1.0" encoding="UTF-8" standalone="no"?>
<!DOCTYPE svg PUBLIC "-//W3C//DTD SVG 1.1//EN" "http://www.w3.org/Graphics/SVG/1.1/DTD/svg11.dtd">
<svg xmlns="http://www.w3.org/2000/svg" version="1.1" viewBox="0.00 0.00 70.00 70.00">
<g stroke-width="2.00" fill="none" stroke-linecap="butt">
<path stroke="#575c63" vector-effect="non-scaling-stroke" d="
  M 35.71 7.48
  C 26.08 7.25 17.39 12.02 11.86 20.00
  A 0.74 0.74 0.0 0 0 12.06 21.04
  L 34.47 36.15
  A 1.14 1.14 0.0 0 0 36.25 35.20
  L 36.26 8.04
  Q 36.26 7.49 35.71 7.48"
/>
<path stroke="#575c63" vector-effect="non-scaling-stroke" d="
  M 33.56 60.45
  Q 30.05 60.26 26.85 59.03
  Q 11.93 53.32 9.98 36.60
  A 0.31 0.31 0.0 0 1 10.29 36.25
  L 29.24 36.23
  Q 29.79 36.23 29.44 35.80
  Q 27.92 33.96 25.99 33.97
  Q 18.22 34.00 10.59 33.92
  Q 9.98 33.92 10.04 33.31
  Q 10.51 28.87 12.16 25.00
  A 1.12 1.11 29.5 0 0 11.79 23.67
  L 11.06 23.14
  A 0.69 0.69 0.0 0 0 10.02 23.43
  C 5.17 34.79 7.54 47.42 16.80 55.55
  C 27.15 64.63 42.44 64.63 52.72 55.84
  C 63.19 46.90 65.26 31.92 58.04 20.25
  Q 51.87 10.29 39.38 7.84
  Q 38.55 7.68 38.58 8.53
  L 38.61 9.29
  A 0.98 0.96 6.4 0 0 39.35 10.20
  Q 57.30 14.61 60.16 33.04
  A 0.89 0.88 -4.4 0 1 59.28 34.06
  L 39.78 34.01
  Q 38.76 34.00 38.54 35.01
  Q 38.48 35.28 38.50 35.55
  A 0.73 0.73 0.0 0 0 39.24 36.25
  L 59.52 36.01
  A 0.75 0.74 -86.3 0 1 60.26 36.86
  Q 57.53 57.04 37.14 60.47
  Q 36.05 60.65 36.06 59.54
  L 36.24 39.26
  Q 36.25 38.52 35.51 38.51
  L 34.73 38.51
  Q 33.96 38.50 33.96 39.27
  L 34.06 59.98
  Q 34.06 60.48 33.56 60.45"
/>
<path stroke="#575c63" vector-effect="non-scaling-stroke" d="
  M 21.77 42.25
  A 3.54 3.54 0.0 0 0 18.23 38.71
  A 3.54 3.54 0.0 0 0 14.69 42.25
  A 3.54 3.54 0.0 0 0 18.23 45.79
  A 3.54 3.54 0.0 0 0 21.77 42.25"
/>
<path stroke="#575c63" vector-effect="non-scaling-stroke" d="
  M 45.72 48.27
  A 2.28 2.28 0.0 0 0 43.44 45.99
  A 2.28 2.28 0.0 0 0 41.16 48.27
  A 2.28 2.28 0.0 0 0 43.44 50.55
  A 2.28 2.28 0.0 0 0 45.72 48.27"
/>
<path stroke="#575c63" vector-effect="non-scaling-stroke" d="
  M 31.44 20.62
  A 5.94 5.94 0.0 0 0 25.50 14.68
  A 5.94 5.94 0.0 0 0 19.56 20.62
  A 5.94 5.94 0.0 0 0 25.50 26.56
  A 5.94 5.94 0.0 0 0 31.44 20.62"
/>
<path stroke="#575c63" vector-effect="non-scaling-stroke" d="
  M 29.10 20.68
  A 3.61 3.61 0.0 0 0 25.49 17.07
  A 3.61 3.61 0.0 0 0 21.88 20.68
  A 3.61 3.61 0.0 0 0 25.49 24.29
  A 3.61 3.61 0.0 0 0 29.10 20.68"
/>
</g>
<g fill="#2f353e">
<path d="
  M 0.00 0.00
  L 70.00 0.00
  L 70.00 70.00
  L 0.00 70.00
  L 0.00 0.00
  Z
  M 35.71 7.48
  C 26.08 7.25 17.39 12.02 11.86 20.00
  A 0.74 0.74 0.0 0 0 12.06 21.04
  L 34.47 36.15
  A 1.14 1.14 0.0 0 0 36.25 35.20
  L 36.26 8.04
  Q 36.26 7.49 35.71 7.48
  Z
  M 33.56 60.45
  Q 30.05 60.26 26.85 59.03
  Q 11.93 53.32 9.98 36.60
  A 0.31 0.31 0.0 0 1 10.29 36.25
  L 29.24 36.23
  Q 29.79 36.23 29.44 35.80
  Q 27.92 33.96 25.99 33.97
  Q 18.22 34.00 10.59 33.92
  Q 9.98 33.92 10.04 33.31
  Q 10.51 28.87 12.16 25.00
  A 1.12 1.11 29.5 0 0 11.79 23.67
  L 11.06 23.14
  A 0.69 0.69 0.0 0 0 10.02 23.43
  C 5.17 34.79 7.54 47.42 16.80 55.55
  C 27.15 64.63 42.44 64.63 52.72 55.84
  C 63.19 46.90 65.26 31.92 58.04 20.25
  Q 51.87 10.29 39.38 7.84
  Q 38.55 7.68 38.58 8.53
  L 38.61 9.29
  A 0.98 0.96 6.4 0 0 39.35 10.20
  Q 57.30 14.61 60.16 33.04
  A 0.89 0.88 -4.4 0 1 59.28 34.06
  L 39.78 34.01
  Q 38.76 34.00 38.54 35.01
  Q 38.48 35.28 38.50 35.55
  A 0.73 0.73 0.0 0 0 39.24 36.25
  L 59.52 36.01
  A 0.75 0.74 -86.3 0 1 60.26 36.86
  Q 57.53 57.04 37.14 60.47
  Q 36.05 60.65 36.06 59.54
  L 36.24 39.26
  Q 36.25 38.52 35.51 38.51
  L 34.73 38.51
  Q 33.96 38.50 33.96 39.27
  L 34.06 59.98
  Q 34.06 60.48 33.56 60.45
  Z
  M 21.77 42.25
  A 3.54 3.54 0.0 0 0 18.23 38.71
  A 3.54 3.54 0.0 0 0 14.69 42.25
  A 3.54 3.54 0.0 0 0 18.23 45.79
  A 3.54 3.54 0.0 0 0 21.77 42.25
  Z
  M 45.72 48.27
  A 2.28 2.28 0.0 0 0 43.44 45.99
  A 2.28 2.28 0.0 0 0 41.16 48.27
  A 2.28 2.28 0.0 0 0 43.44 50.55
  A 2.28 2.28 0.0 0 0 45.72 48.27
  Z"
/>
<path d="
  M 31.44 20.62
  A 5.94 5.94 0.0 0 1 25.50 26.56
  A 5.94 5.94 0.0 0 1 19.56 20.62
  A 5.94 5.94 0.0 0 1 25.50 14.68
  A 5.94 5.94 0.0 0 1 31.44 20.62
  Z
  M 29.10 20.68
  A 3.61 3.61 0.0 0 0 25.49 17.07
  A 3.61 3.61 0.0 0 0 21.88 20.68
  A 3.61 3.61 0.0 0 0 25.49 24.29
  A 3.61 3.61 0.0 0 0 29.10 20.68
  Z"
/>
</g>
<g fill="#ffff94">
<path d="
  M 11.86 20.00
  C 17.39 12.02 26.08 7.25 35.71 7.48
  Q 36.26 7.49 36.26 8.04
  L 36.25 35.20
  A 1.14 1.14 0.0 0 1 34.47 36.15
  L 12.06 21.04
  A 0.74 0.74 0.0 0 1 11.86 20.00
  Z
  M 31.44 20.62
  A 5.94 5.94 0.0 0 0 25.50 14.68
  A 5.94 5.94 0.0 0 0 19.56 20.62
  A 5.94 5.94 0.0 0 0 25.50 26.56
  A 5.94 5.94 0.0 0 0 31.44 20.62
  Z"
/>
<path d="
  M 34.06 59.98
  L 33.96 39.27
  Q 33.96 38.50 34.73 38.51
  L 35.51 38.51
  Q 36.25 38.52 36.24 39.26
  L 36.06 59.54
  Q 36.05 60.65 37.14 60.47
  Q 57.53 57.04 60.26 36.86
  A 0.75 0.74 -86.3 0 0 59.52 36.01
  L 39.24 36.25
  A 0.73 0.73 0.0 0 1 38.50 35.55
  Q 38.48 35.28 38.54 35.01
  Q 38.76 34.00 39.78 34.01
  L 59.28 34.06
  A 0.89 0.88 -4.4 0 0 60.16 33.04
  Q 57.30 14.61 39.35 10.20
  A 0.98 0.96 6.4 0 1 38.61 9.29
  L 38.58 8.53
  Q 38.55 7.68 39.38 7.84
  Q 51.87 10.29 58.04 20.25
  C 65.26 31.92 63.19 46.90 52.72 55.84
  C 42.44 64.63 27.15 64.63 16.80 55.55
  C 7.54 47.42 5.17 34.79 10.02 23.43
  A 0.69 0.69 0.0 0 1 11.06 23.14
  L 11.79 23.67
  A 1.12 1.11 29.5 0 1 12.16 25.00
  Q 10.51 28.87 10.04 33.31
  Q 9.98 33.92 10.59 33.92
  Q 18.22 34.00 25.99 33.97
  Q 27.92 33.96 29.44 35.80
  Q 29.79 36.23 29.24 36.23
  L 10.29 36.25
  A 0.31 0.31 0.0 0 0 9.98 36.60
  Q 11.93 53.32 26.85 59.03
  Q 30.05 60.26 33.56 60.45
  Q 34.06 60.48 34.06 59.98
  Z"
/>
<circle cx="25.49" cy="20.68" r="3.61"/>
<circle cx="18.23" cy="42.25" r="3.54"/>
<circle cx="43.44" cy="48.27" r="2.28"/>
</g>
</svg>
