<svg width="32" height="32" viewBox="0 0 32 32" fill="none" xmlns="http://www.w3.org/2000/svg">
<path d="M23.1451 6.59653C24.8274 5.86511 26.3543 4.80453 27.7394 3.56568C27.907 3.4133 28 3.44987 28.0183 3.67539C28.2011 5.97939 27.9634 8.53025 26.2903 10.208C22.688 13.8255 19.2427 17.3318 15.9543 20.7268C15.7954 20.8914 15.6051 21.0225 15.3947 21.1124C15.1843 21.2023 14.9579 21.2493 14.7288 21.2506C14.4998 21.2519 14.2726 21.2074 14.0607 21.1198C13.8488 21.0322 13.6565 20.9033 13.4948 20.7405L11.0766 18.304C11.0369 18.2635 11.0058 18.2154 10.985 18.1627C10.9642 18.11 10.9542 18.0537 10.9554 17.9971C10.9567 17.9404 10.9693 17.8846 10.9925 17.8329C11.0156 17.7812 11.0489 17.7346 11.0903 17.696C14.7505 14.2613 18.275 10.9089 21.664 7.63882C22.1638 7.15425 22.6575 6.80682 23.1451 6.59653ZM23.0866 9.84778C23.036 9.79561 22.9692 9.76025 22.8898 9.74371C22.8104 9.72717 22.7201 9.72978 22.624 9.75139C22.5279 9.77299 22.4279 9.81318 22.3297 9.86964C22.2314 9.9261 22.137 9.99774 22.0516 10.0805C21.8792 10.2475 21.7544 10.4496 21.7047 10.6422C21.655 10.8348 21.6845 11.0022 21.7865 11.1076C21.8371 11.1597 21.904 11.1951 21.9833 11.2116C22.0627 11.2282 22.153 11.2256 22.2491 11.204C22.3452 11.1824 22.4453 11.1422 22.5435 11.0857C22.6417 11.0293 22.7362 10.9576 22.8215 10.8749C22.9939 10.7078 23.1187 10.5058 23.1684 10.3131C23.2181 10.1205 23.1887 9.95313 23.0866 9.84778Z" fill="#FFFF94"/>
<path d="M9.12547 18.0553L8.76322 18.3907C8.53721 18.6 8.52366 18.9529 8.73294 19.1789L14.1871 25.0688C14.3964 25.2948 14.7492 25.3084 14.9753 25.0991L15.3375 24.7637C15.5635 24.5544 15.5771 24.2015 15.3678 23.9755L9.91361 18.0855C9.70433 17.8595 9.35147 17.846 9.12547 18.0553Z" fill="#FFFF94"/>
<path d="M8.09137 22.1212C8.43879 21.7646 8.48451 21.4355 8.48908 20.9555C8.49213 20.6111 8.60184 20.5745 8.81822 20.8458C9.45365 21.6412 10.6057 23.7989 10.3359 24.9966C10.3006 25.1619 10.2066 25.3095 10.0708 25.4126C9.01327 26.1989 8.21936 27.0568 7.68908 27.9863C7.13746 28.9524 6.39689 29.1292 5.46736 28.5166C5.39117 28.4648 5.03003 28.224 4.38394 27.7943C3.54584 27.2397 3.49251 26.618 4.22394 25.9292C5.52832 24.698 6.81746 23.4286 8.09137 22.1212Z" fill="#FFFF94"/>
</svg>
