<?xml version="1.0" encoding="UTF-8" standalone="no"?>
<!DOCTYPE svg PUBLIC "-//W3C//DTD SVG 1.1//EN" "http://www.w3.org/Graphics/SVG/1.1/DTD/svg11.dtd">
<svg xmlns="http://www.w3.org/2000/svg" version="1.1" viewBox="0.00 0.00 70.00 70.00">
<g stroke-width="2.00" fill="none" stroke-linecap="butt">
<path stroke="#575c63" vector-effect="non-scaling-stroke" d="
  M 60.68 7.80
  C 57.65 10.51 54.31 12.83 50.63 14.43
  Q 49.03 15.12 47.39 16.71
  Q 36.27 27.44 24.26 38.71
  A 0.93 0.93 0.0 0 0 24.23 40.04
  L 29.52 45.37
  A 3.77 3.76 44.6 0 0 34.90 45.34
  Q 45.69 34.20 57.51 22.33
  C 61.17 18.66 61.69 13.08 61.29 8.04
  Q 61.23 7.30 60.68 7.80"
/>
<path stroke="#575c63" vector-effect="non-scaling-stroke" d="
  M 21.6859 39.5620
  A 1.22 1.22 0.0 0 0 19.9618 39.4958
  L 19.1694 40.2296
  A 1.22 1.22 0.0 0 0 19.1031 41.9537
  L 31.0341 54.8380
  A 1.22 1.22 0.0 0 0 32.7582 54.9042
  L 33.5506 54.1704
  A 1.22 1.22 0.0 0 0 33.6169 52.4463
  L 21.6859 39.5620"
/>
<path stroke="#575c63" vector-effect="non-scaling-stroke" d="
  M 17.70 48.39
  Q 13.52 52.68 9.24 56.72
  Q 6.84 58.98 9.59 60.80
  Q 11.71 62.21 11.96 62.38
  Q 15.01 64.39 16.82 61.22
  Q 18.56 58.17 22.03 55.59
  A 1.56 1.54 -12.9 0 0 22.61 54.68
  C 23.20 52.06 20.68 47.34 19.29 45.60
  Q 18.58 44.71 18.57 45.84
  C 18.56 46.89 18.46 47.61 17.70 48.39"
/>
<path stroke="#575c63" vector-effect="non-scaling-stroke" d="
  M 50.5019 21.5421
  A 1.98 1.21 -44.1 0 0 48.2379 22.0511
  A 1.98 1.21 -44.1 0 0 47.6581 24.2979
  A 1.98 1.21 -44.1 0 0 49.9221 23.7889
  A 1.98 1.21 -44.1 0 0 50.5019 21.5421"
/>
</g>
<g fill="#2f353e">
<path d="
  M 0.00 0.00
  L 70.00 0.00
  L 70.00 70.00
  L 0.00 70.00
  L 0.00 0.00
  Z
  M 60.68 7.80
  C 57.65 10.51 54.31 12.83 50.63 14.43
  Q 49.03 15.12 47.39 16.71
  Q 36.27 27.44 24.26 38.71
  A 0.93 0.93 0.0 0 0 24.23 40.04
  L 29.52 45.37
  A 3.77 3.76 44.6 0 0 34.90 45.34
  Q 45.69 34.20 57.51 22.33
  C 61.17 18.66 61.69 13.08 61.29 8.04
  Q 61.23 7.30 60.68 7.80
  Z
  M 21.6859 39.5620
  A 1.22 1.22 0.0 0 0 19.9618 39.4958
  L 19.1694 40.2296
  A 1.22 1.22 0.0 0 0 19.1031 41.9537
  L 31.0341 54.8380
  A 1.22 1.22 0.0 0 0 32.7582 54.9042
  L 33.5506 54.1704
  A 1.22 1.22 0.0 0 0 33.6169 52.4463
  L 21.6859 39.5620
  Z
  M 17.70 48.39
  Q 13.52 52.68 9.24 56.72
  Q 6.84 58.98 9.59 60.80
  Q 11.71 62.21 11.96 62.38
  Q 15.01 64.39 16.82 61.22
  Q 18.56 58.17 22.03 55.59
  A 1.56 1.54 -12.9 0 0 22.61 54.68
  C 23.20 52.06 20.68 47.34 19.29 45.60
  Q 18.58 44.71 18.57 45.84
  C 18.56 46.89 18.46 47.61 17.70 48.39
  Z"
/>
<ellipse cx="0.00" cy="0.00" transform="translate(49.08,22.92) rotate(-44.1)" rx="1.98" ry="1.21"/>
</g>
<g fill="#ffff94">
<path d="
  M 50.63 14.43
  C 54.31 12.83 57.65 10.51 60.68 7.80
  Q 61.23 7.30 61.29 8.04
  C 61.69 13.08 61.17 18.66 57.51 22.33
  Q 45.69 34.20 34.90 45.34
  A 3.77 3.76 44.6 0 1 29.52 45.37
  L 24.23 40.04
  A 0.93 0.93 0.0 0 1 24.26 38.71
  Q 36.27 27.44 47.39 16.71
  Q 49.03 15.12 50.63 14.43
  Z
  M 50.5019 21.5421
  A 1.98 1.21 -44.1 0 0 48.2379 22.0511
  A 1.98 1.21 -44.1 0 0 47.6581 24.2979
  A 1.98 1.21 -44.1 0 0 49.9221 23.7889
  A 1.98 1.21 -44.1 0 0 50.5019 21.5421
  Z"
/>
<rect x="-1.76" y="-10.00" transform="translate(26.36,47.20) rotate(-42.8)" width="3.52" height="20.00" rx="1.22"/>
<path d="
  M 17.70 48.39
  C 18.46 47.61 18.56 46.89 18.57 45.84
  Q 18.58 44.71 19.29 45.60
  C 20.68 47.34 23.20 52.06 22.61 54.68
  A 1.56 1.54 -12.9 0 1 22.03 55.59
  Q 18.56 58.17 16.82 61.22
  Q 15.01 64.39 11.96 62.38
  Q 11.71 62.21 9.59 60.80
  Q 6.84 58.98 9.24 56.72
  Q 13.52 52.68 17.70 48.39
  Z"
/>
</g>
</svg>
