<svg width="32" height="32" viewBox="0 0 32 32" fill="none" xmlns="http://www.w3.org/2000/svg">
<path d="M22.0525 10.0023L18.6559 10.0114C18.5406 10.0115 18.4299 9.96662 18.3471 9.88641C18.2643 9.80619 18.2161 9.6969 18.2125 9.58168L18.1759 8.50283C18.1734 8.44308 18.1831 8.38344 18.2043 8.32751C18.2255 8.27159 18.2577 8.22052 18.2991 8.17739C18.3406 8.13426 18.3903 8.09995 18.4453 8.07653C18.5003 8.05311 18.5595 8.04106 18.6193 8.04111L22.0616 8.05483C22.1206 8.05484 22.1791 8.04308 22.2335 8.02022C22.2879 7.99737 22.3372 7.96388 22.3785 7.92174C22.4198 7.87959 22.4522 7.82962 22.474 7.77476C22.4957 7.7199 22.5063 7.66125 22.5051 7.60226L22.4502 4.2514C22.4496 4.19317 22.4605 4.13539 22.4822 4.08136C22.5039 4.02732 22.5361 3.9781 22.5768 3.9365C22.6176 3.8949 22.6661 3.86173 22.7197 3.8389C22.7733 3.81606 22.8308 3.804 22.8891 3.8034L23.9542 3.79883C24.0128 3.79883 24.0709 3.81044 24.125 3.83301C24.1791 3.85558 24.2281 3.88866 24.2694 3.93032C24.3106 3.97198 24.3432 4.0214 24.3652 4.07573C24.3872 4.13006 24.3982 4.18821 24.3976 4.24683L24.3793 7.64797C24.3793 7.70698 24.3911 7.7654 24.4139 7.8198C24.4368 7.87421 24.4703 7.9235 24.5124 7.9648C24.5546 8.0061 24.6046 8.03857 24.6594 8.06031C24.7143 8.08204 24.7729 8.09262 24.8319 8.0914L28.2011 8.00911C28.2612 8.00724 28.3211 8.01763 28.3771 8.03965C28.4331 8.06167 28.4841 8.09486 28.5268 8.1372C28.5696 8.17954 28.6033 8.23015 28.6259 8.28593C28.6485 8.34172 28.6595 8.40152 28.6582 8.46169L28.6308 9.5954C28.6284 9.71221 28.58 9.82335 28.4961 9.90467C28.4122 9.98599 28.2996 10.0309 28.1828 10.0297L24.8411 9.99311C24.7821 9.9925 24.7235 10.0037 24.6689 10.026C24.6143 10.0483 24.5646 10.0812 24.5229 10.123C24.4812 10.1647 24.4482 10.2143 24.4259 10.269C24.4036 10.3236 24.3924 10.3821 24.3931 10.4411L24.4388 13.8423C24.4394 13.9013 24.4282 13.9598 24.4059 14.0144C24.3836 14.069 24.3506 14.1187 24.3089 14.1604C24.2672 14.2021 24.2176 14.2351 24.1629 14.2574C24.1083 14.2797 24.0498 14.2909 23.9908 14.2903L22.8891 14.2765C22.8308 14.2759 22.7733 14.2639 22.7197 14.241C22.6661 14.2182 22.6176 14.185 22.5768 14.1434C22.5361 14.1018 22.5039 14.0526 22.4822 13.9986C22.4605 13.9446 22.4496 13.8868 22.4502 13.8285L22.5005 10.4548C22.5017 10.3954 22.491 10.3364 22.469 10.2813C22.447 10.2261 22.4141 10.1759 22.3723 10.1337C22.3305 10.0915 22.2807 10.0581 22.2257 10.0355C22.1708 10.0129 22.1119 10.0016 22.0525 10.0023Z" fill="#FFFF94"/>
<path d="M11.6938 18.528L7.0218 18.5418C6.83589 18.5448 6.67437 18.4839 6.53723 18.3589C5.89113 17.7799 5.22066 17.1475 4.5258 16.4618C3.63437 15.584 3.5978 13.9932 3.36923 12.8229C3.33854 12.663 3.36459 12.4972 3.44294 12.3538C3.5213 12.2104 3.64711 12.0983 3.79894 12.0366C5.50409 11.3555 6.13494 12.7589 7.15894 13.6915C7.27475 13.7981 7.41037 13.8515 7.5658 13.8515L9.91094 13.8423C10.0664 13.8423 10.1989 13.786 10.3087 13.6732L11.2412 12.7041C11.3723 12.57 11.4363 12.4084 11.4332 12.2195L11.4195 10.1943C11.4195 9.98405 11.3464 9.80424 11.2001 9.65491C10.3361 8.76348 8.79551 7.90862 9.50409 6.38176C9.58735 6.20335 9.72819 6.05811 9.90396 5.96939C10.0797 5.88068 10.2802 5.85364 10.4732 5.89262C11.4744 6.09376 13.1155 6.13491 13.8241 6.86634C14.522 7.59167 15.2351 8.30938 15.9635 9.01948C16.0732 9.1231 16.1266 9.24957 16.1235 9.39891L16.1189 14.2858C16.1189 14.3756 16.1362 14.4643 16.17 14.5466C16.2037 14.629 16.2532 14.7035 16.3155 14.7658L25.6138 23.9726C25.7479 24.1037 25.8149 24.2637 25.8149 24.4526C25.8149 25.0378 25.8241 25.5757 25.8424 26.0663C25.8835 26.9578 25.1841 27.4378 24.6035 27.9635C24.4908 28.0641 24.3597 28.1143 24.2104 28.1143H21.9521C21.8652 28.1144 21.7788 28.0971 21.698 28.0634C21.6172 28.0297 21.5436 27.9802 21.4812 27.9178L12.3109 18.7795C12.1403 18.6119 11.9346 18.528 11.6938 18.528ZM23.6069 25.1201C23.6069 24.8691 23.5072 24.6284 23.3298 24.4509C23.1523 24.2735 22.9116 24.1738 22.6607 24.1738C22.4097 24.1738 22.169 24.2735 21.9915 24.4509C21.8141 24.6284 21.7144 24.8691 21.7144 25.1201C21.7144 25.371 21.8141 25.6117 21.9915 25.7892C22.169 25.9666 22.4097 26.0663 22.6607 26.0663C22.9116 26.0663 23.1523 25.9666 23.3298 25.7892C23.5072 25.6117 23.6069 25.371 23.6069 25.1201Z" fill="#FFFF94"/>
</svg>
