<?xml version="1.0" encoding="UTF-8" standalone="no"?>
<!DOCTYPE svg PUBLIC "-//W3C//DTD SVG 1.1//EN" "http://www.w3.org/Graphics/SVG/1.1/DTD/svg11.dtd">
<svg xmlns="http://www.w3.org/2000/svg" version="1.1" viewBox="0.00 0.00 70.00 70.00">
<g stroke-width="2.00" fill="none" stroke-linecap="butt">
<path stroke="#575c63" vector-effect="non-scaling-stroke" d="
  M 48.24 21.88
  A 0.97 0.97 0.0 0 1 49.22 22.87
  L 49.11 30.25
  A 0.97 0.97 0.0 0 0 50.07 31.23
  L 52.48 31.26
  A 0.97 0.97 0.0 0 0 53.46 30.28
  L 53.36 22.84
  A 0.97 0.97 0.0 0 1 54.34 21.86
  L 61.65 21.94
  A 0.97 0.97 0.0 0 0 62.63 20.99
  L 62.69 18.51
  A 0.97 0.97 0.0 0 0 61.69 17.52
  L 54.32 17.70
  A 0.97 0.97 0.0 0 1 53.33 16.73
  L 53.37 9.29
  A 0.97 0.97 0.0 0 0 52.40 8.31
  L 50.07 8.32
  A 0.97 0.97 0.0 0 0 49.11 9.30
  L 49.23 16.63
  A 0.97 0.97 0.0 0 1 48.26 17.62
  L 40.73 17.59
  A 0.97 0.97 0.0 0 0 39.76 18.60
  L 39.84 20.96
  A 0.97 0.97 0.0 0 0 40.81 21.90
  L 48.24 21.88"
/>
<path stroke="#575c63" vector-effect="non-scaling-stroke" d="
  M 26.93 41.08
  L 46.99 61.07
  A 1.47 1.44 67.1 0 0 48.02 61.50
  L 52.96 61.50
  Q 53.45 61.50 53.82 61.17
  C 55.09 60.02 56.62 58.97 56.53 57.02
  Q 56.47 55.41 56.47 53.49
  Q 56.47 52.87 56.03 52.44
  L 35.69 32.30
  A 1.50 1.46 -68.1 0 1 35.26 31.25
  L 35.27 20.56
  Q 35.28 20.07 34.92 19.73
  Q 32.53 17.40 30.24 15.02
  C 28.69 13.42 25.10 13.33 22.91 12.89
  A 1.92 1.92 0.0 0 0 20.79 13.96
  C 19.24 17.30 22.61 19.17 24.50 21.12
  Q 24.98 21.61 24.98 22.30
  L 25.01 26.73
  Q 25.02 27.35 24.59 27.79
  L 22.55 29.91
  Q 22.19 30.28 21.68 30.28
  L 16.55 30.30
  Q 16.04 30.30 15.66 29.95
  C 13.42 27.91 12.04 24.84 8.31 26.33
  A 1.55 1.54 -16.6 0 0 7.37 28.05
  C 7.87 30.61 7.95 34.09 9.90 36.01
  Q 12.18 38.26 14.30 40.16
  Q 14.75 40.57 15.36 40.56
  L 25.58 40.53
  Q 26.37 40.53 26.93 41.08"
/>
<path stroke="#575c63" vector-effect="non-scaling-stroke" d="
  M 51.64 54.95
  A 2.07 2.07 0.0 0 0 49.57 52.88
  A 2.07 2.07 0.0 0 0 47.50 54.95
  A 2.07 2.07 0.0 0 0 49.57 57.02
  A 2.07 2.07 0.0 0 0 51.64 54.95"
/>
</g>
<g fill="#2f353e">
<path d="
  M 0.00 0.00
  L 70.00 0.00
  L 70.00 70.00
  L 0.00 70.00
  L 0.00 0.00
  Z
  M 48.24 21.88
  A 0.97 0.97 0.0 0 1 49.22 22.87
  L 49.11 30.25
  A 0.97 0.97 0.0 0 0 50.07 31.23
  L 52.48 31.26
  A 0.97 0.97 0.0 0 0 53.46 30.28
  L 53.36 22.84
  A 0.97 0.97 0.0 0 1 54.34 21.86
  L 61.65 21.94
  A 0.97 0.97 0.0 0 0 62.63 20.99
  L 62.69 18.51
  A 0.97 0.97 0.0 0 0 61.69 17.52
  L 54.32 17.70
  A 0.97 0.97 0.0 0 1 53.33 16.73
  L 53.37 9.29
  A 0.97 0.97 0.0 0 0 52.40 8.31
  L 50.07 8.32
  A 0.97 0.97 0.0 0 0 49.11 9.30
  L 49.23 16.63
  A 0.97 0.97 0.0 0 1 48.26 17.62
  L 40.73 17.59
  A 0.97 0.97 0.0 0 0 39.76 18.60
  L 39.84 20.96
  A 0.97 0.97 0.0 0 0 40.81 21.90
  L 48.24 21.88
  Z
  M 26.93 41.08
  L 46.99 61.07
  A 1.47 1.44 67.1 0 0 48.02 61.50
  L 52.96 61.50
  Q 53.45 61.50 53.82 61.17
  C 55.09 60.02 56.62 58.97 56.53 57.02
  Q 56.47 55.41 56.47 53.49
  Q 56.47 52.87 56.03 52.44
  L 35.69 32.30
  A 1.50 1.46 -68.1 0 1 35.26 31.25
  L 35.27 20.56
  Q 35.28 20.07 34.92 19.73
  Q 32.53 17.40 30.24 15.02
  C 28.69 13.42 25.10 13.33 22.91 12.89
  A 1.92 1.92 0.0 0 0 20.79 13.96
  C 19.24 17.30 22.61 19.17 24.50 21.12
  Q 24.98 21.61 24.98 22.30
  L 25.01 26.73
  Q 25.02 27.35 24.59 27.79
  L 22.55 29.91
  Q 22.19 30.28 21.68 30.28
  L 16.55 30.30
  Q 16.04 30.30 15.66 29.95
  C 13.42 27.91 12.04 24.84 8.31 26.33
  A 1.55 1.54 -16.6 0 0 7.37 28.05
  C 7.87 30.61 7.95 34.09 9.90 36.01
  Q 12.18 38.26 14.30 40.16
  Q 14.75 40.57 15.36 40.56
  L 25.58 40.53
  Q 26.37 40.53 26.93 41.08
  Z"
/>
<circle cx="49.57" cy="54.95" r="2.07"/>
</g>
<g fill="#ffff94">
<path d="
  M 48.24 21.88
  L 40.81 21.90
  A 0.97 0.97 0.0 0 1 39.84 20.96
  L 39.76 18.60
  A 0.97 0.97 0.0 0 1 40.73 17.59
  L 48.26 17.62
  A 0.97 0.97 0.0 0 0 49.23 16.63
  L 49.11 9.30
  A 0.97 0.97 0.0 0 1 50.07 8.32
  L 52.40 8.31
  A 0.97 0.97 0.0 0 1 53.37 9.29
  L 53.33 16.73
  A 0.97 0.97 0.0 0 0 54.32 17.70
  L 61.69 17.52
  A 0.97 0.97 0.0 0 1 62.69 18.51
  L 62.63 20.99
  A 0.97 0.97 0.0 0 1 61.65 21.94
  L 54.34 21.86
  A 0.97 0.97 0.0 0 0 53.36 22.84
  L 53.46 30.28
  A 0.97 0.97 0.0 0 1 52.48 31.26
  L 50.07 31.23
  A 0.97 0.97 0.0 0 1 49.11 30.25
  L 49.22 22.87
  A 0.97 0.97 0.0 0 0 48.24 21.88
  Z"
/>
<path d="
  M 25.58 40.53
  L 15.36 40.56
  Q 14.75 40.57 14.30 40.16
  Q 12.18 38.26 9.90 36.01
  C 7.95 34.09 7.87 30.61 7.37 28.05
  A 1.55 1.54 -16.6 0 1 8.31 26.33
  C 12.04 24.84 13.42 27.91 15.66 29.95
  Q 16.04 30.30 16.55 30.30
  L 21.68 30.28
  Q 22.19 30.28 22.55 29.91
  L 24.59 27.79
  Q 25.02 27.35 25.01 26.73
  L 24.98 22.30
  Q 24.98 21.61 24.50 21.12
  C 22.61 19.17 19.24 17.30 20.79 13.96
  A 1.92 1.92 0.0 0 1 22.91 12.89
  C 25.10 13.33 28.69 13.42 30.24 15.02
  Q 32.53 17.40 34.92 19.73
  Q 35.28 20.07 35.27 20.56
  L 35.26 31.25
  A 1.50 1.46 -68.1 0 0 35.69 32.30
  L 56.03 52.44
  Q 56.47 52.87 56.47 53.49
  Q 56.47 55.41 56.53 57.02
  C 56.62 58.97 55.09 60.02 53.82 61.17
  Q 53.45 61.50 52.96 61.50
  L 48.02 61.50
  A 1.47 1.44 67.1 0 1 46.99 61.07
  L 26.93 41.08
  Q 26.37 40.53 25.58 40.53
  Z
  M 51.64 54.95
  A 2.07 2.07 0.0 0 0 49.57 52.88
  A 2.07 2.07 0.0 0 0 47.50 54.95
  A 2.07 2.07 0.0 0 0 49.57 57.02
  A 2.07 2.07 0.0 0 0 51.64 54.95
  Z"
/>
</g>
</svg>
