<?xml version="1.0" encoding="UTF-8" standalone="no"?>
<!DOCTYPE svg PUBLIC "-//W3C//DTD SVG 1.1//EN" "http://www.w3.org/Graphics/SVG/1.1/DTD/svg11.dtd">
<svg xmlns="http://www.w3.org/2000/svg" version="1.1" viewBox="0.00 0.00 70.00 70.00">
<g stroke-width="2.00" fill="none" stroke-linecap="butt">
<path stroke="#575c63" vector-effect="non-scaling-stroke" d="
  M 7.26 18.90
  A 0.31 0.31 0.0 0 0 7.73 19.17
  L 14.21 15.31
  A 0.31 0.31 0.0 0 1 14.53 15.31
  L 20.77 19.25
  A 0.31 0.31 0.0 0 0 21.25 18.99
  L 21.25 13.70
  A 0.31 0.31 0.0 0 0 21.10 13.43
  L 14.36 9.37
  A 0.31 0.31 0.0 0 0 14.04 9.37
  L 7.41 13.43
  A 0.31 0.31 0.0 0 0 7.26 13.69
  L 7.26 18.90"
/>
<path stroke="#575c63" vector-effect="non-scaling-stroke" d="
  M 55.50 23.76
  C 59.54 24.40 59.88 18.73 56.17 18.72
  Q 48.50 18.69 42.05 18.76
  C 39.62 18.78 38.07 20.49 36.27 22.00
  Q 35.78 22.40 35.21 22.12
  C 25.66 17.47 18.31 31.88 28.02 37.29
  A 1.07 1.07 0.0 0 1 28.56 38.36
  C 28.03 42.35 27.58 46.08 27.88 50.14
  Q 27.98 51.45 29.20 51.93
  Q 30.07 52.27 31.09 50.68
  A 1.90 1.84 62.5 0 0 31.38 49.71
  Q 31.41 44.09 32.78 39.07
  C 33.25 37.34 35.29 37.36 36.59 36.33
  C 39.03 34.41 39.60 32.32 39.94 29.45
  A 1.30 1.29 -88.9 0 1 41.11 28.32
  L 41.47 28.29
  Q 42.20 28.23 42.11 28.96
  L 41.70 32.44
  A 0.51 0.50 -86.5 0 0 42.20 33.01
  L 55.96 32.98
  A 0.51 0.50 87.9 0 0 56.46 32.43
  Q 56.14 28.21 54.91 24.44
  A 0.53 0.53 0.0 0 1 55.50 23.76"
/>
<path stroke="#575c63" vector-effect="non-scaling-stroke" d="
  M 14.20 27.53
  A 0.32 0.32 0.0 0 1 14.53 27.53
  L 20.75 31.38
  A 0.32 0.32 0.0 0 0 21.24 31.11
  L 21.24 25.84
  A 0.32 0.32 0.0 0 0 21.08 25.57
  L 14.37 21.64
  A 0.32 0.32 0.0 0 0 14.05 21.64
  L 7.43 25.59
  A 0.32 0.32 0.0 0 0 7.27 25.86
  L 7.24 31.06
  A 0.32 0.32 0.0 0 0 7.72 31.34
  L 14.20 27.53"
/>
<path stroke="#575c63" vector-effect="non-scaling-stroke" d="
  M 14.19 39.70
  A 0.33 0.33 0.0 0 1 14.53 39.70
  L 20.73 43.50
  A 0.33 0.33 0.0 0 0 21.23 43.22
  L 21.24 38.05
  A 0.33 0.33 0.0 0 0 21.08 37.76
  L 14.38 33.79
  A 0.33 0.33 0.0 0 0 14.04 33.79
  L 7.42 37.75
  A 0.33 0.33 0.0 0 0 7.26 38.04
  L 7.25 43.20
  A 0.33 0.33 0.0 0 0 7.75 43.49
  L 14.19 39.70"
/>
<path stroke="#575c63" vector-effect="non-scaling-stroke" d="
  M 35.49 49.76
  C 37.56 59.58 48.98 63.91 57.08 58.16
  C 62.65 54.21 63.74 48.29 62.35 41.93
  Q 61.65 38.71 58.41 35.70
  Q 57.99 35.31 57.42 35.31
  L 40.86 35.29
  Q 39.97 35.29 39.37 35.96
  Q 33.88 42.17 35.49 49.76"
/>
<path stroke="#575c63" vector-effect="non-scaling-stroke" d="
  M 14.18 51.92
  A 0.40 0.40 0.0 0 1 14.59 51.93
  L 20.64 55.74
  A 0.40 0.40 0.0 0 0 21.25 55.41
  L 21.27 50.25
  A 0.40 0.40 0.0 0 0 21.07 49.90
  L 14.41 45.96
  A 0.40 0.40 0.0 0 0 14.01 45.96
  L 7.45 49.88
  A 0.40 0.40 0.0 0 0 7.26 50.23
  L 7.23 55.26
  A 0.40 0.40 0.0 0 0 7.83 55.61
  L 14.18 51.92"
/>
<path stroke="#575c63" vector-effect="non-scaling-stroke" d="
  M 28.55 34.56
  Q 28.97 34.90 29.35 34.51
  Q 29.72 34.13 29.84 33.62
  Q 30.86 29.29 33.35 25.85
  Q 34.55 24.20 32.52 24.00
  Q 29.62 23.71 27.68 25.69
  A 5.42 5.30 -12.2 0 0 26.53 27.43
  Q 24.84 31.53 28.55 34.56"
/>
<path stroke="#575c63" vector-effect="non-scaling-stroke" d="
  M 36.37 32.95
  Q 36.79 32.54 36.87 31.98
  Q 36.99 31.10 36.39 31.76
  Q 35.49 32.75 34.98 33.90
  Q 34.62 34.74 35.24 34.08
  Q 35.78 33.51 36.37 32.95"
/>
</g>
<g fill="#2f353e">
<path d="
  M 0.00 0.00
  L 70.00 0.00
  L 70.00 70.00
  L 0.00 70.00
  L 0.00 0.00
  Z
  M 7.26 18.90
  A 0.31 0.31 0.0 0 0 7.73 19.17
  L 14.21 15.31
  A 0.31 0.31 0.0 0 1 14.53 15.31
  L 20.77 19.25
  A 0.31 0.31 0.0 0 0 21.25 18.99
  L 21.25 13.70
  A 0.31 0.31 0.0 0 0 21.10 13.43
  L 14.36 9.37
  A 0.31 0.31 0.0 0 0 14.04 9.37
  L 7.41 13.43
  A 0.31 0.31 0.0 0 0 7.26 13.69
  L 7.26 18.90
  Z
  M 55.50 23.76
  C 59.54 24.40 59.88 18.73 56.17 18.72
  Q 48.50 18.69 42.05 18.76
  C 39.62 18.78 38.07 20.49 36.27 22.00
  Q 35.78 22.40 35.21 22.12
  C 25.66 17.47 18.31 31.88 28.02 37.29
  A 1.07 1.07 0.0 0 1 28.56 38.36
  C 28.03 42.35 27.58 46.08 27.88 50.14
  Q 27.98 51.45 29.20 51.93
  Q 30.07 52.27 31.09 50.68
  A 1.90 1.84 62.5 0 0 31.38 49.71
  Q 31.41 44.09 32.78 39.07
  C 33.25 37.34 35.29 37.36 36.59 36.33
  C 39.03 34.41 39.60 32.32 39.94 29.45
  A 1.30 1.29 -88.9 0 1 41.11 28.32
  L 41.47 28.29
  Q 42.20 28.23 42.11 28.96
  L 41.70 32.44
  A 0.51 0.50 -86.5 0 0 42.20 33.01
  L 55.96 32.98
  A 0.51 0.50 87.9 0 0 56.46 32.43
  Q 56.14 28.21 54.91 24.44
  A 0.53 0.53 0.0 0 1 55.50 23.76
  Z
  M 14.20 27.53
  A 0.32 0.32 0.0 0 1 14.53 27.53
  L 20.75 31.38
  A 0.32 0.32 0.0 0 0 21.24 31.11
  L 21.24 25.84
  A 0.32 0.32 0.0 0 0 21.08 25.57
  L 14.37 21.64
  A 0.32 0.32 0.0 0 0 14.05 21.64
  L 7.43 25.59
  A 0.32 0.32 0.0 0 0 7.27 25.86
  L 7.24 31.06
  A 0.32 0.32 0.0 0 0 7.72 31.34
  L 14.20 27.53
  Z
  M 14.19 39.70
  A 0.33 0.33 0.0 0 1 14.53 39.70
  L 20.73 43.50
  A 0.33 0.33 0.0 0 0 21.23 43.22
  L 21.24 38.05
  A 0.33 0.33 0.0 0 0 21.08 37.76
  L 14.38 33.79
  A 0.33 0.33 0.0 0 0 14.04 33.79
  L 7.42 37.75
  A 0.33 0.33 0.0 0 0 7.26 38.04
  L 7.25 43.20
  A 0.33 0.33 0.0 0 0 7.75 43.49
  L 14.19 39.70
  Z
  M 35.49 49.76
  C 37.56 59.58 48.98 63.91 57.08 58.16
  C 62.65 54.21 63.74 48.29 62.35 41.93
  Q 61.65 38.71 58.41 35.70
  Q 57.99 35.31 57.42 35.31
  L 40.86 35.29
  Q 39.97 35.29 39.37 35.96
  Q 33.88 42.17 35.49 49.76
  Z
  M 14.18 51.92
  A 0.40 0.40 0.0 0 1 14.59 51.93
  L 20.64 55.74
  A 0.40 0.40 0.0 0 0 21.25 55.41
  L 21.27 50.25
  A 0.40 0.40 0.0 0 0 21.07 49.90
  L 14.41 45.96
  A 0.40 0.40 0.0 0 0 14.01 45.96
  L 7.45 49.88
  A 0.40 0.40 0.0 0 0 7.26 50.23
  L 7.23 55.26
  A 0.40 0.40 0.0 0 0 7.83 55.61
  L 14.18 51.92
  Z"
/>
<path d="
  M 28.55 34.56
  Q 24.84 31.53 26.53 27.43
  A 5.42 5.30 -12.2 0 1 27.68 25.69
  Q 29.62 23.71 32.52 24.00
  Q 34.55 24.20 33.35 25.85
  Q 30.86 29.29 29.84 33.62
  Q 29.72 34.13 29.35 34.51
  Q 28.97 34.90 28.55 34.56
  Z"
/>
<path d="
  M 36.37 32.95
  Q 35.78 33.51 35.24 34.08
  Q 34.62 34.74 34.98 33.90
  Q 35.49 32.75 36.39 31.76
  Q 36.99 31.10 36.87 31.98
  Q 36.79 32.54 36.37 32.95
  Z"
/>
</g>
<g fill="#ffff94">
<path d="
  M 7.26 18.90
  L 7.26 13.69
  A 0.31 0.31 0.0 0 1 7.41 13.43
  L 14.04 9.37
  A 0.31 0.31 0.0 0 1 14.36 9.37
  L 21.10 13.43
  A 0.31 0.31 0.0 0 1 21.25 13.70
  L 21.25 18.99
  A 0.31 0.31 0.0 0 1 20.77 19.25
  L 14.53 15.31
  A 0.31 0.31 0.0 0 0 14.21 15.31
  L 7.73 19.17
  A 0.31 0.31 0.0 0 1 7.26 18.90
  Z"
/>
<path d="
  M 55.50 23.76
  A 0.53 0.53 0.0 0 0 54.91 24.44
  Q 56.14 28.21 56.46 32.43
  A 0.51 0.50 87.9 0 1 55.96 32.98
  L 42.20 33.01
  A 0.51 0.50 -86.5 0 1 41.70 32.44
  L 42.11 28.96
  Q 42.20 28.23 41.47 28.29
  L 41.11 28.32
  A 1.30 1.29 -88.9 0 0 39.94 29.45
  C 39.60 32.32 39.03 34.41 36.59 36.33
  C 35.29 37.36 33.25 37.34 32.78 39.07
  Q 31.41 44.09 31.38 49.71
  A 1.90 1.84 62.5 0 1 31.09 50.68
  Q 30.07 52.27 29.20 51.93
  Q 27.98 51.45 27.88 50.14
  C 27.58 46.08 28.03 42.35 28.56 38.36
  A 1.07 1.07 0.0 0 0 28.02 37.29
  C 18.31 31.88 25.66 17.47 35.21 22.12
  Q 35.78 22.40 36.27 22.00
  C 38.07 20.49 39.62 18.78 42.05 18.76
  Q 48.50 18.69 56.17 18.72
  C 59.88 18.73 59.54 24.40 55.50 23.76
  Z
  M 28.55 34.56
  Q 28.97 34.90 29.35 34.51
  Q 29.72 34.13 29.84 33.62
  Q 30.86 29.29 33.35 25.85
  Q 34.55 24.20 32.52 24.00
  Q 29.62 23.71 27.68 25.69
  A 5.42 5.30 -12.2 0 0 26.53 27.43
  Q 24.84 31.53 28.55 34.56
  Z
  M 36.37 32.95
  Q 36.79 32.54 36.87 31.98
  Q 36.99 31.10 36.39 31.76
  Q 35.49 32.75 34.98 33.90
  Q 34.62 34.74 35.24 34.08
  Q 35.78 33.51 36.37 32.95
  Z"
/>
<path d="
  M 14.20 27.53
  L 7.72 31.34
  A 0.32 0.32 0.0 0 1 7.24 31.06
  L 7.27 25.86
  A 0.32 0.32 0.0 0 1 7.43 25.59
  L 14.05 21.64
  A 0.32 0.32 0.0 0 1 14.37 21.64
  L 21.08 25.57
  A 0.32 0.32 0.0 0 1 21.24 25.84
  L 21.24 31.11
  A 0.32 0.32 0.0 0 1 20.75 31.38
  L 14.53 27.53
  A 0.32 0.32 0.0 0 0 14.20 27.53
  Z"
/>
<path d="
  M 14.19 39.70
  L 7.75 43.49
  A 0.33 0.33 0.0 0 1 7.25 43.20
  L 7.26 38.04
  A 0.33 0.33 0.0 0 1 7.42 37.75
  L 14.04 33.79
  A 0.33 0.33 0.0 0 1 14.38 33.79
  L 21.08 37.76
  A 0.33 0.33 0.0 0 1 21.24 38.05
  L 21.23 43.22
  A 0.33 0.33 0.0 0 1 20.73 43.50
  L 14.53 39.70
  A 0.33 0.33 0.0 0 0 14.19 39.70
  Z"
/>
<path d="
  M 35.49 49.76
  Q 33.88 42.17 39.37 35.96
  Q 39.97 35.29 40.86 35.29
  L 57.42 35.31
  Q 57.99 35.31 58.41 35.70
  Q 61.65 38.71 62.35 41.93
  C 63.74 48.29 62.65 54.21 57.08 58.16
  C 48.98 63.91 37.56 59.58 35.49 49.76
  Z"
/>
<path d="
  M 14.18 51.92
  L 7.83 55.61
  A 0.40 0.40 0.0 0 1 7.23 55.26
  L 7.26 50.23
  A 0.40 0.40 0.0 0 1 7.45 49.88
  L 14.01 45.96
  A 0.40 0.40 0.0 0 1 14.41 45.96
  L 21.07 49.90
  A 0.40 0.40 0.0 0 1 21.27 50.25
  L 21.25 55.41
  A 0.40 0.40 0.0 0 1 20.64 55.74
  L 14.59 51.93
  A 0.40 0.40 0.0 0 0 14.18 51.92
  Z"
/>
</g>
</svg>
