<svg width="32" height="32" viewBox="0 0 32 32" fill="none" xmlns="http://www.w3.org/2000/svg">
<path d="M3.31886 8.63997V6.25825C3.31929 6.23426 3.32581 6.21076 3.3378 6.18997C3.3498 6.16918 3.36687 6.15178 3.38743 6.1394L6.41829 4.2834C6.44037 4.27009 6.46566 4.26306 6.49143 4.26306C6.51721 4.26306 6.5425 4.27009 6.56458 4.2834L9.64572 6.1394C9.66694 6.15218 9.68444 6.17031 9.69647 6.19196C9.7085 6.21362 9.71465 6.23805 9.71429 6.26282V8.68111C9.71435 8.7067 9.70749 8.73183 9.69442 8.75383C9.68135 8.77583 9.66257 8.79388 9.64007 8.80607C9.61757 8.81826 9.59219 8.82413 9.56663 8.82305C9.54106 8.82198 9.51626 8.814 9.49486 8.79997L6.64229 6.99882C6.62021 6.98552 6.59492 6.97849 6.56915 6.97849C6.54337 6.97849 6.51808 6.98552 6.49601 6.99882L3.53372 8.7634C3.51207 8.77644 3.48733 8.78347 3.46205 8.78373C3.43678 8.784 3.41189 8.7775 3.38997 8.76491C3.36805 8.75232 3.3499 8.73409 3.3374 8.71212C3.3249 8.69015 3.3185 8.66524 3.31886 8.63997Z" fill="#FFFF94"/>
<path d="M25.3714 10.8617C25.3307 10.8552 25.289 10.8592 25.2503 10.8733C25.2116 10.8873 25.1771 10.9111 25.1501 10.9422C25.1231 10.9733 25.1045 11.0108 25.096 11.0511C25.0876 11.0914 25.0895 11.1332 25.1017 11.1726C25.4765 12.3215 25.7127 13.539 25.8102 14.8251C25.8128 14.8573 25.8087 14.8896 25.7984 14.9201C25.788 14.9505 25.7716 14.9784 25.7501 15.0021C25.7286 15.0257 25.7026 15.0445 25.6736 15.0573C25.6446 15.0702 25.6133 15.0767 25.5817 15.0766L19.2914 15.0903C19.2589 15.0906 19.2268 15.0838 19.1971 15.0705C19.1674 15.0571 19.1408 15.0375 19.1192 15.0128C19.0976 14.9882 19.0814 14.9591 19.0717 14.9275C19.0619 14.8959 19.0589 14.8626 19.0628 14.8297L19.2502 13.2388C19.2777 13.0164 19.1801 12.9143 18.9577 12.9326L18.7931 12.9463C18.6588 12.9578 18.5325 13.0154 18.4352 13.1094C18.3379 13.2034 18.2754 13.3281 18.2582 13.4628C18.1028 14.7748 17.8422 15.7303 16.7268 16.608C16.1325 17.0788 15.2 17.0697 14.9851 17.8606C14.5676 19.3905 14.3542 21.0118 14.3451 22.7246C14.3421 22.883 14.2962 23.0365 14.2125 23.168C13.9017 23.6526 13.6137 23.843 13.3485 23.7394C12.9767 23.5931 12.7756 23.3204 12.7451 22.9211C12.608 21.0651 12.8137 19.36 13.056 17.536C13.0683 17.4391 13.0514 17.3408 13.0074 17.2536C12.9635 17.1664 12.8944 17.0944 12.8091 17.0468C8.37024 14.5737 11.7302 7.98628 16.096 10.112C16.2697 10.1973 16.4312 10.179 16.5805 10.0571C17.4034 9.36685 18.112 8.58513 19.2228 8.57599C21.1885 8.55466 23.3401 8.54856 25.6777 8.5577C27.3737 8.56227 27.2182 11.1543 25.3714 10.8617ZM13.0514 15.7988C13.1794 15.9025 13.3013 15.8948 13.4171 15.776C13.5299 15.6602 13.6045 15.5246 13.6411 15.3691C13.952 14.0495 14.4868 12.8655 15.2457 11.8171C15.6114 11.3143 15.4849 11.0324 14.8662 10.9714C13.9824 10.883 13.2449 11.1406 12.6537 11.744C12.4273 11.9733 12.2487 12.2436 12.128 12.5394C11.6129 13.7889 11.9207 14.8754 13.0514 15.7988ZM16.6262 15.0628C16.7542 14.9379 16.8304 14.7901 16.8548 14.6194C16.8914 14.3512 16.8182 14.3177 16.6354 14.5188C16.3611 14.8206 16.1462 15.1467 15.9908 15.4971C15.8811 15.7531 15.9207 15.7806 16.1097 15.5794C16.2742 15.4057 16.4464 15.2335 16.6262 15.0628Z" fill="#FFFF94"/>
<path d="M6.49153 12.5851L3.52925 14.3268C3.50691 14.3397 3.48157 14.3465 3.45578 14.3464C3.42999 14.3464 3.40467 14.3395 3.38239 14.3265C3.36011 14.3135 3.34167 14.2948 3.32892 14.2724C3.31618 14.25 3.30959 14.2246 3.30982 14.1988L3.32353 11.8217C3.3241 11.7965 3.33112 11.772 3.34394 11.7504C3.35675 11.7288 3.37491 11.7108 3.39668 11.6982L6.42296 9.89252C6.4452 9.87968 6.47043 9.87292 6.49611 9.87292C6.52178 9.87292 6.54701 9.87968 6.56925 9.89252L9.63668 11.6891C9.65844 11.7017 9.67661 11.7196 9.68942 11.7412C9.70223 11.7628 9.70926 11.7874 9.70982 11.8125V14.2217C9.70973 14.2478 9.70267 14.2733 9.68936 14.2958C9.67605 14.3182 9.65698 14.3367 9.63413 14.3493C9.61129 14.3619 9.58548 14.3681 9.55941 14.3674C9.53333 14.3667 9.50792 14.359 9.48582 14.3451L6.64239 12.5851C6.61962 12.5714 6.59354 12.5641 6.56696 12.5641C6.54038 12.5641 6.51431 12.5714 6.49153 12.5851Z" fill="#FFFF94"/>
<path d="M6.48682 18.1486L3.54282 19.8811C3.51969 19.895 3.49325 19.9025 3.46626 19.9027C3.43928 19.9029 3.41272 19.8959 3.38938 19.8824C3.36603 19.8688 3.34675 19.8493 3.33353 19.8257C3.32032 19.8022 3.31366 19.7755 3.31424 19.7486L3.31882 17.3897C3.31824 17.3631 3.32471 17.3369 3.33755 17.3136C3.3504 17.2903 3.36917 17.2708 3.39196 17.2571L6.41824 15.4469C6.44171 15.4327 6.46858 15.4253 6.49596 15.4253C6.52334 15.4253 6.55021 15.4327 6.57367 15.4469L9.63653 17.2617C9.65932 17.2754 9.67809 17.2949 9.69094 17.3182C9.70378 17.3414 9.71025 17.3677 9.70967 17.3943L9.7051 19.7577C9.70487 19.7843 9.69762 19.8104 9.68407 19.8333C9.67052 19.8561 9.65117 19.875 9.62796 19.888C9.60475 19.901 9.57853 19.9077 9.55193 19.9073C9.52534 19.9068 9.49933 19.8994 9.47653 19.8857L6.64224 18.1486C6.61878 18.1345 6.59191 18.127 6.56453 18.127C6.53715 18.127 6.51028 18.1345 6.48682 18.1486Z" fill="#FFFF94"/>
<path d="M16.224 22.7474C15.7334 20.4343 16.3246 18.3314 17.9977 16.4389C18.1806 16.2347 18.4076 16.1326 18.6789 16.1326L26.2492 16.1417C26.4229 16.1417 26.5737 16.2011 26.7017 16.32C27.6892 17.2373 28.2895 18.1867 28.5029 19.168C29.1383 22.0754 28.64 24.7817 26.0937 26.5874C22.3909 29.216 17.1703 27.2366 16.224 22.7474Z" fill="#FFFF94"/>
<path d="M6.48233 23.7349L3.57947 25.4218C3.55155 25.4379 3.51987 25.4463 3.48763 25.4463C3.45539 25.4462 3.42374 25.4376 3.3959 25.4214C3.36805 25.4051 3.34499 25.3818 3.32906 25.3538C3.31313 25.3257 3.30489 25.294 3.30518 25.2618L3.3189 22.9623C3.31814 22.9304 3.32576 22.8988 3.341 22.8708C3.35624 22.8427 3.37856 22.8191 3.40575 22.8023L6.40461 21.0103C6.43241 20.9943 6.46394 20.9858 6.49604 20.9858C6.52814 20.9858 6.55967 20.9943 6.58747 21.0103L9.63204 22.8115C9.66008 22.8277 9.68332 22.851 9.69938 22.8791C9.71545 22.9072 9.72376 22.9391 9.72347 22.9715L9.71433 25.3303C9.71349 25.3625 9.7042 25.3938 9.68738 25.4212C9.67056 25.4486 9.64682 25.4711 9.61854 25.4864C9.59026 25.5017 9.55844 25.5093 9.5263 25.5084C9.49416 25.5075 9.46283 25.4981 9.43547 25.4812L6.66975 23.7395C6.64183 23.7219 6.60967 23.7122 6.57667 23.7113C6.54367 23.7105 6.51107 23.7187 6.48233 23.7349Z" fill="#FFFF94"/>
</svg>
