<svg width="32" height="32" viewBox="0 0 32 32" fill="none" xmlns="http://www.w3.org/2000/svg">
<path d="M7.46066 7.04918C8.10066 6.56918 8.65838 5.93832 9.33952 5.53147C15.1772 2.00232 22.3635 3.49718 26.2721 9.10632C28.2713 11.9772 28.8336 15.3936 27.959 19.3555C27.9161 19.5513 27.8095 19.7271 27.6562 19.8548C27.5029 19.9824 27.3117 20.0545 27.1132 20.0595C27.0584 20.0595 27.005 20.0442 26.9532 20.0138C26.5357 19.7425 26.3742 19.3616 26.4687 18.8709C27.6938 12.4846 24.2744 6.42747 17.7647 5.39889C14.4275 4.86861 11.3997 5.75546 8.68123 8.05946C8.44962 8.25756 8.442 8.46327 8.65838 8.67661L10.4824 10.4686C10.6561 10.6393 10.621 10.7246 10.3772 10.7246L5.75095 10.7338C5.53762 10.7338 5.42942 10.6271 5.42638 10.4138L5.38066 5.97947C5.37762 5.56499 5.51933 5.50861 5.80581 5.81032L6.94866 7.00347C7.01428 7.07264 7.1027 7.11552 7.19711 7.12395C7.29152 7.13237 7.38532 7.10576 7.46066 7.04918Z" fill="#FFFF94"/>
<path d="M17.4812 13.4172C17.3851 13.3218 17.3307 13.1923 17.3298 13.057C17.329 12.9216 17.3818 12.7914 17.4766 12.6949L17.8286 12.3429C18.8022 11.3662 19.8278 10.5214 20.6798 9.99422C21.5319 9.46703 22.1408 9.30059 22.3726 9.53147L22.4366 9.59547C22.552 9.70952 22.5711 9.91792 22.4929 10.2088C22.4147 10.4996 22.2407 10.8672 21.9808 11.2905C21.721 11.7137 21.3804 12.1844 20.9786 12.6757C20.5767 13.1669 20.1215 13.6689 19.6389 14.1532L19.2915 14.5006C19.1961 14.5967 19.0666 14.6511 18.9313 14.652C18.7959 14.6528 18.6657 14.6001 18.5692 14.5052L17.4812 13.4172Z" fill="#FFFF94"/>
<path d="M24.3748 25.4492C24.3285 25.4032 24.2666 25.3764 24.2015 25.3738C24.1363 25.3713 24.0725 25.3933 24.0228 25.4355C19.2777 29.536 12.1599 29.3577 7.56566 25.0469C4.12185 21.8225 2.94395 17.6732 4.03195 12.5989C4.0593 12.4757 4.12054 12.3628 4.20866 12.2731C4.29679 12.1833 4.40823 12.1204 4.53023 12.0915C4.76185 12.0366 4.97062 12.0534 5.15652 12.1417C5.49176 12.2972 5.62128 12.5577 5.54509 12.9235C4.64604 17.1749 5.54052 20.701 8.22852 23.5017C12.1874 27.6297 18.3817 27.84 22.9028 24.3612C22.9278 24.3418 22.9484 24.3174 22.9632 24.2895C22.9781 24.2617 22.9869 24.2309 22.989 24.1994C22.9912 24.1679 22.9867 24.1363 22.9758 24.1067C22.9648 24.077 22.9478 24.05 22.9257 24.0275L21.5725 22.6423C21.553 22.6238 21.5396 22.5997 21.5341 22.5734C21.5286 22.5471 21.5312 22.5197 21.5416 22.4949C21.5521 22.4701 21.5698 22.449 21.5924 22.4345C21.6151 22.42 21.6416 22.4128 21.6685 22.4137L26.2811 22.3955C26.5097 22.3955 26.624 22.5097 26.624 22.7383V27.3006C26.624 27.5993 26.5188 27.6419 26.3085 27.4286L24.3748 25.4492Z" fill="#FFFF94"/>
<path d="M11.1132 21.4354L10.551 20.9006C9.93228 20.3124 9.92771 19.7212 10.5372 19.1269C11.9269 17.7585 13.3228 16.3764 14.7247 14.9806C15.3144 14.3909 15.9864 14.176 16.6218 13.6914C16.8138 13.5452 16.9753 13.5741 17.1064 13.7783C17.402 14.2385 17.7723 14.6133 18.2172 14.9029C18.4001 15.0187 18.4275 15.1634 18.2995 15.3372C17.8287 15.9863 17.6001 16.64 17.0104 17.2343C15.575 18.6758 14.2127 20.064 12.9235 21.3989C12.3323 22.0114 11.7289 22.0236 11.1132 21.4354Z" fill="#FFFF94"/>
<path d="M11.6023 22.4915C11.6217 22.5026 11.638 22.5185 11.6496 22.5377C11.6612 22.5568 11.6677 22.5786 11.6686 22.6009C11.6696 22.6233 11.6648 22.6455 11.6548 22.6656C11.6448 22.6856 11.6299 22.7027 11.6115 22.7155C10.8435 23.3006 9.6229 22.0343 9.25719 21.3486C9.15052 21.1475 9.10481 20.9372 9.12004 20.7177C9.12919 20.6141 9.15662 20.5151 9.20233 20.4206C9.21718 20.3903 9.23992 20.3646 9.26817 20.3462C9.29642 20.3277 9.32912 20.3172 9.36282 20.3158C9.39652 20.3144 9.42998 20.3222 9.45967 20.3382C9.48935 20.3542 9.51416 20.3779 9.53147 20.4069C10.0435 21.2846 10.7338 21.9795 11.6023 22.4915Z" fill="#FFFF94"/>
</svg>
