<?xml version="1.0" encoding="UTF-8" standalone="no"?>
<!DOCTYPE svg PUBLIC "-//W3C//DTD SVG 1.1//EN" "http://www.w3.org/Graphics/SVG/1.1/DTD/svg11.dtd">
<svg xmlns="http://www.w3.org/2000/svg" version="1.1" viewBox="0.00 0.00 70.00 70.00">
<g stroke-width="2.00" fill="none" stroke-linecap="butt">
<path stroke="#585d64" vector-effect="non-scaling-stroke" d="
  M 15.20 15.32
  L 12.70 12.71
  Q 11.76 11.72 11.77 13.08
  L 11.87 22.78
  Q 11.88 23.48 12.58 23.48
  L 22.70 23.46
  Q 23.50 23.46 22.93 22.90
  L 18.94 18.98
  Q 18.23 18.28 18.99 17.63
  Q 27.91 10.07 38.86 11.81
  C 53.10 14.06 60.58 27.31 57.90 41.28
  Q 57.59 42.89 58.96 43.78
  Q 59.13 43.88 59.31 43.88
  A 1.96 1.94 -84.5 0 0 61.16 42.34
  Q 64.03 29.34 57.47 19.92
  C 48.92 7.65 33.20 4.38 20.43 12.10
  C 18.94 12.99 17.72 14.37 16.32 15.42
  A 0.85 0.84 49.8 0 1 15.20 15.32"
/>
<path stroke="#585d64" vector-effect="non-scaling-stroke" d="
  M 38.24 29.35
  L 40.62 31.73
  A 1.12 1.12 0.0 0 0 42.20 31.72
  L 42.96 30.96
  A 11.38 2.70 -45.1 0 0 49.08 20.99
  L 48.94 20.85
  A 11.38 2.70 -45.1 0 0 39.00 27.00
  L 38.23 27.77
  A 1.12 1.12 0.0 0 0 38.24 29.35"
/>
<path stroke="#585d64" vector-effect="non-scaling-stroke" d="
  M 53.32 55.67
  L 57.55 60.00
  Q 58.24 60.70 58.24 59.72
  L 58.24 49.74
  Q 58.24 48.99 57.49 48.99
  L 47.40 49.03
  A 0.29 0.29 0.0 0 0 47.19 49.53
  L 50.15 52.56
  A 0.49 0.49 0.0 0 1 50.10 53.29
  C 40.21 60.90 26.66 60.44 18.00 51.41
  Q 9.18 42.22 12.13 28.27
  Q 12.38 27.07 11.28 26.56
  Q 10.67 26.27 9.91 26.45
  A 1.47 1.46 89.7 0 0 8.82 27.56
  Q 5.25 44.21 16.55 54.79
  C 26.60 64.22 42.17 64.61 52.55 55.64
  A 0.57 0.57 0.0 0 1 53.32 55.67"
/>
<path stroke="#585d64" vector-effect="non-scaling-stroke" d="
  M 24.31 46.89
  Q 26.33 48.82 28.27 46.81
  Q 32.50 42.43 37.21 37.70
  C 38.50 36.40 39.00 34.97 40.03 33.55
  Q 40.45 32.98 39.85 32.60
  Q 38.39 31.65 37.42 30.14
  Q 36.99 29.47 36.36 29.95
  C 34.97 31.01 33.50 31.48 32.21 32.77
  Q 27.61 37.35 23.05 41.84
  Q 21.05 43.79 23.08 45.72
  L 24.31 46.89"
/>
<path stroke="#585d64" vector-effect="non-scaling-stroke" d="
  M 25.38 49.20
  Q 22.53 47.52 20.85 44.64
  A 0.41 0.41 0.0 0 0 20.13 44.67
  Q 19.98 44.98 19.95 45.32
  Q 19.90 46.04 20.25 46.70
  C 21.05 48.20 23.72 50.97 25.40 49.69
  A 0.29 0.29 0.0 0 0 25.38 49.20"
/>
</g>
<path fill="#2f353e" d="
  M 0.00 0.00
  L 70.00 0.00
  L 70.00 70.00
  L 0.00 70.00
  L 0.00 0.00
  Z
  M 15.20 15.32
  L 12.70 12.71
  Q 11.76 11.72 11.77 13.08
  L 11.87 22.78
  Q 11.88 23.48 12.58 23.48
  L 22.70 23.46
  Q 23.50 23.46 22.93 22.90
  L 18.94 18.98
  Q 18.23 18.28 18.99 17.63
  Q 27.91 10.07 38.86 11.81
  C 53.10 14.06 60.58 27.31 57.90 41.28
  Q 57.59 42.89 58.96 43.78
  Q 59.13 43.88 59.31 43.88
  A 1.96 1.94 -84.5 0 0 61.16 42.34
  Q 64.03 29.34 57.47 19.92
  C 48.92 7.65 33.20 4.38 20.43 12.10
  C 18.94 12.99 17.72 14.37 16.32 15.42
  A 0.85 0.84 49.8 0 1 15.20 15.32
  Z
  M 38.24 29.35
  L 40.62 31.73
  A 1.12 1.12 0.0 0 0 42.20 31.72
  L 42.96 30.96
  A 11.38 2.70 -45.1 0 0 49.08 20.99
  L 48.94 20.85
  A 11.38 2.70 -45.1 0 0 39.00 27.00
  L 38.23 27.77
  A 1.12 1.12 0.0 0 0 38.24 29.35
  Z
  M 53.32 55.67
  L 57.55 60.00
  Q 58.24 60.70 58.24 59.72
  L 58.24 49.74
  Q 58.24 48.99 57.49 48.99
  L 47.40 49.03
  A 0.29 0.29 0.0 0 0 47.19 49.53
  L 50.15 52.56
  A 0.49 0.49 0.0 0 1 50.10 53.29
  C 40.21 60.90 26.66 60.44 18.00 51.41
  Q 9.18 42.22 12.13 28.27
  Q 12.38 27.07 11.28 26.56
  Q 10.67 26.27 9.91 26.45
  A 1.47 1.46 89.7 0 0 8.82 27.56
  Q 5.25 44.21 16.55 54.79
  C 26.60 64.22 42.17 64.61 52.55 55.64
  A 0.57 0.57 0.0 0 1 53.32 55.67
  Z
  M 24.31 46.89
  Q 26.33 48.82 28.27 46.81
  Q 32.50 42.43 37.21 37.70
  C 38.50 36.40 39.00 34.97 40.03 33.55
  Q 40.45 32.98 39.85 32.60
  Q 38.39 31.65 37.42 30.14
  Q 36.99 29.47 36.36 29.95
  C 34.97 31.01 33.50 31.48 32.21 32.77
  Q 27.61 37.35 23.05 41.84
  Q 21.05 43.79 23.08 45.72
  L 24.31 46.89
  Z
  M 25.38 49.20
  Q 22.53 47.52 20.85 44.64
  A 0.41 0.41 0.0 0 0 20.13 44.67
  Q 19.98 44.98 19.95 45.32
  Q 19.90 46.04 20.25 46.70
  C 21.05 48.20 23.72 50.97 25.40 49.69
  A 0.29 0.29 0.0 0 0 25.38 49.20
  Z"
/>
<g fill="#ffff94">
<path d="
  M 16.32 15.42
  C 17.72 14.37 18.94 12.99 20.43 12.10
  C 33.20 4.38 48.92 7.65 57.47 19.92
  Q 64.03 29.34 61.16 42.34
  A 1.96 1.94 -84.5 0 1 59.31 43.88
  Q 59.13 43.88 58.96 43.78
  Q 57.59 42.89 57.90 41.28
  C 60.58 27.31 53.10 14.06 38.86 11.81
  Q 27.91 10.07 18.99 17.63
  Q 18.23 18.28 18.94 18.98
  L 22.93 22.90
  Q 23.50 23.46 22.70 23.46
  L 12.58 23.48
  Q 11.88 23.48 11.87 22.78
  L 11.77 13.08
  Q 11.76 11.72 12.70 12.71
  L 15.20 15.32
  A 0.85 0.84 49.8 0 0 16.32 15.42
  Z"
/>
<path d="
  M 38.24 29.35
  A 1.12 1.12 0.0 0 1 38.23 27.77
  L 39.00 27.00
  A 11.38 2.70 -45.1 0 1 48.94 20.85
  L 49.08 20.99
  A 11.38 2.70 -45.1 0 1 42.96 30.96
  L 42.20 31.72
  A 1.12 1.12 0.0 0 1 40.62 31.73
  L 38.24 29.35
  Z"
/>
<path d="
  M 53.32 55.67
  A 0.57 0.57 0.0 0 0 52.55 55.64
  C 42.17 64.61 26.60 64.22 16.55 54.79
  Q 5.25 44.21 8.82 27.56
  A 1.47 1.46 89.7 0 1 9.91 26.45
  Q 10.67 26.27 11.28 26.56
  Q 12.38 27.07 12.13 28.27
  Q 9.18 42.22 18.00 51.41
  C 26.66 60.44 40.21 60.90 50.10 53.29
  A 0.49 0.49 0.0 0 0 50.15 52.56
  L 47.19 49.53
  A 0.29 0.29 0.0 0 1 47.40 49.03
  L 57.49 48.99
  Q 58.24 48.99 58.24 49.74
  L 58.24 59.72
  Q 58.24 60.70 57.55 60.00
  L 53.32 55.67
  Z"
/>
<path d="
  M 24.31 46.89
  L 23.08 45.72
  Q 21.05 43.79 23.05 41.84
  Q 27.61 37.35 32.21 32.77
  C 33.50 31.48 34.97 31.01 36.36 29.95
  Q 36.99 29.47 37.42 30.14
  Q 38.39 31.65 39.85 32.60
  Q 40.45 32.98 40.03 33.55
  C 39.00 34.97 38.50 36.40 37.21 37.70
  Q 32.50 42.43 28.27 46.81
  Q 26.33 48.82 24.31 46.89
  Z"
/>
<path d="
  M 25.38 49.20
  A 0.29 0.29 0.0 0 1 25.40 49.69
  C 23.72 50.97 21.05 48.20 20.25 46.70
  Q 19.90 46.04 19.95 45.32
  Q 19.98 44.98 20.13 44.67
  A 0.41 0.41 0.0 0 1 20.85 44.64
  Q 22.53 47.52 25.38 49.20
  Z"
/>
</g>
</svg>
