<svg width="32" height="32" viewBox="0 0 32 32" fill="none" xmlns="http://www.w3.org/2000/svg">
<path d="M22.0891 9.472L18.8297 9.48114C18.7136 9.48116 18.6022 9.4357 18.5193 9.35451C18.4364 9.27332 18.3886 9.16287 18.3862 9.04685L18.3634 8C18.3621 7.94061 18.3729 7.88159 18.3949 7.82643C18.4169 7.77126 18.4498 7.72109 18.4916 7.67887C18.5334 7.63666 18.5832 7.60327 18.6381 7.58069C18.6931 7.55811 18.752 7.5468 18.8114 7.54743L22.1028 7.56571C22.1618 7.56632 22.2203 7.55515 22.275 7.53285C22.3296 7.51056 22.3792 7.47758 22.421 7.43586C22.4627 7.39413 22.4957 7.3445 22.5179 7.28987C22.5402 7.23524 22.5514 7.17671 22.5508 7.11771L22.5097 3.81714C22.5091 3.75891 22.5199 3.70113 22.5417 3.6471C22.5634 3.59306 22.5955 3.54384 22.6363 3.50224C22.6771 3.46064 22.7256 3.42747 22.7792 3.40464C22.8327 3.3818 22.8903 3.36974 22.9485 3.36914L24.0091 3.35085C24.0681 3.35024 24.1266 3.36141 24.1813 3.38371C24.2359 3.40601 24.2855 3.43898 24.3272 3.48071C24.369 3.52243 24.4019 3.57206 24.4242 3.62669C24.4465 3.68132 24.4577 3.73985 24.4571 3.79885L24.4388 7.136C24.4382 7.195 24.4494 7.25353 24.4717 7.30816C24.494 7.36279 24.5269 7.41242 24.5687 7.45414C24.6104 7.49587 24.66 7.52884 24.7146 7.55114C24.7693 7.57344 24.8278 7.58461 24.8868 7.584L28.2057 7.53371C28.2654 7.53246 28.3248 7.54332 28.3803 7.56562C28.4358 7.58793 28.4862 7.62122 28.5285 7.66349C28.5707 7.70577 28.604 7.75616 28.6263 7.81163C28.6486 7.8671 28.6595 7.92651 28.6582 7.98628L28.6354 9.08343C28.633 9.20023 28.5846 9.31137 28.5007 9.39269C28.4168 9.47401 28.3042 9.51894 28.1874 9.51771L24.8777 9.46742C24.8187 9.46681 24.7601 9.47798 24.7055 9.50028C24.6509 9.52258 24.6012 9.55556 24.5595 9.59728C24.5178 9.639 24.4848 9.68863 24.4625 9.74326C24.4402 9.79789 24.4291 9.85642 24.4297 9.91543L24.4662 13.2297C24.4669 13.2895 24.4554 13.3488 24.4326 13.404C24.4097 13.4593 24.3759 13.5093 24.3332 13.5512C24.2905 13.593 24.2398 13.6258 24.1841 13.6476C24.1284 13.6693 24.0689 13.6796 24.0091 13.6777L22.9622 13.6503C22.847 13.6467 22.7377 13.5984 22.6575 13.5157C22.5773 13.4329 22.5325 13.3221 22.5325 13.2069V9.91543C22.5325 9.79782 22.4858 9.68503 22.4026 9.60187C22.3195 9.51871 22.2067 9.472 22.0891 9.472Z" fill="#FFFF94"/>
<path d="M11.5749 18.9531C11.872 20.1371 12.2469 21.5497 12.0869 22.7748C11.8446 24.6217 9.41719 25.2754 10.8298 27.5748C11.0949 28.0076 10.9821 28.1569 10.4915 28.0228C5.50557 26.6605 3.29757 23.4514 3.86747 18.3954C3.97719 17.4354 4.41605 16.2468 5.07433 15.5017C5.47357 15.0537 5.67624 15.1299 5.68233 15.7302C5.70671 17.4278 6.30252 18.6682 7.46976 19.4514C8.00005 19.811 8.14786 19.6922 7.91319 19.0948C6.40462 15.2594 7.33719 11.68 9.2389 8.18282C10.3848 6.07082 11.9635 4.52872 13.9749 3.55653C14.301 3.39806 14.3498 3.45749 14.1212 3.73482C12.6446 5.52225 11.808 8.08225 11.712 10.2628C11.6206 12.5211 12.9966 14.0297 15.3372 13.4628C16.5806 13.1565 16.6675 11.68 16.4343 10.6514C16.346 10.243 16.4663 10.1653 16.7955 10.4182C18.9852 12.0914 20.9555 14.6377 20.9326 17.4948C20.9174 19.2198 20.512 20.8167 19.7166 22.2857C19.6967 22.3214 19.6874 22.3621 19.6899 22.403C19.6923 22.4438 19.7064 22.4831 19.7304 22.5162C19.7544 22.5494 19.7874 22.575 19.8254 22.59C19.8635 22.605 19.905 22.6089 19.9452 22.6011C20.8199 22.4396 21.4416 21.9672 21.8103 21.184C21.9018 20.9859 21.9795 20.9904 22.0435 21.1977C22.0953 21.3744 22.106 21.5527 22.0755 21.7325C21.5269 25.1946 19.5429 27.3234 16.1235 28.1188C15.7425 28.2042 15.6694 28.0914 15.904 27.7805C17.5269 25.632 16.4526 22.7062 14.6378 20.8503C13.7661 19.9573 12.8442 19.2472 11.872 18.72C11.5947 18.5676 11.4957 18.6453 11.5749 18.9531Z" fill="#FFFF94"/>
</svg>
