<?xml version="1.0" encoding="UTF-8" standalone="no"?>
<!DOCTYPE svg PUBLIC "-//W3C//DTD SVG 1.1//EN" "http://www.w3.org/Graphics/SVG/1.1/DTD/svg11.dtd">
<svg xmlns="http://www.w3.org/2000/svg" version="1.1" viewBox="0.00 0.00 70.00 70.00">
<g stroke-width="2.00" fill="none" stroke-linecap="butt">
<path stroke="#575c63" vector-effect="non-scaling-stroke" d="
  M 48.32 20.72
  A 0.97 0.97 0.0 0 1 49.29 21.69
  L 49.29 28.89
  A 0.97 0.97 0.0 0 0 50.23 29.86
  L 52.52 29.92
  A 0.97 0.97 0.0 0 0 53.52 28.94
  L 53.44 21.69
  A 0.97 0.97 0.0 0 1 54.42 20.71
  L 61.66 20.82
  A 0.97 0.97 0.0 0 0 62.64 19.87
  L 62.69 17.47
  A 0.97 0.97 0.0 0 0 61.70 16.48
  L 54.44 16.59
  A 0.97 0.97 0.0 0 1 53.46 15.61
  L 53.50 8.31
  A 0.97 0.97 0.0 0 0 52.52 7.33
  L 50.20 7.37
  A 0.97 0.97 0.0 0 0 49.24 8.35
  L 49.33 15.57
  A 0.97 0.97 0.0 0 1 48.35 16.55
  L 41.15 16.51
  A 0.97 0.97 0.0 0 0 40.17 17.50
  L 40.22 19.79
  A 0.97 0.97 0.0 0 0 41.19 20.74
  L 48.32 20.72"
/>
<path stroke="#575c63" vector-effect="non-scaling-stroke" d="
  M 25.97 40.95
  Q 29.16 42.68 32.02 45.61
  C 35.99 49.67 38.34 56.07 34.79 60.77
  Q 34.02 61.79 35.27 61.51
  Q 46.49 58.90 48.29 47.54
  Q 48.39 46.95 48.22 46.37
  Q 48.01 45.69 47.71 46.34
  Q 46.50 48.91 43.63 49.44
  A 0.47 0.47 0.0 0 1 43.13 48.75
  Q 45.74 43.93 45.79 38.27
  C 45.84 32.02 41.53 26.45 36.74 22.79
  Q 35.66 21.96 35.95 23.30
  C 36.46 25.55 36.27 28.78 33.55 29.45
  C 28.43 30.69 25.42 27.39 25.62 22.45
  C 25.83 17.68 27.66 12.08 30.89 8.17
  Q 31.64 7.26 30.57 7.78
  Q 23.97 10.97 20.21 17.90
  C 16.05 25.55 14.01 33.38 17.31 41.77
  Q 18.08 43.73 16.34 42.55
  Q 12.51 39.98 12.43 34.41
  Q 12.41 32.44 11.10 33.91
  C 9.66 35.54 8.70 38.14 8.46 40.24
  Q 6.59 56.83 22.95 61.30
  Q 24.56 61.74 23.69 60.32
  C 20.60 55.29 25.91 53.86 26.44 49.82
  C 26.79 47.14 25.97 44.05 25.32 41.46
  Q 25.06 40.45 25.97 40.95"
/>
</g>
<path fill="#2f353e" d="
  M 0.00 0.00
  L 70.00 0.00
  L 70.00 70.00
  L 0.00 70.00
  L 0.00 0.00
  Z
  M 48.32 20.72
  A 0.97 0.97 0.0 0 1 49.29 21.69
  L 49.29 28.89
  A 0.97 0.97 0.0 0 0 50.23 29.86
  L 52.52 29.92
  A 0.97 0.97 0.0 0 0 53.52 28.94
  L 53.44 21.69
  A 0.97 0.97 0.0 0 1 54.42 20.71
  L 61.66 20.82
  A 0.97 0.97 0.0 0 0 62.64 19.87
  L 62.69 17.47
  A 0.97 0.97 0.0 0 0 61.70 16.48
  L 54.44 16.59
  A 0.97 0.97 0.0 0 1 53.46 15.61
  L 53.50 8.31
  A 0.97 0.97 0.0 0 0 52.52 7.33
  L 50.20 7.37
  A 0.97 0.97 0.0 0 0 49.24 8.35
  L 49.33 15.57
  A 0.97 0.97 0.0 0 1 48.35 16.55
  L 41.15 16.51
  A 0.97 0.97 0.0 0 0 40.17 17.50
  L 40.22 19.79
  A 0.97 0.97 0.0 0 0 41.19 20.74
  L 48.32 20.72
  Z
  M 25.97 40.95
  Q 29.16 42.68 32.02 45.61
  C 35.99 49.67 38.34 56.07 34.79 60.77
  Q 34.02 61.79 35.27 61.51
  Q 46.49 58.90 48.29 47.54
  Q 48.39 46.95 48.22 46.37
  Q 48.01 45.69 47.71 46.34
  Q 46.50 48.91 43.63 49.44
  A 0.47 0.47 0.0 0 1 43.13 48.75
  Q 45.74 43.93 45.79 38.27
  C 45.84 32.02 41.53 26.45 36.74 22.79
  Q 35.66 21.96 35.95 23.30
  C 36.46 25.55 36.27 28.78 33.55 29.45
  C 28.43 30.69 25.42 27.39 25.62 22.45
  C 25.83 17.68 27.66 12.08 30.89 8.17
  Q 31.64 7.26 30.57 7.78
  Q 23.97 10.97 20.21 17.90
  C 16.05 25.55 14.01 33.38 17.31 41.77
  Q 18.08 43.73 16.34 42.55
  Q 12.51 39.98 12.43 34.41
  Q 12.41 32.44 11.10 33.91
  C 9.66 35.54 8.70 38.14 8.46 40.24
  Q 6.59 56.83 22.95 61.30
  Q 24.56 61.74 23.69 60.32
  C 20.60 55.29 25.91 53.86 26.44 49.82
  C 26.79 47.14 25.97 44.05 25.32 41.46
  Q 25.06 40.45 25.97 40.95
  Z"
/>
<g fill="#ffff94">
<path d="
  M 48.32 20.72
  L 41.19 20.74
  A 0.97 0.97 0.0 0 1 40.22 19.79
  L 40.17 17.50
  A 0.97 0.97 0.0 0 1 41.15 16.51
  L 48.35 16.55
  A 0.97 0.97 0.0 0 0 49.33 15.57
  L 49.24 8.35
  A 0.97 0.97 0.0 0 1 50.20 7.37
  L 52.52 7.33
  A 0.97 0.97 0.0 0 1 53.50 8.31
  L 53.46 15.61
  A 0.97 0.97 0.0 0 0 54.44 16.59
  L 61.70 16.48
  A 0.97 0.97 0.0 0 1 62.69 17.47
  L 62.64 19.87
  A 0.97 0.97 0.0 0 1 61.66 20.82
  L 54.42 20.71
  A 0.97 0.97 0.0 0 0 53.44 21.69
  L 53.52 28.94
  A 0.97 0.97 0.0 0 1 52.52 29.92
  L 50.23 29.86
  A 0.97 0.97 0.0 0 1 49.29 28.89
  L 49.29 21.69
  A 0.97 0.97 0.0 0 0 48.32 20.72
  Z"
/>
<path d="
  M 25.32 41.46
  C 25.97 44.05 26.79 47.14 26.44 49.82
  C 25.91 53.86 20.60 55.29 23.69 60.32
  Q 24.56 61.74 22.95 61.30
  Q 6.59 56.83 8.46 40.24
  C 8.70 38.14 9.66 35.54 11.10 33.91
  Q 12.41 32.44 12.43 34.41
  Q 12.51 39.98 16.34 42.55
  Q 18.08 43.73 17.31 41.77
  C 14.01 33.38 16.05 25.55 20.21 17.90
  Q 23.97 10.97 30.57 7.78
  Q 31.64 7.26 30.89 8.17
  C 27.66 12.08 25.83 17.68 25.62 22.45
  C 25.42 27.39 28.43 30.69 33.55 29.45
  C 36.27 28.78 36.46 25.55 35.95 23.30
  Q 35.66 21.96 36.74 22.79
  C 41.53 26.45 45.84 32.02 45.79 38.27
  Q 45.74 43.93 43.13 48.75
  A 0.47 0.47 0.0 0 0 43.63 49.44
  Q 46.50 48.91 47.71 46.34
  Q 48.01 45.69 48.22 46.37
  Q 48.39 46.95 48.29 47.54
  Q 46.49 58.90 35.27 61.51
  Q 34.02 61.79 34.79 60.77
  C 38.34 56.07 35.99 49.67 32.02 45.61
  Q 29.16 42.68 25.97 40.95
  Q 25.06 40.45 25.32 41.46
  Z"
/>
</g>
</svg>
