<svg width="32" height="32" viewBox="0 0 32 32" fill="none" xmlns="http://www.w3.org/2000/svg">
<path d="M5.80103 18.848V4.3291C5.80103 4.15209 5.87134 3.98233 5.99651 3.85716C6.12168 3.73199 6.29144 3.66168 6.46845 3.66168L25.513 3.6571C25.69 3.6571 25.8598 3.72742 25.985 3.85259C26.1101 3.97776 26.1805 4.14752 26.1805 4.32453L26.1713 18.848C26.1714 18.9444 26.1506 19.0396 26.1104 19.1272C26.0701 19.2148 26.0114 19.2927 25.9382 19.3554L16.425 27.5382C16.3041 27.6419 16.15 27.6989 15.9907 27.6989C15.8314 27.6989 15.6774 27.6419 15.5565 27.5382L6.03417 19.3554C5.96097 19.2927 5.90222 19.2148 5.86198 19.1272C5.82173 19.0396 5.80094 18.9444 5.80103 18.848ZM15.8719 26.2125C15.9039 26.2393 15.9444 26.254 15.9862 26.254C16.0279 26.254 16.0684 26.2393 16.1005 26.2125L24.9462 18.6422C24.9662 18.6255 24.9824 18.6045 24.9934 18.5808C25.0045 18.5571 25.0102 18.5313 25.0102 18.5051L25.0147 5.01025C25.0147 4.96296 24.996 4.91762 24.9625 4.88418C24.9291 4.85074 24.8837 4.83196 24.8365 4.83196H7.1496C7.10231 4.83196 7.05697 4.85074 7.02353 4.88418C6.9901 4.91762 6.97131 4.96296 6.97131 5.01025V18.5097C6.97127 18.5358 6.97698 18.5617 6.98804 18.5854C6.9991 18.6091 7.01524 18.6301 7.03531 18.6468L15.8719 26.2125Z" fill="#FFFF94"/>
<path d="M9.37143 6.96685L22.6194 6.96228C22.6619 6.96228 22.7026 6.97914 22.7326 7.00914C22.7626 7.03915 22.7794 7.07985 22.7794 7.12228V17.1109C22.7786 17.1338 22.7729 17.1562 22.7626 17.1767C22.7524 17.1972 22.7378 17.2153 22.72 17.2297L16.1006 22.7154C16.0721 22.7384 16.0366 22.751 16 22.751C15.9634 22.751 15.9279 22.7384 15.8994 22.7154L9.28914 17.2389C9.2713 17.2245 9.25676 17.2064 9.2465 17.1859C9.23625 17.1654 9.23052 17.1429 9.22971 17.12L9.21143 7.12685C9.21143 7.08442 9.22828 7.04372 9.25829 7.01372C9.28829 6.98371 9.32899 6.96685 9.37143 6.96685ZM14.8663 12.2469C14.8663 12.3244 14.8355 12.3989 14.7806 12.4537C14.7257 12.5086 14.6513 12.5394 14.5737 12.5394L11.776 12.5531C11.7 12.5543 11.6274 12.585 11.5737 12.6388C11.5199 12.6926 11.4892 12.7651 11.488 12.8411L11.4743 14.5829C11.4743 14.6597 11.5045 14.7334 11.5584 14.7881C11.6122 14.8429 11.6855 14.8742 11.7623 14.8754L14.5691 14.8983C14.6452 14.8995 14.7177 14.9302 14.7715 14.9839C14.8252 15.0377 14.856 15.1103 14.8571 15.1863L14.8709 17.984C14.872 18.06 14.9028 18.1326 14.9565 18.1863C15.0103 18.2401 15.0828 18.2708 15.1589 18.272L16.8503 18.2811C16.9279 18.2811 17.0023 18.2503 17.0572 18.1954C17.112 18.1406 17.1429 18.0662 17.1429 17.9886L17.152 15.1863C17.1532 15.1103 17.1839 15.0377 17.2377 14.9839C17.2914 14.9302 17.364 14.8995 17.44 14.8983L20.256 14.8754C20.3328 14.8742 20.406 14.8429 20.4599 14.7881C20.5138 14.7334 20.544 14.6597 20.544 14.5829L20.5211 12.8411C20.5199 12.7643 20.4886 12.6911 20.4338 12.6372C20.3791 12.5833 20.3054 12.5531 20.2286 12.5531L17.4446 12.5349C17.367 12.5349 17.2926 12.504 17.2377 12.4492C17.1828 12.3943 17.152 12.3199 17.152 12.2423L17.1566 9.54057C17.1566 9.46297 17.1257 9.38856 17.0709 9.33369C17.016 9.27882 16.9416 9.24799 16.864 9.24799L15.1451 9.25257C15.1067 9.25257 15.0687 9.26013 15.0332 9.27484C14.9977 9.28954 14.9654 9.31109 14.9383 9.33826C14.9111 9.36543 14.8895 9.39768 14.8748 9.43318C14.8601 9.46867 14.8526 9.50672 14.8526 9.54514L14.8663 12.2469Z" fill="#FFFF94"/>
</svg>
