<?xml version="1.0" encoding="UTF-8" standalone="no"?>
<!DOCTYPE svg PUBLIC "-//W3C//DTD SVG 1.1//EN" "http://www.w3.org/Graphics/SVG/1.1/DTD/svg11.dtd">
<svg xmlns="http://www.w3.org/2000/svg" version="1.1" viewBox="0.00 0.00 70.00 70.00">
<g stroke-width="2.00" fill="none" stroke-linecap="butt">
<path stroke="#575c63" vector-effect="non-scaling-stroke" d="
  M 12.69 41.23
  A 1.46 1.46 0.0 0 0 13.20 42.34
  L 34.03 60.24
  A 1.46 1.46 0.0 0 0 35.93 60.24
  L 56.74 42.34
  A 1.46 1.46 0.0 0 0 57.25 41.23
  L 57.27 9.46
  A 1.46 1.46 0.0 0 0 55.81 8.00
  L 14.15 8.01
  A 1.46 1.46 0.0 0 0 12.69 9.47
  L 12.69 41.23"
/>
<path stroke="#575c63" vector-effect="non-scaling-stroke" d="
  M 34.72 57.34
  A 0.39 0.39 0.0 0 0 35.22 57.34
  L 54.57 40.78
  A 0.39 0.39 0.0 0 0 54.71 40.48
  L 54.72 10.96
  A 0.39 0.39 0.0 0 0 54.33 10.57
  L 15.64 10.57
  A 0.39 0.39 0.0 0 0 15.25 10.96
  L 15.25 40.49
  A 0.39 0.39 0.0 0 0 15.39 40.79
  L 34.72 57.34"
/>
<path stroke="#575c63" vector-effect="non-scaling-stroke" d="
  M 20.50 15.24
  A 0.35 0.35 0.0 0 0 20.15 15.59
  L 20.19 37.45
  A 0.35 0.35 0.0 0 0 20.32 37.71
  L 34.78 49.69
  A 0.35 0.35 0.0 0 0 35.22 49.69
  L 49.70 37.69
  A 0.35 0.35 0.0 0 0 49.83 37.43
  L 49.83 15.58
  A 0.35 0.35 0.0 0 0 49.48 15.23
  L 20.50 15.24"
/>
<path stroke="#575c63" vector-effect="non-scaling-stroke" d="
  M 32.52 26.79
  A 0.64 0.64 0.0 0 1 31.88 27.43
  L 25.76 27.46
  A 0.64 0.64 0.0 0 0 25.13 28.09
  L 25.10 31.90
  A 0.64 0.64 0.0 0 0 25.73 32.54
  L 31.87 32.59
  A 0.64 0.64 0.0 0 1 32.50 33.22
  L 32.53 39.34
  A 0.64 0.64 0.0 0 0 33.16 39.97
  L 36.86 39.99
  A 0.64 0.64 0.0 0 0 37.50 39.35
  L 37.52 33.22
  A 0.64 0.64 0.0 0 1 38.15 32.59
  L 44.31 32.54
  A 0.64 0.64 0.0 0 0 44.94 31.90
  L 44.89 28.09
  A 0.64 0.64 0.0 0 0 44.25 27.46
  L 38.16 27.42
  A 0.64 0.64 0.0 0 1 37.52 26.78
  L 37.53 20.87
  A 0.64 0.64 0.0 0 0 36.89 20.23
  L 33.13 20.24
  A 0.64 0.64 0.0 0 0 32.49 20.88
  L 32.52 26.79"
/>
</g>
<g fill="#2f353e">
<path d="
  M 0.00 0.00
  L 70.00 0.00
  L 70.00 70.00
  L 0.00 70.00
  L 0.00 0.00
  Z
  M 12.69 41.23
  A 1.46 1.46 0.0 0 0 13.20 42.34
  L 34.03 60.24
  A 1.46 1.46 0.0 0 0 35.93 60.24
  L 56.74 42.34
  A 1.46 1.46 0.0 0 0 57.25 41.23
  L 57.27 9.46
  A 1.46 1.46 0.0 0 0 55.81 8.00
  L 14.15 8.01
  A 1.46 1.46 0.0 0 0 12.69 9.47
  L 12.69 41.23
  Z"
/>
<path d="
  M 34.72 57.34
  L 15.39 40.79
  A 0.39 0.39 0.0 0 1 15.25 40.49
  L 15.25 10.96
  A 0.39 0.39 0.0 0 1 15.64 10.57
  L 54.33 10.57
  A 0.39 0.39 0.0 0 1 54.72 10.96
  L 54.71 40.48
  A 0.39 0.39 0.0 0 1 54.57 40.78
  L 35.22 57.34
  A 0.39 0.39 0.0 0 1 34.72 57.34
  Z
  M 20.50 15.24
  A 0.35 0.35 0.0 0 0 20.15 15.59
  L 20.19 37.45
  A 0.35 0.35 0.0 0 0 20.32 37.71
  L 34.78 49.69
  A 0.35 0.35 0.0 0 0 35.22 49.69
  L 49.70 37.69
  A 0.35 0.35 0.0 0 0 49.83 37.43
  L 49.83 15.58
  A 0.35 0.35 0.0 0 0 49.48 15.23
  L 20.50 15.24
  Z"
/>
<path d="
  M 32.52 26.79
  L 32.49 20.88
  A 0.64 0.64 0.0 0 1 33.13 20.24
  L 36.89 20.23
  A 0.64 0.64 0.0 0 1 37.53 20.87
  L 37.52 26.78
  A 0.64 0.64 0.0 0 0 38.16 27.42
  L 44.25 27.46
  A 0.64 0.64 0.0 0 1 44.89 28.09
  L 44.94 31.90
  A 0.64 0.64 0.0 0 1 44.31 32.54
  L 38.15 32.59
  A 0.64 0.64 0.0 0 0 37.52 33.22
  L 37.50 39.35
  A 0.64 0.64 0.0 0 1 36.86 39.99
  L 33.16 39.97
  A 0.64 0.64 0.0 0 1 32.53 39.34
  L 32.50 33.22
  A 0.64 0.64 0.0 0 0 31.87 32.59
  L 25.73 32.54
  A 0.64 0.64 0.0 0 1 25.10 31.90
  L 25.13 28.09
  A 0.64 0.64 0.0 0 1 25.76 27.46
  L 31.88 27.43
  A 0.64 0.64 0.0 0 0 32.52 26.79
  Z"
/>
</g>
<g fill="#ffff94">
<path d="
  M 12.69 41.23
  L 12.69 9.47
  A 1.46 1.46 0.0 0 1 14.15 8.01
  L 55.81 8.00
  A 1.46 1.46 0.0 0 1 57.27 9.46
  L 57.25 41.23
  A 1.46 1.46 0.0 0 1 56.74 42.34
  L 35.93 60.24
  A 1.46 1.46 0.0 0 1 34.03 60.24
  L 13.20 42.34
  A 1.46 1.46 0.0 0 1 12.69 41.23
  Z
  M 34.72 57.34
  A 0.39 0.39 0.0 0 0 35.22 57.34
  L 54.57 40.78
  A 0.39 0.39 0.0 0 0 54.71 40.48
  L 54.72 10.96
  A 0.39 0.39 0.0 0 0 54.33 10.57
  L 15.64 10.57
  A 0.39 0.39 0.0 0 0 15.25 10.96
  L 15.25 40.49
  A 0.39 0.39 0.0 0 0 15.39 40.79
  L 34.72 57.34
  Z"
/>
<path d="
  M 20.50 15.24
  L 49.48 15.23
  A 0.35 0.35 0.0 0 1 49.83 15.58
  L 49.83 37.43
  A 0.35 0.35 0.0 0 1 49.70 37.69
  L 35.22 49.69
  A 0.35 0.35 0.0 0 1 34.78 49.69
  L 20.32 37.71
  A 0.35 0.35 0.0 0 1 20.19 37.45
  L 20.15 15.59
  A 0.35 0.35 0.0 0 1 20.50 15.24
  Z
  M 32.52 26.79
  A 0.64 0.64 0.0 0 1 31.88 27.43
  L 25.76 27.46
  A 0.64 0.64 0.0 0 0 25.13 28.09
  L 25.10 31.90
  A 0.64 0.64 0.0 0 0 25.73 32.54
  L 31.87 32.59
  A 0.64 0.64 0.0 0 1 32.50 33.22
  L 32.53 39.34
  A 0.64 0.64 0.0 0 0 33.16 39.97
  L 36.86 39.99
  A 0.64 0.64 0.0 0 0 37.50 39.35
  L 37.52 33.22
  A 0.64 0.64 0.0 0 1 38.15 32.59
  L 44.31 32.54
  A 0.64 0.64 0.0 0 0 44.94 31.90
  L 44.89 28.09
  A 0.64 0.64 0.0 0 0 44.25 27.46
  L 38.16 27.42
  A 0.64 0.64 0.0 0 1 37.52 26.78
  L 37.53 20.87
  A 0.64 0.64 0.0 0 0 36.89 20.23
  L 33.13 20.24
  A 0.64 0.64 0.0 0 0 32.49 20.88
  L 32.52 26.79
  Z"
/>
</g>
</svg>
