<?xml version="1.0" encoding="UTF-8" standalone="no"?>
<!DOCTYPE svg PUBLIC "-//W3C//DTD SVG 1.1//EN" "http://www.w3.org/Graphics/SVG/1.1/DTD/svg11.dtd">
<svg xmlns="http://www.w3.org/2000/svg" version="1.1" viewBox="0.00 0.00 70.00 70.00">
<g stroke-width="2.00" fill="none" stroke-linecap="butt">
<path stroke="#575c63" vector-effect="non-scaling-stroke" d="
  M 10.59 7.29
  A 0.95 0.95 0.0 0 0 9.43 7.44
  L 7.43 9.49
  A 0.95 0.95 0.0 0 0 7.28 10.64
  L 11.27 17.46
  A 0.95 0.95 0.0 0 0 12.76 17.66
  L 17.62 12.79
  A 0.95 0.95 0.0 0 0 17.43 11.30
  L 10.59 7.29"
/>
<path stroke="#575c63" vector-effect="non-scaling-stroke" d="
  M 48.14 20.97
  A 0.96 0.96 0.0 0 1 49.10 21.94
  L 49.05 29.31
  A 0.96 0.96 0.0 0 0 49.99 30.28
  L 52.41 30.34
  A 0.96 0.96 0.0 0 0 53.40 29.36
  L 53.28 21.93
  A 0.96 0.96 0.0 0 1 54.25 20.96
  L 61.62 21.00
  A 0.96 0.96 0.0 0 0 62.59 20.07
  L 62.66 17.66
  A 0.96 0.96 0.0 0 0 61.69 16.68
  L 54.24 16.79
  A 0.96 0.96 0.0 0 1 53.26 15.83
  L 53.28 8.31
  A 0.96 0.96 0.0 0 0 52.32 7.35
  L 50.01 7.34
  A 0.96 0.96 0.0 0 0 49.05 8.31
  L 49.14 15.79
  A 0.96 0.96 0.0 0 1 48.18 16.76
  L 40.64 16.73
  A 0.96 0.96 0.0 0 0 39.68 17.70
  L 39.70 20.01
  A 0.96 0.96 0.0 0 0 40.66 20.96
  L 48.14 20.97"
/>
<path stroke="#575c63" vector-effect="non-scaling-stroke" d="
  M 26.14 14.11
  C 24.45 13.35 22.58 13.36 20.76 13.19
  Q 19.32 13.05 18.37 14.01
  Q 16.06 16.32 13.77 18.58
  A 2.15 2.12 -21.9 0 0 13.13 20.05
  C 12.92 27.66 17.39 32.11 23.56 35.60
  Q 31.16 39.90 39.21 44.47
  C 42.62 46.40 44.98 48.95 47.59 51.65
  A 0.78 0.78 0.0 0 0 48.70 51.66
  L 51.69 48.68
  Q 52.18 48.19 51.70 47.69
  C 49.39 45.26 46.69 43.10 45.03 40.16
  Q 39.40 30.18 34.40 21.67
  Q 31.33 16.45 26.14 14.11"
/>
<path stroke="#575c63" vector-effect="non-scaling-stroke" d="
  M 55.81 48.20
  C 57.36 48.68 59.08 50.58 60.19 51.95
  A 0.66 0.66 0.0 0 0 61.11 52.05
  L 62.15 51.24
  Q 62.66 50.84 62.32 50.28
  Q 59.78 46.12 55.86 46.98
  Q 53.52 47.49 55.81 48.20"
/>
<path stroke="#575c63" vector-effect="non-scaling-stroke" d="
  M 56.36 49.41
  A 1.24 1.24 0.0 0 0 55.31 49.08
  L 52.97 49.45
  A 1.24 1.24 0.0 0 0 52.27 51.53
  L 56.07 55.49
  A 1.24 1.24 0.0 0 0 57.82 55.52
  L 59.34 54.07
  A 1.24 1.24 0.0 0 0 59.34 52.28
  L 56.36 49.41"
/>
<path stroke="#575c63" vector-effect="non-scaling-stroke" d="
  M 49.74 52.72
  C 48.66 55.80 50.61 57.86 53.04 59.62
  Q 53.43 59.90 53.77 59.55
  L 55.88 57.40
  Q 56.25 57.02 55.88 56.64
  L 51.63 52.30
  A 1.14 1.14 0.0 0 0 49.74 52.72"
/>
<path stroke="#575c63" vector-effect="non-scaling-stroke" d="
  M 48.49 55.46
  Q 48.58 55.10 48.34 54.77
  Q 47.83 54.09 47.53 54.89
  Q 46.90 56.59 47.22 58.74
  C 47.44 60.24 49.10 61.25 50.07 62.31
  Q 50.60 62.88 51.11 62.29
  L 52.17 61.03
  Q 52.61 60.52 52.07 60.11
  Q 49.78 58.34 48.59 56.19
  Q 48.39 55.83 48.49 55.46"
/>
</g>
<path fill="#2f353e" d="
  M 0.00 0.00
  L 70.00 0.00
  L 70.00 70.00
  L 0.00 70.00
  L 0.00 0.00
  Z
  M 10.59 7.29
  A 0.95 0.95 0.0 0 0 9.43 7.44
  L 7.43 9.49
  A 0.95 0.95 0.0 0 0 7.28 10.64
  L 11.27 17.46
  A 0.95 0.95 0.0 0 0 12.76 17.66
  L 17.62 12.79
  A 0.95 0.95 0.0 0 0 17.43 11.30
  L 10.59 7.29
  Z
  M 48.14 20.97
  A 0.96 0.96 0.0 0 1 49.10 21.94
  L 49.05 29.31
  A 0.96 0.96 0.0 0 0 49.99 30.28
  L 52.41 30.34
  A 0.96 0.96 0.0 0 0 53.40 29.36
  L 53.28 21.93
  A 0.96 0.96 0.0 0 1 54.25 20.96
  L 61.62 21.00
  A 0.96 0.96 0.0 0 0 62.59 20.07
  L 62.66 17.66
  A 0.96 0.96 0.0 0 0 61.69 16.68
  L 54.24 16.79
  A 0.96 0.96 0.0 0 1 53.26 15.83
  L 53.28 8.31
  A 0.96 0.96 0.0 0 0 52.32 7.35
  L 50.01 7.34
  A 0.96 0.96 0.0 0 0 49.05 8.31
  L 49.14 15.79
  A 0.96 0.96 0.0 0 1 48.18 16.76
  L 40.64 16.73
  A 0.96 0.96 0.0 0 0 39.68 17.70
  L 39.70 20.01
  A 0.96 0.96 0.0 0 0 40.66 20.96
  L 48.14 20.97
  Z
  M 26.14 14.11
  C 24.45 13.35 22.58 13.36 20.76 13.19
  Q 19.32 13.05 18.37 14.01
  Q 16.06 16.32 13.77 18.58
  A 2.15 2.12 -21.9 0 0 13.13 20.05
  C 12.92 27.66 17.39 32.11 23.56 35.60
  Q 31.16 39.90 39.21 44.47
  C 42.62 46.40 44.98 48.95 47.59 51.65
  A 0.78 0.78 0.0 0 0 48.70 51.66
  L 51.69 48.68
  Q 52.18 48.19 51.70 47.69
  C 49.39 45.26 46.69 43.10 45.03 40.16
  Q 39.40 30.18 34.40 21.67
  Q 31.33 16.45 26.14 14.11
  Z
  M 55.81 48.20
  C 57.36 48.68 59.08 50.58 60.19 51.95
  A 0.66 0.66 0.0 0 0 61.11 52.05
  L 62.15 51.24
  Q 62.66 50.84 62.32 50.28
  Q 59.78 46.12 55.86 46.98
  Q 53.52 47.49 55.81 48.20
  Z
  M 56.36 49.41
  A 1.24 1.24 0.0 0 0 55.31 49.08
  L 52.97 49.45
  A 1.24 1.24 0.0 0 0 52.27 51.53
  L 56.07 55.49
  A 1.24 1.24 0.0 0 0 57.82 55.52
  L 59.34 54.07
  A 1.24 1.24 0.0 0 0 59.34 52.28
  L 56.36 49.41
  Z
  M 49.74 52.72
  C 48.66 55.80 50.61 57.86 53.04 59.62
  Q 53.43 59.90 53.77 59.55
  L 55.88 57.40
  Q 56.25 57.02 55.88 56.64
  L 51.63 52.30
  A 1.14 1.14 0.0 0 0 49.74 52.72
  Z
  M 48.49 55.46
  Q 48.58 55.10 48.34 54.77
  Q 47.83 54.09 47.53 54.89
  Q 46.90 56.59 47.22 58.74
  C 47.44 60.24 49.10 61.25 50.07 62.31
  Q 50.60 62.88 51.11 62.29
  L 52.17 61.03
  Q 52.61 60.52 52.07 60.11
  Q 49.78 58.34 48.59 56.19
  Q 48.39 55.83 48.49 55.46
  Z"
/>
<g fill="#ffff94">
<path d="
  M 10.59 7.29
  L 17.43 11.30
  A 0.95 0.95 0.0 0 1 17.62 12.79
  L 12.76 17.66
  A 0.95 0.95 0.0 0 1 11.27 17.46
  L 7.28 10.64
  A 0.95 0.95 0.0 0 1 7.43 9.49
  L 9.43 7.44
  A 0.95 0.95 0.0 0 1 10.59 7.29
  Z"
/>
<path d="
  M 48.14 20.97
  L 40.66 20.96
  A 0.96 0.96 0.0 0 1 39.70 20.01
  L 39.68 17.70
  A 0.96 0.96 0.0 0 1 40.64 16.73
  L 48.18 16.76
  A 0.96 0.96 0.0 0 0 49.14 15.79
  L 49.05 8.31
  A 0.96 0.96 0.0 0 1 50.01 7.34
  L 52.32 7.35
  A 0.96 0.96 0.0 0 1 53.28 8.31
  L 53.26 15.83
  A 0.96 0.96 0.0 0 0 54.24 16.79
  L 61.69 16.68
  A 0.96 0.96 0.0 0 1 62.66 17.66
  L 62.59 20.07
  A 0.96 0.96 0.0 0 1 61.62 21.00
  L 54.25 20.96
  A 0.96 0.96 0.0 0 0 53.28 21.93
  L 53.40 29.36
  A 0.96 0.96 0.0 0 1 52.41 30.34
  L 49.99 30.28
  A 0.96 0.96 0.0 0 1 49.05 29.31
  L 49.10 21.94
  A 0.96 0.96 0.0 0 0 48.14 20.97
  Z"
/>
<path d="
  M 26.14 14.11
  Q 31.33 16.45 34.40 21.67
  Q 39.40 30.18 45.03 40.16
  C 46.69 43.10 49.39 45.26 51.70 47.69
  Q 52.18 48.19 51.69 48.68
  L 48.70 51.66
  A 0.78 0.78 0.0 0 1 47.59 51.65
  C 44.98 48.95 42.62 46.40 39.21 44.47
  Q 31.16 39.90 23.56 35.60
  C 17.39 32.11 12.92 27.66 13.13 20.05
  A 2.15 2.12 -21.9 0 1 13.77 18.58
  Q 16.06 16.32 18.37 14.01
  Q 19.32 13.05 20.76 13.19
  C 22.58 13.36 24.45 13.35 26.14 14.11
  Z"
/>
<path d="
  M 60.19 51.95
  C 59.08 50.58 57.36 48.68 55.81 48.20
  Q 53.52 47.49 55.86 46.98
  Q 59.78 46.12 62.32 50.28
  Q 62.66 50.84 62.15 51.24
  L 61.11 52.05
  A 0.66 0.66 0.0 0 1 60.19 51.95
  Z"
/>
<path d="
  M 56.36 49.41
  L 59.34 52.28
  A 1.24 1.24 0.0 0 1 59.34 54.07
  L 57.82 55.52
  A 1.24 1.24 0.0 0 1 56.07 55.49
  L 52.27 51.53
  A 1.24 1.24 0.0 0 1 52.97 49.45
  L 55.31 49.08
  A 1.24 1.24 0.0 0 1 56.36 49.41
  Z"
/>
<path d="
  M 53.04 59.62
  C 50.61 57.86 48.66 55.80 49.74 52.72
  A 1.14 1.14 0.0 0 1 51.63 52.30
  L 55.88 56.64
  Q 56.25 57.02 55.88 57.40
  L 53.77 59.55
  Q 53.43 59.90 53.04 59.62
  Z"
/>
<path d="
  M 48.59 56.19
  Q 49.78 58.34 52.07 60.11
  Q 52.61 60.52 52.17 61.03
  L 51.11 62.29
  Q 50.60 62.88 50.07 62.31
  C 49.10 61.25 47.44 60.24 47.22 58.74
  Q 46.90 56.59 47.53 54.89
  Q 47.83 54.09 48.34 54.77
  Q 48.58 55.10 48.49 55.46
  Q 48.39 55.83 48.59 56.19
  Z"
/>
</g>
</svg>
