<svg width="32" height="32" viewBox="0 0 32 32" fill="none" xmlns="http://www.w3.org/2000/svg">
<path d="M4.84108 3.33256L7.96794 5.1657C8.02505 5.19934 8.0737 5.2456 8.11017 5.30094C8.14664 5.35628 8.16996 5.41923 8.17835 5.48498C8.18673 5.55073 8.17996 5.61752 8.15854 5.68024C8.13712 5.74297 8.10164 5.79996 8.05479 5.84685L5.83308 8.07313C5.78587 8.11977 5.72861 8.15498 5.66568 8.17604C5.60275 8.1971 5.53583 8.20346 5.47006 8.19464C5.40429 8.18581 5.34142 8.16202 5.28627 8.12511C5.23112 8.0882 5.18517 8.03914 5.15194 7.9817L3.32793 4.86399C3.27971 4.78109 3.26029 4.68455 3.27269 4.58945C3.2851 4.49435 3.32863 4.40603 3.39651 4.33827L4.31079 3.40113C4.37887 3.33219 4.46804 3.28798 4.56413 3.27556C4.66022 3.26313 4.75771 3.2832 4.84108 3.33256Z" fill="#FFFF94"/>
<path d="M22.0069 9.58633L18.5874 9.58175C18.4718 9.58176 18.3609 9.53615 18.2787 9.45484C18.1965 9.37352 18.1498 9.26307 18.1486 9.14747L18.1394 8.09147C18.1388 8.03345 18.1497 7.97589 18.1715 7.92212C18.1933 7.86835 18.2255 7.81943 18.2663 7.77819C18.3072 7.73695 18.3557 7.70422 18.4093 7.68188C18.4628 7.65954 18.5203 7.64804 18.5783 7.64804L22.0251 7.66175C22.0832 7.66176 22.1406 7.65026 22.1941 7.62792C22.2477 7.60558 22.2963 7.57284 22.3371 7.5316C22.3779 7.49037 22.4101 7.44145 22.4319 7.38767C22.4537 7.3339 22.4646 7.27634 22.464 7.21833L22.4229 3.7989C22.4223 3.74088 22.4332 3.68332 22.4549 3.62955C22.4767 3.57578 22.509 3.52686 22.5498 3.48562C22.5906 3.44438 22.6392 3.41165 22.6927 3.38931C22.7463 3.36697 22.8037 3.35547 22.8617 3.35547L23.9177 3.36004C23.9753 3.36004 24.0324 3.37139 24.0857 3.39345C24.1389 3.4155 24.1873 3.44783 24.228 3.48858C24.2688 3.52933 24.3011 3.57771 24.3232 3.63095C24.3452 3.6842 24.3566 3.74127 24.3566 3.7989L24.3474 7.23661C24.3474 7.29502 24.3591 7.35284 24.3817 7.40669C24.4043 7.46054 24.4375 7.50933 24.4792 7.55021C24.5209 7.59108 24.5704 7.62321 24.6247 7.64472C24.679 7.66623 24.737 7.67669 24.7954 7.67547L28.2011 7.62518C28.2599 7.62456 28.3183 7.63575 28.3726 7.6581C28.427 7.68045 28.4764 7.7135 28.5177 7.75529C28.5591 7.79708 28.5916 7.84675 28.6134 7.90136C28.6352 7.95597 28.6458 8.0144 28.6446 8.07318L28.6126 9.1749C28.609 9.28969 28.5605 9.39851 28.4776 9.47799C28.3947 9.55747 28.284 9.60129 28.1691 9.60004L24.8 9.58175C24.7416 9.58114 24.6837 9.59219 24.6296 9.61426C24.5755 9.63633 24.5264 9.66897 24.4851 9.71027C24.4438 9.75157 24.4111 9.80069 24.3891 9.85477C24.367 9.90884 24.356 9.96678 24.3566 10.0252L24.4114 13.4218C24.4127 13.4813 24.4018 13.5405 24.3795 13.5958C24.3571 13.651 24.3238 13.7011 24.2814 13.743C24.2391 13.7849 24.1886 13.8178 24.1332 13.8396C24.0777 13.8614 24.0184 13.8716 23.9589 13.8698L22.8526 13.8423C22.737 13.8399 22.627 13.792 22.5465 13.709C22.4661 13.6259 22.4216 13.5145 22.4229 13.3989L22.4457 10.0298C22.4463 9.97174 22.4354 9.91418 22.4136 9.86041C22.3918 9.80663 22.3596 9.75771 22.3188 9.71648C22.278 9.67524 22.2294 9.6425 22.1759 9.62016C22.1223 9.59782 22.0649 9.58632 22.0069 9.58633Z" fill="#FFFF94"/>
<path d="M11.9497 6.45032C13.5314 7.16347 14.7901 8.31547 15.7257 9.90632C17.2495 12.4998 18.8693 15.3174 20.5851 18.3589C21.344 19.7029 22.5783 20.6903 23.6343 21.8012C23.7806 21.9536 23.779 22.1044 23.6297 22.2538L22.2628 23.616C22.2294 23.6493 22.1896 23.6756 22.1459 23.6934C22.1022 23.7113 22.0554 23.7202 22.0082 23.7198C21.961 23.7194 21.9143 23.7096 21.8709 23.691C21.8275 23.6724 21.7883 23.6454 21.7554 23.6115C20.5623 22.3772 19.4834 21.2115 17.9246 20.3292C15.4712 18.9364 13.0865 17.5848 10.7703 16.2743C7.9497 14.6789 5.90627 12.6446 6.00227 9.16575C6.00827 8.91348 6.1132 8.67247 6.29484 8.49375C6.99275 7.80499 7.6937 7.10861 8.3977 6.40461C8.68722 6.11204 9.05141 5.98709 9.49027 6.02975C10.3223 6.10747 11.1771 6.10289 11.9497 6.45032Z" fill="#FFFF94"/>
<path d="M27.5154 23.7485C27.008 23.1222 26.2217 22.2537 25.5131 22.0342C24.8152 21.8179 24.8229 21.632 25.536 21.4765C26.7307 21.2144 27.715 21.7173 28.4891 22.9851C28.5928 23.1558 28.5669 23.3021 28.4114 23.424L27.936 23.7942C27.8739 23.8433 27.795 23.866 27.7164 23.8574C27.6377 23.8489 27.5655 23.8098 27.5154 23.7485Z" fill="#FFFF94"/>
<path d="M25.7646 22.5874L27.1269 23.8994C27.1821 23.9523 27.226 24.0158 27.256 24.0861C27.286 24.1564 27.3014 24.2321 27.3014 24.3085C27.3014 24.385 27.286 24.4606 27.256 24.5309C27.226 24.6012 27.1821 24.6647 27.1269 24.7177L26.4321 25.3805C26.324 25.4845 26.1792 25.5415 26.0292 25.5389C25.8793 25.5363 25.7365 25.4744 25.6321 25.3668L23.8949 23.5565C23.8237 23.4818 23.7742 23.389 23.7518 23.2882C23.7294 23.1874 23.735 23.0824 23.7679 22.9845C23.8008 22.8866 23.8599 22.7996 23.9387 22.7328C24.0174 22.6661 24.113 22.6221 24.2149 22.6057L25.2846 22.4365C25.3709 22.423 25.459 22.4296 25.5423 22.4558C25.6256 22.4819 25.7016 22.527 25.7646 22.5874Z" fill="#FFFF94"/>
<path d="M24.2469 27.2548C23.1361 26.4503 22.2446 25.5085 22.7383 24.1005C22.7677 24.017 22.8179 23.9422 22.8841 23.8834C22.9504 23.8246 23.0305 23.7837 23.117 23.7645C23.2035 23.7453 23.2934 23.7484 23.3783 23.7736C23.4633 23.7988 23.5403 23.8453 23.6023 23.9085L25.5452 25.8925C25.658 26.0084 25.658 26.1242 25.5452 26.24L24.5806 27.2228C24.477 27.3295 24.3658 27.3402 24.2469 27.2548Z" fill="#FFFF94"/>
<path d="M22.2127 25.6869C22.5753 26.3421 23.1056 26.9394 23.8035 27.4789C23.9681 27.6038 23.9833 27.744 23.8492 27.8994L23.3647 28.4754C23.2092 28.6552 23.0508 28.6583 22.8892 28.4846C22.4458 28 21.687 27.5383 21.5864 26.8526C21.4889 26.1973 21.5361 25.6107 21.7281 25.0926C21.8195 24.8488 21.943 24.8305 22.0984 25.0377C22.1715 25.1383 22.1944 25.2434 22.167 25.3532C22.1365 25.4659 22.1517 25.5772 22.2127 25.6869Z" fill="#FFFF94"/>
</svg>
