<?xml version="1.0" encoding="UTF-8" standalone="no"?>
<!DOCTYPE svg PUBLIC "-//W3C//DTD SVG 1.1//EN" "http://www.w3.org/Graphics/SVG/1.1/DTD/svg11.dtd">
<svg xmlns="http://www.w3.org/2000/svg" version="1.1" viewBox="0.00 0.00 70.00 70.00">
<g stroke-width="2.00" fill="none" stroke-linecap="butt">
<path stroke="#575c63" vector-effect="non-scaling-stroke" d="
  M 14.94 15.38
  L 12.10 12.45
  Q 11.44 11.76 11.44 12.71
  L 11.47 22.96
  Q 11.47 23.71 12.21 23.71
  L 22.47 23.71
  Q 23.40 23.71 22.73 23.07
  L 18.48 18.99
  A 0.74 0.73 -43.2 0 1 18.52 17.90
  C 28.93 9.09 43.26 9.16 52.63 19.22
  Q 61.27 28.50 58.13 42.40
  A 1.46 1.44 34.0 0 0 58.37 43.58
  Q 59.46 45.09 60.97 43.96
  A 1.51 1.49 75.1 0 0 61.57 42.91
  Q 62.61 32.58 61.31 27.86
  Q 58.46 17.48 49.25 11.98
  Q 35.89 4.00 21.25 11.42
  C 19.36 12.38 17.68 14.11 15.96 15.45
  Q 15.42 15.87 14.94 15.38"
/>
<path stroke="#575c63" vector-effect="non-scaling-stroke" d="
  M 31.50 23.83
  L 33.63 26.14
  A 1.10 1.10 0.0 0 0 35.18 26.21
  L 36.58 24.92
  A 9.16 2.48 -42.6 0 0 41.64 16.89
  L 41.39 16.61
  A 9.16 2.48 -42.6 0 0 32.97 20.99
  L 31.57 22.28
  A 1.10 1.10 0.0 0 0 31.50 23.83"
/>
<path stroke="#575c63" vector-effect="non-scaling-stroke" d="
  M 37.83 30.82
  L 39.89 33.06
  A 1.23 1.23 0.0 0 0 41.63 33.13
  L 42.21 32.59
  A 10.22 2.56 -42.7 0 0 47.99 23.78
  L 47.73 23.50
  A 10.22 2.56 -42.7 0 0 38.48 28.55
  L 37.90 29.09
  A 1.23 1.23 0.0 0 0 37.83 30.82"
/>
<path stroke="#575c63" vector-effect="non-scaling-stroke" d="
  M 30.70 31.48
  C 31.75 30.44 32.07 29.17 33.00 28.11
  Q 33.40 27.66 32.99 27.21
  L 30.33 24.30
  Q 29.92 23.85 29.42 24.19
  C 27.88 25.24 26.33 25.63 24.92 27.02
  Q 21.17 30.70 17.25 34.10
  Q 15.26 35.83 17.06 37.75
  L 18.58 39.38
  Q 20.21 41.12 22.00 39.55
  Q 26.64 35.48 30.70 31.48"
/>
<path stroke="#575c63" vector-effect="non-scaling-stroke" d="
  M 53.79 56.62
  L 57.86 60.71
  Q 58.52 61.38 58.52 60.44
  L 58.54 50.00
  A 0.54 0.54 0.0 0 0 58.00 49.46
  L 47.55 49.45
  Q 46.50 49.45 47.26 50.17
  L 50.13 52.92
  A 0.83 0.83 0.0 0 1 50.07 54.17
  C 39.03 62.82 22.96 60.65 15.05 48.74
  Q 9.18 39.88 11.79 28.69
  Q 12.16 27.09 10.58 26.66
  Q 10.42 26.61 10.24 26.63
  Q 8.49 26.75 8.34 28.50
  C 7.86 34.27 7.32 41.40 9.86 46.73
  C 12.82 52.95 17.82 58.14 24.16 60.71
  Q 39.33 66.87 52.75 56.55
  Q 53.30 56.12 53.79 56.62"
/>
<path stroke="#575c63" vector-effect="non-scaling-stroke" d="
  M 44.14 37.83
  L 46.21 40.06
  A 1.24 1.24 0.0 0 0 47.96 40.12
  L 48.62 39.51
  A 10.08 2.57 -42.8 0 0 54.27 30.78
  L 54.01 30.50
  A 10.08 2.57 -42.8 0 0 44.87 35.46
  L 44.21 36.07
  A 1.24 1.24 0.0 0 0 44.14 37.83"
/>
<path stroke="#575c63" vector-effect="non-scaling-stroke" d="
  M 22.91 44.04
  L 25.46 46.83
  A 1.69 1.69 0.0 0 0 27.84 46.94
  L 37.52 38.10
  A 4.10 2.17 -42.4 0 0 39.09 33.73
  L 37.19 31.65
  A 4.10 2.17 -42.4 0 0 32.70 32.81
  L 23.02 41.65
  A 1.69 1.69 0.0 0 0 22.91 44.04"
/>
<path stroke="#575c63" vector-effect="non-scaling-stroke" d="
  M 15.41 37.47
  Q 13.95 35.28 14.36 37.88
  Q 14.76 40.40 18.09 42.12
  Q 18.71 42.44 19.22 41.99
  Q 19.66 41.61 19.18 41.30
  Q 17.01 39.86 15.41 37.47"
/>
<path stroke="#575c63" vector-effect="non-scaling-stroke" d="
  M 29.15 50.91
  L 31.83 53.82
  A 1.58 1.58 0.0 0 0 34.06 53.91
  L 43.60 45.15
  A 4.27 2.02 -42.6 0 0 45.37 40.77
  L 43.29 38.50
  A 4.27 2.02 -42.6 0 0 38.78 39.91
  L 29.24 48.67
  A 1.58 1.58 0.0 0 0 29.15 50.91"
/>
<path stroke="#575c63" vector-effect="non-scaling-stroke" d="
  M 25.85 48.95
  L 21.01 43.53
  A 0.03 0.03 0.0 0 0 20.97 43.53
  L 20.93 43.57
  A 3.10 1.72 48.2 0 0 21.72 47.02
  L 22.46 47.86
  A 3.10 1.72 48.2 0 0 25.81 49.02
  L 25.85 48.99
  A 0.03 0.03 0.0 0 0 25.85 48.95"
/>
<path stroke="#575c63" vector-effect="non-scaling-stroke" d="
  M 32.07 55.75
  L 27.28 50.56
  A 0.14 0.14 0.0 0 0 27.08 50.55
  L 27.00 50.63
  A 3.29 1.51 47.3 0 0 28.13 54.07
  L 28.64 54.63
  A 3.29 1.51 47.3 0 0 31.98 56.02
  L 32.06 55.95
  A 0.14 0.14 0.0 0 0 32.07 55.75"
/>
</g>
<path fill="#2f353e" d="
  M 0.00 0.00
  L 70.00 0.00
  L 70.00 70.00
  L 0.00 70.00
  L 0.00 0.00
  Z
  M 14.94 15.38
  L 12.10 12.45
  Q 11.44 11.76 11.44 12.71
  L 11.47 22.96
  Q 11.47 23.71 12.21 23.71
  L 22.47 23.71
  Q 23.40 23.71 22.73 23.07
  L 18.48 18.99
  A 0.74 0.73 -43.2 0 1 18.52 17.90
  C 28.93 9.09 43.26 9.16 52.63 19.22
  Q 61.27 28.50 58.13 42.40
  A 1.46 1.44 34.0 0 0 58.37 43.58
  Q 59.46 45.09 60.97 43.96
  A 1.51 1.49 75.1 0 0 61.57 42.91
  Q 62.61 32.58 61.31 27.86
  Q 58.46 17.48 49.25 11.98
  Q 35.89 4.00 21.25 11.42
  C 19.36 12.38 17.68 14.11 15.96 15.45
  Q 15.42 15.87 14.94 15.38
  Z
  M 31.50 23.83
  L 33.63 26.14
  A 1.10 1.10 0.0 0 0 35.18 26.21
  L 36.58 24.92
  A 9.16 2.48 -42.6 0 0 41.64 16.89
  L 41.39 16.61
  A 9.16 2.48 -42.6 0 0 32.97 20.99
  L 31.57 22.28
  A 1.10 1.10 0.0 0 0 31.50 23.83
  Z
  M 37.83 30.82
  L 39.89 33.06
  A 1.23 1.23 0.0 0 0 41.63 33.13
  L 42.21 32.59
  A 10.22 2.56 -42.7 0 0 47.99 23.78
  L 47.73 23.50
  A 10.22 2.56 -42.7 0 0 38.48 28.55
  L 37.90 29.09
  A 1.23 1.23 0.0 0 0 37.83 30.82
  Z
  M 30.70 31.48
  C 31.75 30.44 32.07 29.17 33.00 28.11
  Q 33.40 27.66 32.99 27.21
  L 30.33 24.30
  Q 29.92 23.85 29.42 24.19
  C 27.88 25.24 26.33 25.63 24.92 27.02
  Q 21.17 30.70 17.25 34.10
  Q 15.26 35.83 17.06 37.75
  L 18.58 39.38
  Q 20.21 41.12 22.00 39.55
  Q 26.64 35.48 30.70 31.48
  Z
  M 53.79 56.62
  L 57.86 60.71
  Q 58.52 61.38 58.52 60.44
  L 58.54 50.00
  A 0.54 0.54 0.0 0 0 58.00 49.46
  L 47.55 49.45
  Q 46.50 49.45 47.26 50.17
  L 50.13 52.92
  A 0.83 0.83 0.0 0 1 50.07 54.17
  C 39.03 62.82 22.96 60.65 15.05 48.74
  Q 9.18 39.88 11.79 28.69
  Q 12.16 27.09 10.58 26.66
  Q 10.42 26.61 10.24 26.63
  Q 8.49 26.75 8.34 28.50
  C 7.86 34.27 7.32 41.40 9.86 46.73
  C 12.82 52.95 17.82 58.14 24.16 60.71
  Q 39.33 66.87 52.75 56.55
  Q 53.30 56.12 53.79 56.62
  Z
  M 44.14 37.83
  L 46.21 40.06
  A 1.24 1.24 0.0 0 0 47.96 40.12
  L 48.62 39.51
  A 10.08 2.57 -42.8 0 0 54.27 30.78
  L 54.01 30.50
  A 10.08 2.57 -42.8 0 0 44.87 35.46
  L 44.21 36.07
  A 1.24 1.24 0.0 0 0 44.14 37.83
  Z
  M 22.91 44.04
  L 25.46 46.83
  A 1.69 1.69 0.0 0 0 27.84 46.94
  L 37.52 38.10
  A 4.10 2.17 -42.4 0 0 39.09 33.73
  L 37.19 31.65
  A 4.10 2.17 -42.4 0 0 32.70 32.81
  L 23.02 41.65
  A 1.69 1.69 0.0 0 0 22.91 44.04
  Z
  M 15.41 37.47
  Q 13.95 35.28 14.36 37.88
  Q 14.76 40.40 18.09 42.12
  Q 18.71 42.44 19.22 41.99
  Q 19.66 41.61 19.18 41.30
  Q 17.01 39.86 15.41 37.47
  Z
  M 29.15 50.91
  L 31.83 53.82
  A 1.58 1.58 0.0 0 0 34.06 53.91
  L 43.60 45.15
  A 4.27 2.02 -42.6 0 0 45.37 40.77
  L 43.29 38.50
  A 4.27 2.02 -42.6 0 0 38.78 39.91
  L 29.24 48.67
  A 1.58 1.58 0.0 0 0 29.15 50.91
  Z
  M 25.85 48.95
  L 21.01 43.53
  A 0.03 0.03 0.0 0 0 20.97 43.53
  L 20.93 43.57
  A 3.10 1.72 48.2 0 0 21.72 47.02
  L 22.46 47.86
  A 3.10 1.72 48.2 0 0 25.81 49.02
  L 25.85 48.99
  A 0.03 0.03 0.0 0 0 25.85 48.95
  Z
  M 32.07 55.75
  L 27.28 50.56
  A 0.14 0.14 0.0 0 0 27.08 50.55
  L 27.00 50.63
  A 3.29 1.51 47.3 0 0 28.13 54.07
  L 28.64 54.63
  A 3.29 1.51 47.3 0 0 31.98 56.02
  L 32.06 55.95
  A 0.14 0.14 0.0 0 0 32.07 55.75
  Z"
/>
<g fill="#ffff94">
<path d="
  M 15.96 15.45
  C 17.68 14.11 19.36 12.38 21.25 11.42
  Q 35.89 4.00 49.25 11.98
  Q 58.46 17.48 61.31 27.86
  Q 62.61 32.58 61.57 42.91
  A 1.51 1.49 75.1 0 1 60.97 43.96
  Q 59.46 45.09 58.37 43.58
  A 1.46 1.44 34.0 0 1 58.13 42.40
  Q 61.27 28.50 52.63 19.22
  C 43.26 9.16 28.93 9.09 18.52 17.90
  A 0.74 0.73 -43.2 0 0 18.48 18.99
  L 22.73 23.07
  Q 23.40 23.71 22.47 23.71
  L 12.21 23.71
  Q 11.47 23.71 11.47 22.96
  L 11.44 12.71
  Q 11.44 11.76 12.10 12.45
  L 14.94 15.38
  Q 15.42 15.87 15.96 15.45
  Z"
/>
<path d="
  M 31.50 23.83
  A 1.10 1.10 0.0 0 1 31.57 22.28
  L 32.97 20.99
  A 9.16 2.48 -42.6 0 1 41.39 16.61
  L 41.64 16.89
  A 9.16 2.48 -42.6 0 1 36.58 24.92
  L 35.18 26.21
  A 1.10 1.10 0.0 0 1 33.63 26.14
  L 31.50 23.83
  Z"
/>
<path d="
  M 37.83 30.82
  A 1.23 1.23 0.0 0 1 37.90 29.09
  L 38.48 28.55
  A 10.22 2.56 -42.7 0 1 47.73 23.50
  L 47.99 23.78
  A 10.22 2.56 -42.7 0 1 42.21 32.59
  L 41.63 33.13
  A 1.23 1.23 0.0 0 1 39.89 33.06
  L 37.83 30.82
  Z"
/>
<path d="
  M 33.00 28.11
  C 32.07 29.17 31.75 30.44 30.70 31.48
  Q 26.64 35.48 22.00 39.55
  Q 20.21 41.12 18.58 39.38
  L 17.06 37.75
  Q 15.26 35.83 17.25 34.10
  Q 21.17 30.70 24.92 27.02
  C 26.33 25.63 27.88 25.24 29.42 24.19
  Q 29.92 23.85 30.33 24.30
  L 32.99 27.21
  Q 33.40 27.66 33.00 28.11
  Z"
/>
<path d="
  M 52.75 56.55
  Q 39.33 66.87 24.16 60.71
  C 17.82 58.14 12.82 52.95 9.86 46.73
  C 7.32 41.40 7.86 34.27 8.34 28.50
  Q 8.49 26.75 10.24 26.63
  Q 10.42 26.61 10.58 26.66
  Q 12.16 27.09 11.79 28.69
  Q 9.18 39.88 15.05 48.74
  C 22.96 60.65 39.03 62.82 50.07 54.17
  A 0.83 0.83 0.0 0 0 50.13 52.92
  L 47.26 50.17
  Q 46.50 49.45 47.55 49.45
  L 58.00 49.46
  A 0.54 0.54 0.0 0 1 58.54 50.00
  L 58.52 60.44
  Q 58.52 61.38 57.86 60.71
  L 53.79 56.62
  Q 53.30 56.12 52.75 56.55
  Z"
/>
<path d="
  M 44.14 37.83
  A 1.24 1.24 0.0 0 1 44.21 36.07
  L 44.87 35.46
  A 10.08 2.57 -42.8 0 1 54.01 30.50
  L 54.27 30.78
  A 10.08 2.57 -42.8 0 1 48.62 39.51
  L 47.96 40.12
  A 1.24 1.24 0.0 0 1 46.21 40.06
  L 44.14 37.83
  Z"
/>
<path d="
  M 22.91 44.04
  A 1.69 1.69 0.0 0 1 23.02 41.65
  L 32.70 32.81
  A 4.10 2.17 -42.4 0 1 37.19 31.65
  L 39.09 33.73
  A 4.10 2.17 -42.4 0 1 37.52 38.10
  L 27.84 46.94
  A 1.69 1.69 0.0 0 1 25.46 46.83
  L 22.91 44.04
  Z"
/>
<path d="
  M 15.41 37.47
  Q 17.01 39.86 19.18 41.30
  Q 19.66 41.61 19.22 41.99
  Q 18.71 42.44 18.09 42.12
  Q 14.76 40.40 14.36 37.88
  Q 13.95 35.28 15.41 37.47
  Z"
/>
<path d="
  M 29.15 50.91
  A 1.58 1.58 0.0 0 1 29.24 48.67
  L 38.78 39.91
  A 4.27 2.02 -42.6 0 1 43.29 38.50
  L 45.37 40.77
  A 4.27 2.02 -42.6 0 1 43.60 45.15
  L 34.06 53.91
  A 1.58 1.58 0.0 0 1 31.83 53.82
  L 29.15 50.91
  Z"
/>
<path d="
  M 25.85 48.95
  A 0.03 0.03 0.0 0 1 25.85 48.99
  L 25.81 49.02
  A 3.10 1.72 48.2 0 1 22.46 47.86
  L 21.72 47.02
  A 3.10 1.72 48.2 0 1 20.93 43.57
  L 20.97 43.53
  A 0.03 0.03 0.0 0 1 21.01 43.53
  L 25.85 48.95
  Z"
/>
<path d="
  M 32.07 55.75
  A 0.14 0.14 0.0 0 1 32.06 55.95
  L 31.98 56.02
  A 3.29 1.51 47.3 0 1 28.64 54.63
  L 28.13 54.07
  A 3.29 1.51 47.3 0 1 27.00 50.63
  L 27.08 50.55
  A 0.14 0.14 0.0 0 1 27.28 50.56
  L 32.07 55.75
  Z"
/>
</g>
</svg>
