<svg width="32" height="32" viewBox="0 0 32 32" fill="none" xmlns="http://www.w3.org/2000/svg">
<path d="M7.29602 7.06292C8.08231 6.45035 8.85031 5.65949 9.71431 5.22063C14.176 2.9593 18.4427 3.04463 22.5143 5.47663C25.3212 7.15282 27.1589 9.57263 28.0275 12.7361C28.4236 14.1745 28.4633 16.4679 28.1463 19.6161C28.1361 19.7112 28.1065 19.803 28.0593 19.8856C28.0121 19.9682 27.9483 20.0399 27.872 20.0961C27.4118 20.4404 27.0156 20.3825 26.6834 19.9223C26.6275 19.845 26.5887 19.7568 26.5698 19.6637C26.5509 19.5707 26.5522 19.4749 26.5737 19.3829C27.5307 15.1467 26.6926 11.6145 24.0595 8.78635C19.776 4.18749 13.2252 4.15549 8.46631 8.18292C8.43029 8.21359 8.40102 8.25139 8.38037 8.29386C8.35973 8.33634 8.34817 8.38255 8.34645 8.4295C8.34472 8.47646 8.35287 8.52312 8.37037 8.56648C8.38786 8.60983 8.41432 8.64892 8.44802 8.6812L10.3909 10.5463C10.5951 10.7414 10.5554 10.8389 10.272 10.8389H5.58174C5.35621 10.8389 5.24345 10.7246 5.24345 10.4961L5.22974 5.81035C5.22974 5.52082 5.33031 5.4812 5.53145 5.69149L6.82974 7.03092C6.97602 7.18025 7.13145 7.19092 7.29602 7.06292Z" fill="#FFFF94"/>
<path d="M14.4 10.8938C14.3106 10.7954 14.2638 10.6656 14.2698 10.5329C14.2758 10.4001 14.3341 10.2751 14.432 10.1852L15.072 9.59547C15.8886 8.84449 16.7525 8.21185 17.4742 7.83644C18.1959 7.46104 18.7163 7.37355 18.9212 7.59318L19.0354 7.72118C19.1373 7.83006 19.1583 8.01145 19.0971 8.25497C19.036 8.49849 18.8939 8.79936 18.679 9.14034C18.4642 9.48133 18.1807 9.85573 17.845 10.2421C17.5092 10.6285 17.1277 11.0193 16.7223 11.392L16.0823 11.9818C15.9839 12.0711 15.8542 12.118 15.7214 12.112C15.5886 12.106 15.4636 12.0476 15.3737 11.9498L14.4 10.8938Z" fill="#FFFF94"/>
<path d="M17.2937 14.0892C17.1937 13.9798 17.141 13.8353 17.1469 13.6872C17.1529 13.5391 17.2172 13.3993 17.3257 13.2983L17.5908 13.0515C18.0419 12.6351 18.5092 12.2451 18.966 11.9037C19.4227 11.5623 19.8599 11.2763 20.2526 11.0619C20.6453 10.8475 20.9858 10.7089 21.2547 10.6542C21.5235 10.5995 21.7154 10.6296 21.8194 10.7429L21.9382 10.8709C22.1466 11.1004 21.9855 11.6534 21.4901 12.4085C20.9947 13.1636 20.2056 14.0591 19.296 14.8983L19.0308 15.1452C18.9765 15.1954 18.9129 15.2344 18.8435 15.26C18.7741 15.2855 18.7003 15.2972 18.6265 15.2942C18.5526 15.2912 18.48 15.2737 18.4129 15.2426C18.3458 15.2116 18.2855 15.1676 18.2354 15.1132L17.2937 14.0892Z" fill="#FFFF94"/>
<path d="M15.0856 12.8502C14.6605 13.3348 14.5142 13.9154 14.0342 14.3908C12.7969 15.6098 11.4711 16.8396 10.057 18.0799C9.51152 18.5584 8.99038 18.5325 8.49362 18.0022L7.79876 17.2571C7.25019 16.6719 7.27914 16.1157 7.88562 15.5885C9.08029 14.5523 10.249 13.4735 11.3919 12.3519C12.0365 11.7165 12.745 11.5382 13.449 11.0582C13.6014 10.9546 13.7401 10.9714 13.865 11.1085L15.081 12.4388C15.206 12.5759 15.2075 12.7131 15.0856 12.8502Z" fill="#FFFF94"/>
<path d="M24.1142 25.8515C20.0243 28.9966 15.6677 29.6305 11.0445 27.7532C8.1462 26.5783 5.86048 24.2058 4.50734 21.3623C3.3462 18.9258 3.59306 15.6663 3.81248 13.0286C3.8582 12.4953 4.14772 12.2103 4.68106 12.1738C4.73591 12.1677 4.78772 12.1722 4.83648 12.1875C5.31801 12.3185 5.50239 12.6279 5.38963 13.1155C4.5942 16.5258 5.09096 19.581 6.87991 22.2812C10.4959 27.7258 17.8422 28.7178 22.8891 24.7635C22.9316 24.7299 22.9664 24.6875 22.9912 24.6393C23.016 24.5911 23.0302 24.5381 23.0328 24.484C23.0354 24.4298 23.0263 24.3758 23.0063 24.3254C22.9862 24.2751 22.9556 24.2296 22.9165 24.192L21.6045 22.9349C21.3729 22.7155 21.4171 22.6058 21.7371 22.6058L26.5142 22.6103C26.5797 22.6103 26.6425 22.6363 26.6888 22.6826C26.735 22.7289 26.7611 22.7917 26.7611 22.8572L26.7519 27.6298C26.7519 27.9162 26.6513 27.9574 26.4502 27.7532L24.5896 25.8835C24.4403 25.7311 24.2818 25.7204 24.1142 25.8515Z" fill="#FFFF94"/>
<path d="M20.1783 17.2937C20.1272 17.2389 20.0875 17.1746 20.0615 17.1044C20.0355 17.0342 20.0236 16.9595 20.0266 16.8847C20.0295 16.8099 20.0473 16.7365 20.0788 16.6685C20.1104 16.6006 20.155 16.5397 20.2103 16.4891L20.512 16.2103C21.4087 15.38 22.3527 14.6747 23.1363 14.2495C23.9198 13.8243 24.4788 13.714 24.6902 13.9428L24.8091 14.0708C25.0194 14.3003 24.8655 14.8495 24.3813 15.5977C23.897 16.3459 23.122 17.2321 22.2262 18.0617L21.9245 18.3405C21.8147 18.4428 21.6688 18.4973 21.5189 18.4922C21.3689 18.487 21.2271 18.4226 21.1245 18.3131L20.1783 17.2937Z" fill="#FFFF94"/>
<path d="M10.473 20.1325C10.4045 20.0575 10.3514 19.9698 10.3169 19.8742C10.2823 19.7787 10.2669 19.6773 10.2716 19.5758C10.2762 19.4743 10.3009 19.3748 10.3441 19.2828C10.3873 19.1909 10.4482 19.1083 10.5233 19.04L14.9485 14.9988C15.3156 14.6637 15.7381 14.4196 16.1231 14.3202C16.508 14.2207 16.8238 14.2741 17.001 14.4685L17.8696 15.4194C17.9574 15.5158 18.0084 15.6439 18.0198 15.7965C18.0312 15.949 18.0028 16.1231 17.9362 16.3086C17.8695 16.4941 17.7659 16.6875 17.6314 16.8777C17.4968 17.0679 17.3339 17.2512 17.1519 17.4171L12.7268 21.4583C12.5755 21.5953 12.3762 21.6669 12.1724 21.6574C11.9685 21.648 11.7767 21.5583 11.6388 21.408L10.473 20.1325Z" fill="#FFFF94"/>
<path d="M7.04453 17.1291C7.53215 17.8575 8.10663 18.4411 8.76796 18.88C8.91425 18.9744 8.92034 19.0796 8.78625 19.1954C8.63082 19.3325 8.45863 19.3523 8.26967 19.2548C7.25482 18.7306 6.68644 18.0845 6.56453 17.3165C6.43958 16.5242 6.59958 16.4617 7.04453 17.1291Z" fill="#FFFF94"/>
<path d="M13.3256 23.2731C13.2608 23.2033 13.2104 23.1214 13.1774 23.0321C13.1444 22.9427 13.1293 22.8477 13.1332 22.7526C13.137 22.6574 13.1596 22.5639 13.1997 22.4775C13.2398 22.3911 13.2966 22.3135 13.3668 22.2491L17.7279 18.2446C18.1085 17.8943 18.5393 17.6297 18.9258 17.5089C19.3124 17.388 19.6231 17.4208 19.7896 17.6L20.7405 18.6377C20.8233 18.7266 20.868 18.8489 20.8721 18.9977C20.8762 19.1465 20.8397 19.3189 20.7645 19.5049C20.6894 19.6908 20.5771 19.8868 20.4341 20.0816C20.2911 20.2764 20.1203 20.4662 19.9314 20.64L15.5702 24.6446C15.4295 24.7741 15.2431 24.8425 15.052 24.8348C14.8609 24.8271 14.6806 24.7439 14.5508 24.6034L13.3256 23.2731Z" fill="#FFFF94"/>
<path d="M11.8171 22.3772C11.8194 22.3797 11.8206 22.383 11.8206 22.3863C11.8206 22.3897 11.8194 22.393 11.8171 22.3955L11.7988 22.4092C11.7221 22.4784 11.6215 22.5196 11.503 22.5305C11.3845 22.5413 11.2502 22.5215 11.108 22.4722C10.9658 22.423 10.8183 22.3452 10.6741 22.2434C10.5298 22.1416 10.3916 22.0177 10.2674 21.8789L9.92911 21.4949C9.67964 21.2158 9.50163 20.8932 9.43396 20.5977C9.3663 20.3022 9.41447 20.0578 9.56796 19.9178L9.58625 19.8995C9.58876 19.8972 9.59202 19.896 9.59539 19.896C9.59876 19.896 9.60202 19.8972 9.60453 19.8995L11.8171 22.3772Z" fill="#FFFF94"/>
<path d="M14.6604 25.4857C14.6662 25.492 14.6707 25.4993 14.6736 25.5074C14.6766 25.5154 14.6778 25.5239 14.6774 25.5324C14.677 25.5409 14.6749 25.5493 14.6712 25.557C14.6675 25.5646 14.6623 25.5715 14.6559 25.5772L14.6193 25.6092C14.5529 25.6708 14.4606 25.7033 14.3479 25.7048C14.2352 25.7062 14.1042 25.6766 13.9625 25.6176C13.8207 25.5586 13.6709 25.4713 13.5216 25.3609C13.3723 25.2504 13.2265 25.1188 13.0924 24.9737L12.8593 24.7177C12.5893 24.4255 12.3833 24.0958 12.2865 23.8011C12.1896 23.5064 12.2099 23.2705 12.3427 23.1452L12.3793 23.1086C12.3856 23.1028 12.3929 23.0983 12.4009 23.0954C12.4089 23.0925 12.4175 23.0912 12.426 23.0916C12.4345 23.0921 12.4428 23.0942 12.4505 23.0979C12.4582 23.1016 12.4651 23.1068 12.4707 23.1132L14.6604 25.4857Z" fill="#FFFF94"/>
</svg>
