<?xml version="1.0" encoding="UTF-8" standalone="no"?>
<!DOCTYPE svg PUBLIC "-//W3C//DTD SVG 1.1//EN" "http://www.w3.org/Graphics/SVG/1.1/DTD/svg11.dtd">
<svg xmlns="http://www.w3.org/2000/svg" version="1.1" viewBox="0.00 0.00 70.00 70.00">
<g stroke-width="2.00" fill="none" stroke-linecap="butt">
<path stroke="#575c63" vector-effect="non-scaling-stroke" d="
  M 55.89 20.98
  L 52.42 19.80
  A 1.33 1.33 0.0 0 1 51.59 18.97
  L 50.30 15.34
  Q 50.02 14.57 50.62 14.00
  L 55.27 9.57
  A 1.14 1.14 0.0 0 0 54.74 7.63
  Q 49.03 6.36 44.55 10.39
  C 38.54 15.81 40.24 25.48 47.83 28.32
  C 55.63 31.24 63.39 25.32 62.65 17.08
  A 0.73 0.72 -25.4 0 0 61.41 16.64
  L 57.52 20.59
  Q 56.83 21.30 55.89 20.98"
/>
<path stroke="#575c63" vector-effect="non-scaling-stroke" d="
  M 20.76 11.26
  C 18.65 8.83 15.09 7.50 12.11 9.37
  C 6.79 12.73 7.89 17.99 12.16 21.65
  Q 19.31 27.78 26.06 33.91
  Q 26.51 34.33 26.95 33.89
  L 33.85 26.92
  A 0.57 0.56 -43.9 0 0 33.87 26.15
  Q 26.70 18.09 20.76 11.26"
/>
<path stroke="#575c63" vector-effect="non-scaling-stroke" d="
  M 41.06 24.73
  Q 40.78 24.22 40.40 23.77
  Q 40.09 23.41 39.76 23.75
  L 24.08 39.52
  A 0.63 0.63 0.0 0 0 24.24 40.52
  Q 27.83 42.38 29.63 46.02
  A 0.64 0.64 0.0 0 0 30.66 46.19
  L 46.17 30.62
  A 0.75 0.75 0.0 0 0 45.99 29.43
  Q 42.68 27.67 41.06 24.73"
/>
<path stroke="#575c63" vector-effect="non-scaling-stroke" d="
  M 51.84 54.13
  C 52.80 55.08 52.68 55.94 52.86 57.14
  Q 52.95 57.73 53.44 58.07
  L 58.32 61.53
  Q 58.86 61.91 59.33 61.43
  L 61.41 59.29
  Q 61.82 58.88 61.49 58.40
  L 57.96 53.31
  A 1.28 1.26 72.4 0 0 56.92 52.76
  Q 54.86 52.78 53.51 51.38
  Q 47.35 45.00 41.48 39.03
  Q 40.75 38.30 40.03 39.05
  L 39.07 40.05
  Q 38.35 40.80 39.09 41.53
  Q 45.27 47.65 51.84 54.13"
/>
<path stroke="#575c63" vector-effect="non-scaling-stroke" d="
  M 18.62 50.95
  L 19.94 54.45
  Q 20.28 55.34 19.59 56.01
  L 14.89 60.60
  A 0.82 0.82 0.0 0 0 15.28 61.98
  Q 21.34 63.36 25.57 59.78
  C 33.04 53.45 28.80 40.96 18.87 40.92
  C 12.14 40.89 7.29 46.10 7.25 52.51
  A 1.04 1.04 0.0 0 0 9.02 53.25
  L 13.17 49.14
  Q 13.57 48.74 14.11 48.92
  L 17.84 50.19
  Q 18.41 50.38 18.62 50.95"
/>
</g>
<path fill="#2f353e" d="
  M 0.00 0.00
  L 70.00 0.00
  L 70.00 70.00
  L 0.00 70.00
  L 0.00 0.00
  Z
  M 55.89 20.98
  L 52.42 19.80
  A 1.33 1.33 0.0 0 1 51.59 18.97
  L 50.30 15.34
  Q 50.02 14.57 50.62 14.00
  L 55.27 9.57
  A 1.14 1.14 0.0 0 0 54.74 7.63
  Q 49.03 6.36 44.55 10.39
  C 38.54 15.81 40.24 25.48 47.83 28.32
  C 55.63 31.24 63.39 25.32 62.65 17.08
  A 0.73 0.72 -25.4 0 0 61.41 16.64
  L 57.52 20.59
  Q 56.83 21.30 55.89 20.98
  Z
  M 20.76 11.26
  C 18.65 8.83 15.09 7.50 12.11 9.37
  C 6.79 12.73 7.89 17.99 12.16 21.65
  Q 19.31 27.78 26.06 33.91
  Q 26.51 34.33 26.95 33.89
  L 33.85 26.92
  A 0.57 0.56 -43.9 0 0 33.87 26.15
  Q 26.70 18.09 20.76 11.26
  Z
  M 41.06 24.73
  Q 40.78 24.22 40.40 23.77
  Q 40.09 23.41 39.76 23.75
  L 24.08 39.52
  A 0.63 0.63 0.0 0 0 24.24 40.52
  Q 27.83 42.38 29.63 46.02
  A 0.64 0.64 0.0 0 0 30.66 46.19
  L 46.17 30.62
  A 0.75 0.75 0.0 0 0 45.99 29.43
  Q 42.68 27.67 41.06 24.73
  Z
  M 51.84 54.13
  C 52.80 55.08 52.68 55.94 52.86 57.14
  Q 52.95 57.73 53.44 58.07
  L 58.32 61.53
  Q 58.86 61.91 59.33 61.43
  L 61.41 59.29
  Q 61.82 58.88 61.49 58.40
  L 57.96 53.31
  A 1.28 1.26 72.4 0 0 56.92 52.76
  Q 54.86 52.78 53.51 51.38
  Q 47.35 45.00 41.48 39.03
  Q 40.75 38.30 40.03 39.05
  L 39.07 40.05
  Q 38.35 40.80 39.09 41.53
  Q 45.27 47.65 51.84 54.13
  Z
  M 18.62 50.95
  L 19.94 54.45
  Q 20.28 55.34 19.59 56.01
  L 14.89 60.60
  A 0.82 0.82 0.0 0 0 15.28 61.98
  Q 21.34 63.36 25.57 59.78
  C 33.04 53.45 28.80 40.96 18.87 40.92
  C 12.14 40.89 7.29 46.10 7.25 52.51
  A 1.04 1.04 0.0 0 0 9.02 53.25
  L 13.17 49.14
  Q 13.57 48.74 14.11 48.92
  L 17.84 50.19
  Q 18.41 50.38 18.62 50.95
  Z"
/>
<g fill="#ffff94">
<path d="
  M 57.52 20.59
  L 61.41 16.64
  A 0.73 0.72 -25.4 0 1 62.65 17.08
  C 63.39 25.32 55.63 31.24 47.83 28.32
  C 40.24 25.48 38.54 15.81 44.55 10.39
  Q 49.03 6.36 54.74 7.63
  A 1.14 1.14 0.0 0 1 55.27 9.57
  L 50.62 14.00
  Q 50.02 14.57 50.30 15.34
  L 51.59 18.97
  A 1.33 1.33 0.0 0 0 52.42 19.80
  L 55.89 20.98
  Q 56.83 21.30 57.52 20.59
  Z"
/>
<path d="
  M 12.11 9.37
  C 15.09 7.50 18.65 8.83 20.76 11.26
  Q 26.70 18.09 33.87 26.15
  A 0.57 0.56 -43.9 0 1 33.85 26.92
  L 26.95 33.89
  Q 26.51 34.33 26.06 33.91
  Q 19.31 27.78 12.16 21.65
  C 7.89 17.99 6.79 12.73 12.11 9.37
  Z"
/>
<path d="
  M 41.06 24.73
  Q 42.68 27.67 45.99 29.43
  A 0.75 0.75 0.0 0 1 46.17 30.62
  L 30.66 46.19
  A 0.64 0.64 0.0 0 1 29.63 46.02
  Q 27.83 42.38 24.24 40.52
  A 0.63 0.63 0.0 0 1 24.08 39.52
  L 39.76 23.75
  Q 40.09 23.41 40.40 23.77
  Q 40.78 24.22 41.06 24.73
  Z"
/>
<path d="
  M 51.84 54.13
  Q 45.27 47.65 39.09 41.53
  Q 38.35 40.80 39.07 40.05
  L 40.03 39.05
  Q 40.75 38.30 41.48 39.03
  Q 47.35 45.00 53.51 51.38
  Q 54.86 52.78 56.92 52.76
  A 1.28 1.26 72.4 0 1 57.96 53.31
  L 61.49 58.40
  Q 61.82 58.88 61.41 59.29
  L 59.33 61.43
  Q 58.86 61.91 58.32 61.53
  L 53.44 58.07
  Q 52.95 57.73 52.86 57.14
  C 52.68 55.94 52.80 55.08 51.84 54.13
  Z"
/>
<path d="
  M 17.84 50.19
  L 14.11 48.92
  Q 13.57 48.74 13.17 49.14
  L 9.02 53.25
  A 1.04 1.04 0.0 0 1 7.25 52.51
  C 7.29 46.10 12.14 40.89 18.87 40.92
  C 28.80 40.96 33.04 53.45 25.57 59.78
  Q 21.34 63.36 15.28 61.98
  A 0.82 0.82 0.0 0 1 14.89 60.60
  L 19.59 56.01
  Q 20.28 55.34 19.94 54.45
  L 18.62 50.95
  Q 18.41 50.38 17.84 50.19
  Z"
/>
</g>
</svg>
