<svg width="32" height="32" viewBox="0 0 32 32" fill="none" xmlns="http://www.w3.org/2000/svg">
<path d="M26.2949 9.41257L28.0732 7.60685C28.1182 7.56191 28.1751 7.53053 28.2371 7.51642C28.2992 7.5023 28.3638 7.50604 28.4234 7.52719C28.483 7.54833 28.5351 7.58601 28.5735 7.63577C28.6119 7.68553 28.635 7.74529 28.6401 7.80799C28.9784 11.5749 25.4309 14.2811 21.8652 12.9463C18.3955 11.648 17.6184 7.22742 20.3658 4.74971C21.7311 3.52152 23.2839 3.10095 25.0241 3.48799C25.1161 3.50895 25.2007 3.55452 25.2689 3.61983C25.3371 3.68513 25.3862 3.76773 25.4111 3.85879C25.436 3.94985 25.4356 4.04596 25.4101 4.13685C25.3847 4.22774 25.335 4.31001 25.2664 4.37485L23.1406 6.39999C22.9578 6.57371 22.909 6.7779 22.9944 7.01257L23.5841 8.67199C23.6141 8.76005 23.6639 8.84005 23.7297 8.90583C23.7954 8.97161 23.8754 9.02142 23.9635 9.05142L25.5498 9.59085C25.8363 9.68837 26.0846 9.62895 26.2949 9.41257Z" fill="#FFFF94"/>
<path d="M5.5359 4.28341C6.89819 3.42855 8.52562 4.03655 9.49019 5.14741C11.3005 7.22893 13.2982 9.49789 15.4833 11.9543C15.5266 12.0024 15.5498 12.0655 15.5481 12.1308C15.5464 12.1962 15.52 12.2588 15.4742 12.3063L12.3199 15.4926C12.1858 15.6266 12.0502 15.6297 11.913 15.5017C9.8559 13.6335 7.73781 11.7653 5.55876 9.89712C3.60676 8.22398 3.1039 5.81941 5.5359 4.28341Z" fill="#FFFF94"/>
<path d="M18.7703 11.3051C19.264 12.2011 20.0152 12.9173 21.024 13.4537C21.0712 13.4788 21.1118 13.5146 21.1427 13.5583C21.1736 13.6019 21.1938 13.6522 21.2018 13.705C21.2098 13.7579 21.2053 13.8119 21.1888 13.8627C21.1722 13.9135 21.1439 13.9597 21.1063 13.9977L14.016 21.1154C13.9831 21.1486 13.9428 21.1734 13.8983 21.1878C13.8539 21.2022 13.8066 21.2058 13.7605 21.1982C13.7144 21.1906 13.6708 21.172 13.6333 21.1441C13.5959 21.1162 13.5656 21.0797 13.5452 21.0377C12.9966 19.9283 12.1752 19.0903 11.0812 18.5234C11.0412 18.5027 11.0067 18.4729 10.9803 18.4364C10.9539 18.3999 10.9365 18.3577 10.9294 18.3133C10.9223 18.2688 10.9257 18.2233 10.9393 18.1804C10.953 18.1375 10.9765 18.0984 11.008 18.0663L18.176 10.8571C18.2766 10.7535 18.3741 10.7565 18.4686 10.8663C18.5844 11.0034 18.685 11.1497 18.7703 11.3051Z" fill="#FFFF94"/>
<path d="M23.6983 24.7452C21.696 22.7703 19.7531 20.8503 17.8697 18.9852C17.6442 18.7627 17.6411 18.5372 17.8606 18.3086L18.2994 17.8515C18.5188 17.6229 18.7398 17.6199 18.9623 17.8423C20.7512 19.6618 22.5844 21.5437 24.4617 23.4881C24.8731 23.9147 25.3927 24.125 26.0206 24.1189C26.1136 24.1191 26.2054 24.142 26.2882 24.1858C26.371 24.2296 26.4423 24.2929 26.496 24.3703L28.1097 26.6972C28.2103 26.8435 28.1981 26.9791 28.0731 27.1041L27.1223 28.0823C26.979 28.2286 26.8251 28.2439 26.6606 28.1281L24.4297 26.5463C24.2804 26.4427 24.192 26.301 24.1646 26.1212C24.0823 25.5726 24.1371 25.1795 23.6983 24.7452Z" fill="#FFFF94"/>
<path d="M8.15535 22.944L6.45021 22.3634C6.28564 22.3085 6.1424 22.342 6.02049 22.464L4.12335 24.3428C4.05661 24.4086 3.97192 24.4532 3.87992 24.471C3.78792 24.4888 3.69271 24.479 3.60625 24.4428C3.5198 24.4067 3.44595 24.3458 3.39399 24.2678C3.34203 24.1898 3.31428 24.0982 3.31421 24.0045C3.33249 21.0742 5.54964 18.6925 8.62621 18.7062C13.1656 18.7245 15.1039 24.4342 11.6891 27.328C10.3999 28.419 8.83192 28.7542 6.98507 28.3337C6.91996 28.3183 6.86014 28.2859 6.81181 28.2396C6.76348 28.1934 6.7284 28.1351 6.71021 28.0707C6.69202 28.0064 6.69138 27.9383 6.70836 27.8736C6.72534 27.8089 6.75932 27.7499 6.80678 27.7028L8.95535 25.6045C9.16564 25.4003 9.21897 25.1626 9.11535 24.8914L8.51192 23.2914C8.44792 23.1177 8.32907 23.0019 8.15535 22.944Z" fill="#FFFF94"/>
</svg>
