<?xml version="1.0" encoding="UTF-8" standalone="no"?>
<!DOCTYPE svg PUBLIC "-//W3C//DTD SVG 1.1//EN" "http://www.w3.org/Graphics/SVG/1.1/DTD/svg11.dtd">
<svg xmlns="http://www.w3.org/2000/svg" version="1.1" viewBox="0.00 0.00 70.00 70.00">
<g stroke-width="2.00" fill="none" stroke-linecap="butt">
<path stroke="#585d64" vector-effect="non-scaling-stroke" d="
  M 42.62 7.83
  A 0.37 0.37 0.0 0 0 42.33 7.24
  L 27.58 7.23
  A 0.37 0.37 0.0 0 0 27.28 7.82
  L 34.67 17.58
  A 0.37 0.37 0.0 0 0 35.26 17.58
  L 42.62 7.83"
/>
<path stroke="#585d64" vector-effect="non-scaling-stroke" d="
  M 19.38 18.62
  C 20.92 17.88 23.50 18.30 25.22 18.26
  Q 25.77 18.24 25.76 17.69
  L 25.71 14.79
  A 0.76 0.75 -89.2 0 0 25.00 14.05
  Q 20.94 13.79 18.32 14.76
  C 15.59 15.76 13.73 19.17 13.79 22.20
  Q 13.83 23.99 13.77 25.72
  Q 13.74 26.87 14.87 26.98
  L 16.90 27.18
  A 1.08 1.08 0.0 0 0 18.08 26.10
  L 18.07 20.72
  A 2.32 2.31 -13.2 0 1 19.38 18.62"
/>
<path stroke="#585d64" vector-effect="non-scaling-stroke" d="
  M 56.25 26.46
  Q 56.98 22.34 55.63 18.88
  C 53.85 14.37 49.64 13.77 45.16 14.05
  A 0.95 0.93 -1.7 0 0 44.28 14.97
  L 44.23 17.53
  Q 44.21 18.15 44.83 18.21
  Q 46.55 18.39 48.25 18.16
  Q 53.03 17.52 51.81 26.08
  A 0.85 0.84 5.2 0 0 52.62 27.04
  L 55.43 27.13
  A 0.81 0.81 0.0 0 0 56.25 26.46"
/>
<path stroke="#585d64" vector-effect="non-scaling-stroke" d="
  M 39.61 35.07
  A 4.61 4.61 0.0 0 0 35.00 30.46
  A 4.61 4.61 0.0 0 0 30.39 35.07
  A 4.61 4.61 0.0 0 0 35.00 39.68
  A 4.61 4.61 0.0 0 0 39.61 35.07"
/>
<path stroke="#585d64" vector-effect="non-scaling-stroke" d="
  M 14.04 50.37
  C 15.85 56.04 19.93 55.99 24.91 56.20
  A 0.75 0.75 0.0 0 0 25.69 55.46
  L 25.76 52.51
  Q 25.77 51.95 25.21 51.92
  C 21.43 51.70 17.00 53.28 18.16 46.87
  Q 18.41 45.47 16.99 45.49
  L 14.55 45.51
  Q 13.92 45.51 13.80 46.12
  Q 13.36 48.24 14.04 50.37"
/>
<path stroke="#585d64" vector-effect="non-scaling-stroke" d="
  M 56.48 46.76
  Q 56.55 45.50 55.29 45.50
  L 52.97 45.49
  Q 51.68 45.48 51.85 46.77
  C 52.69 53.35 48.77 51.78 44.81 51.91
  Q 44.23 51.93 44.25 52.51
  L 44.35 55.33
  A 0.76 0.76 0.0 0 0 45.08 56.07
  Q 48.80 56.26 51.30 55.47
  Q 56.08 53.96 56.48 46.76"
/>
<path stroke="#585d64" vector-effect="non-scaling-stroke" d="
  M 27.41 62.27
  A 0.33 0.33 0.0 0 0 27.67 62.80
  L 42.27 62.80
  A 0.33 0.33 0.0 0 0 42.53 62.27
  L 35.23 52.56
  A 0.33 0.33 0.0 0 0 34.71 52.56
  L 27.41 62.27"
/>
</g>
<path fill="#2f353e" d="
  M 0.00 0.00
  L 70.00 0.00
  L 70.00 70.00
  L 0.00 70.00
  L 0.00 0.00
  Z
  M 42.62 7.83
  A 0.37 0.37 0.0 0 0 42.33 7.24
  L 27.58 7.23
  A 0.37 0.37 0.0 0 0 27.28 7.82
  L 34.67 17.58
  A 0.37 0.37 0.0 0 0 35.26 17.58
  L 42.62 7.83
  Z
  M 19.38 18.62
  C 20.92 17.88 23.50 18.30 25.22 18.26
  Q 25.77 18.24 25.76 17.69
  L 25.71 14.79
  A 0.76 0.75 -89.2 0 0 25.00 14.05
  Q 20.94 13.79 18.32 14.76
  C 15.59 15.76 13.73 19.17 13.79 22.20
  Q 13.83 23.99 13.77 25.72
  Q 13.74 26.87 14.87 26.98
  L 16.90 27.18
  A 1.08 1.08 0.0 0 0 18.08 26.10
  L 18.07 20.72
  A 2.32 2.31 -13.2 0 1 19.38 18.62
  Z
  M 56.25 26.46
  Q 56.98 22.34 55.63 18.88
  C 53.85 14.37 49.64 13.77 45.16 14.05
  A 0.95 0.93 -1.7 0 0 44.28 14.97
  L 44.23 17.53
  Q 44.21 18.15 44.83 18.21
  Q 46.55 18.39 48.25 18.16
  Q 53.03 17.52 51.81 26.08
  A 0.85 0.84 5.2 0 0 52.62 27.04
  L 55.43 27.13
  A 0.81 0.81 0.0 0 0 56.25 26.46
  Z
  M 39.61 35.07
  A 4.61 4.61 0.0 0 0 35.00 30.46
  A 4.61 4.61 0.0 0 0 30.39 35.07
  A 4.61 4.61 0.0 0 0 35.00 39.68
  A 4.61 4.61 0.0 0 0 39.61 35.07
  Z
  M 14.04 50.37
  C 15.85 56.04 19.93 55.99 24.91 56.20
  A 0.75 0.75 0.0 0 0 25.69 55.46
  L 25.76 52.51
  Q 25.77 51.95 25.21 51.92
  C 21.43 51.70 17.00 53.28 18.16 46.87
  Q 18.41 45.47 16.99 45.49
  L 14.55 45.51
  Q 13.92 45.51 13.80 46.12
  Q 13.36 48.24 14.04 50.37
  Z
  M 56.48 46.76
  Q 56.55 45.50 55.29 45.50
  L 52.97 45.49
  Q 51.68 45.48 51.85 46.77
  C 52.69 53.35 48.77 51.78 44.81 51.91
  Q 44.23 51.93 44.25 52.51
  L 44.35 55.33
  A 0.76 0.76 0.0 0 0 45.08 56.07
  Q 48.80 56.26 51.30 55.47
  Q 56.08 53.96 56.48 46.76
  Z
  M 27.41 62.27
  A 0.33 0.33 0.0 0 0 27.67 62.80
  L 42.27 62.80
  A 0.33 0.33 0.0 0 0 42.53 62.27
  L 35.23 52.56
  A 0.33 0.33 0.0 0 0 34.71 52.56
  L 27.41 62.27
  Z"
/>
<g fill="#ffff94">
<path d="
  M 42.62 7.83
  L 35.26 17.58
  A 0.37 0.37 0.0 0 1 34.67 17.58
  L 27.28 7.82
  A 0.37 0.37 0.0 0 1 27.58 7.23
  L 42.33 7.24
  A 0.37 0.37 0.0 0 1 42.62 7.83
  Z"
/>
<path d="
  M 19.38 18.62
  A 2.32 2.31 -13.2 0 0 18.07 20.72
  L 18.08 26.10
  A 1.08 1.08 0.0 0 1 16.90 27.18
  L 14.87 26.98
  Q 13.74 26.87 13.77 25.72
  Q 13.83 23.99 13.79 22.20
  C 13.73 19.17 15.59 15.76 18.32 14.76
  Q 20.94 13.79 25.00 14.05
  A 0.76 0.75 -89.2 0 1 25.71 14.79
  L 25.76 17.69
  Q 25.77 18.24 25.22 18.26
  C 23.50 18.30 20.92 17.88 19.38 18.62
  Z"
/>
<path d="
  M 56.25 26.46
  A 0.81 0.81 0.0 0 1 55.43 27.13
  L 52.62 27.04
  A 0.85 0.84 5.2 0 1 51.81 26.08
  Q 53.03 17.52 48.25 18.16
  Q 46.55 18.39 44.83 18.21
  Q 44.21 18.15 44.23 17.53
  L 44.28 14.97
  A 0.95 0.93 -1.7 0 1 45.16 14.05
  C 49.64 13.77 53.85 14.37 55.63 18.88
  Q 56.98 22.34 56.25 26.46
  Z"
/>
<circle cx="35.00" cy="35.07" r="4.61"/>
<path d="
  M 14.04 50.37
  Q 13.36 48.24 13.80 46.12
  Q 13.92 45.51 14.55 45.51
  L 16.99 45.49
  Q 18.41 45.47 18.16 46.87
  C 17.00 53.28 21.43 51.70 25.21 51.92
  Q 25.77 51.95 25.76 52.51
  L 25.69 55.46
  A 0.75 0.75 0.0 0 1 24.91 56.20
  C 19.93 55.99 15.85 56.04 14.04 50.37
  Z"
/>
<path d="
  M 56.48 46.76
  Q 56.08 53.96 51.30 55.47
  Q 48.80 56.26 45.08 56.07
  A 0.76 0.76 0.0 0 1 44.35 55.33
  L 44.25 52.51
  Q 44.23 51.93 44.81 51.91
  C 48.77 51.78 52.69 53.35 51.85 46.77
  Q 51.68 45.48 52.97 45.49
  L 55.29 45.50
  Q 56.55 45.50 56.48 46.76
  Z"
/>
<path d="
  M 27.41 62.27
  L 34.71 52.56
  A 0.33 0.33 0.0 0 1 35.23 52.56
  L 42.53 62.27
  A 0.33 0.33 0.0 0 1 42.27 62.80
  L 27.67 62.80
  A 0.33 0.33 0.0 0 1 27.41 62.27
  Z"
/>
</g>
</svg>
