<svg width="32" height="32" viewBox="0 0 32 32" fill="none" xmlns="http://www.w3.org/2000/svg">
<path d="M19.4835 3.57947L16.1189 8.03661C16.1031 8.05744 16.0827 8.07434 16.0593 8.08597C16.0359 8.0976 16.0102 8.10366 15.984 8.10366C15.9579 8.10366 15.9321 8.0976 15.9087 8.08597C15.8853 8.07434 15.865 8.05744 15.8492 8.03661L12.4709 3.57489C12.4522 3.54964 12.4409 3.51968 12.4383 3.48837C12.4357 3.45707 12.4419 3.42566 12.4561 3.39766C12.4704 3.36965 12.4921 3.34617 12.5189 3.32984C12.5458 3.3135 12.5766 3.30497 12.608 3.30518L19.3509 3.30975C19.3819 3.31037 19.4122 3.31952 19.4383 3.33619C19.4645 3.35285 19.4856 3.3764 19.4993 3.40425C19.513 3.4321 19.5187 3.46317 19.516 3.49408C19.5132 3.52498 19.5019 3.55452 19.4835 3.57947Z" fill="#FFFF94"/>
<path d="M8.85936 8.51197C8.67868 8.59931 8.5265 8.73589 8.42049 8.90582C8.31448 9.07576 8.259 9.27208 8.2605 9.47197L8.26507 11.9314C8.26537 12.0003 8.25125 12.0684 8.22363 12.1315C8.19601 12.1946 8.1555 12.2512 8.1047 12.2977C8.0539 12.3442 7.99393 12.3796 7.92865 12.4015C7.86337 12.4235 7.79422 12.4315 7.72565 12.4251L6.79765 12.3337C6.45326 12.3002 6.28565 12.1082 6.29479 11.7577C6.31307 11.2304 6.31612 10.6941 6.30393 10.1485C6.2765 8.7634 7.12679 7.20454 8.37479 6.7474C9.17326 6.45178 10.1912 6.34359 11.4285 6.42283C11.5147 6.42744 11.596 6.46483 11.6562 6.52754C11.7164 6.59025 11.751 6.67366 11.7531 6.76111L11.7759 8.08683C11.779 8.25445 11.6967 8.34131 11.5291 8.3474C10.7428 8.36569 9.56336 8.17369 8.85936 8.51197Z" fill="#FFFF94"/>
<path d="M25.7144 12.096C25.6991 12.1835 25.6528 12.2626 25.5839 12.3189C25.5151 12.3751 25.4284 12.4047 25.3395 12.4023L24.055 12.3611C24.0005 12.359 23.9471 12.3456 23.8983 12.3218C23.8494 12.298 23.806 12.2644 23.7711 12.223C23.7362 12.1816 23.7105 12.1334 23.6956 12.0816C23.6807 12.0298 23.677 11.9755 23.6847 11.9223C24.0565 9.31351 23.514 8.10665 22.0572 8.3017C21.5391 8.3718 21.018 8.37941 20.4938 8.32456C20.3049 8.30627 20.2134 8.20265 20.2195 8.0137L20.2424 6.84341C20.2434 6.73676 20.2853 6.63431 20.3598 6.55641C20.4343 6.47851 20.536 6.43083 20.6447 6.42284C22.6927 6.29484 24.6172 6.56913 25.431 8.63084C25.8424 9.68532 25.9369 10.8404 25.7144 12.096Z" fill="#FFFF94"/>
<path d="M16 18.1394C17.1639 18.1394 18.1074 17.1959 18.1074 16.032C18.1074 14.8681 17.1639 13.9246 16 13.9246C14.8361 13.9246 13.8926 14.8681 13.8926 16.032C13.8926 17.1959 14.8361 18.1394 16 18.1394Z" fill="#FFFF94"/>
<path d="M6.41823 23.0263C6.21099 22.3771 6.17442 21.7295 6.30851 21.0834C6.34508 20.8975 6.45937 20.8046 6.65137 20.8046L7.7668 20.7954C8.19956 20.7893 8.37785 20.9996 8.30166 21.4263C7.77137 24.3566 9.79651 23.6343 11.5245 23.7348C11.6952 23.744 11.779 23.8339 11.7759 24.0046L11.7439 25.3531C11.7434 25.3989 11.7336 25.4442 11.7153 25.4862C11.6969 25.5281 11.6703 25.566 11.6371 25.5976C11.6038 25.6291 11.5646 25.6537 11.5217 25.6698C11.4788 25.6859 11.4332 25.6933 11.3874 25.6914C9.1108 25.5954 7.24566 25.6183 6.41823 23.0263Z" fill="#FFFF94"/>
<path d="M25.8194 21.376C25.6975 23.5703 24.9082 24.8975 23.4514 25.3577C22.6895 25.5985 21.7417 25.6899 20.608 25.632C20.5198 25.6286 20.4363 25.5917 20.3743 25.5288C20.3123 25.466 20.2765 25.382 20.2743 25.2937L20.2286 24.0046C20.2225 23.8278 20.3078 23.7364 20.4846 23.7303C22.2949 23.6709 24.0869 24.3886 23.7029 21.3806C23.6511 20.9874 23.8217 20.7924 24.2149 20.7954L25.2754 20.8C25.6594 20.8 25.8408 20.992 25.8194 21.376Z" fill="#FFFF94"/>
<path d="M12.5304 28.4663L15.8675 24.0274C15.8816 24.0094 15.8997 23.9948 15.9203 23.9847C15.9409 23.9747 15.9635 23.9695 15.9864 23.9695C16.0093 23.9695 16.0319 23.9747 16.0525 23.9847C16.0731 23.9948 16.0911 24.0094 16.1052 24.0274L19.4424 28.4663C19.4594 28.4886 19.4698 28.5152 19.4725 28.543C19.4753 28.5709 19.4702 28.599 19.4578 28.6242C19.4455 28.6493 19.4264 28.6705 19.4027 28.6855C19.3789 28.7004 19.3515 28.7084 19.3235 28.7086H12.6492C12.6212 28.7084 12.5938 28.7004 12.5701 28.6855C12.5464 28.6705 12.5273 28.6493 12.5149 28.6242C12.5026 28.599 12.4975 28.5709 12.5002 28.543C12.503 28.5152 12.5134 28.4886 12.5304 28.4663Z" fill="#FFFF94"/>
</svg>
