<svg width="32" height="32" viewBox="0 0 32 32" fill="none" xmlns="http://www.w3.org/2000/svg">
<path d="M8.50745 9.19776C9.64863 9.19776 10.5737 8.27265 10.5737 7.13147C10.5737 5.99029 9.64863 5.06519 8.50745 5.06519C7.36627 5.06519 6.44116 5.99029 6.44116 7.13147C6.44116 8.27265 7.36627 9.19776 8.50745 9.19776Z" fill="#94FF94"/>
<path d="M23.9361 10.2125L20.7864 13.2708C20.7612 13.2948 20.7315 13.3136 20.699 13.3262C20.6665 13.3387 20.6319 13.3447 20.5971 13.3439C20.5623 13.343 20.528 13.3353 20.4961 13.3212C20.4643 13.3071 20.4356 13.2869 20.4115 13.2617L19.4835 12.2788C19.435 12.2279 19.4088 12.1598 19.4105 12.0895C19.4122 12.0192 19.4418 11.9524 19.4927 11.9039L24.0093 7.59309C24.0348 7.56937 24.0647 7.5509 24.0973 7.53875C24.13 7.5266 24.1647 7.521 24.1995 7.52227C24.2343 7.52355 24.2686 7.53167 24.3002 7.54617C24.3319 7.56068 24.3604 7.58128 24.3841 7.6068L28.6081 12.1051C28.6325 12.1307 28.6516 12.1609 28.6642 12.194C28.6767 12.2271 28.6825 12.2623 28.6812 12.2977C28.68 12.3331 28.6716 12.3678 28.6567 12.3999C28.6418 12.432 28.6206 12.4607 28.5944 12.4845L27.6253 13.3759C27.574 13.4225 27.5065 13.4471 27.4373 13.4445C27.3681 13.4419 27.3027 13.4124 27.255 13.3622L24.311 10.2217C24.2625 10.1707 24.1957 10.1412 24.1254 10.1395C24.0551 10.1377 23.987 10.164 23.9361 10.2125Z" fill="#94FF94"/>
<path d="M9.91093 14.8846L10.0572 18.6194C10.0581 18.654 10.0668 18.688 10.0827 18.7187C10.0986 18.7494 10.1213 18.7761 10.149 18.7968C10.1768 18.8175 10.2088 18.8316 10.2428 18.8381C10.2768 18.8446 10.3118 18.8433 10.3452 18.8343C11.7258 18.4808 13.1902 18.1227 14.7384 17.76C15.5566 17.5726 16.4664 17.8789 16.4938 18.8343C16.5486 20.9036 16.5471 22.8389 16.4892 24.64C16.4648 25.3836 16.0824 25.7996 15.3418 25.888C15.2321 25.9002 15.1269 25.8819 15.0264 25.8331C14.4595 25.5589 14.1776 25.1383 14.1806 24.5714L14.1989 20.7726C14.1992 20.7148 14.1863 20.6577 14.1612 20.6057C14.1361 20.5536 14.0995 20.508 14.0541 20.4723C14.0086 20.4366 13.9557 20.4117 13.8992 20.3996C13.8427 20.3874 13.7842 20.3884 13.7281 20.4023C12.3384 20.7528 10.9654 21.0743 9.60922 21.3669C7.59779 21.7996 6.53112 21.0072 6.40922 18.9897C6.28731 16.9691 6.16998 14.813 6.05722 12.5211C5.95664 10.4366 8.20579 9.696 9.53607 11.2823C10.4626 12.3886 11.4027 13.4476 12.3566 14.4594C12.4454 14.5524 12.5536 14.6247 12.6737 14.6713C12.7938 14.7179 12.9227 14.7377 13.0515 14.7291L15.5658 14.5463C16.1265 14.5067 16.4877 14.7566 16.6492 15.296C16.7102 15.5002 16.6843 15.7151 16.5715 15.9406C16.528 16.0308 16.4628 16.1092 16.3815 16.1689C16.3003 16.2287 16.2055 16.268 16.1052 16.2834C15.3281 16.4084 14.2645 16.5272 12.9144 16.64C11.2595 16.7726 11.1132 15.7166 10.1715 14.7703C9.98864 14.5874 9.90179 14.6255 9.91093 14.8846Z" fill="#94FF94"/>
<path d="M24.3064 20.8091L27.2687 17.5771C27.2903 17.5537 27.3163 17.5347 27.3452 17.5213C27.3741 17.5079 27.4054 17.5004 27.4373 17.4991C27.4691 17.4978 27.5009 17.5028 27.5308 17.5139C27.5607 17.5249 27.5881 17.5417 27.6115 17.5634L28.6127 18.4868C28.6358 18.5087 28.6544 18.535 28.6674 18.564C28.6804 18.5931 28.6875 18.6245 28.6883 18.6563C28.6892 18.6882 28.6838 18.7199 28.6723 18.7496C28.6609 18.7794 28.6438 18.8066 28.6218 18.8297L24.3658 23.36C24.3439 23.3838 24.3173 23.403 24.2878 23.4164C24.2583 23.4298 24.2264 23.4371 24.194 23.438C24.1616 23.4388 24.1294 23.4332 24.0992 23.4213C24.0691 23.4095 24.0416 23.3917 24.0184 23.3691L19.4744 19.0491C19.4284 19.0057 19.4012 18.946 19.3986 18.8828C19.3961 18.8195 19.4183 18.7578 19.4607 18.7108L20.4161 17.6777C20.4381 17.6538 20.4646 17.6347 20.4941 17.6213C20.5236 17.6079 20.5555 17.6005 20.5879 17.5997C20.6203 17.5988 20.6525 17.6045 20.6827 17.6163C20.7129 17.6281 20.7403 17.6459 20.7635 17.6685L23.959 20.8182C23.9821 20.8409 24.0096 20.8586 24.0398 20.8705C24.07 20.8823 24.1022 20.888 24.1346 20.8871C24.167 20.8862 24.1989 20.8789 24.2284 20.8655C24.2579 20.8521 24.2844 20.8329 24.3064 20.8091Z" fill="#94FF94"/>
<path d="M7.99546 23.9452L7.5886 22.5463C7.57641 22.5097 7.59013 22.4914 7.62975 22.4914L9.69146 22.4823C9.75851 22.4823 9.80118 22.5158 9.81946 22.5829L10.5006 25.1154C10.5377 25.2534 10.5433 25.3978 10.5172 25.5382C10.4911 25.6786 10.4338 25.8114 10.3496 25.9267C10.2654 26.0421 10.1564 26.1371 10.0306 26.2047C9.90487 26.2724 9.76554 26.311 9.62289 26.3177L4.47089 26.5646C3.77908 26.5981 3.37679 26.272 3.26403 25.5863C3.24575 25.4827 3.25641 25.3775 3.29603 25.2709C3.48499 24.7619 3.84918 24.4968 4.3886 24.4754L7.7166 24.3292C7.9726 24.32 8.06556 24.192 7.99546 23.9452Z" fill="#94FF94"/>
</svg>
