<?xml version="1.0" encoding="UTF-8" standalone="no"?>
<!DOCTYPE svg PUBLIC "-//W3C//DTD SVG 1.1//EN" "http://www.w3.org/Graphics/SVG/1.1/DTD/svg11.dtd">
<svg xmlns="http://www.w3.org/2000/svg" version="1.1" viewBox="0.00 0.00 70.00 70.00">
<g stroke-width="2.00" fill="none" stroke-linecap="butt">
<path stroke="#575c63" vector-effect="non-scaling-stroke" d="
  M 23.13 15.60
  A 4.52 4.52 0.0 0 0 18.61 11.08
  A 4.52 4.52 0.0 0 0 14.09 15.60
  A 4.52 4.52 0.0 0 0 18.61 20.12
  A 4.52 4.52 0.0 0 0 23.13 15.60"
/>
<path stroke="#575c63" vector-effect="non-scaling-stroke" d="
  M 52.36 22.34
  A 0.58 0.58 0.0 0 1 53.18 22.36
  L 59.62 29.23
  A 0.58 0.58 0.0 0 0 60.43 29.26
  L 62.55 27.31
  A 0.58 0.58 0.0 0 0 62.58 26.48
  L 53.34 16.64
  A 0.58 0.58 0.0 0 0 52.52 16.61
  L 42.64 26.04
  A 0.58 0.58 0.0 0 0 42.62 26.86
  L 44.65 29.01
  A 0.58 0.58 0.0 0 0 45.47 29.03
  L 52.36 22.34"
/>
<path stroke="#575c63" vector-effect="non-scaling-stroke" d="
  M 22.25 32.31
  C 24.31 34.38 24.63 36.69 28.25 36.40
  Q 32.68 36.03 35.23 35.62
  A 1.37 1.35 8.3 0 0 36.25 34.87
  Q 36.62 34.13 36.42 33.46
  Q 35.89 31.69 34.05 31.82
  L 28.55 32.22
  A 1.93 1.92 -23.6 0 1 27.03 31.63
  Q 23.90 28.31 20.86 24.68
  C 17.95 21.21 13.03 22.83 13.25 27.39
  Q 13.62 34.91 14.02 41.54
  Q 14.42 48.16 21.02 46.74
  Q 25.47 45.78 30.03 44.63
  A 0.83 0.83 0.0 0 1 31.06 45.44
  L 31.02 53.75
  Q 31.01 55.61 32.87 56.51
  Q 33.20 56.67 33.56 56.63
  Q 35.99 56.34 36.07 53.90
  Q 36.26 47.99 36.08 41.20
  C 36.02 39.11 34.03 38.44 32.24 38.85
  Q 27.16 40.04 22.63 41.20
  A 0.50 0.50 0.0 0 1 22.00 40.73
  L 21.68 32.56
  Q 21.65 31.71 22.25 32.31"
/>
<path stroke="#575c63" vector-effect="non-scaling-stroke" d="
  M 53.17 45.52
  A 0.53 0.53 0.0 0 1 52.41 45.54
  L 45.42 38.65
  A 0.53 0.53 0.0 0 0 44.66 38.67
  L 42.57 40.93
  A 0.53 0.53 0.0 0 0 42.60 41.67
  L 52.54 51.12
  A 0.53 0.53 0.0 0 0 53.30 51.10
  L 62.61 41.19
  A 0.53 0.53 0.0 0 0 62.59 40.44
  L 60.40 38.42
  A 0.53 0.53 0.0 0 0 59.65 38.45
  L 53.17 45.52"
/>
<path stroke="#575c63" vector-effect="non-scaling-stroke" d="
  M 16.88 53.22
  L 9.60 53.54
  Q 7.83 53.61 7.21 55.28
  Q 7.08 55.63 7.14 55.97
  Q 7.51 58.22 9.78 58.11
  L 21.05 57.57
  A 2.09 2.09 0.0 0 0 22.97 54.94
  L 21.48 49.40
  Q 21.42 49.18 21.20 49.18
  L 16.69 49.20
  Q 16.56 49.20 16.60 49.32
  L 17.49 52.38
  Q 17.72 53.19 16.88 53.22"
/>
</g>
<path fill="#2f353e" d="
  M 0.00 0.00
  L 70.00 0.00
  L 70.00 70.00
  L 0.00 70.00
  L 0.00 0.00
  Z
  M 23.13 15.60
  A 4.52 4.52 0.0 0 0 18.61 11.08
  A 4.52 4.52 0.0 0 0 14.09 15.60
  A 4.52 4.52 0.0 0 0 18.61 20.12
  A 4.52 4.52 0.0 0 0 23.13 15.60
  Z
  M 52.36 22.34
  A 0.58 0.58 0.0 0 1 53.18 22.36
  L 59.62 29.23
  A 0.58 0.58 0.0 0 0 60.43 29.26
  L 62.55 27.31
  A 0.58 0.58 0.0 0 0 62.58 26.48
  L 53.34 16.64
  A 0.58 0.58 0.0 0 0 52.52 16.61
  L 42.64 26.04
  A 0.58 0.58 0.0 0 0 42.62 26.86
  L 44.65 29.01
  A 0.58 0.58 0.0 0 0 45.47 29.03
  L 52.36 22.34
  Z
  M 22.25 32.31
  C 24.31 34.38 24.63 36.69 28.25 36.40
  Q 32.68 36.03 35.23 35.62
  A 1.37 1.35 8.3 0 0 36.25 34.87
  Q 36.62 34.13 36.42 33.46
  Q 35.89 31.69 34.05 31.82
  L 28.55 32.22
  A 1.93 1.92 -23.6 0 1 27.03 31.63
  Q 23.90 28.31 20.86 24.68
  C 17.95 21.21 13.03 22.83 13.25 27.39
  Q 13.62 34.91 14.02 41.54
  Q 14.42 48.16 21.02 46.74
  Q 25.47 45.78 30.03 44.63
  A 0.83 0.83 0.0 0 1 31.06 45.44
  L 31.02 53.75
  Q 31.01 55.61 32.87 56.51
  Q 33.20 56.67 33.56 56.63
  Q 35.99 56.34 36.07 53.90
  Q 36.26 47.99 36.08 41.20
  C 36.02 39.11 34.03 38.44 32.24 38.85
  Q 27.16 40.04 22.63 41.20
  A 0.50 0.50 0.0 0 1 22.00 40.73
  L 21.68 32.56
  Q 21.65 31.71 22.25 32.31
  Z
  M 53.17 45.52
  A 0.53 0.53 0.0 0 1 52.41 45.54
  L 45.42 38.65
  A 0.53 0.53 0.0 0 0 44.66 38.67
  L 42.57 40.93
  A 0.53 0.53 0.0 0 0 42.60 41.67
  L 52.54 51.12
  A 0.53 0.53 0.0 0 0 53.30 51.10
  L 62.61 41.19
  A 0.53 0.53 0.0 0 0 62.59 40.44
  L 60.40 38.42
  A 0.53 0.53 0.0 0 0 59.65 38.45
  L 53.17 45.52
  Z
  M 16.88 53.22
  L 9.60 53.54
  Q 7.83 53.61 7.21 55.28
  Q 7.08 55.63 7.14 55.97
  Q 7.51 58.22 9.78 58.11
  L 21.05 57.57
  A 2.09 2.09 0.0 0 0 22.97 54.94
  L 21.48 49.40
  Q 21.42 49.18 21.20 49.18
  L 16.69 49.20
  Q 16.56 49.20 16.60 49.32
  L 17.49 52.38
  Q 17.72 53.19 16.88 53.22
  Z"
/>
<g fill="#94ff94">
<circle cx="18.61" cy="15.60" r="4.52"/>
<path d="
  M 52.36 22.34
  L 45.47 29.03
  A 0.58 0.58 0.0 0 1 44.65 29.01
  L 42.62 26.86
  A 0.58 0.58 0.0 0 1 42.64 26.04
  L 52.52 16.61
  A 0.58 0.58 0.0 0 1 53.34 16.64
  L 62.58 26.48
  A 0.58 0.58 0.0 0 1 62.55 27.31
  L 60.43 29.26
  A 0.58 0.58 0.0 0 1 59.62 29.23
  L 53.18 22.36
  A 0.58 0.58 0.0 0 0 52.36 22.34
  Z"
/>
<path d="
  M 21.68 32.56
  L 22.00 40.73
  A 0.50 0.50 0.0 0 0 22.63 41.20
  Q 27.16 40.04 32.24 38.85
  C 34.03 38.44 36.02 39.11 36.08 41.20
  Q 36.26 47.99 36.07 53.90
  Q 35.99 56.34 33.56 56.63
  Q 33.20 56.67 32.87 56.51
  Q 31.01 55.61 31.02 53.75
  L 31.06 45.44
  A 0.83 0.83 0.0 0 0 30.03 44.63
  Q 25.47 45.78 21.02 46.74
  Q 14.42 48.16 14.02 41.54
  Q 13.62 34.91 13.25 27.39
  C 13.03 22.83 17.95 21.21 20.86 24.68
  Q 23.90 28.31 27.03 31.63
  A 1.93 1.92 -23.6 0 0 28.55 32.22
  L 34.05 31.82
  Q 35.89 31.69 36.42 33.46
  Q 36.62 34.13 36.25 34.87
  A 1.37 1.35 8.3 0 1 35.23 35.62
  Q 32.68 36.03 28.25 36.40
  C 24.63 36.69 24.31 34.38 22.25 32.31
  Q 21.65 31.71 21.68 32.56
  Z"
/>
<path d="
  M 53.17 45.52
  L 59.65 38.45
  A 0.53 0.53 0.0 0 1 60.40 38.42
  L 62.59 40.44
  A 0.53 0.53 0.0 0 1 62.61 41.19
  L 53.30 51.10
  A 0.53 0.53 0.0 0 1 52.54 51.12
  L 42.60 41.67
  A 0.53 0.53 0.0 0 1 42.57 40.93
  L 44.66 38.67
  A 0.53 0.53 0.0 0 1 45.42 38.65
  L 52.41 45.54
  A 0.53 0.53 0.0 0 0 53.17 45.52
  Z"
/>
<path d="
  M 17.49 52.38
  L 16.60 49.32
  Q 16.56 49.20 16.69 49.20
  L 21.20 49.18
  Q 21.42 49.18 21.48 49.40
  L 22.97 54.94
  A 2.09 2.09 0.0 0 1 21.05 57.57
  L 9.78 58.11
  Q 7.51 58.22 7.14 55.97
  Q 7.08 55.63 7.21 55.28
  Q 7.83 53.61 9.60 53.54
  L 16.88 53.22
  Q 17.72 53.19 17.49 52.38
  Z"
/>
</g>
</svg>
