<?xml version="1.0" encoding="UTF-8" standalone="no"?>
<!DOCTYPE svg PUBLIC "-//W3C//DTD SVG 1.1//EN" "http://www.w3.org/Graphics/SVG/1.1/DTD/svg11.dtd">
<svg xmlns="http://www.w3.org/2000/svg" version="1.1" viewBox="0.00 0.00 70.00 70.00">
<g stroke-width="2.00" fill="none" stroke-linecap="butt">
<path stroke="#575c63" vector-effect="non-scaling-stroke" d="
  M 49.87 21.05
  A 0.92 0.92 0.0 0 1 48.69 21.35
  L 45.57 19.76
  A 1.80 1.80 0.0 0 0 43.60 19.98
  L 43.24 20.29
  Q 42.33 21.05 43.37 21.61
  Q 44.66 22.31 45.76 23.12
  Q 46.28 23.51 46.32 24.17
  Q 46.35 24.75 45.72 25.08
  A 0.77 0.77 0.0 0 1 44.97 25.06
  L 41.04 22.73
  Q 40.60 22.47 40.20 22.78
  Q 38.82 23.83 38.25 23.91
  Q 32.52 24.75 29.36 23.30
  Q 25.79 21.67 21.71 19.57
  C 19.23 18.30 16.86 19.53 15.56 21.77
  Q 15.26 22.28 15.58 22.77
  Q 17.18 25.27 19.42 27.23
  Q 28.00 34.78 37.17 36.64
  C 41.47 37.52 45.19 39.25 49.08 40.94
  Q 51.45 41.96 52.98 39.87
  Q 54.02 38.44 54.98 36.70
  Q 55.79 35.23 54.27 34.52
  Q 49.48 32.29 44.69 34.58
  A 1.00 0.98 -52.1 0 1 44.11 34.66
  Q 42.44 34.36 43.45 33.21
  Q 43.85 32.74 44.43 32.49
  Q 49.46 30.32 54.96 32.59
  A 0.97 0.96 -61.9 0 0 56.12 32.23
  L 62.45 22.62
  A 0.89 0.88 38.6 0 0 62.32 21.50
  C 61.11 20.35 59.32 18.62 57.55 18.64
  C 53.98 18.69 52.68 17.66 50.01 15.62
  Q 49.22 15.02 48.51 15.70
  L 47.10 17.05
  Q 46.26 17.85 47.35 18.24
  Q 48.72 18.73 49.72 19.60
  Q 50.44 20.23 49.87 21.05"
/>
<path stroke="#575c63" vector-effect="non-scaling-stroke" d="
  M 39.19 41.80
  Q 39.43 42.51 38.98 43.16
  Q 38.59 43.72 39.18 44.05
  Q 42.89 46.16 46.50 47.56
  Q 48.37 48.29 49.44 46.59
  L 51.48 43.34
  A 0.71 0.71 0.0 0 0 50.78 42.26
  C 49.74 42.39 48.71 42.36 47.73 41.93
  C 44.51 40.55 41.46 38.99 37.94 38.32
  Q 23.45 35.56 14.42 23.82
  Q 13.41 22.50 12.50 23.90
  L 12.31 24.20
  Q 11.42 25.57 12.55 26.76
  Q 19.00 33.48 27.53 38.81
  C 31.02 41.00 34.55 40.93 38.41 41.20
  A 0.89 0.89 0.0 0 1 39.19 41.80"
/>
<path stroke="#575c63" vector-effect="non-scaling-stroke" d="
  M 16.45 40.47
  A 0.58 0.58 0.0 0 1 16.44 41.30
  L 7.45 49.72
  A 0.58 0.58 0.0 0 0 7.27 50.14
  L 7.23 53.90
  A 0.58 0.58 0.0 0 0 7.81 54.49
  L 56.10 54.53
  A 0.58 0.58 0.0 0 0 56.68 53.94
  L 56.63 50.33
  A 0.58 0.58 0.0 0 0 56.05 49.76
  L 31.18 49.80
  A 0.58 0.58 0.0 0 1 30.76 49.62
  L 10.41 28.56
  A 0.58 0.58 0.0 0 0 9.57 28.56
  L 7.56 30.63
  A 0.58 0.58 0.0 0 0 7.56 31.44
  L 16.45 40.47"
/>
<path stroke="#575c63" vector-effect="non-scaling-stroke" d="
  M 12.52 49.22
  A 0.37 0.37 0.0 0 0 12.78 49.86
  L 24.76 49.89
  A 0.37 0.37 0.0 0 0 25.03 49.26
  L 19.31 43.38
  A 0.37 0.37 0.0 0 0 18.79 43.37
  L 12.52 49.22"
/>
</g>
<g fill="#2f353e">
<path d="
  M 0.00 0.00
  L 70.00 0.00
  L 70.00 70.00
  L 0.00 70.00
  L 0.00 0.00
  Z
  M 49.87 21.05
  A 0.92 0.92 0.0 0 1 48.69 21.35
  L 45.57 19.76
  A 1.80 1.80 0.0 0 0 43.60 19.98
  L 43.24 20.29
  Q 42.33 21.05 43.37 21.61
  Q 44.66 22.31 45.76 23.12
  Q 46.28 23.51 46.32 24.17
  Q 46.35 24.75 45.72 25.08
  A 0.77 0.77 0.0 0 1 44.97 25.06
  L 41.04 22.73
  Q 40.60 22.47 40.20 22.78
  Q 38.82 23.83 38.25 23.91
  Q 32.52 24.75 29.36 23.30
  Q 25.79 21.67 21.71 19.57
  C 19.23 18.30 16.86 19.53 15.56 21.77
  Q 15.26 22.28 15.58 22.77
  Q 17.18 25.27 19.42 27.23
  Q 28.00 34.78 37.17 36.64
  C 41.47 37.52 45.19 39.25 49.08 40.94
  Q 51.45 41.96 52.98 39.87
  Q 54.02 38.44 54.98 36.70
  Q 55.79 35.23 54.27 34.52
  Q 49.48 32.29 44.69 34.58
  A 1.00 0.98 -52.1 0 1 44.11 34.66
  Q 42.44 34.36 43.45 33.21
  Q 43.85 32.74 44.43 32.49
  Q 49.46 30.32 54.96 32.59
  A 0.97 0.96 -61.9 0 0 56.12 32.23
  L 62.45 22.62
  A 0.89 0.88 38.6 0 0 62.32 21.50
  C 61.11 20.35 59.32 18.62 57.55 18.64
  C 53.98 18.69 52.68 17.66 50.01 15.62
  Q 49.22 15.02 48.51 15.70
  L 47.10 17.05
  Q 46.26 17.85 47.35 18.24
  Q 48.72 18.73 49.72 19.60
  Q 50.44 20.23 49.87 21.05
  Z
  M 39.19 41.80
  Q 39.43 42.51 38.98 43.16
  Q 38.59 43.72 39.18 44.05
  Q 42.89 46.16 46.50 47.56
  Q 48.37 48.29 49.44 46.59
  L 51.48 43.34
  A 0.71 0.71 0.0 0 0 50.78 42.26
  C 49.74 42.39 48.71 42.36 47.73 41.93
  C 44.51 40.55 41.46 38.99 37.94 38.32
  Q 23.45 35.56 14.42 23.82
  Q 13.41 22.50 12.50 23.90
  L 12.31 24.20
  Q 11.42 25.57 12.55 26.76
  Q 19.00 33.48 27.53 38.81
  C 31.02 41.00 34.55 40.93 38.41 41.20
  A 0.89 0.89 0.0 0 1 39.19 41.80
  Z
  M 16.45 40.47
  A 0.58 0.58 0.0 0 1 16.44 41.30
  L 7.45 49.72
  A 0.58 0.58 0.0 0 0 7.27 50.14
  L 7.23 53.90
  A 0.58 0.58 0.0 0 0 7.81 54.49
  L 56.10 54.53
  A 0.58 0.58 0.0 0 0 56.68 53.94
  L 56.63 50.33
  A 0.58 0.58 0.0 0 0 56.05 49.76
  L 31.18 49.80
  A 0.58 0.58 0.0 0 1 30.76 49.62
  L 10.41 28.56
  A 0.58 0.58 0.0 0 0 9.57 28.56
  L 7.56 30.63
  A 0.58 0.58 0.0 0 0 7.56 31.44
  L 16.45 40.47
  Z"
/>
<path d="
  M 12.52 49.22
  L 18.79 43.37
  A 0.37 0.37 0.0 0 1 19.31 43.38
  L 25.03 49.26
  A 0.37 0.37 0.0 0 1 24.76 49.89
  L 12.78 49.86
  A 0.37 0.37 0.0 0 1 12.52 49.22
  Z"
/>
</g>
<g fill="#94ff94">
<path d="
  M 49.87 21.05
  Q 50.44 20.23 49.72 19.60
  Q 48.72 18.73 47.35 18.24
  Q 46.26 17.85 47.10 17.05
  L 48.51 15.70
  Q 49.22 15.02 50.01 15.62
  C 52.68 17.66 53.98 18.69 57.55 18.64
  C 59.32 18.62 61.11 20.35 62.32 21.50
  A 0.89 0.88 38.6 0 1 62.45 22.62
  L 56.12 32.23
  A 0.97 0.96 -61.9 0 1 54.96 32.59
  Q 49.46 30.32 44.43 32.49
  Q 43.85 32.74 43.45 33.21
  Q 42.44 34.36 44.11 34.66
  A 1.00 0.98 -52.1 0 0 44.69 34.58
  Q 49.48 32.29 54.27 34.52
  Q 55.79 35.23 54.98 36.70
  Q 54.02 38.44 52.98 39.87
  Q 51.45 41.96 49.08 40.94
  C 45.19 39.25 41.47 37.52 37.17 36.64
  Q 28.00 34.78 19.42 27.23
  Q 17.18 25.27 15.58 22.77
  Q 15.26 22.28 15.56 21.77
  C 16.86 19.53 19.23 18.30 21.71 19.57
  Q 25.79 21.67 29.36 23.30
  Q 32.52 24.75 38.25 23.91
  Q 38.82 23.83 40.20 22.78
  Q 40.60 22.47 41.04 22.73
  L 44.97 25.06
  A 0.77 0.77 0.0 0 0 45.72 25.08
  Q 46.35 24.75 46.32 24.17
  Q 46.28 23.51 45.76 23.12
  Q 44.66 22.31 43.37 21.61
  Q 42.33 21.05 43.24 20.29
  L 43.60 19.98
  A 1.80 1.80 0.0 0 1 45.57 19.76
  L 48.69 21.35
  A 0.92 0.92 0.0 0 0 49.87 21.05
  Z"
/>
<path d="
  M 38.41 41.20
  C 34.55 40.93 31.02 41.00 27.53 38.81
  Q 19.00 33.48 12.55 26.76
  Q 11.42 25.57 12.31 24.20
  L 12.50 23.90
  Q 13.41 22.50 14.42 23.82
  Q 23.45 35.56 37.94 38.32
  C 41.46 38.99 44.51 40.55 47.73 41.93
  C 48.71 42.36 49.74 42.39 50.78 42.26
  A 0.71 0.71 0.0 0 1 51.48 43.34
  L 49.44 46.59
  Q 48.37 48.29 46.50 47.56
  Q 42.89 46.16 39.18 44.05
  Q 38.59 43.72 38.98 43.16
  Q 39.43 42.51 39.19 41.80
  A 0.89 0.89 0.0 0 0 38.41 41.20
  Z"
/>
<path d="
  M 16.45 40.47
  L 7.56 31.44
  A 0.58 0.58 0.0 0 1 7.56 30.63
  L 9.57 28.56
  A 0.58 0.58 0.0 0 1 10.41 28.56
  L 30.76 49.62
  A 0.58 0.58 0.0 0 0 31.18 49.80
  L 56.05 49.76
  A 0.58 0.58 0.0 0 1 56.63 50.33
  L 56.68 53.94
  A 0.58 0.58 0.0 0 1 56.10 54.53
  L 7.81 54.49
  A 0.58 0.58 0.0 0 1 7.23 53.90
  L 7.27 50.14
  A 0.58 0.58 0.0 0 1 7.45 49.72
  L 16.44 41.30
  A 0.58 0.58 0.0 0 0 16.45 40.47
  Z
  M 12.52 49.22
  A 0.37 0.37 0.0 0 0 12.78 49.86
  L 24.76 49.89
  A 0.37 0.37 0.0 0 0 25.03 49.26
  L 19.31 43.38
  A 0.37 0.37 0.0 0 0 18.79 43.37
  L 12.52 49.22
  Z"
/>
</g>
</svg>
