<svg width="32" height="32" viewBox="0 0 32 32" fill="none" xmlns="http://www.w3.org/2000/svg">
<path d="M22.7978 9.62282C22.9715 9.37292 22.9487 9.15196 22.7292 8.95996C22.4245 8.69482 22.0633 8.48758 21.6458 8.33825C21.3136 8.21939 21.2755 8.03806 21.5315 7.79425L22.1761 7.17711C22.3925 6.96987 22.621 6.95768 22.8618 7.14053C24.0824 8.07311 24.6767 8.54396 26.3087 8.52111C27.1178 8.51196 27.9361 9.30282 28.4892 9.82853C28.5572 9.89433 28.6003 9.98144 28.6112 10.0749C28.622 10.1683 28.5999 10.2623 28.5487 10.3405L25.6549 14.7337C25.5982 14.8179 25.5145 14.8802 25.418 14.9101C25.3214 14.9401 25.2179 14.9359 25.1247 14.8982C23.4485 14.2064 21.8439 14.1912 20.3109 14.8525C20.1342 14.9287 19.9849 15.0384 19.8629 15.1817C19.5551 15.5322 19.6557 15.7531 20.1647 15.8445C20.2542 15.8594 20.3466 15.8467 20.4298 15.808C21.8896 15.1101 23.3494 15.1009 24.8092 15.7805C25.2725 15.9969 25.3807 16.3291 25.1338 16.7771C24.8412 17.3074 24.5365 17.7904 24.2195 18.2262C23.7532 18.8632 23.1589 19.0262 22.4367 18.7154C20.6584 17.9428 18.9578 17.152 16.9921 16.7497C14.1974 16.1828 11.4927 14.7489 8.87781 12.448C8.19514 11.8506 7.61 11.171 7.12238 10.4091C7.02485 10.2598 7.02181 10.1074 7.11323 9.95196C7.70752 8.92796 8.79095 8.36568 9.92466 8.94625C11.1681 9.58625 12.3338 10.1546 13.4218 10.6514C14.3849 11.0933 15.7395 11.1862 17.4858 10.9302C17.6595 10.9059 17.9567 10.7337 18.3772 10.4137C18.4991 10.3192 18.6271 10.3116 18.7612 10.3908L20.5578 11.456C20.6094 11.4866 20.668 11.5035 20.728 11.5051C20.7881 11.5067 20.8475 11.4929 20.9007 11.4651C21.0927 11.3645 21.1841 11.2259 21.1749 11.0491C21.1628 10.848 21.0774 10.688 20.9189 10.5691C20.5837 10.3222 20.2195 10.0922 19.8264 9.87882C19.5094 9.70815 19.4896 9.50701 19.7669 9.27539L19.9315 9.13368C20.0553 9.03061 20.2066 8.96614 20.3667 8.94826C20.5268 8.93038 20.6886 8.95988 20.8321 9.03311L22.2584 9.75996C22.3496 9.80676 22.4547 9.81864 22.554 9.79339C22.6534 9.76814 22.74 9.70748 22.7978 9.62282Z" fill="#94FF94"/>
<path d="M17.5589 18.8343C15.7944 18.7109 14.1806 18.7429 12.5852 17.7417C9.9856 16.1173 7.70293 14.2812 5.73722 12.2332C5.39283 11.8705 5.35626 11.4804 5.6275 11.0629L5.71436 10.9257C5.99169 10.4991 6.28426 10.4869 6.59207 10.8892C9.34407 14.4671 12.9281 16.6766 17.3441 17.5177C18.9532 17.824 20.3475 18.5372 21.8195 19.168C22.2675 19.3646 22.7384 19.3783 23.2138 19.3189C23.275 19.3103 23.3373 19.3194 23.3935 19.3451C23.4498 19.3708 23.4975 19.4119 23.5311 19.4638C23.5647 19.5156 23.5828 19.576 23.5833 19.6378C23.5837 19.6996 23.5666 19.7602 23.5338 19.8126L22.6012 21.2983C22.2751 21.8164 21.8271 21.9642 21.2572 21.7417C20.157 21.3151 19.0416 20.7802 17.9109 20.1372C17.7311 20.0366 17.7006 19.901 17.8195 19.7303C17.9566 19.5322 17.9886 19.325 17.9155 19.1086C17.8896 19.0329 17.842 18.9665 17.7786 18.9177C17.7151 18.8689 17.6388 18.8399 17.5589 18.8343Z" fill="#94FF94"/>
<path d="M7.52007 18.5006L3.45607 14.3726C3.40777 14.3231 3.38073 14.2567 3.38073 14.1875C3.38073 14.1183 3.40777 14.0518 3.45607 14.0023L4.37493 13.056C4.39969 13.03 4.42948 13.0093 4.46248 12.9952C4.49549 12.981 4.53102 12.9738 4.56693 12.9738C4.60284 12.9738 4.63837 12.981 4.67137 12.9952C4.70438 13.0093 4.73417 13.03 4.75893 13.056L14.0618 22.6835C14.0866 22.7095 14.1163 22.7302 14.1493 22.7443C14.1823 22.7585 14.2179 22.7658 14.2538 22.7658L25.6229 22.7475C25.6925 22.7475 25.7592 22.7748 25.8088 22.8235C25.8584 22.8722 25.8869 22.9385 25.8881 23.008L25.9109 24.6583C25.9115 24.6935 25.9051 24.7285 25.8921 24.7612C25.879 24.7939 25.8596 24.8237 25.8349 24.8488C25.8102 24.8739 25.7808 24.8938 25.7483 24.9074C25.7158 24.921 25.681 24.928 25.6458 24.928L3.57036 24.9098C3.53515 24.9098 3.5003 24.9028 3.46783 24.8891C3.43535 24.8755 3.40592 24.8556 3.38124 24.8305C3.35656 24.8054 3.33712 24.7756 3.32407 24.7429C3.31102 24.7102 3.30461 24.6752 3.30522 24.64L3.3235 22.9212C3.3235 22.8853 3.33079 22.8497 3.34494 22.8167C3.35908 22.7837 3.37978 22.7539 3.40579 22.7292L7.5155 18.88C7.5411 18.8556 7.56156 18.8264 7.57567 18.794C7.58979 18.7616 7.59728 18.7266 7.59771 18.6913C7.59814 18.6559 7.59149 18.6209 7.57815 18.5881C7.56482 18.5554 7.54507 18.5256 7.52007 18.5006ZM5.7235 22.5006C5.69854 22.524 5.68125 22.5544 5.67391 22.5878C5.66657 22.6212 5.66954 22.656 5.68241 22.6877C5.69528 22.7194 5.71746 22.7465 5.74602 22.7653C5.77457 22.7841 5.80816 22.7938 5.84236 22.7932L11.3189 22.8069C11.3526 22.8075 11.3856 22.7981 11.4139 22.7798C11.4421 22.7616 11.4643 22.7353 11.4775 22.7044C11.4908 22.6735 11.4945 22.6393 11.4882 22.6063C11.482 22.5732 11.466 22.5428 11.4424 22.5189L8.8275 19.8309C8.79645 19.799 8.75408 19.7807 8.70958 19.7798C8.66508 19.7789 8.62204 19.7957 8.58979 19.8263L5.7235 22.5006Z" fill="#94FF94"/>
</svg>
