<?xml version="1.0" encoding="UTF-8" standalone="no"?>
<!DOCTYPE svg PUBLIC "-//W3C//DTD SVG 1.1//EN" "http://www.w3.org/Graphics/SVG/1.1/DTD/svg11.dtd">
<svg xmlns="http://www.w3.org/2000/svg" version="1.1" viewBox="0.00 0.00 70.00 70.00">
<g stroke-width="2.00" fill="none" stroke-linecap="butt">
<path stroke="#629a69" vector-effect="non-scaling-stroke" d="
  M 34.6024 11.9720
  A 2.07 2.07 0.0 0 0 32.5360 9.8984
  L 22.9360 9.8816
  A 2.07 2.07 0.0 0 0 20.8624 11.9480
  L 20.8576 14.7080
  A 2.07 2.07 0.0 0 0 22.9240 16.7816
  L 32.5240 16.7984
  A 2.07 2.07 0.0 0 0 34.5976 14.7320
  L 34.6024 11.9720"
/>
<path stroke="#629a69" vector-effect="non-scaling-stroke" d="
  M 14.05 46.01
  A 0.34 0.34 0.0 0 0 14.20 46.32
  L 18.03 48.95
  A 0.34 0.34 0.0 0 0 18.56 48.67
  L 18.62 19.31
  A 0.34 0.34 0.0 0 0 18.28 18.97
  L 17.25 18.95
  A 0.34 0.34 0.0 0 0 16.91 19.26
  L 14.05 46.01"
/>
<path stroke="#629a69" vector-effect="non-scaling-stroke" d="
  M 52.43 24.49
  A 0.57 0.57 0.0 0 1 53.25 24.51
  L 59.70 31.51
  A 0.57 0.57 0.0 0 0 60.51 31.54
  L 62.60 29.56
  A 0.57 0.57 0.0 0 0 62.63 28.76
  L 53.35 18.94
  A 0.57 0.57 0.0 0 0 52.55 18.92
  L 42.74 28.34
  A 0.57 0.57 0.0 0 0 42.72 29.14
  L 44.71 31.24
  A 0.57 0.57 0.0 0 0 45.52 31.25
  L 52.43 24.49"
/>
<path stroke="#629a69" vector-effect="non-scaling-stroke" d="
  M 34.5720 19.7218
  A 0.48 0.48 0.0 0 0 34.0971 19.2368
  L 21.3778 19.1036
  A 0.48 0.48 0.0 0 0 20.8928 19.5786
  L 20.8080 27.6782
  A 0.48 0.48 0.0 0 0 21.2829 28.1632
  L 34.0022 28.2964
  A 0.48 0.48 0.0 0 0 34.4872 27.8214
  L 34.5720 19.7218"
/>
<path stroke="#629a69" vector-effect="non-scaling-stroke" d="
  M 36.90 19.85
  L 36.89 47.52
  A 1.27 1.27 0.0 0 0 38.78 48.63
  Q 40.05 47.91 40.95 46.69
  Q 41.22 46.33 40.97 45.95
  L 39.94 44.37
  Q 39.62 43.88 39.84 43.34
  C 40.30 42.19 40.93 41.21 40.79 39.89
  Q 39.78 29.97 39.08 19.83
  Q 39.03 19.22 38.43 19.22
  L 37.53 19.22
  A 0.64 0.63 -0.5 0 0 36.90 19.85"
/>
<path stroke="#629a69" vector-effect="non-scaling-stroke" d="
  M 34.5352 31.1781
  A 0.64 0.64 0.0 0 0 33.8941 30.5392
  L 21.5341 30.5608
  A 0.64 0.64 0.0 0 0 20.8953 31.2019
  L 20.9248 48.1019
  A 0.64 0.64 0.0 0 0 21.5659 48.7408
  L 33.9259 48.7192
  A 0.64 0.64 0.0 0 0 34.5647 48.0781
  L 34.5352 31.1781"
/>
<path stroke="#629a69" vector-effect="non-scaling-stroke" d="
  M 53.19 47.83
  A 0.48 0.48 0.0 0 1 52.51 47.85
  L 45.42 41.01
  A 0.48 0.48 0.0 0 0 44.73 41.03
  L 42.68 43.28
  A 0.48 0.48 0.0 0 0 42.70 43.95
  L 52.67 53.47
  A 0.48 0.48 0.0 0 0 53.35 53.45
  L 62.71 43.43
  A 0.48 0.48 0.0 0 0 62.67 42.74
  L 60.42 40.72
  A 0.48 0.48 0.0 0 0 59.75 40.76
  L 53.19 47.83"
/>
<path stroke="#629a69" vector-effect="non-scaling-stroke" d="
  M 9.39 57.84
  C 10.86 60.71 12.77 60.34 15.56 60.21
  Q 16.24 60.18 16.24 59.50
  L 16.25 51.98
  A 1.07 1.04 -73.5 0 0 15.79 51.10
  C 13.80 49.75 12.73 47.79 10.03 47.85
  C 5.12 47.97 8.16 55.45 9.39 57.84"
/>
<path stroke="#629a69" vector-effect="non-scaling-stroke" d="
  M 39.59 59.97
  C 45.48 61.42 46.75 57.67 47.83 53.31
  A 1.36 1.36 0.0 0 0 47.46 52.02
  L 43.84 48.47
  A 0.84 0.84 0.0 0 0 42.63 48.50
  Q 41.27 49.99 39.70 51.01
  Q 39.18 51.35 39.19 51.97
  L 39.21 59.48
  A 0.51 0.51 0.0 0 0 39.59 59.97"
/>
<path stroke="#629a69" vector-effect="non-scaling-stroke" d="
  M 36.9200 51.8019
  A 0.77 0.77 0.0 0 0 36.1460 51.0359
  L 19.2862 51.1242
  A 0.77 0.77 0.0 0 0 18.5203 51.8982
  L 18.5600 59.4781
  A 0.77 0.77 0.0 0 0 19.3340 60.2441
  L 36.1938 60.1558
  A 0.77 0.77 0.0 0 0 36.9597 59.3818
  L 36.9200 51.8019"
/>
</g>
<path fill="#2f353e" d="
  M 0.00 0.00
  L 70.00 0.00
  L 70.00 70.00
  L 0.00 70.00
  L 0.00 0.00
  Z
  M 34.6024 11.9720
  A 2.07 2.07 0.0 0 0 32.5360 9.8984
  L 22.9360 9.8816
  A 2.07 2.07 0.0 0 0 20.8624 11.9480
  L 20.8576 14.7080
  A 2.07 2.07 0.0 0 0 22.9240 16.7816
  L 32.5240 16.7984
  A 2.07 2.07 0.0 0 0 34.5976 14.7320
  L 34.6024 11.9720
  Z
  M 14.05 46.01
  A 0.34 0.34 0.0 0 0 14.20 46.32
  L 18.03 48.95
  A 0.34 0.34 0.0 0 0 18.56 48.67
  L 18.62 19.31
  A 0.34 0.34 0.0 0 0 18.28 18.97
  L 17.25 18.95
  A 0.34 0.34 0.0 0 0 16.91 19.26
  L 14.05 46.01
  Z
  M 52.43 24.49
  A 0.57 0.57 0.0 0 1 53.25 24.51
  L 59.70 31.51
  A 0.57 0.57 0.0 0 0 60.51 31.54
  L 62.60 29.56
  A 0.57 0.57 0.0 0 0 62.63 28.76
  L 53.35 18.94
  A 0.57 0.57 0.0 0 0 52.55 18.92
  L 42.74 28.34
  A 0.57 0.57 0.0 0 0 42.72 29.14
  L 44.71 31.24
  A 0.57 0.57 0.0 0 0 45.52 31.25
  L 52.43 24.49
  Z
  M 34.5720 19.7218
  A 0.48 0.48 0.0 0 0 34.0971 19.2368
  L 21.3778 19.1036
  A 0.48 0.48 0.0 0 0 20.8928 19.5786
  L 20.8080 27.6782
  A 0.48 0.48 0.0 0 0 21.2829 28.1632
  L 34.0022 28.2964
  A 0.48 0.48 0.0 0 0 34.4872 27.8214
  L 34.5720 19.7218
  Z
  M 36.90 19.85
  L 36.89 47.52
  A 1.27 1.27 0.0 0 0 38.78 48.63
  Q 40.05 47.91 40.95 46.69
  Q 41.22 46.33 40.97 45.95
  L 39.94 44.37
  Q 39.62 43.88 39.84 43.34
  C 40.30 42.19 40.93 41.21 40.79 39.89
  Q 39.78 29.97 39.08 19.83
  Q 39.03 19.22 38.43 19.22
  L 37.53 19.22
  A 0.64 0.63 -0.5 0 0 36.90 19.85
  Z
  M 34.5352 31.1781
  A 0.64 0.64 0.0 0 0 33.8941 30.5392
  L 21.5341 30.5608
  A 0.64 0.64 0.0 0 0 20.8953 31.2019
  L 20.9248 48.1019
  A 0.64 0.64 0.0 0 0 21.5659 48.7408
  L 33.9259 48.7192
  A 0.64 0.64 0.0 0 0 34.5647 48.0781
  L 34.5352 31.1781
  Z
  M 53.19 47.83
  A 0.48 0.48 0.0 0 1 52.51 47.85
  L 45.42 41.01
  A 0.48 0.48 0.0 0 0 44.73 41.03
  L 42.68 43.28
  A 0.48 0.48 0.0 0 0 42.70 43.95
  L 52.67 53.47
  A 0.48 0.48 0.0 0 0 53.35 53.45
  L 62.71 43.43
  A 0.48 0.48 0.0 0 0 62.67 42.74
  L 60.42 40.72
  A 0.48 0.48 0.0 0 0 59.75 40.76
  L 53.19 47.83
  Z
  M 9.39 57.84
  C 10.86 60.71 12.77 60.34 15.56 60.21
  Q 16.24 60.18 16.24 59.50
  L 16.25 51.98
  A 1.07 1.04 -73.5 0 0 15.79 51.10
  C 13.80 49.75 12.73 47.79 10.03 47.85
  C 5.12 47.97 8.16 55.45 9.39 57.84
  Z
  M 39.59 59.97
  C 45.48 61.42 46.75 57.67 47.83 53.31
  A 1.36 1.36 0.0 0 0 47.46 52.02
  L 43.84 48.47
  A 0.84 0.84 0.0 0 0 42.63 48.50
  Q 41.27 49.99 39.70 51.01
  Q 39.18 51.35 39.19 51.97
  L 39.21 59.48
  A 0.51 0.51 0.0 0 0 39.59 59.97
  Z
  M 36.9200 51.8019
  A 0.77 0.77 0.0 0 0 36.1460 51.0359
  L 19.2862 51.1242
  A 0.77 0.77 0.0 0 0 18.5203 51.8982
  L 18.5600 59.4781
  A 0.77 0.77 0.0 0 0 19.3340 60.2441
  L 36.1938 60.1558
  A 0.77 0.77 0.0 0 0 36.9597 59.3818
  L 36.9200 51.8019
  Z"
/>
<g fill="#94ff94">
<rect x="-6.87" y="-3.45" transform="translate(27.73,13.34) rotate(0.1)" width="13.74" height="6.90" rx="2.07"/>
<path d="
  M 14.05 46.01
  L 16.91 19.26
  A 0.34 0.34 0.0 0 1 17.25 18.95
  L 18.28 18.97
  A 0.34 0.34 0.0 0 1 18.62 19.31
  L 18.56 48.67
  A 0.34 0.34 0.0 0 1 18.03 48.95
  L 14.20 46.32
  A 0.34 0.34 0.0 0 1 14.05 46.01
  Z"
/>
<path d="
  M 52.43 24.49
  L 45.52 31.25
  A 0.57 0.57 0.0 0 1 44.71 31.24
  L 42.72 29.14
  A 0.57 0.57 0.0 0 1 42.74 28.34
  L 52.55 18.92
  A 0.57 0.57 0.0 0 1 53.35 18.94
  L 62.63 28.76
  A 0.57 0.57 0.0 0 1 62.60 29.56
  L 60.51 31.54
  A 0.57 0.57 0.0 0 1 59.70 31.51
  L 53.25 24.51
  A 0.57 0.57 0.0 0 0 52.43 24.49
  Z"
/>
<rect x="-6.84" y="-4.53" transform="translate(27.69,23.70) rotate(0.6)" width="13.68" height="9.06" rx="0.48"/>
<path d="
  M 36.90 19.85
  A 0.64 0.63 -0.5 0 1 37.53 19.22
  L 38.43 19.22
  Q 39.03 19.22 39.08 19.83
  Q 39.78 29.97 40.79 39.89
  C 40.93 41.21 40.30 42.19 39.84 43.34
  Q 39.62 43.88 39.94 44.37
  L 40.97 45.95
  Q 41.22 46.33 40.95 46.69
  Q 40.05 47.91 38.78 48.63
  A 1.27 1.27 0.0 0 1 36.89 47.52
  L 36.90 19.85
  Z"
/>
<rect x="-6.82" y="-9.09" transform="translate(27.73,39.64) rotate(-0.1)" width="13.64" height="18.18" rx="0.64"/>
<path d="
  M 53.19 47.83
  L 59.75 40.76
  A 0.48 0.48 0.0 0 1 60.42 40.72
  L 62.67 42.74
  A 0.48 0.48 0.0 0 1 62.71 43.43
  L 53.35 53.45
  A 0.48 0.48 0.0 0 1 52.67 53.47
  L 42.70 43.95
  A 0.48 0.48 0.0 0 1 42.68 43.28
  L 44.73 41.03
  A 0.48 0.48 0.0 0 1 45.42 41.01
  L 52.51 47.85
  A 0.48 0.48 0.0 0 0 53.19 47.83
  Z"
/>
<path d="
  M 9.39 57.84
  C 8.16 55.45 5.12 47.97 10.03 47.85
  C 12.73 47.79 13.80 49.75 15.79 51.10
  A 1.07 1.04 -73.5 0 1 16.25 51.98
  L 16.24 59.50
  Q 16.24 60.18 15.56 60.21
  C 12.77 60.34 10.86 60.71 9.39 57.84
  Z"
/>
<path d="
  M 39.59 59.97
  A 0.51 0.51 0.0 0 1 39.21 59.48
  L 39.19 51.97
  Q 39.18 51.35 39.70 51.01
  Q 41.27 49.99 42.63 48.50
  A 0.84 0.84 0.0 0 1 43.84 48.47
  L 47.46 52.02
  A 1.36 1.36 0.0 0 1 47.83 53.31
  C 46.75 57.67 45.48 61.42 39.59 59.97
  Z"
/>
<rect x="-9.20" y="-4.56" transform="translate(27.74,55.64) rotate(-0.3)" width="18.40" height="9.12" rx="0.77"/>
</g>
</svg>
