<svg width="32" height="32" viewBox="0 0 32 32" fill="none" xmlns="http://www.w3.org/2000/svg">
<path d="M14.8737 4.52494L10.4851 4.51728C9.96248 4.51636 9.53808 4.93929 9.53717 5.46191L9.53496 6.72362C9.53405 7.24624 9.95698 7.67065 10.4796 7.67156L14.8682 7.67922C15.3908 7.68013 15.8152 7.2572 15.8161 6.73458L15.8183 5.47287C15.8192 4.95025 15.3963 4.52585 14.8737 4.52494Z" fill="#94FF94"/>
<path d="M6.42287 21.0331L7.73029 8.80456C7.73373 8.76576 7.75161 8.72966 7.7804 8.70341C7.80918 8.67717 7.84677 8.66269 7.88572 8.66284L8.35658 8.67199C8.3978 8.67199 8.43734 8.68836 8.46648 8.71751C8.49563 8.74666 8.51201 8.78619 8.51201 8.82741L8.48458 22.2491C8.48442 22.2772 8.47663 22.3048 8.46204 22.3288C8.44746 22.3529 8.42662 22.3725 8.40176 22.3857C8.37689 22.3988 8.34893 22.4049 8.32085 22.4034C8.29276 22.4019 8.26562 22.3928 8.24229 22.3771L6.49144 21.1748C6.46842 21.1595 6.44994 21.1382 6.43788 21.1133C6.42583 21.0884 6.42064 21.0607 6.42287 21.0331Z" fill="#94FF94"/>
<path d="M23.9681 11.1954L20.8092 14.2857C20.7847 14.3098 20.7556 14.3289 20.7237 14.3418C20.6917 14.3546 20.6576 14.361 20.6231 14.3606C20.5887 14.3602 20.5547 14.3529 20.5231 14.3393C20.4915 14.3256 20.4629 14.3059 20.4389 14.2811L19.5292 13.3211C19.4824 13.2712 19.4571 13.2048 19.4588 13.1364C19.4605 13.0679 19.4891 13.0029 19.5384 12.9554L24.0229 8.64909C24.0729 8.60227 24.1392 8.57698 24.2077 8.57869C24.2761 8.58041 24.3411 8.60898 24.3886 8.65823L28.6309 13.1474C28.6772 13.1979 28.7017 13.2646 28.6991 13.333C28.6965 13.4015 28.6671 13.4662 28.6172 13.5131L27.6618 14.4182C27.6367 14.4418 27.6071 14.4602 27.5748 14.4723C27.5426 14.4844 27.5082 14.4899 27.4738 14.4887C27.4393 14.4874 27.4055 14.4793 27.3742 14.4649C27.3429 14.4504 27.3148 14.4299 27.2915 14.4045L24.3429 11.2045C24.3193 11.1788 24.2906 11.158 24.2588 11.1436C24.2269 11.1291 24.1924 11.1212 24.1574 11.1204C24.1225 11.1195 24.0877 11.1257 24.0551 11.1386C24.0226 11.1515 23.993 11.1708 23.9681 11.1954Z" fill="#94FF94"/>
<path d="M15.5872 8.79402L9.77264 8.73313C9.65146 8.73186 9.55219 8.82907 9.55092 8.95025L9.51215 12.6529C9.51088 12.7741 9.60809 12.8734 9.72927 12.8746L15.5438 12.9355C15.665 12.9368 15.7643 12.8396 15.7655 12.7184L15.8043 9.01574C15.8056 8.89456 15.7084 8.79529 15.5872 8.79402Z" fill="#94FF94"/>
<path d="M16.8686 9.07426C16.8686 8.99866 16.8988 8.92609 16.9527 8.87221C17.0066 8.81833 17.0798 8.78746 17.1566 8.78625H17.568C17.7509 8.78625 17.8499 8.87921 17.8652 9.06511C18.0785 12.1554 18.3391 15.2122 18.6469 18.2354C18.7109 18.8388 18.4229 19.2868 18.2126 19.8125C18.1455 19.9771 18.1608 20.1341 18.2583 20.2834L18.7292 21.0057C18.8053 21.1215 18.8023 21.2343 18.72 21.344C18.4457 21.7158 18.1151 22.0114 17.728 22.2308C17.6396 22.2803 17.5398 22.3057 17.4385 22.3047C17.3372 22.3036 17.2379 22.2761 17.1506 22.2248C17.0632 22.1735 16.9908 22.1002 16.9405 22.0122C16.8903 21.9243 16.8639 21.8247 16.864 21.7234L16.8686 9.07426Z" fill="#94FF94"/>
<path d="M15.4944 13.9608L9.84408 13.9707C9.6825 13.971 9.55174 14.1022 9.55202 14.2638L9.56551 21.9895C9.56579 22.151 9.69701 22.2818 9.85859 22.2815L15.5089 22.2717C15.6704 22.2714 15.8012 22.1402 15.8009 21.9786L15.7874 14.2529C15.7872 14.0913 15.6559 13.9605 15.4944 13.9608Z" fill="#94FF94"/>
<path d="M24.3155 21.8651L27.3144 18.6331C27.3529 18.5907 27.4066 18.565 27.4638 18.5615C27.5211 18.5581 27.5774 18.5773 27.6207 18.6148L28.6493 19.5383C28.6716 19.5575 28.6899 19.581 28.703 19.6074C28.7161 19.6339 28.7237 19.6627 28.7254 19.6921C28.7271 19.7215 28.7229 19.751 28.7129 19.7788C28.703 19.8066 28.6876 19.832 28.6675 19.8537L24.3887 24.4343C24.3689 24.4553 24.3452 24.4723 24.3188 24.4842C24.2925 24.496 24.264 24.5026 24.2352 24.5034C24.2063 24.5043 24.1775 24.4994 24.1505 24.4891C24.1235 24.4788 24.0988 24.4633 24.0778 24.4434L19.5201 20.0914C19.4789 20.0516 19.4549 19.9973 19.4532 19.9401C19.4515 19.8829 19.4722 19.8273 19.511 19.7851L20.4481 18.7566C20.468 18.7348 20.492 18.7173 20.5187 18.705C20.5455 18.6927 20.5745 18.6859 20.6039 18.6851C20.6333 18.6842 20.6626 18.6893 20.6901 18.7C20.7175 18.7107 20.7425 18.7268 20.7635 18.7474L24.0047 21.8743C24.0257 21.8941 24.0504 21.9097 24.0774 21.92C24.1044 21.9303 24.1331 21.9351 24.162 21.9343C24.1909 21.9334 24.2193 21.9269 24.2457 21.915C24.272 21.9031 24.2958 21.8862 24.3155 21.8651Z" fill="#94FF94"/>
<path d="M4.29268 26.4411C3.7304 25.3486 2.34068 21.9291 4.58525 21.8743C5.81954 21.8468 6.30868 22.7428 7.2184 23.36C7.28326 23.4037 7.33637 23.4633 7.37305 23.5334C7.40972 23.6036 7.42883 23.6822 7.42868 23.7623L7.42411 27.2C7.42411 27.4072 7.32049 27.5154 7.11326 27.5246C5.83783 27.584 4.96468 27.7531 4.29268 26.4411Z" fill="#94FF94"/>
<path d="M18.0982 27.4148C18.0487 27.4018 18.0048 27.3727 17.9734 27.3323C17.942 27.2918 17.9248 27.2421 17.9245 27.1908L17.9154 23.7577C17.9123 23.5687 17.99 23.4224 18.1485 23.3188C18.627 23.008 19.0735 22.6255 19.4879 22.1714C19.5228 22.1333 19.5651 22.1026 19.6121 22.0812C19.6591 22.0598 19.71 22.0482 19.7616 22.0469C19.8132 22.0456 19.8646 22.0547 19.9126 22.0738C19.9607 22.0928 20.0043 22.1214 20.0411 22.1577L21.6959 23.7805C21.7727 23.8558 21.8287 23.9497 21.8583 24.0531C21.888 24.1564 21.8903 24.2657 21.8651 24.3702C21.3714 26.3634 20.7908 28.0777 18.0982 27.4148Z" fill="#94FF94"/>
<path d="M16.5239 23.3307L8.81659 23.3711C8.62219 23.3721 8.46542 23.5305 8.46644 23.7249L8.48459 27.19C8.4856 27.3844 8.64402 27.5412 8.83842 27.5402L16.5457 27.4998C16.7401 27.4988 16.8969 27.3404 16.8959 27.146L16.8778 23.6809C16.8767 23.4865 16.7183 23.3297 16.5239 23.3307Z" fill="#94FF94"/>
</svg>
