<?xml version="1.0" encoding="UTF-8" standalone="no"?>
<!DOCTYPE svg PUBLIC "-//W3C//DTD SVG 1.1//EN" "http://www.w3.org/Graphics/SVG/1.1/DTD/svg11.dtd">
<svg xmlns="http://www.w3.org/2000/svg" version="1.1" viewBox="0.00 0.00 70.00 70.00">
<g stroke-width="2.00" fill="none" stroke-linecap="butt">
<path stroke="#575c63" vector-effect="non-scaling-stroke" d="
  M 17.49 30.25
  L 17.44 31.21
  Q 17.41 31.76 17.96 31.86
  L 18.90 32.05
  Q 19.44 32.15 19.54 31.61
  L 19.86 29.70
  Q 19.97 29.09 20.57 29.24
  L 21.51 29.47
  Q 22.11 29.62 22.12 29.01
  Q 22.13 28.80 22.19 28.60
  A 0.77 0.76 -86.2 0 1 22.79 28.07
  L 24.90 27.67
  A 1.29 1.27 55.6 0 1 25.78 27.84
  L 28.18 29.31
  Q 28.81 29.70 29.16 29.05
  L 29.67 28.08
  Q 30.05 27.37 29.34 26.99
  L 27.89 26.23
  Q 27.19 25.85 27.94 25.58
  L 37.56 22.03
  Q 38.33 21.75 38.24 22.56
  L 38.11 23.64
  A 0.99 0.98 8.1 0 0 38.92 24.71
  L 39.20 24.76
  A 0.87 0.87 0.0 0 0 40.21 24.04
  L 40.50 22.28
  Q 40.61 21.66 41.16 21.98
  L 41.49 22.17
  Q 41.97 22.45 42.40 22.09
  Q 42.77 21.78 42.83 21.28
  A 0.75 0.73 -89.5 0 1 43.50 20.61
  C 44.79 20.48 46.17 20.22 47.29 21.10
  Q 47.92 21.60 48.69 21.95
  A 1.04 1.04 0.0 0 0 49.98 21.56
  L 50.31 21.05
  Q 50.91 20.12 49.93 19.61
  L 48.36 18.79
  A 0.47 0.46 48.6 0 1 48.41 17.94
  L 60.86 13.42
  A 0.97 0.96 -17.1 0 0 61.47 12.28
  L 61.40 11.98
  Q 61.09 10.66 59.81 11.14
  L 46.64 16.20
  Q 46.06 16.43 45.90 15.83
  Q 45.80 15.46 45.83 15.07
  A 0.92 0.92 0.0 0 0 45.31 14.18
  Q 44.99 14.03 44.65 14.10
  A 1.07 1.07 0.0 0 0 43.85 14.86
  Q 43.52 16.12 42.29 15.55
  Q 41.58 15.22 41.51 16.00
  L 41.44 16.74
  A 0.87 0.87 0.0 0 1 40.18 17.43
  L 35.83 15.19
  A 0.94 0.93 27.7 0 0 34.59 15.57
  L 34.21 16.26
  Q 33.79 17.02 34.55 17.44
  L 37.34 18.99
  A 0.38 0.37 48.6 0 1 37.30 19.67
  L 25.92 23.98
  Q 25.39 24.18 25.33 23.62
  Q 25.28 23.17 25.43 22.72
  Q 25.59 22.22 25.24 21.82
  Q 24.80 21.34 24.07 21.47
  Q 23.39 21.60 23.16 22.25
  Q 22.81 23.24 21.83 22.86
  A 0.67 0.66 20.6 0 0 20.97 23.24
  L 20.80 23.70
  Q 20.35 24.92 19.14 24.45
  Q 17.26 23.72 15.72 22.64
  Q 14.68 21.92 13.89 22.91
  Q 13.64 23.22 13.53 23.60
  Q 13.28 24.46 14.07 24.86
  L 16.83 26.24
  Q 18.15 26.91 16.76 27.41
  L 8.77 30.24
  A 0.92 0.92 0.0 0 0 8.24 31.48
  L 8.45 31.97
  Q 8.83 32.84 9.72 32.49
  L 16.75 29.72
  Q 17.53 29.41 17.49 30.25"
/>
<path stroke="#575c63" vector-effect="non-scaling-stroke" d="
  M 54.61 34.77
  A 3.98 3.98 0.0 0 0 50.63 30.79
  A 3.98 3.98 0.0 0 0 46.65 34.77
  A 3.98 3.98 0.0 0 0 50.63 38.75
  A 3.98 3.98 0.0 0 0 54.61 34.77"
/>
<path stroke="#575c63" vector-effect="non-scaling-stroke" d="
  M 31.01 44.74
  L 43.74 41.30
  A 1.28 1.28 0.0 0 1 44.90 41.57
  L 50.49 46.43
  A 2.97 2.93 63.8 0 0 52.57 47.15
  L 61.35 46.75
  Q 62.66 46.69 62.83 45.39
  L 62.91 44.75
  A 1.63 1.62 -87.1 0 0 61.25 42.91
  L 53.73 43.17
  A 3.11 3.10 -25.4 0 1 51.59 42.41
  C 49.34 40.47 46.82 38.60 45.01 36.30
  C 43.94 34.95 42.16 33.27 40.28 33.83
  Q 34.37 35.60 27.82 37.71
  Q 24.40 38.81 25.40 42.26
  L 27.50 49.49
  A 0.93 0.92 -22.7 0 1 27.05 50.57
  L 19.18 54.80
  Q 18.04 55.42 17.41 56.56
  Q 16.63 57.98 17.33 58.41
  Q 19.05 59.45 20.86 58.53
  Q 25.72 56.06 30.68 53.18
  Q 32.45 52.15 31.92 50.15
  Q 31.29 47.75 30.55 45.59
  Q 30.33 44.92 31.01 44.74"
/>
<path stroke="#575c63" vector-effect="non-scaling-stroke" d="
  M 21.86 42.35
  C 17.52 45.54 12.76 46.62 7.98 48.80
  A 1.55 1.54 -5.4 0 0 7.12 49.83
  Q 6.92 50.71 7.32 51.40
  Q 7.95 52.48 9.15 52.14
  Q 16.41 50.06 22.95 46.37
  Q 23.47 46.08 23.60 45.49
  Q 23.89 44.12 23.20 42.68
  A 0.90 0.89 -30.9 0 0 21.86 42.35"
/>
<path stroke="#575c63" vector-effect="non-scaling-stroke" d="
  M 40.60 48.32
  C 42.42 47.89 43.87 46.97 45.62 46.37
  Q 46.28 46.14 45.90 45.56
  C 44.01 42.62 41.98 44.03 39.42 44.66
  Q 37.57 45.11 38.29 46.87
  L 38.43 47.22
  Q 39.04 48.70 40.60 48.32"
/>
</g>
<path fill="#2f353e" d="
  M 0.00 0.00
  L 70.00 0.00
  L 70.00 70.00
  L 0.00 70.00
  L 0.00 0.00
  Z
  M 17.49 30.25
  L 17.44 31.21
  Q 17.41 31.76 17.96 31.86
  L 18.90 32.05
  Q 19.44 32.15 19.54 31.61
  L 19.86 29.70
  Q 19.97 29.09 20.57 29.24
  L 21.51 29.47
  Q 22.11 29.62 22.12 29.01
  Q 22.13 28.80 22.19 28.60
  A 0.77 0.76 -86.2 0 1 22.79 28.07
  L 24.90 27.67
  A 1.29 1.27 55.6 0 1 25.78 27.84
  L 28.18 29.31
  Q 28.81 29.70 29.16 29.05
  L 29.67 28.08
  Q 30.05 27.37 29.34 26.99
  L 27.89 26.23
  Q 27.19 25.85 27.94 25.58
  L 37.56 22.03
  Q 38.33 21.75 38.24 22.56
  L 38.11 23.64
  A 0.99 0.98 8.1 0 0 38.92 24.71
  L 39.20 24.76
  A 0.87 0.87 0.0 0 0 40.21 24.04
  L 40.50 22.28
  Q 40.61 21.66 41.16 21.98
  L 41.49 22.17
  Q 41.97 22.45 42.40 22.09
  Q 42.77 21.78 42.83 21.28
  A 0.75 0.73 -89.5 0 1 43.50 20.61
  C 44.79 20.48 46.17 20.22 47.29 21.10
  Q 47.92 21.60 48.69 21.95
  A 1.04 1.04 0.0 0 0 49.98 21.56
  L 50.31 21.05
  Q 50.91 20.12 49.93 19.61
  L 48.36 18.79
  A 0.47 0.46 48.6 0 1 48.41 17.94
  L 60.86 13.42
  A 0.97 0.96 -17.1 0 0 61.47 12.28
  L 61.40 11.98
  Q 61.09 10.66 59.81 11.14
  L 46.64 16.20
  Q 46.06 16.43 45.90 15.83
  Q 45.80 15.46 45.83 15.07
  A 0.92 0.92 0.0 0 0 45.31 14.18
  Q 44.99 14.03 44.65 14.10
  A 1.07 1.07 0.0 0 0 43.85 14.86
  Q 43.52 16.12 42.29 15.55
  Q 41.58 15.22 41.51 16.00
  L 41.44 16.74
  A 0.87 0.87 0.0 0 1 40.18 17.43
  L 35.83 15.19
  A 0.94 0.93 27.7 0 0 34.59 15.57
  L 34.21 16.26
  Q 33.79 17.02 34.55 17.44
  L 37.34 18.99
  A 0.38 0.37 48.6 0 1 37.30 19.67
  L 25.92 23.98
  Q 25.39 24.18 25.33 23.62
  Q 25.28 23.17 25.43 22.72
  Q 25.59 22.22 25.24 21.82
  Q 24.80 21.34 24.07 21.47
  Q 23.39 21.60 23.16 22.25
  Q 22.81 23.24 21.83 22.86
  A 0.67 0.66 20.6 0 0 20.97 23.24
  L 20.80 23.70
  Q 20.35 24.92 19.14 24.45
  Q 17.26 23.72 15.72 22.64
  Q 14.68 21.92 13.89 22.91
  Q 13.64 23.22 13.53 23.60
  Q 13.28 24.46 14.07 24.86
  L 16.83 26.24
  Q 18.15 26.91 16.76 27.41
  L 8.77 30.24
  A 0.92 0.92 0.0 0 0 8.24 31.48
  L 8.45 31.97
  Q 8.83 32.84 9.72 32.49
  L 16.75 29.72
  Q 17.53 29.41 17.49 30.25
  Z
  M 54.61 34.77
  A 3.98 3.98 0.0 0 0 50.63 30.79
  A 3.98 3.98 0.0 0 0 46.65 34.77
  A 3.98 3.98 0.0 0 0 50.63 38.75
  A 3.98 3.98 0.0 0 0 54.61 34.77
  Z
  M 31.01 44.74
  L 43.74 41.30
  A 1.28 1.28 0.0 0 1 44.90 41.57
  L 50.49 46.43
  A 2.97 2.93 63.8 0 0 52.57 47.15
  L 61.35 46.75
  Q 62.66 46.69 62.83 45.39
  L 62.91 44.75
  A 1.63 1.62 -87.1 0 0 61.25 42.91
  L 53.73 43.17
  A 3.11 3.10 -25.4 0 1 51.59 42.41
  C 49.34 40.47 46.82 38.60 45.01 36.30
  C 43.94 34.95 42.16 33.27 40.28 33.83
  Q 34.37 35.60 27.82 37.71
  Q 24.40 38.81 25.40 42.26
  L 27.50 49.49
  A 0.93 0.92 -22.7 0 1 27.05 50.57
  L 19.18 54.80
  Q 18.04 55.42 17.41 56.56
  Q 16.63 57.98 17.33 58.41
  Q 19.05 59.45 20.86 58.53
  Q 25.72 56.06 30.68 53.18
  Q 32.45 52.15 31.92 50.15
  Q 31.29 47.75 30.55 45.59
  Q 30.33 44.92 31.01 44.74
  Z
  M 21.86 42.35
  C 17.52 45.54 12.76 46.62 7.98 48.80
  A 1.55 1.54 -5.4 0 0 7.12 49.83
  Q 6.92 50.71 7.32 51.40
  Q 7.95 52.48 9.15 52.14
  Q 16.41 50.06 22.95 46.37
  Q 23.47 46.08 23.60 45.49
  Q 23.89 44.12 23.20 42.68
  A 0.90 0.89 -30.9 0 0 21.86 42.35
  Z
  M 40.60 48.32
  C 42.42 47.89 43.87 46.97 45.62 46.37
  Q 46.28 46.14 45.90 45.56
  C 44.01 42.62 41.98 44.03 39.42 44.66
  Q 37.57 45.11 38.29 46.87
  L 38.43 47.22
  Q 39.04 48.70 40.60 48.32
  Z"
/>
<g fill="#94ff94">
<path d="
  M 16.75 29.72
  L 9.72 32.49
  Q 8.83 32.84 8.45 31.97
  L 8.24 31.48
  A 0.92 0.92 0.0 0 1 8.77 30.24
  L 16.76 27.41
  Q 18.15 26.91 16.83 26.24
  L 14.07 24.86
  Q 13.28 24.46 13.53 23.60
  Q 13.64 23.22 13.89 22.91
  Q 14.68 21.92 15.72 22.64
  Q 17.26 23.72 19.14 24.45
  Q 20.35 24.92 20.80 23.70
  L 20.97 23.24
  A 0.67 0.66 20.6 0 1 21.83 22.86
  Q 22.81 23.24 23.16 22.25
  Q 23.39 21.60 24.07 21.47
  Q 24.80 21.34 25.24 21.82
  Q 25.59 22.22 25.43 22.72
  Q 25.28 23.17 25.33 23.62
  Q 25.39 24.18 25.92 23.98
  L 37.30 19.67
  A 0.38 0.37 48.6 0 0 37.34 18.99
  L 34.55 17.44
  Q 33.79 17.02 34.21 16.26
  L 34.59 15.57
  A 0.94 0.93 27.7 0 1 35.83 15.19
  L 40.18 17.43
  A 0.87 0.87 0.0 0 0 41.44 16.74
  L 41.51 16.00
  Q 41.58 15.22 42.29 15.55
  Q 43.52 16.12 43.85 14.86
  A 1.07 1.07 0.0 0 1 44.65 14.10
  Q 44.99 14.03 45.31 14.18
  A 0.92 0.92 0.0 0 1 45.83 15.07
  Q 45.80 15.46 45.90 15.83
  Q 46.06 16.43 46.64 16.20
  L 59.81 11.14
  Q 61.09 10.66 61.40 11.98
  L 61.47 12.28
  A 0.97 0.96 -17.1 0 1 60.86 13.42
  L 48.41 17.94
  A 0.47 0.46 48.6 0 0 48.36 18.79
  L 49.93 19.61
  Q 50.91 20.12 50.31 21.05
  L 49.98 21.56
  A 1.04 1.04 0.0 0 1 48.69 21.95
  Q 47.92 21.60 47.29 21.10
  C 46.17 20.22 44.79 20.48 43.50 20.61
  A 0.75 0.73 -89.5 0 0 42.83 21.28
  Q 42.77 21.78 42.40 22.09
  Q 41.97 22.45 41.49 22.17
  L 41.16 21.98
  Q 40.61 21.66 40.50 22.28
  L 40.21 24.04
  A 0.87 0.87 0.0 0 1 39.20 24.76
  L 38.92 24.71
  A 0.99 0.98 8.1 0 1 38.11 23.64
  L 38.24 22.56
  Q 38.33 21.75 37.56 22.03
  L 27.94 25.58
  Q 27.19 25.85 27.89 26.23
  L 29.34 26.99
  Q 30.05 27.37 29.67 28.08
  L 29.16 29.05
  Q 28.81 29.70 28.18 29.31
  L 25.78 27.84
  A 1.29 1.27 55.6 0 0 24.90 27.67
  L 22.79 28.07
  A 0.77 0.76 -86.2 0 0 22.19 28.60
  Q 22.13 28.80 22.12 29.01
  Q 22.11 29.62 21.51 29.47
  L 20.57 29.24
  Q 19.97 29.09 19.86 29.70
  L 19.54 31.61
  Q 19.44 32.15 18.90 32.05
  L 17.96 31.86
  Q 17.41 31.76 17.44 31.21
  L 17.49 30.25
  Q 17.53 29.41 16.75 29.72
  Z"
/>
<circle cx="50.63" cy="34.77" r="3.98"/>
<path d="
  M 30.55 45.59
  Q 31.29 47.75 31.92 50.15
  Q 32.45 52.15 30.68 53.18
  Q 25.72 56.06 20.86 58.53
  Q 19.05 59.45 17.33 58.41
  Q 16.63 57.98 17.41 56.56
  Q 18.04 55.42 19.18 54.80
  L 27.05 50.57
  A 0.93 0.92 -22.7 0 0 27.50 49.49
  L 25.40 42.26
  Q 24.40 38.81 27.82 37.71
  Q 34.37 35.60 40.28 33.83
  C 42.16 33.27 43.94 34.95 45.01 36.30
  C 46.82 38.60 49.34 40.47 51.59 42.41
  A 3.11 3.10 -25.4 0 0 53.73 43.17
  L 61.25 42.91
  A 1.63 1.62 -87.1 0 1 62.91 44.75
  L 62.83 45.39
  Q 62.66 46.69 61.35 46.75
  L 52.57 47.15
  A 2.97 2.93 63.8 0 1 50.49 46.43
  L 44.90 41.57
  A 1.28 1.28 0.0 0 0 43.74 41.30
  L 31.01 44.74
  Q 30.33 44.92 30.55 45.59
  Z"
/>
<path d="
  M 7.98 48.80
  C 12.76 46.62 17.52 45.54 21.86 42.35
  A 0.90 0.89 -30.9 0 1 23.20 42.68
  Q 23.89 44.12 23.60 45.49
  Q 23.47 46.08 22.95 46.37
  Q 16.41 50.06 9.15 52.14
  Q 7.95 52.48 7.32 51.40
  Q 6.92 50.71 7.12 49.83
  A 1.55 1.54 -5.4 0 1 7.98 48.80
  Z"
/>
<path d="
  M 45.62 46.37
  C 43.87 46.97 42.42 47.89 40.60 48.32
  Q 39.04 48.70 38.43 47.22
  L 38.29 46.87
  Q 37.57 45.11 39.42 44.66
  C 41.98 44.03 44.01 42.62 45.90 45.56
  Q 46.28 46.14 45.62 46.37
  Z"
/>
</g>
</svg>
