<svg width="32" height="32" viewBox="0 0 32 32" fill="none" xmlns="http://www.w3.org/2000/svg">
<path d="M7.65707 13.5863L4.44336 14.8526C4.17212 14.9592 3.9786 14.88 3.86279 14.6149L3.76679 14.3909C3.74327 14.338 3.73091 14.2808 3.73048 14.223C3.73005 14.1651 3.74157 14.1078 3.76431 14.0546C3.78705 14.0014 3.82053 13.9534 3.86264 13.9138C3.90476 13.8741 3.95461 13.8435 4.00907 13.824L7.66165 12.5303C8.08526 12.3779 8.09593 12.1996 7.69365 11.9954L6.43193 11.3646C6.19117 11.2427 6.10888 11.0507 6.18507 10.7886C6.2186 10.6728 6.27346 10.5676 6.34965 10.4731C6.59041 10.1714 6.86926 10.1303 7.18622 10.3497C7.65555 10.6789 8.17669 10.9547 8.74965 11.1771C9.11841 11.3204 9.37136 11.2061 9.5085 10.8343L9.58622 10.624C9.61456 10.5492 9.67189 10.4889 9.74561 10.4563C9.81933 10.4237 9.90341 10.4216 9.97936 10.4503C10.278 10.5661 10.4807 10.4731 10.5874 10.1714C10.6575 9.97333 10.7961 9.85448 11.0034 9.81486C11.2258 9.77524 11.4041 9.82857 11.5382 9.97486C11.6449 10.0968 11.6738 10.2339 11.6251 10.3863C11.5794 10.5234 11.5641 10.6606 11.5794 10.7977C11.5976 10.9684 11.6876 11.0232 11.8491 10.9623L17.0514 8.992C17.0818 8.98086 17.1083 8.9611 17.1275 8.93506C17.1467 8.90902 17.158 8.8778 17.1599 8.84508C17.1618 8.81237 17.1544 8.77954 17.1384 8.75048C17.1224 8.72143 17.0985 8.69736 17.0696 8.68114L15.7942 7.97257C15.5626 7.84457 15.5108 7.66476 15.6388 7.43314L15.8125 7.11771C15.8654 7.02132 15.954 6.94937 16.0597 6.91698C16.1654 6.88459 16.28 6.89427 16.3794 6.944L18.3679 7.968C18.4256 7.99732 18.4896 8.01212 18.5543 8.01113C18.619 8.01013 18.6824 7.99337 18.7392 7.96229C18.7959 7.93122 18.8442 7.88676 18.8799 7.83279C18.9156 7.77882 18.9376 7.71696 18.9439 7.65257L18.9759 7.31429C18.9973 7.07657 19.1161 7.008 19.3325 7.10857C19.7074 7.28229 19.9451 7.17714 20.0456 6.79314C20.0693 6.70747 20.1158 6.62986 20.1803 6.56865C20.2447 6.50744 20.3246 6.46494 20.4114 6.44571C20.515 6.42438 20.6156 6.43657 20.7131 6.48229C20.7888 6.51862 20.8519 6.57679 20.8943 6.6493C20.9366 6.72181 20.9563 6.80534 20.9508 6.88914C20.9416 7.008 20.9523 7.12381 20.9828 7.23657C21.0316 7.41943 21.1443 7.47581 21.3211 7.40571L27.3416 5.09257C27.7317 4.94629 27.974 5.07429 28.0685 5.47657L28.1005 5.61371C28.1271 5.71902 28.1133 5.83059 28.0618 5.92685C28.0103 6.02311 27.9247 6.09723 27.8216 6.13486L22.1302 8.20114C22.0916 8.21468 22.0579 8.23929 22.0334 8.27199C22.0088 8.30468 21.9945 8.34403 21.9921 8.38524C21.9896 8.42644 21.9992 8.46772 22.0197 8.50403C22.0402 8.54035 22.0706 8.57012 22.1074 8.58972L22.8251 8.96457C23.1237 9.12 23.1816 9.33943 22.9988 9.62286L22.8479 9.856C22.7868 9.95088 22.6939 10.0209 22.5859 10.0536C22.4778 10.0862 22.3617 10.0794 22.2582 10.0343C22.0236 9.92762 21.8102 9.7981 21.6182 9.64571C21.1062 9.24343 20.4754 9.36229 19.8856 9.42171C19.8078 9.42791 19.7345 9.46195 19.6786 9.51791C19.6226 9.57387 19.5875 9.64822 19.5794 9.728C19.5611 9.88038 19.4956 10.0038 19.3828 10.0983C19.2517 10.208 19.1131 10.2202 18.9668 10.1349L18.8159 10.048C18.6483 9.95048 18.5477 9.99619 18.5142 10.1851L18.3816 10.9897C18.3733 11.0418 18.3548 11.0918 18.327 11.1366C18.2992 11.1815 18.2627 11.2204 18.2197 11.251C18.1768 11.2816 18.1281 11.3034 18.0767 11.3151C18.0252 11.3267 17.9719 11.328 17.9199 11.3189L17.7919 11.296C17.6793 11.2757 17.5786 11.214 17.5099 11.1233C17.4412 11.0325 17.4096 10.9195 17.4216 10.8069L17.4811 10.3131C17.5085 10.0663 17.4049 9.98552 17.1702 10.0709L12.7725 11.6937C12.5439 11.776 12.5363 11.875 12.7496 11.9909L13.4125 12.3383C13.6289 12.4541 13.6792 12.6202 13.5634 12.8366L13.3302 13.28C13.2236 13.4781 13.0742 13.5177 12.8822 13.3989L11.7851 12.7269C11.664 12.6532 11.5211 12.6256 11.3828 12.6491L10.4182 12.832C10.3549 12.8428 10.2958 12.8712 10.2474 12.914C10.1989 12.9567 10.1631 13.0122 10.1439 13.0743C10.1256 13.1352 10.115 13.1977 10.1119 13.2617C10.1089 13.4476 10.0159 13.5177 9.83307 13.472L9.40336 13.3669C9.2205 13.3211 9.11231 13.3912 9.07879 13.5771L8.9325 14.4503C8.90203 14.6149 8.8045 14.6819 8.63993 14.6514L8.21022 14.5646C8.0426 14.5341 7.96336 14.435 7.9725 14.2674L7.99536 13.8286C8.00755 13.5726 7.89479 13.4918 7.65707 13.5863Z" fill="#94FF94"/>
<path d="M23.1451 17.7143C24.15 17.7143 24.9645 16.8997 24.9645 15.8949C24.9645 14.89 24.15 14.0754 23.1451 14.0754C22.1403 14.0754 21.3257 14.89 21.3257 15.8949C21.3257 16.8997 22.1403 17.7143 23.1451 17.7143Z" fill="#94FF94"/>
<path d="M13.9658 20.8411C14.1913 21.4994 14.4001 22.1943 14.5921 22.9257C14.7536 23.5352 14.5646 23.9969 14.0252 24.3108C12.5136 25.1886 11.0172 26.0038 9.53606 26.7566C8.98444 27.0369 8.44654 27.0187 7.92235 26.7017C7.70901 26.5707 7.7212 26.2888 7.95892 25.856C8.15092 25.5086 8.42063 25.2404 8.76806 25.0514L12.3658 23.1177C12.452 23.0711 12.5195 22.9965 12.557 22.9065C12.5945 22.8166 12.5996 22.7168 12.5715 22.624L11.6115 19.3188C11.3067 18.2674 11.6755 17.5741 12.7178 17.2388C14.714 16.5958 16.6126 16.0046 18.4138 15.4651C19.2732 15.2091 20.0869 15.9771 20.5761 16.5943C21.4035 17.6457 22.5555 18.5006 23.5841 19.3874C23.8542 19.6225 24.2037 19.7466 24.5623 19.7348L28.0001 19.616C28.1075 19.6123 28.2143 19.6322 28.3133 19.6743C28.4123 19.7164 28.5009 19.7797 28.5731 19.8597C28.6453 19.9397 28.6993 20.0346 28.7314 20.1378C28.7635 20.241 28.7729 20.3499 28.7589 20.4571L28.7223 20.7497C28.6705 21.1459 28.445 21.3531 28.0458 21.3714L24.0321 21.5543C23.6862 21.5719 23.3455 21.454 23.0812 21.2251L20.5258 19.0034C20.454 18.9414 20.3682 18.8978 20.2759 18.8763C20.1835 18.8548 20.0873 18.856 19.9955 18.88L14.1761 20.4526C13.9688 20.5074 13.8987 20.6369 13.9658 20.8411Z" fill="#94FF94"/>
<path d="M3.64798 22.3086C5.83313 21.312 8.00913 20.8183 9.99313 19.36C10.042 19.3242 10.0982 19.2995 10.1575 19.2876C10.2169 19.2758 10.278 19.2772 10.3365 19.2916C10.3951 19.306 10.4496 19.3331 10.4961 19.371C10.5426 19.4089 10.58 19.4567 10.6057 19.5109C10.816 19.9497 10.8769 20.3779 10.7886 20.7954C10.7489 20.9752 10.6499 21.1093 10.4914 21.1977C8.49827 22.3223 6.39541 23.2015 4.18284 23.8354C3.81713 23.939 3.53827 23.8263 3.34627 23.4971C3.22437 23.2869 3.19389 23.0476 3.25484 22.7794C3.28057 22.6767 3.32927 22.581 3.39734 22.4994C3.46541 22.4179 3.55108 22.3527 3.64798 22.3086Z" fill="#94FF94"/>
<path d="M20.8549 21.1977C20.0549 21.472 19.3921 21.8926 18.5601 22.0892C18.0846 22.205 17.754 22.0374 17.5681 21.5863L17.5041 21.4263C17.2846 20.8899 17.4568 20.5532 18.0206 20.416C19.1909 20.128 20.1189 19.4835 20.9829 20.8275C21.0987 21.0042 21.0561 21.1276 20.8549 21.1977Z" fill="#94FF94"/>
</svg>
