<svg width="32" height="32" viewBox="0 0 32 32" fill="none" xmlns="http://www.w3.org/2000/svg">
<path d="M10.6514 19.7806C10.5051 19.0538 10.1759 18.3269 10.0434 17.5909C9.68375 15.6252 9.86204 13.6534 10.5782 11.6755C11.6845 8.61719 13.4171 5.49033 16.3931 3.94062C17.0148 3.62062 17.1001 3.72729 16.6491 4.26062C15.7348 5.34405 14.0937 7.93605 15.2137 9.32119C15.6921 9.91548 16.3961 10.2035 17.3257 10.1852C18.6239 10.1623 18.7977 8.97833 18.6605 7.97262C18.5782 7.34481 18.7702 7.24576 19.2365 7.67548C23.3508 11.5018 23.9359 17.4263 22.5828 22.7063C22.5717 22.7469 22.5724 22.7898 22.585 22.8299C22.5976 22.8701 22.6214 22.9058 22.6537 22.9327C22.686 22.9597 22.7253 22.9769 22.767 22.9821C22.8088 22.9873 22.8511 22.9805 22.8891 22.9623C23.4438 22.7063 23.8613 22.2919 24.1417 21.7189C24.5318 20.9143 24.6857 20.957 24.6034 21.8469C24.3047 25.0926 22.6651 27.3067 19.6845 28.4892C19.6454 28.5047 19.6033 28.5115 19.5612 28.509C19.5192 28.5066 19.4782 28.4949 19.4411 28.4748C19.404 28.4548 19.3718 28.4268 19.3468 28.393C19.3217 28.3591 19.3043 28.3202 19.2959 28.2789C18.9119 26.301 18.5417 24.2378 18.1851 22.0892C18.1211 21.696 18.1058 21.3044 18.1394 20.9143C18.1851 20.381 18.2948 20.3673 18.4685 20.8732L19.3965 23.584C19.5154 23.9376 19.7607 24.1098 20.1325 24.1006C20.3062 24.0976 20.4738 24.0305 20.6354 23.8995C20.721 23.8288 20.7858 23.7361 20.8228 23.6315C20.8599 23.5268 20.8678 23.414 20.8457 23.3052C20.4799 21.4949 19.8049 19.6938 18.8205 17.9018C18.6255 17.5452 18.307 17.3776 17.8651 17.3989C16.9264 17.4385 15.9756 17.4431 15.0125 17.4126C14.873 17.4073 14.7345 17.4407 14.612 17.5092C14.4895 17.5777 14.3877 17.6787 14.3177 17.8012L11.8354 22.1395C11.7788 22.2409 11.7533 22.3569 11.7622 22.4732C11.814 23.0492 11.9771 23.3661 12.2514 23.424C12.6628 23.5124 12.9737 23.3738 13.1839 23.008L14.5279 20.672C14.6407 20.474 14.7169 20.4877 14.7565 20.7132C14.8632 21.3197 14.8937 21.8469 14.8479 22.2949C14.6346 24.3033 14.3618 26.3802 14.0297 28.5258C14.0114 28.6416 13.9443 28.6888 13.8285 28.6675C8.40223 27.5978 5.33023 23.6343 6.90737 17.8835C7.13899 17.0423 7.53975 16.3124 8.10966 15.6938C8.13519 15.6656 8.16834 15.6456 8.20513 15.6363C8.24193 15.627 8.28078 15.6287 8.31702 15.6413C8.35325 15.6539 8.38532 15.6767 8.40936 15.7071C8.4334 15.7375 8.44839 15.7742 8.45251 15.8126C8.60337 17.44 8.81366 19.104 10.3771 19.9818C10.6148 20.1159 10.7062 20.0488 10.6514 19.7806ZM16.5011 16.2218C16.9418 16.2441 17.3738 16.0813 17.7021 15.7692C18.0304 15.457 18.228 15.0212 18.2515 14.5574C18.275 14.0936 18.1225 13.64 17.8274 13.2963C17.5324 12.9526 17.119 12.7469 16.6783 12.7246C16.2375 12.7022 15.8055 12.8651 15.4772 13.1772C15.1489 13.4893 14.9513 13.9252 14.9278 14.389C14.9043 14.8527 15.0569 15.3064 15.3519 15.6501C15.6469 15.9938 16.0603 16.1995 16.5011 16.2218Z" fill="#94FF94"/>
<path d="M15.8172 28.4708L16.3201 24.2651C16.3252 24.2288 16.3406 24.1947 16.3645 24.1669C16.3884 24.1391 16.4197 24.1187 16.4548 24.1081C16.4899 24.0976 16.5273 24.0973 16.5626 24.1072C16.5978 24.1172 16.6295 24.1371 16.6538 24.1645C16.8062 24.3352 16.9007 24.5363 16.9372 24.768C17.1445 26.1089 17.3761 27.3859 17.6321 28.5988C17.6504 28.6811 17.6184 28.7207 17.5361 28.7177L16.0138 28.6994C15.9857 28.699 15.9581 28.6926 15.9326 28.6806C15.9071 28.6687 15.8843 28.6514 15.8658 28.6298C15.8473 28.6083 15.8334 28.583 15.8251 28.5556C15.8167 28.5282 15.814 28.4994 15.8172 28.4708Z" fill="#94FF94"/>
</svg>
