<?xml version="1.0" encoding="UTF-8" standalone="no"?>
<!DOCTYPE svg PUBLIC "-//W3C//DTD SVG 1.1//EN" "http://www.w3.org/Graphics/SVG/1.1/DTD/svg11.dtd">
<svg xmlns="http://www.w3.org/2000/svg" version="1.1" viewBox="0.00 0.00 70.00 70.00">
<g stroke-width="2.00" fill="none" stroke-linecap="butt">
<path stroke="#575c63" vector-effect="non-scaling-stroke" d="
  M 22.70 43.71
  C 19.28 41.79 18.82 38.15 18.49 34.59
  A 0.44 0.43 63.8 0 0 17.74 34.33
  Q 15.87 36.36 15.11 39.12
  C 11.66 51.70 18.38 60.37 30.25 62.71
  Q 30.63 62.78 30.69 62.40
  Q 31.78 55.36 32.48 48.77
  Q 32.63 47.30 32.28 45.31
  Q 32.15 44.57 31.78 45.22
  L 28.84 50.33
  Q 28.15 51.53 26.80 51.24
  Q 25.90 51.05 25.73 49.16
  A 1.30 1.29 57.6 0 1 25.89 48.43
  L 31.32 38.94
  A 1.69 1.67 -73.7 0 1 32.84 38.09
  Q 36.00 38.19 39.08 38.06
  Q 40.53 37.99 41.17 39.16
  Q 44.40 45.04 45.60 50.98
  A 1.34 1.34 0.0 0 1 45.14 52.28
  Q 44.61 52.71 44.04 52.72
  Q 42.82 52.75 42.43 51.59
  L 40.40 45.66
  Q 39.83 44.00 39.68 45.75
  Q 39.57 47.03 39.78 48.32
  Q 40.95 55.37 42.21 61.86
  A 0.63 0.63 0.0 0 0 43.06 62.32
  Q 52.84 58.44 53.82 47.79
  Q 54.09 44.87 52.81 47.51
  Q 51.89 49.39 50.07 50.23
  A 0.48 0.48 0.0 0 1 49.40 49.67
  C 52.36 38.12 51.08 25.16 42.08 16.79
  Q 40.55 15.38 40.82 17.44
  C 41.12 19.64 40.74 22.23 37.90 22.28
  Q 34.85 22.34 33.28 20.39
  C 30.83 17.36 34.42 11.69 36.42 9.32
  Q 37.90 7.57 35.86 8.62
  C 29.35 12.01 25.56 18.85 23.14 25.54
  Q 20.79 32.03 21.97 38.48
  C 22.26 40.09 22.98 41.68 23.30 43.27
  Q 23.48 44.15 22.70 43.71"
/>
<path stroke="#575c63" vector-effect="non-scaling-stroke" d="
  M 35.70 53.08
  L 34.60 62.28
  A 0.45 0.44 -85.9 0 0 35.03 62.78
  L 38.36 62.82
  Q 38.63 62.83 38.57 62.56
  Q 37.73 58.58 37.05 54.18
  Q 36.93 53.42 36.43 52.86
  A 0.42 0.42 0.0 0 0 35.70 53.08"
/>
<path stroke="#575c63" vector-effect="non-scaling-stroke" d="
  M 36.0962 35.4851
  A 3.83 3.64 92.9 0 0 39.9253 31.8442
  A 3.83 3.64 92.9 0 0 36.4838 27.8349
  A 3.83 3.64 92.9 0 0 32.6547 31.4758
  A 3.83 3.64 92.9 0 0 36.0962 35.4851"
/>
</g>
<g fill="#2f353e">
<path d="
  M 0.00 0.00
  L 70.00 0.00
  L 70.00 70.00
  L 0.00 70.00
  L 0.00 0.00
  Z
  M 22.70 43.71
  C 19.28 41.79 18.82 38.15 18.49 34.59
  A 0.44 0.43 63.8 0 0 17.74 34.33
  Q 15.87 36.36 15.11 39.12
  C 11.66 51.70 18.38 60.37 30.25 62.71
  Q 30.63 62.78 30.69 62.40
  Q 31.78 55.36 32.48 48.77
  Q 32.63 47.30 32.28 45.31
  Q 32.15 44.57 31.78 45.22
  L 28.84 50.33
  Q 28.15 51.53 26.80 51.24
  Q 25.90 51.05 25.73 49.16
  A 1.30 1.29 57.6 0 1 25.89 48.43
  L 31.32 38.94
  A 1.69 1.67 -73.7 0 1 32.84 38.09
  Q 36.00 38.19 39.08 38.06
  Q 40.53 37.99 41.17 39.16
  Q 44.40 45.04 45.60 50.98
  A 1.34 1.34 0.0 0 1 45.14 52.28
  Q 44.61 52.71 44.04 52.72
  Q 42.82 52.75 42.43 51.59
  L 40.40 45.66
  Q 39.83 44.00 39.68 45.75
  Q 39.57 47.03 39.78 48.32
  Q 40.95 55.37 42.21 61.86
  A 0.63 0.63 0.0 0 0 43.06 62.32
  Q 52.84 58.44 53.82 47.79
  Q 54.09 44.87 52.81 47.51
  Q 51.89 49.39 50.07 50.23
  A 0.48 0.48 0.0 0 1 49.40 49.67
  C 52.36 38.12 51.08 25.16 42.08 16.79
  Q 40.55 15.38 40.82 17.44
  C 41.12 19.64 40.74 22.23 37.90 22.28
  Q 34.85 22.34 33.28 20.39
  C 30.83 17.36 34.42 11.69 36.42 9.32
  Q 37.90 7.57 35.86 8.62
  C 29.35 12.01 25.56 18.85 23.14 25.54
  Q 20.79 32.03 21.97 38.48
  C 22.26 40.09 22.98 41.68 23.30 43.27
  Q 23.48 44.15 22.70 43.71
  Z
  M 35.70 53.08
  L 34.60 62.28
  A 0.45 0.44 -85.9 0 0 35.03 62.78
  L 38.36 62.82
  Q 38.63 62.83 38.57 62.56
  Q 37.73 58.58 37.05 54.18
  Q 36.93 53.42 36.43 52.86
  A 0.42 0.42 0.0 0 0 35.70 53.08
  Z"
/>
<ellipse cx="0.00" cy="0.00" transform="translate(36.29,31.66) rotate(92.9)" rx="3.83" ry="3.64"/>
</g>
<g fill="#94ff94">
<path d="
  M 23.30 43.27
  C 22.98 41.68 22.26 40.09 21.97 38.48
  Q 20.79 32.03 23.14 25.54
  C 25.56 18.85 29.35 12.01 35.86 8.62
  Q 37.90 7.57 36.42 9.32
  C 34.42 11.69 30.83 17.36 33.28 20.39
  Q 34.85 22.34 37.90 22.28
  C 40.74 22.23 41.12 19.64 40.82 17.44
  Q 40.55 15.38 42.08 16.79
  C 51.08 25.16 52.36 38.12 49.40 49.67
  A 0.48 0.48 0.0 0 0 50.07 50.23
  Q 51.89 49.39 52.81 47.51
  Q 54.09 44.87 53.82 47.79
  Q 52.84 58.44 43.06 62.32
  A 0.63 0.63 0.0 0 1 42.21 61.86
  Q 40.95 55.37 39.78 48.32
  Q 39.57 47.03 39.68 45.75
  Q 39.83 44.00 40.40 45.66
  L 42.43 51.59
  Q 42.82 52.75 44.04 52.72
  Q 44.61 52.71 45.14 52.28
  A 1.34 1.34 0.0 0 0 45.60 50.98
  Q 44.40 45.04 41.17 39.16
  Q 40.53 37.99 39.08 38.06
  Q 36.00 38.19 32.84 38.09
  A 1.69 1.67 -73.7 0 0 31.32 38.94
  L 25.89 48.43
  A 1.30 1.29 57.6 0 0 25.73 49.16
  Q 25.90 51.05 26.80 51.24
  Q 28.15 51.53 28.84 50.33
  L 31.78 45.22
  Q 32.15 44.57 32.28 45.31
  Q 32.63 47.30 32.48 48.77
  Q 31.78 55.36 30.69 62.40
  Q 30.63 62.78 30.25 62.71
  C 18.38 60.37 11.66 51.70 15.11 39.12
  Q 15.87 36.36 17.74 34.33
  A 0.44 0.43 63.8 0 1 18.49 34.59
  C 18.82 38.15 19.28 41.79 22.70 43.71
  Q 23.48 44.15 23.30 43.27
  Z
  M 36.0962 35.4851
  A 3.83 3.64 92.9 0 0 39.9253 31.8442
  A 3.83 3.64 92.9 0 0 36.4838 27.8349
  A 3.83 3.64 92.9 0 0 32.6547 31.4758
  A 3.83 3.64 92.9 0 0 36.0962 35.4851
  Z"
/>
<path d="
  M 34.60 62.28
  L 35.70 53.08
  A 0.42 0.42 0.0 0 1 36.43 52.86
  Q 36.93 53.42 37.05 54.18
  Q 37.73 58.58 38.57 62.56
  Q 38.63 62.83 38.36 62.82
  L 35.03 62.78
  A 0.45 0.44 -85.9 0 1 34.60 62.28
  Z"
/>
</g>
</svg>
