<?xml version="1.0" encoding="UTF-8" standalone="no"?>
<!DOCTYPE svg PUBLIC "-//W3C//DTD SVG 1.1//EN" "http://www.w3.org/Graphics/SVG/1.1/DTD/svg11.dtd">
<svg xmlns="http://www.w3.org/2000/svg" version="1.1" viewBox="0.00 0.00 70.00 70.00">
<g stroke-width="2.00" fill="none" stroke-linecap="butt">
<path stroke="#575c63" vector-effect="non-scaling-stroke" d="
  M 56.46 45.65
  Q 57.28 45.30 58.07 45.74
  A 0.62 0.60 11.2 0 1 58.38 46.19
  Q 58.74 48.58 61.57 48.08
  Q 62.84 47.85 62.84 46.56
  L 62.78 32.68
  Q 62.77 32.01 62.13 31.82
  Q 59.04 30.91 58.32 33.44
  Q 58.17 33.96 57.68 34.17
  Q 56.97 34.49 56.40 33.99
  Q 55.91 33.56 55.91 32.88
  C 55.87 27.35 55.89 27.23 50.23 26.99
  C 47.44 26.87 47.10 23.53 44.64 22.91
  Q 42.74 22.42 40.71 22.41
  A 0.77 0.76 0.0 0 1 39.95 21.66
  L 39.95 21.39
  Q 39.94 20.22 41.11 20.21
  L 45.05 20.18
  Q 46.76 20.16 46.75 18.45
  L 46.75 17.00
  Q 46.74 15.51 45.25 15.49
  L 30.09 15.32
  Q 27.98 15.30 27.86 17.41
  L 27.83 17.99
  Q 27.69 20.28 29.99 20.27
  L 34.06 20.26
  A 1.05 1.04 90.0 0 1 35.10 21.31
  L 35.09 21.71
  Q 35.09 22.47 34.32 22.48
  C 31.46 22.54 27.75 21.57 25.85 24.40
  Q 23.95 27.25 22.13 30.10
  C 21.30 31.41 20.12 32.19 18.55 32.40
  A 2.37 2.37 0.0 0 0 16.50 34.75
  L 16.50 45.50
  A 2.36 2.36 0.0 0 0 18.68 47.85
  C 21.09 48.03 25.30 47.56 27.08 49.41
  Q 29.29 51.72 31.62 54.03
  A 2.61 2.59 67.5 0 0 33.42 54.78
  Q 41.30 54.82 49.00 54.89
  C 51.26 54.91 53.93 51.23 55.34 49.59
  Q 55.70 49.18 55.75 48.64
  L 55.99 46.29
  Q 56.04 45.83 56.46 45.65"
/>
<path stroke="#575c63" vector-effect="non-scaling-stroke" d="
  M 11.73 37.93
  L 11.65 33.22
  A 1.52 1.52 0.0 0 0 10.13 31.72
  L 8.51 31.72
  Q 7.23 31.72 7.24 32.99
  L 7.26 46.75
  Q 7.26 47.98 8.50 48.00
  L 10.05 48.02
  Q 11.41 48.05 11.54 46.70
  L 11.78 44.26
  Q 11.85 43.63 12.45 43.46
  Q 14.78 42.79 14.06 39.46
  Q 13.92 38.82 13.27 38.84
  Q 12.70 38.86 12.17 38.62
  Q 11.73 38.42 11.73 37.93"
/>
<path stroke="#575c63" vector-effect="non-scaling-stroke" d="
  M 35.87 36.28
  Q 35.85 36.97 35.53 37.57
  A 1.21 1.19 50.3 0 0 35.45 38.51
  Q 35.76 39.44 36.74 39.97
  A 1.08 1.08 0.0 0 1 36.95 41.70
  L 35.76 42.81
  Q 35.33 43.21 35.37 43.80
  Q 35.48 45.80 37.42 45.74
  Q 38.03 45.72 38.65 45.63
  A 0.82 0.81 -7.8 0 1 39.57 46.32
  Q 39.72 47.39 39.47 48.42
  A 0.94 0.93 19.0 0 0 40.00 49.50
  L 41.36 50.12
  Q 41.87 50.34 42.22 49.92
  L 43.70 48.17
  A 0.75 0.74 43.6 0 1 44.82 48.15
  L 46.40 49.88
  Q 46.84 50.37 47.43 50.09
  L 48.86 49.43
  A 0.66 0.66 0.0 0 0 49.21 48.62
  Q 48.82 47.47 49.15 46.21
  A 0.66 0.65 9.3 0 1 49.82 45.73
  L 51.82 45.86
  Q 52.39 45.90 52.71 45.43
  Q 53.13 44.82 53.36 44.11
  Q 53.53 43.55 53.10 43.15
  L 51.61 41.75
  A 0.87 0.87 0.0 0 1 51.62 40.47
  L 53.07 39.18
  Q 53.61 38.69 53.38 38.01
  C 53.04 37.00 52.38 36.27 51.20 36.41
  Q 50.52 36.49 49.86 36.45
  Q 49.34 36.42 49.23 35.90
  Q 49.00 34.76 49.24 33.65
  A 0.83 0.81 -64.9 0 0 48.96 32.85
  Q 48.23 32.26 47.30 32.08
  A 1.02 1.01 25.0 0 0 46.33 32.43
  L 45.18 33.78
  A 0.98 0.98 0.0 0 1 43.65 33.75
  L 42.78 32.62
  A 1.66 1.66 0.0 0 0 39.82 33.41
  L 39.53 35.53
  Q 39.45 36.11 38.90 36.29
  Q 38.24 36.50 37.55 36.30
  A 0.84 0.83 -88.2 0 1 36.98 35.69
  L 36.39 33.04
  A 1.25 1.25 0.0 0 1 36.68 31.95
  Q 37.21 31.36 36.88 30.76
  Q 36.64 30.33 36.17 30.18
  Q 34.87 29.74 34.50 28.43
  Q 34.34 27.86 33.78 27.70
  Q 33.23 27.53 32.72 27.79
  Q 32.09 28.09 31.42 27.93
  L 29.98 27.59
  A 0.84 0.83 17.1 0 0 29.02 28.09
  Q 28.40 29.68 26.70 30.39
  A 0.69 0.69 0.0 0 0 26.36 31.33
  Q 27.10 32.76 26.40 34.30
  Q 26.06 35.04 26.78 35.45
  Q 28.01 36.14 28.69 37.37
  A 1.36 1.33 -13.4 0 0 29.84 38.06
  L 33.58 38.14
  Q 34.36 38.15 34.49 37.38
  Q 34.62 36.54 35.23 35.99
  Q 35.88 35.39 35.87 36.28"
/>
<path stroke="#575c63" vector-effect="non-scaling-stroke" d="
  M 33.74 32.92
  A 2.10 2.10 0.0 0 0 31.64 30.82
  A 2.10 2.10 0.0 0 0 29.54 32.92
  A 2.10 2.10 0.0 0 0 31.64 35.02
  A 2.10 2.10 0.0 0 0 33.74 32.92"
/>
<path stroke="#575c63" vector-effect="non-scaling-stroke" d="
  M 47.72 41.02
  A 3.36 3.36 0.0 0 0 44.36 37.66
  A 3.36 3.36 0.0 0 0 41.00 41.02
  A 3.36 3.36 0.0 0 0 44.36 44.38
  A 3.36 3.36 0.0 0 0 47.72 41.02"
/>
</g>
<g fill="#2f353e">
<path d="
  M 0.00 0.00
  L 70.00 0.00
  L 70.00 70.00
  L 0.00 70.00
  L 0.00 0.00
  Z
  M 56.46 45.65
  Q 57.28 45.30 58.07 45.74
  A 0.62 0.60 11.2 0 1 58.38 46.19
  Q 58.74 48.58 61.57 48.08
  Q 62.84 47.85 62.84 46.56
  L 62.78 32.68
  Q 62.77 32.01 62.13 31.82
  Q 59.04 30.91 58.32 33.44
  Q 58.17 33.96 57.68 34.17
  Q 56.97 34.49 56.40 33.99
  Q 55.91 33.56 55.91 32.88
  C 55.87 27.35 55.89 27.23 50.23 26.99
  C 47.44 26.87 47.10 23.53 44.64 22.91
  Q 42.74 22.42 40.71 22.41
  A 0.77 0.76 0.0 0 1 39.95 21.66
  L 39.95 21.39
  Q 39.94 20.22 41.11 20.21
  L 45.05 20.18
  Q 46.76 20.16 46.75 18.45
  L 46.75 17.00
  Q 46.74 15.51 45.25 15.49
  L 30.09 15.32
  Q 27.98 15.30 27.86 17.41
  L 27.83 17.99
  Q 27.69 20.28 29.99 20.27
  L 34.06 20.26
  A 1.05 1.04 90.0 0 1 35.10 21.31
  L 35.09 21.71
  Q 35.09 22.47 34.32 22.48
  C 31.46 22.54 27.75 21.57 25.85 24.40
  Q 23.95 27.25 22.13 30.10
  C 21.30 31.41 20.12 32.19 18.55 32.40
  A 2.37 2.37 0.0 0 0 16.50 34.75
  L 16.50 45.50
  A 2.36 2.36 0.0 0 0 18.68 47.85
  C 21.09 48.03 25.30 47.56 27.08 49.41
  Q 29.29 51.72 31.62 54.03
  A 2.61 2.59 67.5 0 0 33.42 54.78
  Q 41.30 54.82 49.00 54.89
  C 51.26 54.91 53.93 51.23 55.34 49.59
  Q 55.70 49.18 55.75 48.64
  L 55.99 46.29
  Q 56.04 45.83 56.46 45.65
  Z
  M 11.73 37.93
  L 11.65 33.22
  A 1.52 1.52 0.0 0 0 10.13 31.72
  L 8.51 31.72
  Q 7.23 31.72 7.24 32.99
  L 7.26 46.75
  Q 7.26 47.98 8.50 48.00
  L 10.05 48.02
  Q 11.41 48.05 11.54 46.70
  L 11.78 44.26
  Q 11.85 43.63 12.45 43.46
  Q 14.78 42.79 14.06 39.46
  Q 13.92 38.82 13.27 38.84
  Q 12.70 38.86 12.17 38.62
  Q 11.73 38.42 11.73 37.93
  Z"
/>
<path d="
  M 35.23 35.99
  Q 34.62 36.54 34.49 37.38
  Q 34.36 38.15 33.58 38.14
  L 29.84 38.06
  A 1.36 1.33 -13.4 0 1 28.69 37.37
  Q 28.01 36.14 26.78 35.45
  Q 26.06 35.04 26.40 34.30
  Q 27.10 32.76 26.36 31.33
  A 0.69 0.69 0.0 0 1 26.70 30.39
  Q 28.40 29.68 29.02 28.09
  A 0.84 0.83 17.1 0 1 29.98 27.59
  L 31.42 27.93
  Q 32.09 28.09 32.72 27.79
  Q 33.23 27.53 33.78 27.70
  Q 34.34 27.86 34.50 28.43
  Q 34.87 29.74 36.17 30.18
  Q 36.64 30.33 36.88 30.76
  Q 37.21 31.36 36.68 31.95
  A 1.25 1.25 0.0 0 0 36.39 33.04
  L 36.98 35.69
  A 0.84 0.83 -88.2 0 0 37.55 36.30
  Q 38.24 36.50 38.90 36.29
  Q 39.45 36.11 39.53 35.53
  L 39.82 33.41
  A 1.66 1.66 0.0 0 1 42.78 32.62
  L 43.65 33.75
  A 0.98 0.98 0.0 0 0 45.18 33.78
  L 46.33 32.43
  A 1.02 1.01 25.0 0 1 47.30 32.08
  Q 48.23 32.26 48.96 32.85
  A 0.83 0.81 -64.9 0 1 49.24 33.65
  Q 49.00 34.76 49.23 35.90
  Q 49.34 36.42 49.86 36.45
  Q 50.52 36.49 51.20 36.41
  C 52.38 36.27 53.04 37.00 53.38 38.01
  Q 53.61 38.69 53.07 39.18
  L 51.62 40.47
  A 0.87 0.87 0.0 0 0 51.61 41.75
  L 53.10 43.15
  Q 53.53 43.55 53.36 44.11
  Q 53.13 44.82 52.71 45.43
  Q 52.39 45.90 51.82 45.86
  L 49.82 45.73
  A 0.66 0.65 9.3 0 0 49.15 46.21
  Q 48.82 47.47 49.21 48.62
  A 0.66 0.66 0.0 0 1 48.86 49.43
  L 47.43 50.09
  Q 46.84 50.37 46.40 49.88
  L 44.82 48.15
  A 0.75 0.74 43.6 0 0 43.70 48.17
  L 42.22 49.92
  Q 41.87 50.34 41.36 50.12
  L 40.00 49.50
  A 0.94 0.93 19.0 0 1 39.47 48.42
  Q 39.72 47.39 39.57 46.32
  A 0.82 0.81 -7.8 0 0 38.65 45.63
  Q 38.03 45.72 37.42 45.74
  Q 35.48 45.80 35.37 43.80
  Q 35.33 43.21 35.76 42.81
  L 36.95 41.70
  A 1.08 1.08 0.0 0 0 36.74 39.97
  Q 35.76 39.44 35.45 38.51
  A 1.21 1.19 50.3 0 1 35.53 37.57
  Q 35.85 36.97 35.87 36.28
  Q 35.88 35.39 35.23 35.99
  Z
  M 33.74 32.92
  A 2.10 2.10 0.0 0 0 31.64 30.82
  A 2.10 2.10 0.0 0 0 29.54 32.92
  A 2.10 2.10 0.0 0 0 31.64 35.02
  A 2.10 2.10 0.0 0 0 33.74 32.92
  Z
  M 47.72 41.02
  A 3.36 3.36 0.0 0 0 44.36 37.66
  A 3.36 3.36 0.0 0 0 41.00 41.02
  A 3.36 3.36 0.0 0 0 44.36 44.38
  A 3.36 3.36 0.0 0 0 47.72 41.02
  Z"
/>
</g>
<g fill="#94ff94">
<path d="
  M 55.99 46.29
  L 55.75 48.64
  Q 55.70 49.18 55.34 49.59
  C 53.93 51.23 51.26 54.91 49.00 54.89
  Q 41.30 54.82 33.42 54.78
  A 2.61 2.59 67.5 0 1 31.62 54.03
  Q 29.29 51.72 27.08 49.41
  C 25.30 47.56 21.09 48.03 18.68 47.85
  A 2.36 2.36 0.0 0 1 16.50 45.50
  L 16.50 34.75
  A 2.37 2.37 0.0 0 1 18.55 32.40
  C 20.12 32.19 21.30 31.41 22.13 30.10
  Q 23.95 27.25 25.85 24.40
  C 27.75 21.57 31.46 22.54 34.32 22.48
  Q 35.09 22.47 35.09 21.71
  L 35.10 21.31
  A 1.05 1.04 -90.0 0 0 34.06 20.26
  L 29.99 20.27
  Q 27.69 20.28 27.83 17.99
  L 27.86 17.41
  Q 27.98 15.30 30.09 15.32
  L 45.25 15.49
  Q 46.74 15.51 46.75 17.00
  L 46.75 18.45
  Q 46.76 20.16 45.05 20.18
  L 41.11 20.21
  Q 39.94 20.22 39.95 21.39
  L 39.95 21.66
  A 0.77 0.76 0.0 0 0 40.71 22.41
  Q 42.74 22.42 44.64 22.91
  C 47.10 23.53 47.44 26.87 50.23 26.99
  C 55.89 27.23 55.87 27.35 55.91 32.88
  Q 55.91 33.56 56.40 33.99
  Q 56.97 34.49 57.68 34.17
  Q 58.17 33.96 58.32 33.44
  Q 59.04 30.91 62.13 31.82
  Q 62.77 32.01 62.78 32.68
  L 62.84 46.56
  Q 62.84 47.85 61.57 48.08
  Q 58.74 48.58 58.38 46.19
  A 0.62 0.60 11.2 0 0 58.07 45.74
  Q 57.28 45.30 56.46 45.65
  Q 56.04 45.83 55.99 46.29
  Z
  M 35.87 36.28
  Q 35.85 36.97 35.53 37.57
  A 1.21 1.19 50.3 0 0 35.45 38.51
  Q 35.76 39.44 36.74 39.97
  A 1.08 1.08 0.0 0 1 36.95 41.70
  L 35.76 42.81
  Q 35.33 43.21 35.37 43.80
  Q 35.48 45.80 37.42 45.74
  Q 38.03 45.72 38.65 45.63
  A 0.82 0.81 -7.8 0 1 39.57 46.32
  Q 39.72 47.39 39.47 48.42
  A 0.94 0.93 19.0 0 0 40.00 49.50
  L 41.36 50.12
  Q 41.87 50.34 42.22 49.92
  L 43.70 48.17
  A 0.75 0.74 43.6 0 1 44.82 48.15
  L 46.40 49.88
  Q 46.84 50.37 47.43 50.09
  L 48.86 49.43
  A 0.66 0.66 0.0 0 0 49.21 48.62
  Q 48.82 47.47 49.15 46.21
  A 0.66 0.65 9.3 0 1 49.82 45.73
  L 51.82 45.86
  Q 52.39 45.90 52.71 45.43
  Q 53.13 44.82 53.36 44.11
  Q 53.53 43.55 53.10 43.15
  L 51.61 41.75
  A 0.87 0.87 0.0 0 1 51.62 40.47
  L 53.07 39.18
  Q 53.61 38.69 53.38 38.01
  C 53.04 37.00 52.38 36.27 51.20 36.41
  Q 50.52 36.49 49.86 36.45
  Q 49.34 36.42 49.23 35.90
  Q 49.00 34.76 49.24 33.65
  A 0.83 0.81 -64.9 0 0 48.96 32.85
  Q 48.23 32.26 47.30 32.08
  A 1.02 1.01 25.0 0 0 46.33 32.43
  L 45.18 33.78
  A 0.98 0.98 0.0 0 1 43.65 33.75
  L 42.78 32.62
  A 1.66 1.66 0.0 0 0 39.82 33.41
  L 39.53 35.53
  Q 39.45 36.11 38.90 36.29
  Q 38.24 36.50 37.55 36.30
  A 0.84 0.83 -88.2 0 1 36.98 35.69
  L 36.39 33.04
  A 1.25 1.25 0.0 0 1 36.68 31.95
  Q 37.21 31.36 36.88 30.76
  Q 36.64 30.33 36.17 30.18
  Q 34.87 29.74 34.50 28.43
  Q 34.34 27.86 33.78 27.70
  Q 33.23 27.53 32.72 27.79
  Q 32.09 28.09 31.42 27.93
  L 29.98 27.59
  A 0.84 0.83 17.1 0 0 29.02 28.09
  Q 28.40 29.68 26.70 30.39
  A 0.69 0.69 0.0 0 0 26.36 31.33
  Q 27.10 32.76 26.40 34.30
  Q 26.06 35.04 26.78 35.45
  Q 28.01 36.14 28.69 37.37
  A 1.36 1.33 -13.4 0 0 29.84 38.06
  L 33.58 38.14
  Q 34.36 38.15 34.49 37.38
  Q 34.62 36.54 35.23 35.99
  Q 35.88 35.39 35.87 36.28
  Z"
/>
<circle cx="31.64" cy="32.92" r="2.10"/>
<path d="
  M 12.17 38.62
  Q 12.70 38.86 13.27 38.84
  Q 13.92 38.82 14.06 39.46
  Q 14.78 42.79 12.45 43.46
  Q 11.85 43.63 11.78 44.26
  L 11.54 46.70
  Q 11.41 48.05 10.05 48.02
  L 8.50 48.00
  Q 7.26 47.98 7.26 46.75
  L 7.24 32.99
  Q 7.23 31.72 8.51 31.72
  L 10.13 31.72
  A 1.52 1.52 0.0 0 1 11.65 33.22
  L 11.73 37.93
  Q 11.73 38.42 12.17 38.62
  Z"
/>
<circle cx="44.36" cy="41.02" r="3.36"/>
</g>
</svg>
