<svg width="32" height="32" viewBox="0 0 32 32" fill="none" xmlns="http://www.w3.org/2000/svg">
<path d="M25.5955 21.1611L25.4858 22.2354C25.4706 22.4 25.4081 22.5447 25.2984 22.6697C24.6538 23.4194 23.4333 25.1017 22.4001 25.0925C20.0534 25.0712 17.6793 25.0544 15.2778 25.0422C14.9703 25.0394 14.6752 24.9164 14.455 24.6994C13.7449 23.9954 13.0531 23.2914 12.3795 22.5874C11.5658 21.7417 9.64125 21.9565 8.53954 21.8742C8.26869 21.8535 8.01563 21.7314 7.83089 21.5322C7.64615 21.3331 7.54333 21.0716 7.54297 20.8V15.8857C7.54278 15.6235 7.63764 15.3702 7.80996 15.1727C7.98228 14.9751 8.22038 14.8468 8.48011 14.8114C9.19783 14.7154 9.73725 14.3588 10.1167 13.76C10.6713 12.8914 11.2382 12.0228 11.8173 11.1542C12.6858 9.86052 14.3818 10.304 15.6893 10.2765C15.9239 10.2735 16.0413 10.1561 16.0413 9.92452L16.0458 9.74167C16.0458 9.61436 15.9957 9.49227 15.9066 9.40226C15.8174 9.31224 15.6965 9.26167 15.5704 9.26167L13.7098 9.26624C13.0089 9.26929 12.6797 8.92186 12.7224 8.22395L12.7361 7.95881C12.7727 7.31576 13.1125 6.99729 13.7555 7.00338L20.6858 7.0811C21.1399 7.08719 21.3685 7.31729 21.3715 7.77138V8.43424C21.3746 8.95538 21.1155 9.219 20.5944 9.2251L18.7933 9.23881C18.4367 9.24186 18.2599 9.42167 18.263 9.77824V9.90167C18.2642 9.99224 18.3012 10.0788 18.3661 10.1428C18.431 10.2069 18.5186 10.2434 18.6104 10.2445C19.2291 10.2476 19.8279 10.3238 20.407 10.4731C21.5315 10.7565 21.687 12.2834 22.9624 12.3382C25.5498 12.448 25.5407 12.5028 25.559 15.0308C25.559 15.238 25.6336 15.4072 25.783 15.5382C25.9567 15.6906 26.1517 15.718 26.3681 15.6205C26.5174 15.5565 26.615 15.4453 26.6607 15.2868C26.8801 14.5158 27.4607 14.2689 28.4024 14.5462C28.5974 14.6041 28.6965 14.7352 28.6995 14.9394L28.727 21.2845C28.727 21.6777 28.5334 21.9093 28.1464 21.9794C27.2839 22.1318 26.7978 21.8438 26.6881 21.1154C26.6825 21.073 26.6667 21.0323 26.6421 20.9966C26.6175 20.9609 26.5847 20.9311 26.5464 20.9097C26.3056 20.7756 26.0603 20.7619 25.8104 20.8685C25.6824 20.9234 25.6108 21.0209 25.5955 21.1611ZM16.3978 16.5851C16.3917 16.7954 16.3399 16.992 16.2424 17.1748C16.2076 17.2398 16.1865 17.3113 16.1802 17.3852C16.1739 17.459 16.1826 17.5337 16.2058 17.6045C16.3003 17.888 16.4969 18.1104 16.7955 18.272C16.8632 18.3099 16.921 18.3633 16.9642 18.4278C17.0074 18.4923 17.0347 18.566 17.0441 18.643C17.0534 18.7201 17.0445 18.7982 17.018 18.8712C16.9915 18.9441 16.9482 19.0098 16.8915 19.0628L16.3475 19.5702C16.2165 19.6921 16.1571 19.843 16.1693 20.0228C16.2028 20.6323 16.5152 20.928 17.1064 20.9097C17.2923 20.9036 17.4797 20.8868 17.6687 20.8594C17.7669 20.8462 17.8663 20.872 17.9451 20.9311C18.024 20.9902 18.0758 21.0778 18.0893 21.1748C18.135 21.5009 18.1197 21.8209 18.0435 22.1348C18.0191 22.2318 18.0299 22.3345 18.0743 22.4248C18.1186 22.5152 18.1935 22.5873 18.2858 22.6285L18.9075 22.912C19.063 22.979 19.194 22.9485 19.3007 22.8205L19.9773 22.0205C20.0081 21.9835 20.0465 21.9536 20.0901 21.9329C20.1336 21.9121 20.1812 21.9009 20.2296 21.9C20.2781 21.8991 20.3263 21.9086 20.3711 21.9278C20.4159 21.947 20.4562 21.9755 20.4893 22.0114L21.2115 22.8022C21.3456 22.9516 21.5026 22.9836 21.6824 22.8982L22.3361 22.5965C22.4038 22.5654 22.4575 22.5104 22.4871 22.442C22.5166 22.3737 22.5198 22.2968 22.4961 22.2262C22.3773 21.8758 22.3681 21.5085 22.4687 21.1245C22.4863 21.0588 22.5264 21.0011 22.5822 20.9612C22.6379 20.9212 22.706 20.9014 22.775 20.9051L23.6893 20.9645C23.863 20.9767 23.9986 20.9112 24.0961 20.768C24.2241 20.582 24.3232 20.3809 24.3933 20.1645C24.4451 19.9939 24.4054 19.8476 24.2744 19.7257L23.5933 19.0857C23.5531 19.0481 23.5212 19.0026 23.4995 18.9521C23.4778 18.9016 23.4668 18.8471 23.4672 18.7921C23.4677 18.7371 23.4795 18.6828 23.502 18.6326C23.5244 18.5824 23.5571 18.5375 23.5978 18.5005L24.2607 17.9108C24.4253 17.7615 24.4725 17.5832 24.4024 17.376C24.247 16.9142 23.9453 16.5805 23.4058 16.6445C23.1986 16.6689 22.9944 16.675 22.7933 16.6628C22.6348 16.6537 22.5388 16.5699 22.5053 16.4114C22.4352 16.064 22.4367 15.7211 22.5098 15.3828C22.5235 15.3152 22.5189 15.2453 22.4963 15.1809C22.4737 15.1164 22.4342 15.0598 22.3818 15.0171C22.1593 14.8373 21.9064 14.72 21.623 14.6651C21.5411 14.6499 21.4568 14.6567 21.3788 14.6848C21.3008 14.7129 21.232 14.7614 21.1795 14.8251L20.6538 15.4422C20.6108 15.4939 20.5568 15.5351 20.4957 15.563C20.4346 15.5909 20.368 15.6047 20.3008 15.6034C20.2337 15.6021 20.1677 15.5857 20.1077 15.5554C20.0477 15.5252 19.9953 15.4818 19.9544 15.4285L19.5567 14.912C19.4653 14.7933 19.3409 14.7044 19.1991 14.6564C19.0573 14.6083 18.9045 14.6033 18.7598 14.6419C18.6152 14.6805 18.4852 14.761 18.3862 14.8733C18.2872 14.9856 18.2237 15.1247 18.2035 15.2731L18.071 16.2422C18.0466 16.419 17.9506 16.5348 17.783 16.5897C17.5818 16.6537 17.3761 16.6552 17.1658 16.5942C17.102 16.575 17.0443 16.5391 16.9986 16.4902C16.9529 16.4412 16.9207 16.3809 16.9053 16.3154L16.6355 15.104C16.617 15.0163 16.6194 14.9256 16.6424 14.839C16.6655 14.7525 16.7085 14.6725 16.7681 14.6057C16.9296 14.4259 16.9601 14.2445 16.8595 14.0617C16.7864 13.9306 16.6782 13.8422 16.535 13.7965C16.1388 13.6624 15.8843 13.3958 15.7715 12.9965C15.7228 12.8228 15.6131 12.7116 15.4424 12.6628C15.2748 12.611 15.1133 12.6247 14.9578 12.704C14.7658 12.7954 14.5677 12.8167 14.3635 12.768L13.7053 12.6125C13.6163 12.5926 13.5232 12.6047 13.4428 12.6466C13.3624 12.6885 13.2999 12.7574 13.2664 12.8411C13.0774 13.3257 12.7239 13.6761 12.2058 13.8925C12.1667 13.9097 12.1315 13.9346 12.1023 13.9659C12.0731 13.9971 12.0505 14.0339 12.036 14.0741C12.0215 14.1142 12.0152 14.157 12.0177 14.1996C12.0202 14.2423 12.0313 14.284 12.0504 14.3222C12.2759 14.758 12.282 15.2106 12.0687 15.68C11.9651 15.9055 12.023 16.0807 12.2424 16.2057C12.6173 16.416 12.9083 16.7085 13.1155 17.0834C13.1669 17.1767 13.2425 17.255 13.3347 17.3103C13.427 17.3657 13.5327 17.3962 13.6413 17.3988L15.351 17.4354C15.5887 17.4384 15.7274 17.3226 15.767 17.088C15.8066 16.832 15.9193 16.6201 16.1053 16.4525C16.3033 16.2697 16.4009 16.3139 16.3978 16.5851Z" fill="#94FF94"/>
<path d="M14.4639 16.0091C14.9941 16.0091 15.4239 15.5793 15.4239 15.0491C15.4239 14.5189 14.9941 14.0891 14.4639 14.0891C13.9337 14.0891 13.5039 14.5189 13.5039 15.0491C13.5039 15.5793 13.9337 16.0091 14.4639 16.0091Z" fill="#94FF94"/>
<path d="M5.56332 17.6549C5.72484 17.728 5.89246 17.7616 6.06618 17.7555C6.26427 17.7494 6.38465 17.8438 6.42732 18.0389C6.64675 19.0538 6.40142 19.6633 5.69132 19.8675C5.50846 19.9193 5.40637 20.0412 5.38503 20.2332L5.27532 21.3486C5.2357 21.76 5.00865 21.9612 4.59418 21.952L3.88561 21.9429C3.5077 21.9368 3.31875 21.7463 3.31875 21.3715L3.30961 15.0812C3.30656 14.6941 3.50008 14.5006 3.89018 14.5006H4.63075C4.81346 14.5006 4.98883 14.5725 5.11888 14.7009C5.24893 14.8292 5.3232 15.0036 5.32561 15.1863L5.36218 17.3395C5.36218 17.4888 5.42922 17.5939 5.56332 17.6549Z" fill="#94FF94"/>
<path d="M20.2789 20.2879C21.1272 20.2879 21.8149 19.6003 21.8149 18.7519C21.8149 17.9036 21.1272 17.2159 20.2789 17.2159C19.4306 17.2159 18.7429 17.9036 18.7429 18.7519C18.7429 19.6003 19.4306 20.2879 20.2789 20.2879Z" fill="#94FF94"/>
</svg>
