<svg width="32" height="32" viewBox="0 0 32 32" fill="none" xmlns="http://www.w3.org/2000/svg">
<path d="M20.8504 17.6138C20.3109 17.3395 19.9757 16.8747 19.8447 16.2195C19.5521 14.7688 19.2687 13.3517 18.9944 11.9681C18.7628 10.7947 19.2702 9.9993 20.5167 9.58177C21.629 9.20996 22.6744 8.8473 23.6527 8.49377C23.8583 8.41925 24.0381 8.284 24.1692 8.1052L26.6241 4.69034C26.7049 4.57952 26.8153 4.49121 26.9441 4.43434C27.9528 4.00463 28.4953 4.32768 28.5715 5.40349C28.5891 5.64496 28.5175 5.88413 28.3704 6.07549C27.5963 7.09644 26.8359 8.15701 26.0892 9.2572C25.2298 10.5189 24.0275 10.8069 22.6972 11.1406C22.5296 11.1833 22.458 11.29 22.4824 11.4606C22.7612 13.3166 23.4881 15.3463 23.2687 17.2161C23.1132 18.5646 23.1635 20.6081 22.3041 21.7509C21.4294 22.9212 20.5502 24.0961 19.6664 25.2755C19.2641 25.8119 18.781 25.8987 18.2172 25.5361L18.1212 25.4766C17.932 25.3555 17.7984 25.1645 17.7496 24.9452C17.7008 24.726 17.7407 24.4963 17.8607 24.3063C18.5586 23.2062 19.3662 22.0938 20.2835 20.9692C20.9875 20.1052 20.9327 18.9989 21.0424 17.9703C21.0504 17.8979 21.0363 17.825 21.0019 17.7612C20.9676 17.6974 20.9147 17.646 20.8504 17.6138Z" fill="#94FF94"/>
<path d="M18.9805 8.90966C20.1242 8.90966 21.0514 7.9825 21.0514 6.8388C21.0514 5.6951 20.1242 4.76794 18.9805 4.76794C17.8368 4.76794 16.9097 5.6951 16.9097 6.8388C16.9097 7.9825 17.8368 8.90966 18.9805 8.90966Z" fill="#94FF94"/>
<path d="M6.79305 8.62626L3.74391 10.4731C3.72259 10.486 3.69827 10.493 3.67338 10.4934C3.6485 10.4939 3.62393 10.4878 3.60215 10.4758C3.58037 10.4637 3.56214 10.4461 3.54931 10.4248C3.53648 10.4035 3.52949 10.3791 3.52905 10.3543L3.54734 7.78512C3.54698 7.76035 3.55313 7.73591 3.56516 7.71426C3.57719 7.6926 3.59469 7.67447 3.61591 7.66169L6.8662 5.72798C6.88827 5.71467 6.91356 5.70764 6.93934 5.70764C6.96512 5.70764 6.9904 5.71467 7.01248 5.72798L10.2308 7.65255C10.2513 7.66493 10.2684 7.68233 10.2804 7.70312C10.2924 7.72391 10.2989 7.74741 10.2993 7.7714L10.3405 10.3634C10.3408 10.3887 10.3344 10.4136 10.3219 10.4356C10.3094 10.4575 10.2913 10.4758 10.2694 10.4883C10.2475 10.5009 10.2226 10.5074 10.1973 10.5072C10.172 10.5069 10.1473 10.4999 10.1256 10.4868L6.93934 8.62169C6.91685 8.60907 6.89134 8.60282 6.86556 8.60363C6.83978 8.60444 6.81471 8.61226 6.79305 8.62626Z" fill="#94FF94"/>
<path d="M6.78392 14.5417L3.74392 16.3977C3.72228 16.4107 3.69753 16.4178 3.67226 16.418C3.64698 16.4183 3.62209 16.4118 3.60018 16.3992C3.57826 16.3866 3.56011 16.3684 3.5476 16.3464C3.5351 16.3244 3.5287 16.2995 3.52907 16.2743L3.54278 13.7005C3.54243 13.6758 3.54857 13.6513 3.5606 13.6297C3.57263 13.608 3.59013 13.5899 3.61135 13.5771L6.86621 11.6525C6.88829 11.6392 6.91358 11.6322 6.93935 11.6322C6.96513 11.6322 6.99042 11.6392 7.0125 11.6525L10.2308 13.5725C10.2513 13.5849 10.2684 13.6023 10.2804 13.6231C10.2924 13.6439 10.2989 13.6674 10.2994 13.6914L10.3359 16.2697C10.3358 16.2943 10.3293 16.3184 10.317 16.3398C10.3048 16.3611 10.2872 16.3789 10.2659 16.3913C10.2447 16.4038 10.2206 16.4105 10.196 16.4108C10.1714 16.4111 10.1472 16.405 10.1256 16.3931L6.93021 14.5371C6.90772 14.5245 6.88221 14.5182 6.85643 14.519C6.83065 14.5199 6.80558 14.5277 6.78392 14.5417Z" fill="#94FF94"/>
<path d="M18.2948 18.7429L18.8891 17.7006C18.9836 17.536 19.0948 17.5223 19.2228 17.6594C19.5063 17.9657 19.8766 18.2766 19.8446 18.7383C19.7866 19.6495 19.4362 20.3886 18.7931 20.9554C18.6804 21.0529 18.5478 21.1078 18.3954 21.12L15.9177 21.3166C15.3722 21.3592 14.9684 21.1398 14.7063 20.6583C14.5295 20.3322 14.624 19.9497 14.9897 19.5109C15.0621 19.4239 15.151 19.3521 15.2515 19.2996C15.3519 19.247 15.4618 19.2147 15.5748 19.2046L17.9474 18.9669C18.1028 18.9516 18.2186 18.8769 18.2948 18.7429Z" fill="#94FF94"/>
<path d="M6.78393 20.4571L3.74393 22.3131C3.72221 22.3274 3.69698 22.3354 3.671 22.3363C3.64503 22.3372 3.6193 22.3309 3.59665 22.3182C3.574 22.3055 3.55529 22.2867 3.54256 22.2641C3.52984 22.2414 3.52359 22.2157 3.5245 22.1897L3.54279 19.616C3.54322 19.592 3.54973 19.5685 3.56173 19.5477C3.57372 19.5269 3.5908 19.5095 3.61136 19.4971L6.8525 17.5634C6.87458 17.5501 6.89987 17.5431 6.92564 17.5431C6.95142 17.5431 6.97671 17.5501 6.99879 17.5634L10.2308 19.4743C10.2513 19.4867 10.2684 19.5041 10.2804 19.5249C10.2924 19.5456 10.2989 19.5691 10.2994 19.5931L10.3359 22.1943C10.3358 22.2189 10.3293 22.243 10.3171 22.2644C10.3048 22.2857 10.2872 22.3035 10.266 22.3159C10.2447 22.3284 10.2206 22.3351 10.196 22.3354C10.1714 22.3357 10.1472 22.3296 10.1256 22.3177L6.93022 20.4526C6.90772 20.4399 6.88222 20.4337 6.85644 20.4345C6.83066 20.4353 6.80559 20.4431 6.78393 20.4571Z" fill="#94FF94"/>
<path d="M6.79305 26.3818L3.75762 28.2241C3.73483 28.2378 3.70882 28.2452 3.68222 28.2456C3.65563 28.246 3.6294 28.2394 3.6062 28.2264C3.58299 28.2134 3.56363 28.1945 3.55008 28.1716C3.53654 28.1487 3.52928 28.1227 3.52905 28.0961L3.54277 25.5452C3.54219 25.5186 3.54866 25.4924 3.5615 25.4691C3.57435 25.4458 3.59312 25.4263 3.61591 25.4126L6.85248 23.4926C6.87595 23.4785 6.90281 23.4711 6.9302 23.4711C6.95758 23.4711 6.98444 23.4785 7.00791 23.4926L10.2308 25.4081C10.2529 25.4214 10.2712 25.4401 10.284 25.4625C10.2968 25.4849 10.3037 25.5102 10.3039 25.5361L10.3268 28.1006C10.3269 28.1269 10.3201 28.1528 10.3071 28.1757C10.2941 28.1986 10.2754 28.2177 10.2527 28.2311C10.2301 28.2445 10.2043 28.2517 10.178 28.2521C10.1517 28.2525 10.1258 28.246 10.1028 28.2332L6.94848 26.3818C6.92501 26.3677 6.89815 26.3602 6.87077 26.3602C6.84339 26.3602 6.81652 26.3677 6.79305 26.3818Z" fill="#94FF94"/>
</svg>
