<?xml version="1.0" encoding="UTF-8" standalone="no"?>
<!DOCTYPE svg PUBLIC "-//W3C//DTD SVG 1.1//EN" "http://www.w3.org/Graphics/SVG/1.1/DTD/svg11.dtd">
<svg xmlns="http://www.w3.org/2000/svg" version="1.1" viewBox="0.00 0.00 70.00 70.00">
<g stroke-width="2.00" fill="none" stroke-linecap="butt">
<path stroke="#575c63" vector-effect="non-scaling-stroke" d="
  M 46.03 39.31
  C 45.79 41.56 45.91 43.98 44.37 45.87
  Q 41.36 49.56 39.07 53.17
  A 1.86 1.86 0.0 0 0 39.64 55.73
  L 39.85 55.86
  Q 41.70 57.05 43.02 55.29
  Q 45.92 51.42 48.79 47.58
  C 50.67 45.08 50.56 40.61 50.90 37.66
  C 51.38 33.57 49.79 29.13 49.18 25.07
  Q 49.10 24.51 49.65 24.37
  C 52.56 23.64 55.19 23.01 57.07 20.25
  Q 59.52 16.64 62.06 13.29
  A 2.16 2.15 61.8 0 0 62.50 11.82
  Q 62.25 8.29 58.94 9.70
  A 1.77 1.68 4.9 0 0 58.24 10.26
  L 52.87 17.73
  A 2.46 2.40 -81.2 0 1 51.74 18.58
  Q 48.53 19.74 44.88 20.96
  Q 40.79 22.33 41.55 26.18
  Q 42.45 30.72 43.41 35.48
  Q 43.84 37.63 45.61 38.53
  A 0.78 0.77 -73.7 0 1 46.03 39.31"
/>
<path stroke="#575c63" vector-effect="non-scaling-stroke" d="
  M 46.05 14.96
  A 4.53 4.53 0.0 0 0 41.52 10.43
  A 4.53 4.53 0.0 0 0 36.99 14.96
  A 4.53 4.53 0.0 0 0 41.52 19.49
  A 4.53 4.53 0.0 0 0 46.05 14.96"
/>
<path stroke="#575c63" vector-effect="non-scaling-stroke" d="
  M 14.86 18.87
  A 0.31 0.31 0.0 0 1 15.18 18.86
  L 22.15 22.94
  A 0.31 0.31 0.0 0 0 22.62 22.67
  L 22.53 17.00
  A 0.31 0.31 0.0 0 0 22.38 16.74
  L 15.34 12.53
  A 0.31 0.31 0.0 0 0 15.02 12.53
  L 7.91 16.76
  A 0.31 0.31 0.0 0 0 7.76 17.03
  L 7.72 22.65
  A 0.31 0.31 0.0 0 0 8.19 22.91
  L 14.86 18.87"
/>
<path stroke="#575c63" vector-effect="non-scaling-stroke" d="
  M 14.84 31.81
  A 0.31 0.31 0.0 0 1 15.16 31.80
  L 22.15 35.86
  A 0.31 0.31 0.0 0 0 22.61 35.59
  L 22.53 29.95
  A 0.31 0.31 0.0 0 0 22.38 29.69
  L 15.34 25.49
  A 0.31 0.31 0.0 0 0 15.02 25.49
  L 7.90 29.70
  A 0.31 0.31 0.0 0 0 7.75 29.97
  L 7.72 35.60
  A 0.31 0.31 0.0 0 0 8.19 35.87
  L 14.84 31.81"
/>
<path stroke="#575c63" vector-effect="non-scaling-stroke" d="
  M 39.26 41.49
  L 34.07 42.01
  A 1.89 1.88 17.3 0 0 32.79 42.68
  Q 31.59 44.12 32.17 45.19
  Q 33.03 46.77 34.82 46.63
  L 40.24 46.20
  Q 40.74 46.16 41.11 45.84
  Q 43.22 43.98 43.41 40.99
  C 43.48 39.98 42.67 39.30 42.05 38.63
  Q 41.63 38.18 41.32 38.72
  L 40.02 41.00
  Q 39.77 41.44 39.26 41.49"
/>
<path stroke="#575c63" vector-effect="non-scaling-stroke" d="
  M 14.84 44.75
  A 0.31 0.31 0.0 0 1 15.16 44.74
  L 22.15 48.82
  A 0.31 0.31 0.0 0 0 22.61 48.55
  L 22.53 42.86
  A 0.31 0.31 0.0 0 0 22.38 42.60
  L 15.31 38.42
  A 0.31 0.31 0.0 0 0 14.99 38.42
  L 7.90 42.65
  A 0.31 0.31 0.0 0 0 7.75 42.91
  L 7.71 48.54
  A 0.31 0.31 0.0 0 0 8.19 48.81
  L 14.84 44.75"
/>
<path stroke="#575c63" vector-effect="non-scaling-stroke" d="
  M 14.86 57.71
  A 0.33 0.33 0.0 0 1 15.20 57.71
  L 22.10 61.76
  A 0.33 0.33 0.0 0 0 22.59 61.47
  L 22.54 55.86
  A 0.33 0.33 0.0 0 0 22.38 55.58
  L 15.33 51.39
  A 0.33 0.33 0.0 0 0 14.99 51.39
  L 7.91 55.59
  A 0.33 0.33 0.0 0 0 7.75 55.88
  L 7.72 61.46
  A 0.33 0.33 0.0 0 0 8.22 61.74
  L 14.86 57.71"
/>
</g>
<path fill="#2f353e" d="
  M 0.00 0.00
  L 70.00 0.00
  L 70.00 70.00
  L 0.00 70.00
  L 0.00 0.00
  Z
  M 46.03 39.31
  C 45.79 41.56 45.91 43.98 44.37 45.87
  Q 41.36 49.56 39.07 53.17
  A 1.86 1.86 0.0 0 0 39.64 55.73
  L 39.85 55.86
  Q 41.70 57.05 43.02 55.29
  Q 45.92 51.42 48.79 47.58
  C 50.67 45.08 50.56 40.61 50.90 37.66
  C 51.38 33.57 49.79 29.13 49.18 25.07
  Q 49.10 24.51 49.65 24.37
  C 52.56 23.64 55.19 23.01 57.07 20.25
  Q 59.52 16.64 62.06 13.29
  A 2.16 2.15 61.8 0 0 62.50 11.82
  Q 62.25 8.29 58.94 9.70
  A 1.77 1.68 4.9 0 0 58.24 10.26
  L 52.87 17.73
  A 2.46 2.40 -81.2 0 1 51.74 18.58
  Q 48.53 19.74 44.88 20.96
  Q 40.79 22.33 41.55 26.18
  Q 42.45 30.72 43.41 35.48
  Q 43.84 37.63 45.61 38.53
  A 0.78 0.77 -73.7 0 1 46.03 39.31
  Z
  M 46.05 14.96
  A 4.53 4.53 0.0 0 0 41.52 10.43
  A 4.53 4.53 0.0 0 0 36.99 14.96
  A 4.53 4.53 0.0 0 0 41.52 19.49
  A 4.53 4.53 0.0 0 0 46.05 14.96
  Z
  M 14.86 18.87
  A 0.31 0.31 0.0 0 1 15.18 18.86
  L 22.15 22.94
  A 0.31 0.31 0.0 0 0 22.62 22.67
  L 22.53 17.00
  A 0.31 0.31 0.0 0 0 22.38 16.74
  L 15.34 12.53
  A 0.31 0.31 0.0 0 0 15.02 12.53
  L 7.91 16.76
  A 0.31 0.31 0.0 0 0 7.76 17.03
  L 7.72 22.65
  A 0.31 0.31 0.0 0 0 8.19 22.91
  L 14.86 18.87
  Z
  M 14.84 31.81
  A 0.31 0.31 0.0 0 1 15.16 31.80
  L 22.15 35.86
  A 0.31 0.31 0.0 0 0 22.61 35.59
  L 22.53 29.95
  A 0.31 0.31 0.0 0 0 22.38 29.69
  L 15.34 25.49
  A 0.31 0.31 0.0 0 0 15.02 25.49
  L 7.90 29.70
  A 0.31 0.31 0.0 0 0 7.75 29.97
  L 7.72 35.60
  A 0.31 0.31 0.0 0 0 8.19 35.87
  L 14.84 31.81
  Z
  M 39.26 41.49
  L 34.07 42.01
  A 1.89 1.88 17.3 0 0 32.79 42.68
  Q 31.59 44.12 32.17 45.19
  Q 33.03 46.77 34.82 46.63
  L 40.24 46.20
  Q 40.74 46.16 41.11 45.84
  Q 43.22 43.98 43.41 40.99
  C 43.48 39.98 42.67 39.30 42.05 38.63
  Q 41.63 38.18 41.32 38.72
  L 40.02 41.00
  Q 39.77 41.44 39.26 41.49
  Z
  M 14.84 44.75
  A 0.31 0.31 0.0 0 1 15.16 44.74
  L 22.15 48.82
  A 0.31 0.31 0.0 0 0 22.61 48.55
  L 22.53 42.86
  A 0.31 0.31 0.0 0 0 22.38 42.60
  L 15.31 38.42
  A 0.31 0.31 0.0 0 0 14.99 38.42
  L 7.90 42.65
  A 0.31 0.31 0.0 0 0 7.75 42.91
  L 7.71 48.54
  A 0.31 0.31 0.0 0 0 8.19 48.81
  L 14.84 44.75
  Z
  M 14.86 57.71
  A 0.33 0.33 0.0 0 1 15.20 57.71
  L 22.10 61.76
  A 0.33 0.33 0.0 0 0 22.59 61.47
  L 22.54 55.86
  A 0.33 0.33 0.0 0 0 22.38 55.58
  L 15.33 51.39
  A 0.33 0.33 0.0 0 0 14.99 51.39
  L 7.91 55.59
  A 0.33 0.33 0.0 0 0 7.75 55.88
  L 7.72 61.46
  A 0.33 0.33 0.0 0 0 8.22 61.74
  L 14.86 57.71
  Z"
/>
<g fill="#94ff94">
<path d="
  M 45.61 38.53
  Q 43.84 37.63 43.41 35.48
  Q 42.45 30.72 41.55 26.18
  Q 40.79 22.33 44.88 20.96
  Q 48.53 19.74 51.74 18.58
  A 2.46 2.40 -81.2 0 0 52.87 17.73
  L 58.24 10.26
  A 1.77 1.68 4.9 0 1 58.94 9.70
  Q 62.25 8.29 62.50 11.82
  A 2.16 2.15 61.8 0 1 62.06 13.29
  Q 59.52 16.64 57.07 20.25
  C 55.19 23.01 52.56 23.64 49.65 24.37
  Q 49.10 24.51 49.18 25.07
  C 49.79 29.13 51.38 33.57 50.90 37.66
  C 50.56 40.61 50.67 45.08 48.79 47.58
  Q 45.92 51.42 43.02 55.29
  Q 41.70 57.05 39.85 55.86
  L 39.64 55.73
  A 1.86 1.86 0.0 0 1 39.07 53.17
  Q 41.36 49.56 44.37 45.87
  C 45.91 43.98 45.79 41.56 46.03 39.31
  A 0.78 0.77 -73.7 0 0 45.61 38.53
  Z"
/>
<circle cx="41.52" cy="14.96" r="4.53"/>
<path d="
  M 14.86 18.87
  L 8.19 22.91
  A 0.31 0.31 0.0 0 1 7.72 22.65
  L 7.76 17.03
  A 0.31 0.31 0.0 0 1 7.91 16.76
  L 15.02 12.53
  A 0.31 0.31 0.0 0 1 15.34 12.53
  L 22.38 16.74
  A 0.31 0.31 0.0 0 1 22.53 17.00
  L 22.62 22.67
  A 0.31 0.31 0.0 0 1 22.15 22.94
  L 15.18 18.86
  A 0.31 0.31 0.0 0 0 14.86 18.87
  Z"
/>
<path d="
  M 14.84 31.81
  L 8.19 35.87
  A 0.31 0.31 0.0 0 1 7.72 35.60
  L 7.75 29.97
  A 0.31 0.31 0.0 0 1 7.90 29.70
  L 15.02 25.49
  A 0.31 0.31 0.0 0 1 15.34 25.49
  L 22.38 29.69
  A 0.31 0.31 0.0 0 1 22.53 29.95
  L 22.61 35.59
  A 0.31 0.31 0.0 0 1 22.15 35.86
  L 15.16 31.80
  A 0.31 0.31 0.0 0 0 14.84 31.81
  Z"
/>
<path d="
  M 40.02 41.00
  L 41.32 38.72
  Q 41.63 38.18 42.05 38.63
  C 42.67 39.30 43.48 39.98 43.41 40.99
  Q 43.22 43.98 41.11 45.84
  Q 40.74 46.16 40.24 46.20
  L 34.82 46.63
  Q 33.03 46.77 32.17 45.19
  Q 31.59 44.12 32.79 42.68
  A 1.89 1.88 17.3 0 1 34.07 42.01
  L 39.26 41.49
  Q 39.77 41.44 40.02 41.00
  Z"
/>
<path d="
  M 14.84 44.75
  L 8.19 48.81
  A 0.31 0.31 0.0 0 1 7.71 48.54
  L 7.75 42.91
  A 0.31 0.31 0.0 0 1 7.90 42.65
  L 14.99 38.42
  A 0.31 0.31 0.0 0 1 15.31 38.42
  L 22.38 42.60
  A 0.31 0.31 0.0 0 1 22.53 42.86
  L 22.61 48.55
  A 0.31 0.31 0.0 0 1 22.15 48.82
  L 15.16 44.74
  A 0.31 0.31 0.0 0 0 14.84 44.75
  Z"
/>
<path d="
  M 14.86 57.71
  L 8.22 61.74
  A 0.33 0.33 0.0 0 1 7.72 61.46
  L 7.75 55.88
  A 0.33 0.33 0.0 0 1 7.91 55.59
  L 14.99 51.39
  A 0.33 0.33 0.0 0 1 15.33 51.39
  L 22.38 55.58
  A 0.33 0.33 0.0 0 1 22.54 55.86
  L 22.59 61.47
  A 0.33 0.33 0.0 0 1 22.10 61.76
  L 15.20 57.71
  A 0.33 0.33 0.0 0 0 14.86 57.71
  Z"
/>
</g>
</svg>
