<svg width="32" height="32" viewBox="0 0 32 32" fill="none" xmlns="http://www.w3.org/2000/svg">
<path d="M17.0925 7.66175L16.0777 10.624C16.0593 10.6774 16.0275 10.7254 15.9852 10.7637C15.9428 10.802 15.8914 10.8294 15.8354 10.8435L14.5462 11.1452C14.5273 11.15 14.5075 11.1495 14.4889 11.1437C14.4703 11.1379 14.4536 11.1271 14.4408 11.1124C14.428 11.0977 14.4195 11.0797 14.4164 11.0605C14.4132 11.0412 14.4154 11.0215 14.4228 11.0035C14.8007 9.98251 15.1512 8.91432 15.4742 7.79889C16.2057 5.26175 17.5634 3.75775 20.3108 3.38289C22.2338 3.11775 23.9512 3.61756 25.4628 4.88232C27.3523 6.46099 28.1127 8.5288 27.7439 11.0857C27.3645 13.7097 25.9154 15.072 23.3965 15.7486C20.0015 16.6598 16.8944 17.5376 14.0754 18.3817C13.6853 18.5006 13.4338 18.3619 13.3211 17.9657L13.2251 17.6229C13.1306 17.2907 13.2556 17.1124 13.5999 17.088C14.6194 17.0149 15.7668 16.7817 16.1234 15.6572C16.2834 15.1589 16.4982 14.7657 16.9508 14.4777C18.2918 13.6153 19.6815 12.7452 21.1199 11.8675C21.1575 11.8442 21.1894 11.813 21.2134 11.7759C21.2373 11.7388 21.2527 11.6968 21.2584 11.653C21.2641 11.6092 21.2599 11.5647 21.2463 11.5228C21.2326 11.4808 21.2097 11.4424 21.1794 11.4103L19.7485 9.92003C19.7169 9.88781 19.6785 9.86299 19.6361 9.84736C19.5937 9.83172 19.5484 9.82565 19.5034 9.82958C19.4584 9.83351 19.4148 9.84735 19.3758 9.8701C19.3368 9.89285 19.3033 9.92395 19.2777 9.96118L17.2845 12.9235C17.2741 12.9372 17.2599 12.9476 17.2436 12.9532C17.2273 12.9588 17.2097 12.9595 17.193 12.9551C17.1763 12.9507 17.1613 12.9414 17.15 12.9284C17.1386 12.9155 17.1313 12.8994 17.1291 12.8823C17.0895 12.3642 16.9691 11.9177 16.7679 11.5429C16.7039 11.4301 16.707 11.3189 16.7771 11.2092L18.2491 8.87775C18.371 8.67965 18.3512 8.4968 18.1897 8.32918L17.4674 7.57946C17.2967 7.40575 17.1718 7.43318 17.0925 7.66175ZM22.1028 13.0012C20.5485 13.9292 18.9165 14.7703 17.4125 15.7943C17.0072 16.0686 17.0377 16.1311 17.5039 15.9817L23.3051 14.1349C23.5458 14.0587 23.5824 13.9277 23.4148 13.7417L22.8434 13.1109C22.627 12.8732 22.3801 12.8366 22.1028 13.0012Z" fill="#94FF94"/>
<path d="M9.28458 14.3452C10.1127 14.3452 10.784 13.6739 10.784 12.8457C10.784 12.0176 10.1127 11.3463 9.28458 11.3463C8.45647 11.3463 7.78516 12.0176 7.78516 12.8457C7.78516 13.6739 8.45647 14.3452 9.28458 14.3452Z" fill="#94FF94"/>
<path d="M11.7486 16.6629C12.1936 18.1989 12.6964 19.3037 13.2572 19.9772C13.69 20.4983 14.2553 21.0042 14.9532 21.4949C15.0873 21.5894 15.2336 21.6305 15.3921 21.6183L17.3212 21.4903C17.437 21.483 17.5531 21.5015 17.6608 21.5446C17.7685 21.5877 17.8652 21.6542 17.9437 21.7392C18.0222 21.8243 18.0805 21.9258 18.1144 22.0362C18.1483 22.1466 18.1568 22.2631 18.1395 22.3772C18.0724 22.8496 17.7783 23.1147 17.2572 23.1726C16.3886 23.2701 15.5521 23.3219 14.7475 23.328C14.521 23.3309 14.3007 23.2477 14.1303 23.0949L12.0503 21.2023C12.0155 21.1714 11.9727 21.1505 11.9268 21.1421C11.8809 21.1337 11.8337 21.138 11.7905 21.1546C11.7473 21.1713 11.7098 21.1995 11.6823 21.2362C11.6547 21.2729 11.6381 21.3165 11.6343 21.3623C11.4926 22.752 10.8983 23.9955 11.4469 25.3989C11.7425 26.1608 11.9467 26.9349 12.0595 27.7212C12.0711 27.8059 12.0644 27.8924 12.04 27.9751C12.0156 28.0578 11.9739 28.1348 11.9178 28.2012C11.7806 28.3627 11.6252 28.4618 11.4515 28.4983C10.8328 28.6202 10.4336 28.3795 10.2538 27.776C9.99777 26.9227 9.74787 26.0526 9.50406 25.1658C9.17949 23.9909 9.58634 22.6652 9.85606 21.5086C10.1669 20.1646 9.42634 19.104 8.96463 17.9155C8.88539 17.7143 8.76196 17.6793 8.59434 17.8103L7.39663 18.7429C7.26706 18.8437 7.10739 18.8984 6.94273 18.8984C6.77806 18.8984 6.61772 18.8437 6.48691 18.7429L4.60348 17.2938C4.21339 16.9951 4.14329 16.634 4.3932 16.2103L4.47548 16.0686C4.60044 15.8553 4.7711 15.808 4.98748 15.9269C5.57568 16.2469 6.11815 16.64 6.61491 17.1063C6.8252 17.3014 7.03853 17.306 7.25491 17.12C8.20577 16.3018 9.11091 15.3372 10.4321 15.1543C11.5719 14.9989 12.6721 14.8054 13.7326 14.5738C13.8078 14.5571 13.8776 14.5211 13.9352 14.469C13.9929 14.417 14.0364 14.3507 14.0618 14.2766L14.6881 12.4983C14.7385 12.3534 14.8385 12.2292 14.9715 12.1463C15.45 11.8599 15.7974 11.9391 16.0138 12.384C16.0869 12.5395 16.0968 12.7181 16.0412 12.8823L15.1726 15.3463C15.1214 15.494 15.0314 15.6248 14.9122 15.7247C14.7929 15.8246 14.6491 15.8897 14.4961 15.9132L11.9726 16.3063C11.7623 16.3399 11.6877 16.4587 11.7486 16.6629Z" fill="#94FF94"/>
</svg>
