<?xml version="1.0" encoding="UTF-8" standalone="no"?>
<!DOCTYPE svg PUBLIC "-//W3C//DTD SVG 1.1//EN" "http://www.w3.org/Graphics/SVG/1.1/DTD/svg11.dtd">
<svg xmlns="http://www.w3.org/2000/svg" version="1.1" viewBox="0.00 0.00 70.00 70.00">
<g stroke-width="2.00" fill="none" stroke-linecap="butt">
<path stroke="#629a69" vector-effect="non-scaling-stroke" d="
  M 39.79 18.22
  Q 40.32 18.77 39.92 19.42
  L 36.70 24.52
  Q 36.47 24.88 36.68 25.25
  Q 37.34 26.48 37.47 28.18
  A 0.19 0.19 0.0 0 0 37.81 28.27
  L 42.17 21.79
  A 0.67 0.67 0.0 0 1 43.20 21.70
  L 46.33 24.96
  A 0.65 0.65 0.0 0 1 46.20 25.96
  Q 41.48 28.84 37.08 31.67
  C 36.09 32.30 35.62 33.16 35.27 34.25
  C 34.49 36.71 31.98 37.22 29.75 37.38
  Q 28.62 37.46 28.93 38.55
  L 29.14 39.30
  Q 29.51 40.60 30.79 40.21
  Q 40.04 37.44 51.18 34.45
  C 56.69 32.97 59.86 29.99 60.69 24.25
  Q 61.90 15.86 55.70 10.68
  Q 50.74 6.53 44.43 7.40
  C 38.42 8.22 35.45 11.51 33.85 17.06
  Q 32.79 20.72 31.55 24.07
  A 0.23 0.23 0.0 0 0 31.82 24.38
  L 34.64 23.72
  A 0.76 0.74 1.9 0 0 35.17 23.24
  L 37.39 16.76
  Q 37.65 16.01 38.21 16.58
  L 39.79 18.22"
/>
<path stroke="#629a69" vector-effect="non-scaling-stroke" d="
  M 23.59 28.10
  A 3.28 3.28 0.0 0 0 20.31 24.82
  A 3.28 3.28 0.0 0 0 17.03 28.10
  A 3.28 3.28 0.0 0 0 20.31 31.38
  A 3.28 3.28 0.0 0 0 23.59 28.10"
/>
<path stroke="#629a69" vector-effect="non-scaling-stroke" d="
  M 26.19 35.67
  L 31.71 34.81
  A 1.88 1.86 -84.7 0 0 33.19 33.57
  L 35.09 28.18
  A 1.47 1.45 -48.5 0 0 35.03 27.09
  Q 34.32 25.63 32.75 26.57
  A 1.51 1.46 -7.1 0 0 32.13 27.34
  L 30.76 31.23
  A 1.00 0.98 -86.7 0 1 30.04 31.88
  Q 26.56 32.64 22.82 33.15
  C 19.93 33.55 17.95 35.66 15.87 37.45
  Q 15.16 38.06 14.47 37.42
  Q 12.84 35.89 10.91 34.84
  Q 10.20 34.45 9.79 35.15
  L 9.61 35.46
  Q 8.79 36.85 10.07 37.83
  L 14.19 41.00
  A 1.63 1.62 44.8 0 0 16.18 41.00
  L 18.80 38.96
  Q 19.35 38.53 19.61 39.19
  C 20.62 41.79 22.24 44.11 21.56 47.05
  C 20.97 49.58 20.08 52.48 20.79 55.05
  Q 21.59 57.96 22.43 60.76
  Q 23.02 62.74 25.05 62.34
  Q 25.62 62.22 26.07 61.69
  A 1.36 1.33 -29.0 0 0 26.38 60.64
  Q 26.01 58.06 25.04 55.56
  C 23.84 52.49 25.14 49.77 25.45 46.73
  A 0.55 0.54 23.8 0 1 26.36 46.38
  L 30.91 50.52
  A 2.00 1.97 65.2 0 0 32.26 51.03
  Q 34.90 51.01 37.75 50.69
  Q 39.46 50.50 39.68 48.95
  A 1.70 1.69 2.3 0 0 37.89 47.01
  L 33.67 47.29
  Q 33.15 47.33 32.71 47.02
  Q 30.42 45.41 29.00 43.70
  Q 27.16 41.49 25.70 36.45
  Q 25.50 35.78 26.19 35.67"
/>
<path stroke="#629a69" vector-effect="non-scaling-stroke" d="
  M 48.35 28.44
  C 44.95 30.47 41.38 32.31 38.09 34.55
  Q 36.76 35.45 38.29 34.96
  L 50.98 30.92
  Q 51.77 30.67 51.22 30.06
  L 49.97 28.68
  Q 49.26 27.90 48.35 28.44"
/>
</g>
<g fill="#2f353e">
<path d="
  M 0.00 0.00
  L 70.00 0.00
  L 70.00 70.00
  L 0.00 70.00
  L 0.00 0.00
  Z
  M 39.79 18.22
  Q 40.32 18.77 39.92 19.42
  L 36.70 24.52
  Q 36.47 24.88 36.68 25.25
  Q 37.34 26.48 37.47 28.18
  A 0.19 0.19 0.0 0 0 37.81 28.27
  L 42.17 21.79
  A 0.67 0.67 0.0 0 1 43.20 21.70
  L 46.33 24.96
  A 0.65 0.65 0.0 0 1 46.20 25.96
  Q 41.48 28.84 37.08 31.67
  C 36.09 32.30 35.62 33.16 35.27 34.25
  C 34.49 36.71 31.98 37.22 29.75 37.38
  Q 28.62 37.46 28.93 38.55
  L 29.14 39.30
  Q 29.51 40.60 30.79 40.21
  Q 40.04 37.44 51.18 34.45
  C 56.69 32.97 59.86 29.99 60.69 24.25
  Q 61.90 15.86 55.70 10.68
  Q 50.74 6.53 44.43 7.40
  C 38.42 8.22 35.45 11.51 33.85 17.06
  Q 32.79 20.72 31.55 24.07
  A 0.23 0.23 0.0 0 0 31.82 24.38
  L 34.64 23.72
  A 0.76 0.74 1.9 0 0 35.17 23.24
  L 37.39 16.76
  Q 37.65 16.01 38.21 16.58
  L 39.79 18.22
  Z
  M 23.59 28.10
  A 3.28 3.28 0.0 0 0 20.31 24.82
  A 3.28 3.28 0.0 0 0 17.03 28.10
  A 3.28 3.28 0.0 0 0 20.31 31.38
  A 3.28 3.28 0.0 0 0 23.59 28.10
  Z
  M 26.19 35.67
  L 31.71 34.81
  A 1.88 1.86 -84.7 0 0 33.19 33.57
  L 35.09 28.18
  A 1.47 1.45 -48.5 0 0 35.03 27.09
  Q 34.32 25.63 32.75 26.57
  A 1.51 1.46 -7.1 0 0 32.13 27.34
  L 30.76 31.23
  A 1.00 0.98 -86.7 0 1 30.04 31.88
  Q 26.56 32.64 22.82 33.15
  C 19.93 33.55 17.95 35.66 15.87 37.45
  Q 15.16 38.06 14.47 37.42
  Q 12.84 35.89 10.91 34.84
  Q 10.20 34.45 9.79 35.15
  L 9.61 35.46
  Q 8.79 36.85 10.07 37.83
  L 14.19 41.00
  A 1.63 1.62 44.8 0 0 16.18 41.00
  L 18.80 38.96
  Q 19.35 38.53 19.61 39.19
  C 20.62 41.79 22.24 44.11 21.56 47.05
  C 20.97 49.58 20.08 52.48 20.79 55.05
  Q 21.59 57.96 22.43 60.76
  Q 23.02 62.74 25.05 62.34
  Q 25.62 62.22 26.07 61.69
  A 1.36 1.33 -29.0 0 0 26.38 60.64
  Q 26.01 58.06 25.04 55.56
  C 23.84 52.49 25.14 49.77 25.45 46.73
  A 0.55 0.54 23.8 0 1 26.36 46.38
  L 30.91 50.52
  A 2.00 1.97 65.2 0 0 32.26 51.03
  Q 34.90 51.01 37.75 50.69
  Q 39.46 50.50 39.68 48.95
  A 1.70 1.69 2.3 0 0 37.89 47.01
  L 33.67 47.29
  Q 33.15 47.33 32.71 47.02
  Q 30.42 45.41 29.00 43.70
  Q 27.16 41.49 25.70 36.45
  Q 25.50 35.78 26.19 35.67
  Z"
/>
<path d="
  M 38.09 34.55
  C 41.38 32.31 44.95 30.47 48.35 28.44
  Q 49.26 27.90 49.97 28.68
  L 51.22 30.06
  Q 51.77 30.67 50.98 30.92
  L 38.29 34.96
  Q 36.76 35.45 38.09 34.55
  Z"
/>
</g>
<g fill="#94ff94">
<path d="
  M 37.39 16.76
  L 35.17 23.24
  A 0.76 0.74 1.9 0 1 34.64 23.72
  L 31.82 24.38
  A 0.23 0.23 0.0 0 1 31.55 24.07
  Q 32.79 20.72 33.85 17.06
  C 35.45 11.51 38.42 8.22 44.43 7.40
  Q 50.74 6.53 55.70 10.68
  Q 61.90 15.86 60.69 24.25
  C 59.86 29.99 56.69 32.97 51.18 34.45
  Q 40.04 37.44 30.79 40.21
  Q 29.51 40.60 29.14 39.30
  L 28.93 38.55
  Q 28.62 37.46 29.75 37.38
  C 31.98 37.22 34.49 36.71 35.27 34.25
  C 35.62 33.16 36.09 32.30 37.08 31.67
  Q 41.48 28.84 46.20 25.96
  A 0.65 0.65 0.0 0 0 46.33 24.96
  L 43.20 21.70
  A 0.67 0.67 0.0 0 0 42.17 21.79
  L 37.81 28.27
  A 0.19 0.19 0.0 0 1 37.47 28.18
  Q 37.34 26.48 36.68 25.25
  Q 36.47 24.88 36.70 24.52
  L 39.92 19.42
  Q 40.32 18.77 39.79 18.22
  L 38.21 16.58
  Q 37.65 16.01 37.39 16.76
  Z
  M 48.35 28.44
  C 44.95 30.47 41.38 32.31 38.09 34.55
  Q 36.76 35.45 38.29 34.96
  L 50.98 30.92
  Q 51.77 30.67 51.22 30.06
  L 49.97 28.68
  Q 49.26 27.90 48.35 28.44
  Z"
/>
<circle cx="20.31" cy="28.10" r="3.28"/>
<path d="
  M 25.70 36.45
  Q 27.16 41.49 29.00 43.70
  Q 30.42 45.41 32.71 47.02
  Q 33.15 47.33 33.67 47.29
  L 37.89 47.01
  A 1.70 1.69 2.3 0 1 39.68 48.95
  Q 39.46 50.50 37.75 50.69
  Q 34.90 51.01 32.26 51.03
  A 2.00 1.97 65.2 0 1 30.91 50.52
  L 26.36 46.38
  A 0.55 0.54 23.8 0 0 25.45 46.73
  C 25.14 49.77 23.84 52.49 25.04 55.56
  Q 26.01 58.06 26.38 60.64
  A 1.36 1.33 -29.0 0 1 26.07 61.69
  Q 25.62 62.22 25.05 62.34
  Q 23.02 62.74 22.43 60.76
  Q 21.59 57.96 20.79 55.05
  C 20.08 52.48 20.97 49.58 21.56 47.05
  C 22.24 44.11 20.62 41.79 19.61 39.19
  Q 19.35 38.53 18.80 38.96
  L 16.18 41.00
  A 1.63 1.62 44.8 0 1 14.19 41.00
  L 10.07 37.83
  Q 8.79 36.85 9.61 35.46
  L 9.79 35.15
  Q 10.20 34.45 10.91 34.84
  Q 12.84 35.89 14.47 37.42
  Q 15.16 38.06 15.87 37.45
  C 17.95 35.66 19.93 33.55 22.82 33.15
  Q 26.56 32.64 30.04 31.88
  A 1.00 0.98 -86.7 0 0 30.76 31.23
  L 32.13 27.34
  A 1.51 1.46 -7.1 0 1 32.75 26.57
  Q 34.32 25.63 35.03 27.09
  A 1.47 1.45 -48.5 0 1 35.09 28.18
  L 33.19 33.57
  A 1.88 1.86 -84.7 0 1 31.71 34.81
  L 26.19 35.67
  Q 25.50 35.78 25.70 36.45
  Z"
/>
</g>
</svg>
