<svg width="32" height="32" viewBox="0 0 32 32" fill="none" xmlns="http://www.w3.org/2000/svg">
<path d="M24.1006 9.77374C23.8994 10.0907 23.7135 10.3955 23.5429 10.688C23.47 10.8108 23.4442 10.9556 23.4703 11.0954C23.4964 11.2352 23.5726 11.3602 23.6846 11.4469L24.6034 12.1692C24.829 12.349 24.864 12.5593 24.7086 12.8L24.0274 13.8469C23.8629 14.0968 23.6602 14.1334 23.4194 13.9566L19.1132 10.8297C18.8389 10.6316 18.813 10.4031 19.0354 10.144L19.7852 9.28002C20.0015 9.02707 20.2484 8.99355 20.5257 9.17945L21.5726 9.88802C21.6445 9.93822 21.7329 9.95905 21.8203 9.94633C21.9076 9.93361 21.9873 9.88829 22.0434 9.81945L23.0034 8.61717C23.1406 8.4465 23.1497 8.26974 23.0309 8.08688C21.3212 5.41259 24.1097 2.34974 26.9486 3.64345C30.0206 5.04688 28.7497 9.71431 25.3349 9.43545C25.1307 9.42021 24.925 9.41259 24.7177 9.41259C24.4556 9.41259 24.2499 9.53298 24.1006 9.77374ZM27.8217 6.43659C27.8217 5.84008 27.5848 5.26801 27.163 4.84621C26.7412 4.42441 26.1691 4.18745 25.5726 4.18745C24.9761 4.18745 24.404 4.42441 23.9822 4.84621C23.5604 5.26801 23.3234 5.84008 23.3234 6.43659C23.3234 7.0331 23.5604 7.60518 23.9822 8.02698C24.404 8.44877 24.9761 8.68574 25.5726 8.68574C26.1691 8.68574 26.7412 8.44877 27.163 8.02698C27.5848 7.60518 27.8217 7.0331 27.8217 6.43659Z" fill="#94FF94"/>
<path d="M5.47199 6.89833L3.84913 4.1509C3.82561 4.11204 3.81285 4.06762 3.81216 4.02221C3.81148 3.97679 3.82288 3.932 3.84522 3.89245C3.86756 3.8529 3.90001 3.82 3.93926 3.79713C3.97851 3.77426 4.02314 3.76225 4.06856 3.76233L6.18971 3.77147C6.23382 3.7714 6.2772 3.78272 6.31564 3.80435C6.35409 3.82597 6.38629 3.85717 6.40913 3.8949L8.17371 6.84804C8.19722 6.88844 8.20923 6.93451 8.20843 6.98125C8.20762 7.02799 8.19403 7.07362 8.16913 7.11319L6.40456 9.98862C6.38158 10.0248 6.34986 10.0547 6.31231 10.0755C6.27477 10.0963 6.23261 10.1073 6.18971 10.1075L4.07313 10.1349C4.02701 10.1355 3.98159 10.1236 3.94167 10.1005C3.90174 10.0774 3.8688 10.044 3.84632 10.0037C3.82384 9.96341 3.81266 9.91781 3.81396 9.87171C3.81526 9.8256 3.82899 9.7807 3.85371 9.74176L5.46742 7.16347C5.49232 7.12391 5.50591 7.07828 5.50671 7.03154C5.50752 6.9848 5.49551 6.93873 5.47199 6.89833Z" fill="#94FF94"/>
<path d="M8.26052 9.86513L9.97481 7.12227C9.99202 7.09505 10.0015 7.06367 10.0023 7.03148C10.0031 6.99928 9.99521 6.96747 9.97938 6.93942L8.26052 4.03199C8.2454 4.00487 8.23761 3.97428 8.23795 3.94323C8.23828 3.91218 8.24671 3.88176 8.26241 3.85497C8.27812 3.82818 8.30054 3.80596 8.32747 3.7905C8.3544 3.77505 8.3849 3.76689 8.41595 3.76685L10.7108 3.78513C10.7413 3.78551 10.7711 3.79369 10.7976 3.8089C10.824 3.8241 10.846 3.84582 10.8617 3.87199L12.6765 6.87085C12.693 6.89848 12.7018 6.93008 12.7018 6.96227C12.7018 6.99447 12.693 7.02606 12.6765 7.0537L10.8662 10.0206C10.8501 10.0459 10.8278 10.0667 10.8014 10.0811C10.775 10.0955 10.7454 10.103 10.7154 10.1028L8.41595 10.1394C8.38354 10.1404 8.35148 10.1325 8.32322 10.1166C8.29496 10.1006 8.27158 10.0773 8.2556 10.0491C8.23961 10.0209 8.23162 9.98885 8.23249 9.95643C8.23335 9.92402 8.24305 9.89245 8.26052 9.86513Z" fill="#94FF94"/>
<path d="M14.4595 6.92115L12.7361 4.03658C12.7198 4.00934 12.7111 3.97826 12.7108 3.94654C12.7106 3.91482 12.7188 3.8836 12.7346 3.85611C12.7505 3.82863 12.7734 3.80587 12.8009 3.79018C12.8285 3.77449 12.8598 3.76644 12.8915 3.76686L15.1726 3.776C15.2031 3.77638 15.233 3.78456 15.2594 3.79977C15.2858 3.81498 15.3079 3.8367 15.3235 3.86286L17.1521 6.86172C17.1686 6.88936 17.1773 6.92095 17.1773 6.95315C17.1773 6.98534 17.1686 7.01694 17.1521 7.04458L15.3418 10.0114C15.3266 10.037 15.3052 10.0583 15.2797 10.0734C15.2541 10.0886 15.2252 10.0971 15.1955 10.0983L12.9052 10.1486C12.8735 10.149 12.8422 10.141 12.8146 10.1253C12.7871 10.1096 12.7642 10.0868 12.7483 10.0593C12.7325 10.0318 12.7243 10.0006 12.7245 9.9689C12.7248 9.93718 12.7335 9.9061 12.7498 9.87886L14.4595 7.104C14.476 7.07637 14.4847 7.04477 14.4847 7.01258C14.4847 6.98038 14.476 6.94879 14.4595 6.92115Z" fill="#94FF94"/>
<path d="M23.0242 14.8153L18.388 11.4592C18.2919 11.3897 18.1576 11.4112 18.088 11.5073L13.0968 18.4024C13.0272 18.4985 13.0487 18.6328 13.1449 18.7024L17.7811 22.0585C17.8772 22.128 18.0115 22.1065 18.0811 22.0104L23.0723 15.1153C23.1419 15.0192 23.1204 14.8849 23.0242 14.8153Z" fill="#94FF94"/>
<path d="M12.6765 23.0903L12.4663 22.88C12.3261 22.7429 12.3245 22.6042 12.4617 22.464L12.8411 22.0709C12.8855 22.0249 12.9193 21.9698 12.9402 21.9094C12.961 21.849 12.9685 21.7848 12.9619 21.7212C12.9554 21.6577 12.9351 21.5963 12.9024 21.5414C12.8696 21.4865 12.8253 21.4394 12.7725 21.4035L11.7394 20.6995C11.7097 20.6793 11.6843 20.6534 11.6647 20.6233C11.6451 20.5932 11.6317 20.5595 11.6253 20.5242C11.6189 20.4888 11.6197 20.4526 11.6275 20.4175C11.6353 20.3825 11.65 20.3493 11.6708 20.32L12.2148 19.5612C12.2412 19.5238 12.2747 19.4921 12.3135 19.4679C12.3523 19.4437 12.3956 19.4275 12.4407 19.4202C12.4859 19.413 12.532 19.4148 12.5765 19.4257C12.6209 19.4366 12.6627 19.4562 12.6994 19.4835L17.0331 22.656C17.2891 22.845 17.3226 23.069 17.1337 23.328L16.7588 23.8355C16.5729 24.0915 16.3611 24.1143 16.1234 23.904L15.2823 23.1635C15.1573 23.0537 15.0278 23.0446 14.8937 23.136C14.6377 23.3097 14.4564 23.5505 14.3497 23.8583C14.2765 24.0686 14.144 24.1158 13.952 24L13.6868 23.8309C13.5375 23.7395 13.4141 23.7654 13.3165 23.9086L10.2857 28.3292C10.1607 28.512 9.99312 28.5669 9.78283 28.4937L9.61369 28.4343C9.58415 28.4234 9.5574 28.406 9.53553 28.3835C9.51365 28.3609 9.49722 28.3338 9.4875 28.3042C9.47778 28.2746 9.47504 28.2434 9.47948 28.2128C9.48392 28.1823 9.49543 28.1533 9.51312 28.128L12.7177 23.5475C12.8335 23.3829 12.8198 23.2305 12.6765 23.0903Z" fill="#94FF94"/>
</svg>
