<?xml version="1.0" encoding="UTF-8" standalone="no"?>
<!DOCTYPE svg PUBLIC "-//W3C//DTD SVG 1.1//EN" "http://www.w3.org/Graphics/SVG/1.1/DTD/svg11.dtd">
<svg xmlns="http://www.w3.org/2000/svg" version="1.1" viewBox="0.00 0.00 70.00 70.00">
<g stroke-width="2.00" fill="none" stroke-linecap="butt">
<path stroke="#629a69" vector-effect="non-scaling-stroke" d="
  M 54.07 20.59
  Q 54.75 20.59 55.42 20.64
  C 62.89 21.25 65.67 11.04 58.95 7.97
  C 52.74 5.14 46.64 11.84 50.38 17.69
  Q 50.77 18.29 50.32 18.85
  L 48.22 21.48
  A 0.77 0.76 -53.0 0 1 47.19 21.63
  L 44.90 20.08
  Q 43.99 19.47 43.28 20.30
  L 41.64 22.19
  Q 40.91 23.04 41.81 23.69
  L 51.23 30.53
  Q 52.02 31.11 52.56 30.29
  L 54.05 28.00
  Q 54.56 27.21 53.82 26.62
  L 51.81 25.04
  A 1.28 1.27 -55.7 0 1 51.50 23.38
  Q 52.06 22.42 52.72 21.38
  Q 53.21 20.59 54.07 20.59"
/>
<path stroke="#629a69" vector-effect="non-scaling-stroke" d="
  M 11.97 15.09
  A 0.56 0.56 0.0 0 1 11.96 15.67
  L 8.43 21.31
  A 0.56 0.56 0.0 0 0 8.91 22.17
  L 13.54 22.11
  A 0.56 0.56 0.0 0 0 14.01 21.85
  L 17.87 15.56
  A 0.56 0.56 0.0 0 0 17.88 14.98
  L 14.02 8.52
  A 0.56 0.56 0.0 0 0 13.54 8.25
  L 8.90 8.23
  A 0.56 0.56 0.0 0 0 8.42 9.08
  L 11.97 15.09"
/>
<path stroke="#629a69" vector-effect="non-scaling-stroke" d="
  M 18.07 21.58
  A 0.39 0.39 0.0 0 0 18.41 22.18
  L 23.44 22.10
  A 0.39 0.39 0.0 0 0 23.77 21.92
  L 27.73 15.43
  A 0.39 0.39 0.0 0 0 27.73 15.03
  L 23.76 8.47
  A 0.39 0.39 0.0 0 0 23.43 8.28
  L 18.41 8.24
  A 0.39 0.39 0.0 0 0 18.07 8.82
  L 21.83 15.18
  A 0.39 0.39 0.0 0 1 21.82 15.58
  L 18.07 21.58"
/>
<path stroke="#629a69" vector-effect="non-scaling-stroke" d="
  M 31.63 15.14
  A 0.39 0.39 0.0 0 1 31.63 15.54
  L 27.89 21.61
  A 0.39 0.39 0.0 0 0 28.23 22.20
  L 33.24 22.09
  A 0.39 0.39 0.0 0 0 33.56 21.90
  L 37.52 15.41
  A 0.39 0.39 0.0 0 0 37.52 15.01
  L 33.52 8.45
  A 0.39 0.39 0.0 0 0 33.19 8.26
  L 28.20 8.24
  A 0.39 0.39 0.0 0 0 27.86 8.83
  L 31.63 15.14"
/>
<path stroke="#629a69" vector-effect="non-scaling-stroke" d="
  M 50.4707 33.0648
  A 0.47 0.47 0.0 0 0 50.3656 32.4085
  L 40.2239 25.0671
  A 0.47 0.47 0.0 0 0 39.5675 25.1722
  L 28.6493 40.2552
  A 0.47 0.47 0.0 0 0 28.7544 40.9115
  L 38.8961 48.2529
  A 0.47 0.47 0.0 0 0 39.5525 48.1478
  L 50.4707 33.0648"
/>
<path stroke="#629a69" vector-effect="non-scaling-stroke" d="
  M 27.82 51.51
  L 20.81 61.53
  A 0.45 0.44 27.4 0 0 21.03 62.20
  L 21.40 62.33
  Q 22.09 62.57 22.50 61.97
  L 29.13 52.30
  Q 29.45 51.83 29.94 52.13
  L 30.52 52.50
  Q 31.15 52.88 31.39 52.19
  Q 31.74 51.18 32.58 50.61
  Q 33.02 50.31 33.43 50.67
  L 35.27 52.29
  Q 36.05 52.98 36.66 52.14
  L 37.48 51.03
  Q 38.10 50.18 37.26 49.56
  L 27.78 42.62
  A 0.75 0.75 0.0 0 0 26.72 42.79
  L 25.53 44.45
  A 0.59 0.59 0.0 0 0 25.68 45.28
  L 27.94 46.82
  A 0.96 0.96 0.0 0 1 28.09 48.28
  L 27.26 49.14
  Q 26.81 49.60 27.27 50.05
  L 27.73 50.51
  Q 28.20 50.97 27.82 51.51"
/>
<path stroke="#629a69" vector-effect="non-scaling-stroke" d="
  M 60.86 14.08
  A 4.92 4.92 0.0 0 0 55.94 9.16
  A 4.92 4.92 0.0 0 0 51.02 14.08
  A 4.92 4.92 0.0 0 0 55.94 19.00
  A 4.92 4.92 0.0 0 0 60.86 14.08"
/>
</g>
<g fill="#2f353e">
<path d="
  M 0.00 0.00
  L 70.00 0.00
  L 70.00 70.00
  L 0.00 70.00
  L 0.00 0.00
  Z
  M 54.07 20.59
  Q 54.75 20.59 55.42 20.64
  C 62.89 21.25 65.67 11.04 58.95 7.97
  C 52.74 5.14 46.64 11.84 50.38 17.69
  Q 50.77 18.29 50.32 18.85
  L 48.22 21.48
  A 0.77 0.76 -53.0 0 1 47.19 21.63
  L 44.90 20.08
  Q 43.99 19.47 43.28 20.30
  L 41.64 22.19
  Q 40.91 23.04 41.81 23.69
  L 51.23 30.53
  Q 52.02 31.11 52.56 30.29
  L 54.05 28.00
  Q 54.56 27.21 53.82 26.62
  L 51.81 25.04
  A 1.28 1.27 -55.7 0 1 51.50 23.38
  Q 52.06 22.42 52.72 21.38
  Q 53.21 20.59 54.07 20.59
  Z
  M 11.97 15.09
  A 0.56 0.56 0.0 0 1 11.96 15.67
  L 8.43 21.31
  A 0.56 0.56 0.0 0 0 8.91 22.17
  L 13.54 22.11
  A 0.56 0.56 0.0 0 0 14.01 21.85
  L 17.87 15.56
  A 0.56 0.56 0.0 0 0 17.88 14.98
  L 14.02 8.52
  A 0.56 0.56 0.0 0 0 13.54 8.25
  L 8.90 8.23
  A 0.56 0.56 0.0 0 0 8.42 9.08
  L 11.97 15.09
  Z
  M 18.07 21.58
  A 0.39 0.39 0.0 0 0 18.41 22.18
  L 23.44 22.10
  A 0.39 0.39 0.0 0 0 23.77 21.92
  L 27.73 15.43
  A 0.39 0.39 0.0 0 0 27.73 15.03
  L 23.76 8.47
  A 0.39 0.39 0.0 0 0 23.43 8.28
  L 18.41 8.24
  A 0.39 0.39 0.0 0 0 18.07 8.82
  L 21.83 15.18
  A 0.39 0.39 0.0 0 1 21.82 15.58
  L 18.07 21.58
  Z
  M 31.63 15.14
  A 0.39 0.39 0.0 0 1 31.63 15.54
  L 27.89 21.61
  A 0.39 0.39 0.0 0 0 28.23 22.20
  L 33.24 22.09
  A 0.39 0.39 0.0 0 0 33.56 21.90
  L 37.52 15.41
  A 0.39 0.39 0.0 0 0 37.52 15.01
  L 33.52 8.45
  A 0.39 0.39 0.0 0 0 33.19 8.26
  L 28.20 8.24
  A 0.39 0.39 0.0 0 0 27.86 8.83
  L 31.63 15.14
  Z
  M 50.4707 33.0648
  A 0.47 0.47 0.0 0 0 50.3656 32.4085
  L 40.2239 25.0671
  A 0.47 0.47 0.0 0 0 39.5675 25.1722
  L 28.6493 40.2552
  A 0.47 0.47 0.0 0 0 28.7544 40.9115
  L 38.8961 48.2529
  A 0.47 0.47 0.0 0 0 39.5525 48.1478
  L 50.4707 33.0648
  Z
  M 27.82 51.51
  L 20.81 61.53
  A 0.45 0.44 27.4 0 0 21.03 62.20
  L 21.40 62.33
  Q 22.09 62.57 22.50 61.97
  L 29.13 52.30
  Q 29.45 51.83 29.94 52.13
  L 30.52 52.50
  Q 31.15 52.88 31.39 52.19
  Q 31.74 51.18 32.58 50.61
  Q 33.02 50.31 33.43 50.67
  L 35.27 52.29
  Q 36.05 52.98 36.66 52.14
  L 37.48 51.03
  Q 38.10 50.18 37.26 49.56
  L 27.78 42.62
  A 0.75 0.75 0.0 0 0 26.72 42.79
  L 25.53 44.45
  A 0.59 0.59 0.0 0 0 25.68 45.28
  L 27.94 46.82
  A 0.96 0.96 0.0 0 1 28.09 48.28
  L 27.26 49.14
  Q 26.81 49.60 27.27 50.05
  L 27.73 50.51
  Q 28.20 50.97 27.82 51.51
  Z"
/>
<circle cx="55.94" cy="14.08" r="4.92"/>
</g>
<g fill="#94ff94">
<path d="
  M 52.72 21.38
  Q 52.06 22.42 51.50 23.38
  A 1.28 1.27 -55.7 0 0 51.81 25.04
  L 53.82 26.62
  Q 54.56 27.21 54.05 28.00
  L 52.56 30.29
  Q 52.02 31.11 51.23 30.53
  L 41.81 23.69
  Q 40.91 23.04 41.64 22.19
  L 43.28 20.30
  Q 43.99 19.47 44.90 20.08
  L 47.19 21.63
  A 0.77 0.76 -53.0 0 0 48.22 21.48
  L 50.32 18.85
  Q 50.77 18.29 50.38 17.69
  C 46.64 11.84 52.74 5.14 58.95 7.97
  C 65.67 11.04 62.89 21.25 55.42 20.64
  Q 54.75 20.59 54.07 20.59
  Q 53.21 20.59 52.72 21.38
  Z
  M 60.86 14.08
  A 4.92 4.92 0.0 0 0 55.94 9.16
  A 4.92 4.92 0.0 0 0 51.02 14.08
  A 4.92 4.92 0.0 0 0 55.94 19.00
  A 4.92 4.92 0.0 0 0 60.86 14.08
  Z"
/>
<path d="
  M 11.97 15.09
  L 8.42 9.08
  A 0.56 0.56 0.0 0 1 8.90 8.23
  L 13.54 8.25
  A 0.56 0.56 0.0 0 1 14.02 8.52
  L 17.88 14.98
  A 0.56 0.56 0.0 0 1 17.87 15.56
  L 14.01 21.85
  A 0.56 0.56 0.0 0 1 13.54 22.11
  L 8.91 22.17
  A 0.56 0.56 0.0 0 1 8.43 21.31
  L 11.96 15.67
  A 0.56 0.56 0.0 0 0 11.97 15.09
  Z"
/>
<path d="
  M 18.07 21.58
  L 21.82 15.58
  A 0.39 0.39 0.0 0 0 21.83 15.18
  L 18.07 8.82
  A 0.39 0.39 0.0 0 1 18.41 8.24
  L 23.43 8.28
  A 0.39 0.39 0.0 0 1 23.76 8.47
  L 27.73 15.03
  A 0.39 0.39 0.0 0 1 27.73 15.43
  L 23.77 21.92
  A 0.39 0.39 0.0 0 1 23.44 22.10
  L 18.41 22.18
  A 0.39 0.39 0.0 0 1 18.07 21.58
  Z"
/>
<path d="
  M 31.63 15.14
  L 27.86 8.83
  A 0.39 0.39 0.0 0 1 28.20 8.24
  L 33.19 8.26
  A 0.39 0.39 0.0 0 1 33.52 8.45
  L 37.52 15.01
  A 0.39 0.39 0.0 0 1 37.52 15.41
  L 33.56 21.90
  A 0.39 0.39 0.0 0 1 33.24 22.09
  L 28.23 22.20
  A 0.39 0.39 0.0 0 1 27.89 21.61
  L 31.63 15.54
  A 0.39 0.39 0.0 0 0 31.63 15.14
  Z"
/>
<rect x="-6.73" y="-9.78" transform="translate(39.56,36.66) rotate(35.9)" width="13.46" height="19.56" rx="0.47"/>
<path d="
  M 27.73 50.51
  L 27.27 50.05
  Q 26.81 49.60 27.26 49.14
  L 28.09 48.28
  A 0.96 0.96 0.0 0 0 27.94 46.82
  L 25.68 45.28
  A 0.59 0.59 0.0 0 1 25.53 44.45
  L 26.72 42.79
  A 0.75 0.75 0.0 0 1 27.78 42.62
  L 37.26 49.56
  Q 38.10 50.18 37.48 51.03
  L 36.66 52.14
  Q 36.05 52.98 35.27 52.29
  L 33.43 50.67
  Q 33.02 50.31 32.58 50.61
  Q 31.74 51.18 31.39 52.19
  Q 31.15 52.88 30.52 52.50
  L 29.94 52.13
  Q 29.45 51.83 29.13 52.30
  L 22.50 61.97
  Q 22.09 62.57 21.40 62.33
  L 21.03 62.20
  A 0.45 0.44 27.4 0 1 20.81 61.53
  L 27.82 51.51
  Q 28.20 50.97 27.73 50.51
  Z"
/>
</g>
</svg>
