<?xml version="1.0" encoding="UTF-8" standalone="no"?>
<!DOCTYPE svg PUBLIC "-//W3C//DTD SVG 1.1//EN" "http://www.w3.org/Graphics/SVG/1.1/DTD/svg11.dtd">
<svg xmlns="http://www.w3.org/2000/svg" version="1.1" viewBox="0.00 0.00 70.00 70.00">
<g stroke-width="2.00" fill="none" stroke-linecap="butt">
<path stroke="#51565d" vector-effect="non-scaling-stroke" d="
  M 46.01 38.31
  C 45.81 40.47 45.89 42.95 44.42 44.78
  Q 41.39 48.55 39.08 52.13
  A 1.87 1.87 0.0 0 0 39.57 54.68
  L 40.14 55.08
  Q 41.65 56.13 42.74 54.66
  Q 45.47 51.01 48.64 46.80
  Q 49.99 45.02 50.21 42.93
  C 50.65 38.75 51.47 34.91 50.48 30.66
  Q 49.69 27.24 49.15 24.12
  A 0.61 0.61 0.0 0 1 49.58 23.43
  C 52.14 22.67 55.06 22.11 56.69 19.77
  Q 59.37 15.91 61.97 12.36
  Q 63.14 10.77 62.10 9.09
  Q 61.94 8.84 61.70 8.69
  Q 59.61 7.38 58.17 9.38
  L 52.76 16.85
  A 2.14 2.12 -81.5 0 1 51.71 17.63
  Q 48.22 18.80 44.75 20.01
  Q 40.79 21.37 41.55 25.28
  Q 42.47 29.98 43.53 34.87
  Q 43.92 36.70 45.58 37.53
  A 0.79 0.78 -74.2 0 1 46.01 38.31"
/>
<path stroke="#51565d" vector-effect="non-scaling-stroke" d="
  M 46.04 13.96
  A 4.53 4.53 0.0 0 0 41.51 9.43
  A 4.53 4.53 0.0 0 0 36.98 13.96
  A 4.53 4.53 0.0 0 0 41.51 18.49
  A 4.53 4.53 0.0 0 0 46.04 13.96"
/>
<path stroke="#51565d" vector-effect="non-scaling-stroke" d="
  M 14.87 17.87
  A 0.32 0.32 0.0 0 1 15.19 17.87
  L 22.12 21.93
  A 0.32 0.32 0.0 0 0 22.61 21.65
  L 22.57 16.01
  A 0.32 0.32 0.0 0 0 22.41 15.74
  L 15.32 11.54
  A 0.32 0.32 0.0 0 0 15.00 11.54
  L 7.92 15.74
  A 0.32 0.32 0.0 0 0 7.76 16.01
  L 7.71 21.64
  A 0.32 0.32 0.0 0 0 8.19 21.91
  L 14.87 17.87"
/>
<path stroke="#51565d" vector-effect="non-scaling-stroke" d="
  M 14.85 30.81
  A 0.31 0.31 0.0 0 1 15.17 30.80
  L 22.16 34.86
  A 0.31 0.31 0.0 0 0 22.62 34.59
  L 22.54 28.94
  A 0.31 0.31 0.0 0 0 22.39 28.68
  L 15.33 24.48
  A 0.31 0.31 0.0 0 0 15.01 24.48
  L 7.89 28.70
  A 0.31 0.31 0.0 0 0 7.74 28.97
  L 7.71 34.60
  A 0.31 0.31 0.0 0 0 8.18 34.87
  L 14.85 30.81"
/>
<path stroke="#51565d" vector-effect="non-scaling-stroke" d="
  M 39.00 40.52
  L 34.26 40.98
  A 2.04 2.01 -71.6 0 0 32.91 41.67
  Q 31.82 42.91 32.04 43.86
  Q 32.48 45.73 34.38 45.61
  Q 36.66 45.48 39.30 45.35
  C 42.03 45.22 43.33 42.25 43.41 39.91
  C 43.44 38.88 42.67 38.38 42.08 37.66
  Q 41.62 37.11 41.27 37.75
  L 40.20 39.72
  A 1.54 1.53 -78.5 0 1 39.00 40.52"
/>
<path stroke="#51565d" vector-effect="non-scaling-stroke" d="
  M 14.85 43.75
  A 0.31 0.31 0.0 0 1 15.17 43.74
  L 22.14 47.81
  A 0.31 0.31 0.0 0 0 22.60 47.54
  L 22.55 41.89
  A 0.31 0.31 0.0 0 0 22.40 41.63
  L 15.32 37.42
  A 0.31 0.31 0.0 0 0 15.00 37.42
  L 7.90 41.64
  A 0.31 0.31 0.0 0 0 7.75 41.90
  L 7.70 47.56
  A 0.31 0.31 0.0 0 0 8.18 47.83
  L 14.85 43.75"
/>
<path stroke="#51565d" vector-effect="non-scaling-stroke" d="
  M 14.84 56.71
  A 0.33 0.33 0.0 0 1 15.18 56.71
  L 22.13 60.77
  A 0.33 0.33 0.0 0 0 22.62 60.48
  L 22.54 54.85
  A 0.33 0.33 0.0 0 0 22.38 54.58
  L 15.33 50.39
  A 0.33 0.33 0.0 0 0 14.99 50.39
  L 7.90 54.60
  A 0.33 0.33 0.0 0 0 7.74 54.89
  L 7.71 60.47
  A 0.33 0.33 0.0 0 0 8.21 60.75
  L 14.84 56.71"
/>
</g>
<path fill="#292f38" d="
  M 0.00 0.00
  L 70.00 0.00
  L 70.00 70.00
  L 0.00 70.00
  L 0.00 0.00
  Z
  M 46.01 38.31
  C 45.81 40.47 45.89 42.95 44.42 44.78
  Q 41.39 48.55 39.08 52.13
  A 1.87 1.87 0.0 0 0 39.57 54.68
  L 40.14 55.08
  Q 41.65 56.13 42.74 54.66
  Q 45.47 51.01 48.64 46.80
  Q 49.99 45.02 50.21 42.93
  C 50.65 38.75 51.47 34.91 50.48 30.66
  Q 49.69 27.24 49.15 24.12
  A 0.61 0.61 0.0 0 1 49.58 23.43
  C 52.14 22.67 55.06 22.11 56.69 19.77
  Q 59.37 15.91 61.97 12.36
  Q 63.14 10.77 62.10 9.09
  Q 61.94 8.84 61.70 8.69
  Q 59.61 7.38 58.17 9.38
  L 52.76 16.85
  A 2.14 2.12 -81.5 0 1 51.71 17.63
  Q 48.22 18.80 44.75 20.01
  Q 40.79 21.37 41.55 25.28
  Q 42.47 29.98 43.53 34.87
  Q 43.92 36.70 45.58 37.53
  A 0.79 0.78 -74.2 0 1 46.01 38.31
  Z
  M 46.04 13.96
  A 4.53 4.53 0.0 0 0 41.51 9.43
  A 4.53 4.53 0.0 0 0 36.98 13.96
  A 4.53 4.53 0.0 0 0 41.51 18.49
  A 4.53 4.53 0.0 0 0 46.04 13.96
  Z
  M 14.87 17.87
  A 0.32 0.32 0.0 0 1 15.19 17.87
  L 22.12 21.93
  A 0.32 0.32 0.0 0 0 22.61 21.65
  L 22.57 16.01
  A 0.32 0.32 0.0 0 0 22.41 15.74
  L 15.32 11.54
  A 0.32 0.32 0.0 0 0 15.00 11.54
  L 7.92 15.74
  A 0.32 0.32 0.0 0 0 7.76 16.01
  L 7.71 21.64
  A 0.32 0.32 0.0 0 0 8.19 21.91
  L 14.87 17.87
  Z
  M 14.85 30.81
  A 0.31 0.31 0.0 0 1 15.17 30.80
  L 22.16 34.86
  A 0.31 0.31 0.0 0 0 22.62 34.59
  L 22.54 28.94
  A 0.31 0.31 0.0 0 0 22.39 28.68
  L 15.33 24.48
  A 0.31 0.31 0.0 0 0 15.01 24.48
  L 7.89 28.70
  A 0.31 0.31 0.0 0 0 7.74 28.97
  L 7.71 34.60
  A 0.31 0.31 0.0 0 0 8.18 34.87
  L 14.85 30.81
  Z
  M 39.00 40.52
  L 34.26 40.98
  A 2.04 2.01 -71.6 0 0 32.91 41.67
  Q 31.82 42.91 32.04 43.86
  Q 32.48 45.73 34.38 45.61
  Q 36.66 45.48 39.30 45.35
  C 42.03 45.22 43.33 42.25 43.41 39.91
  C 43.44 38.88 42.67 38.38 42.08 37.66
  Q 41.62 37.11 41.27 37.75
  L 40.20 39.72
  A 1.54 1.53 -78.5 0 1 39.00 40.52
  Z
  M 14.85 43.75
  A 0.31 0.31 0.0 0 1 15.17 43.74
  L 22.14 47.81
  A 0.31 0.31 0.0 0 0 22.60 47.54
  L 22.55 41.89
  A 0.31 0.31 0.0 0 0 22.40 41.63
  L 15.32 37.42
  A 0.31 0.31 0.0 0 0 15.00 37.42
  L 7.90 41.64
  A 0.31 0.31 0.0 0 0 7.75 41.90
  L 7.70 47.56
  A 0.31 0.31 0.0 0 0 8.18 47.83
  L 14.85 43.75
  Z
  M 14.84 56.71
  A 0.33 0.33 0.0 0 1 15.18 56.71
  L 22.13 60.77
  A 0.33 0.33 0.0 0 0 22.62 60.48
  L 22.54 54.85
  A 0.33 0.33 0.0 0 0 22.38 54.58
  L 15.33 50.39
  A 0.33 0.33 0.0 0 0 14.99 50.39
  L 7.90 54.60
  A 0.33 0.33 0.0 0 0 7.74 54.89
  L 7.71 60.47
  A 0.33 0.33 0.0 0 0 8.21 60.75
  L 14.84 56.71
  Z"
/>
<path fill="#797c82" d="
  M 45.58 37.53
  Q 43.92 36.70 43.53 34.87
  Q 42.47 29.98 41.55 25.28
  Q 40.79 21.37 44.75 20.01
  Q 48.22 18.80 51.71 17.63
  A 2.14 2.12 -81.5 0 0 52.76 16.85
  L 58.17 9.38
  Q 59.61 7.38 61.70 8.69
  Q 61.94 8.84 62.10 9.09
  Q 63.14 10.77 61.97 12.36
  Q 59.37 15.91 56.69 19.77
  C 55.06 22.11 52.14 22.67 49.58 23.43
  A 0.61 0.61 0.0 0 0 49.15 24.12
  Q 49.69 27.24 50.48 30.66
  C 51.47 34.91 50.65 38.75 50.21 42.93
  Q 49.99 45.02 48.64 46.80
  Q 45.47 51.01 42.74 54.66
  Q 41.65 56.13 40.14 55.08
  L 39.57 54.68
  A 1.87 1.87 0.0 0 1 39.08 52.13
  Q 41.39 48.55 44.42 44.78
  C 45.89 42.95 45.81 40.47 46.01 38.31
  A 0.79 0.78 -74.2 0 0 45.58 37.53
  Z"
/>
<circle fill="#797c82" cx="41.51" cy="13.96" r="4.53"/>
<path fill="#797c82" d="
  M 14.87 17.87
  L 8.19 21.91
  A 0.32 0.32 0.0 0 1 7.71 21.64
  L 7.76 16.01
  A 0.32 0.32 0.0 0 1 7.92 15.74
  L 15.00 11.54
  A 0.32 0.32 0.0 0 1 15.32 11.54
  L 22.41 15.74
  A 0.32 0.32 0.0 0 1 22.57 16.01
  L 22.61 21.65
  A 0.32 0.32 0.0 0 1 22.12 21.93
  L 15.19 17.87
  A 0.32 0.32 0.0 0 0 14.87 17.87
  Z"
/>
<path fill="#797c82" d="
  M 14.85 30.81
  L 8.18 34.87
  A 0.31 0.31 0.0 0 1 7.71 34.60
  L 7.74 28.97
  A 0.31 0.31 0.0 0 1 7.89 28.70
  L 15.01 24.48
  A 0.31 0.31 0.0 0 1 15.33 24.48
  L 22.39 28.68
  A 0.31 0.31 0.0 0 1 22.54 28.94
  L 22.62 34.59
  A 0.31 0.31 0.0 0 1 22.16 34.86
  L 15.17 30.80
  A 0.31 0.31 0.0 0 0 14.85 30.81
  Z"
/>
<path fill="#797c82" d="
  M 40.20 39.72
  L 41.27 37.75
  Q 41.62 37.11 42.08 37.66
  C 42.67 38.38 43.44 38.88 43.41 39.91
  C 43.33 42.25 42.03 45.22 39.30 45.35
  Q 36.66 45.48 34.38 45.61
  Q 32.48 45.73 32.04 43.86
  Q 31.82 42.91 32.91 41.67
  A 2.04 2.01 -71.6 0 1 34.26 40.98
  L 39.00 40.52
  A 1.54 1.53 -78.5 0 0 40.20 39.72
  Z"
/>
<path fill="#797c82" d="
  M 14.85 43.75
  L 8.18 47.83
  A 0.31 0.31 0.0 0 1 7.70 47.56
  L 7.75 41.90
  A 0.31 0.31 0.0 0 1 7.90 41.64
  L 15.00 37.42
  A 0.31 0.31 0.0 0 1 15.32 37.42
  L 22.40 41.63
  A 0.31 0.31 0.0 0 1 22.55 41.89
  L 22.60 47.54
  A 0.31 0.31 0.0 0 1 22.14 47.81
  L 15.17 43.74
  A 0.31 0.31 0.0 0 0 14.85 43.75
  Z"
/>
<path fill="#797c82" d="
  M 14.84 56.71
  L 8.21 60.75
  A 0.33 0.33 0.0 0 1 7.71 60.47
  L 7.74 54.89
  A 0.33 0.33 0.0 0 1 7.90 54.60
  L 14.99 50.39
  A 0.33 0.33 0.0 0 1 15.33 50.39
  L 22.38 54.58
  A 0.33 0.33 0.0 0 1 22.54 54.85
  L 22.62 60.48
  A 0.33 0.33 0.0 0 1 22.13 60.77
  L 15.18 56.71
  A 0.33 0.33 0.0 0 0 14.84 56.71
  Z"
/>
</svg>
