<?xml version="1.0" encoding="UTF-8" standalone="no"?>
<!DOCTYPE svg PUBLIC "-//W3C//DTD SVG 1.1//EN" "http://www.w3.org/Graphics/SVG/1.1/DTD/svg11.dtd">
<svg xmlns="http://www.w3.org/2000/svg" version="1.1" viewBox="0.00 0.00 70.00 70.00">
<g stroke-width="2.00" fill="none" stroke-linecap="butt">
<path stroke="#5b9763" vector-effect="non-scaling-stroke" d="
  M 21.74 45.13
  C 17.63 43.66 16.36 39.20 16.24 35.14
  Q 16.21 34.04 15.44 34.83
  Q 12.78 37.57 11.95 41.24
  C 8.80 55.06 17.25 63.44 30.03 65.66
  Q 30.59 65.75 30.68 65.19
  Q 31.73 58.37 32.48 51.98
  Q 32.79 49.37 32.42 46.55
  Q 32.33 45.82 31.95 46.45
  L 28.42 52.33
  A 1.53 1.52 5.9 0 1 27.64 52.96
  Q 25.93 53.58 25.22 52.62
  Q 24.24 51.28 25.11 49.87
  L 31.35 39.77
  A 2.11 2.09 15.1 0 1 33.11 38.77
  Q 37.21 38.72 41.00 38.80
  Q 42.27 38.82 42.96 40.01
  Q 46.38 45.89 48.07 52.24
  Q 48.54 54.04 46.81 54.71
  Q 46.05 55.01 45.19 54.64
  A 1.32 1.31 2.2 0 1 44.46 53.86
  L 42.26 47.55
  Q 41.32 44.88 41.31 47.71
  Q 41.30 49.60 41.60 51.34
  Q 42.76 57.98 44.17 64.76
  Q 44.32 65.48 45.01 65.24
  Q 57.26 61.03 58.09 47.49
  Q 58.15 46.56 57.73 47.39
  C 56.64 49.59 55.45 51.26 53.07 52.18
  Q 52.26 52.50 52.49 51.66
  C 56.10 38.82 54.53 23.53 43.14 15.14
  Q 42.49 14.66 42.62 15.46
  C 43.19 19.17 42.07 22.54 37.46 21.59
  C 27.88 19.61 34.92 9.44 38.68 6.19
  Q 39.34 5.62 38.54 5.97
  Q 30.66 9.35 26.19 16.49
  C 20.60 25.42 17.80 34.56 22.16 44.69
  Q 22.45 45.38 21.74 45.13"
/>
<path stroke="#5b9763" vector-effect="non-scaling-stroke" d="
  M 35.08 65.18
  A 0.48 0.48 0.0 0 0 35.53 65.74
  L 39.35 65.86
  A 0.48 0.48 0.0 0 0 39.83 65.28
  L 37.63 55.01
  A 0.48 0.48 0.0 0 0 36.69 55.03
  L 35.08 65.18"
/>
<path stroke="#5b9763" vector-effect="non-scaling-stroke" d="
  M 41.47 31.89
  A 4.26 4.26 0.0 0 0 37.21 27.63
  A 4.26 4.26 0.0 0 0 32.95 31.89
  A 4.26 4.26 0.0 0 0 37.21 36.15
  A 4.26 4.26 0.0 0 0 41.47 31.89"
/>
</g>
<path fill="#292f38" d="
  M 0.00 0.00
  L 70.00 0.00
  L 70.00 70.00
  L 0.00 70.00
  L 0.00 0.00
  Z
  M 21.74 45.13
  C 17.63 43.66 16.36 39.20 16.24 35.14
  Q 16.21 34.04 15.44 34.83
  Q 12.78 37.57 11.95 41.24
  C 8.80 55.06 17.25 63.44 30.03 65.66
  Q 30.59 65.75 30.68 65.19
  Q 31.73 58.37 32.48 51.98
  Q 32.79 49.37 32.42 46.55
  Q 32.33 45.82 31.95 46.45
  L 28.42 52.33
  A 1.53 1.52 5.9 0 1 27.64 52.96
  Q 25.93 53.58 25.22 52.62
  Q 24.24 51.28 25.11 49.87
  L 31.35 39.77
  A 2.11 2.09 15.1 0 1 33.11 38.77
  Q 37.21 38.72 41.00 38.80
  Q 42.27 38.82 42.96 40.01
  Q 46.38 45.89 48.07 52.24
  Q 48.54 54.04 46.81 54.71
  Q 46.05 55.01 45.19 54.64
  A 1.32 1.31 2.2 0 1 44.46 53.86
  L 42.26 47.55
  Q 41.32 44.88 41.31 47.71
  Q 41.30 49.60 41.60 51.34
  Q 42.76 57.98 44.17 64.76
  Q 44.32 65.48 45.01 65.24
  Q 57.26 61.03 58.09 47.49
  Q 58.15 46.56 57.73 47.39
  C 56.64 49.59 55.45 51.26 53.07 52.18
  Q 52.26 52.50 52.49 51.66
  C 56.10 38.82 54.53 23.53 43.14 15.14
  Q 42.49 14.66 42.62 15.46
  C 43.19 19.17 42.07 22.54 37.46 21.59
  C 27.88 19.61 34.92 9.44 38.68 6.19
  Q 39.34 5.62 38.54 5.97
  Q 30.66 9.35 26.19 16.49
  C 20.60 25.42 17.80 34.56 22.16 44.69
  Q 22.45 45.38 21.74 45.13
  Z
  M 35.08 65.18
  A 0.48 0.48 0.0 0 0 35.53 65.74
  L 39.35 65.86
  A 0.48 0.48 0.0 0 0 39.83 65.28
  L 37.63 55.01
  A 0.48 0.48 0.0 0 0 36.69 55.03
  L 35.08 65.18
  Z"
/>
<path fill="#8dff8d" d="
  M 22.16 44.69
  C 17.80 34.56 20.60 25.42 26.19 16.49
  Q 30.66 9.35 38.54 5.97
  Q 39.34 5.62 38.68 6.19
  C 34.92 9.44 27.88 19.61 37.46 21.59
  C 42.07 22.54 43.19 19.17 42.62 15.46
  Q 42.49 14.66 43.14 15.14
  C 54.53 23.53 56.10 38.82 52.49 51.66
  Q 52.26 52.50 53.07 52.18
  C 55.45 51.26 56.64 49.59 57.73 47.39
  Q 58.15 46.56 58.09 47.49
  Q 57.26 61.03 45.01 65.24
  Q 44.32 65.48 44.17 64.76
  Q 42.76 57.98 41.60 51.34
  Q 41.30 49.60 41.31 47.71
  Q 41.32 44.88 42.26 47.55
  L 44.46 53.86
  A 1.32 1.31 2.2 0 0 45.19 54.64
  Q 46.05 55.01 46.81 54.71
  Q 48.54 54.04 48.07 52.24
  Q 46.38 45.89 42.96 40.01
  Q 42.27 38.82 41.00 38.80
  Q 37.21 38.72 33.11 38.77
  A 2.11 2.09 15.1 0 0 31.35 39.77
  L 25.11 49.87
  Q 24.24 51.28 25.22 52.62
  Q 25.93 53.58 27.64 52.96
  A 1.53 1.52 5.9 0 0 28.42 52.33
  L 31.95 46.45
  Q 32.33 45.82 32.42 46.55
  Q 32.79 49.37 32.48 51.98
  Q 31.73 58.37 30.68 65.19
  Q 30.59 65.75 30.03 65.66
  C 17.25 63.44 8.80 55.06 11.95 41.24
  Q 12.78 37.57 15.44 34.83
  Q 16.21 34.04 16.24 35.14
  C 16.36 39.20 17.63 43.66 21.74 45.13
  Q 22.45 45.38 22.16 44.69
  Z
  M 41.47 31.89
  A 4.26 4.26 0.0 0 0 37.21 27.63
  A 4.26 4.26 0.0 0 0 32.95 31.89
  A 4.26 4.26 0.0 0 0 37.21 36.15
  A 4.26 4.26 0.0 0 0 41.47 31.89
  Z"
/>
<circle fill="#292f38" cx="37.21" cy="31.89" r="4.26"/>
<path fill="#8dff8d" d="
  M 35.08 65.18
  L 36.69 55.03
  A 0.48 0.48 0.0 0 1 37.63 55.01
  L 39.83 65.28
  A 0.48 0.48 0.0 0 1 39.35 65.86
  L 35.53 65.74
  A 0.48 0.48 0.0 0 1 35.08 65.18
  Z"
/>
</svg>
