<?xml version="1.0" encoding="UTF-8" standalone="no"?>
<!DOCTYPE svg PUBLIC "-//W3C//DTD SVG 1.1//EN" "http://www.w3.org/Graphics/SVG/1.1/DTD/svg11.dtd">
<svg xmlns="http://www.w3.org/2000/svg" version="1.1" viewBox="0.00 0.00 35.00 35.00">
<path stroke="#8d8c90" stroke-width="2.00" fill="none" stroke-linecap="butt" vector-effect="non-scaling-stroke" d="
  M 9.04 26.14
  L 5.62 25.55
  Q 4.72 25.40 5.36 26.05
  L 8.34 29.04
  Q 8.77 29.47 9.38 29.43
  Q 12.59 29.19 15.44 30.97
  Q 16.32 31.51 15.66 30.72
  Q 14.94 29.83 13.86 29.12
  Q 12.75 28.40 14.03 28.06
  L 14.74 27.88
  Q 15.43 27.70 14.98 27.14
  L 11.68 23.09
  Q 11.15 22.45 11.98 22.34
  L 15.40 21.90
  Q 15.96 21.82 16.12 21.27
  L 17.78 15.25
  Q 18.01 14.44 18.20 15.26
  L 19.37 20.18
  Q 19.51 20.77 20.09 20.60
  L 23.24 19.69
  Q 24.04 19.45 23.68 20.20
  L 21.76 24.27
  A 0.59 0.59 0.0 0 0 22.39 25.10
  Q 22.90 25.01 23.37 25.24
  Q 23.98 25.56 23.55 26.10
  L 20.14 30.43
  Q 19.51 31.23 20.41 30.75
  Q 24.96 28.36 28.96 26.14
  Q 30.54 25.27 31.31 23.21
  Q 31.52 22.67 30.94 22.71
  L 25.79 23.01
  Q 24.98 23.06 25.33 22.33
  L 28.81 15.11
  Q 29.22 14.25 28.33 14.59
  L 23.26 16.50
  Q 22.50 16.79 22.73 16.01
  L 23.96 11.92
  Q 24.26 10.93 23.37 11.46
  L 20.97 12.89
  A 0.67 0.67 0.0 0 1 19.99 12.53
  L 17.79 5.99
  Q 17.48 5.06 17.24 6.01
  L 15.21 13.99
  A 0.40 0.40 0.0 0 1 14.56 14.18
  L 11.14 11.07
  Q 10.52 10.51 10.66 11.33
  L 12.08 19.63
  A 0.36 0.36 0.0 0 1 11.58 20.02
  L 5.61 17.38
  Q 4.74 16.99 5.19 17.83
  L 9.41 25.62
  Q 9.76 26.26 9.04 26.14"
/>
<path fill="#3f3c45" d="
  M 0.00 0.00
  L 35.00 0.00
  L 35.00 35.00
  L 0.00 35.00
  L 0.00 0.00
  Z
  M 9.04 26.14
  L 5.62 25.55
  Q 4.72 25.40 5.36 26.05
  L 8.34 29.04
  Q 8.77 29.47 9.38 29.43
  Q 12.59 29.19 15.44 30.97
  Q 16.32 31.51 15.66 30.72
  Q 14.94 29.83 13.86 29.12
  Q 12.75 28.40 14.03 28.06
  L 14.74 27.88
  Q 15.43 27.70 14.98 27.14
  L 11.68 23.09
  Q 11.15 22.45 11.98 22.34
  L 15.40 21.90
  Q 15.96 21.82 16.12 21.27
  L 17.78 15.25
  Q 18.01 14.44 18.20 15.26
  L 19.37 20.18
  Q 19.51 20.77 20.09 20.60
  L 23.24 19.69
  Q 24.04 19.45 23.68 20.20
  L 21.76 24.27
  A 0.59 0.59 0.0 0 0 22.39 25.10
  Q 22.90 25.01 23.37 25.24
  Q 23.98 25.56 23.55 26.10
  L 20.14 30.43
  Q 19.51 31.23 20.41 30.75
  Q 24.96 28.36 28.96 26.14
  Q 30.54 25.27 31.31 23.21
  Q 31.52 22.67 30.94 22.71
  L 25.79 23.01
  Q 24.98 23.06 25.33 22.33
  L 28.81 15.11
  Q 29.22 14.25 28.33 14.59
  L 23.26 16.50
  Q 22.50 16.79 22.73 16.01
  L 23.96 11.92
  Q 24.26 10.93 23.37 11.46
  L 20.97 12.89
  A 0.67 0.67 0.0 0 1 19.99 12.53
  L 17.79 5.99
  Q 17.48 5.06 17.24 6.01
  L 15.21 13.99
  A 0.40 0.40 0.0 0 1 14.56 14.18
  L 11.14 11.07
  Q 10.52 10.51 10.66 11.33
  L 12.08 19.63
  A 0.36 0.36 0.0 0 1 11.58 20.02
  L 5.61 17.38
  Q 4.74 16.99 5.19 17.83
  L 9.41 25.62
  Q 9.76 26.26 9.04 26.14
  Z"
/>
<path fill="#dbdbdb" d="
  M 9.41 25.62
  L 5.19 17.83
  Q 4.74 16.99 5.61 17.38
  L 11.58 20.02
  A 0.36 0.36 0.0 0 0 12.08 19.63
  L 10.66 11.33
  Q 10.52 10.51 11.14 11.07
  L 14.56 14.18
  A 0.40 0.40 0.0 0 0 15.21 13.99
  L 17.24 6.01
  Q 17.48 5.06 17.79 5.99
  L 19.99 12.53
  A 0.67 0.67 0.0 0 0 20.97 12.89
  L 23.37 11.46
  Q 24.26 10.93 23.96 11.92
  L 22.73 16.01
  Q 22.50 16.79 23.26 16.50
  L 28.33 14.59
  Q 29.22 14.25 28.81 15.11
  L 25.33 22.33
  Q 24.98 23.06 25.79 23.01
  L 30.94 22.71
  Q 31.52 22.67 31.31 23.21
  Q 30.54 25.27 28.96 26.14
  Q 24.96 28.36 20.41 30.75
  Q 19.51 31.23 20.14 30.43
  L 23.55 26.10
  Q 23.98 25.56 23.37 25.24
  Q 22.90 25.01 22.39 25.10
  A 0.59 0.59 0.0 0 1 21.76 24.27
  L 23.68 20.20
  Q 24.04 19.45 23.24 19.69
  L 20.09 20.60
  Q 19.51 20.77 19.37 20.18
  L 18.20 15.26
  Q 18.01 14.44 17.78 15.25
  L 16.12 21.27
  Q 15.96 21.82 15.40 21.90
  L 11.98 22.34
  Q 11.15 22.45 11.68 23.09
  L 14.98 27.14
  Q 15.43 27.70 14.74 27.88
  L 14.03 28.06
  Q 12.75 28.40 13.86 29.12
  Q 14.94 29.83 15.66 30.72
  Q 16.32 31.51 15.44 30.97
  Q 12.59 29.19 9.38 29.43
  Q 8.77 29.47 8.34 29.04
  L 5.36 26.05
  Q 4.72 25.40 5.62 25.55
  L 9.04 26.14
  Q 9.76 26.26 9.41 25.62
  Z"
/>
</svg>
