<?xml version="1.0" encoding="UTF-8" standalone="no"?>
<!DOCTYPE svg PUBLIC "-//W3C//DTD SVG 1.1//EN" "http://www.w3.org/Graphics/SVG/1.1/DTD/svg11.dtd">
<svg xmlns="http://www.w3.org/2000/svg" version="1.1" viewBox="0.00 0.00 35.00 35.00">
<g stroke-width="2.00" fill="none" stroke-linecap="butt">
<path stroke="#8d8c91" vector-effect="non-scaling-stroke" d="
  M 8.56 28.29
  A 0.30 0.30 0.0 0 1 8.26 27.99
  L 8.21 5.04
  A 0.30 0.30 0.0 0 0 7.85 4.75
  L 7.03 4.90
  A 0.30 0.30 0.0 0 0 6.79 5.20
  L 6.74 30.88
  A 0.30 0.30 0.0 0 0 7.04 31.18
  L 29.16 31.12
  A 0.30 0.30 0.0 0 0 29.46 30.82
  L 29.48 4.97
  A 0.30 0.30 0.0 0 0 29.09 4.68
  L 28.26 4.94
  A 0.30 0.30 0.0 0 0 28.05 5.23
  L 27.95 27.93
  A 0.30 0.30 0.0 0 1 27.65 28.23
  L 8.56 28.29"
/>
<path stroke="#8d8c91" vector-effect="non-scaling-stroke" d="
  M 22.9822 9.5375
  A 0.64 0.64 0.0 0 0 22.3366 8.9031
  L 16.1569 8.9570
  A 0.64 0.64 0.0 0 0 15.5225 9.6026
  L 15.5378 11.3625
  A 0.64 0.64 0.0 0 0 16.1834 11.9969
  L 22.3631 11.9430
  A 0.64 0.64 0.0 0 0 22.9975 11.2974
  L 22.9822 9.5375"
/>
<path stroke="#8d8c91" vector-effect="non-scaling-stroke" d="
  M 24.4109 12.1693
  A 1.76 0.55 91.6 0 0 25.0098 10.4254
  A 1.76 0.55 91.6 0 0 24.5091 8.6507
  A 1.76 0.55 91.6 0 0 23.9102 10.3946
  A 1.76 0.55 91.6 0 0 24.4109 12.1693"
/>
<path stroke="#8d8c91" vector-effect="non-scaling-stroke" d="
  M 14.5380 9.9351
  A 0.83 0.83 0.0 0 0 13.7051 9.1080
  L 12.5651 9.1120
  A 0.83 0.83 0.0 0 0 11.7380 9.9449
  L 11.7420 11.0849
  A 0.83 0.83 0.0 0 0 12.5749 11.9120
  L 13.7149 11.9080
  A 0.83 0.83 0.0 0 0 14.5420 11.0751
  L 14.5380 9.9351"
/>
<path stroke="#8d8c91" vector-effect="non-scaling-stroke" d="
  M 23.90 18.22
  A 0.43 0.43 0.0 0 0 24.68 18.45
  Q 25.46 17.31 24.78 15.77
  Q 24.31 14.70 24.09 15.85
  Q 23.87 16.99 23.90 18.22"
/>
<path stroke="#8d8c91" vector-effect="non-scaling-stroke" d="
  M 14.50 18.02
  L 14.60 16.09
  A 0.52 0.52 0.0 0 0 14.11 15.54
  L 13.33 15.50
  A 1.52 1.25 3.1 0 0 11.75 16.66
  L 11.72 17.14
  A 1.52 1.25 3.1 0 0 13.17 18.47
  L 13.95 18.52
  A 0.52 0.52 0.0 0 0 14.50 18.02"
/>
<path stroke="#8d8c91" vector-effect="non-scaling-stroke" d="
  M 23.1051 16.2735
  A 0.84 0.84 0.0 0 0 22.2592 15.4394
  L 16.3394 15.4807
  A 0.84 0.84 0.0 0 0 15.5053 16.3265
  L 15.5149 17.7065
  A 0.84 0.84 0.0 0 0 16.3608 18.5406
  L 22.2806 18.4993
  A 0.84 0.84 0.0 0 0 23.1147 17.6535
  L 23.1051 16.2735"
/>
<path stroke="#8d8c91" vector-effect="non-scaling-stroke" d="
  M 23.1740 23.0228
  A 1.04 1.04 0.0 0 0 22.1213 21.9955
  L 16.4618 22.0647
  A 1.04 1.04 0.0 0 0 15.4345 23.1173
  L 15.4460 24.0572
  A 1.04 1.04 0.0 0 0 16.4987 25.0845
  L 22.1582 25.0153
  A 1.04 1.04 0.0 0 0 23.1855 23.9627
  L 23.1740 23.0228"
/>
<path stroke="#8d8c91" vector-effect="non-scaling-stroke" d="
  M 24.3237 25.0075
  A 1.50 0.60 93.3 0 0 25.0090 23.5445
  A 1.50 0.60 93.3 0 0 24.4963 22.0125
  A 1.50 0.60 93.3 0 0 23.8110 23.4755
  A 1.50 0.60 93.3 0 0 24.3237 25.0075"
/>
<path stroke="#8d8c91" vector-effect="non-scaling-stroke" d="
  M 14.5299 23.0368
  A 0.78 0.78 0.0 0 0 13.7650 22.2420
  L 12.5453 22.2185
  A 0.78 0.78 0.0 0 0 11.7504 22.9834
  L 11.7301 24.0432
  A 0.78 0.78 0.0 0 0 12.4950 24.8380
  L 13.7147 24.8615
  A 0.78 0.78 0.0 0 0 14.5096 24.0966
  L 14.5299 23.0368"
/>
</g>
<path fill="#3e3c45" d="
  M 0.00 0.00
  L 35.00 0.00
  L 35.00 35.00
  L 0.00 35.00
  L 0.00 0.00
  Z
  M 8.56 28.29
  A 0.30 0.30 0.0 0 1 8.26 27.99
  L 8.21 5.04
  A 0.30 0.30 0.0 0 0 7.85 4.75
  L 7.03 4.90
  A 0.30 0.30 0.0 0 0 6.79 5.20
  L 6.74 30.88
  A 0.30 0.30 0.0 0 0 7.04 31.18
  L 29.16 31.12
  A 0.30 0.30 0.0 0 0 29.46 30.82
  L 29.48 4.97
  A 0.30 0.30 0.0 0 0 29.09 4.68
  L 28.26 4.94
  A 0.30 0.30 0.0 0 0 28.05 5.23
  L 27.95 27.93
  A 0.30 0.30 0.0 0 1 27.65 28.23
  L 8.56 28.29
  Z
  M 22.9822 9.5375
  A 0.64 0.64 0.0 0 0 22.3366 8.9031
  L 16.1569 8.9570
  A 0.64 0.64 0.0 0 0 15.5225 9.6026
  L 15.5378 11.3625
  A 0.64 0.64 0.0 0 0 16.1834 11.9969
  L 22.3631 11.9430
  A 0.64 0.64 0.0 0 0 22.9975 11.2974
  L 22.9822 9.5375
  Z
  M 24.4109 12.1693
  A 1.76 0.55 91.6 0 0 25.0098 10.4254
  A 1.76 0.55 91.6 0 0 24.5091 8.6507
  A 1.76 0.55 91.6 0 0 23.9102 10.3946
  A 1.76 0.55 91.6 0 0 24.4109 12.1693
  Z
  M 14.5380 9.9351
  A 0.83 0.83 0.0 0 0 13.7051 9.1080
  L 12.5651 9.1120
  A 0.83 0.83 0.0 0 0 11.7380 9.9449
  L 11.7420 11.0849
  A 0.83 0.83 0.0 0 0 12.5749 11.9120
  L 13.7149 11.9080
  A 0.83 0.83 0.0 0 0 14.5420 11.0751
  L 14.5380 9.9351
  Z
  M 23.90 18.22
  A 0.43 0.43 0.0 0 0 24.68 18.45
  Q 25.46 17.31 24.78 15.77
  Q 24.31 14.70 24.09 15.85
  Q 23.87 16.99 23.90 18.22
  Z
  M 14.50 18.02
  L 14.60 16.09
  A 0.52 0.52 0.0 0 0 14.11 15.54
  L 13.33 15.50
  A 1.52 1.25 3.1 0 0 11.75 16.66
  L 11.72 17.14
  A 1.52 1.25 3.1 0 0 13.17 18.47
  L 13.95 18.52
  A 0.52 0.52 0.0 0 0 14.50 18.02
  Z
  M 23.1051 16.2735
  A 0.84 0.84 0.0 0 0 22.2592 15.4394
  L 16.3394 15.4807
  A 0.84 0.84 0.0 0 0 15.5053 16.3265
  L 15.5149 17.7065
  A 0.84 0.84 0.0 0 0 16.3608 18.5406
  L 22.2806 18.4993
  A 0.84 0.84 0.0 0 0 23.1147 17.6535
  L 23.1051 16.2735
  Z
  M 23.1740 23.0228
  A 1.04 1.04 0.0 0 0 22.1213 21.9955
  L 16.4618 22.0647
  A 1.04 1.04 0.0 0 0 15.4345 23.1173
  L 15.4460 24.0572
  A 1.04 1.04 0.0 0 0 16.4987 25.0845
  L 22.1582 25.0153
  A 1.04 1.04 0.0 0 0 23.1855 23.9627
  L 23.1740 23.0228
  Z
  M 24.3237 25.0075
  A 1.50 0.60 93.3 0 0 25.0090 23.5445
  A 1.50 0.60 93.3 0 0 24.4963 22.0125
  A 1.50 0.60 93.3 0 0 23.8110 23.4755
  A 1.50 0.60 93.3 0 0 24.3237 25.0075
  Z
  M 14.5299 23.0368
  A 0.78 0.78 0.0 0 0 13.7650 22.2420
  L 12.5453 22.2185
  A 0.78 0.78 0.0 0 0 11.7504 22.9834
  L 11.7301 24.0432
  A 0.78 0.78 0.0 0 0 12.4950 24.8380
  L 13.7147 24.8615
  A 0.78 0.78 0.0 0 0 14.5096 24.0966
  L 14.5299 23.0368
  Z"
/>
<path fill="#dcdcdc" d="
  M 8.56 28.29
  L 27.65 28.23
  A 0.30 0.30 0.0 0 0 27.95 27.93
  L 28.05 5.23
  A 0.30 0.30 0.0 0 1 28.26 4.94
  L 29.09 4.68
  A 0.30 0.30 0.0 0 1 29.48 4.97
  L 29.46 30.82
  A 0.30 0.30 0.0 0 1 29.16 31.12
  L 7.04 31.18
  A 0.30 0.30 0.0 0 1 6.74 30.88
  L 6.79 5.20
  A 0.30 0.30 0.0 0 1 7.03 4.90
  L 7.85 4.75
  A 0.30 0.30 0.0 0 1 8.21 5.04
  L 8.26 27.99
  A 0.30 0.30 0.0 0 0 8.56 28.29
  Z"
/>
<rect fill="#dcdcdc" x="-3.73" y="-1.52" transform="translate(19.26,10.45) rotate(-0.5)" width="7.46" height="3.04" rx="0.64"/>
<ellipse fill="#dcdcdc" cx="0.00" cy="0.00" transform="translate(24.46,10.41) rotate(91.6)" rx="1.76" ry="0.55"/>
<rect fill="#dcdcdc" x="-1.40" y="-1.40" transform="translate(13.14,10.51) rotate(-0.2)" width="2.80" height="2.80" rx="0.83"/>
<path fill="#dcdcdc" d="
  M 23.90 18.22
  Q 23.87 16.99 24.09 15.85
  Q 24.31 14.70 24.78 15.77
  Q 25.46 17.31 24.68 18.45
  A 0.43 0.43 0.0 0 1 23.90 18.22
  Z"
/>
<path fill="#dcdcdc" d="
  M 14.50 18.02
  A 0.52 0.52 0.0 0 1 13.95 18.52
  L 13.17 18.47
  A 1.52 1.25 3.1 0 1 11.72 17.14
  L 11.75 16.66
  A 1.52 1.25 3.1 0 1 13.33 15.50
  L 14.11 15.54
  A 0.52 0.52 0.0 0 1 14.60 16.09
  L 14.50 18.02
  Z"
/>
<rect fill="#dcdcdc" x="-3.80" y="-1.53" transform="translate(19.31,16.99) rotate(-0.4)" width="7.60" height="3.06" rx="0.84"/>
<rect fill="#dcdcdc" x="-3.87" y="-1.51" transform="translate(19.31,23.54) rotate(-0.7)" width="7.74" height="3.02" rx="1.04"/>
<ellipse fill="#dcdcdc" cx="0.00" cy="0.00" transform="translate(24.41,23.51) rotate(93.3)" rx="1.50" ry="0.60"/>
<rect fill="#dcdcdc" x="-1.39" y="-1.31" transform="translate(13.13,23.54) rotate(1.1)" width="2.78" height="2.62" rx="0.78"/>
</svg>
