<?xml version="1.0" encoding="UTF-8" standalone="no"?>
<!DOCTYPE svg PUBLIC "-//W3C//DTD SVG 1.1//EN" "http://www.w3.org/Graphics/SVG/1.1/DTD/svg11.dtd">
<svg xmlns="http://www.w3.org/2000/svg" version="1.1" viewBox="0.00 0.00 35.00 35.00">
<g stroke-width="2.00" fill="none" stroke-linecap="butt">
<path stroke="#8d8c90" vector-effect="non-scaling-stroke" d="
  M 27.42 13.35
  Q 23.90 12.96 23.58 9.65
  Q 23.53 9.13 23.89 8.76
  L 26.81 5.80
  A 0.44 0.44 0.0 0 0 26.61 5.07
  C 19.11 3.08 14.11 12.29 20.44 17.07
  C 25.08 20.56 31.09 17.19 31.42 11.48
  Q 31.52 9.71 30.25 10.95
  L 28.00 13.15
  Q 27.76 13.39 27.42 13.35"
/>
<path stroke="#8d8c90" vector-effect="non-scaling-stroke" d="
  M 9.35 26.38
  A 0.37 0.36 -40.4 0 1 9.39 25.91
  L 17.81 17.49
  A 1.13 1.13 0.0 0 0 17.89 15.98
  L 17.51 15.50
  Q 17.01 14.87 16.45 15.44
  L 5.81 26.06
  Q 4.11 27.76 5.28 29.87
  Q 5.46 30.21 5.77 30.43
  Q 8.09 32.12 10.13 30.10
  L 20.80 19.55
  Q 21.26 19.10 20.74 18.72
  L 19.97 18.15
  Q 19.37 17.70 18.85 18.23
  L 10.36 26.75
  A 0.52 0.51 -40.3 0 1 9.58 26.69
  L 9.35 26.38"
/>
<path stroke="#8d8c90" vector-effect="non-scaling-stroke" d="
  M 8.86 28.40
  A 1.23 1.23 0.0 0 0 7.63 27.17
  A 1.23 1.23 0.0 0 0 6.40 28.40
  A 1.23 1.23 0.0 0 0 7.63 29.63
  A 1.23 1.23 0.0 0 0 8.86 28.40"
/>
</g>
<path fill="#3e3c45" d="
  M 0.00 0.00
  L 35.00 0.00
  L 35.00 35.00
  L 0.00 35.00
  L 0.00 0.00
  Z
  M 27.42 13.35
  Q 23.90 12.96 23.58 9.65
  Q 23.53 9.13 23.89 8.76
  L 26.81 5.80
  A 0.44 0.44 0.0 0 0 26.61 5.07
  C 19.11 3.08 14.11 12.29 20.44 17.07
  C 25.08 20.56 31.09 17.19 31.42 11.48
  Q 31.52 9.71 30.25 10.95
  L 28.00 13.15
  Q 27.76 13.39 27.42 13.35
  Z
  M 9.35 26.38
  A 0.37 0.36 -40.4 0 1 9.39 25.91
  L 17.81 17.49
  A 1.13 1.13 0.0 0 0 17.89 15.98
  L 17.51 15.50
  Q 17.01 14.87 16.45 15.44
  L 5.81 26.06
  Q 4.11 27.76 5.28 29.87
  Q 5.46 30.21 5.77 30.43
  Q 8.09 32.12 10.13 30.10
  L 20.80 19.55
  Q 21.26 19.10 20.74 18.72
  L 19.97 18.15
  Q 19.37 17.70 18.85 18.23
  L 10.36 26.75
  A 0.52 0.51 -40.3 0 1 9.58 26.69
  L 9.35 26.38
  Z"
/>
<path fill="#dbdbdb" d="
  M 28.00 13.15
  L 30.25 10.95
  Q 31.52 9.71 31.42 11.48
  C 31.09 17.19 25.08 20.56 20.44 17.07
  C 14.11 12.29 19.11 3.08 26.61 5.07
  A 0.44 0.44 0.0 0 1 26.81 5.80
  L 23.89 8.76
  Q 23.53 9.13 23.58 9.65
  Q 23.90 12.96 27.42 13.35
  Q 27.76 13.39 28.00 13.15
  Z"
/>
<path fill="#dbdbdb" d="
  M 9.35 26.38
  L 9.58 26.69
  A 0.52 0.51 -40.3 0 0 10.36 26.75
  L 18.85 18.23
  Q 19.37 17.70 19.97 18.15
  L 20.74 18.72
  Q 21.26 19.10 20.80 19.55
  L 10.13 30.10
  Q 8.09 32.12 5.77 30.43
  Q 5.46 30.21 5.28 29.87
  Q 4.11 27.76 5.81 26.06
  L 16.45 15.44
  Q 17.01 14.87 17.51 15.50
  L 17.89 15.98
  A 1.13 1.13 0.0 0 1 17.81 17.49
  L 9.39 25.91
  A 0.37 0.36 -40.4 0 0 9.35 26.38
  Z
  M 8.86 28.40
  A 1.23 1.23 0.0 0 0 7.63 27.17
  A 1.23 1.23 0.0 0 0 6.40 28.40
  A 1.23 1.23 0.0 0 0 7.63 29.63
  A 1.23 1.23 0.0 0 0 8.86 28.40
  Z"
/>
<circle fill="#3e3c45" cx="7.63" cy="28.40" r="1.23"/>
</svg>
