<?xml version="1.0" encoding="UTF-8" standalone="no"?>
<!DOCTYPE svg PUBLIC "-//W3C//DTD SVG 1.1//EN" "http://www.w3.org/Graphics/SVG/1.1/DTD/svg11.dtd">
<svg xmlns="http://www.w3.org/2000/svg" version="1.1" viewBox="0.00 0.00 35.00 35.00">
<path stroke="#8d8c90" stroke-width="2.00" fill="none" stroke-linecap="butt" vector-effect="non-scaling-stroke" d="
  M 14.34 20.84
  C 13.10 25.44 17.85 26.85 17.98 30.74
  Q 18.00 31.56 18.79 31.36
  Q 29.28 28.69 26.26 18.78
  Q 26.04 18.06 25.85 18.79
  C 25.44 20.38 24.59 21.89 22.73 21.89
  A 2.44 2.44 0.0 0 1 20.40 18.74
  C 21.12 16.39 22.21 13.82 21.76 11.44
  Q 21.09 7.84 16.91 5.08
  Q 16.35 4.71 16.59 5.33
  Q 17.73 8.25 15.89 10.88
  C 11.74 16.83 5.40 21.34 11.80 29.20
  Q 12.43 29.98 12.19 29.00
  C 11.51 26.28 11.64 22.52 13.90 20.56
  Q 14.57 19.98 14.34 20.84"
/>
<path fill="#3e3c45" d="
  M 0.00 0.00
  L 35.00 0.00
  L 35.00 35.00
  L 0.00 35.00
  L 0.00 0.00
  Z
  M 14.34 20.84
  C 13.10 25.44 17.85 26.85 17.98 30.74
  Q 18.00 31.56 18.79 31.36
  Q 29.28 28.69 26.26 18.78
  Q 26.04 18.06 25.85 18.79
  C 25.44 20.38 24.59 21.89 22.73 21.89
  A 2.44 2.44 0.0 0 1 20.40 18.74
  C 21.12 16.39 22.21 13.82 21.76 11.44
  Q 21.09 7.84 16.91 5.08
  Q 16.35 4.71 16.59 5.33
  Q 17.73 8.25 15.89 10.88
  C 11.74 16.83 5.40 21.34 11.80 29.20
  Q 12.43 29.98 12.19 29.00
  C 11.51 26.28 11.64 22.52 13.90 20.56
  Q 14.57 19.98 14.34 20.84
  Z"
/>
<path fill="#dbdbdb" d="
  M 13.90 20.56
  C 11.64 22.52 11.51 26.28 12.19 29.00
  Q 12.43 29.98 11.80 29.20
  C 5.40 21.34 11.74 16.83 15.89 10.88
  Q 17.73 8.25 16.59 5.33
  Q 16.35 4.71 16.91 5.08
  Q 21.09 7.84 21.76 11.44
  C 22.21 13.82 21.12 16.39 20.40 18.74
  A 2.44 2.44 0.0 0 0 22.73 21.89
  C 24.59 21.89 25.44 20.38 25.85 18.79
  Q 26.04 18.06 26.26 18.78
  Q 29.28 28.69 18.79 31.36
  Q 18.00 31.56 17.98 30.74
  C 17.85 26.85 13.10 25.44 14.34 20.84
  Q 14.57 19.98 13.90 20.56
  Z"
/>
</svg>
