<?xml version="1.0" encoding="UTF-8" standalone="no"?>
<!DOCTYPE svg PUBLIC "-//W3C//DTD SVG 1.1//EN" "http://www.w3.org/Graphics/SVG/1.1/DTD/svg11.dtd">
<svg xmlns="http://www.w3.org/2000/svg" version="1.1" viewBox="0.00 0.00 300.00 300.00">
<g stroke-width="2.00" fill="none" stroke-linecap="butt">
<path stroke="#8d8c90" vector-effect="non-scaling-stroke" d="
  M 152.39 260.90
  Q 192.65 180.69 232.36 101.90
  Q 232.53 101.56 232.84 101.36
  Q 233.03 101.24 233.25 101.20
  A 0.42 0.41 -11.9 0 0 233.58 100.70
  C 224.76 62.73 199.95 33.13 159.22 31.15
  Q 148.58 30.63 138.58 31.34
  C 99.74 34.09 75.27 64.06 67.07 99.86
  Q 66.93 100.46 67.21 101.01
  L 147.46 260.51
  Q 147.81 261.21 148.51 260.86
  L 149.29 260.48
  Q 149.79 260.23 150.33 260.37
  Q 151.08 260.57 151.76 261.06
  A 0.43 0.43 0.0 0 0 152.39 260.90"
/>
<path stroke="#8d8c90" vector-effect="non-scaling-stroke" d="
  M 73.11 101.60
  L 138.55 231.68
  Q 139.25 233.07 138.80 231.58
  L 99.46 101.56
  A 0.43 0.42 -8.2 0 0 99.05 101.26
  L 73.32 101.26
  A 0.23 0.23 0.0 0 0 73.11 101.60"
/>
<path stroke="#8d8c90" vector-effect="non-scaling-stroke" d="
  M 104.64 101.51
  Q 123.87 164.65 142.63 227.20
  Q 142.67 227.30 142.77 227.28
  L 142.78 227.28
  Q 143.00 227.23 142.99 227.18
  Q 133.76 164.28 125.16 102.10
  Q 125.05 101.25 124.20 101.25
  L 104.82 101.26
  A 0.19 0.19 0.0 0 0 104.64 101.51"
/>
<path stroke="#8d8c90" vector-effect="non-scaling-stroke" d="
  M 130.06 101.77
  L 149.83 241.02
  Q 149.85 241.17 149.91 241.03
  Q 150.08 240.64 150.13 240.22
  Q 159.51 170.92 168.85 101.66
  A 0.31 0.31 0.0 0 0 168.54 101.31
  L 130.48 101.30
  Q 129.99 101.30 130.06 101.77"
/>
<path stroke="#8d8c90" vector-effect="non-scaling-stroke" d="
  M 196.51 101.82
  Q 196.68 101.26 196.09 101.26
  L 174.50 101.25
  Q 173.95 101.25 173.88 101.80
  L 156.54 230.23
  A 0.04 0.04 0.0 0 0 156.62 230.25
  L 196.51 101.82"
/>
<path stroke="#8d8c90" vector-effect="non-scaling-stroke" d="
  M 161.77 231.05
  L 226.89 101.60
  Q 227.07 101.26 226.68 101.26
  L 202.47 101.25
  Q 201.92 101.25 201.76 101.78
  L 161.62 230.99
  Q 161.35 231.88 161.77 231.05"
/>
</g>
<path fill="#3e3c45" d="
  M 0.00 0.00
  L 300.00 0.00
  L 300.00 300.00
  L 0.00 300.00
  L 0.00 0.00
  Z
  M 152.39 260.90
  Q 192.65 180.69 232.36 101.90
  Q 232.53 101.56 232.84 101.36
  Q 233.03 101.24 233.25 101.20
  A 0.42 0.41 -11.9 0 0 233.58 100.70
  C 224.76 62.73 199.95 33.13 159.22 31.15
  Q 148.58 30.63 138.58 31.34
  C 99.74 34.09 75.27 64.06 67.07 99.86
  Q 66.93 100.46 67.21 101.01
  L 147.46 260.51
  Q 147.81 261.21 148.51 260.86
  L 149.29 260.48
  Q 149.79 260.23 150.33 260.37
  Q 151.08 260.57 151.76 261.06
  A 0.43 0.43 0.0 0 0 152.39 260.90
  Z"
/>
<path fill="#dbdbdb" d="
  M 152.39 260.90
  A 0.43 0.43 0.0 0 1 151.76 261.06
  Q 151.08 260.57 150.33 260.37
  Q 149.79 260.23 149.29 260.48
  L 148.51 260.86
  Q 147.81 261.21 147.46 260.51
  L 67.21 101.01
  Q 66.93 100.46 67.07 99.86
  C 75.27 64.06 99.74 34.09 138.58 31.34
  Q 148.58 30.63 159.22 31.15
  C 199.95 33.13 224.76 62.73 233.58 100.70
  A 0.42 0.41 -11.9 0 1 233.25 101.20
  Q 233.03 101.24 232.84 101.36
  Q 232.53 101.56 232.36 101.90
  Q 192.65 180.69 152.39 260.90
  Z
  M 73.11 101.60
  L 138.55 231.68
  Q 139.25 233.07 138.80 231.58
  L 99.46 101.56
  A 0.43 0.42 -8.2 0 0 99.05 101.26
  L 73.32 101.26
  A 0.23 0.23 0.0 0 0 73.11 101.60
  Z
  M 104.64 101.51
  Q 123.87 164.65 142.63 227.20
  Q 142.67 227.30 142.77 227.28
  L 142.78 227.28
  Q 143.00 227.23 142.99 227.18
  Q 133.76 164.28 125.16 102.10
  Q 125.05 101.25 124.20 101.25
  L 104.82 101.26
  A 0.19 0.19 0.0 0 0 104.64 101.51
  Z
  M 130.06 101.77
  L 149.83 241.02
  Q 149.85 241.17 149.91 241.03
  Q 150.08 240.64 150.13 240.22
  Q 159.51 170.92 168.85 101.66
  A 0.31 0.31 0.0 0 0 168.54 101.31
  L 130.48 101.30
  Q 129.99 101.30 130.06 101.77
  Z
  M 196.51 101.82
  Q 196.68 101.26 196.09 101.26
  L 174.50 101.25
  Q 173.95 101.25 173.88 101.80
  L 156.54 230.23
  A 0.04 0.04 0.0 0 0 156.62 230.25
  L 196.51 101.82
  Z
  M 161.77 231.05
  L 226.89 101.60
  Q 227.07 101.26 226.68 101.26
  L 202.47 101.25
  Q 201.92 101.25 201.76 101.78
  L 161.62 230.99
  Q 161.35 231.88 161.77 231.05
  Z"
/>
<path fill="#3e3c45" d="
  M 138.55 231.68
  L 73.11 101.60
  A 0.23 0.23 0.0 0 1 73.32 101.26
  L 99.05 101.26
  A 0.43 0.42 -8.2 0 1 99.46 101.56
  L 138.80 231.58
  Q 139.25 233.07 138.55 231.68
  Z"
/>
<path fill="#3e3c45" d="
  M 104.64 101.51
  A 0.19 0.19 0.0 0 1 104.82 101.26
  L 124.20 101.25
  Q 125.05 101.25 125.16 102.10
  Q 133.76 164.28 142.99 227.18
  Q 143.00 227.23 142.78 227.28
  L 142.77 227.28
  Q 142.67 227.30 142.63 227.20
  Q 123.87 164.65 104.64 101.51
  Z"
/>
<path fill="#3e3c45" d="
  M 130.06 101.77
  Q 129.99 101.30 130.48 101.30
  L 168.54 101.31
  A 0.31 0.31 0.0 0 1 168.85 101.66
  Q 159.51 170.92 150.13 240.22
  Q 150.08 240.64 149.91 241.03
  Q 149.85 241.17 149.83 241.02
  L 130.06 101.77
  Z"
/>
<path fill="#3e3c45" d="
  M 196.51 101.82
  L 156.62 230.25
  A 0.04 0.04 0.0 0 1 156.54 230.23
  L 173.88 101.80
  Q 173.95 101.25 174.50 101.25
  L 196.09 101.26
  Q 196.68 101.26 196.51 101.82
  Z"
/>
<path fill="#3e3c45" d="
  M 226.89 101.60
  L 161.77 231.05
  Q 161.35 231.88 161.62 230.99
  L 201.76 101.78
  Q 201.92 101.25 202.47 101.25
  L 226.68 101.26
  Q 227.07 101.26 226.89 101.60
  Z"
/>
</svg>
