<?xml version="1.0" encoding="UTF-8" standalone="no"?>
<!DOCTYPE svg PUBLIC "-//W3C//DTD SVG 1.1//EN" "http://www.w3.org/Graphics/SVG/1.1/DTD/svg11.dtd">
<svg xmlns="http://www.w3.org/2000/svg" version="1.1" viewBox="0.00 0.00 35.00 35.00">
<g stroke-width="2.00" fill="none" stroke-linecap="butt">
<path stroke="#8d8c90" vector-effect="non-scaling-stroke" d="
  M 27.56 18.10
  Q 27.46 18.46 27.19 18.70
  Q 26.68 19.17 26.78 19.86
  Q 27.49 24.71 25.08 29.77
  C 24.50 30.97 24.99 32.38 26.40 32.64
  Q 27.15 32.78 27.70 32.25
  C 30.15 29.91 30.63 25.18 29.88 22.07
  Q 29.20 19.21 29.74 16.36
  C 30.50 12.38 28.71 7.48 25.47 5.31
  C 21.27 2.49 14.56 2.60 10.51 5.39
  C 7.78 7.26 5.33 12.22 6.14 16.21
  C 6.50 17.99 6.64 19.48 6.24 21.32
  C 5.49 24.74 5.55 29.87 8.43 32.37
  Q 8.86 32.74 9.42 32.67
  Q 10.94 32.47 11.18 31.03
  Q 11.27 30.50 11.03 30.01
  Q 8.53 24.99 9.23 19.88
  A 1.18 1.18 0.0 0 0 8.96 18.96
  Q 8.63 18.57 8.59 18.09
  Q 8.53 17.36 9.06 17.86
  C 12.31 20.97 15.44 18.14 17.23 15.28
  A 0.87 0.87 0.0 0 1 18.67 15.22
  C 20.63 17.87 23.77 21.23 27.13 17.85
  Q 27.84 17.13 27.56 18.10"
/>
<path stroke="#8d8c90" vector-effect="non-scaling-stroke" d="
  M 16.45 17.81
  A 0.31 0.31 0.0 0 0 16.74 18.24
  L 19.29 18.23
  Q 19.96 18.22 19.54 17.70
  L 18.58 16.49
  Q 18.29 16.14 17.87 16.31
  Q 16.94 16.68 16.45 17.81"
/>
<path stroke="#8d8c90" vector-effect="non-scaling-stroke" d="
  M 20.89 8.33
  Q 24.39 8.67 26.98 9.98
  Q 27.80 10.40 27.32 9.62
  Q 26.65 8.54 25.28 8.24
  Q 18.56 6.75 13.83 7.70
  C 12.07 8.05 10.38 7.87 9.05 9.27
  Q 7.99 10.39 9.42 9.80
  Q 14.52 7.71 20.89 8.33"
/>
<path stroke="#8d8c90" vector-effect="non-scaling-stroke" d="
  M 17.41 8.91
  Q 16.90 8.78 16.37 8.92
  Q 15.40 9.18 16.25 9.71
  Q 18.27 10.98 20.10 9.38
  Q 20.67 8.89 19.92 8.84
  Q 18.98 8.77 18.06 8.94
  Q 17.73 9.00 17.41 8.91"
/>
<path stroke="#8d8c90" vector-effect="non-scaling-stroke" d="
  M 9.71 10.75
  C 7.32 11.44 7.52 14.31 8.26 16.20
  Q 8.52 16.87 9.23 16.88
  C 12.20 16.89 16.56 15.63 16.41 11.90
  A 1.36 1.35 7.3 0 0 15.45 10.66
  Q 12.85 9.85 9.71 10.75"
/>
<path stroke="#8d8c90" vector-effect="non-scaling-stroke" d="
  M 19.58 12.34
  C 20.17 15.86 23.63 16.70 26.66 16.93
  A 1.03 1.02 14.7 0 0 27.68 16.34
  Q 28.78 13.95 27.76 11.76
  Q 27.52 11.25 27.00 11.05
  Q 23.77 9.78 20.74 10.56
  A 1.57 1.57 0.0 0 0 19.58 12.34"
/>
</g>
<path fill="#3e3c45" d="
  M 0.00 0.00
  L 35.00 0.00
  L 35.00 35.00
  L 0.00 35.00
  L 0.00 0.00
  Z
  M 27.56 18.10
  Q 27.46 18.46 27.19 18.70
  Q 26.68 19.17 26.78 19.86
  Q 27.49 24.71 25.08 29.77
  C 24.50 30.97 24.99 32.38 26.40 32.64
  Q 27.15 32.78 27.70 32.25
  C 30.15 29.91 30.63 25.18 29.88 22.07
  Q 29.20 19.21 29.74 16.36
  C 30.50 12.38 28.71 7.48 25.47 5.31
  C 21.27 2.49 14.56 2.60 10.51 5.39
  C 7.78 7.26 5.33 12.22 6.14 16.21
  C 6.50 17.99 6.64 19.48 6.24 21.32
  C 5.49 24.74 5.55 29.87 8.43 32.37
  Q 8.86 32.74 9.42 32.67
  Q 10.94 32.47 11.18 31.03
  Q 11.27 30.50 11.03 30.01
  Q 8.53 24.99 9.23 19.88
  A 1.18 1.18 0.0 0 0 8.96 18.96
  Q 8.63 18.57 8.59 18.09
  Q 8.53 17.36 9.06 17.86
  C 12.31 20.97 15.44 18.14 17.23 15.28
  A 0.87 0.87 0.0 0 1 18.67 15.22
  C 20.63 17.87 23.77 21.23 27.13 17.85
  Q 27.84 17.13 27.56 18.10
  Z
  M 16.45 17.81
  A 0.31 0.31 0.0 0 0 16.74 18.24
  L 19.29 18.23
  Q 19.96 18.22 19.54 17.70
  L 18.58 16.49
  Q 18.29 16.14 17.87 16.31
  Q 16.94 16.68 16.45 17.81
  Z"
/>
<path fill="#dbdbdb" d="
  M 27.13 17.85
  C 23.77 21.23 20.63 17.87 18.67 15.22
  A 0.87 0.87 0.0 0 0 17.23 15.28
  C 15.44 18.14 12.31 20.97 9.06 17.86
  Q 8.53 17.36 8.59 18.09
  Q 8.63 18.57 8.96 18.96
  A 1.18 1.18 0.0 0 1 9.23 19.88
  Q 8.53 24.99 11.03 30.01
  Q 11.27 30.50 11.18 31.03
  Q 10.94 32.47 9.42 32.67
  Q 8.86 32.74 8.43 32.37
  C 5.55 29.87 5.49 24.74 6.24 21.32
  C 6.64 19.48 6.50 17.99 6.14 16.21
  C 5.33 12.22 7.78 7.26 10.51 5.39
  C 14.56 2.60 21.27 2.49 25.47 5.31
  C 28.71 7.48 30.50 12.38 29.74 16.36
  Q 29.20 19.21 29.88 22.07
  C 30.63 25.18 30.15 29.91 27.70 32.25
  Q 27.15 32.78 26.40 32.64
  C 24.99 32.38 24.50 30.97 25.08 29.77
  Q 27.49 24.71 26.78 19.86
  Q 26.68 19.17 27.19 18.70
  Q 27.46 18.46 27.56 18.10
  Q 27.84 17.13 27.13 17.85
  Z
  M 20.89 8.33
  Q 24.39 8.67 26.98 9.98
  Q 27.80 10.40 27.32 9.62
  Q 26.65 8.54 25.28 8.24
  Q 18.56 6.75 13.83 7.70
  C 12.07 8.05 10.38 7.87 9.05 9.27
  Q 7.99 10.39 9.42 9.80
  Q 14.52 7.71 20.89 8.33
  Z
  M 17.41 8.91
  Q 16.90 8.78 16.37 8.92
  Q 15.40 9.18 16.25 9.71
  Q 18.27 10.98 20.10 9.38
  Q 20.67 8.89 19.92 8.84
  Q 18.98 8.77 18.06 8.94
  Q 17.73 9.00 17.41 8.91
  Z
  M 9.71 10.75
  C 7.32 11.44 7.52 14.31 8.26 16.20
  Q 8.52 16.87 9.23 16.88
  C 12.20 16.89 16.56 15.63 16.41 11.90
  A 1.36 1.35 7.3 0 0 15.45 10.66
  Q 12.85 9.85 9.71 10.75
  Z
  M 19.58 12.34
  C 20.17 15.86 23.63 16.70 26.66 16.93
  A 1.03 1.02 14.7 0 0 27.68 16.34
  Q 28.78 13.95 27.76 11.76
  Q 27.52 11.25 27.00 11.05
  Q 23.77 9.78 20.74 10.56
  A 1.57 1.57 0.0 0 0 19.58 12.34
  Z"
/>
<path fill="#3e3c45" d="
  M 20.89 8.33
  Q 14.52 7.71 9.42 9.80
  Q 7.99 10.39 9.05 9.27
  C 10.38 7.87 12.07 8.05 13.83 7.70
  Q 18.56 6.75 25.28 8.24
  Q 26.65 8.54 27.32 9.62
  Q 27.80 10.40 26.98 9.98
  Q 24.39 8.67 20.89 8.33
  Z"
/>
<path fill="#3e3c45" d="
  M 18.06 8.94
  Q 18.98 8.77 19.92 8.84
  Q 20.67 8.89 20.10 9.38
  Q 18.27 10.98 16.25 9.71
  Q 15.40 9.18 16.37 8.92
  Q 16.90 8.78 17.41 8.91
  Q 17.73 9.00 18.06 8.94
  Z"
/>
<path fill="#3e3c45" d="
  M 9.71 10.75
  Q 12.85 9.85 15.45 10.66
  A 1.36 1.35 7.3 0 1 16.41 11.90
  C 16.56 15.63 12.20 16.89 9.23 16.88
  Q 8.52 16.87 8.26 16.20
  C 7.52 14.31 7.32 11.44 9.71 10.75
  Z"
/>
<path fill="#3e3c45" d="
  M 26.66 16.93
  C 23.63 16.70 20.17 15.86 19.58 12.34
  A 1.57 1.57 0.0 0 1 20.74 10.56
  Q 23.77 9.78 27.00 11.05
  Q 27.52 11.25 27.76 11.76
  Q 28.78 13.95 27.68 16.34
  A 1.03 1.02 14.7 0 1 26.66 16.93
  Z"
/>
<path fill="#dbdbdb" d="
  M 16.45 17.81
  Q 16.94 16.68 17.87 16.31
  Q 18.29 16.14 18.58 16.49
  L 19.54 17.70
  Q 19.96 18.22 19.29 18.23
  L 16.74 18.24
  A 0.31 0.31 0.0 0 1 16.45 17.81
  Z"
/>
</svg>
