<?xml version="1.0" encoding="UTF-8" standalone="no"?>
<!DOCTYPE svg PUBLIC "-//W3C//DTD SVG 1.1//EN" "http://www.w3.org/Graphics/SVG/1.1/DTD/svg11.dtd">
<svg xmlns="http://www.w3.org/2000/svg" version="1.1" viewBox="0.00 0.00 35.00 35.00">
<g stroke-width="2.00" fill="none" stroke-linecap="butt">
<path stroke="#8d8c90" vector-effect="non-scaling-stroke" d="
  M 18.57 6.23
  Q 17.93 6.88 17.31 6.21
  Q 16.54 5.35 15.46 5.02
  Q 14.60 4.75 14.16 5.53
  L 9.82 13.24
  A 0.50 0.49 -59.4 0 0 9.99 13.91
  L 17.61 18.63
  A 0.73 0.73 0.0 0 0 18.37 18.63
  L 26.17 13.77
  A 0.32 0.32 0.0 0 0 26.28 13.35
  L 21.61 5.07
  A 0.76 0.75 62.3 0 0 20.63 4.76
  Q 19.47 5.32 18.57 6.23"
/>
<path stroke="#8d8c90" vector-effect="non-scaling-stroke" d="
  M 9.11 15.51
  Q 8.50 15.20 7.86 15.08
  A 1.06 1.05 10.2 0 0 6.64 15.92
  Q 5.78 20.73 3.78 24.47
  A 1.13 1.13 0.0 0 0 4.23 26.00
  Q 10.20 29.26 17.12 31.87
  A 2.44 2.43 45.2 0 0 18.84 31.88
  Q 25.23 29.53 31.76 26.01
  A 1.14 1.13 62.5 0 0 32.23 24.50
  Q 30.12 20.40 29.39 15.99
  A 1.17 1.17 0.0 0 0 27.71 15.14
  L 18.84 19.61
  A 1.83 1.82 44.4 0 1 17.25 19.62
  Q 13.36 17.72 9.11 15.51"
/>
<path stroke="#8d8c90" vector-effect="non-scaling-stroke" d="
  M 18.26 13.49
  A 0.39 0.38 44.8 0 1 17.55 13.49
  L 15.13 7.86
  Q 14.43 6.24 14.70 7.98
  Q 15.31 12.03 17.55 16.21
  A 0.39 0.39 0.0 0 0 18.23 16.21
  Q 20.55 11.90 21.20 7.27
  Q 21.34 6.24 20.94 7.20
  L 18.26 13.49"
/>
<path stroke="#8d8c90" vector-effect="non-scaling-stroke" d="
  M 17.58 25.04
  L 17.30 24.73
  Q 16.97 24.36 16.49 24.21
  Q 13.98 23.45 11.88 22.26
  Q 9.41 20.88 11.17 23.09
  Q 11.67 23.73 12.02 24.45
  Q 12.26 24.94 12.77 25.14
  L 17.50 27.06
  Q 18.01 27.27 18.53 27.06
  L 23.35 25.06
  Q 23.89 24.83 24.09 24.28
  Q 24.32 23.63 24.75 23.12
  Q 26.64 20.89 24.07 22.27
  Q 21.85 23.47 19.48 24.24
  C 19.14 24.36 18.73 24.71 18.51 25.00
  Q 18.07 25.58 17.58 25.04"
/>
</g>
<path fill="#3e3c45" d="
  M 0.00 0.00
  L 35.00 0.00
  L 35.00 35.00
  L 0.00 35.00
  L 0.00 0.00
  Z
  M 18.57 6.23
  Q 17.93 6.88 17.31 6.21
  Q 16.54 5.35 15.46 5.02
  Q 14.60 4.75 14.16 5.53
  L 9.82 13.24
  A 0.50 0.49 -59.4 0 0 9.99 13.91
  L 17.61 18.63
  A 0.73 0.73 0.0 0 0 18.37 18.63
  L 26.17 13.77
  A 0.32 0.32 0.0 0 0 26.28 13.35
  L 21.61 5.07
  A 0.76 0.75 62.3 0 0 20.63 4.76
  Q 19.47 5.32 18.57 6.23
  Z
  M 9.11 15.51
  Q 8.50 15.20 7.86 15.08
  A 1.06 1.05 10.2 0 0 6.64 15.92
  Q 5.78 20.73 3.78 24.47
  A 1.13 1.13 0.0 0 0 4.23 26.00
  Q 10.20 29.26 17.12 31.87
  A 2.44 2.43 45.2 0 0 18.84 31.88
  Q 25.23 29.53 31.76 26.01
  A 1.14 1.13 62.5 0 0 32.23 24.50
  Q 30.12 20.40 29.39 15.99
  A 1.17 1.17 0.0 0 0 27.71 15.14
  L 18.84 19.61
  A 1.83 1.82 44.4 0 1 17.25 19.62
  Q 13.36 17.72 9.11 15.51
  Z"
/>
<path fill="#dbdbdb" d="
  M 18.57 6.23
  Q 19.47 5.32 20.63 4.76
  A 0.76 0.75 62.3 0 1 21.61 5.07
  L 26.28 13.35
  A 0.32 0.32 0.0 0 1 26.17 13.77
  L 18.37 18.63
  A 0.73 0.73 0.0 0 1 17.61 18.63
  L 9.99 13.91
  A 0.50 0.49 -59.4 0 1 9.82 13.24
  L 14.16 5.53
  Q 14.60 4.75 15.46 5.02
  Q 16.54 5.35 17.31 6.21
  Q 17.93 6.88 18.57 6.23
  Z
  M 18.26 13.49
  A 0.39 0.38 44.8 0 1 17.55 13.49
  L 15.13 7.86
  Q 14.43 6.24 14.70 7.98
  Q 15.31 12.03 17.55 16.21
  A 0.39 0.39 0.0 0 0 18.23 16.21
  Q 20.55 11.90 21.20 7.27
  Q 21.34 6.24 20.94 7.20
  L 18.26 13.49
  Z"
/>
<path fill="#3e3c45" d="
  M 18.26 13.49
  L 20.94 7.20
  Q 21.34 6.24 21.20 7.27
  Q 20.55 11.90 18.23 16.21
  A 0.39 0.39 0.0 0 1 17.55 16.21
  Q 15.31 12.03 14.70 7.98
  Q 14.43 6.24 15.13 7.86
  L 17.55 13.49
  A 0.39 0.38 44.8 0 0 18.26 13.49
  Z"
/>
<path fill="#dbdbdb" d="
  M 9.11 15.51
  Q 13.36 17.72 17.25 19.62
  A 1.83 1.82 44.4 0 0 18.84 19.61
  L 27.71 15.14
  A 1.17 1.17 0.0 0 1 29.39 15.99
  Q 30.12 20.40 32.23 24.50
  A 1.14 1.13 62.5 0 1 31.76 26.01
  Q 25.23 29.53 18.84 31.88
  A 2.44 2.43 45.2 0 1 17.12 31.87
  Q 10.20 29.26 4.23 26.00
  A 1.13 1.13 0.0 0 1 3.78 24.47
  Q 5.78 20.73 6.64 15.92
  A 1.06 1.05 10.2 0 1 7.86 15.08
  Q 8.50 15.20 9.11 15.51
  Z
  M 17.58 25.04
  L 17.30 24.73
  Q 16.97 24.36 16.49 24.21
  Q 13.98 23.45 11.88 22.26
  Q 9.41 20.88 11.17 23.09
  Q 11.67 23.73 12.02 24.45
  Q 12.26 24.94 12.77 25.14
  L 17.50 27.06
  Q 18.01 27.27 18.53 27.06
  L 23.35 25.06
  Q 23.89 24.83 24.09 24.28
  Q 24.32 23.63 24.75 23.12
  Q 26.64 20.89 24.07 22.27
  Q 21.85 23.47 19.48 24.24
  C 19.14 24.36 18.73 24.71 18.51 25.00
  Q 18.07 25.58 17.58 25.04
  Z"
/>
<path fill="#3e3c45" d="
  M 18.51 25.00
  C 18.73 24.71 19.14 24.36 19.48 24.24
  Q 21.85 23.47 24.07 22.27
  Q 26.64 20.89 24.75 23.12
  Q 24.32 23.63 24.09 24.28
  Q 23.89 24.83 23.35 25.06
  L 18.53 27.06
  Q 18.01 27.27 17.50 27.06
  L 12.77 25.14
  Q 12.26 24.94 12.02 24.45
  Q 11.67 23.73 11.17 23.09
  Q 9.41 20.88 11.88 22.26
  Q 13.98 23.45 16.49 24.21
  Q 16.97 24.36 17.30 24.73
  L 17.58 25.04
  Q 18.07 25.58 18.51 25.00
  Z"
/>
</svg>
