<?xml version="1.0" encoding="UTF-8" standalone="no"?>
<!DOCTYPE svg PUBLIC "-//W3C//DTD SVG 1.1//EN" "http://www.w3.org/Graphics/SVG/1.1/DTD/svg11.dtd">
<svg xmlns="http://www.w3.org/2000/svg" version="1.1" viewBox="0.00 0.00 35.00 35.00">
<path stroke="#8d8c90" stroke-width="2.00" fill="none" stroke-linecap="butt" vector-effect="non-scaling-stroke" d="
  M 9.45 17.27
  C 10.03 12.33 12.79 8.25 18.04 8.31
  C 23.26 8.37 25.89 12.26 26.52 17.26
  Q 26.60 17.90 25.96 17.98
  L 25.56 18.03
  Q 24.75 18.13 24.75 18.94
  L 24.76 29.25
  A 0.74 0.74 0.0 0 0 25.50 29.99
  L 29.84 30.00
  Q 30.20 30.00 30.27 29.66
  L 30.35 29.24
  A 1.93 1.88 74.5 0 1 30.90 28.24
  Q 33.49 25.78 32.10 21.45
  A 1.90 1.86 9.2 0 0 31.38 20.47
  Q 30.53 19.87 30.45 18.90
  Q 30.40 18.36 29.90 18.17
  Q 29.44 17.99 29.14 17.63
  Q 28.87 17.31 28.83 16.90
  Q 28.21 9.46 22.56 6.98
  Q 18.33 5.13 13.91 6.78
  C 9.62 8.38 7.45 12.41 7.07 17.25
  A 0.89 0.89 0.0 0 1 6.29 18.07
  Q 5.56 18.16 5.56 18.89
  Q 5.57 19.53 5.10 19.96
  Q 2.48 22.38 3.91 26.77
  Q 4.12 27.39 4.67 27.74
  Q 5.51 28.27 5.61 29.23
  Q 5.69 30.00 6.46 30.00
  L 10.25 30.00
  A 1.00 1.00 0.0 0 0 11.24 29.00
  L 11.25 18.97
  Q 11.25 18.18 10.47 18.03
  L 9.92 17.92
  Q 9.38 17.82 9.45 17.27"
/>
<path fill="#3f3c45" d="
  M 0.00 0.00
  L 35.00 0.00
  L 35.00 35.00
  L 0.00 35.00
  L 0.00 0.00
  Z
  M 9.45 17.27
  C 10.03 12.33 12.79 8.25 18.04 8.31
  C 23.26 8.37 25.89 12.26 26.52 17.26
  Q 26.60 17.90 25.96 17.98
  L 25.56 18.03
  Q 24.75 18.13 24.75 18.94
  L 24.76 29.25
  A 0.74 0.74 0.0 0 0 25.50 29.99
  L 29.84 30.00
  Q 30.20 30.00 30.27 29.66
  L 30.35 29.24
  A 1.93 1.88 74.5 0 1 30.90 28.24
  Q 33.49 25.78 32.10 21.45
  A 1.90 1.86 9.2 0 0 31.38 20.47
  Q 30.53 19.87 30.45 18.90
  Q 30.40 18.36 29.90 18.17
  Q 29.44 17.99 29.14 17.63
  Q 28.87 17.31 28.83 16.90
  Q 28.21 9.46 22.56 6.98
  Q 18.33 5.13 13.91 6.78
  C 9.62 8.38 7.45 12.41 7.07 17.25
  A 0.89 0.89 0.0 0 1 6.29 18.07
  Q 5.56 18.16 5.56 18.89
  Q 5.57 19.53 5.10 19.96
  Q 2.48 22.38 3.91 26.77
  Q 4.12 27.39 4.67 27.74
  Q 5.51 28.27 5.61 29.23
  Q 5.69 30.00 6.46 30.00
  L 10.25 30.00
  A 1.00 1.00 0.0 0 0 11.24 29.00
  L 11.25 18.97
  Q 11.25 18.18 10.47 18.03
  L 9.92 17.92
  Q 9.38 17.82 9.45 17.27
  Z"
/>
<path fill="#dbdbdb" d="
  M 9.92 17.92
  L 10.47 18.03
  Q 11.25 18.18 11.25 18.97
  L 11.24 29.00
  A 1.00 1.00 0.0 0 1 10.25 30.00
  L 6.46 30.00
  Q 5.69 30.00 5.61 29.23
  Q 5.51 28.27 4.67 27.74
  Q 4.12 27.39 3.91 26.77
  Q 2.48 22.38 5.10 19.96
  Q 5.57 19.53 5.56 18.89
  Q 5.56 18.16 6.29 18.07
  A 0.89 0.89 0.0 0 0 7.07 17.25
  C 7.45 12.41 9.62 8.38 13.91 6.78
  Q 18.33 5.13 22.56 6.98
  Q 28.21 9.46 28.83 16.90
  Q 28.87 17.31 29.14 17.63
  Q 29.44 17.99 29.90 18.17
  Q 30.40 18.36 30.45 18.90
  Q 30.53 19.87 31.38 20.47
  A 1.90 1.86 9.2 0 1 32.10 21.45
  Q 33.49 25.78 30.90 28.24
  A 1.93 1.88 74.5 0 0 30.35 29.24
  L 30.27 29.66
  Q 30.20 30.00 29.84 30.00
  L 25.50 29.99
  A 0.74 0.74 0.0 0 1 24.76 29.25
  L 24.75 18.94
  Q 24.75 18.13 25.56 18.03
  L 25.96 17.98
  Q 26.60 17.90 26.52 17.26
  C 25.89 12.26 23.26 8.37 18.04 8.31
  C 12.79 8.25 10.03 12.33 9.45 17.27
  Q 9.38 17.82 9.92 17.92
  Z"
/>
</svg>
