<?xml version="1.0" encoding="UTF-8" standalone="no"?>
<!DOCTYPE svg PUBLIC "-//W3C//DTD SVG 1.1//EN" "http://www.w3.org/Graphics/SVG/1.1/DTD/svg11.dtd">
<svg xmlns="http://www.w3.org/2000/svg" version="1.1" viewBox="0.00 0.00 35.00 35.00">
<g stroke-width="2.00" fill="none" stroke-linecap="butt">
<path stroke="#8c8b90" vector-effect="non-scaling-stroke" d="
  M 10.99 25.24
  L 15.78 22.90
  Q 16.30 22.65 16.84 22.86
  Q 18.00 23.34 19.18 22.87
  Q 19.71 22.65 20.23 22.91
  L 25.03 25.29
  Q 25.59 25.57 25.31 26.14
  Q 24.52 27.68 26.59 28.96
  Q 27.12 29.29 27.51 28.81
  Q 32.35 22.97 30.29 16.27
  C 26.19 2.94 6.85 4.77 5.21 18.74
  Q 4.58 24.10 8.48 28.82
  Q 8.85 29.27 9.36 28.99
  Q 11.50 27.81 10.68 26.13
  Q 10.39 25.54 10.99 25.24"
/>
<path stroke="#8c8b90" vector-effect="non-scaling-stroke" d="
  M 15.96 16.97
  A 1.23 1.21 -42.8 0 0 16.94 17.00
  Q 17.98 16.59 19.00 16.97
  Q 19.71 17.24 20.40 16.91
  L 25.27 14.54
  Q 25.88 14.25 25.44 13.73
  C 21.45 9.05 14.70 9.12 10.58 13.67
  Q 10.14 14.16 10.73 14.45
  L 15.96 16.97"
/>
<path stroke="#8c8b90" vector-effect="non-scaling-stroke" d="
  M 14.56 18.13
  L 9.89 15.85
  Q 9.27 15.55 9.02 16.20
  Q 7.56 20.02 9.03 23.77
  Q 9.23 24.29 9.73 24.05
  L 14.39 21.81
  Q 15.05 21.49 14.90 20.77
  Q 14.72 19.92 14.96 18.99
  A 0.76 0.75 20.2 0 0 14.56 18.13"
/>
<path stroke="#8c8b90" vector-effect="non-scaling-stroke" d="
  M 21.08 18.90
  Q 21.28 19.96 21.07 20.89
  Q 20.93 21.50 21.49 21.77
  L 26.31 24.05
  A 0.47 0.46 23.2 0 0 26.94 23.80
  Q 28.44 19.95 26.92 16.08
  A 0.41 0.40 66.3 0 0 26.36 15.86
  L 21.43 18.23
  A 0.64 0.62 -18.2 0 0 21.08 18.90"
/>
</g>
<path fill="#3e3c45" d="
  M 0.00 0.00
  L 35.00 0.00
  L 35.00 35.00
  L 0.00 35.00
  L 0.00 0.00
  Z
  M 10.99 25.24
  L 15.78 22.90
  Q 16.30 22.65 16.84 22.86
  Q 18.00 23.34 19.18 22.87
  Q 19.71 22.65 20.23 22.91
  L 25.03 25.29
  Q 25.59 25.57 25.31 26.14
  Q 24.52 27.68 26.59 28.96
  Q 27.12 29.29 27.51 28.81
  Q 32.35 22.97 30.29 16.27
  C 26.19 2.94 6.85 4.77 5.21 18.74
  Q 4.58 24.10 8.48 28.82
  Q 8.85 29.27 9.36 28.99
  Q 11.50 27.81 10.68 26.13
  Q 10.39 25.54 10.99 25.24
  Z"
/>
<path fill="#dadada" d="
  M 10.68 26.13
  Q 11.50 27.81 9.36 28.99
  Q 8.85 29.27 8.48 28.82
  Q 4.58 24.10 5.21 18.74
  C 6.85 4.77 26.19 2.94 30.29 16.27
  Q 32.35 22.97 27.51 28.81
  Q 27.12 29.29 26.59 28.96
  Q 24.52 27.68 25.31 26.14
  Q 25.59 25.57 25.03 25.29
  L 20.23 22.91
  Q 19.71 22.65 19.18 22.87
  Q 18.00 23.34 16.84 22.86
  Q 16.30 22.65 15.78 22.90
  L 10.99 25.24
  Q 10.39 25.54 10.68 26.13
  Z
  M 15.96 16.97
  A 1.23 1.21 -42.8 0 0 16.94 17.00
  Q 17.98 16.59 19.00 16.97
  Q 19.71 17.24 20.40 16.91
  L 25.27 14.54
  Q 25.88 14.25 25.44 13.73
  C 21.45 9.05 14.70 9.12 10.58 13.67
  Q 10.14 14.16 10.73 14.45
  L 15.96 16.97
  Z
  M 14.56 18.13
  L 9.89 15.85
  Q 9.27 15.55 9.02 16.20
  Q 7.56 20.02 9.03 23.77
  Q 9.23 24.29 9.73 24.05
  L 14.39 21.81
  Q 15.05 21.49 14.90 20.77
  Q 14.72 19.92 14.96 18.99
  A 0.76 0.75 20.2 0 0 14.56 18.13
  Z
  M 21.08 18.90
  Q 21.28 19.96 21.07 20.89
  Q 20.93 21.50 21.49 21.77
  L 26.31 24.05
  A 0.47 0.46 23.2 0 0 26.94 23.80
  Q 28.44 19.95 26.92 16.08
  A 0.41 0.40 66.3 0 0 26.36 15.86
  L 21.43 18.23
  A 0.64 0.62 -18.2 0 0 21.08 18.90
  Z"
/>
<path fill="#3e3c45" d="
  M 15.96 16.97
  L 10.73 14.45
  Q 10.14 14.16 10.58 13.67
  C 14.70 9.12 21.45 9.05 25.44 13.73
  Q 25.88 14.25 25.27 14.54
  L 20.40 16.91
  Q 19.71 17.24 19.00 16.97
  Q 17.98 16.59 16.94 17.00
  A 1.23 1.21 -42.8 0 1 15.96 16.97
  Z"
/>
<path fill="#3e3c45" d="
  M 9.89 15.85
  L 14.56 18.13
  A 0.76 0.75 20.2 0 1 14.96 18.99
  Q 14.72 19.92 14.90 20.77
  Q 15.05 21.49 14.39 21.81
  L 9.73 24.05
  Q 9.23 24.29 9.03 23.77
  Q 7.56 20.02 9.02 16.20
  Q 9.27 15.55 9.89 15.85
  Z"
/>
<path fill="#3e3c45" d="
  M 21.08 18.90
  A 0.64 0.62 -18.2 0 1 21.43 18.23
  L 26.36 15.86
  A 0.41 0.40 66.3 0 1 26.92 16.08
  Q 28.44 19.95 26.94 23.80
  A 0.47 0.46 23.2 0 1 26.31 24.05
  L 21.49 21.77
  Q 20.93 21.50 21.07 20.89
  Q 21.28 19.96 21.08 18.90
  Z"
/>
</svg>
