<?xml version="1.0" encoding="UTF-8" standalone="no"?>
<!DOCTYPE svg PUBLIC "-//W3C//DTD SVG 1.1//EN" "http://www.w3.org/Graphics/SVG/1.1/DTD/svg11.dtd">
<svg xmlns="http://www.w3.org/2000/svg" version="1.1" viewBox="0.00 0.00 35.00 35.00">
<path stroke="#8d8c90" stroke-width="2.00" fill="none" stroke-linecap="butt" vector-effect="non-scaling-stroke" d="
  M 26.2234 15.5543
  A 0.53 0.53 0.0 0 0 25.6943 15.0234
  L 10.3144 14.9966
  A 0.53 0.53 0.0 0 0 9.7834 15.5257
  L 9.7766 19.4457
  A 0.53 0.53 0.0 0 0 10.3057 19.9766
  L 25.6856 20.0034
  A 0.53 0.53 0.0 0 0 26.2166 19.4743
  L 26.2234 15.5543"
/>
<path fill="#3e3c45" d="
  M 0.00 0.00
  L 35.00 0.00
  L 35.00 35.00
  L 0.00 35.00
  L 0.00 0.00
  Z
  M 26.2234 15.5543
  A 0.53 0.53 0.0 0 0 25.6943 15.0234
  L 10.3144 14.9966
  A 0.53 0.53 0.0 0 0 9.7834 15.5257
  L 9.7766 19.4457
  A 0.53 0.53 0.0 0 0 10.3057 19.9766
  L 25.6856 20.0034
  A 0.53 0.53 0.0 0 0 26.2166 19.4743
  L 26.2234 15.5543
  Z"
/>
<rect fill="#dbdbdb" x="-8.22" y="-2.49" transform="translate(18.00,17.50) rotate(0.1)" width="16.44" height="4.98" rx="0.53"/>
</svg>
