<?xml version="1.0" encoding="UTF-8" standalone="no"?>
<!DOCTYPE svg PUBLIC "-//W3C//DTD SVG 1.1//EN" "http://www.w3.org/Graphics/SVG/1.1/DTD/svg11.dtd">
<svg xmlns="http://www.w3.org/2000/svg" version="1.1" viewBox="0.00 0.00 35.00 35.00">
<path fill="#dbdbdb" d="
  M 32.41 17.98
  A 14.39 14.39 0.0 0 1 18.02 32.37
  A 14.39 14.39 0.0 0 1 3.63 17.98
  A 14.39 14.39 0.0 0 1 18.02 3.59
  A 14.39 14.39 0.0 0 1 32.41 17.98
  Z
  M 28.80 18.00
  A 10.83 10.83 0.0 0 0 17.97 7.17
  A 10.83 10.83 0.0 0 0 7.14 18.00
  A 10.83 10.83 0.0 0 0 17.97 28.83
  A 10.83 10.83 0.0 0 0 28.80 18.00
  Z"
/>
<path fill="#dbdbdb" d="
  M 26.96 18.02
  A 8.98 8.98 0.0 0 1 17.98 27.00
  A 8.98 8.98 0.0 0 1 9.00 18.02
  A 8.98 8.98 0.0 0 1 17.98 9.04
  A 8.98 8.98 0.0 0 1 26.96 18.02
  Z
  M 11.67 13.92
  Q 11.41 14.34 11.87 14.51
  C 14.72 15.55 16.81 14.50 16.31 11.17
  Q 16.23 10.68 15.75 10.82
  Q 13.17 11.59 11.67 13.92
  Z
  M 24.38 14.08
  Q 22.85 11.54 20.06 10.74
  Q 19.59 10.60 19.61 11.09
  C 19.64 12.23 19.44 13.48 20.43 14.31
  Q 21.98 15.61 24.30 14.35
  A 0.20 0.19 -29.7 0 0 24.38 14.08
  Z
  M 19.69 18.00
  A 1.69 1.69 0.0 0 0 18.00 16.31
  A 1.69 1.69 0.0 0 0 16.31 18.00
  A 1.69 1.69 0.0 0 0 18.00 19.69
  A 1.69 1.69 0.0 0 0 19.69 18.00
  Z
  M 11.60 22.07
  Q 12.41 23.47 13.19 22.05
  L 13.95 20.66
  A 1.29 1.29 0.0 0 0 13.91 19.36
  Q 13.02 17.93 10.89 17.67
  Q 10.39 17.62 10.40 18.12
  Q 10.43 20.07 11.60 22.07
  Z
  M 23.25 22.49
  Q 23.70 23.00 24.11 22.45
  Q 25.49 20.61 25.61 18.22
  Q 25.64 17.69 25.11 17.71
  C 22.05 17.85 21.25 20.25 23.25 22.49
  Z
  M 15.67 25.41
  L 20.45 25.41
  A 0.18 0.18 0.0 0 0 20.63 25.23
  L 20.63 25.12
  A 2.59 2.48 -89.9 0 0 18.15 22.53
  L 17.97 22.53
  A 2.59 2.48 -89.9 0 0 15.49 25.12
  L 15.49 25.23
  A 0.18 0.18 0.0 0 0 15.67 25.41
  Z"
/>
</svg>
