<?xml version="1.0" encoding="UTF-8" standalone="no"?>
<!DOCTYPE svg PUBLIC "-//W3C//DTD SVG 1.1//EN" "http://www.w3.org/Graphics/SVG/1.1/DTD/svg11.dtd">
<svg xmlns="http://www.w3.org/2000/svg" version="1.1" viewBox="0.00 0.00 35.00 35.00">
<path fill="#dbdbdb" d="
  M 13.90 20.56
  C 11.64 22.52 11.51 26.28 12.19 29.00
  Q 12.43 29.98 11.80 29.20
  C 5.40 21.34 11.74 16.83 15.89 10.88
  Q 17.73 8.25 16.59 5.33
  Q 16.35 4.71 16.91 5.08
  Q 21.09 7.84 21.76 11.44
  C 22.21 13.82 21.12 16.39 20.40 18.74
  A 2.44 2.44 0.0 0 0 22.73 21.89
  C 24.59 21.89 25.44 20.38 25.85 18.79
  Q 26.04 18.06 26.26 18.78
  Q 29.28 28.69 18.79 31.36
  Q 18.00 31.56 17.98 30.74
  C 17.85 26.85 13.10 25.44 14.34 20.84
  Q 14.57 19.98 13.90 20.56
  Z"
/>
</svg>
