<?xml version="1.0" encoding="UTF-8" standalone="no"?>
<!DOCTYPE svg PUBLIC "-//W3C//DTD SVG 1.1//EN" "http://www.w3.org/Graphics/SVG/1.1/DTD/svg11.dtd">
<svg xmlns="http://www.w3.org/2000/svg" version="1.1" viewBox="0.00 0.00 35.00 35.00">
<path fill="#dadada" d="
  M 31.19 18.27
  A 13.17 13.17 0.0 0 1 18.02 31.44
  A 13.17 13.17 0.0 0 1 4.85 18.27
  A 13.17 13.17 0.0 0 1 18.02 5.10
  A 13.17 13.17 0.0 0 1 31.19 18.27
  Z
  M 29.43 18.23
  A 11.42 11.42 0.0 0 0 18.01 6.81
  A 11.42 11.42 0.0 0 0 6.59 18.23
  A 11.42 11.42 0.0 0 0 18.01 29.65
  A 11.42 11.42 0.0 0 0 29.43 18.23
  Z"
/>
<path fill="#dadada" d="
  M 16.00 15.90
  L 16.00 11.34
  A 0.34 0.34 0.0 0 1 16.34 11.00
  L 19.66 10.99
  A 0.34 0.34 0.0 0 1 20.00 11.33
  L 20.01 15.89
  A 0.34 0.34 0.0 0 0 20.35 16.23
  L 24.92 16.23
  A 0.34 0.34 0.0 0 1 25.26 16.57
  L 25.24 19.90
  A 0.34 0.34 0.0 0 1 24.90 20.24
  L 20.34 20.21
  A 0.34 0.34 0.0 0 0 20.00 20.55
  L 20.00 25.07
  A 0.34 0.34 0.0 0 1 19.66 25.41
  L 16.35 25.41
  A 0.34 0.34 0.0 0 1 16.01 25.07
  L 15.99 20.54
  A 0.34 0.34 0.0 0 0 15.65 20.20
  L 11.09 20.25
  A 0.34 0.34 0.0 0 1 10.75 19.91
  L 10.75 16.57
  A 0.34 0.34 0.0 0 1 11.09 16.23
  L 15.66 16.24
  A 0.34 0.34 0.0 0 0 16.00 15.90
  Z"
/>
</svg>
