<?xml version="1.0" encoding="UTF-8" standalone="no"?>
<!DOCTYPE svg PUBLIC "-//W3C//DTD SVG 1.1//EN" "http://www.w3.org/Graphics/SVG/1.1/DTD/svg11.dtd">
<svg xmlns="http://www.w3.org/2000/svg" version="1.1" viewBox="0.00 0.00 35.00 35.00">
<path fill="#dbdbdb" d="
  M 8.62 12.88
  A 0.54 0.54 0.0 0 1 8.07 12.34
  L 8.07 12.17
  A 5.83 1.45 89.7 0 1 9.49 6.33
  L 9.71 6.33
  A 5.83 1.45 89.7 0 1 11.19 12.15
  L 11.19 12.32
  A 0.54 0.54 0.0 0 1 10.66 12.86
  L 8.62 12.88
  Z"
/>
<path fill="#dbdbdb" d="
  M 16.98 12.88
  A 0.67 0.67 0.0 0 1 16.31 12.22
  L 16.31 12.03
  A 5.66 1.44 89.8 0 1 17.73 6.36
  L 17.99 6.36
  A 5.66 1.44 89.8 0 1 19.45 12.01
  L 19.45 12.20
  A 0.67 0.67 0.0 0 1 18.78 12.88
  L 16.98 12.88
  Z"
/>
<path fill="#dbdbdb" d="
  M 25.12 12.88
  A 0.57 0.57 0.0 0 1 24.56 12.31
  L 24.56 12.12
  A 5.76 1.44 -89.9 0 1 26.01 6.36
  L 26.25 6.36
  A 5.76 1.44 -89.9 0 1 27.68 12.12
  L 27.68 12.31
  A 0.57 0.57 0.0 0 1 27.10 12.88
  L 25.12 12.88
  Z"
/>
<path fill="#dbdbdb" d="
  M 7.85 14.68
  A 0.75 0.75 0.0 0 1 8.80 14.09
  Q 9.58 14.31 10.38 14.06
  Q 11.13 13.82 11.26 14.60
  C 11.47 15.96 12.05 17.04 12.03 18.46
  Q 11.98 21.68 12.04 25.26
  Q 12.07 26.79 10.54 26.88
  L 8.93 26.97
  Q 7.45 27.06 7.32 25.58
  Q 6.85 20.28 7.85 14.68
  Z"
/>
<path fill="#dbdbdb" d="
  M 16.60 26.85
  A 1.06 1.06 0.0 0 1 15.54 25.79
  L 15.54 19.08
  A 5.07 1.37 90.0 0 1 16.91 14.01
  L 18.85 14.01
  A 5.07 1.37 90.0 0 1 20.22 19.08
  L 20.22 25.79
  A 1.06 1.06 0.0 0 1 19.16 26.85
  L 16.60 26.85
  Z"
/>
<path fill="#dbdbdb" d="
  M 24.83 26.86
  A 1.07 1.07 0.0 0 1 23.76 25.78
  L 23.79 18.98
  A 4.97 1.38 -89.8 0 1 25.18 14.02
  L 27.12 14.02
  A 4.97 1.38 -89.8 0 1 28.49 19.00
  L 28.46 25.80
  A 1.07 1.07 0.0 0 1 27.39 26.86
  L 24.83 26.86
  Z"
/>
<rect fill="#dbdbdb" x="-0.75" y="-4.43" transform="translate(5.50,21.44) rotate(-0.1)" width="1.50" height="8.86" rx="0.50"/>
<rect fill="#dbdbdb" x="-0.74" y="-4.48" transform="translate(13.74,21.46) rotate(-0.3)" width="1.48" height="8.96" rx="0.66"/>
<rect fill="#dbdbdb" x="21.24" y="16.99" width="1.50" height="8.88" rx="0.60"/>
<rect fill="#dbdbdb" x="-0.75" y="-4.46" transform="translate(30.25,21.40) rotate(-0.2)" width="1.50" height="8.92" rx="0.72"/>
<path fill="#dbdbdb" d="
  M 11.91 28.22
  A 0.14 0.14 0.0 0 1 12.05 28.36
  L 12.05 28.47
  A 2.31 1.51 0.5 0 1 9.72 29.96
  L 9.46 29.96
  A 2.31 1.51 0.5 0 1 7.17 28.43
  L 7.17 28.32
  A 0.14 0.14 0.0 0 1 7.31 28.18
  L 11.91 28.22
  Z"
/>
<path fill="#dbdbdb" d="
  M 20.13 28.18
  A 0.18 0.18 0.0 0 1 20.30 28.36
  L 20.30 28.44
  A 2.00 1.54 0.4 0 1 18.29 29.96
  L 17.43 29.96
  A 2.00 1.54 0.4 0 1 15.44 28.40
  L 15.45 28.32
  A 0.18 0.18 0.0 0 1 15.63 28.14
  L 20.13 28.18
  Z"
/>
<path fill="#dbdbdb" d="
  M 28.42 28.17
  A 0.16 0.16 0.0 0 1 28.58 28.33
  L 28.58 28.43
  A 2.04 1.50 -0.2 0 1 26.54 29.94
  L 25.74 29.94
  A 2.04 1.50 -0.2 0 1 23.70 28.45
  L 23.70 28.35
  A 0.16 0.16 0.0 0 1 23.86 28.19
  L 28.42 28.17
  Z"
/>
</svg>
