<?xml version="1.0" encoding="UTF-8" standalone="no"?>
<!DOCTYPE svg PUBLIC "-//W3C//DTD SVG 1.1//EN" "http://www.w3.org/Graphics/SVG/1.1/DTD/svg11.dtd">
<svg xmlns="http://www.w3.org/2000/svg" version="1.1" viewBox="0.00 0.00 35.00 35.00">
<path fill="#dbdbdb" d="
  M 27.09 6.25
  A 0.30 0.30 0.0 0 1 27.10 5.83
  L 27.20 5.73
  A 4.56 2.09 -44.8 0 1 31.90 4.00
  L 31.90 4.00
  A 4.56 2.09 -44.8 0 1 30.14 8.69
  L 30.04 8.79
  A 0.30 0.30 0.0 0 1 29.62 8.79
  L 27.09 6.25
  Z"
/>
<path fill="#dbdbdb" d="
  M 29.42 10.42
  C 29.37 13.25 27.78 15.72 25.39 17.20
  Q 20.90 19.98 15.67 22.90
  Q 13.41 24.16 11.85 26.21
  Q 11.35 26.86 10.75 26.29
  L 9.59 25.18
  Q 8.96 24.57 9.65 24.04
  Q 11.61 22.53 12.79 20.51
  Q 15.41 16.00 18.15 11.26
  Q 20.75 6.76 25.48 6.35
  Q 26.04 6.30 26.43 6.70
  L 29.00 9.34
  Q 29.44 9.79 29.42 10.42
  Z"
/>
<path fill="#dbdbdb" d="
  M 6.74 25.17
  Q 5.72 25.63 4.97 26.64
  A 0.35 0.35 0.0 0 1 4.52 26.74
  L 4.23 26.58
  Q 3.58 26.23 3.96 25.60
  C 5.58 22.86 8.32 24.09 9.21 26.48
  Q 9.30 26.73 9.56 26.75
  Q 10.16 26.81 10.43 27.39
  Q 10.64 27.83 10.42 28.26
  L 9.27 30.46
  Q 8.96 31.06 8.43 30.62
  L 7.32 29.70
  A 0.48 0.48 0.0 0 1 7.34 28.94
  Q 8.28 28.25 8.91 27.26
  Q 9.37 26.52 8.64 27.00
  Q 7.81 27.55 7.20 28.38
  Q 6.87 28.83 6.38 28.58
  Q 5.78 28.28 5.44 27.76
  A 0.84 0.83 56.4 0 1 5.67 26.61
  Q 6.38 26.12 6.95 25.46
  Q 7.48 24.84 6.74 25.17
  Z"
/>
<path fill="#dbdbdb" d="
  M 9.22 31.09
  Q 10.62 29.86 10.72 29.50
  Q 11.59 26.32 11.82 29.60
  Q 11.91 30.83 10.28 31.84
  Q 9.66 32.22 9.23 31.63
  Q 9.15 31.52 9.12 31.38
  A 0.32 0.32 0.0 0 1 9.22 31.09
  Z"
/>
</svg>
