<?xml version="1.0" encoding="UTF-8" standalone="no"?>
<!DOCTYPE svg PUBLIC "-//W3C//DTD SVG 1.1//EN" "http://www.w3.org/Graphics/SVG/1.1/DTD/svg11.dtd">
<svg xmlns="http://www.w3.org/2000/svg" version="1.1" viewBox="0.00 0.00 35.00 35.00">
<path fill="#dbdadb" d="
  M 20.69 13.49
  A 0.56 0.55 -23.4 0 0 20.43 14.13
  Q 21.07 16.26 20.44 17.95
  A 0.91 0.91 0.0 0 1 19.59 18.54
  L 16.23 18.56
  Q 15.61 18.56 15.46 17.96
  Q 15.03 16.25 15.46 14.43
  Q 15.56 14.02 15.37 13.63
  Q 14.29 11.41 14.98 8.85
  Q 15.14 8.29 14.59 8.09
  Q 11.08 6.78 7.32 6.57
  Q 7.05 6.56 7.04 6.29
  L 7.04 6.01
  Q 7.04 5.77 7.28 5.77
  C 9.01 5.74 10.73 5.52 12.37 6.30
  Q 13.64 6.91 14.99 7.36
  A 1.19 1.18 -51.6 0 0 15.98 7.24
  Q 17.97 5.96 19.99 7.21
  Q 20.49 7.51 21.04 7.34
  C 22.75 6.81 24.36 5.75 26.18 5.72
  Q 27.52 5.71 28.75 5.81
  Q 28.99 5.83 28.97 6.07
  L 28.93 6.39
  Q 28.91 6.62 28.68 6.62
  Q 24.92 6.74 21.50 8.09
  Q 20.93 8.32 21.06 8.91
  Q 21.51 11.01 20.96 13.15
  Q 20.90 13.38 20.69 13.49
  Z
  M 20.00 9.52
  A 2.02 2.02 0.0 0 0 17.98 7.50
  A 2.02 2.02 0.0 0 0 15.96 9.52
  A 2.02 2.02 0.0 0 0 17.98 11.54
  A 2.02 2.02 0.0 0 0 20.00 9.52
  Z
  M 19.20 13.90
  L 19.87 13.79
  Q 20.40 13.70 20.29 13.18
  Q 20.17 12.56 19.65 12.31
  C 18.95 11.97 18.02 12.67 16.94 12.15
  Q 16.26 11.83 16.04 12.55
  L 15.89 13.00
  Q 15.67 13.71 16.39 13.86
  Q 17.67 14.13 17.57 15.53
  Q 17.56 15.68 17.66 15.78
  Q 17.84 15.98 18.14 15.90
  A 0.43 0.43 0.0 0 0 18.45 15.53
  L 18.57 14.56
  Q 18.64 14.00 19.20 13.90
  Z"
/>
<path fill="#dbdadb" d="
  M 11.94 9.88
  A 0.28 0.28 0.0 0 1 12.21 10.17
  L 12.20 10.66
  A 1.63 1.59 -88.7 0 1 10.57 12.25
  L 3.97 12.10
  A 1.63 1.59 -88.7 0 1 2.42 10.44
  L 2.43 9.95
  A 0.28 0.28 0.0 0 1 2.72 9.68
  L 11.94 9.88
  Z"
/>
<path fill="#dbdadb" d="
  M 31.45 12.18
  L 24.42 12.18
  Q 23.81 12.18 23.87 11.57
  L 24.01 10.23
  Q 24.06 9.76 24.52 9.76
  L 33.01 9.78
  Q 34.15 9.78 33.57 10.76
  L 33.38 11.08
  Q 32.73 12.18 31.45 12.18
  Z"
/>
<path fill="#dbdadb" d="
  M 7.62 15.59
  Q 6.33 15.60 5.59 14.55
  L 5.31 14.15
  Q 4.66 13.23 5.79 13.23
  L 11.75 13.23
  Q 12.26 13.23 12.29 13.75
  L 12.38 15.21
  Q 12.40 15.57 12.04 15.57
  L 7.62 15.59
  Z"
/>
<path fill="#dbdadb" d="
  M 24.07 15.56
  Q 23.70 15.56 23.70 15.19
  L 23.68 13.66
  Q 23.67 13.24 24.09 13.24
  L 30.08 13.23
  Q 31.32 13.23 30.63 14.25
  L 30.37 14.63
  A 2.17 2.17 0.0 0 1 28.55 15.59
  L 24.07 15.56
  Z"
/>
<path fill="#dbdadb" d="
  M 9.45 16.61
  L 11.88 16.63
  A 0.67 0.67 0.0 0 1 12.54 17.21
  L 12.68 18.27
  A 0.67 0.67 0.0 0 1 11.95 19.02
  L 10.38 18.85
  A 0.67 0.67 0.0 0 1 10.00 18.68
  L 9.00 17.78
  A 0.67 0.67 0.0 0 1 9.45 16.61
  Z"
/>
<path fill="#dbdadb" d="
  M 25.59 18.79
  L 24.14 19.06
  A 0.71 0.71 0.0 0 1 23.31 18.27
  L 23.45 17.21
  A 0.71 0.71 0.0 0 1 24.16 16.59
  L 26.49 16.63
  A 0.71 0.71 0.0 0 1 26.90 17.92
  L 25.88 18.66
  A 0.71 0.71 0.0 0 1 25.59 18.79
  Z"
/>
<rect fill="#dbdadb" x="-1.40" y="-4.98" transform="translate(17.98,24.38) rotate(-0.1)" width="2.80" height="9.96" rx="1.23"/>
</svg>
