<svg width="16" height="16" viewBox="0 0 16 16" fill="none" xmlns="http://www.w3.org/2000/svg">
<path d="M2.00008 7.92798V2.97639C2.61903 3.59534 5.09483 3.59534 5.71378 2.97639V7.92798C5.71378 7.92798 3.85693 8.54693 2.00008 7.92798Z" fill="#E2E2E2"/>
<path d="M2.00008 10.4038V8.54699C2.00008 8.54699 3.85693 9.16594 5.71378 8.54699V10.4038C3.85693 11.0227 2.00008 10.4038 2.00008 10.4038Z" fill="#E2E2E2"/>
<path d="M2.00008 7.92798V2.97639C2.61903 3.59534 5.09483 3.59534 5.71378 2.97639V7.92798C5.71378 7.92798 3.85693 8.54693 2.00008 7.92798Z" stroke="#E2E2E2" stroke-width="0.2"/>
<path d="M2 2.78451C2 1.73844 5.7137 1.73855 5.7137 2.78451C5.7137 3.59528 2 3.59528 2 2.78451Z" stroke="#E2E2E2" stroke-width="0.2"/>
<path d="M2.00008 10.4038V8.54699C2.00008 8.54699 3.85693 9.16594 5.71378 8.54699V10.4038C3.85693 11.0227 2.00008 10.4038 2.00008 10.4038Z" stroke="#E2E2E2" stroke-width="0.2"/>
<path d="M7.54771 10.2585L11.216 6.93263C11.1732 7.8069 12.8362 9.64107 13.7105 9.68387L10.0421 13.0098C10.0421 13.0098 8.33639 12.0499 7.54771 10.2585Z" fill="#E2E2E2"/>
<path d="M5.71362 11.9215L7.0892 10.6743C7.0892 10.6743 7.87788 12.4656 9.58363 13.4255L8.20806 14.6727C6.5023 13.7128 5.71362 11.9215 5.71362 11.9215Z" fill="#E2E2E2"/>
<path d="M7.54771 10.2585L11.216 6.93263C11.1732 7.8069 12.8362 9.64107 13.7105 9.68387L10.0421 13.0098C10.0421 13.0098 8.33639 12.0499 7.54771 10.2585Z" stroke="#E2E2E2" stroke-width="0.2"/>
<path d="M11.3581 6.8039C12.133 6.10127 14.6274 8.85259 13.8525 9.55514C13.2518 10.0997 10.7574 7.34848 11.3581 6.8039Z" stroke="#E2E2E2" stroke-width="0.2"/>
<path d="M5.71362 11.9215L7.0892 10.6743C7.0892 10.6743 7.87788 12.4656 9.58363 13.4255L8.20806 14.6727C6.5023 13.7128 5.71362 11.9215 5.71362 11.9215Z" stroke="#E2E2E2" stroke-width="0.2"/>
</svg>
