<?xml version="1.0" encoding="UTF-8" standalone="no"?>
<!DOCTYPE svg PUBLIC "-//W3C//DTD SVG 1.1//EN" "http://www.w3.org/Graphics/SVG/1.1/DTD/svg11.dtd">
<svg xmlns="http://www.w3.org/2000/svg" version="1.1" viewBox="0.00 0.00 35.00 35.00">
<path fill="#dbdbdb" d="
  M 17.15 13.52
  A 0.66 0.66 0.0 0 1 16.49 12.86
  L 16.49 12.09
  A 8.35 1.33 90.0 0 1 17.82 3.74
  L 18.18 3.74
  A 8.35 1.33 90.0 0 1 19.51 12.09
  L 19.51 12.86
  A 0.66 0.66 0.0 0 1 18.85 13.52
  L 17.15 13.52
  Z"
/>
<path fill="#dbdbdb" d="
  M 18.83 14.62
  Q 19.47 14.46 19.55 15.12
  Q 20.36 21.96 19.89 28.95
  Q 19.82 30.02 18.74 30.03
  L 17.28 30.04
  Q 16.17 30.04 16.11 28.94
  Q 15.67 21.52 16.47 15.05
  A 0.55 0.54 10.6 0 1 17.15 14.59
  Q 18.00 14.83 18.83 14.62
  Z"
/>
<path fill="#dbdbdb" d="
  M 16.49 30.77
  C 17.28 31.07 18.45 31.23 19.26 30.84
  Q 19.79 30.58 19.89 31.16
  Q 19.96 31.58 19.63 31.83
  Q 18.03 33.06 16.28 31.82
  Q 15.99 31.61 16.06 31.27
  L 16.13 30.97
  A 0.27 0.27 0.0 0 1 16.49 30.77
  Z"
/>
</svg>
