<svg width="16" height="16" viewBox="0 0 16 16" fill="none" xmlns="http://www.w3.org/2000/svg">
<path d="M10.2629 4.41529C10.7594 4.37124 11.2578 4.79325 11.565 5.14685C11.81 5.43519 12.0366 5.82203 11.9272 6.2129C11.857 6.46304 11.6208 6.6501 11.4413 6.83019L10.7273 7.54644L9.90888 8.37107C9.76973 8.51104 9.62531 8.66191 9.47972 8.79411C9.38107 8.88368 9.26242 8.90922 9.13156 8.89676C9.03358 8.86651 8.97082 8.83084 8.88631 8.76961C8.46008 8.46147 8.07568 8.10225 7.71957 7.71555C7.53294 7.51288 7.27635 7.25073 7.50677 6.96756C7.63174 6.81397 7.80524 6.65595 7.94661 6.51439L8.75319 5.7035L9.45947 4.99416C9.70003 4.75096 9.90813 4.46452 10.2629 4.41529Z" fill="#E2E2E2"/>
<path d="M4.4604 10.1631C4.72233 10.1486 4.8316 10.3408 5.001 10.503C5.04053 10.5409 5.07814 10.5829 5.1164 10.6222C5.23691 10.7456 5.35879 10.8676 5.48205 10.9881C5.69753 11.1983 5.9327 11.3858 6.12903 11.6137C6.22935 11.7301 6.26351 11.9407 6.17202 12.0697C6.05005 12.2417 5.8723 12.4002 5.72187 12.5509L4.93418 13.3392L4.46883 13.8042C4.32063 13.9528 4.21485 14.1013 4.00601 14.1586C3.75534 14.2027 3.5518 14.1132 3.33986 13.966C2.89505 13.6454 2.38601 13.1528 2.23981 12.6127C2.14289 12.2547 2.46116 12.0184 2.68379 11.7947L3.40668 11.0687L3.90322 10.5669C4.07499 10.393 4.20963 10.2096 4.4604 10.1631Z" fill="#E2E2E2"/>
<path d="M6.98595 7.64485C7.21883 7.64008 7.38056 7.85617 7.53266 8.00993C7.68277 8.1628 7.83503 8.31355 7.9894 8.46211C8.19207 8.65411 8.41573 8.82473 8.60726 9.02491C8.67244 9.0931 8.73277 9.18815 8.74992 9.28203C8.76824 9.38386 8.7444 9.4887 8.68398 9.5727C8.60483 9.68156 8.39908 9.88003 8.297 9.98236L7.65855 10.6223L7.18514 11.0985C7.02431 11.2604 6.93126 11.4028 6.6958 11.4424C6.5678 11.4428 6.48452 11.4077 6.38148 11.3351C6.06876 11.1146 4.96091 10.1344 4.91035 9.79092C4.89425 9.68148 4.92333 9.57655 4.99023 9.48886C5.08106 9.36988 5.20137 9.26387 5.30694 9.15786L5.8937 8.5694L6.41163 8.04654C6.58804 7.86898 6.72503 7.68111 6.98595 7.64485Z" fill="#E2E2E2"/>
<path d="M12.4493 5.7198C13.0832 5.69157 14.1099 6.74228 13.9905 7.40042C13.9347 7.70876 13.7902 7.80415 13.5825 8.01163L13.0585 8.53546L12.4305 9.16501C12.0664 9.53208 11.9963 9.68503 11.4464 9.61424C11.0408 9.56061 10.6016 9.39611 10.2037 9.29353C10.1017 9.26726 9.94637 9.2194 9.90503 9.11497C9.85659 8.99248 9.92671 8.87642 10.0119 8.7916C10.1374 8.66019 10.2673 8.53313 10.3944 8.40482L11.2849 7.50441L11.6842 7.10084C11.8624 6.92031 12.0719 6.73247 12.1843 6.50257C12.263 6.3416 12.2974 6.15972 12.3052 5.98184C12.3076 5.92644 12.3126 5.86726 12.3349 5.81601C12.3596 5.75935 12.3942 5.74164 12.4493 5.7198Z" fill="#E2E2E2"/>
<path d="M9.12501 2.59134C9.71649 2.5089 10.5532 3.38796 10.6328 3.94502C10.6581 4.12196 10.4513 4.07829 10.3538 4.07801C10.1644 4.07683 9.97889 4.13183 9.82075 4.23606C9.6575 4.3421 9.27068 4.75498 9.10819 4.91783L7.70792 6.31915C7.54747 6.4675 7.40882 6.6603 7.18015 6.70426C7.10051 6.71956 7.01632 6.71229 6.94955 6.66287C6.80448 6.55549 6.59796 5.70725 6.56642 5.50202C6.52856 5.2556 6.55219 5.00577 6.70527 4.80066C6.81646 4.6517 7.01006 4.48578 7.14512 4.35057L7.97116 3.51691C8.13038 3.35665 8.28877 3.19553 8.44625 3.03356C8.67083 2.80359 8.78989 2.6381 9.12501 2.59134Z" fill="#E2E2E2"/>
<path d="M9.4183 9.45955C9.46457 9.45646 9.52792 9.45997 9.57343 9.47269C10.0354 9.60154 10.4996 9.73082 10.9617 9.85883C11.2873 9.94903 11.2607 10.3152 11.075 10.5254C10.9594 10.6562 10.8287 10.7821 10.7036 10.9073L10.0766 11.5353L9.71827 11.8966C9.50357 12.1159 9.39496 12.2649 9.07139 12.2913C8.73687 12.3052 8.36419 12.168 8.0428 12.0813C7.84331 12.0222 7.64842 11.9729 7.45549 11.8928C7.31832 11.8509 7.22032 11.6761 7.30733 11.5442C7.41409 11.3824 7.60886 11.2044 7.74634 11.0651L8.52785 10.2768L8.98889 9.80779C9.11716 9.67693 9.24108 9.51344 9.4183 9.45955Z" fill="#E2E2E2"/>
<path d="M6.78801 12.0873C6.85113 12.0789 6.92223 12.0838 6.98444 12.0998C7.30907 12.1833 7.62978 12.2853 7.95396 12.3709C8.11444 12.4132 8.2576 12.448 8.41164 12.5088C8.63237 12.5961 8.6348 12.8939 8.5277 13.061C8.44152 13.1953 8.26337 13.3545 8.15083 13.4672L7.62596 13.9947L7.18712 14.4375C6.99941 14.6271 6.85969 14.7963 6.59443 14.8718C6.1479 14.9713 5.65624 14.7685 5.2314 14.6337C5.10016 14.5866 4.89938 14.4909 4.847 14.3515C4.72532 14.0278 5.10099 13.7257 5.29651 13.529L5.83302 12.9876L6.33619 12.4752C6.47328 12.335 6.60761 12.1665 6.78801 12.0873Z" fill="#E2E2E2"/>
<path d="M6.16845 5.59578C6.47856 5.59084 6.48866 5.82116 6.55027 6.05461C6.59111 6.20529 6.63274 6.35574 6.67514 6.50599C6.71754 6.65631 6.76711 6.81084 6.80592 6.96107C6.87775 7.23912 6.54042 7.49852 6.36147 7.67781L5.82487 8.21441L5.32618 8.71472C5.16876 8.87267 5.05189 9.01642 4.84857 9.11683C4.43193 9.26191 4.38018 8.90035 4.3258 8.58566C4.24549 8.12097 4.0725 7.51773 4.40094 7.11328C4.4642 7.03538 4.56991 6.93832 4.64369 6.8641L5.08676 6.41819L5.4723 6.02751C5.69318 5.80219 5.83312 5.62116 6.16845 5.59578Z" fill="#E2E2E2"/>
<path d="M3.79193 7.98845C4.0013 7.96761 4.10277 8.07899 4.13932 8.27527C4.18325 8.51113 4.23741 8.74369 4.28491 8.97944C4.32065 9.15682 4.39104 9.34198 4.38849 9.52397C4.37853 9.68671 4.1124 9.92986 4.00327 10.0404L3.56432 10.4828L3.10592 10.9452C2.94413 11.1076 2.79657 11.2761 2.58673 11.3771C2.14699 11.5199 2.0806 11.0008 2.04477 10.6974C1.98927 10.2274 1.92613 9.66345 2.25409 9.27095C2.39201 9.10586 2.58498 8.92836 2.73815 8.77451L3.11184 8.39982C3.33559 8.1762 3.46267 8.02602 3.79193 7.98845Z" fill="#E2E2E2"/>
<path d="M13.4751 2.00584C13.5403 1.99485 13.6121 1.99839 13.6733 2.02491C13.7476 2.05788 13.8054 2.11945 13.8336 2.19566C13.8622 2.27084 13.8585 2.35442 13.8235 2.42681C13.7392 2.59941 13.5858 2.59629 13.423 2.62244C13.2756 2.64396 12.9583 2.66719 12.9069 2.84616C12.7906 3.25038 12.9112 3.62922 12.7096 4.0307C12.6697 4.11017 12.6223 4.18566 12.568 4.25615C12.4762 4.37585 12.3673 4.48535 12.2608 4.59196C12.1593 4.69344 12.0738 4.81711 11.934 4.86428C11.8526 4.87773 11.7635 4.87307 11.6935 4.81724C11.3279 4.52538 11.7872 4.24994 11.9716 4.03113C12.0367 3.95796 12.1556 3.83651 12.1875 3.742C12.3329 3.31207 12.1677 2.82113 12.4627 2.42939C12.6987 2.11597 13.1092 2.05669 13.4751 2.00584Z" fill="#E2E2E2"/>
<path d="M12.8762 4.46425C12.9594 4.45448 13.024 4.47231 13.095 4.51996C13.4455 4.75566 13.7515 5.15682 13.8474 5.57253C13.8808 5.71746 13.8915 5.91722 13.8078 6.04733C13.7941 6.06848 13.7875 6.07405 13.7669 6.0785C13.7243 6.05138 13.6575 5.97784 13.6173 5.93946C13.5613 5.88587 13.5191 5.8506 13.4588 5.80233C13.2492 5.63386 12.9059 5.4389 12.6376 5.39409C12.548 5.37913 12.4367 5.38271 12.3444 5.3841C12.2862 5.34951 12.1411 5.2114 12.194 5.15244C12.3258 5.00569 12.7245 4.54332 12.8762 4.46425Z" fill="#E2E2E2"/>
<path d="M10.6228 2.76644C10.6453 2.76421 10.6679 2.76277 10.6906 2.76212C11.101 2.75081 11.411 2.9828 11.7106 3.23411C12.1057 3.56543 11.7554 3.77063 11.4874 4.03871C11.35 4.18574 11.2383 4.34925 11.0404 4.15951C10.9958 4.1168 10.9875 4.06682 10.982 4.00803C10.9713 3.89549 10.9556 3.80012 10.9182 3.69307C10.8555 3.50806 10.7642 3.33397 10.6479 3.1771C10.5964 3.10848 10.4069 2.90757 10.4077 2.85049C10.4496 2.79604 10.5574 2.77786 10.6228 2.76644Z" fill="#E2E2E2"/>
</svg>
