<?xml version="1.0" encoding="UTF-8" standalone="no"?>
<!DOCTYPE svg PUBLIC "-//W3C//DTD SVG 1.1//EN" "http://www.w3.org/Graphics/SVG/1.1/DTD/svg11.dtd">
<svg xmlns="http://www.w3.org/2000/svg" version="1.1" viewBox="0.00 0.00 35.00 35.00">
<path fill="#d6d5d6" d="
  M 6.56 16.64
  Q 8.34 8.21 16.62 6.57
  Q 17.21 6.45 17.18 5.85
  Q 17.16 5.26 17.45 4.74
  Q 17.88 3.97 18.44 4.66
  Q 18.86 5.17 18.79 5.83
  Q 18.73 6.41 19.31 6.53
  Q 27.77 8.27 29.41 16.55
  Q 29.51 17.07 30.04 17.11
  Q 30.77 17.17 31.42 17.47
  Q 32.00 17.74 31.63 18.26
  Q 31.11 18.99 30.20 18.85
  Q 29.57 18.75 29.44 19.37
  Q 27.73 27.72 19.43 29.47
  Q 18.93 29.57 18.90 30.08
  Q 18.87 30.82 18.50 31.40
  Q 17.91 32.34 17.45 31.32
  Q 17.20 30.76 17.14 30.12
  Q 17.08 29.54 16.51 29.43
  Q 9.44 28.04 6.93 21.12
  C 6.69 20.48 6.86 19.70 6.53 19.14
  Q 6.33 18.81 5.95 18.83
  Q 5.22 18.87 4.60 18.53
  Q 4.00 18.20 4.44 17.67
  Q 4.92 17.09 5.72 17.21
  Q 6.41 17.32 6.56 16.64
  Z
  M 11.88 18.07
  A 0.80 0.80 0.0 0 1 11.05 18.82
  L 9.03 18.76
  Q 8.46 18.74 8.58 19.30
  Q 10.04 26.01 16.53 27.34
  Q 17.24 27.48 17.19 26.77
  C 17.15 26.03 16.93 25.00 17.35 24.36
  Q 17.55 24.05 17.92 24.02
  Q 18.53 23.96 18.73 24.54
  Q 19.08 25.50 18.76 26.48
  A 0.67 0.67 0.0 0 0 19.56 27.34
  Q 26.11 25.75 27.35 19.50
  Q 27.49 18.81 26.78 18.83
  L 24.95 18.90
  A 0.79 0.78 79.6 0 1 24.20 18.38
  L 24.05 17.94
  A 0.47 0.46 -19.2 0 1 24.35 17.34
  Q 25.54 16.98 26.76 17.22
  Q 27.53 17.38 27.37 16.60
  Q 25.97 10.03 19.44 8.65
  Q 18.77 8.51 18.80 9.19
  L 18.90 10.97
  Q 18.92 11.49 18.50 11.79
  Q 18.29 11.94 18.03 11.97
  Q 17.42 12.04 17.27 11.44
  Q 16.97 10.26 17.17 9.03
  Q 17.26 8.52 16.74 8.62
  Q 9.93 9.94 8.59 16.68
  Q 8.49 17.20 9.02 17.21
  L 11.44 17.24
  Q 11.94 17.24 11.91 17.75
  L 11.88 18.07
  Z"
/>
</svg>
