<svg width="16" height="16" viewBox="0 0 16 16" fill="none" xmlns="http://www.w3.org/2000/svg">
<g id="Icon / crown">
<path id="Vector" d="M13.2 12.8H2.8C2.58 12.8 2.4 12.98 2.4 13.2V14C2.4 14.22 2.58 14.4 2.8 14.4H13.2C13.42 14.4 13.6 14.22 13.6 14V13.2C13.6 12.98 13.42 12.8 13.2 12.8ZM14.8 4.79998C14.1375 4.79998 13.6 5.33748 13.6 5.99998C13.6 6.17748 13.64 6.34248 13.71 6.49498L11.9 7.57998C11.515 7.80998 11.0175 7.67998 10.795 7.28998L8.7575 3.72498C9.025 3.50498 9.2 3.17498 9.2 2.79998C9.2 2.13748 8.6625 1.59998 8 1.59998C7.3375 1.59998 6.8 2.13748 6.8 2.79998C6.8 3.17498 6.975 3.50498 7.2425 3.72498L5.205 7.28998C4.9825 7.67998 4.4825 7.80998 4.1 7.57998L2.2925 6.49498C2.36 6.34498 2.4025 6.17748 2.4025 5.99998C2.4025 5.33748 1.865 4.79998 1.2025 4.79998C0.54 4.79998 0 5.33748 0 5.99998C0 6.66248 0.5375 7.19998 1.2 7.19998C1.265 7.19998 1.33 7.18998 1.3925 7.17998L3.2 12H12.8L14.6075 7.17998C14.67 7.18998 14.735 7.19998 14.8 7.19998C15.4625 7.19998 16 6.66248 16 5.99998C16 5.33748 15.4625 4.79998 14.8 4.79998Z" fill="#E2E2E2"/>
</g>
</svg>
