<svg width="16" height="16" viewBox="0 0 16 16" fill="none" xmlns="http://www.w3.org/2000/svg">
<g id="Icon / gift">
<path id="Vector" d="M1 14C1 14.5531 1.44687 15 2 15H7V10H1V14ZM9 15H14C14.5531 15 15 14.5531 15 14V10H9V15ZM15 5H13.6844C13.8781 4.62188 14 4.20312 14 3.75C14 2.23438 12.7656 1 11.25 1C9.95 1 9.10938 1.66563 8.03125 3.13438C6.95312 1.66563 6.1125 1 4.8125 1C3.29688 1 2.0625 2.23438 2.0625 3.75C2.0625 4.20312 2.18125 4.62188 2.37812 5H1C0.446875 5 0 5.44688 0 6V8.5C0 8.775 0.225 9 0.5 9H15.5C15.775 9 16 8.775 16 8.5V6C16 5.44688 15.5531 5 15 5ZM4.80937 5C4.11875 5 3.55938 4.44062 3.55938 3.75C3.55938 3.05938 4.11875 2.5 4.80937 2.5C5.43125 2.5 5.89062 2.60313 7.5 5H4.80937ZM11.25 5H8.55937C10.1656 2.60938 10.6125 2.5 11.25 2.5C11.9406 2.5 12.5 3.05938 12.5 3.75C12.5 4.44062 11.9406 5 11.25 5Z" fill="#E2E2E2"/>
</g>
</svg>
