<?xml version="1.0" encoding="UTF-8" standalone="no"?>
<!DOCTYPE svg PUBLIC "-//W3C//DTD SVG 1.1//EN" "http://www.w3.org/Graphics/SVG/1.1/DTD/svg11.dtd">
<svg xmlns="http://www.w3.org/2000/svg" version="1.1" viewBox="0.00 0.00 70.00 70.00">
<g stroke-width="2.00" fill="none" stroke-linecap="butt">
<path stroke="#575c63" vector-effect="non-scaling-stroke" d="
  M 56.82 20.06
  Q 58.99 19.95 61.08 20.20
  Q 63.41 20.47 61.84 18.74
  L 52.86 8.83
  Q 52.58 8.53 52.30 8.84
  L 42.82 19.30
  A 0.55 0.54 20.8 0 0 43.23 20.21
  L 48.15 20.14
  A 1.01 1.01 0.0 0 1 49.18 21.16
  L 49.12 26.68
  Q 49.12 27.25 49.68 27.25
  L 55.42 27.27
  A 0.68 0.67 -0.8 0 0 56.10 26.58
  L 55.97 20.99
  Q 55.95 20.11 56.82 20.06"
/>
<path stroke="#575c63" vector-effect="non-scaling-stroke" d="
  M 25.36 28.33
  C 19.03 22.11 8.15 24.27 7.41 34.03
  C 6.79 42.21 11.49 50.34 17.86 55.66
  Q 21.51 58.70 25.35 61.55
  Q 25.84 61.92 26.34 61.55
  C 35.54 54.75 43.31 48.43 44.38 36.23
  C 45.33 25.33 33.33 21.22 26.26 28.32
  Q 25.81 28.78 25.36 28.33"
/>
<path stroke="#575c63" vector-effect="non-scaling-stroke" d="
  M 56.1652 30.1738
  A 0.77 0.77 0.0 0 0 55.3938 29.4051
  L 49.7938 29.4149
  A 0.77 0.77 0.0 0 0 49.0252 30.1862
  L 49.0348 35.7262
  A 0.77 0.77 0.0 0 0 49.8062 36.4949
  L 55.4062 36.4851
  A 0.77 0.77 0.0 0 0 56.1748 35.7138
  L 56.1652 30.1738"
/>
<path stroke="#575c63" vector-effect="non-scaling-stroke" d="
  M 56.1129 39.4062
  A 0.71 0.71 0.0 0 0 55.4041 38.6949
  L 49.7641 38.6851
  A 0.71 0.71 0.0 0 0 49.0529 39.3938
  L 49.0471 42.6938
  A 0.71 0.71 0.0 0 0 49.7559 43.4051
  L 55.3959 43.4149
  A 0.71 0.71 0.0 0 0 56.1071 42.7062
  L 56.1129 39.4062"
/>
<path stroke="#575c63" vector-effect="non-scaling-stroke" d="
  M 56.1825 46.7138
  A 0.89 0.89 0.0 0 0 55.3035 45.8129
  L 49.9239 45.7472
  A 0.89 0.89 0.0 0 0 49.0231 46.6263
  L 49.0175 47.0862
  A 0.89 0.89 0.0 0 0 49.8965 47.9871
  L 55.2761 48.0528
  A 0.89 0.89 0.0 0 0 56.1769 47.1737
  L 56.1825 46.7138"
/>
<path stroke="#575c63" vector-effect="non-scaling-stroke" d="
  M 25.59 45.38
  Q 24.89 49.78 24.78 53.74
  Q 24.74 55.02 25.43 53.95
  L 34.35 40.01
  A 0.42 0.42 0.0 0 0 33.99 39.36
  L 28.03 39.47
  Q 27.32 39.48 27.39 38.78
  L 28.24 30.57
  A 0.40 0.39 5.5 0 0 27.87 30.13
  Q 27.47 30.09 27.28 30.41
  Q 22.66 37.67 18.46 44.19
  A 0.34 0.34 0.0 0 0 18.74 44.71
  L 24.98 44.68
  Q 25.70 44.68 25.59 45.38"
/>
</g>
<g fill="#2f353e">
<path d="
  M 0.00 0.00
  L 70.00 0.00
  L 70.00 70.00
  L 0.00 70.00
  L 0.00 0.00
  Z
  M 56.82 20.06
  Q 58.99 19.95 61.08 20.20
  Q 63.41 20.47 61.84 18.74
  L 52.86 8.83
  Q 52.58 8.53 52.30 8.84
  L 42.82 19.30
  A 0.55 0.54 20.8 0 0 43.23 20.21
  L 48.15 20.14
  A 1.01 1.01 0.0 0 1 49.18 21.16
  L 49.12 26.68
  Q 49.12 27.25 49.68 27.25
  L 55.42 27.27
  A 0.68 0.67 -0.8 0 0 56.10 26.58
  L 55.97 20.99
  Q 55.95 20.11 56.82 20.06
  Z
  M 25.36 28.33
  C 19.03 22.11 8.15 24.27 7.41 34.03
  C 6.79 42.21 11.49 50.34 17.86 55.66
  Q 21.51 58.70 25.35 61.55
  Q 25.84 61.92 26.34 61.55
  C 35.54 54.75 43.31 48.43 44.38 36.23
  C 45.33 25.33 33.33 21.22 26.26 28.32
  Q 25.81 28.78 25.36 28.33
  Z
  M 56.1652 30.1738
  A 0.77 0.77 0.0 0 0 55.3938 29.4051
  L 49.7938 29.4149
  A 0.77 0.77 0.0 0 0 49.0252 30.1862
  L 49.0348 35.7262
  A 0.77 0.77 0.0 0 0 49.8062 36.4949
  L 55.4062 36.4851
  A 0.77 0.77 0.0 0 0 56.1748 35.7138
  L 56.1652 30.1738
  Z
  M 56.1129 39.4062
  A 0.71 0.71 0.0 0 0 55.4041 38.6949
  L 49.7641 38.6851
  A 0.71 0.71 0.0 0 0 49.0529 39.3938
  L 49.0471 42.6938
  A 0.71 0.71 0.0 0 0 49.7559 43.4051
  L 55.3959 43.4149
  A 0.71 0.71 0.0 0 0 56.1071 42.7062
  L 56.1129 39.4062
  Z
  M 56.1825 46.7138
  A 0.89 0.89 0.0 0 0 55.3035 45.8129
  L 49.9239 45.7472
  A 0.89 0.89 0.0 0 0 49.0231 46.6263
  L 49.0175 47.0862
  A 0.89 0.89 0.0 0 0 49.8965 47.9871
  L 55.2761 48.0528
  A 0.89 0.89 0.0 0 0 56.1769 47.1737
  L 56.1825 46.7138
  Z"
/>
<path d="
  M 24.98 44.68
  L 18.74 44.71
  A 0.34 0.34 0.0 0 1 18.46 44.19
  Q 22.66 37.67 27.28 30.41
  Q 27.47 30.09 27.87 30.13
  A 0.40 0.39 5.5 0 1 28.24 30.57
  L 27.39 38.78
  Q 27.32 39.48 28.03 39.47
  L 33.99 39.36
  A 0.42 0.42 0.0 0 1 34.35 40.01
  L 25.43 53.95
  Q 24.74 55.02 24.78 53.74
  Q 24.89 49.78 25.59 45.38
  Q 25.70 44.68 24.98 44.68
  Z"
/>
</g>
<g fill="#ff9494">
<path d="
  M 55.97 20.99
  L 56.10 26.58
  A 0.68 0.67 -0.8 0 1 55.42 27.27
  L 49.68 27.25
  Q 49.12 27.25 49.12 26.68
  L 49.18 21.16
  A 1.01 1.01 0.0 0 0 48.15 20.14
  L 43.23 20.21
  A 0.55 0.54 20.8 0 1 42.82 19.30
  L 52.30 8.84
  Q 52.58 8.53 52.86 8.83
  L 61.84 18.74
  Q 63.41 20.47 61.08 20.20
  Q 58.99 19.95 56.82 20.06
  Q 55.95 20.11 55.97 20.99
  Z"
/>
<path d="
  M 26.26 28.32
  C 33.33 21.22 45.33 25.33 44.38 36.23
  C 43.31 48.43 35.54 54.75 26.34 61.55
  Q 25.84 61.92 25.35 61.55
  Q 21.51 58.70 17.86 55.66
  C 11.49 50.34 6.79 42.21 7.41 34.03
  C 8.15 24.27 19.03 22.11 25.36 28.33
  Q 25.81 28.78 26.26 28.32
  Z
  M 25.59 45.38
  Q 24.89 49.78 24.78 53.74
  Q 24.74 55.02 25.43 53.95
  L 34.35 40.01
  A 0.42 0.42 0.0 0 0 33.99 39.36
  L 28.03 39.47
  Q 27.32 39.48 27.39 38.78
  L 28.24 30.57
  A 0.40 0.39 5.5 0 0 27.87 30.13
  Q 27.47 30.09 27.28 30.41
  Q 22.66 37.67 18.46 44.19
  A 0.34 0.34 0.0 0 0 18.74 44.71
  L 24.98 44.68
  Q 25.70 44.68 25.59 45.38
  Z"
/>
<rect x="-3.57" y="-3.54" transform="translate(52.60,32.95) rotate(-0.1)" width="7.14" height="7.08" rx="0.77"/>
<rect x="-3.53" y="-2.36" transform="translate(52.58,41.05) rotate(0.1)" width="7.06" height="4.72" rx="0.71"/>
<rect x="-3.58" y="-1.12" transform="translate(52.60,46.90) rotate(0.7)" width="7.16" height="2.24" rx="0.89"/>
</g>
</svg>
