<svg width="32" height="32" viewBox="0 0 32 32" fill="none" xmlns="http://www.w3.org/2000/svg">
<path d="M25.5863 9.59542L25.6458 12.1508C25.647 12.1918 25.6399 12.2326 25.6248 12.2708C25.6097 12.3091 25.587 12.3439 25.558 12.3733C25.529 12.4027 25.4943 12.4261 25.456 12.4421C25.4177 12.4581 25.3765 12.4663 25.3349 12.4663L22.7109 12.4571C22.5402 12.4571 22.4549 12.3703 22.4549 12.1966L22.4823 9.67313C22.483 9.61134 22.4712 9.55005 22.4477 9.4929C22.4242 9.43574 22.3894 9.38389 22.3455 9.3404C22.3016 9.29692 22.2494 9.26269 22.1921 9.23975C22.1347 9.21681 22.0733 9.20562 22.0115 9.20685L19.7623 9.23885C19.7136 9.23859 19.6658 9.22434 19.6249 9.19783C19.5839 9.17133 19.5515 9.13372 19.5316 9.08959C19.5117 9.04547 19.5052 8.99675 19.5129 8.94937C19.5206 8.902 19.5421 8.85804 19.5749 8.82285L23.9086 4.04113C23.994 3.94666 24.0793 3.94513 24.1646 4.03656L28.2698 8.56685C28.7482 9.09409 28.6324 9.31656 27.9223 9.23428C27.2854 9.15809 26.6362 9.13675 25.9749 9.17028C25.7098 9.18552 25.5802 9.32723 25.5863 9.59542Z" fill="#FF9494"/>
<path d="M12.0046 12.9463C15.2366 9.70063 20.7223 11.5795 20.288 16.5623C19.7988 22.1395 16.2468 25.0286 12.0411 28.1372C11.8888 28.25 11.7379 28.25 11.5886 28.1372C10.4183 27.2686 9.27694 26.3711 8.16456 25.4446C5.25256 23.0126 3.10399 19.2961 3.38742 15.5566C3.7257 11.0949 8.69942 10.1075 11.5931 12.9509C11.7303 13.0881 11.8674 13.0865 12.0046 12.9463ZM11.6983 20.7452C11.4849 22.0862 11.3615 23.3601 11.328 24.5669C11.3158 24.957 11.4148 24.989 11.6251 24.6629L15.7028 18.2903C15.722 18.2611 15.7328 18.2272 15.7341 18.1923C15.7354 18.1573 15.7271 18.1227 15.7102 18.0921C15.6932 18.0616 15.6683 18.0362 15.638 18.0188C15.6077 18.0013 15.5732 17.9925 15.5383 17.9932L12.8137 18.0435C12.5973 18.0465 12.4998 17.9414 12.5211 17.7281L12.9097 13.9749C12.9128 13.9508 12.9109 13.9263 12.904 13.9029C12.897 13.8796 12.8853 13.8578 12.8695 13.8389C12.8536 13.8201 12.834 13.8046 12.8119 13.7934C12.7897 13.7822 12.7654 13.7755 12.7406 13.7738C12.6187 13.7616 12.5288 13.8042 12.4708 13.9018C11.0628 16.1143 9.71885 18.2142 8.43885 20.2012C8.42432 20.2245 8.41621 20.2511 8.41533 20.2785C8.41445 20.3059 8.42083 20.3331 8.43383 20.3572C8.44683 20.3814 8.46598 20.4016 8.48934 20.416C8.5127 20.4303 8.53944 20.4382 8.56685 20.4389L11.4194 20.4252C11.6388 20.4252 11.7318 20.5319 11.6983 20.7452Z" fill="#FF9494"/>
<path d="M25.3229 13.4423L22.7629 13.4468C22.5685 13.4471 22.4112 13.605 22.4115 13.7994L22.4159 16.332C22.4163 16.5264 22.5741 16.6837 22.7685 16.6833L25.3285 16.6789C25.5229 16.6785 25.6803 16.5207 25.6799 16.3263L25.6755 13.7937C25.6752 13.5993 25.5173 13.442 25.3229 13.4423Z" fill="#FF9494"/>
<path d="M25.3277 17.6891L22.7494 17.6846C22.5701 17.6843 22.4246 17.8294 22.4242 18.0087L22.4216 19.5172C22.4213 19.6965 22.5664 19.842 22.7456 19.8424L25.3239 19.8469C25.5031 19.8472 25.6487 19.7021 25.649 19.5229L25.6517 18.0143C25.652 17.835 25.5069 17.6895 25.3277 17.6891Z" fill="#FF9494"/>
<path d="M25.2816 20.9431L22.8224 20.9131C22.5977 20.9103 22.4133 21.0902 22.4106 21.3149L22.408 21.5252C22.4052 21.7499 22.5852 21.9342 22.8098 21.937L25.2691 21.967C25.4938 21.9698 25.6781 21.7899 25.6809 21.5652L25.6835 21.3549C25.6862 21.1302 25.5063 20.9458 25.2816 20.9431Z" fill="#FF9494"/>
</svg>
