<?xml version="1.0" encoding="UTF-8" standalone="no"?>
<!DOCTYPE svg PUBLIC "-//W3C//DTD SVG 1.1//EN" "http://www.w3.org/Graphics/SVG/1.1/DTD/svg11.dtd">
<svg xmlns="http://www.w3.org/2000/svg" version="1.1" viewBox="0.00 0.00 70.00 70.00">
<path stroke="#575c63" stroke-width="2.00" fill="none" stroke-linecap="butt" vector-effect="non-scaling-stroke" d="
  M 36.42 30.20
  C 28.17 28.42 24.93 39.62 32.17 42.30
  C 40.08 45.23 43.21 34.89 42.82 29.18
  C 42.21 20.22 35.42 14.13 26.42 13.77
  C 25.57 13.74 24.72 14.04 23.85 13.97
  Q 23.23 13.92 22.94 13.37
  L 20.98 9.71
  A 1.23 1.23 0.0 0 0 18.74 9.86
  Q 17.64 12.75 16.80 15.57
  C 16.14 17.81 13.47 19.17 12.11 21.06
  C 4.11 32.17 5.89 46.01 17.43 53.92
  Q 18.21 54.46 17.84 55.33
  Q 17.07 57.10 16.56 58.95
  Q 16.24 60.13 17.38 60.52
  Q 18.13 60.77 18.86 60.44
  L 25.12 57.60
  Q 25.55 57.41 26.01 57.48
  Q 37.71 59.30 46.23 52.55
  Q 55.53 45.18 57.68 33.61
  Q 57.76 33.18 58.01 32.85
  Q 58.86 31.75 61.14 32.45
  A 1.32 1.31 -81.3 0 0 62.84 31.20
  C 62.84 30.65 62.67 30.13 62.33 29.69
  Q 59.90 26.55 57.53 23.63
  A 1.25 1.25 0.0 0 0 55.72 23.50
  L 49.48 29.27
  A 1.24 1.24 0.0 0 0 50.13 31.41
  L 53.50 31.93
  A 0.73 0.73 0.0 0 1 54.11 32.79
  C 51.76 45.18 41.51 54.81 28.48 53.45
  A 0.96 0.94 83.1 0 1 27.68 52.81
  Q 26.53 49.54 25.36 45.97
  Q 25.03 44.97 24.21 44.58
  A 1.36 1.35 -63.7 0 0 22.42 45.19
  L 20.17 49.64
  Q 19.91 50.15 19.46 49.81
  C 10.25 42.74 9.77 31.38 17.39 22.86
  A 1.66 1.66 0.0 0 1 19.23 22.43
  L 25.40 24.90
  A 1.38 1.38 0.0 0 0 27.22 23.15
  L 26.08 19.98
  A 0.59 0.58 82.8 0 1 26.68 19.20
  C 32.50 19.70 36.93 23.71 37.00 29.73
  Q 37.01 30.33 36.42 30.20"
/>
<path fill="#2f353e" d="
  M 0.00 0.00
  L 70.00 0.00
  L 70.00 70.00
  L 0.00 70.00
  L 0.00 0.00
  Z
  M 36.42 30.20
  C 28.17 28.42 24.93 39.62 32.17 42.30
  C 40.08 45.23 43.21 34.89 42.82 29.18
  C 42.21 20.22 35.42 14.13 26.42 13.77
  C 25.57 13.74 24.72 14.04 23.85 13.97
  Q 23.23 13.92 22.94 13.37
  L 20.98 9.71
  A 1.23 1.23 0.0 0 0 18.74 9.86
  Q 17.64 12.75 16.80 15.57
  C 16.14 17.81 13.47 19.17 12.11 21.06
  C 4.11 32.17 5.89 46.01 17.43 53.92
  Q 18.21 54.46 17.84 55.33
  Q 17.07 57.10 16.56 58.95
  Q 16.24 60.13 17.38 60.52
  Q 18.13 60.77 18.86 60.44
  L 25.12 57.60
  Q 25.55 57.41 26.01 57.48
  Q 37.71 59.30 46.23 52.55
  Q 55.53 45.18 57.68 33.61
  Q 57.76 33.18 58.01 32.85
  Q 58.86 31.75 61.14 32.45
  A 1.32 1.31 -81.3 0 0 62.84 31.20
  C 62.84 30.65 62.67 30.13 62.33 29.69
  Q 59.90 26.55 57.53 23.63
  A 1.25 1.25 0.0 0 0 55.72 23.50
  L 49.48 29.27
  A 1.24 1.24 0.0 0 0 50.13 31.41
  L 53.50 31.93
  A 0.73 0.73 0.0 0 1 54.11 32.79
  C 51.76 45.18 41.51 54.81 28.48 53.45
  A 0.96 0.94 83.1 0 1 27.68 52.81
  Q 26.53 49.54 25.36 45.97
  Q 25.03 44.97 24.21 44.58
  A 1.36 1.35 -63.7 0 0 22.42 45.19
  L 20.17 49.64
  Q 19.91 50.15 19.46 49.81
  C 10.25 42.74 9.77 31.38 17.39 22.86
  A 1.66 1.66 0.0 0 1 19.23 22.43
  L 25.40 24.90
  A 1.38 1.38 0.0 0 0 27.22 23.15
  L 26.08 19.98
  A 0.59 0.58 82.8 0 1 26.68 19.20
  C 32.50 19.70 36.93 23.71 37.00 29.73
  Q 37.01 30.33 36.42 30.20
  Z"
/>
<path fill="#ff9494" d="
  M 37.00 29.73
  C 36.93 23.71 32.50 19.70 26.68 19.20
  A 0.59 0.58 82.8 0 0 26.08 19.98
  L 27.22 23.15
  A 1.38 1.38 0.0 0 1 25.40 24.90
  L 19.23 22.43
  A 1.66 1.66 0.0 0 0 17.39 22.86
  C 9.77 31.38 10.25 42.74 19.46 49.81
  Q 19.91 50.15 20.17 49.64
  L 22.42 45.19
  A 1.36 1.35 -63.7 0 1 24.21 44.58
  Q 25.03 44.97 25.36 45.97
  Q 26.53 49.54 27.68 52.81
  A 0.96 0.94 83.1 0 0 28.48 53.45
  C 41.51 54.81 51.76 45.18 54.11 32.79
  A 0.73 0.73 0.0 0 0 53.50 31.93
  L 50.13 31.41
  A 1.24 1.24 0.0 0 1 49.48 29.27
  L 55.72 23.50
  A 1.25 1.25 0.0 0 1 57.53 23.63
  Q 59.90 26.55 62.33 29.69
  C 62.67 30.13 62.84 30.65 62.84 31.20
  A 1.32 1.31 -81.3 0 1 61.14 32.45
  Q 58.86 31.75 58.01 32.85
  Q 57.76 33.18 57.68 33.61
  Q 55.53 45.18 46.23 52.55
  Q 37.71 59.30 26.01 57.48
  Q 25.55 57.41 25.12 57.60
  L 18.86 60.44
  Q 18.13 60.77 17.38 60.52
  Q 16.24 60.13 16.56 58.95
  Q 17.07 57.10 17.84 55.33
  Q 18.21 54.46 17.43 53.92
  C 5.89 46.01 4.11 32.17 12.11 21.06
  C 13.47 19.17 16.14 17.81 16.80 15.57
  Q 17.64 12.75 18.74 9.86
  A 1.23 1.23 0.0 0 1 20.98 9.71
  L 22.94 13.37
  Q 23.23 13.92 23.85 13.97
  C 24.72 14.04 25.57 13.74 26.42 13.77
  C 35.42 14.13 42.21 20.22 42.82 29.18
  C 43.21 34.89 40.08 45.23 32.17 42.30
  C 24.93 39.62 28.17 28.42 36.42 30.20
  Q 37.01 30.33 37.00 29.73
  Z"
/>
</svg>
