<svg width="32" height="32" viewBox="0 0 32 32" fill="none" xmlns="http://www.w3.org/2000/svg">
<path d="M16.9143 13.5909C16.8823 10.8389 14.8572 9.00575 12.1966 8.77718C12.1524 8.7729 12.1078 8.77997 12.0671 8.79775C12.0264 8.81553 11.9907 8.84345 11.9634 8.87893C11.9361 8.91442 11.918 8.95635 11.9109 9.00087C11.9037 9.04539 11.9076 9.09108 11.9223 9.13375L12.4434 10.5829C12.4854 10.6978 12.493 10.8224 12.4654 10.9415C12.4379 11.0606 12.3762 11.1692 12.2881 11.254C12.1999 11.3387 12.0891 11.396 11.9689 11.4189C11.8488 11.4418 11.7246 11.4293 11.6114 11.3829L8.79088 10.2537C8.64732 10.1971 8.48989 10.1856 8.33961 10.2207C8.18932 10.2558 8.05332 10.3359 7.94973 10.4503C4.46631 14.3452 4.68573 19.5383 8.89602 22.7703C9.03316 22.8739 9.14135 22.848 9.22059 22.6926L10.2492 20.6583C10.3231 20.5141 10.45 20.4042 10.6028 20.3521C10.7557 20.3 10.9224 20.3098 11.0674 20.3795C11.3174 20.4983 11.4926 20.7101 11.5932 21.0149C11.9497 22.1029 12.3033 23.1452 12.6537 24.1417C12.6811 24.2209 12.7301 24.2906 12.7949 24.3424C12.8597 24.3943 12.9376 24.4262 13.0194 24.4343C18.976 25.056 23.6617 20.6537 24.736 14.9897C24.7445 14.9455 24.744 14.9 24.7344 14.856C24.7249 14.812 24.7066 14.7704 24.6805 14.7337C24.6545 14.6969 24.6212 14.6658 24.5828 14.6423C24.5445 14.6187 24.5017 14.6032 24.4572 14.5966L22.9166 14.3589C22.8109 14.3427 22.712 14.297 22.6312 14.227C22.5504 14.157 22.4911 14.0656 22.46 13.9633C22.4289 13.861 22.4274 13.752 22.4556 13.6489C22.4838 13.5458 22.5406 13.4528 22.6194 13.3806L25.472 10.7429C25.5293 10.6905 25.5967 10.6504 25.67 10.6249C25.7433 10.5994 25.8211 10.5891 25.8985 10.5947C25.9759 10.6002 26.0514 10.6215 26.1204 10.6572C26.1893 10.6929 26.2502 10.7423 26.2994 10.8023C27.0217 11.6922 27.7532 12.6157 28.4937 13.5726C28.6492 13.7737 28.7269 14.0115 28.7269 14.2629C28.7259 14.3569 28.7031 14.4495 28.6603 14.5332C28.6175 14.6169 28.5559 14.6894 28.4804 14.7449C28.4049 14.8005 28.3176 14.8374 28.2254 14.853C28.1333 14.8685 28.0389 14.8621 27.9497 14.8343C27.2549 14.621 26.7779 14.6819 26.5189 15.0172C26.4427 15.1177 26.3924 15.2336 26.368 15.3646C25.7128 18.8907 23.968 21.7768 21.1337 24.0229C18.5372 26.08 15.456 26.8313 11.8903 26.2766C11.7501 26.2553 11.6145 26.2736 11.4834 26.3315L8.62173 27.6297C8.39926 27.7303 8.17373 27.7425 7.94516 27.6663C7.59773 27.5475 7.47278 27.3082 7.57031 26.9486C7.72573 26.3848 7.92078 25.8332 8.15545 25.2937C8.26821 25.0286 8.20573 24.8137 7.96802 24.6492C2.69259 21.0332 1.87888 14.7063 5.53602 9.62746C6.15773 8.76346 7.37831 8.14175 7.68002 7.11775C7.93602 6.25832 8.23164 5.38822 8.56688 4.50746C8.60452 4.40572 8.67078 4.31703 8.75769 4.2521C8.84459 4.18717 8.94843 4.14876 9.05667 4.14152C9.16491 4.13427 9.27294 4.15849 9.36772 4.21125C9.46251 4.26401 9.54001 4.34307 9.59088 4.43889L10.4869 6.11203C10.5753 6.27965 10.7139 6.37108 10.9029 6.38632C11.3006 6.41832 11.6892 6.28118 12.0777 6.29489C16.192 6.45946 19.296 9.24346 19.5749 13.3395C19.7532 15.9497 18.3223 20.6766 14.7063 19.3372C11.3966 18.112 12.8777 12.992 16.6492 13.8057C16.829 13.8454 16.9174 13.7737 16.9143 13.5909Z" fill="#FF9494"/>
</svg>
