<svg width="50" height="50" viewBox="0 0 50 50" fill="none" xmlns="http://www.w3.org/2000/svg">
<rect width="50" height="50" rx="25" fill="#393939"/>
<g clip-path="url(#clip0_147_7948)">
<path d="M36.243 28.6773L37.9234 24.2757C38.2047 23.5375 37.6633 22.75 36.8687 22.75H32.7555C33.5289 21.421 34.007 19.8953 34.007 18.25V18.2289C36.7633 17.6804 38.507 16.8859 38.507 16C38.507 15.0648 36.5875 14.2351 33.5781 13.6796C32.9313 11.3734 31.6797 9.05308 30.7234 7.85776C30.0555 7.02105 28.9023 6.76089 27.9461 7.23901L26.0055 8.20933C25.3727 8.52573 24.6273 8.52573 23.9945 8.20933L22.0539 7.23901C21.0977 6.76089 19.9445 7.02105 19.2766 7.85776C18.3273 9.05308 17.0687 11.3734 16.4219 13.6796C13.4195 14.2351 11.5 15.0648 11.5 16C11.5 16.8859 13.2437 17.6804 16 18.2289V18.25C16 19.8953 16.4781 21.421 17.2516 22.75H13.2086C12.4 22.75 11.8586 23.5726 12.175 24.3179L13.9891 28.5507C11.1695 30.189 9.25 33.2054 9.25 36.7V39.85C9.25 41.5867 10.6633 43 12.4 43H37.6C39.3367 43 40.75 41.5867 40.75 39.85V36.7C40.75 33.2968 38.9359 30.3437 36.243 28.6773ZM21.625 40.75L18.7 27.25L22.1875 29.5L23.875 32.3125L21.625 40.75ZM28.375 40.75L26.125 32.3125L27.8125 29.5L31.3 27.25L28.375 40.75ZM31.307 19.7617C31.0328 20.5984 30.8148 21.4914 30.1469 22.1101C29.4367 22.764 26.7719 23.6851 25.6469 20.3523C25.45 19.7617 24.5641 19.7617 24.3602 20.3523C23.1648 23.882 20.4227 22.6304 19.8602 22.1101C19.1922 21.4914 18.9672 20.5984 18.7 19.7617C18.6437 19.5859 18.257 19.3609 18.257 19.3539V18.5945C20.2469 18.8476 22.5461 19.0023 25.007 19.0023C27.468 19.0023 29.7672 18.8546 31.757 18.5945V19.3539C31.75 19.3609 31.3633 19.5789 31.307 19.7617Z" fill="#232323"/>
</g>
<defs>
<clipPath id="clip0_147_7948">
<rect x="7" y="7" width="36" height="36" rx="18" fill="white"/>
</clipPath>
</defs>
</svg>
